<?xml version="1.0" encoding="utf-8"?>
<svg xmlns="http://www.w3.org/2000/svg" xmlns:xlink="http://www.w3.org/1999/xlink" width="600" height="400" viewBox="0 0 2400 1600">
<defs>
  <clipPath id="clip550">
    <rect x="0" y="0" width="2400" height="1600"/>
  </clipPath>
</defs>
<path clip-path="url(#clip550)" d="M0 1600 L2400 1600 L2400 8.88178e-14 L0 8.88178e-14  Z" fill="#ffffff" fill-rule="evenodd" fill-opacity="1"/>
<defs>
  <clipPath id="clip551">
    <rect x="339" y="207" width="1700" height="1111"/>
  </clipPath>
</defs>
<path clip-path="url(#clip550)" d="M698.483 1394.28 L1884.82 1394.28 L1884.82 207.94 L698.483 207.94  Z" fill="#ffffff" fill-rule="evenodd" fill-opacity="1"/>
<defs>
  <clipPath id="clip552">
    <rect x="698" y="207" width="1187" height="1187"/>
  </clipPath>
</defs>
<polyline clip-path="url(#clip552)" style="stroke:#222255; stroke-linecap:round; stroke-linejoin:round; stroke-width:2.2; stroke-opacity:0.05; fill:none" points="738.028,1394.28 738.028,207.94 "/>
<polyline clip-path="url(#clip552)" style="stroke:#222255; stroke-linecap:round; stroke-linejoin:round; stroke-width:2.2; stroke-opacity:0.05; fill:none" points="777.572,1394.28 777.572,207.94 "/>
<polyline clip-path="url(#clip552)" style="stroke:#222255; stroke-linecap:round; stroke-linejoin:round; stroke-width:2.2; stroke-opacity:0.05; fill:none" points="817.117,1394.28 817.117,207.94 "/>
<polyline clip-path="url(#clip552)" style="stroke:#222255; stroke-linecap:round; stroke-linejoin:round; stroke-width:2.2; stroke-opacity:0.05; fill:none" points="856.661,1394.28 856.661,207.94 "/>
<polyline clip-path="url(#clip552)" style="stroke:#222255; stroke-linecap:round; stroke-linejoin:round; stroke-width:2.2; stroke-opacity:0.05; fill:none" points="935.75,1394.28 935.75,207.94 "/>
<polyline clip-path="url(#clip552)" style="stroke:#222255; stroke-linecap:round; stroke-linejoin:round; stroke-width:2.2; stroke-opacity:0.05; fill:none" points="975.295,1394.28 975.295,207.94 "/>
<polyline clip-path="url(#clip552)" style="stroke:#222255; stroke-linecap:round; stroke-linejoin:round; stroke-width:2.2; stroke-opacity:0.05; fill:none" points="1014.84,1394.28 1014.84,207.94 "/>
<polyline clip-path="url(#clip552)" style="stroke:#222255; stroke-linecap:round; stroke-linejoin:round; stroke-width:2.2; stroke-opacity:0.05; fill:none" points="1054.38,1394.28 1054.38,207.94 "/>
<polyline clip-path="url(#clip552)" style="stroke:#222255; stroke-linecap:round; stroke-linejoin:round; stroke-width:2.2; stroke-opacity:0.05; fill:none" points="1133.47,1394.28 1133.47,207.94 "/>
<polyline clip-path="url(#clip552)" style="stroke:#222255; stroke-linecap:round; stroke-linejoin:round; stroke-width:2.2; stroke-opacity:0.05; fill:none" points="1173.02,1394.28 1173.02,207.94 "/>
<polyline clip-path="url(#clip552)" style="stroke:#222255; stroke-linecap:round; stroke-linejoin:round; stroke-width:2.2; stroke-opacity:0.05; fill:none" points="1212.56,1394.28 1212.56,207.94 "/>
<polyline clip-path="url(#clip552)" style="stroke:#222255; stroke-linecap:round; stroke-linejoin:round; stroke-width:2.2; stroke-opacity:0.05; fill:none" points="1252.11,1394.28 1252.11,207.94 "/>
<polyline clip-path="url(#clip552)" style="stroke:#222255; stroke-linecap:round; stroke-linejoin:round; stroke-width:2.2; stroke-opacity:0.05; fill:none" points="1331.2,1394.28 1331.2,207.94 "/>
<polyline clip-path="url(#clip552)" style="stroke:#222255; stroke-linecap:round; stroke-linejoin:round; stroke-width:2.2; stroke-opacity:0.05; fill:none" points="1370.74,1394.28 1370.74,207.94 "/>
<polyline clip-path="url(#clip552)" style="stroke:#222255; stroke-linecap:round; stroke-linejoin:round; stroke-width:2.2; stroke-opacity:0.05; fill:none" points="1410.29,1394.28 1410.29,207.94 "/>
<polyline clip-path="url(#clip552)" style="stroke:#222255; stroke-linecap:round; stroke-linejoin:round; stroke-width:2.2; stroke-opacity:0.05; fill:none" points="1449.83,1394.28 1449.83,207.94 "/>
<polyline clip-path="url(#clip552)" style="stroke:#222255; stroke-linecap:round; stroke-linejoin:round; stroke-width:2.2; stroke-opacity:0.05; fill:none" points="1528.92,1394.28 1528.92,207.94 "/>
<polyline clip-path="url(#clip552)" style="stroke:#222255; stroke-linecap:round; stroke-linejoin:round; stroke-width:2.2; stroke-opacity:0.05; fill:none" points="1568.46,1394.28 1568.46,207.94 "/>
<polyline clip-path="url(#clip552)" style="stroke:#222255; stroke-linecap:round; stroke-linejoin:round; stroke-width:2.2; stroke-opacity:0.05; fill:none" points="1608.01,1394.28 1608.01,207.94 "/>
<polyline clip-path="url(#clip552)" style="stroke:#222255; stroke-linecap:round; stroke-linejoin:round; stroke-width:2.2; stroke-opacity:0.05; fill:none" points="1647.55,1394.28 1647.55,207.94 "/>
<polyline clip-path="url(#clip552)" style="stroke:#222255; stroke-linecap:round; stroke-linejoin:round; stroke-width:2.2; stroke-opacity:0.05; fill:none" points="1726.64,1394.28 1726.64,207.94 "/>
<polyline clip-path="url(#clip552)" style="stroke:#222255; stroke-linecap:round; stroke-linejoin:round; stroke-width:2.2; stroke-opacity:0.05; fill:none" points="1766.19,1394.28 1766.19,207.94 "/>
<polyline clip-path="url(#clip552)" style="stroke:#222255; stroke-linecap:round; stroke-linejoin:round; stroke-width:2.2; stroke-opacity:0.05; fill:none" points="1805.73,1394.28 1805.73,207.94 "/>
<polyline clip-path="url(#clip552)" style="stroke:#222255; stroke-linecap:round; stroke-linejoin:round; stroke-width:2.2; stroke-opacity:0.05; fill:none" points="1845.28,1394.28 1845.28,207.94 "/>
<polyline clip-path="url(#clip552)" style="stroke:#222255; stroke-linecap:round; stroke-linejoin:round; stroke-width:2.2; stroke-opacity:0.05; fill:none" points="698.483,1354.73 1884.82,1354.73 "/>
<polyline clip-path="url(#clip552)" style="stroke:#222255; stroke-linecap:round; stroke-linejoin:round; stroke-width:2.2; stroke-opacity:0.05; fill:none" points="698.483,1315.19 1884.82,1315.19 "/>
<polyline clip-path="url(#clip552)" style="stroke:#222255; stroke-linecap:round; stroke-linejoin:round; stroke-width:2.2; stroke-opacity:0.05; fill:none" points="698.483,1275.64 1884.82,1275.64 "/>
<polyline clip-path="url(#clip552)" style="stroke:#222255; stroke-linecap:round; stroke-linejoin:round; stroke-width:2.2; stroke-opacity:0.05; fill:none" points="698.483,1236.1 1884.82,1236.1 "/>
<polyline clip-path="url(#clip552)" style="stroke:#222255; stroke-linecap:round; stroke-linejoin:round; stroke-width:2.2; stroke-opacity:0.05; fill:none" points="698.483,1157.01 1884.82,1157.01 "/>
<polyline clip-path="url(#clip552)" style="stroke:#222255; stroke-linecap:round; stroke-linejoin:round; stroke-width:2.2; stroke-opacity:0.05; fill:none" points="698.483,1117.46 1884.82,1117.46 "/>
<polyline clip-path="url(#clip552)" style="stroke:#222255; stroke-linecap:round; stroke-linejoin:round; stroke-width:2.2; stroke-opacity:0.05; fill:none" points="698.483,1077.92 1884.82,1077.92 "/>
<polyline clip-path="url(#clip552)" style="stroke:#222255; stroke-linecap:round; stroke-linejoin:round; stroke-width:2.2; stroke-opacity:0.05; fill:none" points="698.483,1038.38 1884.82,1038.38 "/>
<polyline clip-path="url(#clip552)" style="stroke:#222255; stroke-linecap:round; stroke-linejoin:round; stroke-width:2.2; stroke-opacity:0.05; fill:none" points="698.483,959.286 1884.82,959.286 "/>
<polyline clip-path="url(#clip552)" style="stroke:#222255; stroke-linecap:round; stroke-linejoin:round; stroke-width:2.2; stroke-opacity:0.05; fill:none" points="698.483,919.742 1884.82,919.742 "/>
<polyline clip-path="url(#clip552)" style="stroke:#222255; stroke-linecap:round; stroke-linejoin:round; stroke-width:2.2; stroke-opacity:0.05; fill:none" points="698.483,880.197 1884.82,880.197 "/>
<polyline clip-path="url(#clip552)" style="stroke:#222255; stroke-linecap:round; stroke-linejoin:round; stroke-width:2.2; stroke-opacity:0.05; fill:none" points="698.483,840.653 1884.82,840.653 "/>
<polyline clip-path="url(#clip552)" style="stroke:#222255; stroke-linecap:round; stroke-linejoin:round; stroke-width:2.2; stroke-opacity:0.05; fill:none" points="698.483,761.564 1884.82,761.564 "/>
<polyline clip-path="url(#clip552)" style="stroke:#222255; stroke-linecap:round; stroke-linejoin:round; stroke-width:2.2; stroke-opacity:0.05; fill:none" points="698.483,722.019 1884.82,722.019 "/>
<polyline clip-path="url(#clip552)" style="stroke:#222255; stroke-linecap:round; stroke-linejoin:round; stroke-width:2.2; stroke-opacity:0.05; fill:none" points="698.483,682.474 1884.82,682.474 "/>
<polyline clip-path="url(#clip552)" style="stroke:#222255; stroke-linecap:round; stroke-linejoin:round; stroke-width:2.2; stroke-opacity:0.05; fill:none" points="698.483,642.93 1884.82,642.93 "/>
<polyline clip-path="url(#clip552)" style="stroke:#222255; stroke-linecap:round; stroke-linejoin:round; stroke-width:2.2; stroke-opacity:0.05; fill:none" points="698.483,563.841 1884.82,563.841 "/>
<polyline clip-path="url(#clip552)" style="stroke:#222255; stroke-linecap:round; stroke-linejoin:round; stroke-width:2.2; stroke-opacity:0.05; fill:none" points="698.483,524.296 1884.82,524.296 "/>
<polyline clip-path="url(#clip552)" style="stroke:#222255; stroke-linecap:round; stroke-linejoin:round; stroke-width:2.2; stroke-opacity:0.05; fill:none" points="698.483,484.752 1884.82,484.752 "/>
<polyline clip-path="url(#clip552)" style="stroke:#222255; stroke-linecap:round; stroke-linejoin:round; stroke-width:2.2; stroke-opacity:0.05; fill:none" points="698.483,445.207 1884.82,445.207 "/>
<polyline clip-path="url(#clip552)" style="stroke:#222255; stroke-linecap:round; stroke-linejoin:round; stroke-width:2.2; stroke-opacity:0.05; fill:none" points="698.483,366.118 1884.82,366.118 "/>
<polyline clip-path="url(#clip552)" style="stroke:#222255; stroke-linecap:round; stroke-linejoin:round; stroke-width:2.2; stroke-opacity:0.05; fill:none" points="698.483,326.573 1884.82,326.573 "/>
<polyline clip-path="url(#clip552)" style="stroke:#222255; stroke-linecap:round; stroke-linejoin:round; stroke-width:2.2; stroke-opacity:0.05; fill:none" points="698.483,287.029 1884.82,287.029 "/>
<polyline clip-path="url(#clip552)" style="stroke:#222255; stroke-linecap:round; stroke-linejoin:round; stroke-width:2.2; stroke-opacity:0.05; fill:none" points="698.483,247.484 1884.82,247.484 "/>
<g clip-path="url(#clip550)">
<text style="fill:#000000; fill-opacity:1; font-family:Century Gothic,CenturyGothic,AppleGothic,sans-serif; font-size:91px; text-anchor:middle;" transform="rotate(0, 1291.65, 80.4)" x="1291.65" y="80.4">Algorithm Profile (Radar Chart)</text>
</g>
<polyline clip-path="url(#clip552)" style="stroke:#808080; stroke-linecap:round; stroke-linejoin:round; stroke-width:5.28; stroke-opacity:0.3; fill:none" points="1489.37,801.108 1352.75,613.063 1131.69,684.89 1131.69,917.327 1352.75,989.154 1489.37,801.108 "/>
<polyline clip-path="url(#clip552)" style="stroke:#808080; stroke-linecap:round; stroke-linejoin:round; stroke-width:5.28; stroke-opacity:0.3; fill:none" points="1687.1,801.108 1413.85,425.017 971.729,568.671 971.729,1033.55 1413.85,1177.2 1687.1,801.108 "/>
<path clip-path="url(#clip552)" d="M1545.04 801.108 L1371.27 556.058 L1094.79 658.082 L1019.56 998.796 L1381.71 1078.29 L1545.04 801.108 L1545.04 801.108 L1381.71 801.108 L1019.56 801.108 L1094.79 801.108 L1371.27 801.108 L1545.04 801.108  Z" fill="#ff0000" fill-rule="evenodd" fill-opacity="0.2"/>
<polyline clip-path="url(#clip552)" style="stroke:#ff0000; stroke-linecap:round; stroke-linejoin:round; stroke-width:8.8; stroke-opacity:1; fill:none" points="1545.04,801.108 1371.27,556.058 1094.79,658.082 1019.56,998.796 1381.71,1078.29 1545.04,801.108 "/>
<path clip-path="url(#clip552)" d="M1662.01 801.108 L1386.26 509.946 L989.858 581.842 L1010.46 1005.41 L1379.35 1071.01 L1662.01 801.108 L1662.01 801.108 L1379.35 801.108 L1010.46 801.108 L989.858 801.108 L1386.26 801.108 L1662.01 801.108  Z" fill="#008000" fill-rule="evenodd" fill-opacity="0.2"/>
<polyline clip-path="url(#clip552)" style="stroke:#008000; stroke-linecap:round; stroke-linejoin:round; stroke-width:8.8; stroke-opacity:1; fill:none" points="1662.01,801.108 1386.26,509.946 989.858,581.842 1010.46,1005.41 1379.35,1071.01 1662.01,801.108 "/>
<path clip-path="url(#clip552)" d="M1676.73 801.108 L1413.52 426.023 L1069.53 639.727 L1125.62 921.74 L1377.72 1065.98 L1676.73 801.108 L1676.73 801.108 L1377.72 801.108 L1125.62 801.108 L1069.53 801.108 L1413.52 801.108 L1676.73 801.108  Z" fill="#0000ff" fill-rule="evenodd" fill-opacity="0.2"/>
<polyline clip-path="url(#clip552)" style="stroke:#0000ff; stroke-linecap:round; stroke-linejoin:round; stroke-width:8.8; stroke-opacity:1; fill:none" points="1676.73,801.108 1413.52,426.023 1069.53,639.727 1125.62,921.74 1377.72,1065.98 1676.73,801.108 "/>
<path clip-path="url(#clip552)" d="M1567.64 801.108 L1380.75 526.893 L1047.36 623.622 L1098.53 941.421 L1364.51 1025.35 L1567.64 801.108 L1567.64 801.108 L1364.51 801.108 L1098.53 801.108 L1047.36 801.108 L1380.75 801.108 L1567.64 801.108  Z" fill="#ffa500" fill-rule="evenodd" fill-opacity="0.2"/>
<polyline clip-path="url(#clip552)" style="stroke:#ffa500; stroke-linecap:round; stroke-linejoin:round; stroke-width:8.8; stroke-opacity:1; fill:none" points="1567.64,801.108 1380.75,526.893 1047.36,623.622 1098.53,941.421 1364.51,1025.35 1567.64,801.108 "/>
<path clip-path="url(#clip552)" d="M1554.96 801.108 L1386.99 507.689 L1070.04 640.095 L1021.21 997.596 L1398.71 1130.6 L1554.96 801.108 L1554.96 801.108 L1398.71 801.108 L1021.21 801.108 L1070.04 801.108 L1386.99 801.108 L1554.96 801.108  Z" fill="#800080" fill-rule="evenodd" fill-opacity="0.2"/>
<polyline clip-path="url(#clip552)" style="stroke:#800080; stroke-linecap:round; stroke-linejoin:round; stroke-width:8.8; stroke-opacity:1; fill:none" points="1554.96,801.108 1386.99,507.689 1070.04,640.095 1021.21,997.596 1398.71,1130.6 1554.96,801.108 "/>
<path clip-path="url(#clip550)" d="M1483.79 652.817 L1819.01 652.817 L1819.01 247.484 L1483.79 247.484  Z" fill="#ffffff" fill-rule="evenodd" fill-opacity="0.9"/>
<polyline clip-path="url(#clip550)" style="stroke:#222255; stroke-linecap:round; stroke-linejoin:round; stroke-width:4.4; stroke-opacity:0.1; fill:none" points="1483.79,652.817 1819.01,652.817 1819.01,247.484 1483.79,247.484 1483.79,652.817 "/>
<path clip-path="url(#clip550)" d="M1505.72 342.062 L1637.34 342.062 L1637.34 288.017 L1505.72 288.017 L1505.72 342.062  Z" fill="#ff0000" fill-rule="evenodd" fill-opacity="0.2"/>
<polyline clip-path="url(#clip550)" style="stroke:#ff0000; stroke-linecap:round; stroke-linejoin:round; stroke-width:11; stroke-opacity:1; fill:none" points="1505.72,288.017 1637.34,288.017 "/>
<g clip-path="url(#clip550)">
<text style="fill:#000000; fill-opacity:1; font-family:Century Gothic,CenturyGothic,AppleGothic,sans-serif; font-size:65px; text-anchor:start;" transform="rotate(0, 1659.27, 339.04)" x="1659.27" y="339.04">PPO</text>
</g>
<path clip-path="url(#clip550)" d="M1505.72 409.617 L1637.34 409.617 L1637.34 355.573 L1505.72 355.573 L1505.72 409.617  Z" fill="#008000" fill-rule="evenodd" fill-opacity="0.2"/>
<polyline clip-path="url(#clip550)" style="stroke:#008000; stroke-linecap:round; stroke-linejoin:round; stroke-width:11; stroke-opacity:1; fill:none" points="1505.72,355.573 1637.34,355.573 "/>
<g clip-path="url(#clip550)">
<text style="fill:#000000; fill-opacity:1; font-family:Century Gothic,CenturyGothic,AppleGothic,sans-serif; font-size:65px; text-anchor:start;" transform="rotate(0, 1659.27, 406.595)" x="1659.27" y="406.595">SAC</text>
</g>
<path clip-path="url(#clip550)" d="M1505.72 477.173 L1637.34 477.173 L1637.34 423.128 L1505.72 423.128 L1505.72 477.173  Z" fill="#0000ff" fill-rule="evenodd" fill-opacity="0.2"/>
<polyline clip-path="url(#clip550)" style="stroke:#0000ff; stroke-linecap:round; stroke-linejoin:round; stroke-width:11; stroke-opacity:1; fill:none" points="1505.72,423.128 1637.34,423.128 "/>
<g clip-path="url(#clip550)">
<text style="fill:#000000; fill-opacity:1; font-family:Century Gothic,CenturyGothic,AppleGothic,sans-serif; font-size:65px; text-anchor:start;" transform="rotate(0, 1659.27, 474.151)" x="1659.27" y="474.151">EGP</text>
</g>
<path clip-path="url(#clip550)" d="M1505.72 544.728 L1637.34 544.728 L1637.34 490.684 L1505.72 490.684 L1505.72 544.728  Z" fill="#ffa500" fill-rule="evenodd" fill-opacity="0.2"/>
<polyline clip-path="url(#clip550)" style="stroke:#ffa500; stroke-linecap:round; stroke-linejoin:round; stroke-width:11; stroke-opacity:1; fill:none" points="1505.72,490.684 1637.34,490.684 "/>
<g clip-path="url(#clip550)">
<text style="fill:#000000; fill-opacity:1; font-family:Century Gothic,CenturyGothic,AppleGothic,sans-serif; font-size:65px; text-anchor:start;" transform="rotate(0, 1659.27, 541.706)" x="1659.27" y="541.706">FPRL</text>
</g>
<path clip-path="url(#clip550)" d="M1505.72 612.284 L1637.34 612.284 L1637.34 558.239 L1505.72 558.239 L1505.72 612.284  Z" fill="#800080" fill-rule="evenodd" fill-opacity="0.2"/>
<polyline clip-path="url(#clip550)" style="stroke:#800080; stroke-linecap:round; stroke-linejoin:round; stroke-width:11; stroke-opacity:1; fill:none" points="1505.72,558.239 1637.34,558.239 "/>
<g clip-path="url(#clip550)">
<text style="fill:#000000; fill-opacity:1; font-family:Century Gothic,CenturyGothic,AppleGothic,sans-serif; font-size:65px; text-anchor:start;" transform="rotate(0, 1659.27, 609.261)" x="1659.27" y="609.261">ICRL</text>
</g>
<path clip-path="url(#clip550)" d="M1692.04 802.292 Q1693.69 802.852 1695.25 804.686 Q1696.83 806.519 1698.4 809.727 L1703.62 820.116 L1698.1 820.116 L1693.24 810.364 Q1691.35 806.544 1689.57 805.297 Q1687.81 804.049 1684.76 804.049 L1679.15 804.049 L1679.15 820.116 L1674.01 820.116 L1674.01 782.1 L1685.62 782.1 Q1692.14 782.1 1695.35 784.825 Q1698.56 787.549 1698.56 793.049 Q1698.56 796.639 1696.88 799.007 Q1695.22 801.375 1692.04 802.292 M1679.15 786.327 L1679.15 799.822 L1685.62 799.822 Q1689.34 799.822 1691.22 798.116 Q1693.13 796.385 1693.13 793.049 Q1693.13 789.714 1691.22 788.033 Q1689.34 786.327 1685.62 786.327 L1679.15 786.327 Z" fill="#a9a9a9" fill-rule="nonzero" fill-opacity="1" /><path clip-path="url(#clip550)" d="M1732.09 804.686 L1732.09 806.977 L1710.55 806.977 Q1710.86 811.815 1713.45 814.362 Q1716.08 816.882 1720.74 816.882 Q1723.43 816.882 1725.96 816.22 Q1728.5 815.558 1731 814.234 L1731 818.665 Q1728.48 819.734 1725.83 820.294 Q1723.18 820.855 1720.46 820.855 Q1713.63 820.855 1709.63 816.882 Q1705.66 812.91 1705.66 806.137 Q1705.66 799.135 1709.43 795.035 Q1713.22 790.91 1719.64 790.91 Q1725.39 790.91 1728.73 794.628 Q1732.09 798.32 1732.09 804.686 M1727.41 803.311 Q1727.36 799.466 1725.24 797.174 Q1723.15 794.882 1719.69 794.882 Q1715.77 794.882 1713.4 797.098 Q1711.06 799.313 1710.7 803.336 L1727.41 803.311 Z" fill="#a9a9a9" fill-rule="nonzero" fill-opacity="1" /><path clip-path="url(#clip550)" d="M1737.06 791.598 L1741.74 791.598 L1747.6 813.852 L1753.43 791.598 L1758.95 791.598 L1764.81 813.852 L1770.64 791.598 L1775.33 791.598 L1767.87 820.116 L1762.34 820.116 L1756.2 796.741 L1750.04 820.116 L1744.52 820.116 L1737.06 791.598 Z" fill="#a9a9a9" fill-rule="nonzero" fill-opacity="1" /><path clip-path="url(#clip550)" d="M1795.39 805.781 Q1789.71 805.781 1787.52 807.079 Q1785.33 808.378 1785.33 811.51 Q1785.33 814.005 1786.96 815.482 Q1788.62 816.933 1791.45 816.933 Q1795.34 816.933 1797.68 814.183 Q1800.05 811.408 1800.05 806.825 L1800.05 805.781 L1795.39 805.781 M1804.74 803.845 L1804.74 820.116 L1800.05 820.116 L1800.05 815.787 Q1798.45 818.385 1796.05 819.632 Q1793.66 820.855 1790.2 820.855 Q1785.82 820.855 1783.22 818.41 Q1780.65 815.94 1780.65 811.815 Q1780.65 807.003 1783.86 804.558 Q1787.09 802.114 1793.48 802.114 L1800.05 802.114 L1800.05 801.656 Q1800.05 798.422 1797.91 796.665 Q1795.8 794.882 1791.95 794.882 Q1789.51 794.882 1787.19 795.468 Q1784.88 796.054 1782.74 797.225 L1782.74 792.896 Q1785.31 791.903 1787.73 791.42 Q1790.15 790.91 1792.44 790.91 Q1798.63 790.91 1801.68 794.119 Q1804.74 797.327 1804.74 803.845 Z" fill="#a9a9a9" fill-rule="nonzero" fill-opacity="1" /><path clip-path="url(#clip550)" d="M1830.91 795.977 Q1830.12 795.519 1829.18 795.315 Q1828.26 795.086 1827.14 795.086 Q1823.17 795.086 1821.03 797.683 Q1818.92 800.255 1818.92 805.093 L1818.92 820.116 L1814.21 820.116 L1814.21 791.598 L1818.92 791.598 L1818.92 796.028 Q1820.4 793.431 1822.76 792.183 Q1825.13 790.91 1828.52 790.91 Q1829 790.91 1829.59 790.987 Q1830.17 791.038 1830.89 791.165 L1830.91 795.977 Z" fill="#a9a9a9" fill-rule="nonzero" fill-opacity="1" /><path clip-path="url(#clip550)" d="M1853.68 795.926 L1853.68 780.496 L1858.36 780.496 L1858.36 820.116 L1853.68 820.116 L1853.68 815.838 Q1852.2 818.385 1849.93 819.632 Q1847.69 820.855 1844.54 820.855 Q1839.37 820.855 1836.11 816.73 Q1832.87 812.605 1832.87 805.882 Q1832.87 799.16 1836.11 795.035 Q1839.37 790.91 1844.54 790.91 Q1847.69 790.91 1849.93 792.158 Q1852.2 793.38 1853.68 795.926 M1837.71 805.882 Q1837.71 811.051 1839.82 814.005 Q1841.96 816.933 1845.68 816.933 Q1849.4 816.933 1851.54 814.005 Q1853.68 811.051 1853.68 805.882 Q1853.68 800.713 1851.54 797.785 Q1849.4 794.832 1845.68 794.832 Q1841.96 794.832 1839.82 797.785 Q1837.71 800.713 1837.71 805.882 Z" fill="#a9a9a9" fill-rule="nonzero" fill-opacity="1" /><path clip-path="url(#clip550)" d="M1358.57 332.038 L1358.57 337.055 Q1355.64 335.654 1353.04 334.967 Q1350.44 334.279 1348.03 334.279 Q1343.82 334.279 1341.53 335.909 Q1339.27 337.538 1339.27 340.543 Q1339.27 343.064 1340.77 344.362 Q1342.3 345.636 1346.52 346.425 L1349.63 347.061 Q1355.38 348.156 1358.11 350.932 Q1360.86 353.682 1360.86 358.316 Q1360.86 363.841 1357.14 366.693 Q1353.45 369.545 1346.29 369.545 Q1343.59 369.545 1340.54 368.934 Q1337.51 368.323 1334.25 367.126 L1334.25 361.83 Q1337.38 363.587 1340.39 364.478 Q1343.39 365.369 1346.29 365.369 Q1350.7 365.369 1353.09 363.638 Q1355.49 361.906 1355.49 358.698 Q1355.49 355.897 1353.75 354.318 Q1352.05 352.74 1348.13 351.95 L1345 351.339 Q1339.24 350.193 1336.67 347.749 Q1334.1 345.305 1334.1 340.95 Q1334.1 335.909 1337.64 333.006 Q1341.2 330.103 1347.44 330.103 Q1350.11 330.103 1352.89 330.587 Q1355.66 331.071 1358.57 332.038 Z" fill="#a9a9a9" fill-rule="nonzero" fill-opacity="1" /><path clip-path="url(#clip550)" d="M1373.31 332.191 L1373.31 340.288 L1382.96 340.288 L1382.96 343.93 L1373.31 343.93 L1373.31 359.411 Q1373.31 362.899 1374.25 363.892 Q1375.22 364.885 1378.15 364.885 L1382.96 364.885 L1382.96 368.807 L1378.15 368.807 Q1372.72 368.807 1370.66 366.795 Q1368.6 364.758 1368.6 359.411 L1368.6 343.93 L1365.16 343.93 L1365.16 340.288 L1368.6 340.288 L1368.6 332.191 L1373.31 332.191 Z" fill="#a9a9a9" fill-rule="nonzero" fill-opacity="1" /><path clip-path="url(#clip550)" d="M1402.08 354.471 Q1396.4 354.471 1394.21 355.77 Q1392.02 357.068 1392.02 360.2 Q1392.02 362.696 1393.65 364.172 Q1395.31 365.624 1398.14 365.624 Q1402.03 365.624 1404.37 362.874 Q1406.74 360.098 1406.74 355.515 L1406.74 354.471 L1402.08 354.471 M1411.43 352.536 L1411.43 368.807 L1406.74 368.807 L1406.74 364.478 Q1405.14 367.075 1402.74 368.323 Q1400.35 369.545 1396.89 369.545 Q1392.51 369.545 1389.91 367.101 Q1387.34 364.631 1387.34 360.506 Q1387.34 355.693 1390.55 353.249 Q1393.78 350.804 1400.17 350.804 L1406.74 350.804 L1406.74 350.346 Q1406.74 347.112 1404.6 345.355 Q1402.49 343.573 1398.65 343.573 Q1396.2 343.573 1393.88 344.159 Q1391.57 344.744 1389.43 345.916 L1389.43 341.587 Q1392 340.594 1394.42 340.11 Q1396.84 339.601 1399.13 339.601 Q1405.32 339.601 1408.37 342.809 Q1411.43 346.017 1411.43 352.536 Z" fill="#a9a9a9" fill-rule="nonzero" fill-opacity="1" /><path clip-path="url(#clip550)" d="M1441.55 354.573 Q1441.55 349.404 1439.41 346.476 Q1437.3 343.522 1433.58 343.522 Q1429.86 343.522 1427.72 346.476 Q1425.61 349.404 1425.61 354.573 Q1425.61 359.742 1427.72 362.696 Q1429.86 365.624 1433.58 365.624 Q1437.3 365.624 1439.41 362.696 Q1441.55 359.742 1441.55 354.573 M1425.61 344.617 Q1427.09 342.071 1429.33 340.849 Q1431.59 339.601 1434.73 339.601 Q1439.92 339.601 1443.15 343.726 Q1446.41 347.851 1446.41 354.573 Q1446.41 361.295 1443.15 365.42 Q1439.92 369.545 1434.73 369.545 Q1431.59 369.545 1429.33 368.323 Q1427.09 367.075 1425.61 364.529 L1425.61 368.807 L1420.9 368.807 L1420.9 329.187 L1425.61 329.187 L1425.61 344.617 Z" fill="#a9a9a9" fill-rule="nonzero" fill-opacity="1" /><path clip-path="url(#clip550)" d="M1454.18 340.288 L1458.86 340.288 L1458.86 368.807 L1454.18 368.807 L1454.18 340.288 M1454.18 329.187 L1458.86 329.187 L1458.86 335.119 L1454.18 335.119 L1454.18 329.187 Z" fill="#a9a9a9" fill-rule="nonzero" fill-opacity="1" /><path clip-path="url(#clip550)" d="M1468.67 329.187 L1473.35 329.187 L1473.35 368.807 L1468.67 368.807 L1468.67 329.187 Z" fill="#a9a9a9" fill-rule="nonzero" fill-opacity="1" /><path clip-path="url(#clip550)" d="M1483.16 340.288 L1487.84 340.288 L1487.84 368.807 L1483.16 368.807 L1483.16 340.288 M1483.16 329.187 L1487.84 329.187 L1487.84 335.119 L1483.16 335.119 L1483.16 329.187 Z" fill="#a9a9a9" fill-rule="nonzero" fill-opacity="1" /><path clip-path="url(#clip550)" d="M1502.28 332.191 L1502.28 340.288 L1511.93 340.288 L1511.93 343.93 L1502.28 343.93 L1502.28 359.411 Q1502.28 362.899 1503.22 363.892 Q1504.19 364.885 1507.12 364.885 L1511.93 364.885 L1511.93 368.807 L1507.12 368.807 Q1501.69 368.807 1499.63 366.795 Q1497.57 364.758 1497.57 359.411 L1497.57 343.93 L1494.13 343.93 L1494.13 340.288 L1497.57 340.288 L1497.57 332.191 L1502.28 332.191 Z" fill="#a9a9a9" fill-rule="nonzero" fill-opacity="1" /><path clip-path="url(#clip550)" d="M1529.96 371.455 Q1527.97 376.547 1526.09 378.101 Q1524.2 379.654 1521.05 379.654 L1517.3 379.654 L1517.3 375.733 L1520.05 375.733 Q1521.99 375.733 1523.06 374.816 Q1524.13 373.899 1525.42 370.487 L1526.26 368.348 L1514.73 340.288 L1519.7 340.288 L1528.61 362.594 L1537.52 340.288 L1542.48 340.288 L1529.96 371.455 Z" fill="#a9a9a9" fill-rule="nonzero" fill-opacity="1" /><path clip-path="url(#clip550)" d="M854.566 504.423 L854.566 509.439 Q851.638 508.039 849.04 507.351 Q846.443 506.664 844.024 506.664 Q839.823 506.664 837.531 508.294 Q835.265 509.923 835.265 512.928 Q835.265 515.449 836.767 516.747 Q838.295 518.02 842.522 518.81 L845.628 519.446 Q851.383 520.541 854.107 523.317 Q856.857 526.067 856.857 530.701 Q856.857 536.226 853.14 539.078 Q849.448 541.93 842.293 541.93 Q839.594 541.93 836.538 541.319 Q833.508 540.708 830.249 539.511 L830.249 534.215 Q833.381 535.972 836.385 536.863 Q839.39 537.754 842.293 537.754 Q846.698 537.754 849.091 536.023 Q851.485 534.291 851.485 531.083 Q851.485 528.282 849.753 526.703 Q848.047 525.125 844.126 524.335 L840.994 523.724 Q835.239 522.578 832.668 520.134 Q830.096 517.689 830.096 513.335 Q830.096 508.294 833.635 505.391 Q837.2 502.488 843.439 502.488 Q846.112 502.488 848.888 502.972 Q851.663 503.456 854.566 504.423 Z" fill="#a9a9a9" fill-rule="nonzero" fill-opacity="1" /><path clip-path="url(#clip550)" d="M869.207 536.914 L869.207 552.039 L864.496 552.039 L864.496 512.673 L869.207 512.673 L869.207 517.002 Q870.684 514.456 872.924 513.233 Q875.191 511.986 878.323 511.986 Q883.517 511.986 886.751 516.111 Q890.01 520.236 890.01 526.958 Q890.01 533.68 886.751 537.805 Q883.517 541.93 878.323 541.93 Q875.191 541.93 872.924 540.708 Q870.684 539.46 869.207 536.914 M885.147 526.958 Q885.147 521.789 883.008 518.861 Q880.894 515.907 877.177 515.907 Q873.459 515.907 871.32 518.861 Q869.207 521.789 869.207 526.958 Q869.207 532.127 871.32 535.08 Q873.459 538.009 877.177 538.009 Q880.894 538.009 883.008 535.08 Q885.147 532.127 885.147 526.958 Z" fill="#a9a9a9" fill-rule="nonzero" fill-opacity="1" /><path clip-path="url(#clip550)" d="M922.17 525.761 L922.17 528.053 L900.628 528.053 Q900.934 532.891 903.531 535.437 Q906.153 537.958 910.813 537.958 Q913.512 537.958 916.033 537.296 Q918.579 536.634 921.075 535.31 L921.075 539.74 Q918.554 540.81 915.906 541.37 Q913.258 541.93 910.533 541.93 Q903.709 541.93 899.711 537.958 Q895.739 533.986 895.739 527.212 Q895.739 520.21 899.508 516.111 Q903.302 511.986 909.718 511.986 Q915.473 511.986 918.808 515.703 Q922.17 519.395 922.17 525.761 M917.484 524.386 Q917.433 520.541 915.32 518.25 Q913.232 515.958 909.769 515.958 Q905.848 515.958 903.48 518.173 Q901.137 520.388 900.781 524.412 L917.484 524.386 Z" fill="#a9a9a9" fill-rule="nonzero" fill-opacity="1" /><path clip-path="url(#clip550)" d="M954.253 525.761 L954.253 528.053 L932.711 528.053 Q933.017 532.891 935.614 535.437 Q938.237 537.958 942.896 537.958 Q945.595 537.958 948.116 537.296 Q950.662 536.634 953.158 535.31 L953.158 539.74 Q950.637 540.81 947.989 541.37 Q945.341 541.93 942.616 541.93 Q935.792 541.93 931.795 537.958 Q927.822 533.986 927.822 527.212 Q927.822 520.21 931.591 516.111 Q935.385 511.986 941.801 511.986 Q947.556 511.986 950.892 515.703 Q954.253 519.395 954.253 525.761 M949.568 524.386 Q949.517 520.541 947.403 518.25 Q945.315 515.958 941.852 515.958 Q937.931 515.958 935.563 518.173 Q933.22 520.388 932.864 524.412 L949.568 524.386 Z" fill="#a9a9a9" fill-rule="nonzero" fill-opacity="1" /><path clip-path="url(#clip550)" d="M980.709 517.002 L980.709 501.571 L985.394 501.571 L985.394 541.192 L980.709 541.192 L980.709 536.914 Q979.232 539.46 976.966 540.708 Q974.725 541.93 971.567 541.93 Q966.398 541.93 963.139 537.805 Q959.905 533.68 959.905 526.958 Q959.905 520.236 963.139 516.111 Q966.398 511.986 971.567 511.986 Q974.725 511.986 976.966 513.233 Q979.232 514.456 980.709 517.002 M964.743 526.958 Q964.743 532.127 966.857 535.08 Q968.996 538.009 972.713 538.009 Q976.431 538.009 978.57 535.08 Q980.709 532.127 980.709 526.958 Q980.709 521.789 978.57 518.861 Q976.431 515.907 972.713 515.907 Q968.996 515.907 966.857 518.861 Q964.743 521.789 964.743 526.958 Z" fill="#a9a9a9" fill-rule="nonzero" fill-opacity="1" /><path clip-path="url(#clip550)" d="M780.087 1081.22 Q781.742 1081.78 783.295 1083.61 Q784.874 1085.44 786.453 1088.65 L791.673 1099.04 L786.147 1099.04 L781.284 1089.29 Q779.399 1085.47 777.617 1084.22 Q775.86 1082.97 772.805 1082.97 L767.203 1082.97 L767.203 1099.04 L762.059 1099.04 L762.059 1061.02 L773.67 1061.02 Q780.189 1061.02 783.397 1063.75 Q786.605 1066.47 786.605 1071.97 Q786.605 1075.56 784.925 1077.93 Q783.27 1080.3 780.087 1081.22 M767.203 1065.25 L767.203 1078.75 L773.67 1078.75 Q777.388 1078.75 779.272 1077.04 Q781.182 1075.31 781.182 1071.97 Q781.182 1068.64 779.272 1066.96 Q777.388 1065.25 773.67 1065.25 L767.203 1065.25 Z" fill="#a9a9a9" fill-rule="nonzero" fill-opacity="1" /><path clip-path="url(#clip550)" d="M806.797 1073.81 Q803.029 1073.81 800.839 1076.76 Q798.649 1079.69 798.649 1084.81 Q798.649 1089.93 800.814 1092.88 Q803.004 1095.81 806.797 1095.81 Q810.541 1095.81 812.73 1092.85 Q814.92 1089.9 814.92 1084.81 Q814.92 1079.74 812.73 1076.79 Q810.541 1073.81 806.797 1073.81 M806.797 1069.83 Q812.909 1069.83 816.397 1073.81 Q819.885 1077.78 819.885 1084.81 Q819.885 1091.81 816.397 1095.81 Q812.909 1099.78 806.797 1099.78 Q800.661 1099.78 797.173 1095.81 Q793.71 1091.81 793.71 1084.81 Q793.71 1077.78 797.173 1073.81 Q800.661 1069.83 806.797 1069.83 Z" fill="#a9a9a9" fill-rule="nonzero" fill-opacity="1" /><path clip-path="url(#clip550)" d="M848.124 1084.81 Q848.124 1079.64 845.985 1076.71 Q843.871 1073.76 840.154 1073.76 Q836.436 1073.76 834.297 1076.71 Q832.184 1079.64 832.184 1084.81 Q832.184 1089.98 834.297 1092.93 Q836.436 1095.86 840.154 1095.86 Q843.871 1095.86 845.985 1092.93 Q848.124 1089.98 848.124 1084.81 M832.184 1074.85 Q833.661 1072.3 835.902 1071.08 Q838.168 1069.83 841.3 1069.83 Q846.494 1069.83 849.728 1073.96 Q852.987 1078.08 852.987 1084.81 Q852.987 1091.53 849.728 1095.65 Q846.494 1099.78 841.3 1099.78 Q838.168 1099.78 835.902 1098.56 Q833.661 1097.31 832.184 1094.76 L832.184 1099.04 L827.473 1099.04 L827.473 1059.42 L832.184 1059.42 L832.184 1074.85 Z" fill="#a9a9a9" fill-rule="nonzero" fill-opacity="1" /><path clip-path="url(#clip550)" d="M860.269 1087.79 L860.269 1070.52 L864.955 1070.52 L864.955 1087.61 Q864.955 1091.66 866.533 1093.69 Q868.112 1095.71 871.269 1095.71 Q875.063 1095.71 877.253 1093.29 Q879.468 1090.87 879.468 1086.69 L879.468 1070.52 L884.154 1070.52 L884.154 1099.04 L879.468 1099.04 L879.468 1094.66 Q877.762 1097.26 875.496 1098.53 Q873.255 1099.78 870.276 1099.78 Q865.362 1099.78 862.816 1096.72 Q860.269 1093.67 860.269 1087.79 M872.059 1069.83 L872.059 1069.83 Z" fill="#a9a9a9" fill-rule="nonzero" fill-opacity="1" /><path clip-path="url(#clip550)" d="M911.984 1071.36 L911.984 1075.79 Q909.998 1074.77 907.859 1074.27 Q905.721 1073.76 903.429 1073.76 Q899.941 1073.76 898.184 1074.83 Q896.452 1075.89 896.452 1078.03 Q896.452 1079.66 897.7 1080.61 Q898.947 1081.52 902.716 1082.36 L904.32 1082.72 Q909.311 1083.79 911.399 1085.75 Q913.512 1087.68 913.512 1091.17 Q913.512 1095.14 910.355 1097.46 Q907.223 1099.78 901.723 1099.78 Q899.431 1099.78 896.936 1099.32 Q894.466 1098.89 891.716 1098 L891.716 1093.16 Q894.313 1094.51 896.834 1095.2 Q899.355 1095.86 901.825 1095.86 Q905.135 1095.86 906.917 1094.74 Q908.7 1093.59 908.7 1091.53 Q908.7 1089.62 907.401 1088.6 Q906.128 1087.58 901.774 1086.64 L900.144 1086.26 Q895.79 1085.34 893.855 1083.46 Q891.92 1081.55 891.92 1078.24 Q891.92 1074.21 894.772 1072.02 Q897.623 1069.83 902.869 1069.83 Q905.466 1069.83 907.758 1070.22 Q910.049 1070.6 911.984 1071.36 Z" fill="#a9a9a9" fill-rule="nonzero" fill-opacity="1" /><path clip-path="url(#clip550)" d="M925.607 1062.43 L925.607 1070.52 L935.257 1070.52 L935.257 1074.16 L925.607 1074.16 L925.607 1089.64 Q925.607 1093.13 926.549 1094.13 Q927.517 1095.12 930.445 1095.12 L935.257 1095.12 L935.257 1099.04 L930.445 1099.04 Q925.021 1099.04 922.959 1097.03 Q920.896 1094.99 920.896 1089.64 L920.896 1074.16 L917.459 1074.16 L917.459 1070.52 L920.896 1070.52 L920.896 1062.43 L925.607 1062.43 Z" fill="#a9a9a9" fill-rule="nonzero" fill-opacity="1" /><path clip-path="url(#clip550)" d="M965.125 1081.83 L965.125 1099.04 L960.44 1099.04 L960.44 1081.98 Q960.44 1077.93 958.861 1075.92 Q957.283 1073.91 954.125 1073.91 Q950.331 1073.91 948.142 1076.33 Q945.952 1078.75 945.952 1082.92 L945.952 1099.04 L941.241 1099.04 L941.241 1070.52 L945.952 1070.52 L945.952 1074.95 Q947.632 1072.38 949.899 1071.11 Q952.19 1069.83 955.169 1069.83 Q960.084 1069.83 962.605 1072.89 Q965.125 1075.92 965.125 1081.83 Z" fill="#a9a9a9" fill-rule="nonzero" fill-opacity="1" /><path clip-path="url(#clip550)" d="M998.864 1083.61 L998.864 1085.9 L977.322 1085.9 Q977.628 1090.74 980.225 1093.29 Q982.847 1095.81 987.507 1095.81 Q990.206 1095.81 992.727 1095.14 Q995.273 1094.48 997.769 1093.16 L997.769 1097.59 Q995.248 1098.66 992.6 1099.22 Q989.952 1099.78 987.227 1099.78 Q980.403 1099.78 976.405 1095.81 Q972.433 1091.83 972.433 1085.06 Q972.433 1078.06 976.202 1073.96 Q979.996 1069.83 986.412 1069.83 Q992.167 1069.83 995.503 1073.55 Q998.864 1077.24 998.864 1083.61 M994.178 1082.24 Q994.128 1078.39 992.014 1076.1 Q989.926 1073.81 986.463 1073.81 Q982.542 1073.81 980.174 1076.02 Q977.831 1078.24 977.475 1082.26 L994.178 1082.24 Z" fill="#a9a9a9" fill-rule="nonzero" fill-opacity="1" /><path clip-path="url(#clip550)" d="M1024.73 1071.36 L1024.73 1075.79 Q1022.75 1074.77 1020.61 1074.27 Q1018.47 1073.76 1016.18 1073.76 Q1012.69 1073.76 1010.93 1074.83 Q1009.2 1075.89 1009.2 1078.03 Q1009.2 1079.66 1010.45 1080.61 Q1011.7 1081.52 1015.47 1082.36 L1017.07 1082.72 Q1022.06 1083.79 1024.15 1085.75 Q1026.26 1087.68 1026.26 1091.17 Q1026.26 1095.14 1023.1 1097.46 Q1019.97 1099.78 1014.47 1099.78 Q1012.18 1099.78 1009.69 1099.32 Q1007.22 1098.89 1004.47 1098 L1004.47 1093.16 Q1007.06 1094.51 1009.58 1095.2 Q1012.1 1095.86 1014.57 1095.86 Q1017.88 1095.86 1019.67 1094.74 Q1021.45 1093.59 1021.45 1091.53 Q1021.45 1089.62 1020.15 1088.6 Q1018.88 1087.58 1014.52 1086.64 L1012.89 1086.26 Q1008.54 1085.34 1006.6 1083.46 Q1004.67 1081.55 1004.67 1078.24 Q1004.67 1074.21 1007.52 1072.02 Q1010.37 1069.83 1015.62 1069.83 Q1018.22 1069.83 1020.51 1070.22 Q1022.8 1070.6 1024.73 1071.36 Z" fill="#a9a9a9" fill-rule="nonzero" fill-opacity="1" /><path clip-path="url(#clip550)" d="M1051.9 1071.36 L1051.9 1075.79 Q1049.92 1074.77 1047.78 1074.27 Q1045.64 1073.76 1043.35 1073.76 Q1039.86 1073.76 1038.1 1074.83 Q1036.37 1075.89 1036.37 1078.03 Q1036.37 1079.66 1037.62 1080.61 Q1038.87 1081.52 1042.63 1082.36 L1044.24 1082.72 Q1049.23 1083.79 1051.32 1085.75 Q1053.43 1087.68 1053.43 1091.17 Q1053.43 1095.14 1050.27 1097.46 Q1047.14 1099.78 1041.64 1099.78 Q1039.35 1099.78 1036.85 1099.32 Q1034.38 1098.89 1031.63 1098 L1031.63 1093.16 Q1034.23 1094.51 1036.75 1095.2 Q1039.27 1095.86 1041.74 1095.86 Q1045.05 1095.86 1046.84 1094.74 Q1048.62 1093.59 1048.62 1091.53 Q1048.62 1089.62 1047.32 1088.6 Q1046.05 1087.58 1041.69 1086.64 L1040.06 1086.26 Q1035.71 1085.34 1033.77 1083.46 Q1031.84 1081.55 1031.84 1078.24 Q1031.84 1074.21 1034.69 1072.02 Q1037.54 1069.83 1042.79 1069.83 Q1045.38 1069.83 1047.68 1070.22 Q1049.97 1070.6 1051.9 1071.36 Z" fill="#a9a9a9" fill-rule="nonzero" fill-opacity="1" /><path clip-path="url(#clip550)" d="M1384.93 1233.41 L1390.08 1233.41 L1390.08 1267.1 L1408.59 1267.1 L1408.59 1271.43 L1384.93 1271.43 L1384.93 1233.41 Z" fill="#a9a9a9" fill-rule="nonzero" fill-opacity="1" /><path clip-path="url(#clip550)" d="M1423.92 1246.19 Q1420.15 1246.19 1417.96 1249.15 Q1415.77 1252.07 1415.77 1257.19 Q1415.77 1262.31 1417.93 1265.26 Q1420.12 1268.19 1423.92 1268.19 Q1427.66 1268.19 1429.85 1265.24 Q1432.04 1262.28 1432.04 1257.19 Q1432.04 1252.12 1429.85 1249.17 Q1427.66 1246.19 1423.92 1246.19 M1423.92 1242.22 Q1430.03 1242.22 1433.52 1246.19 Q1437.01 1250.16 1437.01 1257.19 Q1437.01 1264.19 1433.52 1268.19 Q1430.03 1272.16 1423.92 1272.16 Q1417.78 1272.16 1414.29 1268.19 Q1410.83 1264.19 1410.83 1257.19 Q1410.83 1250.16 1414.29 1246.19 Q1417.78 1242.22 1423.92 1242.22 Z" fill="#a9a9a9" fill-rule="nonzero" fill-opacity="1" /><path clip-path="url(#clip550)" d="M1462.95 1243.75 L1462.95 1248.18 Q1460.97 1247.16 1458.83 1246.65 Q1456.69 1246.14 1454.4 1246.14 Q1450.91 1246.14 1449.15 1247.21 Q1447.42 1248.28 1447.42 1250.42 Q1447.42 1252.05 1448.67 1252.99 Q1449.91 1253.91 1453.68 1254.75 L1455.29 1255.1 Q1460.28 1256.17 1462.37 1258.13 Q1464.48 1260.07 1464.48 1263.56 Q1464.48 1267.53 1461.32 1269.85 Q1458.19 1272.16 1452.69 1272.16 Q1450.4 1272.16 1447.9 1271.71 Q1445.43 1271.27 1442.68 1270.38 L1442.68 1265.54 Q1445.28 1266.89 1447.8 1267.58 Q1450.32 1268.24 1452.79 1268.24 Q1456.1 1268.24 1457.88 1267.12 Q1459.67 1265.98 1459.67 1263.91 Q1459.67 1262 1458.37 1260.99 Q1457.1 1259.97 1452.74 1259.03 L1451.11 1258.64 Q1446.76 1257.73 1444.82 1255.84 Q1442.89 1253.93 1442.89 1250.62 Q1442.89 1246.6 1445.74 1244.41 Q1448.59 1242.22 1453.84 1242.22 Q1456.43 1242.22 1458.72 1242.6 Q1461.02 1242.98 1462.95 1243.75 Z" fill="#a9a9a9" fill-rule="nonzero" fill-opacity="1" /><path clip-path="url(#clip550)" d="M1490.12 1243.75 L1490.12 1248.18 Q1488.13 1247.16 1486 1246.65 Q1483.86 1246.14 1481.56 1246.14 Q1478.08 1246.14 1476.32 1247.21 Q1474.59 1248.28 1474.59 1250.42 Q1474.59 1252.05 1475.84 1252.99 Q1477.08 1253.91 1480.85 1254.75 L1482.46 1255.1 Q1487.45 1256.17 1489.53 1258.13 Q1491.65 1260.07 1491.65 1263.56 Q1491.65 1267.53 1488.49 1269.85 Q1485.36 1272.16 1479.86 1272.16 Q1477.57 1272.16 1475.07 1271.71 Q1472.6 1271.27 1469.85 1270.38 L1469.85 1265.54 Q1472.45 1266.89 1474.97 1267.58 Q1477.49 1268.24 1479.96 1268.24 Q1483.27 1268.24 1485.05 1267.12 Q1486.84 1265.98 1486.84 1263.91 Q1486.84 1262 1485.54 1260.99 Q1484.26 1259.97 1479.91 1259.03 L1478.28 1258.64 Q1473.93 1257.73 1471.99 1255.84 Q1470.06 1253.93 1470.06 1250.62 Q1470.06 1246.6 1472.91 1244.41 Q1475.76 1242.22 1481 1242.22 Q1483.6 1242.22 1485.89 1242.6 Q1488.19 1242.98 1490.12 1243.75 Z" fill="#a9a9a9" fill-rule="nonzero" fill-opacity="1" /></svg>
