<?xml version="1.0" encoding="utf-8"?>
<svg xmlns="http://www.w3.org/2000/svg" xmlns:xlink="http://www.w3.org/1999/xlink" width="600" height="400" viewBox="0 0 2400 1600">
<defs>
  <clipPath id="clip560">
    <rect x="0" y="0" width="2400" height="1600"/>
  </clipPath>
</defs>
<path clip-path="url(#clip560)" d="M0 1600 L2400 1600 L2400 8.88178e-14 L0 8.88178e-14  Z" fill="#ffffff" fill-rule="evenodd" fill-opacity="1"/>
<defs>
  <clipPath id="clip561">
    <rect x="480" y="0" width="1681" height="1600"/>
  </clipPath>
</defs>
<path clip-path="url(#clip560)" d="M193.936 1486.45 L2352.76 1486.45 L2352.76 123.472 L193.936 123.472  Z" fill="#ffffff" fill-rule="evenodd" fill-opacity="1"/>
<defs>
  <clipPath id="clip562">
    <rect x="193" y="123" width="2160" height="1364"/>
  </clipPath>
</defs>
<polyline clip-path="url(#clip562)" style="stroke:#000000; stroke-linecap:round; stroke-linejoin:round; stroke-width:2; stroke-opacity:0.1; fill:none" points="234.463,1486.45 234.463,123.472 "/>
<polyline clip-path="url(#clip562)" style="stroke:#000000; stroke-linecap:round; stroke-linejoin:round; stroke-width:2; stroke-opacity:0.1; fill:none" points="748.761,1486.45 748.761,123.472 "/>
<polyline clip-path="url(#clip562)" style="stroke:#000000; stroke-linecap:round; stroke-linejoin:round; stroke-width:2; stroke-opacity:0.1; fill:none" points="1263.06,1486.45 1263.06,123.472 "/>
<polyline clip-path="url(#clip562)" style="stroke:#000000; stroke-linecap:round; stroke-linejoin:round; stroke-width:2; stroke-opacity:0.1; fill:none" points="1777.36,1486.45 1777.36,123.472 "/>
<polyline clip-path="url(#clip562)" style="stroke:#000000; stroke-linecap:round; stroke-linejoin:round; stroke-width:2; stroke-opacity:0.1; fill:none" points="2291.66,1486.45 2291.66,123.472 "/>
<polyline clip-path="url(#clip562)" style="stroke:#000000; stroke-linecap:round; stroke-linejoin:round; stroke-width:2; stroke-opacity:0.1; fill:none" points="193.936,1447.87 2352.76,1447.87 "/>
<polyline clip-path="url(#clip562)" style="stroke:#000000; stroke-linecap:round; stroke-linejoin:round; stroke-width:2; stroke-opacity:0.1; fill:none" points="193.936,1233.57 2352.76,1233.57 "/>
<polyline clip-path="url(#clip562)" style="stroke:#000000; stroke-linecap:round; stroke-linejoin:round; stroke-width:2; stroke-opacity:0.1; fill:none" points="193.936,1019.26 2352.76,1019.26 "/>
<polyline clip-path="url(#clip562)" style="stroke:#000000; stroke-linecap:round; stroke-linejoin:round; stroke-width:2; stroke-opacity:0.1; fill:none" points="193.936,804.96 2352.76,804.96 "/>
<polyline clip-path="url(#clip562)" style="stroke:#000000; stroke-linecap:round; stroke-linejoin:round; stroke-width:2; stroke-opacity:0.1; fill:none" points="193.936,590.656 2352.76,590.656 "/>
<polyline clip-path="url(#clip562)" style="stroke:#000000; stroke-linecap:round; stroke-linejoin:round; stroke-width:2; stroke-opacity:0.1; fill:none" points="193.936,376.351 2352.76,376.351 "/>
<polyline clip-path="url(#clip562)" style="stroke:#000000; stroke-linecap:round; stroke-linejoin:round; stroke-width:2; stroke-opacity:0.1; fill:none" points="193.936,162.047 2352.76,162.047 "/>
<polyline clip-path="url(#clip560)" style="stroke:#000000; stroke-linecap:round; stroke-linejoin:round; stroke-width:4; stroke-opacity:1; fill:none" points="193.936,1486.45 2352.76,1486.45 "/>
<polyline clip-path="url(#clip560)" style="stroke:#000000; stroke-linecap:round; stroke-linejoin:round; stroke-width:4; stroke-opacity:1; fill:none" points="234.463,1486.45 234.463,1467.55 "/>
<polyline clip-path="url(#clip560)" style="stroke:#000000; stroke-linecap:round; stroke-linejoin:round; stroke-width:4; stroke-opacity:1; fill:none" points="748.761,1486.45 748.761,1467.55 "/>
<polyline clip-path="url(#clip560)" style="stroke:#000000; stroke-linecap:round; stroke-linejoin:round; stroke-width:4; stroke-opacity:1; fill:none" points="1263.06,1486.45 1263.06,1467.55 "/>
<polyline clip-path="url(#clip560)" style="stroke:#000000; stroke-linecap:round; stroke-linejoin:round; stroke-width:4; stroke-opacity:1; fill:none" points="1777.36,1486.45 1777.36,1467.55 "/>
<polyline clip-path="url(#clip560)" style="stroke:#000000; stroke-linecap:round; stroke-linejoin:round; stroke-width:4; stroke-opacity:1; fill:none" points="2291.66,1486.45 2291.66,1467.55 "/>
<path clip-path="url(#clip560)" d="M234.463 1517.37 Q230.852 1517.37 229.023 1520.93 Q227.217 1524.47 227.217 1531.6 Q227.217 1538.71 229.023 1542.27 Q230.852 1545.82 234.463 1545.82 Q238.097 1545.82 239.903 1542.27 Q241.731 1538.71 241.731 1531.6 Q241.731 1524.47 239.903 1520.93 Q238.097 1517.37 234.463 1517.37 M234.463 1513.66 Q240.273 1513.66 243.328 1518.27 Q246.407 1522.85 246.407 1531.6 Q246.407 1540.33 243.328 1544.94 Q240.273 1549.52 234.463 1549.52 Q228.653 1549.52 225.574 1544.94 Q222.518 1540.33 222.518 1531.6 Q222.518 1522.85 225.574 1518.27 Q228.653 1513.66 234.463 1513.66 Z" fill="#000000" fill-rule="nonzero" fill-opacity="1" /><path clip-path="url(#clip560)" d="M728.032 1544.91 L744.352 1544.91 L744.352 1548.85 L722.407 1548.85 L722.407 1544.91 Q725.069 1542.16 729.653 1537.53 Q734.259 1532.88 735.44 1531.53 Q737.685 1529.01 738.565 1527.27 Q739.467 1525.51 739.467 1523.82 Q739.467 1521.07 737.523 1519.33 Q735.602 1517.6 732.5 1517.6 Q730.301 1517.6 727.847 1518.36 Q725.417 1519.13 722.639 1520.68 L722.639 1515.95 Q725.463 1514.82 727.917 1514.24 Q730.37 1513.66 732.407 1513.66 Q737.778 1513.66 740.972 1516.35 Q744.166 1519.03 744.166 1523.52 Q744.166 1525.65 743.356 1527.57 Q742.569 1529.47 740.463 1532.07 Q739.884 1532.74 736.782 1535.95 Q733.68 1539.15 728.032 1544.91 Z" fill="#000000" fill-rule="nonzero" fill-opacity="1" /><path clip-path="url(#clip560)" d="M754.213 1514.29 L772.569 1514.29 L772.569 1518.22 L758.495 1518.22 L758.495 1526.7 Q759.514 1526.35 760.532 1526.19 Q761.551 1526 762.569 1526 Q768.356 1526 771.736 1529.17 Q775.115 1532.34 775.115 1537.76 Q775.115 1543.34 771.643 1546.44 Q768.171 1549.52 761.852 1549.52 Q759.676 1549.52 757.407 1549.15 Q755.162 1548.78 752.754 1548.04 L752.754 1543.34 Q754.838 1544.47 757.06 1545.03 Q759.282 1545.58 761.759 1545.58 Q765.764 1545.58 768.102 1543.48 Q770.439 1541.37 770.439 1537.76 Q770.439 1534.15 768.102 1532.04 Q765.764 1529.94 761.759 1529.94 Q759.884 1529.94 758.009 1530.35 Q756.157 1530.77 754.213 1531.65 L754.213 1514.29 Z" fill="#000000" fill-rule="nonzero" fill-opacity="1" /><path clip-path="url(#clip560)" d="M1237.76 1514.29 L1256.12 1514.29 L1256.12 1518.22 L1242.04 1518.22 L1242.04 1526.7 Q1243.06 1526.35 1244.08 1526.19 Q1245.1 1526 1246.12 1526 Q1251.9 1526 1255.28 1529.17 Q1258.66 1532.34 1258.66 1537.76 Q1258.66 1543.34 1255.19 1546.44 Q1251.72 1549.52 1245.4 1549.52 Q1243.22 1549.52 1240.95 1549.15 Q1238.71 1548.78 1236.3 1548.04 L1236.3 1543.34 Q1238.38 1544.47 1240.61 1545.03 Q1242.83 1545.58 1245.31 1545.58 Q1249.31 1545.58 1251.65 1543.48 Q1253.99 1541.37 1253.99 1537.76 Q1253.99 1534.15 1251.65 1532.04 Q1249.31 1529.94 1245.31 1529.94 Q1243.43 1529.94 1241.56 1530.35 Q1239.7 1530.77 1237.76 1531.65 L1237.76 1514.29 Z" fill="#000000" fill-rule="nonzero" fill-opacity="1" /><path clip-path="url(#clip560)" d="M1277.87 1517.37 Q1274.26 1517.37 1272.43 1520.93 Q1270.63 1524.47 1270.63 1531.6 Q1270.63 1538.71 1272.43 1542.27 Q1274.26 1545.82 1277.87 1545.82 Q1281.51 1545.82 1283.31 1542.27 Q1285.14 1538.71 1285.14 1531.6 Q1285.14 1524.47 1283.31 1520.93 Q1281.51 1517.37 1277.87 1517.37 M1277.87 1513.66 Q1283.68 1513.66 1286.74 1518.27 Q1289.82 1522.85 1289.82 1531.6 Q1289.82 1540.33 1286.74 1544.94 Q1283.68 1549.52 1277.87 1549.52 Q1272.06 1549.52 1268.99 1544.94 Q1265.93 1540.33 1265.93 1531.6 Q1265.93 1522.85 1268.99 1518.27 Q1272.06 1513.66 1277.87 1513.66 Z" fill="#000000" fill-rule="nonzero" fill-opacity="1" /><path clip-path="url(#clip560)" d="M1751.21 1514.29 L1773.44 1514.29 L1773.44 1516.28 L1760.89 1548.85 L1756 1548.85 L1767.81 1518.22 L1751.21 1518.22 L1751.21 1514.29 Z" fill="#000000" fill-rule="nonzero" fill-opacity="1" /><path clip-path="url(#clip560)" d="M1782.6 1514.29 L1800.96 1514.29 L1800.96 1518.22 L1786.88 1518.22 L1786.88 1526.7 Q1787.9 1526.35 1788.92 1526.19 Q1789.94 1526 1790.96 1526 Q1796.75 1526 1800.12 1529.17 Q1803.5 1532.34 1803.5 1537.76 Q1803.5 1543.34 1800.03 1546.44 Q1796.56 1549.52 1790.24 1549.52 Q1788.06 1549.52 1785.8 1549.15 Q1783.55 1548.78 1781.14 1548.04 L1781.14 1543.34 Q1783.23 1544.47 1785.45 1545.03 Q1787.67 1545.58 1790.15 1545.58 Q1794.15 1545.58 1796.49 1543.48 Q1798.83 1541.37 1798.83 1537.76 Q1798.83 1534.15 1796.49 1532.04 Q1794.15 1529.94 1790.15 1529.94 Q1788.27 1529.94 1786.4 1530.35 Q1784.55 1530.77 1782.6 1531.65 L1782.6 1514.29 Z" fill="#000000" fill-rule="nonzero" fill-opacity="1" /><path clip-path="url(#clip560)" d="M2251.26 1544.91 L2258.9 1544.91 L2258.9 1518.55 L2250.59 1520.21 L2250.59 1515.95 L2258.86 1514.29 L2263.53 1514.29 L2263.53 1544.91 L2271.17 1544.91 L2271.17 1548.85 L2251.26 1548.85 L2251.26 1544.91 Z" fill="#000000" fill-rule="nonzero" fill-opacity="1" /><path clip-path="url(#clip560)" d="M2290.62 1517.37 Q2287 1517.37 2285.18 1520.93 Q2283.37 1524.47 2283.37 1531.6 Q2283.37 1538.71 2285.18 1542.27 Q2287 1545.82 2290.62 1545.82 Q2294.25 1545.82 2296.06 1542.27 Q2297.88 1538.71 2297.88 1531.6 Q2297.88 1524.47 2296.06 1520.93 Q2294.25 1517.37 2290.62 1517.37 M2290.62 1513.66 Q2296.43 1513.66 2299.48 1518.27 Q2302.56 1522.85 2302.56 1531.6 Q2302.56 1540.33 2299.48 1544.94 Q2296.43 1549.52 2290.62 1549.52 Q2284.81 1549.52 2281.73 1544.94 Q2278.67 1540.33 2278.67 1531.6 Q2278.67 1522.85 2281.73 1518.27 Q2284.81 1513.66 2290.62 1513.66 Z" fill="#000000" fill-rule="nonzero" fill-opacity="1" /><path clip-path="url(#clip560)" d="M2320.78 1517.37 Q2317.17 1517.37 2315.34 1520.93 Q2313.53 1524.47 2313.53 1531.6 Q2313.53 1538.71 2315.34 1542.27 Q2317.17 1545.82 2320.78 1545.82 Q2324.41 1545.82 2326.22 1542.27 Q2328.05 1538.71 2328.05 1531.6 Q2328.05 1524.47 2326.22 1520.93 Q2324.41 1517.37 2320.78 1517.37 M2320.78 1513.66 Q2326.59 1513.66 2329.64 1518.27 Q2332.72 1522.85 2332.72 1531.6 Q2332.72 1540.33 2329.64 1544.94 Q2326.59 1549.52 2320.78 1549.52 Q2314.97 1549.52 2311.89 1544.94 Q2308.83 1540.33 2308.83 1531.6 Q2308.83 1522.85 2311.89 1518.27 Q2314.97 1513.66 2320.78 1513.66 Z" fill="#000000" fill-rule="nonzero" fill-opacity="1" /><polyline clip-path="url(#clip560)" style="stroke:#000000; stroke-linecap:round; stroke-linejoin:round; stroke-width:4; stroke-opacity:1; fill:none" points="193.936,1486.45 193.936,123.472 "/>
<polyline clip-path="url(#clip560)" style="stroke:#000000; stroke-linecap:round; stroke-linejoin:round; stroke-width:4; stroke-opacity:1; fill:none" points="193.936,1447.87 212.834,1447.87 "/>
<polyline clip-path="url(#clip560)" style="stroke:#000000; stroke-linecap:round; stroke-linejoin:round; stroke-width:4; stroke-opacity:1; fill:none" points="193.936,1233.57 212.834,1233.57 "/>
<polyline clip-path="url(#clip560)" style="stroke:#000000; stroke-linecap:round; stroke-linejoin:round; stroke-width:4; stroke-opacity:1; fill:none" points="193.936,1019.26 212.834,1019.26 "/>
<polyline clip-path="url(#clip560)" style="stroke:#000000; stroke-linecap:round; stroke-linejoin:round; stroke-width:4; stroke-opacity:1; fill:none" points="193.936,804.96 212.834,804.96 "/>
<polyline clip-path="url(#clip560)" style="stroke:#000000; stroke-linecap:round; stroke-linejoin:round; stroke-width:4; stroke-opacity:1; fill:none" points="193.936,590.656 212.834,590.656 "/>
<polyline clip-path="url(#clip560)" style="stroke:#000000; stroke-linecap:round; stroke-linejoin:round; stroke-width:4; stroke-opacity:1; fill:none" points="193.936,376.351 212.834,376.351 "/>
<polyline clip-path="url(#clip560)" style="stroke:#000000; stroke-linecap:round; stroke-linejoin:round; stroke-width:4; stroke-opacity:1; fill:none" points="193.936,162.047 212.834,162.047 "/>
<path clip-path="url(#clip560)" d="M51.9875 1448.32 L81.6633 1448.32 L81.6633 1452.26 L51.9875 1452.26 L51.9875 1448.32 Z" fill="#000000" fill-rule="nonzero" fill-opacity="1" /><path clip-path="url(#clip560)" d="M92.566 1461.22 L100.205 1461.22 L100.205 1434.85 L91.8947 1436.52 L91.8947 1432.26 L100.159 1430.59 L104.834 1430.59 L104.834 1461.22 L112.473 1461.22 L112.473 1465.15 L92.566 1465.15 L92.566 1461.22 Z" fill="#000000" fill-rule="nonzero" fill-opacity="1" /><path clip-path="url(#clip560)" d="M121.918 1459.27 L126.802 1459.27 L126.802 1465.15 L121.918 1465.15 L121.918 1459.27 Z" fill="#000000" fill-rule="nonzero" fill-opacity="1" /><path clip-path="url(#clip560)" d="M137.033 1430.59 L155.39 1430.59 L155.39 1434.53 L141.316 1434.53 L141.316 1443 Q142.334 1442.65 143.353 1442.49 Q144.371 1442.31 145.39 1442.31 Q151.177 1442.31 154.556 1445.48 Q157.936 1448.65 157.936 1454.07 Q157.936 1459.64 154.464 1462.75 Q150.992 1465.82 144.672 1465.82 Q142.496 1465.82 140.228 1465.45 Q137.982 1465.08 135.575 1464.34 L135.575 1459.64 Q137.658 1460.78 139.881 1461.33 Q142.103 1461.89 144.58 1461.89 Q148.584 1461.89 150.922 1459.78 Q153.26 1457.68 153.26 1454.07 Q153.26 1450.45 150.922 1448.35 Q148.584 1446.24 144.58 1446.24 Q142.705 1446.24 140.83 1446.66 Q138.978 1447.07 137.033 1447.95 L137.033 1430.59 Z" fill="#000000" fill-rule="nonzero" fill-opacity="1" /><path clip-path="url(#clip560)" d="M50.9921 1234.02 L80.6679 1234.02 L80.6679 1237.96 L50.9921 1237.96 L50.9921 1234.02 Z" fill="#000000" fill-rule="nonzero" fill-opacity="1" /><path clip-path="url(#clip560)" d="M91.5706 1246.91 L99.2095 1246.91 L99.2095 1220.55 L90.8993 1222.21 L90.8993 1217.96 L99.1632 1216.29 L103.839 1216.29 L103.839 1246.91 L111.478 1246.91 L111.478 1250.85 L91.5706 1250.85 L91.5706 1246.91 Z" fill="#000000" fill-rule="nonzero" fill-opacity="1" /><path clip-path="url(#clip560)" d="M120.922 1244.97 L125.807 1244.97 L125.807 1250.85 L120.922 1250.85 L120.922 1244.97 Z" fill="#000000" fill-rule="nonzero" fill-opacity="1" /><path clip-path="url(#clip560)" d="M145.992 1219.37 Q142.381 1219.37 140.552 1222.93 Q138.746 1226.47 138.746 1233.6 Q138.746 1240.71 140.552 1244.27 Q142.381 1247.82 145.992 1247.82 Q149.626 1247.82 151.431 1244.27 Q153.26 1240.71 153.26 1233.6 Q153.26 1226.47 151.431 1222.93 Q149.626 1219.37 145.992 1219.37 M145.992 1215.66 Q151.802 1215.66 154.857 1220.27 Q157.936 1224.85 157.936 1233.6 Q157.936 1242.33 154.857 1246.94 Q151.802 1251.52 145.992 1251.52 Q140.181 1251.52 137.103 1246.94 Q134.047 1242.33 134.047 1233.6 Q134.047 1224.85 137.103 1220.27 Q140.181 1215.66 145.992 1215.66 Z" fill="#000000" fill-rule="nonzero" fill-opacity="1" /><path clip-path="url(#clip560)" d="M51.9875 1019.72 L81.6633 1019.72 L81.6633 1023.65 L51.9875 1023.65 L51.9875 1019.72 Z" fill="#000000" fill-rule="nonzero" fill-opacity="1" /><path clip-path="url(#clip560)" d="M101.756 1005.06 Q98.1447 1005.06 96.316 1008.63 Q94.5104 1012.17 94.5104 1019.3 Q94.5104 1026.41 96.316 1029.97 Q98.1447 1033.51 101.756 1033.51 Q105.39 1033.51 107.196 1029.97 Q109.024 1026.41 109.024 1019.3 Q109.024 1012.17 107.196 1008.63 Q105.39 1005.06 101.756 1005.06 M101.756 1001.36 Q107.566 1001.36 110.621 1005.97 Q113.7 1010.55 113.7 1019.3 Q113.7 1028.03 110.621 1032.63 Q107.566 1037.22 101.756 1037.22 Q95.9456 1037.22 92.8669 1032.63 Q89.8114 1028.03 89.8114 1019.3 Q89.8114 1010.55 92.8669 1005.97 Q95.9456 1001.36 101.756 1001.36 Z" fill="#000000" fill-rule="nonzero" fill-opacity="1" /><path clip-path="url(#clip560)" d="M121.918 1030.66 L126.802 1030.66 L126.802 1036.54 L121.918 1036.54 L121.918 1030.66 Z" fill="#000000" fill-rule="nonzero" fill-opacity="1" /><path clip-path="url(#clip560)" d="M137.033 1001.98 L155.39 1001.98 L155.39 1005.92 L141.316 1005.92 L141.316 1014.39 Q142.334 1014.04 143.353 1013.88 Q144.371 1013.7 145.39 1013.7 Q151.177 1013.7 154.556 1016.87 Q157.936 1020.04 157.936 1025.46 Q157.936 1031.04 154.464 1034.14 Q150.992 1037.22 144.672 1037.22 Q142.496 1037.22 140.228 1036.85 Q137.982 1036.47 135.575 1035.73 L135.575 1031.04 Q137.658 1032.17 139.881 1032.72 Q142.103 1033.28 144.58 1033.28 Q148.584 1033.28 150.922 1031.17 Q153.26 1029.07 153.26 1025.46 Q153.26 1021.85 150.922 1019.74 Q148.584 1017.63 144.58 1017.63 Q142.705 1017.63 140.83 1018.05 Q138.978 1018.47 137.033 1019.35 L137.033 1001.98 Z" fill="#000000" fill-rule="nonzero" fill-opacity="1" /><path clip-path="url(#clip560)" d="M100.76 790.759 Q97.1493 790.759 95.3206 794.323 Q93.515 797.865 93.515 804.995 Q93.515 812.101 95.3206 815.666 Q97.1493 819.208 100.76 819.208 Q104.395 819.208 106.2 815.666 Q108.029 812.101 108.029 804.995 Q108.029 797.865 106.2 794.323 Q104.395 790.759 100.76 790.759 M100.76 787.055 Q106.571 787.055 109.626 791.661 Q112.705 796.245 112.705 804.995 Q112.705 813.722 109.626 818.328 Q106.571 822.911 100.76 822.911 Q94.9502 822.911 91.8715 818.328 Q88.816 813.722 88.816 804.995 Q88.816 796.245 91.8715 791.661 Q94.9502 787.055 100.76 787.055 Z" fill="#000000" fill-rule="nonzero" fill-opacity="1" /><path clip-path="url(#clip560)" d="M120.922 816.36 L125.807 816.36 L125.807 822.24 L120.922 822.24 L120.922 816.36 Z" fill="#000000" fill-rule="nonzero" fill-opacity="1" /><path clip-path="url(#clip560)" d="M145.992 790.759 Q142.381 790.759 140.552 794.323 Q138.746 797.865 138.746 804.995 Q138.746 812.101 140.552 815.666 Q142.381 819.208 145.992 819.208 Q149.626 819.208 151.431 815.666 Q153.26 812.101 153.26 804.995 Q153.26 797.865 151.431 794.323 Q149.626 790.759 145.992 790.759 M145.992 787.055 Q151.802 787.055 154.857 791.661 Q157.936 796.245 157.936 804.995 Q157.936 813.722 154.857 818.328 Q151.802 822.911 145.992 822.911 Q140.181 822.911 137.103 818.328 Q134.047 813.722 134.047 804.995 Q134.047 796.245 137.103 791.661 Q140.181 787.055 145.992 787.055 Z" fill="#000000" fill-rule="nonzero" fill-opacity="1" /><path clip-path="url(#clip560)" d="M101.756 576.454 Q98.1447 576.454 96.316 580.019 Q94.5104 583.561 94.5104 590.69 Q94.5104 597.797 96.316 601.362 Q98.1447 604.903 101.756 604.903 Q105.39 604.903 107.196 601.362 Q109.024 597.797 109.024 590.69 Q109.024 583.561 107.196 580.019 Q105.39 576.454 101.756 576.454 M101.756 572.751 Q107.566 572.751 110.621 577.357 Q113.7 581.94 113.7 590.69 Q113.7 599.417 110.621 604.024 Q107.566 608.607 101.756 608.607 Q95.9456 608.607 92.8669 604.024 Q89.8114 599.417 89.8114 590.69 Q89.8114 581.94 92.8669 577.357 Q95.9456 572.751 101.756 572.751 Z" fill="#000000" fill-rule="nonzero" fill-opacity="1" /><path clip-path="url(#clip560)" d="M121.918 602.056 L126.802 602.056 L126.802 607.936 L121.918 607.936 L121.918 602.056 Z" fill="#000000" fill-rule="nonzero" fill-opacity="1" /><path clip-path="url(#clip560)" d="M137.033 573.376 L155.39 573.376 L155.39 577.311 L141.316 577.311 L141.316 585.783 Q142.334 585.436 143.353 585.274 Q144.371 585.089 145.39 585.089 Q151.177 585.089 154.556 588.26 Q157.936 591.431 157.936 596.848 Q157.936 602.426 154.464 605.528 Q150.992 608.607 144.672 608.607 Q142.496 608.607 140.228 608.237 Q137.982 607.866 135.575 607.125 L135.575 602.426 Q137.658 603.561 139.881 604.116 Q142.103 604.672 144.58 604.672 Q148.584 604.672 150.922 602.565 Q153.26 600.459 153.26 596.848 Q153.26 593.237 150.922 591.13 Q148.584 589.024 144.58 589.024 Q142.705 589.024 140.83 589.44 Q138.978 589.857 137.033 590.737 L137.033 573.376 Z" fill="#000000" fill-rule="nonzero" fill-opacity="1" /><path clip-path="url(#clip560)" d="M91.5706 389.696 L99.2095 389.696 L99.2095 363.331 L90.8993 364.997 L90.8993 360.738 L99.1632 359.071 L103.839 359.071 L103.839 389.696 L111.478 389.696 L111.478 393.631 L91.5706 393.631 L91.5706 389.696 Z" fill="#000000" fill-rule="nonzero" fill-opacity="1" /><path clip-path="url(#clip560)" d="M120.922 387.752 L125.807 387.752 L125.807 393.631 L120.922 393.631 L120.922 387.752 Z" fill="#000000" fill-rule="nonzero" fill-opacity="1" /><path clip-path="url(#clip560)" d="M145.992 362.15 Q142.381 362.15 140.552 365.715 Q138.746 369.256 138.746 376.386 Q138.746 383.492 140.552 387.057 Q142.381 390.599 145.992 390.599 Q149.626 390.599 151.431 387.057 Q153.26 383.492 153.26 376.386 Q153.26 369.256 151.431 365.715 Q149.626 362.15 145.992 362.15 M145.992 358.446 Q151.802 358.446 154.857 363.053 Q157.936 367.636 157.936 376.386 Q157.936 385.113 154.857 389.719 Q151.802 394.303 145.992 394.303 Q140.181 394.303 137.103 389.719 Q134.047 385.113 134.047 376.386 Q134.047 367.636 137.103 363.053 Q140.181 358.446 145.992 358.446 Z" fill="#000000" fill-rule="nonzero" fill-opacity="1" /><path clip-path="url(#clip560)" d="M92.566 175.392 L100.205 175.392 L100.205 149.026 L91.8947 150.693 L91.8947 146.434 L100.159 144.767 L104.834 144.767 L104.834 175.392 L112.473 175.392 L112.473 179.327 L92.566 179.327 L92.566 175.392 Z" fill="#000000" fill-rule="nonzero" fill-opacity="1" /><path clip-path="url(#clip560)" d="M121.918 173.447 L126.802 173.447 L126.802 179.327 L121.918 179.327 L121.918 173.447 Z" fill="#000000" fill-rule="nonzero" fill-opacity="1" /><path clip-path="url(#clip560)" d="M137.033 144.767 L155.39 144.767 L155.39 148.702 L141.316 148.702 L141.316 157.174 Q142.334 156.827 143.353 156.665 Q144.371 156.48 145.39 156.48 Q151.177 156.48 154.556 159.651 Q157.936 162.822 157.936 168.239 Q157.936 173.818 154.464 176.92 Q150.992 179.998 144.672 179.998 Q142.496 179.998 140.228 179.628 Q137.982 179.257 135.575 178.517 L135.575 173.818 Q137.658 174.952 139.881 175.507 Q142.103 176.063 144.58 176.063 Q148.584 176.063 150.922 173.957 Q153.26 171.85 153.26 168.239 Q153.26 164.628 150.922 162.521 Q148.584 160.415 144.58 160.415 Q142.705 160.415 140.83 160.832 Q138.978 161.248 137.033 162.128 L137.033 144.767 Z" fill="#000000" fill-rule="nonzero" fill-opacity="1" /><path clip-path="url(#clip560)" d="M614.082 12.096 L648.838 12.096 L648.838 18.9825 L622.264 18.9825 L622.264 36.8065 L646.246 36.8065 L646.246 43.6931 L622.264 43.6931 L622.264 72.576 L614.082 72.576 L614.082 12.096 Z" fill="#000000" fill-rule="nonzero" fill-opacity="1" /><path clip-path="url(#clip560)" d="M661.801 12.096 L672.82 12.096 L699.637 62.6918 L699.637 12.096 L707.576 12.096 L707.576 72.576 L696.558 72.576 L669.741 21.9802 L669.741 72.576 L661.801 72.576 L661.801 12.096 Z" fill="#000000" fill-rule="nonzero" fill-opacity="1" /><path clip-path="url(#clip560)" d="M748.41 17.6457 Q739.498 17.6457 734.231 24.2892 Q729.006 30.9327 729.006 42.3968 Q729.006 53.8203 734.231 60.4638 Q739.498 67.1073 748.41 67.1073 Q757.322 67.1073 762.507 60.4638 Q767.732 53.8203 767.732 42.3968 Q767.732 30.9327 762.507 24.2892 Q757.322 17.6457 748.41 17.6457 M748.41 11.0023 Q761.129 11.0023 768.745 19.5497 Q776.361 28.0566 776.361 42.3968 Q776.361 56.6965 768.745 65.2439 Q761.129 73.7508 748.41 73.7508 Q735.649 73.7508 727.993 65.2439 Q720.377 56.737 720.377 42.3968 Q720.377 28.0566 727.993 19.5497 Q735.649 11.0023 748.41 11.0023 Z" fill="#000000" fill-rule="nonzero" fill-opacity="1" /><path clip-path="url(#clip560)" d="M851.789 14.0809 L851.789 22.0612 Q847.13 19.8332 842.998 18.7395 Q838.866 17.6457 835.018 17.6457 Q828.334 17.6457 824.688 20.2383 Q821.083 22.8309 821.083 27.611 Q821.083 31.6214 823.473 33.6873 Q825.903 35.7128 832.628 36.9686 L837.57 37.9813 Q846.725 39.7232 851.059 44.1387 Q855.434 48.5136 855.434 55.8863 Q855.434 64.6767 849.52 69.2137 Q843.646 73.7508 832.263 73.7508 Q827.969 73.7508 823.108 72.7785 Q818.288 71.8063 813.102 69.9024 L813.102 61.4765 Q818.085 64.2716 822.865 65.6895 Q827.645 67.1073 832.263 67.1073 Q839.271 67.1073 843.079 64.3527 Q846.887 61.598 846.887 56.4939 Q846.887 52.0379 844.132 49.5264 Q841.418 47.0148 835.18 45.759 L830.197 44.7868 Q821.042 42.9639 816.951 39.075 Q812.859 35.1862 812.859 28.2591 Q812.859 20.2383 818.49 15.6203 Q824.161 11.0023 834.086 11.0023 Q838.34 11.0023 842.755 11.7719 Q847.171 12.5416 851.789 14.0809 Z" fill="#000000" fill-rule="nonzero" fill-opacity="1" /><path clip-path="url(#clip560)" d="M875.081 65.7705 L875.081 89.8329 L867.587 89.8329 L867.587 27.2059 L875.081 27.2059 L875.081 34.0924 Q877.431 30.0415 880.996 28.0971 Q884.601 26.1121 889.584 26.1121 Q897.847 26.1121 902.992 32.6746 Q908.177 39.2371 908.177 49.9314 Q908.177 60.6258 902.992 67.1883 Q897.847 73.7508 889.584 73.7508 Q884.601 73.7508 880.996 71.8063 Q877.431 69.8214 875.081 65.7705 M900.44 49.9314 Q900.44 41.7081 897.037 37.0496 Q893.675 32.3505 887.761 32.3505 Q881.846 32.3505 878.444 37.0496 Q875.081 41.7081 875.081 49.9314 Q875.081 58.1548 878.444 62.8538 Q881.846 67.5124 887.761 67.5124 Q893.675 67.5124 897.037 62.8538 Q900.44 58.1548 900.44 49.9314 Z" fill="#000000" fill-rule="nonzero" fill-opacity="1" /><path clip-path="url(#clip560)" d="M959.34 48.0275 L959.34 51.6733 L925.069 51.6733 Q925.556 59.3701 929.687 63.421 Q933.86 67.4314 941.273 67.4314 Q945.567 67.4314 949.577 66.3781 Q953.628 65.3249 957.598 63.2184 L957.598 70.267 Q953.588 71.9684 949.375 72.8596 Q945.162 73.7508 940.827 73.7508 Q929.971 73.7508 923.611 67.4314 Q917.292 61.1119 917.292 50.3365 Q917.292 39.1965 923.287 32.6746 Q929.323 26.1121 939.531 26.1121 Q948.686 26.1121 953.993 32.0264 Q959.34 37.9003 959.34 48.0275 M951.886 45.84 Q951.805 39.7232 948.443 36.0774 Q945.121 32.4315 939.612 32.4315 Q933.374 32.4315 929.606 35.9558 Q925.88 39.4801 925.313 45.8805 L951.886 45.84 Z" fill="#000000" fill-rule="nonzero" fill-opacity="1" /><path clip-path="url(#clip560)" d="M1004.22 28.9478 L1004.22 35.9153 Q1001.06 34.1734 997.864 33.3227 Q994.705 32.4315 991.464 32.4315 Q984.213 32.4315 980.202 37.0496 Q976.192 41.6271 976.192 49.9314 Q976.192 58.2358 980.202 62.8538 Q984.213 67.4314 991.464 67.4314 Q994.705 67.4314 997.864 66.5807 Q1001.06 65.6895 1004.22 63.9476 L1004.22 70.8341 Q1001.1 72.2924 997.743 73.0216 Q994.421 73.7508 990.654 73.7508 Q980.405 73.7508 974.369 67.3098 Q968.333 60.8689 968.333 49.9314 Q968.333 38.832 974.409 32.472 Q980.526 26.1121 991.14 26.1121 Q994.583 26.1121 997.864 26.8413 Q1001.15 27.5299 1004.22 28.9478 Z" fill="#000000" fill-rule="nonzero" fill-opacity="1" /><path clip-path="url(#clip560)" d="M1024.56 14.324 L1024.56 27.2059 L1039.91 27.2059 L1039.91 32.9987 L1024.56 32.9987 L1024.56 57.6282 Q1024.56 63.1779 1026.06 64.7578 Q1027.6 66.3376 1032.26 66.3376 L1039.91 66.3376 L1039.91 72.576 L1032.26 72.576 Q1023.63 72.576 1020.35 69.3758 Q1017.07 66.1351 1017.07 57.6282 L1017.07 32.9987 L1011.6 32.9987 L1011.6 27.2059 L1017.07 27.2059 L1017.07 14.324 L1024.56 14.324 Z" fill="#000000" fill-rule="nonzero" fill-opacity="1" /><path clip-path="url(#clip560)" d="M1076.01 34.1734 Q1074.75 33.4443 1073.25 33.1202 Q1071.79 32.7556 1070.01 32.7556 Q1063.69 32.7556 1060.29 36.8875 Q1056.93 40.9789 1056.93 48.6757 L1056.93 72.576 L1049.43 72.576 L1049.43 27.2059 L1056.93 27.2059 L1056.93 34.2544 Q1059.28 30.1225 1063.04 28.1376 Q1066.81 26.1121 1072.2 26.1121 Q1072.97 26.1121 1073.9 26.2337 Q1074.83 26.3147 1075.97 26.5172 L1076.01 34.1734 Z" fill="#000000" fill-rule="nonzero" fill-opacity="1" /><path clip-path="url(#clip560)" d="M1104.44 49.7694 Q1095.41 49.7694 1091.93 51.8354 Q1088.44 53.9013 1088.44 58.8839 Q1088.44 62.8538 1091.04 65.2034 Q1093.67 67.5124 1098.16 67.5124 Q1104.36 67.5124 1108.09 63.1374 Q1111.86 58.7219 1111.86 51.4303 L1111.86 49.7694 L1104.44 49.7694 M1119.31 46.6907 L1119.31 72.576 L1111.86 72.576 L1111.86 65.6895 Q1109.3 69.8214 1105.5 71.8063 Q1101.69 73.7508 1096.18 73.7508 Q1089.21 73.7508 1085.08 69.8619 Q1080.99 65.9325 1080.99 59.3701 Q1080.99 51.7138 1086.09 47.825 Q1091.24 43.9361 1101.41 43.9361 L1111.86 43.9361 L1111.86 43.2069 Q1111.86 38.0623 1108.45 35.2672 Q1105.09 32.4315 1098.97 32.4315 Q1095.09 32.4315 1091.4 33.3632 Q1087.71 34.295 1084.31 36.1584 L1084.31 29.2718 Q1088.4 27.692 1092.25 26.9223 Q1096.1 26.1121 1099.74 26.1121 Q1109.59 26.1121 1114.45 31.2163 Q1119.31 36.3204 1119.31 46.6907 Z" fill="#000000" fill-rule="nonzero" fill-opacity="1" /><path clip-path="url(#clip560)" d="M1134.66 9.54393 L1142.12 9.54393 L1142.12 72.576 L1134.66 72.576 L1134.66 9.54393 Z" fill="#000000" fill-rule="nonzero" fill-opacity="1" /><path clip-path="url(#clip560)" d="M1184.41 12.096 L1219.17 12.096 L1219.17 18.9825 L1192.59 18.9825 L1192.59 36.8065 L1216.57 36.8065 L1216.57 43.6931 L1192.59 43.6931 L1192.59 72.576 L1184.41 72.576 L1184.41 12.096 Z" fill="#000000" fill-rule="nonzero" fill-opacity="1" /><path clip-path="url(#clip560)" d="M1266.07 48.0275 L1266.07 51.6733 L1231.8 51.6733 Q1232.29 59.3701 1236.42 63.421 Q1240.59 67.4314 1248.01 67.4314 Q1252.3 67.4314 1256.31 66.3781 Q1260.36 65.3249 1264.33 63.2184 L1264.33 70.267 Q1260.32 71.9684 1256.11 72.8596 Q1251.9 73.7508 1247.56 73.7508 Q1236.71 73.7508 1230.35 67.4314 Q1224.03 61.1119 1224.03 50.3365 Q1224.03 39.1965 1230.02 32.6746 Q1236.06 26.1121 1246.27 26.1121 Q1255.42 26.1121 1260.73 32.0264 Q1266.07 37.9003 1266.07 48.0275 M1258.62 45.84 Q1258.54 39.7232 1255.18 36.0774 Q1251.86 32.4315 1246.35 32.4315 Q1240.11 32.4315 1236.34 35.9558 Q1232.61 39.4801 1232.05 45.8805 L1258.62 45.84 Z" fill="#000000" fill-rule="nonzero" fill-opacity="1" /><path clip-path="url(#clip560)" d="M1298.93 49.7694 Q1289.89 49.7694 1286.41 51.8354 Q1282.93 53.9013 1282.93 58.8839 Q1282.93 62.8538 1285.52 65.2034 Q1288.15 67.5124 1292.65 67.5124 Q1298.85 67.5124 1302.57 63.1374 Q1306.34 58.7219 1306.34 51.4303 L1306.34 49.7694 L1298.93 49.7694 M1313.79 46.6907 L1313.79 72.576 L1306.34 72.576 L1306.34 65.6895 Q1303.79 69.8214 1299.98 71.8063 Q1296.17 73.7508 1290.66 73.7508 Q1283.7 73.7508 1279.56 69.8619 Q1275.47 65.9325 1275.47 59.3701 Q1275.47 51.7138 1280.58 47.825 Q1285.72 43.9361 1295.89 43.9361 L1306.34 43.9361 L1306.34 43.2069 Q1306.34 38.0623 1302.94 35.2672 Q1299.58 32.4315 1293.46 32.4315 Q1289.57 32.4315 1285.88 33.3632 Q1282.2 34.295 1278.79 36.1584 L1278.79 29.2718 Q1282.89 27.692 1286.73 26.9223 Q1290.58 26.1121 1294.23 26.1121 Q1304.07 26.1121 1308.93 31.2163 Q1313.79 36.3204 1313.79 46.6907 Z" fill="#000000" fill-rule="nonzero" fill-opacity="1" /><path clip-path="url(#clip560)" d="M1336.52 14.324 L1336.52 27.2059 L1351.87 27.2059 L1351.87 32.9987 L1336.52 32.9987 L1336.52 57.6282 Q1336.52 63.1779 1338.02 64.7578 Q1339.56 66.3376 1344.22 66.3376 L1351.87 66.3376 L1351.87 72.576 L1344.22 72.576 Q1335.59 72.576 1332.31 69.3758 Q1329.03 66.1351 1329.03 57.6282 L1329.03 32.9987 L1323.56 32.9987 L1323.56 27.2059 L1329.03 27.2059 L1329.03 14.324 L1336.52 14.324 Z" fill="#000000" fill-rule="nonzero" fill-opacity="1" /><path clip-path="url(#clip560)" d="M1360.91 54.671 L1360.91 27.2059 L1368.36 27.2059 L1368.36 54.3874 Q1368.36 60.8284 1370.87 64.0691 Q1373.38 67.2693 1378.41 67.2693 Q1384.44 67.2693 1387.93 63.421 Q1391.45 59.5726 1391.45 52.9291 L1391.45 27.2059 L1398.9 27.2059 L1398.9 72.576 L1391.45 72.576 L1391.45 65.6084 Q1388.74 69.7404 1385.13 71.7658 Q1381.57 73.7508 1376.83 73.7508 Q1369.01 73.7508 1364.96 68.8897 Q1360.91 64.0286 1360.91 54.671 M1379.66 26.1121 L1379.66 26.1121 Z" fill="#000000" fill-rule="nonzero" fill-opacity="1" /><path clip-path="url(#clip560)" d="M1440.55 34.1734 Q1439.29 33.4443 1437.79 33.1202 Q1436.33 32.7556 1434.55 32.7556 Q1428.23 32.7556 1424.83 36.8875 Q1421.47 40.9789 1421.47 48.6757 L1421.47 72.576 L1413.97 72.576 L1413.97 27.2059 L1421.47 27.2059 L1421.47 34.2544 Q1423.82 30.1225 1427.58 28.1376 Q1431.35 26.1121 1436.74 26.1121 Q1437.51 26.1121 1438.44 26.2337 Q1439.37 26.3147 1440.51 26.5172 L1440.55 34.1734 Z" fill="#000000" fill-rule="nonzero" fill-opacity="1" /><path clip-path="url(#clip560)" d="M1485.35 48.0275 L1485.35 51.6733 L1451.08 51.6733 Q1451.57 59.3701 1455.7 63.421 Q1459.87 67.4314 1467.28 67.4314 Q1471.58 67.4314 1475.59 66.3781 Q1479.64 65.3249 1483.61 63.2184 L1483.61 70.267 Q1479.6 71.9684 1475.38 72.8596 Q1471.17 73.7508 1466.84 73.7508 Q1455.98 73.7508 1449.62 67.4314 Q1443.3 61.1119 1443.3 50.3365 Q1443.3 39.1965 1449.3 32.6746 Q1455.33 26.1121 1465.54 26.1121 Q1474.7 26.1121 1480 32.0264 Q1485.35 37.9003 1485.35 48.0275 M1477.9 45.84 Q1477.82 39.7232 1474.45 36.0774 Q1471.13 32.4315 1465.62 32.4315 Q1459.38 32.4315 1455.62 35.9558 Q1451.89 39.4801 1451.32 45.8805 L1477.9 45.84 Z" fill="#000000" fill-rule="nonzero" fill-opacity="1" /><path clip-path="url(#clip560)" d="M1524.28 12.096 L1562.52 12.096 L1562.52 18.9825 L1532.46 18.9825 L1532.46 36.8875 L1561.26 36.8875 L1561.26 43.7741 L1532.46 43.7741 L1532.46 65.6895 L1563.25 65.6895 L1563.25 72.576 L1524.28 72.576 L1524.28 12.096 Z" fill="#000000" fill-rule="nonzero" fill-opacity="1" /><path clip-path="url(#clip560)" d="M1614.09 27.2059 L1597.68 49.2833 L1614.94 72.576 L1606.15 72.576 L1592.94 54.752 L1579.74 72.576 L1570.95 72.576 L1588.57 48.8377 L1572.44 27.2059 L1581.23 27.2059 L1593.27 43.369 L1605.3 27.2059 L1614.09 27.2059 Z" fill="#000000" fill-rule="nonzero" fill-opacity="1" /><path clip-path="url(#clip560)" d="M1632.84 14.324 L1632.84 27.2059 L1648.2 27.2059 L1648.2 32.9987 L1632.84 32.9987 L1632.84 57.6282 Q1632.84 63.1779 1634.34 64.7578 Q1635.88 66.3376 1640.54 66.3376 L1648.2 66.3376 L1648.2 72.576 L1640.54 72.576 Q1631.91 72.576 1628.63 69.3758 Q1625.35 66.1351 1625.35 57.6282 L1625.35 32.9987 L1619.88 32.9987 L1619.88 27.2059 L1625.35 27.2059 L1625.35 14.324 L1632.84 14.324 Z" fill="#000000" fill-rule="nonzero" fill-opacity="1" /><path clip-path="url(#clip560)" d="M1684.29 34.1734 Q1683.03 33.4443 1681.54 33.1202 Q1680.08 32.7556 1678.29 32.7556 Q1671.98 32.7556 1668.57 36.8875 Q1665.21 40.9789 1665.21 48.6757 L1665.21 72.576 L1657.72 72.576 L1657.72 27.2059 L1665.21 27.2059 L1665.21 34.2544 Q1667.56 30.1225 1671.33 28.1376 Q1675.09 26.1121 1680.48 26.1121 Q1681.25 26.1121 1682.18 26.2337 Q1683.12 26.3147 1684.25 26.5172 L1684.29 34.1734 Z" fill="#000000" fill-rule="nonzero" fill-opacity="1" /><path clip-path="url(#clip560)" d="M1712.73 49.7694 Q1703.69 49.7694 1700.21 51.8354 Q1696.73 53.9013 1696.73 58.8839 Q1696.73 62.8538 1699.32 65.2034 Q1701.95 67.5124 1706.45 67.5124 Q1712.65 67.5124 1716.37 63.1374 Q1720.14 58.7219 1720.14 51.4303 L1720.14 49.7694 L1712.73 49.7694 M1727.59 46.6907 L1727.59 72.576 L1720.14 72.576 L1720.14 65.6895 Q1717.59 69.8214 1713.78 71.8063 Q1709.97 73.7508 1704.46 73.7508 Q1697.5 73.7508 1693.36 69.8619 Q1689.27 65.9325 1689.27 59.3701 Q1689.27 51.7138 1694.38 47.825 Q1699.52 43.9361 1709.69 43.9361 L1720.14 43.9361 L1720.14 43.2069 Q1720.14 38.0623 1716.74 35.2672 Q1713.38 32.4315 1707.26 32.4315 Q1703.37 32.4315 1699.68 33.3632 Q1696 34.295 1692.59 36.1584 L1692.59 29.2718 Q1696.69 27.692 1700.53 26.9223 Q1704.38 26.1121 1708.03 26.1121 Q1717.87 26.1121 1722.73 31.2163 Q1727.59 36.3204 1727.59 46.6907 Z" fill="#000000" fill-rule="nonzero" fill-opacity="1" /><path clip-path="url(#clip560)" d="M1775.6 28.9478 L1775.6 35.9153 Q1772.44 34.1734 1769.24 33.3227 Q1766.08 32.4315 1762.84 32.4315 Q1755.59 32.4315 1751.58 37.0496 Q1747.57 41.6271 1747.57 49.9314 Q1747.57 58.2358 1751.58 62.8538 Q1755.59 67.4314 1762.84 67.4314 Q1766.08 67.4314 1769.24 66.5807 Q1772.44 65.6895 1775.6 63.9476 L1775.6 70.8341 Q1772.48 72.2924 1769.12 73.0216 Q1765.79 73.7508 1762.03 73.7508 Q1751.78 73.7508 1745.74 67.3098 Q1739.71 60.8689 1739.71 49.9314 Q1739.71 38.832 1745.78 32.472 Q1751.9 26.1121 1762.51 26.1121 Q1765.96 26.1121 1769.24 26.8413 Q1772.52 27.5299 1775.6 28.9478 Z" fill="#000000" fill-rule="nonzero" fill-opacity="1" /><path clip-path="url(#clip560)" d="M1795.93 14.324 L1795.93 27.2059 L1811.29 27.2059 L1811.29 32.9987 L1795.93 32.9987 L1795.93 57.6282 Q1795.93 63.1779 1797.43 64.7578 Q1798.97 66.3376 1803.63 66.3376 L1811.29 66.3376 L1811.29 72.576 L1803.63 72.576 Q1795 72.576 1791.72 69.3758 Q1788.44 66.1351 1788.44 57.6282 L1788.44 32.9987 L1782.97 32.9987 L1782.97 27.2059 L1788.44 27.2059 L1788.44 14.324 L1795.93 14.324 Z" fill="#000000" fill-rule="nonzero" fill-opacity="1" /><path clip-path="url(#clip560)" d="M1821.09 27.2059 L1828.54 27.2059 L1828.54 72.576 L1821.09 72.576 L1821.09 27.2059 M1821.09 9.54393 L1828.54 9.54393 L1828.54 18.9825 L1821.09 18.9825 L1821.09 9.54393 Z" fill="#000000" fill-rule="nonzero" fill-opacity="1" /><path clip-path="url(#clip560)" d="M1861.72 32.4315 Q1855.72 32.4315 1852.24 37.1306 Q1848.76 41.7891 1848.76 49.9314 Q1848.76 58.0738 1852.2 62.7728 Q1855.68 67.4314 1861.72 67.4314 Q1867.67 67.4314 1871.16 62.7323 Q1874.64 58.0333 1874.64 49.9314 Q1874.64 41.8701 1871.16 37.1711 Q1867.67 32.4315 1861.72 32.4315 M1861.72 26.1121 Q1871.44 26.1121 1876.99 32.4315 Q1882.54 38.7509 1882.54 49.9314 Q1882.54 61.0714 1876.99 67.4314 Q1871.44 73.7508 1861.72 73.7508 Q1851.96 73.7508 1846.41 67.4314 Q1840.9 61.0714 1840.9 49.9314 Q1840.9 38.7509 1846.41 32.4315 Q1851.96 26.1121 1861.72 26.1121 Z" fill="#000000" fill-rule="nonzero" fill-opacity="1" /><path clip-path="url(#clip560)" d="M1932.61 45.1919 L1932.61 72.576 L1925.16 72.576 L1925.16 45.4349 Q1925.16 38.994 1922.65 35.7938 Q1920.13 32.5936 1915.11 32.5936 Q1909.07 32.5936 1905.59 36.4419 Q1902.11 40.2903 1902.11 46.9338 L1902.11 72.576 L1894.61 72.576 L1894.61 27.2059 L1902.11 27.2059 L1902.11 34.2544 Q1904.78 30.163 1908.39 28.1376 Q1912.03 26.1121 1916.77 26.1121 Q1924.59 26.1121 1928.6 30.9732 Q1932.61 35.7938 1932.61 45.1919 Z" fill="#000000" fill-rule="nonzero" fill-opacity="1" /><polyline clip-path="url(#clip562)" style="stroke:#009af9; stroke-linecap:round; stroke-linejoin:round; stroke-width:8; stroke-opacity:1; fill:none" points="255.035,804.96 275.607,711.824 296.179,625.276 316.751,551.271 337.322,494.554 357.894,458.208 378.466,443.363 399.038,449.091 419.61,472.511 440.182,509.076 460.754,553.03 481.326,597.978 501.898,637.522 522.47,665.894 543.042,678.527 563.614,672.513 584.186,646.889 604.758,602.743 625.33,543.108 645.902,472.673 666.474,397.329 687.046,323.593 707.617,257.978 728.189,206.355 748.761,173.381 769.333,162.047 789.905,173.381 810.477,206.355 831.049,257.978 851.621,323.593 872.193,397.329 892.765,472.673 913.337,543.108 933.909,602.743 954.481,646.889 975.053,672.513 995.625,678.527 1016.2,665.894 1036.77,637.522 1057.34,597.978 1077.91,553.03 1098.48,509.076 1119.06,472.511 1139.63,449.091 1160.2,443.363 1180.77,458.208 1201.34,494.554 1221.92,551.271 1242.49,625.276 1263.06,711.824 1283.63,804.96 1304.2,898.096 1324.78,984.644 1345.35,1058.65 1365.92,1115.37 1386.49,1151.71 1407.06,1166.56 1427.64,1160.83 1448.21,1137.41 1468.78,1100.84 1489.35,1056.89 1509.92,1011.94 1530.5,972.398 1551.07,944.026 1571.64,931.393 1592.21,937.407 1612.78,963.031 1633.35,1007.18 1653.93,1066.81 1674.5,1137.25 1695.07,1212.59 1715.64,1286.33 1736.21,1351.94 1756.79,1403.56 1777.36,1436.54 1797.93,1447.87 1818.5,1436.54 1839.07,1403.56 1859.65,1351.94 1880.22,1286.33 1900.79,1212.59 1921.36,1137.25 1941.93,1066.81 1962.51,1007.18 1983.08,963.031 2003.65,937.407 2024.22,931.393 2044.79,944.026 2065.37,972.398 2085.94,1011.94 2106.51,1056.89 2127.08,1100.84 2147.65,1137.41 2168.23,1160.83 2188.8,1166.56 2209.37,1151.71 2229.94,1115.37 2250.51,1058.65 2271.09,984.644 2291.66,898.096 "/>
<polyline clip-path="url(#clip562)" style="stroke:#e26f46; stroke-linecap:round; stroke-linejoin:round; stroke-width:4; stroke-opacity:0.7; fill:none" points="255.035,804.96 275.607,804.966 296.179,804.972 316.751,804.978 337.322,804.982 357.894,804.984 378.466,804.985 399.038,804.985 419.61,804.983 440.182,804.981 460.754,804.977 481.326,804.974 501.898,804.972 522.47,804.97 543.042,804.969 563.614,804.969 584.186,804.971 604.758,804.974 625.33,804.978 645.902,804.983 666.474,804.988 687.046,804.993 707.617,804.998 728.189,805.002 748.761,805.004 769.333,805.005 789.905,805.004 810.477,805.002 831.049,804.998 851.621,804.993 872.193,804.988 892.765,804.983 913.337,804.978 933.909,804.974 954.481,804.971 975.053,804.969 995.625,804.969 1016.2,804.97 1036.77,804.972 1057.34,804.974 1077.91,804.977 1098.48,804.981 1119.06,804.983 1139.63,804.985 1160.2,804.985 1180.77,804.984 1201.34,804.982 1221.92,804.978 1242.49,804.972 1263.06,804.966 1283.63,804.96 1304.2,804.963 1324.78,804.967 1345.35,804.969 1365.92,804.971 1386.49,804.973 1407.06,804.973 1427.64,804.973 1448.21,804.972 1468.78,804.971 1489.35,804.969 1509.92,804.968 1530.5,804.966 1551.07,804.965 1571.64,804.965 1592.21,804.965 1612.78,804.966 1633.35,804.967 1653.93,804.97 1674.5,804.972 1695.07,804.975 1715.64,804.978 1736.21,804.98 1756.79,804.982 1777.36,804.983 1797.93,804.984 1818.5,804.983 1839.07,804.982 1859.65,804.98 1880.22,804.978 1900.79,804.975 1921.36,804.972 1941.93,804.97 1962.51,804.967 1983.08,804.966 2003.65,804.965 2024.22,804.965 2044.79,804.965 2065.37,804.966 2085.94,804.968 2106.51,804.969 2127.08,804.971 2147.65,804.972 2168.23,804.973 2188.8,804.973 2209.37,804.973 2229.94,804.971 2250.51,804.969 2271.09,804.967 2291.66,804.963 "/>
<path clip-path="url(#clip560)" d="M1530.45 324.425 L2280.8 324.425 L2280.8 168.905 L1530.45 168.905  Z" fill="#ffffff" fill-rule="evenodd" fill-opacity="1"/>
<polyline clip-path="url(#clip560)" style="stroke:#000000; stroke-linecap:round; stroke-linejoin:round; stroke-width:4; stroke-opacity:1; fill:none" points="1530.45,324.425 2280.8,324.425 2280.8,168.905 1530.45,168.905 1530.45,324.425 "/>
<polyline clip-path="url(#clip560)" style="stroke:#009af9; stroke-linecap:round; stroke-linejoin:round; stroke-width:8; stroke-opacity:1; fill:none" points="1554.44,220.745 1698.36,220.745 "/>
<path clip-path="url(#clip560)" d="M1744.59 204.599 L1744.59 209.159 Q1741.93 207.886 1739.57 207.261 Q1737.2 206.636 1735.01 206.636 Q1731.19 206.636 1729.1 208.117 Q1727.04 209.599 1727.04 212.33 Q1727.04 214.622 1728.41 215.803 Q1729.8 216.96 1733.64 217.678 L1736.46 218.256 Q1741.7 219.252 1744.17 221.775 Q1746.67 224.275 1746.67 228.488 Q1746.67 233.511 1743.29 236.103 Q1739.94 238.696 1733.43 238.696 Q1730.98 238.696 1728.2 238.14 Q1725.45 237.585 1722.48 236.497 L1722.48 231.682 Q1725.33 233.279 1728.06 234.089 Q1730.79 234.9 1733.43 234.9 Q1737.44 234.9 1739.61 233.326 Q1741.79 231.752 1741.79 228.835 Q1741.79 226.289 1740.21 224.853 Q1738.66 223.418 1735.1 222.701 L1732.25 222.145 Q1727.02 221.103 1724.68 218.881 Q1722.34 216.659 1722.34 212.701 Q1722.34 208.117 1725.56 205.479 Q1728.8 202.84 1734.47 202.84 Q1736.9 202.84 1739.43 203.279 Q1741.95 203.719 1744.59 204.599 Z" fill="#000000" fill-rule="nonzero" fill-opacity="1" /><path clip-path="url(#clip560)" d="M1757.99 204.738 L1757.99 212.099 L1766.76 212.099 L1766.76 215.409 L1757.99 215.409 L1757.99 229.483 Q1757.99 232.654 1758.85 233.557 Q1759.73 234.46 1762.39 234.46 L1766.76 234.46 L1766.76 238.025 L1762.39 238.025 Q1757.46 238.025 1755.58 236.196 Q1753.71 234.344 1753.71 229.483 L1753.71 215.409 L1750.58 215.409 L1750.58 212.099 L1753.71 212.099 L1753.71 204.738 L1757.99 204.738 Z" fill="#000000" fill-rule="nonzero" fill-opacity="1" /><path clip-path="url(#clip560)" d="M1784.15 224.992 Q1778.99 224.992 1777 226.173 Q1775.01 227.353 1775.01 230.201 Q1775.01 232.469 1776.49 233.812 Q1777.99 235.131 1780.56 235.131 Q1784.1 235.131 1786.23 232.631 Q1788.38 230.108 1788.38 225.941 L1788.38 224.992 L1784.15 224.992 M1792.64 223.233 L1792.64 238.025 L1788.38 238.025 L1788.38 234.089 Q1786.93 236.451 1784.75 237.585 Q1782.57 238.696 1779.43 238.696 Q1775.45 238.696 1773.08 236.474 Q1770.75 234.228 1770.75 230.478 Q1770.75 226.103 1773.66 223.881 Q1776.6 221.659 1782.41 221.659 L1788.38 221.659 L1788.38 221.242 Q1788.38 218.303 1786.44 216.705 Q1784.52 215.085 1781.02 215.085 Q1778.8 215.085 1776.7 215.617 Q1774.59 216.15 1772.64 217.215 L1772.64 213.279 Q1774.98 212.377 1777.18 211.937 Q1779.38 211.474 1781.46 211.474 Q1787.09 211.474 1789.87 214.391 Q1792.64 217.307 1792.64 223.233 Z" fill="#000000" fill-rule="nonzero" fill-opacity="1" /><path clip-path="url(#clip560)" d="M1805.63 204.738 L1805.63 212.099 L1814.4 212.099 L1814.4 215.409 L1805.63 215.409 L1805.63 229.483 Q1805.63 232.654 1806.49 233.557 Q1807.37 234.46 1810.03 234.46 L1814.4 234.46 L1814.4 238.025 L1810.03 238.025 Q1805.1 238.025 1803.22 236.196 Q1801.35 234.344 1801.35 229.483 L1801.35 215.409 L1798.22 215.409 L1798.22 212.099 L1801.35 212.099 L1801.35 204.738 L1805.63 204.738 Z" fill="#000000" fill-rule="nonzero" fill-opacity="1" /><path clip-path="url(#clip560)" d="M1842.18 223.997 L1842.18 226.08 L1822.6 226.08 Q1822.88 230.478 1825.24 232.793 Q1827.62 235.085 1831.86 235.085 Q1834.31 235.085 1836.6 234.483 Q1838.92 233.881 1841.19 232.677 L1841.19 236.705 Q1838.89 237.677 1836.49 238.187 Q1834.08 238.696 1831.6 238.696 Q1825.4 238.696 1821.76 235.085 Q1818.15 231.474 1818.15 225.316 Q1818.15 218.951 1821.58 215.224 Q1825.03 211.474 1830.86 211.474 Q1836.09 211.474 1839.13 214.853 Q1842.18 218.21 1842.18 223.997 M1837.92 222.747 Q1837.88 219.252 1835.95 217.168 Q1834.06 215.085 1830.91 215.085 Q1827.34 215.085 1825.19 217.099 Q1823.06 219.113 1822.74 222.77 L1837.92 222.747 Z" fill="#000000" fill-rule="nonzero" fill-opacity="1" /><path clip-path="url(#clip560)" d="M1874.47 202.053 Q1871.37 207.377 1869.87 212.585 Q1868.36 217.793 1868.36 223.14 Q1868.36 228.488 1869.87 233.742 Q1871.39 238.974 1874.47 244.275 L1870.77 244.275 Q1867.3 238.835 1865.56 233.58 Q1863.85 228.326 1863.85 223.14 Q1863.85 217.978 1865.56 212.747 Q1867.27 207.516 1870.77 202.053 L1874.47 202.053 Z" fill="#000000" fill-rule="nonzero" fill-opacity="1" /><path clip-path="url(#clip560)" d="M1903.64 204.599 L1903.64 209.159 Q1900.98 207.886 1898.62 207.261 Q1896.25 206.636 1894.06 206.636 Q1890.24 206.636 1888.15 208.117 Q1886.09 209.599 1886.09 212.33 Q1886.09 214.622 1887.46 215.803 Q1888.85 216.96 1892.69 217.678 L1895.51 218.256 Q1900.75 219.252 1903.22 221.775 Q1905.72 224.275 1905.72 228.488 Q1905.72 233.511 1902.34 236.103 Q1898.99 238.696 1892.48 238.696 Q1890.03 238.696 1887.25 238.14 Q1884.5 237.585 1881.53 236.497 L1881.53 231.682 Q1884.38 233.279 1887.11 234.089 Q1889.84 234.9 1892.48 234.9 Q1896.49 234.9 1898.66 233.326 Q1900.84 231.752 1900.84 228.835 Q1900.84 226.289 1899.26 224.853 Q1897.71 223.418 1894.15 222.701 L1891.3 222.145 Q1886.07 221.103 1883.73 218.881 Q1881.39 216.659 1881.39 212.701 Q1881.39 208.117 1884.61 205.479 Q1887.85 202.84 1893.52 202.84 Q1895.95 202.84 1898.48 203.279 Q1901 203.719 1903.64 204.599 Z" fill="#000000" fill-rule="nonzero" fill-opacity="1" /><path clip-path="url(#clip560)" d="M1916.95 234.136 L1916.95 247.886 L1912.67 247.886 L1912.67 212.099 L1916.95 212.099 L1916.95 216.034 Q1918.29 213.719 1920.33 212.608 Q1922.39 211.474 1925.24 211.474 Q1929.96 211.474 1932.9 215.224 Q1935.86 218.974 1935.86 225.085 Q1935.86 231.196 1932.9 234.946 Q1929.96 238.696 1925.24 238.696 Q1922.39 238.696 1920.33 237.585 Q1918.29 236.451 1916.95 234.136 M1931.44 225.085 Q1931.44 220.386 1929.5 217.724 Q1927.57 215.039 1924.19 215.039 Q1920.81 215.039 1918.87 217.724 Q1916.95 220.386 1916.95 225.085 Q1916.95 229.784 1918.87 232.469 Q1920.81 235.131 1924.19 235.131 Q1927.57 235.131 1929.5 232.469 Q1931.44 229.784 1931.44 225.085 Z" fill="#000000" fill-rule="nonzero" fill-opacity="1" /><path clip-path="url(#clip560)" d="M1954.7 224.992 Q1949.54 224.992 1947.55 226.173 Q1945.56 227.353 1945.56 230.201 Q1945.56 232.469 1947.04 233.812 Q1948.55 235.131 1951.12 235.131 Q1954.66 235.131 1956.79 232.631 Q1958.94 230.108 1958.94 225.941 L1958.94 224.992 L1954.7 224.992 M1963.2 223.233 L1963.2 238.025 L1958.94 238.025 L1958.94 234.089 Q1957.48 236.451 1955.31 237.585 Q1953.13 238.696 1949.98 238.696 Q1946 238.696 1943.64 236.474 Q1941.3 234.228 1941.3 230.478 Q1941.3 226.103 1944.22 223.881 Q1947.16 221.659 1952.97 221.659 L1958.94 221.659 L1958.94 221.242 Q1958.94 218.303 1957 216.705 Q1955.07 215.085 1951.58 215.085 Q1949.36 215.085 1947.25 215.617 Q1945.14 216.15 1943.2 217.215 L1943.2 213.279 Q1945.54 212.377 1947.74 211.937 Q1949.93 211.474 1952.02 211.474 Q1957.64 211.474 1960.42 214.391 Q1963.2 217.307 1963.2 223.233 Z" fill="#000000" fill-rule="nonzero" fill-opacity="1" /><path clip-path="url(#clip560)" d="M1976.18 204.738 L1976.18 212.099 L1984.96 212.099 L1984.96 215.409 L1976.18 215.409 L1976.18 229.483 Q1976.18 232.654 1977.04 233.557 Q1977.92 234.46 1980.58 234.46 L1984.96 234.46 L1984.96 238.025 L1980.58 238.025 Q1975.65 238.025 1973.78 236.196 Q1971.9 234.344 1971.9 229.483 L1971.9 215.409 L1968.78 215.409 L1968.78 212.099 L1971.9 212.099 L1971.9 204.738 L1976.18 204.738 Z" fill="#000000" fill-rule="nonzero" fill-opacity="1" /><path clip-path="url(#clip560)" d="M1990.56 212.099 L1994.82 212.099 L1994.82 238.025 L1990.56 238.025 L1990.56 212.099 M1990.56 202.006 L1994.82 202.006 L1994.82 207.4 L1990.56 207.4 L1990.56 202.006 Z" fill="#000000" fill-rule="nonzero" fill-opacity="1" /><path clip-path="url(#clip560)" d="M2015.51 224.992 Q2010.35 224.992 2008.36 226.173 Q2006.37 227.353 2006.37 230.201 Q2006.37 232.469 2007.85 233.812 Q2009.36 235.131 2011.93 235.131 Q2015.47 235.131 2017.6 232.631 Q2019.75 230.108 2019.75 225.941 L2019.75 224.992 L2015.51 224.992 M2024.01 223.233 L2024.01 238.025 L2019.75 238.025 L2019.75 234.089 Q2018.29 236.451 2016.12 237.585 Q2013.94 238.696 2010.79 238.696 Q2006.81 238.696 2004.45 236.474 Q2002.11 234.228 2002.11 230.478 Q2002.11 226.103 2005.03 223.881 Q2007.97 221.659 2013.78 221.659 L2019.75 221.659 L2019.75 221.242 Q2019.75 218.303 2017.81 216.705 Q2015.88 215.085 2012.39 215.085 Q2010.17 215.085 2008.06 215.617 Q2005.95 216.15 2004.01 217.215 L2004.01 213.279 Q2006.35 212.377 2008.55 211.937 Q2010.74 211.474 2012.83 211.474 Q2018.45 211.474 2021.23 214.391 Q2024.01 217.307 2024.01 223.233 Z" fill="#000000" fill-rule="nonzero" fill-opacity="1" /><path clip-path="url(#clip560)" d="M2032.78 202.006 L2037.04 202.006 L2037.04 238.025 L2032.78 238.025 L2032.78 202.006 Z" fill="#000000" fill-rule="nonzero" fill-opacity="1" /><path clip-path="url(#clip560)" d="M2053.52 203.465 L2057.46 203.465 L2045.42 242.423 L2041.49 242.423 L2053.52 203.465 Z" fill="#000000" fill-rule="nonzero" fill-opacity="1" /><path clip-path="url(#clip560)" d="M2057.32 203.465 L2086.55 203.465 L2086.55 207.4 L2074.29 207.4 L2074.29 238.025 L2069.59 238.025 L2069.59 207.4 L2057.32 207.4 L2057.32 203.465 Z" fill="#000000" fill-rule="nonzero" fill-opacity="1" /><path clip-path="url(#clip560)" d="M2089.42 212.099 L2093.68 212.099 L2093.68 238.025 L2089.42 238.025 L2089.42 212.099 M2089.42 202.006 L2093.68 202.006 L2093.68 207.4 L2089.42 207.4 L2089.42 202.006 Z" fill="#000000" fill-rule="nonzero" fill-opacity="1" /><path clip-path="url(#clip560)" d="M2122.78 217.076 Q2124.38 214.205 2126.6 212.84 Q2128.82 211.474 2131.83 211.474 Q2135.88 211.474 2138.08 214.321 Q2140.28 217.145 2140.28 222.377 L2140.28 238.025 L2136 238.025 L2136 222.515 Q2136 218.789 2134.68 216.983 Q2133.36 215.178 2130.65 215.178 Q2127.34 215.178 2125.42 217.377 Q2123.5 219.576 2123.5 223.372 L2123.5 238.025 L2119.22 238.025 L2119.22 222.515 Q2119.22 218.765 2117.9 216.983 Q2116.58 215.178 2113.82 215.178 Q2110.56 215.178 2108.64 217.4 Q2106.72 219.599 2106.72 223.372 L2106.72 238.025 L2102.43 238.025 L2102.43 212.099 L2106.72 212.099 L2106.72 216.127 Q2108.17 213.742 2110.21 212.608 Q2112.25 211.474 2115.05 211.474 Q2117.87 211.474 2119.84 212.909 Q2121.83 214.344 2122.78 217.076 Z" fill="#000000" fill-rule="nonzero" fill-opacity="1" /><path clip-path="url(#clip560)" d="M2170.95 223.997 L2170.95 226.08 L2151.37 226.08 Q2151.65 230.478 2154.01 232.793 Q2156.39 235.085 2160.63 235.085 Q2163.08 235.085 2165.37 234.483 Q2167.69 233.881 2169.96 232.677 L2169.96 236.705 Q2167.67 237.677 2165.26 238.187 Q2162.85 238.696 2160.37 238.696 Q2154.17 238.696 2150.54 235.085 Q2146.92 231.474 2146.92 225.316 Q2146.92 218.951 2150.35 215.224 Q2153.8 211.474 2159.63 211.474 Q2164.86 211.474 2167.9 214.853 Q2170.95 218.21 2170.95 223.997 M2166.69 222.747 Q2166.65 219.252 2164.73 217.168 Q2162.83 215.085 2159.68 215.085 Q2156.11 215.085 2153.96 217.099 Q2151.83 219.113 2151.51 222.77 L2166.69 222.747 Z" fill="#000000" fill-rule="nonzero" fill-opacity="1" /><path clip-path="url(#clip560)" d="M2177.27 202.053 L2180.98 202.053 Q2184.45 207.516 2186.16 212.747 Q2187.9 217.978 2187.9 223.14 Q2187.9 228.326 2186.16 233.58 Q2184.45 238.835 2180.98 244.275 L2177.27 244.275 Q2180.35 238.974 2181.86 233.742 Q2183.38 228.488 2183.38 223.14 Q2183.38 217.793 2181.86 212.585 Q2180.35 207.377 2177.27 202.053 Z" fill="#000000" fill-rule="nonzero" fill-opacity="1" /><polyline clip-path="url(#clip560)" style="stroke:#e26f46; stroke-linecap:round; stroke-linejoin:round; stroke-width:4; stroke-opacity:0.7; fill:none" points="1554.44,272.585 1698.36,272.585 "/>
<path clip-path="url(#clip560)" d="M1722.34 255.305 L1742.2 255.305 L1742.2 259.24 L1727.02 259.24 L1727.02 269.425 L1740.72 269.425 L1740.72 273.36 L1727.02 273.36 L1727.02 289.865 L1722.34 289.865 L1722.34 255.305 Z" fill="#000000" fill-rule="nonzero" fill-opacity="1" /><path clip-path="url(#clip560)" d="M1749.61 255.305 L1755.91 255.305 L1771.23 284.217 L1771.23 255.305 L1775.77 255.305 L1775.77 289.865 L1769.47 289.865 L1754.15 260.953 L1754.15 289.865 L1749.61 289.865 L1749.61 255.305 Z" fill="#000000" fill-rule="nonzero" fill-opacity="1" /><path clip-path="url(#clip560)" d="M1799.1 258.476 Q1794.01 258.476 1791 262.272 Q1788.01 266.068 1788.01 272.619 Q1788.01 279.147 1791 282.943 Q1794.01 286.74 1799.1 286.74 Q1804.2 286.74 1807.16 282.943 Q1810.14 279.147 1810.14 272.619 Q1810.14 266.068 1807.16 262.272 Q1804.2 258.476 1799.1 258.476 M1799.1 254.68 Q1806.37 254.68 1810.72 259.564 Q1815.07 264.425 1815.07 272.619 Q1815.07 280.791 1810.72 285.675 Q1806.37 290.536 1799.1 290.536 Q1791.81 290.536 1787.44 285.675 Q1783.08 280.814 1783.08 272.619 Q1783.08 264.425 1787.44 259.564 Q1791.81 254.68 1799.1 254.68 Z" fill="#000000" fill-rule="nonzero" fill-opacity="1" /><path clip-path="url(#clip560)" d="M1837.46 255.305 L1857.32 255.305 L1857.32 259.24 L1842.13 259.24 L1842.13 269.425 L1855.84 269.425 L1855.84 273.36 L1842.13 273.36 L1842.13 289.865 L1837.46 289.865 L1837.46 255.305 Z" fill="#000000" fill-rule="nonzero" fill-opacity="1" /><path clip-path="url(#clip560)" d="M1861.09 263.939 L1865.35 263.939 L1865.35 289.865 L1861.09 289.865 L1861.09 263.939 M1861.09 253.846 L1865.35 253.846 L1865.35 259.24 L1861.09 259.24 L1861.09 253.846 Z" fill="#000000" fill-rule="nonzero" fill-opacity="1" /><path clip-path="url(#clip560)" d="M1874.26 253.846 L1878.52 253.846 L1878.52 289.865 L1874.26 289.865 L1874.26 253.846 Z" fill="#000000" fill-rule="nonzero" fill-opacity="1" /><path clip-path="url(#clip560)" d="M1891.65 256.578 L1891.65 263.939 L1900.42 263.939 L1900.42 267.249 L1891.65 267.249 L1891.65 281.323 Q1891.65 284.494 1892.5 285.397 Q1893.38 286.3 1896.05 286.3 L1900.42 286.3 L1900.42 289.865 L1896.05 289.865 Q1891.12 289.865 1889.24 288.036 Q1887.37 286.184 1887.37 281.323 L1887.37 267.249 L1884.24 267.249 L1884.24 263.939 L1887.37 263.939 L1887.37 256.578 L1891.65 256.578 Z" fill="#000000" fill-rule="nonzero" fill-opacity="1" /><path clip-path="url(#clip560)" d="M1928.2 275.837 L1928.2 277.92 L1908.62 277.92 Q1908.89 282.318 1911.25 284.633 Q1913.64 286.925 1917.87 286.925 Q1920.33 286.925 1922.62 286.323 Q1924.94 285.721 1927.2 284.517 L1927.2 288.545 Q1924.91 289.517 1922.5 290.027 Q1920.1 290.536 1917.62 290.536 Q1911.42 290.536 1907.78 286.925 Q1904.17 283.314 1904.17 277.156 Q1904.17 270.791 1907.6 267.064 Q1911.05 263.314 1916.88 263.314 Q1922.11 263.314 1925.14 266.693 Q1928.2 270.05 1928.2 275.837 M1923.94 274.587 Q1923.89 271.092 1921.97 269.008 Q1920.07 266.925 1916.93 266.925 Q1913.36 266.925 1911.21 268.939 Q1909.08 270.953 1908.75 274.61 L1923.94 274.587 Z" fill="#000000" fill-rule="nonzero" fill-opacity="1" /><path clip-path="url(#clip560)" d="M1950.21 267.92 Q1949.5 267.504 1948.64 267.318 Q1947.81 267.11 1946.79 267.11 Q1943.18 267.11 1941.23 269.471 Q1939.31 271.809 1939.31 276.207 L1939.31 289.865 L1935.03 289.865 L1935.03 263.939 L1939.31 263.939 L1939.31 267.967 Q1940.65 265.606 1942.81 264.471 Q1944.96 263.314 1948.04 263.314 Q1948.48 263.314 1949.01 263.383 Q1949.54 263.43 1950.19 263.545 L1950.21 267.92 Z" fill="#000000" fill-rule="nonzero" fill-opacity="1" /><path clip-path="url(#clip560)" d="M1975.81 275.837 L1975.81 277.92 L1956.23 277.92 Q1956.51 282.318 1958.87 284.633 Q1961.25 286.925 1965.49 286.925 Q1967.94 286.925 1970.24 286.323 Q1972.55 285.721 1974.82 284.517 L1974.82 288.545 Q1972.53 289.517 1970.12 290.027 Q1967.71 290.536 1965.24 290.536 Q1959.03 290.536 1955.4 286.925 Q1951.79 283.314 1951.79 277.156 Q1951.79 270.791 1955.21 267.064 Q1958.66 263.314 1964.5 263.314 Q1969.73 263.314 1972.76 266.693 Q1975.81 270.05 1975.81 275.837 M1971.56 274.587 Q1971.51 271.092 1969.59 269.008 Q1967.69 266.925 1964.54 266.925 Q1960.98 266.925 1958.82 268.939 Q1956.69 270.953 1956.37 274.61 L1971.56 274.587 Z" fill="#000000" fill-rule="nonzero" fill-opacity="1" /><path clip-path="url(#clip560)" d="M1999.87 267.874 L1999.87 253.846 L2004.12 253.846 L2004.12 289.865 L1999.87 289.865 L1999.87 285.976 Q1998.52 288.291 1996.46 289.425 Q1994.43 290.536 1991.56 290.536 Q1986.86 290.536 1983.89 286.786 Q1980.95 283.036 1980.95 276.925 Q1980.95 270.814 1983.89 267.064 Q1986.86 263.314 1991.56 263.314 Q1994.43 263.314 1996.46 264.448 Q1998.52 265.559 1999.87 267.874 M1985.35 276.925 Q1985.35 281.624 1987.27 284.309 Q1989.22 286.971 1992.6 286.971 Q1995.98 286.971 1997.92 284.309 Q1999.87 281.624 1999.87 276.925 Q1999.87 272.226 1997.92 269.564 Q1995.98 266.879 1992.6 266.879 Q1989.22 266.879 1987.27 269.564 Q1985.35 272.226 1985.35 276.925 Z" fill="#000000" fill-rule="nonzero" fill-opacity="1" /><path clip-path="url(#clip560)" d="M2039.7 259.911 L2033.36 277.11 L2046.07 277.11 L2039.7 259.911 M2037.06 255.305 L2042.37 255.305 L2055.54 289.865 L2050.68 289.865 L2047.53 280.999 L2031.95 280.999 L2028.8 289.865 L2023.87 289.865 L2037.06 255.305 Z" fill="#000000" fill-rule="nonzero" fill-opacity="1" /><path clip-path="url(#clip560)" d="M2078.22 264.934 L2078.22 268.916 Q2076.42 267.92 2074.59 267.434 Q2072.78 266.925 2070.93 266.925 Q2066.79 266.925 2064.49 269.564 Q2062.2 272.18 2062.2 276.925 Q2062.2 281.67 2064.49 284.309 Q2066.79 286.925 2070.93 286.925 Q2072.78 286.925 2074.59 286.439 Q2076.42 285.929 2078.22 284.934 L2078.22 288.869 Q2076.44 289.703 2074.52 290.119 Q2072.62 290.536 2070.47 290.536 Q2064.61 290.536 2061.16 286.855 Q2057.71 283.175 2057.71 276.925 Q2057.71 270.582 2061.18 266.948 Q2064.68 263.314 2070.74 263.314 Q2072.71 263.314 2074.59 263.731 Q2076.46 264.124 2078.22 264.934 Z" fill="#000000" fill-rule="nonzero" fill-opacity="1" /><path clip-path="url(#clip560)" d="M2089.84 256.578 L2089.84 263.939 L2098.61 263.939 L2098.61 267.249 L2089.84 267.249 L2089.84 281.323 Q2089.84 284.494 2090.7 285.397 Q2091.58 286.3 2094.24 286.3 L2098.61 286.3 L2098.61 289.865 L2094.24 289.865 Q2089.31 289.865 2087.43 288.036 Q2085.56 286.184 2085.56 281.323 L2085.56 267.249 L2082.43 267.249 L2082.43 263.939 L2085.56 263.939 L2085.56 256.578 L2089.84 256.578 Z" fill="#000000" fill-rule="nonzero" fill-opacity="1" /><path clip-path="url(#clip560)" d="M2104.22 263.939 L2108.48 263.939 L2108.48 289.865 L2104.22 289.865 L2104.22 263.939 M2104.22 253.846 L2108.48 253.846 L2108.48 259.24 L2104.22 259.24 L2104.22 253.846 Z" fill="#000000" fill-rule="nonzero" fill-opacity="1" /><path clip-path="url(#clip560)" d="M2114.33 263.939 L2118.85 263.939 L2126.95 285.698 L2135.05 263.939 L2139.56 263.939 L2129.84 289.865 L2124.05 289.865 L2114.33 263.939 Z" fill="#000000" fill-rule="nonzero" fill-opacity="1" /><path clip-path="url(#clip560)" d="M2157.23 276.832 Q2152.06 276.832 2150.07 278.013 Q2148.08 279.193 2148.08 282.041 Q2148.08 284.309 2149.56 285.652 Q2151.07 286.971 2153.64 286.971 Q2157.18 286.971 2159.31 284.471 Q2161.46 281.948 2161.46 277.781 L2161.46 276.832 L2157.23 276.832 M2165.72 275.073 L2165.72 289.865 L2161.46 289.865 L2161.46 285.929 Q2160 288.291 2157.83 289.425 Q2155.65 290.536 2152.5 290.536 Q2148.52 290.536 2146.16 288.314 Q2143.82 286.068 2143.82 282.318 Q2143.82 277.943 2146.74 275.721 Q2149.68 273.499 2155.49 273.499 L2161.46 273.499 L2161.46 273.082 Q2161.46 270.143 2159.52 268.545 Q2157.6 266.925 2154.1 266.925 Q2151.88 266.925 2149.77 267.457 Q2147.67 267.99 2145.72 269.055 L2145.72 265.119 Q2148.06 264.217 2150.26 263.777 Q2152.46 263.314 2154.54 263.314 Q2160.17 263.314 2162.94 266.231 Q2165.72 269.147 2165.72 275.073 Z" fill="#000000" fill-rule="nonzero" fill-opacity="1" /><path clip-path="url(#clip560)" d="M2178.71 256.578 L2178.71 263.939 L2187.48 263.939 L2187.48 267.249 L2178.71 267.249 L2178.71 281.323 Q2178.71 284.494 2179.56 285.397 Q2180.44 286.3 2183.11 286.3 L2187.48 286.3 L2187.48 289.865 L2183.11 289.865 Q2178.17 289.865 2176.3 288.036 Q2174.42 286.184 2174.42 281.323 L2174.42 267.249 L2171.3 267.249 L2171.3 263.939 L2174.42 263.939 L2174.42 256.578 L2178.71 256.578 Z" fill="#000000" fill-rule="nonzero" fill-opacity="1" /><path clip-path="url(#clip560)" d="M2193.08 263.939 L2197.34 263.939 L2197.34 289.865 L2193.08 289.865 L2193.08 263.939 M2193.08 253.846 L2197.34 253.846 L2197.34 259.24 L2193.08 259.24 L2193.08 253.846 Z" fill="#000000" fill-rule="nonzero" fill-opacity="1" /><path clip-path="url(#clip560)" d="M2216.3 266.925 Q2212.87 266.925 2210.88 269.61 Q2208.89 272.272 2208.89 276.925 Q2208.89 281.578 2210.86 284.263 Q2212.85 286.925 2216.3 286.925 Q2219.7 286.925 2221.69 284.24 Q2223.68 281.555 2223.68 276.925 Q2223.68 272.318 2221.69 269.633 Q2219.7 266.925 2216.3 266.925 M2216.3 263.314 Q2221.85 263.314 2225.03 266.925 Q2228.2 270.536 2228.2 276.925 Q2228.2 283.291 2225.03 286.925 Q2221.85 290.536 2216.3 290.536 Q2210.72 290.536 2207.55 286.925 Q2204.4 283.291 2204.4 276.925 Q2204.4 270.536 2207.55 266.925 Q2210.72 263.314 2216.3 263.314 Z" fill="#000000" fill-rule="nonzero" fill-opacity="1" /><path clip-path="url(#clip560)" d="M2256.81 274.217 L2256.81 289.865 L2252.55 289.865 L2252.55 274.355 Q2252.55 270.675 2251.11 268.846 Q2249.68 267.018 2246.81 267.018 Q2243.36 267.018 2241.37 269.217 Q2239.38 271.416 2239.38 275.212 L2239.38 289.865 L2235.1 289.865 L2235.1 263.939 L2239.38 263.939 L2239.38 267.967 Q2240.91 265.629 2242.97 264.471 Q2245.05 263.314 2247.76 263.314 Q2252.23 263.314 2254.52 266.092 Q2256.81 268.846 2256.81 274.217 Z" fill="#000000" fill-rule="nonzero" fill-opacity="1" /></svg>
