<?xml version="1.0" encoding="utf-8"?>
<svg xmlns="http://www.w3.org/2000/svg" xmlns:xlink="http://www.w3.org/1999/xlink" width="600" height="400" viewBox="0 0 2400 1600">
<defs>
  <clipPath id="clip560">
    <rect x="0" y="0" width="2400" height="1600"/>
  </clipPath>
</defs>
<path clip-path="url(#clip560)" d="M0 1600 L2400 1600 L2400 8.88178e-14 L0 8.88178e-14  Z" fill="#ffffff" fill-rule="evenodd" fill-opacity="1"/>
<defs>
  <clipPath id="clip561">
    <rect x="480" y="0" width="1681" height="1600"/>
  </clipPath>
</defs>
<path clip-path="url(#clip560)" d="M193.936 1486.45 L2352.76 1486.45 L2352.76 123.472 L193.936 123.472  Z" fill="#ffffff" fill-rule="evenodd" fill-opacity="1"/>
<defs>
  <clipPath id="clip562">
    <rect x="193" y="123" width="2160" height="1364"/>
  </clipPath>
</defs>
<polyline clip-path="url(#clip562)" style="stroke:#000000; stroke-linecap:round; stroke-linejoin:round; stroke-width:2; stroke-opacity:0.1; fill:none" points="234.463,1486.45 234.463,123.472 "/>
<polyline clip-path="url(#clip562)" style="stroke:#000000; stroke-linecap:round; stroke-linejoin:round; stroke-width:2; stroke-opacity:0.1; fill:none" points="748.761,1486.45 748.761,123.472 "/>
<polyline clip-path="url(#clip562)" style="stroke:#000000; stroke-linecap:round; stroke-linejoin:round; stroke-width:2; stroke-opacity:0.1; fill:none" points="1263.06,1486.45 1263.06,123.472 "/>
<polyline clip-path="url(#clip562)" style="stroke:#000000; stroke-linecap:round; stroke-linejoin:round; stroke-width:2; stroke-opacity:0.1; fill:none" points="1777.36,1486.45 1777.36,123.472 "/>
<polyline clip-path="url(#clip562)" style="stroke:#000000; stroke-linecap:round; stroke-linejoin:round; stroke-width:2; stroke-opacity:0.1; fill:none" points="2291.66,1486.45 2291.66,123.472 "/>
<polyline clip-path="url(#clip562)" style="stroke:#000000; stroke-linecap:round; stroke-linejoin:round; stroke-width:2; stroke-opacity:0.1; fill:none" points="193.936,1346.02 2352.76,1346.02 "/>
<polyline clip-path="url(#clip562)" style="stroke:#000000; stroke-linecap:round; stroke-linejoin:round; stroke-width:2; stroke-opacity:0.1; fill:none" points="193.936,1075.49 2352.76,1075.49 "/>
<polyline clip-path="url(#clip562)" style="stroke:#000000; stroke-linecap:round; stroke-linejoin:round; stroke-width:2; stroke-opacity:0.1; fill:none" points="193.936,804.96 2352.76,804.96 "/>
<polyline clip-path="url(#clip562)" style="stroke:#000000; stroke-linecap:round; stroke-linejoin:round; stroke-width:2; stroke-opacity:0.1; fill:none" points="193.936,534.428 2352.76,534.428 "/>
<polyline clip-path="url(#clip562)" style="stroke:#000000; stroke-linecap:round; stroke-linejoin:round; stroke-width:2; stroke-opacity:0.1; fill:none" points="193.936,263.896 2352.76,263.896 "/>
<polyline clip-path="url(#clip560)" style="stroke:#000000; stroke-linecap:round; stroke-linejoin:round; stroke-width:4; stroke-opacity:1; fill:none" points="193.936,1486.45 2352.76,1486.45 "/>
<polyline clip-path="url(#clip560)" style="stroke:#000000; stroke-linecap:round; stroke-linejoin:round; stroke-width:4; stroke-opacity:1; fill:none" points="234.463,1486.45 234.463,1467.55 "/>
<polyline clip-path="url(#clip560)" style="stroke:#000000; stroke-linecap:round; stroke-linejoin:round; stroke-width:4; stroke-opacity:1; fill:none" points="748.761,1486.45 748.761,1467.55 "/>
<polyline clip-path="url(#clip560)" style="stroke:#000000; stroke-linecap:round; stroke-linejoin:round; stroke-width:4; stroke-opacity:1; fill:none" points="1263.06,1486.45 1263.06,1467.55 "/>
<polyline clip-path="url(#clip560)" style="stroke:#000000; stroke-linecap:round; stroke-linejoin:round; stroke-width:4; stroke-opacity:1; fill:none" points="1777.36,1486.45 1777.36,1467.55 "/>
<polyline clip-path="url(#clip560)" style="stroke:#000000; stroke-linecap:round; stroke-linejoin:round; stroke-width:4; stroke-opacity:1; fill:none" points="2291.66,1486.45 2291.66,1467.55 "/>
<path clip-path="url(#clip560)" d="M234.463 1517.37 Q230.852 1517.37 229.023 1520.93 Q227.217 1524.47 227.217 1531.6 Q227.217 1538.71 229.023 1542.27 Q230.852 1545.82 234.463 1545.82 Q238.097 1545.82 239.903 1542.27 Q241.731 1538.71 241.731 1531.6 Q241.731 1524.47 239.903 1520.93 Q238.097 1517.37 234.463 1517.37 M234.463 1513.66 Q240.273 1513.66 243.328 1518.27 Q246.407 1522.85 246.407 1531.6 Q246.407 1540.33 243.328 1544.94 Q240.273 1549.52 234.463 1549.52 Q228.653 1549.52 225.574 1544.94 Q222.518 1540.33 222.518 1531.6 Q222.518 1522.85 225.574 1518.27 Q228.653 1513.66 234.463 1513.66 Z" fill="#000000" fill-rule="nonzero" fill-opacity="1" /><path clip-path="url(#clip560)" d="M728.032 1544.91 L744.352 1544.91 L744.352 1548.85 L722.407 1548.85 L722.407 1544.91 Q725.069 1542.16 729.653 1537.53 Q734.259 1532.88 735.44 1531.53 Q737.685 1529.01 738.565 1527.27 Q739.467 1525.51 739.467 1523.82 Q739.467 1521.07 737.523 1519.33 Q735.602 1517.6 732.5 1517.6 Q730.301 1517.6 727.847 1518.36 Q725.417 1519.13 722.639 1520.68 L722.639 1515.95 Q725.463 1514.82 727.917 1514.24 Q730.37 1513.66 732.407 1513.66 Q737.778 1513.66 740.972 1516.35 Q744.166 1519.03 744.166 1523.52 Q744.166 1525.65 743.356 1527.57 Q742.569 1529.47 740.463 1532.07 Q739.884 1532.74 736.782 1535.95 Q733.68 1539.15 728.032 1544.91 Z" fill="#000000" fill-rule="nonzero" fill-opacity="1" /><path clip-path="url(#clip560)" d="M754.213 1514.29 L772.569 1514.29 L772.569 1518.22 L758.495 1518.22 L758.495 1526.7 Q759.514 1526.35 760.532 1526.19 Q761.551 1526 762.569 1526 Q768.356 1526 771.736 1529.17 Q775.115 1532.34 775.115 1537.76 Q775.115 1543.34 771.643 1546.44 Q768.171 1549.52 761.852 1549.52 Q759.676 1549.52 757.407 1549.15 Q755.162 1548.78 752.754 1548.04 L752.754 1543.34 Q754.838 1544.47 757.06 1545.03 Q759.282 1545.58 761.759 1545.58 Q765.764 1545.58 768.102 1543.48 Q770.439 1541.37 770.439 1537.76 Q770.439 1534.15 768.102 1532.04 Q765.764 1529.94 761.759 1529.94 Q759.884 1529.94 758.009 1530.35 Q756.157 1530.77 754.213 1531.65 L754.213 1514.29 Z" fill="#000000" fill-rule="nonzero" fill-opacity="1" /><path clip-path="url(#clip560)" d="M1237.76 1514.29 L1256.12 1514.29 L1256.12 1518.22 L1242.04 1518.22 L1242.04 1526.7 Q1243.06 1526.35 1244.08 1526.19 Q1245.1 1526 1246.12 1526 Q1251.9 1526 1255.28 1529.17 Q1258.66 1532.34 1258.66 1537.76 Q1258.66 1543.34 1255.19 1546.44 Q1251.72 1549.52 1245.4 1549.52 Q1243.22 1549.52 1240.95 1549.15 Q1238.71 1548.78 1236.3 1548.04 L1236.3 1543.34 Q1238.38 1544.47 1240.61 1545.03 Q1242.83 1545.58 1245.31 1545.58 Q1249.31 1545.58 1251.65 1543.48 Q1253.99 1541.37 1253.99 1537.76 Q1253.99 1534.15 1251.65 1532.04 Q1249.31 1529.94 1245.31 1529.94 Q1243.43 1529.94 1241.56 1530.35 Q1239.7 1530.77 1237.76 1531.65 L1237.76 1514.29 Z" fill="#000000" fill-rule="nonzero" fill-opacity="1" /><path clip-path="url(#clip560)" d="M1277.87 1517.37 Q1274.26 1517.37 1272.43 1520.93 Q1270.63 1524.47 1270.63 1531.6 Q1270.63 1538.71 1272.43 1542.27 Q1274.26 1545.82 1277.87 1545.82 Q1281.51 1545.82 1283.31 1542.27 Q1285.14 1538.71 1285.14 1531.6 Q1285.14 1524.47 1283.31 1520.93 Q1281.51 1517.37 1277.87 1517.37 M1277.87 1513.66 Q1283.68 1513.66 1286.74 1518.27 Q1289.82 1522.85 1289.82 1531.6 Q1289.82 1540.33 1286.74 1544.94 Q1283.68 1549.52 1277.87 1549.52 Q1272.06 1549.52 1268.99 1544.94 Q1265.93 1540.33 1265.93 1531.6 Q1265.93 1522.85 1268.99 1518.27 Q1272.06 1513.66 1277.87 1513.66 Z" fill="#000000" fill-rule="nonzero" fill-opacity="1" /><path clip-path="url(#clip560)" d="M1751.21 1514.29 L1773.44 1514.29 L1773.44 1516.28 L1760.89 1548.85 L1756 1548.85 L1767.81 1518.22 L1751.21 1518.22 L1751.21 1514.29 Z" fill="#000000" fill-rule="nonzero" fill-opacity="1" /><path clip-path="url(#clip560)" d="M1782.6 1514.29 L1800.96 1514.29 L1800.96 1518.22 L1786.88 1518.22 L1786.88 1526.7 Q1787.9 1526.35 1788.92 1526.19 Q1789.94 1526 1790.96 1526 Q1796.75 1526 1800.12 1529.17 Q1803.5 1532.34 1803.5 1537.76 Q1803.5 1543.34 1800.03 1546.44 Q1796.56 1549.52 1790.24 1549.52 Q1788.06 1549.52 1785.8 1549.15 Q1783.55 1548.78 1781.14 1548.04 L1781.14 1543.34 Q1783.23 1544.47 1785.45 1545.03 Q1787.67 1545.58 1790.15 1545.58 Q1794.15 1545.58 1796.49 1543.48 Q1798.83 1541.37 1798.83 1537.76 Q1798.83 1534.15 1796.49 1532.04 Q1794.15 1529.94 1790.15 1529.94 Q1788.27 1529.94 1786.4 1530.35 Q1784.55 1530.77 1782.6 1531.65 L1782.6 1514.29 Z" fill="#000000" fill-rule="nonzero" fill-opacity="1" /><path clip-path="url(#clip560)" d="M2251.26 1544.91 L2258.9 1544.91 L2258.9 1518.55 L2250.59 1520.21 L2250.59 1515.95 L2258.86 1514.29 L2263.53 1514.29 L2263.53 1544.91 L2271.17 1544.91 L2271.17 1548.85 L2251.26 1548.85 L2251.26 1544.91 Z" fill="#000000" fill-rule="nonzero" fill-opacity="1" /><path clip-path="url(#clip560)" d="M2290.62 1517.37 Q2287 1517.37 2285.18 1520.93 Q2283.37 1524.47 2283.37 1531.6 Q2283.37 1538.71 2285.18 1542.27 Q2287 1545.82 2290.62 1545.82 Q2294.25 1545.82 2296.06 1542.27 Q2297.88 1538.71 2297.88 1531.6 Q2297.88 1524.47 2296.06 1520.93 Q2294.25 1517.37 2290.62 1517.37 M2290.62 1513.66 Q2296.43 1513.66 2299.48 1518.27 Q2302.56 1522.85 2302.56 1531.6 Q2302.56 1540.33 2299.48 1544.94 Q2296.43 1549.52 2290.62 1549.52 Q2284.81 1549.52 2281.73 1544.94 Q2278.67 1540.33 2278.67 1531.6 Q2278.67 1522.85 2281.73 1518.27 Q2284.81 1513.66 2290.62 1513.66 Z" fill="#000000" fill-rule="nonzero" fill-opacity="1" /><path clip-path="url(#clip560)" d="M2320.78 1517.37 Q2317.17 1517.37 2315.34 1520.93 Q2313.53 1524.47 2313.53 1531.6 Q2313.53 1538.71 2315.34 1542.27 Q2317.17 1545.82 2320.78 1545.82 Q2324.41 1545.82 2326.22 1542.27 Q2328.05 1538.71 2328.05 1531.6 Q2328.05 1524.47 2326.22 1520.93 Q2324.41 1517.37 2320.78 1517.37 M2320.78 1513.66 Q2326.59 1513.66 2329.64 1518.27 Q2332.72 1522.85 2332.72 1531.6 Q2332.72 1540.33 2329.64 1544.94 Q2326.59 1549.52 2320.78 1549.52 Q2314.97 1549.52 2311.89 1544.94 Q2308.83 1540.33 2308.83 1531.6 Q2308.83 1522.85 2311.89 1518.27 Q2314.97 1513.66 2320.78 1513.66 Z" fill="#000000" fill-rule="nonzero" fill-opacity="1" /><polyline clip-path="url(#clip560)" style="stroke:#000000; stroke-linecap:round; stroke-linejoin:round; stroke-width:4; stroke-opacity:1; fill:none" points="193.936,1486.45 193.936,123.472 "/>
<polyline clip-path="url(#clip560)" style="stroke:#000000; stroke-linecap:round; stroke-linejoin:round; stroke-width:4; stroke-opacity:1; fill:none" points="193.936,1346.02 212.834,1346.02 "/>
<polyline clip-path="url(#clip560)" style="stroke:#000000; stroke-linecap:round; stroke-linejoin:round; stroke-width:4; stroke-opacity:1; fill:none" points="193.936,1075.49 212.834,1075.49 "/>
<polyline clip-path="url(#clip560)" style="stroke:#000000; stroke-linecap:round; stroke-linejoin:round; stroke-width:4; stroke-opacity:1; fill:none" points="193.936,804.96 212.834,804.96 "/>
<polyline clip-path="url(#clip560)" style="stroke:#000000; stroke-linecap:round; stroke-linejoin:round; stroke-width:4; stroke-opacity:1; fill:none" points="193.936,534.428 212.834,534.428 "/>
<polyline clip-path="url(#clip560)" style="stroke:#000000; stroke-linecap:round; stroke-linejoin:round; stroke-width:4; stroke-opacity:1; fill:none" points="193.936,263.896 212.834,263.896 "/>
<path clip-path="url(#clip560)" d="M50.9921 1346.48 L80.6679 1346.48 L80.6679 1350.41 L50.9921 1350.41 L50.9921 1346.48 Z" fill="#000000" fill-rule="nonzero" fill-opacity="1" /><path clip-path="url(#clip560)" d="M91.5706 1359.37 L99.2095 1359.37 L99.2095 1333 L90.8993 1334.67 L90.8993 1330.41 L99.1632 1328.74 L103.839 1328.74 L103.839 1359.37 L111.478 1359.37 L111.478 1363.3 L91.5706 1363.3 L91.5706 1359.37 Z" fill="#000000" fill-rule="nonzero" fill-opacity="1" /><path clip-path="url(#clip560)" d="M120.922 1357.42 L125.807 1357.42 L125.807 1363.3 L120.922 1363.3 L120.922 1357.42 Z" fill="#000000" fill-rule="nonzero" fill-opacity="1" /><path clip-path="url(#clip560)" d="M145.992 1331.82 Q142.381 1331.82 140.552 1335.39 Q138.746 1338.93 138.746 1346.06 Q138.746 1353.17 140.552 1356.73 Q142.381 1360.27 145.992 1360.27 Q149.626 1360.27 151.431 1356.73 Q153.26 1353.17 153.26 1346.06 Q153.26 1338.93 151.431 1335.39 Q149.626 1331.82 145.992 1331.82 M145.992 1328.12 Q151.802 1328.12 154.857 1332.73 Q157.936 1337.31 157.936 1346.06 Q157.936 1354.79 154.857 1359.39 Q151.802 1363.98 145.992 1363.98 Q140.181 1363.98 137.103 1359.39 Q134.047 1354.79 134.047 1346.06 Q134.047 1337.31 137.103 1332.73 Q140.181 1328.12 145.992 1328.12 Z" fill="#000000" fill-rule="nonzero" fill-opacity="1" /><path clip-path="url(#clip560)" d="M51.9875 1075.94 L81.6633 1075.94 L81.6633 1079.88 L51.9875 1079.88 L51.9875 1075.94 Z" fill="#000000" fill-rule="nonzero" fill-opacity="1" /><path clip-path="url(#clip560)" d="M101.756 1061.29 Q98.1447 1061.29 96.316 1064.86 Q94.5104 1068.4 94.5104 1075.53 Q94.5104 1082.63 96.316 1086.2 Q98.1447 1089.74 101.756 1089.74 Q105.39 1089.74 107.196 1086.2 Q109.024 1082.63 109.024 1075.53 Q109.024 1068.4 107.196 1064.86 Q105.39 1061.29 101.756 1061.29 M101.756 1057.59 Q107.566 1057.59 110.621 1062.19 Q113.7 1066.78 113.7 1075.53 Q113.7 1084.25 110.621 1088.86 Q107.566 1093.44 101.756 1093.44 Q95.9456 1093.44 92.8669 1088.86 Q89.8114 1084.25 89.8114 1075.53 Q89.8114 1066.78 92.8669 1062.19 Q95.9456 1057.59 101.756 1057.59 Z" fill="#000000" fill-rule="nonzero" fill-opacity="1" /><path clip-path="url(#clip560)" d="M121.918 1086.89 L126.802 1086.89 L126.802 1092.77 L121.918 1092.77 L121.918 1086.89 Z" fill="#000000" fill-rule="nonzero" fill-opacity="1" /><path clip-path="url(#clip560)" d="M137.033 1058.21 L155.39 1058.21 L155.39 1062.15 L141.316 1062.15 L141.316 1070.62 Q142.334 1070.27 143.353 1070.11 Q144.371 1069.93 145.39 1069.93 Q151.177 1069.93 154.556 1073.1 Q157.936 1076.27 157.936 1081.68 Q157.936 1087.26 154.464 1090.36 Q150.992 1093.44 144.672 1093.44 Q142.496 1093.44 140.228 1093.07 Q137.982 1092.7 135.575 1091.96 L135.575 1087.26 Q137.658 1088.4 139.881 1088.95 Q142.103 1089.51 144.58 1089.51 Q148.584 1089.51 150.922 1087.4 Q153.26 1085.3 153.26 1081.68 Q153.26 1078.07 150.922 1075.97 Q148.584 1073.86 144.58 1073.86 Q142.705 1073.86 140.83 1074.28 Q138.978 1074.69 137.033 1075.57 L137.033 1058.21 Z" fill="#000000" fill-rule="nonzero" fill-opacity="1" /><path clip-path="url(#clip560)" d="M100.76 790.759 Q97.1493 790.759 95.3206 794.323 Q93.515 797.865 93.515 804.995 Q93.515 812.101 95.3206 815.666 Q97.1493 819.208 100.76 819.208 Q104.395 819.208 106.2 815.666 Q108.029 812.101 108.029 804.995 Q108.029 797.865 106.2 794.323 Q104.395 790.759 100.76 790.759 M100.76 787.055 Q106.571 787.055 109.626 791.661 Q112.705 796.245 112.705 804.995 Q112.705 813.722 109.626 818.328 Q106.571 822.911 100.76 822.911 Q94.9502 822.911 91.8715 818.328 Q88.816 813.722 88.816 804.995 Q88.816 796.245 91.8715 791.661 Q94.9502 787.055 100.76 787.055 Z" fill="#000000" fill-rule="nonzero" fill-opacity="1" /><path clip-path="url(#clip560)" d="M120.922 816.36 L125.807 816.36 L125.807 822.24 L120.922 822.24 L120.922 816.36 Z" fill="#000000" fill-rule="nonzero" fill-opacity="1" /><path clip-path="url(#clip560)" d="M145.992 790.759 Q142.381 790.759 140.552 794.323 Q138.746 797.865 138.746 804.995 Q138.746 812.101 140.552 815.666 Q142.381 819.208 145.992 819.208 Q149.626 819.208 151.431 815.666 Q153.26 812.101 153.26 804.995 Q153.26 797.865 151.431 794.323 Q149.626 790.759 145.992 790.759 M145.992 787.055 Q151.802 787.055 154.857 791.661 Q157.936 796.245 157.936 804.995 Q157.936 813.722 154.857 818.328 Q151.802 822.911 145.992 822.911 Q140.181 822.911 137.103 818.328 Q134.047 813.722 134.047 804.995 Q134.047 796.245 137.103 791.661 Q140.181 787.055 145.992 787.055 Z" fill="#000000" fill-rule="nonzero" fill-opacity="1" /><path clip-path="url(#clip560)" d="M101.756 520.227 Q98.1447 520.227 96.316 523.791 Q94.5104 527.333 94.5104 534.463 Q94.5104 541.569 96.316 545.134 Q98.1447 548.675 101.756 548.675 Q105.39 548.675 107.196 545.134 Q109.024 541.569 109.024 534.463 Q109.024 527.333 107.196 523.791 Q105.39 520.227 101.756 520.227 M101.756 516.523 Q107.566 516.523 110.621 521.129 Q113.7 525.713 113.7 534.463 Q113.7 543.189 110.621 547.796 Q107.566 552.379 101.756 552.379 Q95.9456 552.379 92.8669 547.796 Q89.8114 543.189 89.8114 534.463 Q89.8114 525.713 92.8669 521.129 Q95.9456 516.523 101.756 516.523 Z" fill="#000000" fill-rule="nonzero" fill-opacity="1" /><path clip-path="url(#clip560)" d="M121.918 545.828 L126.802 545.828 L126.802 551.708 L121.918 551.708 L121.918 545.828 Z" fill="#000000" fill-rule="nonzero" fill-opacity="1" /><path clip-path="url(#clip560)" d="M137.033 517.148 L155.39 517.148 L155.39 521.083 L141.316 521.083 L141.316 529.555 Q142.334 529.208 143.353 529.046 Q144.371 528.861 145.39 528.861 Q151.177 528.861 154.556 532.032 Q157.936 535.203 157.936 540.62 Q157.936 546.199 154.464 549.3 Q150.992 552.379 144.672 552.379 Q142.496 552.379 140.228 552.009 Q137.982 551.638 135.575 550.898 L135.575 546.199 Q137.658 547.333 139.881 547.888 Q142.103 548.444 144.58 548.444 Q148.584 548.444 150.922 546.338 Q153.26 544.231 153.26 540.62 Q153.26 537.009 150.922 534.902 Q148.584 532.796 144.58 532.796 Q142.705 532.796 140.83 533.213 Q138.978 533.629 137.033 534.509 L137.033 517.148 Z" fill="#000000" fill-rule="nonzero" fill-opacity="1" /><path clip-path="url(#clip560)" d="M91.5706 277.241 L99.2095 277.241 L99.2095 250.875 L90.8993 252.542 L90.8993 248.282 L99.1632 246.616 L103.839 246.616 L103.839 277.241 L111.478 277.241 L111.478 281.176 L91.5706 281.176 L91.5706 277.241 Z" fill="#000000" fill-rule="nonzero" fill-opacity="1" /><path clip-path="url(#clip560)" d="M120.922 275.296 L125.807 275.296 L125.807 281.176 L120.922 281.176 L120.922 275.296 Z" fill="#000000" fill-rule="nonzero" fill-opacity="1" /><path clip-path="url(#clip560)" d="M145.992 249.694 Q142.381 249.694 140.552 253.259 Q138.746 256.801 138.746 263.93 Q138.746 271.037 140.552 274.602 Q142.381 278.143 145.992 278.143 Q149.626 278.143 151.431 274.602 Q153.26 271.037 153.26 263.93 Q153.26 256.801 151.431 253.259 Q149.626 249.694 145.992 249.694 M145.992 245.991 Q151.802 245.991 154.857 250.597 Q157.936 255.181 157.936 263.93 Q157.936 272.657 154.857 277.264 Q151.802 281.847 145.992 281.847 Q140.181 281.847 137.103 277.264 Q134.047 272.657 134.047 263.93 Q134.047 255.181 137.103 250.597 Q140.181 245.991 145.992 245.991 Z" fill="#000000" fill-rule="nonzero" fill-opacity="1" /><path clip-path="url(#clip560)" d="M532.942 63.9476 L532.942 47.7034 L519.574 47.7034 L519.574 40.9789 L541.044 40.9789 L541.044 66.9452 Q536.304 70.3075 530.592 72.0494 Q524.881 73.7508 518.399 73.7508 Q504.221 73.7508 496.2 65.4869 Q488.22 57.1826 488.22 42.3968 Q488.22 27.5705 496.2 19.3066 Q504.221 11.0023 518.399 11.0023 Q524.314 11.0023 529.62 12.4606 Q534.967 13.9189 539.464 16.7545 L539.464 25.464 Q534.927 21.6156 529.823 19.6712 Q524.719 17.7268 519.088 17.7268 Q507.988 17.7268 502.398 23.9246 Q496.848 30.1225 496.848 42.3968 Q496.848 54.6305 502.398 60.8284 Q507.988 67.0263 519.088 67.0263 Q523.422 67.0263 526.825 66.2971 Q530.228 65.5274 532.942 63.9476 Z" fill="#000000" fill-rule="nonzero" fill-opacity="1" /><path clip-path="url(#clip560)" d="M576.287 49.7694 Q567.253 49.7694 563.769 51.8354 Q560.286 53.9013 560.286 58.8839 Q560.286 62.8538 562.878 65.2034 Q565.511 67.5124 570.008 67.5124 Q576.206 67.5124 579.932 63.1374 Q583.7 58.7219 583.7 51.4303 L583.7 49.7694 L576.287 49.7694 M591.153 46.6907 L591.153 72.576 L583.7 72.576 L583.7 65.6895 Q581.148 69.8214 577.34 71.8063 Q573.532 73.7508 568.023 73.7508 Q561.055 73.7508 556.923 69.8619 Q552.832 65.9325 552.832 59.3701 Q552.832 51.7138 557.936 47.825 Q563.081 43.9361 573.248 43.9361 L583.7 43.9361 L583.7 43.2069 Q583.7 38.0623 580.297 35.2672 Q576.935 32.4315 570.818 32.4315 Q566.929 32.4315 563.243 33.3632 Q559.556 34.295 556.154 36.1584 L556.154 29.2718 Q560.245 27.692 564.093 26.9223 Q567.942 26.1121 571.588 26.1121 Q581.431 26.1121 586.292 31.2163 Q591.153 36.3204 591.153 46.6907 Z" fill="#000000" fill-rule="nonzero" fill-opacity="1" /><path clip-path="url(#clip560)" d="M613.879 14.324 L613.879 27.2059 L629.232 27.2059 L629.232 32.9987 L613.879 32.9987 L613.879 57.6282 Q613.879 63.1779 615.378 64.7578 Q616.917 66.3376 621.576 66.3376 L629.232 66.3376 L629.232 72.576 L621.576 72.576 Q612.947 72.576 609.666 69.3758 Q606.385 66.1351 606.385 57.6282 L606.385 32.9987 L600.916 32.9987 L600.916 27.2059 L606.385 27.2059 L606.385 14.324 L613.879 14.324 Z" fill="#000000" fill-rule="nonzero" fill-opacity="1" /><path clip-path="url(#clip560)" d="M677.843 48.0275 L677.843 51.6733 L643.572 51.6733 Q644.058 59.3701 648.19 63.421 Q652.363 67.4314 659.776 67.4314 Q664.07 67.4314 668.08 66.3781 Q672.131 65.3249 676.101 63.2184 L676.101 70.267 Q672.09 71.9684 667.878 72.8596 Q663.665 73.7508 659.33 73.7508 Q648.474 73.7508 642.114 67.4314 Q635.794 61.1119 635.794 50.3365 Q635.794 39.1965 641.79 32.6746 Q647.826 26.1121 658.034 26.1121 Q667.189 26.1121 672.496 32.0264 Q677.843 37.9003 677.843 48.0275 M670.389 45.84 Q670.308 39.7232 666.946 36.0774 Q663.624 32.4315 658.115 32.4315 Q651.876 32.4315 648.109 35.9558 Q644.382 39.4801 643.815 45.8805 L670.389 45.84 Z" fill="#000000" fill-rule="nonzero" fill-opacity="1" /><path clip-path="url(#clip560)" d="M719.932 34.0924 L719.932 9.54393 L727.385 9.54393 L727.385 72.576 L719.932 72.576 L719.932 65.7705 Q717.582 69.8214 713.977 71.8063 Q710.412 73.7508 705.389 73.7508 Q697.166 73.7508 691.98 67.1883 Q686.836 60.6258 686.836 49.9314 Q686.836 39.2371 691.98 32.6746 Q697.166 26.1121 705.389 26.1121 Q710.412 26.1121 713.977 28.0971 Q717.582 30.0415 719.932 34.0924 M694.533 49.9314 Q694.533 58.1548 697.895 62.8538 Q701.298 67.5124 707.212 67.5124 Q713.126 67.5124 716.529 62.8538 Q719.932 58.1548 719.932 49.9314 Q719.932 41.7081 716.529 37.0496 Q713.126 32.3505 707.212 32.3505 Q701.298 32.3505 697.895 37.0496 Q694.533 41.7081 694.533 49.9314 Z" fill="#000000" fill-rule="nonzero" fill-opacity="1" /><path clip-path="url(#clip560)" d="M769.434 12.096 L804.19 12.096 L804.19 18.9825 L777.617 18.9825 L777.617 36.8065 L801.598 36.8065 L801.598 43.6931 L777.617 43.6931 L777.617 72.576 L769.434 72.576 L769.434 12.096 Z" fill="#000000" fill-rule="nonzero" fill-opacity="1" /><path clip-path="url(#clip560)" d="M831.453 32.4315 Q825.458 32.4315 821.974 37.1306 Q818.49 41.7891 818.49 49.9314 Q818.49 58.0738 821.933 62.7728 Q825.417 67.4314 831.453 67.4314 Q837.408 67.4314 840.892 62.7323 Q844.375 58.0333 844.375 49.9314 Q844.375 41.8701 840.892 37.1711 Q837.408 32.4315 831.453 32.4315 M831.453 26.1121 Q841.175 26.1121 846.725 32.4315 Q852.275 38.7509 852.275 49.9314 Q852.275 61.0714 846.725 67.4314 Q841.175 73.7508 831.453 73.7508 Q821.69 73.7508 816.141 67.4314 Q810.631 61.0714 810.631 49.9314 Q810.631 38.7509 816.141 32.4315 Q821.69 26.1121 831.453 26.1121 Z" fill="#000000" fill-rule="nonzero" fill-opacity="1" /><path clip-path="url(#clip560)" d="M863.86 54.671 L863.86 27.2059 L871.314 27.2059 L871.314 54.3874 Q871.314 60.8284 873.826 64.0691 Q876.337 67.2693 881.36 67.2693 Q887.396 67.2693 890.88 63.421 Q894.404 59.5726 894.404 52.9291 L894.404 27.2059 L901.858 27.2059 L901.858 72.576 L894.404 72.576 L894.404 65.6084 Q891.69 69.7404 888.085 71.7658 Q884.52 73.7508 879.78 73.7508 Q871.962 73.7508 867.911 68.8897 Q863.86 64.0286 863.86 54.671 M882.616 26.1121 L882.616 26.1121 Z" fill="#000000" fill-rule="nonzero" fill-opacity="1" /><path clip-path="url(#clip560)" d="M943.501 34.1734 Q942.245 33.4443 940.746 33.1202 Q939.288 32.7556 937.506 32.7556 Q931.186 32.7556 927.784 36.8875 Q924.421 40.9789 924.421 48.6757 L924.421 72.576 L916.927 72.576 L916.927 27.2059 L924.421 27.2059 L924.421 34.2544 Q926.771 30.1225 930.538 28.1376 Q934.306 26.1121 939.693 26.1121 Q940.463 26.1121 941.395 26.2337 Q942.326 26.3147 943.461 26.5172 L943.501 34.1734 Z" fill="#000000" fill-rule="nonzero" fill-opacity="1" /><path clip-path="url(#clip560)" d="M951.319 27.2059 L958.773 27.2059 L958.773 72.576 L951.319 72.576 L951.319 27.2059 M951.319 9.54393 L958.773 9.54393 L958.773 18.9825 L951.319 18.9825 L951.319 9.54393 Z" fill="#000000" fill-rule="nonzero" fill-opacity="1" /><path clip-path="url(#clip560)" d="M1013.18 48.0275 L1013.18 51.6733 L978.906 51.6733 Q979.392 59.3701 983.524 63.421 Q987.696 67.4314 995.11 67.4314 Q999.404 67.4314 1003.41 66.3781 Q1007.46 65.3249 1011.43 63.2184 L1011.43 70.267 Q1007.42 71.9684 1003.21 72.8596 Q998.998 73.7508 994.664 73.7508 Q983.808 73.7508 977.448 67.4314 Q971.128 61.1119 971.128 50.3365 Q971.128 39.1965 977.124 32.6746 Q983.159 26.1121 993.368 26.1121 Q1002.52 26.1121 1007.83 32.0264 Q1013.18 37.9003 1013.18 48.0275 M1005.72 45.84 Q1005.64 39.7232 1002.28 36.0774 Q998.958 32.4315 993.449 32.4315 Q987.21 32.4315 983.443 35.9558 Q979.716 39.4801 979.149 45.8805 L1005.72 45.84 Z" fill="#000000" fill-rule="nonzero" fill-opacity="1" /><path clip-path="url(#clip560)" d="M1051.7 34.1734 Q1050.44 33.4443 1048.95 33.1202 Q1047.49 32.7556 1045.71 32.7556 Q1039.39 32.7556 1035.98 36.8875 Q1032.62 40.9789 1032.62 48.6757 L1032.62 72.576 L1025.13 72.576 L1025.13 27.2059 L1032.62 27.2059 L1032.62 34.2544 Q1034.97 30.1225 1038.74 28.1376 Q1042.51 26.1121 1047.89 26.1121 Q1048.66 26.1121 1049.59 26.2337 Q1050.53 26.3147 1051.66 26.5172 L1051.7 34.1734 Z" fill="#000000" fill-rule="nonzero" fill-opacity="1" /><path clip-path="url(#clip560)" d="M1085.28 12.096 L1093.51 12.096 L1093.51 48.8377 Q1093.51 58.5599 1097.03 62.8538 Q1100.55 67.1073 1108.45 67.1073 Q1116.31 67.1073 1119.84 62.8538 Q1123.36 58.5599 1123.36 48.8377 L1123.36 12.096 L1131.58 12.096 L1131.58 49.8504 Q1131.58 61.6791 1125.71 67.7149 Q1119.88 73.7508 1108.45 73.7508 Q1096.99 73.7508 1091.12 67.7149 Q1085.28 61.6791 1085.28 49.8504 L1085.28 12.096 Z" fill="#000000" fill-rule="nonzero" fill-opacity="1" /><path clip-path="url(#clip560)" d="M1184.33 45.1919 L1184.33 72.576 L1176.87 72.576 L1176.87 45.4349 Q1176.87 38.994 1174.36 35.7938 Q1171.85 32.5936 1166.83 32.5936 Q1160.79 32.5936 1157.31 36.4419 Q1153.82 40.2903 1153.82 46.9338 L1153.82 72.576 L1146.33 72.576 L1146.33 27.2059 L1153.82 27.2059 L1153.82 34.2544 Q1156.5 30.163 1160.1 28.1376 Q1163.75 26.1121 1168.49 26.1121 Q1176.31 26.1121 1180.32 30.9732 Q1184.33 35.7938 1184.33 45.1919 Z" fill="#000000" fill-rule="nonzero" fill-opacity="1" /><path clip-path="url(#clip560)" d="M1199.19 27.2059 L1206.65 27.2059 L1206.65 72.576 L1199.19 72.576 L1199.19 27.2059 M1199.19 9.54393 L1206.65 9.54393 L1206.65 18.9825 L1199.19 18.9825 L1199.19 9.54393 Z" fill="#000000" fill-rule="nonzero" fill-opacity="1" /><path clip-path="url(#clip560)" d="M1229.62 14.324 L1229.62 27.2059 L1244.97 27.2059 L1244.97 32.9987 L1229.62 32.9987 L1229.62 57.6282 Q1229.62 63.1779 1231.12 64.7578 Q1232.65 66.3376 1237.31 66.3376 L1244.97 66.3376 L1244.97 72.576 L1237.31 72.576 Q1228.68 72.576 1225.4 69.3758 Q1222.12 66.1351 1222.12 57.6282 L1222.12 32.9987 L1216.65 32.9987 L1216.65 27.2059 L1222.12 27.2059 L1222.12 14.324 L1229.62 14.324 Z" fill="#000000" fill-rule="nonzero" fill-opacity="1" /><path clip-path="url(#clip560)" d="M1299.05 9.62495 Q1293.62 18.942 1290.99 28.0566 Q1288.35 37.1711 1288.35 46.5287 Q1288.35 55.8863 1290.99 65.0818 Q1293.66 74.2369 1299.05 83.5134 L1292.57 83.5134 Q1286.49 73.9938 1283.45 64.7983 Q1280.46 55.6027 1280.46 46.5287 Q1280.46 37.4952 1283.45 28.3401 Q1286.45 19.1851 1292.57 9.62495 L1299.05 9.62495 Z" fill="#000000" fill-rule="nonzero" fill-opacity="1" /><path clip-path="url(#clip560)" d="M1355.07 63.9476 L1355.07 47.7034 L1341.7 47.7034 L1341.7 40.9789 L1363.17 40.9789 L1363.17 66.9452 Q1358.44 70.3075 1352.72 72.0494 Q1347.01 73.7508 1340.53 73.7508 Q1326.35 73.7508 1318.33 65.4869 Q1310.35 57.1826 1310.35 42.3968 Q1310.35 27.5705 1318.33 19.3066 Q1326.35 11.0023 1340.53 11.0023 Q1346.44 11.0023 1351.75 12.4606 Q1357.1 13.9189 1361.59 16.7545 L1361.59 25.464 Q1357.06 21.6156 1351.95 19.6712 Q1346.85 17.7268 1341.22 17.7268 Q1330.12 17.7268 1324.53 23.9246 Q1318.98 30.1225 1318.98 42.3968 Q1318.98 54.6305 1324.53 60.8284 Q1330.12 67.0263 1341.22 67.0263 Q1345.55 67.0263 1348.96 66.2971 Q1352.36 65.5274 1355.07 63.9476 Z" fill="#000000" fill-rule="nonzero" fill-opacity="1" /><path clip-path="url(#clip560)" d="M1378.12 12.096 L1412.88 12.096 L1412.88 18.9825 L1386.31 18.9825 L1386.31 36.8065 L1410.29 36.8065 L1410.29 43.6931 L1386.31 43.6931 L1386.31 72.576 L1378.12 72.576 L1378.12 12.096 Z" fill="#000000" fill-rule="nonzero" fill-opacity="1" /><path clip-path="url(#clip560)" d="M1424.91 12.096 L1433.13 12.096 L1433.13 48.8377 Q1433.13 58.5599 1436.66 62.8538 Q1440.18 67.1073 1448.08 67.1073 Q1455.94 67.1073 1459.46 62.8538 Q1462.99 58.5599 1462.99 48.8377 L1462.99 12.096 L1471.21 12.096 L1471.21 49.8504 Q1471.21 61.6791 1465.34 67.7149 Q1459.51 73.7508 1448.08 73.7508 Q1436.62 73.7508 1430.74 67.7149 Q1424.91 61.6791 1424.91 49.8504 L1424.91 12.096 Z" fill="#000000" fill-rule="nonzero" fill-opacity="1" /><path clip-path="url(#clip560)" d="M1485.07 9.62495 L1491.55 9.62495 Q1497.62 19.1851 1500.62 28.3401 Q1503.66 37.4952 1503.66 46.5287 Q1503.66 55.6027 1500.62 64.7983 Q1497.62 73.9938 1491.55 83.5134 L1485.07 83.5134 Q1490.45 74.2369 1493.09 65.0818 Q1495.76 55.8863 1495.76 46.5287 Q1495.76 37.1711 1493.09 28.0566 Q1490.45 18.942 1485.07 9.62495 Z" fill="#000000" fill-rule="nonzero" fill-opacity="1" /><path clip-path="url(#clip560)" d="M1553.49 18.8205 L1553.49 41.5461 L1563.78 41.5461 Q1569.49 41.5461 1572.61 38.5889 Q1575.73 35.6318 1575.73 30.163 Q1575.73 24.7348 1572.61 21.7777 Q1569.49 18.8205 1563.78 18.8205 L1553.49 18.8205 M1545.3 12.096 L1563.78 12.096 Q1573.94 12.096 1579.13 16.714 Q1584.35 21.2916 1584.35 30.163 Q1584.35 39.1155 1579.13 43.6931 Q1573.94 48.2706 1563.78 48.2706 L1553.49 48.2706 L1553.49 72.576 L1545.3 72.576 L1545.3 12.096 Z" fill="#000000" fill-rule="nonzero" fill-opacity="1" /><path clip-path="url(#clip560)" d="M1630.86 48.0275 L1630.86 51.6733 L1596.59 51.6733 Q1597.07 59.3701 1601.21 63.421 Q1605.38 67.4314 1612.79 67.4314 Q1617.09 67.4314 1621.1 66.3781 Q1625.15 65.3249 1629.12 63.2184 L1629.12 70.267 Q1625.11 71.9684 1620.89 72.8596 Q1616.68 73.7508 1612.35 73.7508 Q1601.49 73.7508 1595.13 67.4314 Q1588.81 61.1119 1588.81 50.3365 Q1588.81 39.1965 1594.81 32.6746 Q1600.84 26.1121 1611.05 26.1121 Q1620.2 26.1121 1625.51 32.0264 Q1630.86 37.9003 1630.86 48.0275 M1623.4 45.84 Q1623.32 39.7232 1619.96 36.0774 Q1616.64 32.4315 1611.13 32.4315 Q1604.89 32.4315 1601.12 35.9558 Q1597.4 39.4801 1596.83 45.8805 L1623.4 45.84 Z" fill="#000000" fill-rule="nonzero" fill-opacity="1" /><path clip-path="url(#clip560)" d="M1669.38 34.1734 Q1668.13 33.4443 1666.63 33.1202 Q1665.17 32.7556 1663.39 32.7556 Q1657.07 32.7556 1653.67 36.8875 Q1650.3 40.9789 1650.3 48.6757 L1650.3 72.576 L1642.81 72.576 L1642.81 27.2059 L1650.3 27.2059 L1650.3 34.2544 Q1652.65 30.1225 1656.42 28.1376 Q1660.19 26.1121 1665.57 26.1121 Q1666.34 26.1121 1667.28 26.2337 Q1668.21 26.3147 1669.34 26.5172 L1669.38 34.1734 Z" fill="#000000" fill-rule="nonzero" fill-opacity="1" /><path clip-path="url(#clip560)" d="M1700.17 9.54393 L1700.17 15.7418 L1693.04 15.7418 Q1689.03 15.7418 1687.45 17.3622 Q1685.91 18.9825 1685.91 23.1955 L1685.91 27.2059 L1698.18 27.2059 L1698.18 32.9987 L1685.91 32.9987 L1685.91 72.576 L1678.42 72.576 L1678.42 32.9987 L1671.29 32.9987 L1671.29 27.2059 L1678.42 27.2059 L1678.42 24.0462 Q1678.42 16.471 1681.94 13.0277 Q1685.46 9.54393 1693.12 9.54393 L1700.17 9.54393 Z" fill="#000000" fill-rule="nonzero" fill-opacity="1" /><path clip-path="url(#clip560)" d="M1723.99 32.4315 Q1717.99 32.4315 1714.51 37.1306 Q1711.03 41.7891 1711.03 49.9314 Q1711.03 58.0738 1714.47 62.7728 Q1717.95 67.4314 1723.99 67.4314 Q1729.94 67.4314 1733.43 62.7323 Q1736.91 58.0333 1736.91 49.9314 Q1736.91 41.8701 1733.43 37.1711 Q1729.94 32.4315 1723.99 32.4315 M1723.99 26.1121 Q1733.71 26.1121 1739.26 32.4315 Q1744.81 38.7509 1744.81 49.9314 Q1744.81 61.0714 1739.26 67.4314 Q1733.71 73.7508 1723.99 73.7508 Q1714.23 73.7508 1708.68 67.4314 Q1703.17 61.0714 1703.17 49.9314 Q1703.17 38.7509 1708.68 32.4315 Q1714.23 26.1121 1723.99 26.1121 Z" fill="#000000" fill-rule="nonzero" fill-opacity="1" /><path clip-path="url(#clip560)" d="M1783.46 34.1734 Q1782.2 33.4443 1780.7 33.1202 Q1779.24 32.7556 1777.46 32.7556 Q1771.14 32.7556 1767.74 36.8875 Q1764.38 40.9789 1764.38 48.6757 L1764.38 72.576 L1756.88 72.576 L1756.88 27.2059 L1764.38 27.2059 L1764.38 34.2544 Q1766.73 30.1225 1770.49 28.1376 Q1774.26 26.1121 1779.65 26.1121 Q1780.42 26.1121 1781.35 26.2337 Q1782.28 26.3147 1783.42 26.5172 L1783.46 34.1734 Z" fill="#000000" fill-rule="nonzero" fill-opacity="1" /><path clip-path="url(#clip560)" d="M1825.14 35.9153 Q1827.93 30.8922 1831.82 28.5022 Q1835.71 26.1121 1840.98 26.1121 Q1848.07 26.1121 1851.92 31.0947 Q1855.76 36.0368 1855.76 45.1919 L1855.76 72.576 L1848.27 72.576 L1848.27 45.4349 Q1848.27 38.913 1845.96 35.7533 Q1843.65 32.5936 1838.91 32.5936 Q1833.12 32.5936 1829.76 36.4419 Q1826.4 40.2903 1826.4 46.9338 L1826.4 72.576 L1818.9 72.576 L1818.9 45.4349 Q1818.9 38.8725 1816.59 35.7533 Q1814.28 32.5936 1809.46 32.5936 Q1803.75 32.5936 1800.39 36.4824 Q1797.03 40.3308 1797.03 46.9338 L1797.03 72.576 L1789.53 72.576 L1789.53 27.2059 L1797.03 27.2059 L1797.03 34.2544 Q1799.58 30.082 1803.14 28.0971 Q1806.71 26.1121 1811.61 26.1121 Q1816.55 26.1121 1820 28.6237 Q1823.48 31.1352 1825.14 35.9153 Z" fill="#000000" fill-rule="nonzero" fill-opacity="1" /><path clip-path="url(#clip560)" d="M1891.25 49.7694 Q1882.22 49.7694 1878.73 51.8354 Q1875.25 53.9013 1875.25 58.8839 Q1875.25 62.8538 1877.84 65.2034 Q1880.48 67.5124 1884.97 67.5124 Q1891.17 67.5124 1894.9 63.1374 Q1898.66 58.7219 1898.66 51.4303 L1898.66 49.7694 L1891.25 49.7694 M1906.12 46.6907 L1906.12 72.576 L1898.66 72.576 L1898.66 65.6895 Q1896.11 69.8214 1892.3 71.8063 Q1888.5 73.7508 1882.99 73.7508 Q1876.02 73.7508 1871.89 69.8619 Q1867.8 65.9325 1867.8 59.3701 Q1867.8 51.7138 1872.9 47.825 Q1878.04 43.9361 1888.21 43.9361 L1898.66 43.9361 L1898.66 43.2069 Q1898.66 38.0623 1895.26 35.2672 Q1891.9 32.4315 1885.78 32.4315 Q1881.89 32.4315 1878.21 33.3632 Q1874.52 34.295 1871.12 36.1584 L1871.12 29.2718 Q1875.21 27.692 1879.06 26.9223 Q1882.91 26.1121 1886.55 26.1121 Q1896.4 26.1121 1901.26 31.2163 Q1906.12 36.3204 1906.12 46.6907 Z" fill="#000000" fill-rule="nonzero" fill-opacity="1" /><path clip-path="url(#clip560)" d="M1959.18 45.1919 L1959.18 72.576 L1951.73 72.576 L1951.73 45.4349 Q1951.73 38.994 1949.22 35.7938 Q1946.71 32.5936 1941.68 32.5936 Q1935.65 32.5936 1932.16 36.4419 Q1928.68 40.2903 1928.68 46.9338 L1928.68 72.576 L1921.19 72.576 L1921.19 27.2059 L1928.68 27.2059 L1928.68 34.2544 Q1931.35 30.163 1934.96 28.1376 Q1938.61 26.1121 1943.35 26.1121 Q1951.16 26.1121 1955.17 30.9732 Q1959.18 35.7938 1959.18 45.1919 Z" fill="#000000" fill-rule="nonzero" fill-opacity="1" /><path clip-path="url(#clip560)" d="M2006.7 28.9478 L2006.7 35.9153 Q2003.54 34.1734 2000.34 33.3227 Q1997.18 32.4315 1993.94 32.4315 Q1986.69 32.4315 1982.68 37.0496 Q1978.67 41.6271 1978.67 49.9314 Q1978.67 58.2358 1982.68 62.8538 Q1986.69 67.4314 1993.94 67.4314 Q1997.18 67.4314 2000.34 66.5807 Q2003.54 65.6895 2006.7 63.9476 L2006.7 70.8341 Q2003.58 72.2924 2000.22 73.0216 Q1996.9 73.7508 1993.13 73.7508 Q1982.88 73.7508 1976.85 67.3098 Q1970.81 60.8689 1970.81 49.9314 Q1970.81 38.832 1976.89 32.472 Q1983 26.1121 1993.62 26.1121 Q1997.06 26.1121 2000.34 26.8413 Q2003.62 27.5299 2006.7 28.9478 Z" fill="#000000" fill-rule="nonzero" fill-opacity="1" /><path clip-path="url(#clip560)" d="M2058.47 48.0275 L2058.47 51.6733 L2024.2 51.6733 Q2024.69 59.3701 2028.82 63.421 Q2032.99 67.4314 2040.4 67.4314 Q2044.7 67.4314 2048.71 66.3781 Q2052.76 65.3249 2056.73 63.2184 L2056.73 70.267 Q2052.72 71.9684 2048.51 72.8596 Q2044.29 73.7508 2039.96 73.7508 Q2029.1 73.7508 2022.74 67.4314 Q2016.42 61.1119 2016.42 50.3365 Q2016.42 39.1965 2022.42 32.6746 Q2028.45 26.1121 2038.66 26.1121 Q2047.82 26.1121 2053.12 32.0264 Q2058.47 37.9003 2058.47 48.0275 M2051.02 45.84 Q2050.94 39.7232 2047.58 36.0774 Q2044.25 32.4315 2038.74 32.4315 Q2032.51 32.4315 2028.74 35.9558 Q2025.01 39.4801 2024.44 45.8805 L2051.02 45.84 Z" fill="#000000" fill-rule="nonzero" fill-opacity="1" /><polyline clip-path="url(#clip562)" style="stroke:#000000; stroke-linecap:round; stroke-linejoin:round; stroke-width:6; stroke-opacity:1; fill:none" points="255.035,804.96 275.607,668.07 296.179,673.541 316.751,767.181 337.322,773.319 357.894,637.762 378.466,502.864 399.038,510.98 419.61,607.906 440.182,617.96 460.754,486.93 481.326,357.156 501.898,370.97 522.47,474.147 543.042,490.979 563.614,367.23 584.186,245.208 604.758,267.216 625.33,378.996 645.902,404.808 666.474,290.377 687.046,177.978 707.617,209.874 728.189,331.768 748.761,367.88 769.333,263.896 789.905,162.047 810.477,204.556 831.049,337.085 851.621,383.811 872.193,290.377 892.765,198.975 913.337,251.785 933.909,394.428 954.481,451.041 975.053,367.23 995.625,285.146 1016.2,346.935 1036.77,498.182 1057.34,562.989 1077.91,486.93 1098.48,412.127 1119.06,480.694 1139.63,638.192 1160.2,708.698 1180.77,637.762 1201.34,567.486 1221.92,639.969 1242.49,800.753 1263.06,603.371 1283.63,534.428 1304.2,465.485 1324.78,538.635 1345.35,699.419 1365.92,771.902 1386.49,972.158 1407.06,901.222 1427.64,971.728 1448.21,1129.23 1468.78,1197.79 1489.35,1122.99 1509.92,1046.93 1530.5,1111.74 1551.07,1262.98 1571.64,1324.77 1592.21,1242.69 1612.78,1158.88 1633.35,1215.49 1653.93,1358.14 1674.5,1410.95 1695.07,1319.54 1715.64,1226.11 1736.21,1272.83 1756.79,1405.36 1777.36,1447.87 1797.93,1346.02 1818.5,1242.04 1839.07,1278.15 1859.65,1400.05 1880.22,1431.94 1900.79,1319.54 1921.36,1205.11 1941.93,1230.92 1962.51,1342.7 1983.08,1364.71 2003.65,1242.69 2024.22,1118.94 2044.79,1135.77 2065.37,1238.95 2085.94,1252.76 2106.51,1122.99 2127.08,991.96 2147.65,1002.01 2168.23,1098.94 2188.8,1107.06 2209.37,972.158 2229.94,836.601 2250.51,842.739 2271.09,936.379 2291.66,941.85 "/>
<polyline clip-path="url(#clip562)" style="stroke:#e26f46; stroke-linecap:round; stroke-linejoin:round; stroke-width:4; stroke-opacity:0.6; fill:none" stroke-dasharray="16, 10" points="255.035,804.96 275.607,804.931 296.179,804.932 316.751,804.952 337.322,804.953 357.894,804.925 378.466,804.897 399.038,804.898 419.61,804.919 440.182,804.921 460.754,804.893 481.326,804.866 501.898,804.869 522.47,804.891 543.042,804.894 563.614,804.868 584.186,804.843 604.758,804.847 625.33,804.871 645.902,804.876 666.474,804.852 687.046,804.828 707.617,804.835 728.189,804.861 748.761,804.868 769.333,804.846 789.905,804.825 810.477,804.834 831.049,804.862 851.621,804.872 872.193,804.852 892.765,804.833 913.337,804.844 933.909,804.874 954.481,804.886 975.053,804.868 995.625,804.851 1016.2,804.864 1036.77,804.896 1057.34,804.909 1077.91,804.893 1098.48,804.878 1119.06,804.892 1139.63,804.925 1160.2,804.94 1180.77,804.925 1201.34,804.91 1221.92,804.925 1242.49,804.959 1263.06,804.918 1283.63,804.903 1304.2,804.889 1324.78,804.904 1345.35,804.938 1365.92,804.953 1386.49,804.935 1407.06,804.946 1427.64,804.935 1448.21,804.911 1468.78,804.901 1489.35,804.912 1509.92,804.924 1530.5,804.914 1551.07,804.891 1571.64,804.882 1592.21,804.894 1612.78,804.907 1633.35,804.898 1653.93,804.877 1674.5,804.869 1695.07,804.883 1715.64,804.897 1736.21,804.89 1756.79,804.87 1777.36,804.863 1797.93,804.879 1818.5,804.894 1839.07,804.889 1859.65,804.871 1880.22,804.866 1900.79,804.883 1921.36,804.9 1941.93,804.896 1962.51,804.879 1983.08,804.876 2003.65,804.894 2024.22,804.913 2044.79,804.91 2065.37,804.895 2085.94,804.893 2106.51,804.912 2127.08,804.932 2147.65,804.93 2168.23,804.916 2188.8,804.915 2209.37,804.935 2229.94,804.955 2250.51,804.954 2271.09,804.94 2291.66,804.939 "/>
<polyline clip-path="url(#clip562)" style="stroke:#ff0000; stroke-linecap:round; stroke-linejoin:round; stroke-width:8; stroke-opacity:0.8; fill:none" points="255.035,804.96 275.607,807.544 296.179,807.441 316.751,805.673 337.322,805.557 357.894,808.116 378.466,810.663 399.038,810.509 419.61,808.68 440.182,808.49 460.754,810.963 481.326,813.413 501.898,813.152 522.47,811.205 543.042,810.887 563.614,813.223 584.186,815.526 604.758,815.111 625.33,813.001 645.902,812.514 666.474,814.674 687.046,816.795 707.617,816.193 728.189,813.892 748.761,813.211 769.333,815.173 789.905,817.096 810.477,816.294 831.049,813.792 851.621,812.91 872.193,814.674 892.765,816.399 913.337,815.402 933.909,812.709 954.481,811.641 975.053,813.223 995.625,814.772 1016.2,813.606 1036.77,810.751 1057.34,809.528 1077.91,810.963 1098.48,812.375 1119.06,811.081 1139.63,808.108 1160.2,806.777 1180.77,808.116 1201.34,809.443 1221.92,808.075 1242.49,805.039 1263.06,808.765 1283.63,810.067 1304.2,811.368 1324.78,809.987 1345.35,806.952 1365.92,805.584 1386.49,739.543 1407.06,767.297 1427.64,739.712 1448.21,678.091 1468.78,651.263 1489.35,680.53 1509.92,710.289 1530.5,684.933 1551.07,625.757 1571.64,601.582 1592.21,633.697 1612.78,666.489 1633.35,644.339 1653.93,588.529 1674.5,567.867 1695.07,603.629 1715.64,640.185 1736.21,621.903 1756.79,570.051 1777.36,553.419 1797.93,593.268 1818.5,633.952 1839.07,619.823 1859.65,572.131 1880.22,559.652 1900.79,603.629 1921.36,648.4 1941.93,638.301 1962.51,594.567 1983.08,585.956 2003.65,633.697 2024.22,682.115 2044.79,675.529 2065.37,635.161 2085.94,629.756 2106.51,680.53 2127.08,731.796 2147.65,727.862 2168.23,689.94 2188.8,686.765 2209.37,739.543 2229.94,792.581 2250.51,790.179 2271.09,753.542 2291.66,751.401 "/>
<path clip-path="url(#clip560)" d="M1350.24 376.265 L2280.8 376.265 L2280.8 168.905 L1350.24 168.905  Z" fill="#ffffff" fill-rule="evenodd" fill-opacity="1"/>
<polyline clip-path="url(#clip560)" style="stroke:#000000; stroke-linecap:round; stroke-linejoin:round; stroke-width:4; stroke-opacity:1; fill:none" points="1350.24,376.265 2280.8,376.265 2280.8,168.905 1350.24,168.905 1350.24,376.265 "/>
<polyline clip-path="url(#clip560)" style="stroke:#000000; stroke-linecap:round; stroke-linejoin:round; stroke-width:6; stroke-opacity:1; fill:none" points="1374.23,220.745 1518.15,220.745 "/>
<path clip-path="url(#clip560)" d="M1564.38 204.599 L1564.38 209.159 Q1561.72 207.886 1559.36 207.261 Q1557 206.636 1554.8 206.636 Q1550.98 206.636 1548.9 208.117 Q1546.84 209.599 1546.84 212.33 Q1546.84 214.622 1548.2 215.803 Q1549.59 216.96 1553.43 217.678 L1556.26 218.256 Q1561.49 219.252 1563.96 221.775 Q1566.46 224.275 1566.46 228.488 Q1566.46 233.511 1563.09 236.103 Q1559.73 238.696 1553.22 238.696 Q1550.77 238.696 1547.99 238.14 Q1545.24 237.585 1542.28 236.497 L1542.28 231.682 Q1545.12 233.279 1547.85 234.089 Q1550.59 234.9 1553.22 234.9 Q1557.23 234.9 1559.4 233.326 Q1561.58 231.752 1561.58 228.835 Q1561.58 226.289 1560.01 224.853 Q1558.46 223.418 1554.89 222.701 L1552.04 222.145 Q1546.81 221.103 1544.47 218.881 Q1542.14 216.659 1542.14 212.701 Q1542.14 208.117 1545.35 205.479 Q1548.59 202.84 1554.27 202.84 Q1556.7 202.84 1559.22 203.279 Q1561.74 203.719 1564.38 204.599 Z" fill="#000000" fill-rule="nonzero" fill-opacity="1" /><path clip-path="url(#clip560)" d="M1577.78 204.738 L1577.78 212.099 L1586.56 212.099 L1586.56 215.409 L1577.78 215.409 L1577.78 229.483 Q1577.78 232.654 1578.64 233.557 Q1579.52 234.46 1582.18 234.46 L1586.56 234.46 L1586.56 238.025 L1582.18 238.025 Q1577.25 238.025 1575.38 236.196 Q1573.5 234.344 1573.5 229.483 L1573.5 215.409 L1570.38 215.409 L1570.38 212.099 L1573.5 212.099 L1573.5 204.738 L1577.78 204.738 Z" fill="#000000" fill-rule="nonzero" fill-opacity="1" /><path clip-path="url(#clip560)" d="M1603.94 224.992 Q1598.78 224.992 1596.79 226.173 Q1594.8 227.353 1594.8 230.201 Q1594.8 232.469 1596.28 233.812 Q1597.78 235.131 1600.35 235.131 Q1603.9 235.131 1606.02 232.631 Q1608.18 230.108 1608.18 225.941 L1608.18 224.992 L1603.94 224.992 M1612.44 223.233 L1612.44 238.025 L1608.18 238.025 L1608.18 234.089 Q1606.72 236.451 1604.54 237.585 Q1602.37 238.696 1599.22 238.696 Q1595.24 238.696 1592.88 236.474 Q1590.54 234.228 1590.54 230.478 Q1590.54 226.103 1593.46 223.881 Q1596.4 221.659 1602.21 221.659 L1608.18 221.659 L1608.18 221.242 Q1608.18 218.303 1606.23 216.705 Q1604.31 215.085 1600.82 215.085 Q1598.59 215.085 1596.49 215.617 Q1594.38 216.15 1592.44 217.215 L1592.44 213.279 Q1594.77 212.377 1596.97 211.937 Q1599.17 211.474 1601.26 211.474 Q1606.88 211.474 1609.66 214.391 Q1612.44 217.307 1612.44 223.233 Z" fill="#000000" fill-rule="nonzero" fill-opacity="1" /><path clip-path="url(#clip560)" d="M1625.42 204.738 L1625.42 212.099 L1634.2 212.099 L1634.2 215.409 L1625.42 215.409 L1625.42 229.483 Q1625.42 232.654 1626.28 233.557 Q1627.16 234.46 1629.82 234.46 L1634.2 234.46 L1634.2 238.025 L1629.82 238.025 Q1624.89 238.025 1623.02 236.196 Q1621.14 234.344 1621.14 229.483 L1621.14 215.409 L1618.02 215.409 L1618.02 212.099 L1621.14 212.099 L1621.14 204.738 L1625.42 204.738 Z" fill="#000000" fill-rule="nonzero" fill-opacity="1" /><path clip-path="url(#clip560)" d="M1661.97 223.997 L1661.97 226.08 L1642.39 226.08 Q1642.67 230.478 1645.03 232.793 Q1647.41 235.085 1651.65 235.085 Q1654.1 235.085 1656.39 234.483 Q1658.71 233.881 1660.98 232.677 L1660.98 236.705 Q1658.69 237.677 1656.28 238.187 Q1653.87 238.696 1651.39 238.696 Q1645.19 238.696 1641.56 235.085 Q1637.95 231.474 1637.95 225.316 Q1637.95 218.951 1641.37 215.224 Q1644.82 211.474 1650.65 211.474 Q1655.89 211.474 1658.92 214.853 Q1661.97 218.21 1661.97 223.997 M1657.71 222.747 Q1657.67 219.252 1655.75 217.168 Q1653.85 215.085 1650.7 215.085 Q1647.14 215.085 1644.98 217.099 Q1642.85 219.113 1642.53 222.77 L1657.71 222.747 Z" fill="#000000" fill-rule="nonzero" fill-opacity="1" /><path clip-path="url(#clip560)" d="M1694.27 202.053 Q1691.16 207.377 1689.66 212.585 Q1688.15 217.793 1688.15 223.14 Q1688.15 228.488 1689.66 233.742 Q1691.19 238.974 1694.27 244.275 L1690.56 244.275 Q1687.09 238.835 1685.35 233.58 Q1683.64 228.326 1683.64 223.14 Q1683.64 217.978 1685.35 212.747 Q1687.07 207.516 1690.56 202.053 L1694.27 202.053 Z" fill="#000000" fill-rule="nonzero" fill-opacity="1" /><path clip-path="url(#clip560)" d="M1728.59 206.127 L1728.59 211.057 Q1726.23 208.858 1723.55 207.77 Q1720.89 206.682 1717.88 206.682 Q1711.95 206.682 1708.8 210.316 Q1705.65 213.928 1705.65 220.779 Q1705.65 227.608 1708.8 231.242 Q1711.95 234.853 1717.88 234.853 Q1720.89 234.853 1723.55 233.765 Q1726.23 232.677 1728.59 230.478 L1728.59 235.363 Q1726.14 237.029 1723.39 237.863 Q1720.65 238.696 1717.6 238.696 Q1709.75 238.696 1705.24 233.904 Q1700.72 229.09 1700.72 220.779 Q1700.72 212.446 1705.24 207.654 Q1709.75 202.84 1717.6 202.84 Q1720.7 202.84 1723.43 203.673 Q1726.19 204.483 1728.59 206.127 Z" fill="#000000" fill-rule="nonzero" fill-opacity="1" /><path clip-path="url(#clip560)" d="M1745.68 215.085 Q1742.25 215.085 1740.26 217.77 Q1738.27 220.432 1738.27 225.085 Q1738.27 229.738 1740.24 232.423 Q1742.23 235.085 1745.68 235.085 Q1749.08 235.085 1751.07 232.4 Q1753.06 229.715 1753.06 225.085 Q1753.06 220.478 1751.07 217.793 Q1749.08 215.085 1745.68 215.085 M1745.68 211.474 Q1751.23 211.474 1754.4 215.085 Q1757.57 218.696 1757.57 225.085 Q1757.57 231.451 1754.4 235.085 Q1751.23 238.696 1745.68 238.696 Q1740.1 238.696 1736.93 235.085 Q1733.78 231.451 1733.78 225.085 Q1733.78 218.696 1736.93 215.085 Q1740.1 211.474 1745.68 211.474 Z" fill="#000000" fill-rule="nonzero" fill-opacity="1" /><path clip-path="url(#clip560)" d="M1784.82 217.076 Q1786.42 214.205 1788.64 212.84 Q1790.86 211.474 1793.87 211.474 Q1797.92 211.474 1800.12 214.321 Q1802.32 217.145 1802.32 222.377 L1802.32 238.025 L1798.04 238.025 L1798.04 222.515 Q1798.04 218.789 1796.72 216.983 Q1795.4 215.178 1792.69 215.178 Q1789.38 215.178 1787.46 217.377 Q1785.54 219.576 1785.54 223.372 L1785.54 238.025 L1781.26 238.025 L1781.26 222.515 Q1781.26 218.765 1779.94 216.983 Q1778.62 215.178 1775.86 215.178 Q1772.6 215.178 1770.68 217.4 Q1768.76 219.599 1768.76 223.372 L1768.76 238.025 L1764.47 238.025 L1764.47 212.099 L1768.76 212.099 L1768.76 216.127 Q1770.21 213.742 1772.25 212.608 Q1774.29 211.474 1777.09 211.474 Q1779.91 211.474 1781.88 212.909 Q1783.87 214.344 1784.82 217.076 Z" fill="#000000" fill-rule="nonzero" fill-opacity="1" /><path clip-path="url(#clip560)" d="M1814.94 234.136 L1814.94 247.886 L1810.65 247.886 L1810.65 212.099 L1814.94 212.099 L1814.94 216.034 Q1816.28 213.719 1818.32 212.608 Q1820.38 211.474 1823.22 211.474 Q1827.94 211.474 1830.88 215.224 Q1833.85 218.974 1833.85 225.085 Q1833.85 231.196 1830.88 234.946 Q1827.94 238.696 1823.22 238.696 Q1820.38 238.696 1818.32 237.585 Q1816.28 236.451 1814.94 234.136 M1829.43 225.085 Q1829.43 220.386 1827.48 217.724 Q1825.56 215.039 1822.18 215.039 Q1818.8 215.039 1816.86 217.724 Q1814.94 220.386 1814.94 225.085 Q1814.94 229.784 1816.86 232.469 Q1818.8 235.131 1822.18 235.131 Q1825.56 235.131 1827.48 232.469 Q1829.43 229.784 1829.43 225.085 Z" fill="#000000" fill-rule="nonzero" fill-opacity="1" /><path clip-path="url(#clip560)" d="M1840.91 202.006 L1845.17 202.006 L1845.17 238.025 L1840.91 238.025 L1840.91 202.006 Z" fill="#000000" fill-rule="nonzero" fill-opacity="1" /><path clip-path="url(#clip560)" d="M1876.25 223.997 L1876.25 226.08 L1856.67 226.08 Q1856.95 230.478 1859.31 232.793 Q1861.69 235.085 1865.93 235.085 Q1868.38 235.085 1870.68 234.483 Q1872.99 233.881 1875.26 232.677 L1875.26 236.705 Q1872.97 237.677 1870.56 238.187 Q1868.15 238.696 1865.68 238.696 Q1859.47 238.696 1855.84 235.085 Q1852.23 231.474 1852.23 225.316 Q1852.23 218.951 1855.65 215.224 Q1859.1 211.474 1864.94 211.474 Q1870.17 211.474 1873.2 214.853 Q1876.25 218.21 1876.25 223.997 M1872 222.747 Q1871.95 219.252 1870.03 217.168 Q1868.13 215.085 1864.98 215.085 Q1861.42 215.085 1859.26 217.099 Q1857.13 219.113 1856.81 222.77 L1872 222.747 Z" fill="#000000" fill-rule="nonzero" fill-opacity="1" /><path clip-path="url(#clip560)" d="M1903.96 212.099 L1894.59 224.715 L1904.45 238.025 L1899.43 238.025 L1891.88 227.84 L1884.33 238.025 L1879.31 238.025 L1889.38 224.46 L1880.17 212.099 L1885.19 212.099 L1892.06 221.335 L1898.94 212.099 L1903.96 212.099 Z" fill="#000000" fill-rule="nonzero" fill-opacity="1" /><path clip-path="url(#clip560)" d="M1909.8 202.053 L1913.5 202.053 Q1916.97 207.516 1918.69 212.747 Q1920.42 217.978 1920.42 223.14 Q1920.42 228.326 1918.69 233.58 Q1916.97 238.835 1913.5 244.275 L1909.8 244.275 Q1912.88 238.974 1914.38 233.742 Q1915.91 228.488 1915.91 223.14 Q1915.91 217.793 1914.38 212.585 Q1912.88 207.377 1909.8 202.053 Z" fill="#000000" fill-rule="nonzero" fill-opacity="1" /><polyline clip-path="url(#clip560)" style="stroke:#e26f46; stroke-linecap:round; stroke-linejoin:round; stroke-width:4; stroke-opacity:0.6; fill:none" stroke-dasharray="16, 10" points="1374.23,272.585 1518.15,272.585 "/>
<path clip-path="url(#clip560)" d="M1564.38 256.439 L1564.38 260.999 Q1561.72 259.726 1559.36 259.101 Q1557 258.476 1554.8 258.476 Q1550.98 258.476 1548.9 259.957 Q1546.84 261.439 1546.84 264.17 Q1546.84 266.462 1548.2 267.643 Q1549.59 268.8 1553.43 269.518 L1556.26 270.096 Q1561.49 271.092 1563.96 273.615 Q1566.46 276.115 1566.46 280.328 Q1566.46 285.351 1563.09 287.943 Q1559.73 290.536 1553.22 290.536 Q1550.77 290.536 1547.99 289.98 Q1545.24 289.425 1542.28 288.337 L1542.28 283.522 Q1545.12 285.119 1547.85 285.929 Q1550.59 286.74 1553.22 286.74 Q1557.23 286.74 1559.4 285.166 Q1561.58 283.592 1561.58 280.675 Q1561.58 278.129 1560.01 276.693 Q1558.46 275.258 1554.89 274.541 L1552.04 273.985 Q1546.81 272.943 1544.47 270.721 Q1542.14 268.499 1542.14 264.541 Q1542.14 259.957 1545.35 257.319 Q1548.59 254.68 1554.27 254.68 Q1556.7 254.68 1559.22 255.119 Q1561.74 255.559 1564.38 256.439 Z" fill="#000000" fill-rule="nonzero" fill-opacity="1" /><path clip-path="url(#clip560)" d="M1577.78 256.578 L1577.78 263.939 L1586.56 263.939 L1586.56 267.249 L1577.78 267.249 L1577.78 281.323 Q1577.78 284.494 1578.64 285.397 Q1579.52 286.3 1582.18 286.3 L1586.56 286.3 L1586.56 289.865 L1582.18 289.865 Q1577.25 289.865 1575.38 288.036 Q1573.5 286.184 1573.5 281.323 L1573.5 267.249 L1570.38 267.249 L1570.38 263.939 L1573.5 263.939 L1573.5 256.578 L1577.78 256.578 Z" fill="#000000" fill-rule="nonzero" fill-opacity="1" /><path clip-path="url(#clip560)" d="M1603.94 276.832 Q1598.78 276.832 1596.79 278.013 Q1594.8 279.193 1594.8 282.041 Q1594.8 284.309 1596.28 285.652 Q1597.78 286.971 1600.35 286.971 Q1603.9 286.971 1606.02 284.471 Q1608.18 281.948 1608.18 277.781 L1608.18 276.832 L1603.94 276.832 M1612.44 275.073 L1612.44 289.865 L1608.18 289.865 L1608.18 285.929 Q1606.72 288.291 1604.54 289.425 Q1602.37 290.536 1599.22 290.536 Q1595.24 290.536 1592.88 288.314 Q1590.54 286.068 1590.54 282.318 Q1590.54 277.943 1593.46 275.721 Q1596.4 273.499 1602.21 273.499 L1608.18 273.499 L1608.18 273.082 Q1608.18 270.143 1606.23 268.545 Q1604.31 266.925 1600.82 266.925 Q1598.59 266.925 1596.49 267.457 Q1594.38 267.99 1592.44 269.055 L1592.44 265.119 Q1594.77 264.217 1596.97 263.777 Q1599.17 263.314 1601.26 263.314 Q1606.88 263.314 1609.66 266.231 Q1612.44 269.147 1612.44 275.073 Z" fill="#000000" fill-rule="nonzero" fill-opacity="1" /><path clip-path="url(#clip560)" d="M1642.76 274.217 L1642.76 289.865 L1638.5 289.865 L1638.5 274.355 Q1638.5 270.675 1637.07 268.846 Q1635.63 267.018 1632.76 267.018 Q1629.31 267.018 1627.32 269.217 Q1625.33 271.416 1625.33 275.212 L1625.33 289.865 L1621.05 289.865 L1621.05 263.939 L1625.33 263.939 L1625.33 267.967 Q1626.86 265.629 1628.92 264.471 Q1631 263.314 1633.71 263.314 Q1638.18 263.314 1640.47 266.092 Q1642.76 268.846 1642.76 274.217 Z" fill="#000000" fill-rule="nonzero" fill-opacity="1" /><path clip-path="url(#clip560)" d="M1668.32 267.874 L1668.32 253.846 L1672.58 253.846 L1672.58 289.865 L1668.32 289.865 L1668.32 285.976 Q1666.97 288.291 1664.91 289.425 Q1662.88 290.536 1660.01 290.536 Q1655.31 290.536 1652.34 286.786 Q1649.4 283.036 1649.4 276.925 Q1649.4 270.814 1652.34 267.064 Q1655.31 263.314 1660.01 263.314 Q1662.88 263.314 1664.91 264.448 Q1666.97 265.559 1668.32 267.874 M1653.8 276.925 Q1653.8 281.624 1655.72 284.309 Q1657.67 286.971 1661.05 286.971 Q1664.43 286.971 1666.37 284.309 Q1668.32 281.624 1668.32 276.925 Q1668.32 272.226 1666.37 269.564 Q1664.43 266.879 1661.05 266.879 Q1657.67 266.879 1655.72 269.564 Q1653.8 272.226 1653.8 276.925 Z" fill="#000000" fill-rule="nonzero" fill-opacity="1" /><path clip-path="url(#clip560)" d="M1693.13 276.832 Q1687.97 276.832 1685.98 278.013 Q1683.99 279.193 1683.99 282.041 Q1683.99 284.309 1685.47 285.652 Q1686.97 286.971 1689.54 286.971 Q1693.08 286.971 1695.21 284.471 Q1697.37 281.948 1697.37 277.781 L1697.37 276.832 L1693.13 276.832 M1701.63 275.073 L1701.63 289.865 L1697.37 289.865 L1697.37 285.929 Q1695.91 288.291 1693.73 289.425 Q1691.56 290.536 1688.41 290.536 Q1684.43 290.536 1682.07 288.314 Q1679.73 286.068 1679.73 282.318 Q1679.73 277.943 1682.64 275.721 Q1685.58 273.499 1691.39 273.499 L1697.37 273.499 L1697.37 273.082 Q1697.37 270.143 1695.42 268.545 Q1693.5 266.925 1690.01 266.925 Q1687.78 266.925 1685.68 267.457 Q1683.57 267.99 1681.63 269.055 L1681.63 265.119 Q1683.96 264.217 1686.16 263.777 Q1688.36 263.314 1690.45 263.314 Q1696.07 263.314 1698.85 266.231 Q1701.63 269.147 1701.63 275.073 Z" fill="#000000" fill-rule="nonzero" fill-opacity="1" /><path clip-path="url(#clip560)" d="M1725.42 267.92 Q1724.7 267.504 1723.85 267.318 Q1723.01 267.11 1722 267.11 Q1718.39 267.11 1716.44 269.471 Q1714.52 271.809 1714.52 276.207 L1714.52 289.865 L1710.24 289.865 L1710.24 263.939 L1714.52 263.939 L1714.52 267.967 Q1715.86 265.606 1718.01 264.471 Q1720.17 263.314 1723.25 263.314 Q1723.69 263.314 1724.22 263.383 Q1724.75 263.43 1725.4 263.545 L1725.42 267.92 Z" fill="#000000" fill-rule="nonzero" fill-opacity="1" /><path clip-path="url(#clip560)" d="M1746.12 267.874 L1746.12 253.846 L1750.38 253.846 L1750.38 289.865 L1746.12 289.865 L1746.12 285.976 Q1744.77 288.291 1742.71 289.425 Q1740.68 290.536 1737.81 290.536 Q1733.11 290.536 1730.14 286.786 Q1727.2 283.036 1727.2 276.925 Q1727.2 270.814 1730.14 267.064 Q1733.11 263.314 1737.81 263.314 Q1740.68 263.314 1742.71 264.448 Q1744.77 265.559 1746.12 267.874 M1731.6 276.925 Q1731.6 281.624 1733.52 284.309 Q1735.47 286.971 1738.85 286.971 Q1742.23 286.971 1744.17 284.309 Q1746.12 281.624 1746.12 276.925 Q1746.12 272.226 1744.17 269.564 Q1742.23 266.879 1738.85 266.879 Q1735.47 266.879 1733.52 269.564 Q1731.6 272.226 1731.6 276.925 Z" fill="#000000" fill-rule="nonzero" fill-opacity="1" /><path clip-path="url(#clip560)" d="M1774.4 255.305 L1794.26 255.305 L1794.26 259.24 L1779.08 259.24 L1779.08 269.425 L1792.78 269.425 L1792.78 273.36 L1779.08 273.36 L1779.08 289.865 L1774.4 289.865 L1774.4 255.305 Z" fill="#000000" fill-rule="nonzero" fill-opacity="1" /><path clip-path="url(#clip560)" d="M1801.67 255.305 L1807.97 255.305 L1823.29 284.217 L1823.29 255.305 L1827.83 255.305 L1827.83 289.865 L1821.53 289.865 L1806.21 260.953 L1806.21 289.865 L1801.67 289.865 L1801.67 255.305 Z" fill="#000000" fill-rule="nonzero" fill-opacity="1" /><path clip-path="url(#clip560)" d="M1851.16 258.476 Q1846.07 258.476 1843.06 262.272 Q1840.07 266.068 1840.07 272.619 Q1840.07 279.147 1843.06 282.943 Q1846.07 286.74 1851.16 286.74 Q1856.25 286.74 1859.22 282.943 Q1862.2 279.147 1862.2 272.619 Q1862.2 266.068 1859.22 262.272 Q1856.25 258.476 1851.16 258.476 M1851.16 254.68 Q1858.43 254.68 1862.78 259.564 Q1867.13 264.425 1867.13 272.619 Q1867.13 280.791 1862.78 285.675 Q1858.43 290.536 1851.16 290.536 Q1843.87 290.536 1839.5 285.675 Q1835.14 280.814 1835.14 272.619 Q1835.14 264.425 1839.5 259.564 Q1843.87 254.68 1851.16 254.68 Z" fill="#000000" fill-rule="nonzero" fill-opacity="1" /><path clip-path="url(#clip560)" d="M1899.56 253.893 Q1896.46 259.217 1894.96 264.425 Q1893.45 269.633 1893.45 274.98 Q1893.45 280.328 1894.96 285.582 Q1896.49 290.814 1899.56 296.115 L1895.86 296.115 Q1892.39 290.675 1890.65 285.42 Q1888.94 280.166 1888.94 274.98 Q1888.94 269.818 1890.65 264.587 Q1892.37 259.356 1895.86 253.893 L1899.56 253.893 Z" fill="#000000" fill-rule="nonzero" fill-opacity="1" /><path clip-path="url(#clip560)" d="M1908.01 255.305 L1912.69 255.305 L1912.69 285.929 L1929.52 285.929 L1929.52 289.865 L1908.01 289.865 L1908.01 255.305 Z" fill="#000000" fill-rule="nonzero" fill-opacity="1" /><path clip-path="url(#clip560)" d="M1943.45 266.925 Q1940.03 266.925 1938.04 269.61 Q1936.05 272.272 1936.05 276.925 Q1936.05 281.578 1938.01 284.263 Q1940 286.925 1943.45 286.925 Q1946.86 286.925 1948.85 284.24 Q1950.84 281.555 1950.84 276.925 Q1950.84 272.318 1948.85 269.633 Q1946.86 266.925 1943.45 266.925 M1943.45 263.314 Q1949.01 263.314 1952.18 266.925 Q1955.35 270.536 1955.35 276.925 Q1955.35 283.291 1952.18 286.925 Q1949.01 290.536 1943.45 290.536 Q1937.87 290.536 1934.7 286.925 Q1931.56 283.291 1931.56 276.925 Q1931.56 270.536 1934.7 266.925 Q1937.87 263.314 1943.45 263.314 Z" fill="#000000" fill-rule="nonzero" fill-opacity="1" /><path clip-path="url(#clip560)" d="M1959.93 263.939 L1964.19 263.939 L1969.52 284.17 L1974.82 263.939 L1979.84 263.939 L1985.17 284.17 L1990.47 263.939 L1994.73 263.939 L1987.94 289.865 L1982.92 289.865 L1977.34 268.615 L1971.74 289.865 L1966.72 289.865 L1959.93 263.939 Z" fill="#000000" fill-rule="nonzero" fill-opacity="1" /><path clip-path="url(#clip560)" d="M1999.03 274.98 L2011.51 274.98 L2011.51 278.777 L1999.03 278.777 L1999.03 274.98 Z" fill="#000000" fill-rule="nonzero" fill-opacity="1" /><path clip-path="url(#clip560)" d="M2023.15 259.147 L2023.15 272.133 L2029.03 272.133 Q2032.3 272.133 2034.08 270.443 Q2035.86 268.754 2035.86 265.629 Q2035.86 262.527 2034.08 260.837 Q2032.3 259.147 2029.03 259.147 L2023.15 259.147 M2018.48 255.305 L2029.03 255.305 Q2034.84 255.305 2037.8 257.944 Q2040.79 260.559 2040.79 265.629 Q2040.79 270.744 2037.8 273.36 Q2034.84 275.976 2029.03 275.976 L2023.15 275.976 L2023.15 289.865 L2018.48 289.865 L2018.48 255.305 Z" fill="#000000" fill-rule="nonzero" fill-opacity="1" /><path clip-path="url(#clip560)" d="M2056.53 276.832 Q2051.37 276.832 2049.38 278.013 Q2047.39 279.193 2047.39 282.041 Q2047.39 284.309 2048.87 285.652 Q2050.37 286.971 2052.94 286.971 Q2056.49 286.971 2058.61 284.471 Q2060.77 281.948 2060.77 277.781 L2060.77 276.832 L2056.53 276.832 M2065.03 275.073 L2065.03 289.865 L2060.77 289.865 L2060.77 285.929 Q2059.31 288.291 2057.13 289.425 Q2054.96 290.536 2051.81 290.536 Q2047.83 290.536 2045.47 288.314 Q2043.13 286.068 2043.13 282.318 Q2043.13 277.943 2046.05 275.721 Q2048.99 273.499 2054.8 273.499 L2060.77 273.499 L2060.77 273.082 Q2060.77 270.143 2058.82 268.545 Q2056.9 266.925 2053.41 266.925 Q2051.18 266.925 2049.08 267.457 Q2046.97 267.99 2045.03 269.055 L2045.03 265.119 Q2047.37 264.217 2049.56 263.777 Q2051.76 263.314 2053.85 263.314 Q2059.47 263.314 2062.25 266.231 Q2065.03 269.147 2065.03 275.073 Z" fill="#000000" fill-rule="nonzero" fill-opacity="1" /><path clip-path="url(#clip560)" d="M2090.33 264.703 L2090.33 268.731 Q2088.52 267.805 2086.58 267.342 Q2084.63 266.879 2082.55 266.879 Q2079.38 266.879 2077.78 267.851 Q2076.21 268.823 2076.21 270.768 Q2076.21 272.249 2077.34 273.105 Q2078.48 273.939 2081.9 274.703 L2083.36 275.027 Q2087.9 275.999 2089.8 277.781 Q2091.72 279.541 2091.72 282.712 Q2091.72 286.323 2088.85 288.429 Q2086 290.536 2081 290.536 Q2078.92 290.536 2076.65 290.119 Q2074.4 289.726 2071.9 288.916 L2071.9 284.517 Q2074.26 285.744 2076.55 286.369 Q2078.85 286.971 2081.09 286.971 Q2084.1 286.971 2085.72 285.953 Q2087.34 284.911 2087.34 283.036 Q2087.34 281.3 2086.16 280.374 Q2085 279.448 2081.05 278.592 L2079.56 278.244 Q2075.61 277.411 2073.85 275.698 Q2072.09 273.962 2072.09 270.953 Q2072.09 267.295 2074.68 265.305 Q2077.27 263.314 2082.04 263.314 Q2084.4 263.314 2086.49 263.661 Q2088.57 264.008 2090.33 264.703 Z" fill="#000000" fill-rule="nonzero" fill-opacity="1" /><path clip-path="url(#clip560)" d="M2115.03 264.703 L2115.03 268.731 Q2113.22 267.805 2111.28 267.342 Q2109.33 266.879 2107.25 266.879 Q2104.08 266.879 2102.48 267.851 Q2100.91 268.823 2100.91 270.768 Q2100.91 272.249 2102.04 273.105 Q2103.17 273.939 2106.6 274.703 L2108.06 275.027 Q2112.6 275.999 2114.49 277.781 Q2116.42 279.541 2116.42 282.712 Q2116.42 286.323 2113.55 288.429 Q2110.7 290.536 2105.7 290.536 Q2103.61 290.536 2101.35 290.119 Q2099.1 289.726 2096.6 288.916 L2096.6 284.517 Q2098.96 285.744 2101.25 286.369 Q2103.55 286.971 2105.79 286.971 Q2108.8 286.971 2110.42 285.953 Q2112.04 284.911 2112.04 283.036 Q2112.04 281.3 2110.86 280.374 Q2109.7 279.448 2105.74 278.592 L2104.26 278.244 Q2100.3 277.411 2098.55 275.698 Q2096.79 273.962 2096.79 270.953 Q2096.79 267.295 2099.38 265.305 Q2101.97 263.314 2106.74 263.314 Q2109.1 263.314 2111.18 263.661 Q2113.27 264.008 2115.03 264.703 Z" fill="#000000" fill-rule="nonzero" fill-opacity="1" /><path clip-path="url(#clip560)" d="M2152.48 258.476 Q2147.39 258.476 2144.38 262.272 Q2141.39 266.068 2141.39 272.619 Q2141.39 279.147 2144.38 282.943 Q2147.39 286.74 2152.48 286.74 Q2157.57 286.74 2160.54 282.943 Q2163.52 279.147 2163.52 272.619 Q2163.52 266.068 2160.54 262.272 Q2157.57 258.476 2152.48 258.476 M2152.48 254.68 Q2159.75 254.68 2164.1 259.564 Q2168.45 264.425 2168.45 272.619 Q2168.45 280.791 2164.1 285.675 Q2159.75 290.536 2152.48 290.536 Q2145.19 290.536 2140.81 285.675 Q2136.46 280.814 2136.46 272.619 Q2136.46 264.425 2140.81 259.564 Q2145.19 254.68 2152.48 254.68 Z" fill="#000000" fill-rule="nonzero" fill-opacity="1" /><path clip-path="url(#clip560)" d="M2197.13 274.217 L2197.13 289.865 L2192.87 289.865 L2192.87 274.355 Q2192.87 270.675 2191.44 268.846 Q2190 267.018 2187.13 267.018 Q2183.68 267.018 2181.69 269.217 Q2179.7 271.416 2179.7 275.212 L2179.7 289.865 L2175.42 289.865 L2175.42 263.939 L2179.7 263.939 L2179.7 267.967 Q2181.23 265.629 2183.29 264.471 Q2185.37 263.314 2188.08 263.314 Q2192.55 263.314 2194.84 266.092 Q2197.13 268.846 2197.13 274.217 Z" fill="#000000" fill-rule="nonzero" fill-opacity="1" /><path clip-path="url(#clip560)" d="M2205.63 253.846 L2209.89 253.846 L2209.89 289.865 L2205.63 289.865 L2205.63 253.846 Z" fill="#000000" fill-rule="nonzero" fill-opacity="1" /><path clip-path="url(#clip560)" d="M2229.59 292.272 Q2227.78 296.902 2226.07 298.314 Q2224.35 299.726 2221.48 299.726 L2218.08 299.726 L2218.08 296.161 L2220.58 296.161 Q2222.34 296.161 2223.31 295.328 Q2224.29 294.494 2225.47 291.392 L2226.23 289.448 L2215.74 263.939 L2220.26 263.939 L2228.36 284.217 L2236.46 263.939 L2240.98 263.939 L2229.59 292.272 Z" fill="#000000" fill-rule="nonzero" fill-opacity="1" /><path clip-path="url(#clip560)" d="M2246.18 253.893 L2249.89 253.893 Q2253.36 259.356 2255.07 264.587 Q2256.81 269.818 2256.81 274.98 Q2256.81 280.166 2255.07 285.42 Q2253.36 290.675 2249.89 296.115 L2246.18 296.115 Q2249.26 290.814 2250.77 285.582 Q2252.29 280.328 2252.29 274.98 Q2252.29 269.633 2250.77 264.425 Q2249.26 259.217 2246.18 253.893 Z" fill="#000000" fill-rule="nonzero" fill-opacity="1" /><polyline clip-path="url(#clip560)" style="stroke:#ff0000; stroke-linecap:round; stroke-linejoin:round; stroke-width:8; stroke-opacity:0.8; fill:none" points="1374.23,324.425 1518.15,324.425 "/>
<path clip-path="url(#clip560)" d="M1567.69 336.774 L1567.69 327.492 L1560.05 327.492 L1560.05 323.649 L1572.32 323.649 L1572.32 338.487 Q1569.61 340.408 1566.35 341.404 Q1563.09 342.376 1559.38 342.376 Q1551.28 342.376 1546.7 337.654 Q1542.14 332.908 1542.14 324.459 Q1542.14 315.987 1546.7 311.265 Q1551.28 306.52 1559.38 306.52 Q1562.76 306.52 1565.79 307.353 Q1568.85 308.186 1571.42 309.807 L1571.42 314.783 Q1568.83 312.584 1565.91 311.473 Q1562.99 310.362 1559.78 310.362 Q1553.43 310.362 1550.24 313.904 Q1547.07 317.446 1547.07 324.459 Q1547.07 331.45 1550.24 334.992 Q1553.43 338.533 1559.78 338.533 Q1562.25 338.533 1564.2 338.117 Q1566.14 337.677 1567.69 336.774 Z" fill="#000000" fill-rule="nonzero" fill-opacity="1" /><path clip-path="url(#clip560)" d="M1592.46 328.672 Q1587.3 328.672 1585.31 329.853 Q1583.32 331.033 1583.32 333.881 Q1583.32 336.149 1584.8 337.492 Q1586.3 338.811 1588.87 338.811 Q1592.41 338.811 1594.54 336.311 Q1596.7 333.788 1596.7 329.621 L1596.7 328.672 L1592.46 328.672 M1600.96 326.913 L1600.96 341.705 L1596.7 341.705 L1596.7 337.769 Q1595.24 340.131 1593.06 341.265 Q1590.89 342.376 1587.74 342.376 Q1583.76 342.376 1581.4 340.154 Q1579.06 337.908 1579.06 334.158 Q1579.06 329.783 1581.97 327.561 Q1584.91 325.339 1590.72 325.339 L1596.7 325.339 L1596.7 324.922 Q1596.7 321.983 1594.75 320.385 Q1592.83 318.765 1589.34 318.765 Q1587.11 318.765 1585.01 319.297 Q1582.9 319.83 1580.96 320.895 L1580.96 316.959 Q1583.29 316.057 1585.49 315.617 Q1587.69 315.154 1589.77 315.154 Q1595.4 315.154 1598.18 318.071 Q1600.96 320.987 1600.96 326.913 Z" fill="#000000" fill-rule="nonzero" fill-opacity="1" /><path clip-path="url(#clip560)" d="M1613.94 308.418 L1613.94 315.779 L1622.71 315.779 L1622.71 319.089 L1613.94 319.089 L1613.94 333.163 Q1613.94 336.334 1614.8 337.237 Q1615.68 338.14 1618.34 338.14 L1622.71 338.14 L1622.71 341.705 L1618.34 341.705 Q1613.41 341.705 1611.53 339.876 Q1609.66 338.024 1609.66 333.163 L1609.66 319.089 L1606.53 319.089 L1606.53 315.779 L1609.66 315.779 L1609.66 308.418 L1613.94 308.418 Z" fill="#000000" fill-rule="nonzero" fill-opacity="1" /><path clip-path="url(#clip560)" d="M1650.49 327.677 L1650.49 329.76 L1630.91 329.76 Q1631.19 334.158 1633.55 336.473 Q1635.93 338.765 1640.17 338.765 Q1642.62 338.765 1644.91 338.163 Q1647.23 337.561 1649.5 336.357 L1649.5 340.385 Q1647.21 341.357 1644.8 341.867 Q1642.39 342.376 1639.91 342.376 Q1633.71 342.376 1630.08 338.765 Q1626.46 335.154 1626.46 328.996 Q1626.46 322.631 1629.89 318.904 Q1633.34 315.154 1639.17 315.154 Q1644.4 315.154 1647.44 318.533 Q1650.49 321.89 1650.49 327.677 M1646.23 326.427 Q1646.19 322.932 1644.27 320.848 Q1642.37 318.765 1639.22 318.765 Q1635.65 318.765 1633.5 320.779 Q1631.37 322.793 1631.05 326.45 L1646.23 326.427 Z" fill="#000000" fill-rule="nonzero" fill-opacity="1" /><path clip-path="url(#clip560)" d="M1674.54 319.714 L1674.54 305.686 L1678.8 305.686 L1678.8 341.705 L1674.54 341.705 L1674.54 337.816 Q1673.2 340.131 1671.14 341.265 Q1669.1 342.376 1666.23 342.376 Q1661.53 342.376 1658.57 338.626 Q1655.63 334.876 1655.63 328.765 Q1655.63 322.654 1658.57 318.904 Q1661.53 315.154 1666.23 315.154 Q1669.1 315.154 1671.14 316.288 Q1673.2 317.399 1674.54 319.714 M1660.03 328.765 Q1660.03 333.464 1661.95 336.149 Q1663.89 338.811 1667.27 338.811 Q1670.65 338.811 1672.6 336.149 Q1674.54 333.464 1674.54 328.765 Q1674.54 324.066 1672.6 321.404 Q1670.65 318.719 1667.27 318.719 Q1663.89 318.719 1661.95 321.404 Q1660.03 324.066 1660.03 328.765 Z" fill="#000000" fill-rule="nonzero" fill-opacity="1" /><path clip-path="url(#clip560)" d="M1702.83 307.145 L1722.69 307.145 L1722.69 311.08 L1707.51 311.08 L1707.51 321.265 L1721.21 321.265 L1721.21 325.2 L1707.51 325.2 L1707.51 341.705 L1702.83 341.705 L1702.83 307.145 Z" fill="#000000" fill-rule="nonzero" fill-opacity="1" /><path clip-path="url(#clip560)" d="M1730.1 307.145 L1736.39 307.145 L1751.72 336.057 L1751.72 307.145 L1756.26 307.145 L1756.26 341.705 L1749.96 341.705 L1734.64 312.793 L1734.64 341.705 L1730.1 341.705 L1730.1 307.145 Z" fill="#000000" fill-rule="nonzero" fill-opacity="1" /><path clip-path="url(#clip560)" d="M1779.59 310.316 Q1774.5 310.316 1771.49 314.112 Q1768.5 317.908 1768.5 324.459 Q1768.5 330.987 1771.49 334.783 Q1774.5 338.58 1779.59 338.58 Q1784.68 338.58 1787.64 334.783 Q1790.63 330.987 1790.63 324.459 Q1790.63 317.908 1787.64 314.112 Q1784.68 310.316 1779.59 310.316 M1779.59 306.52 Q1786.86 306.52 1791.21 311.404 Q1795.56 316.265 1795.56 324.459 Q1795.56 332.631 1791.21 337.515 Q1786.86 342.376 1779.59 342.376 Q1772.3 342.376 1767.92 337.515 Q1763.57 332.654 1763.57 324.459 Q1763.57 316.265 1767.92 311.404 Q1772.3 306.52 1779.59 306.52 Z" fill="#000000" fill-rule="nonzero" fill-opacity="1" /><path clip-path="url(#clip560)" d="M1820.03 311.983 L1820.03 324.876 L1832.92 324.876 L1832.92 328.811 L1820.03 328.811 L1820.03 341.705 L1816.14 341.705 L1816.14 328.811 L1803.25 328.811 L1803.25 324.876 L1816.14 324.876 L1816.14 311.983 L1820.03 311.983 Z" fill="#000000" fill-rule="nonzero" fill-opacity="1" /><path clip-path="url(#clip560)" d="M1867.71 305.733 Q1864.61 311.057 1863.11 316.265 Q1861.6 321.473 1861.6 326.82 Q1861.6 332.168 1863.11 337.422 Q1864.63 342.654 1867.71 347.955 L1864.01 347.955 Q1860.54 342.515 1858.8 337.26 Q1857.09 332.006 1857.09 326.82 Q1857.09 321.658 1858.8 316.427 Q1860.51 311.196 1864.01 305.733 L1867.71 305.733 Z" fill="#000000" fill-rule="nonzero" fill-opacity="1" /><path clip-path="url(#clip560)" d="M1899.73 336.774 L1899.73 327.492 L1892.09 327.492 L1892.09 323.649 L1904.36 323.649 L1904.36 338.487 Q1901.65 340.408 1898.38 341.404 Q1895.12 342.376 1891.42 342.376 Q1883.31 342.376 1878.73 337.654 Q1874.17 332.908 1874.17 324.459 Q1874.17 315.987 1878.73 311.265 Q1883.31 306.52 1891.42 306.52 Q1894.8 306.52 1897.83 307.353 Q1900.88 308.186 1903.45 309.807 L1903.45 314.783 Q1900.86 312.584 1897.94 311.473 Q1895.03 310.362 1891.81 310.362 Q1885.47 310.362 1882.27 313.904 Q1879.1 317.446 1879.1 324.459 Q1879.1 331.45 1882.27 334.992 Q1885.47 338.533 1891.81 338.533 Q1894.29 338.533 1896.23 338.117 Q1898.18 337.677 1899.73 336.774 Z" fill="#000000" fill-rule="nonzero" fill-opacity="1" /><path clip-path="url(#clip560)" d="M1912.71 305.686 L1916.97 305.686 L1916.97 341.705 L1912.71 341.705 L1912.71 305.686 Z" fill="#000000" fill-rule="nonzero" fill-opacity="1" /><path clip-path="url(#clip560)" d="M1935.93 318.765 Q1932.5 318.765 1930.51 321.45 Q1928.52 324.112 1928.52 328.765 Q1928.52 333.418 1930.49 336.103 Q1932.48 338.765 1935.93 338.765 Q1939.33 338.765 1941.32 336.08 Q1943.31 333.395 1943.31 328.765 Q1943.31 324.158 1941.32 321.473 Q1939.33 318.765 1935.93 318.765 M1935.93 315.154 Q1941.49 315.154 1944.66 318.765 Q1947.83 322.376 1947.83 328.765 Q1947.83 335.131 1944.66 338.765 Q1941.49 342.376 1935.93 342.376 Q1930.35 342.376 1927.18 338.765 Q1924.03 335.131 1924.03 328.765 Q1924.03 322.376 1927.18 318.765 Q1930.35 315.154 1935.93 315.154 Z" fill="#000000" fill-rule="nonzero" fill-opacity="1" /><path clip-path="url(#clip560)" d="M1973.5 328.765 Q1973.5 324.066 1971.56 321.404 Q1969.63 318.719 1966.25 318.719 Q1962.87 318.719 1960.93 321.404 Q1959.01 324.066 1959.01 328.765 Q1959.01 333.464 1960.93 336.149 Q1962.87 338.811 1966.25 338.811 Q1969.63 338.811 1971.56 336.149 Q1973.5 333.464 1973.5 328.765 M1959.01 319.714 Q1960.35 317.399 1962.39 316.288 Q1964.45 315.154 1967.3 315.154 Q1972.02 315.154 1974.96 318.904 Q1977.92 322.654 1977.92 328.765 Q1977.92 334.876 1974.96 338.626 Q1972.02 342.376 1967.3 342.376 Q1964.45 342.376 1962.39 341.265 Q1960.35 340.131 1959.01 337.816 L1959.01 341.705 L1954.73 341.705 L1954.73 305.686 L1959.01 305.686 L1959.01 319.714 Z" fill="#000000" fill-rule="nonzero" fill-opacity="1" /><path clip-path="url(#clip560)" d="M1996.76 328.672 Q1991.6 328.672 1989.61 329.853 Q1987.62 331.033 1987.62 333.881 Q1987.62 336.149 1989.1 337.492 Q1990.61 338.811 1993.18 338.811 Q1996.72 338.811 1998.85 336.311 Q2001 333.788 2001 329.621 L2001 328.672 L1996.76 328.672 M2005.26 326.913 L2005.26 341.705 L2001 341.705 L2001 337.769 Q1999.54 340.131 1997.37 341.265 Q1995.19 342.376 1992.04 342.376 Q1988.06 342.376 1985.7 340.154 Q1983.36 337.908 1983.36 334.158 Q1983.36 329.783 1986.28 327.561 Q1989.22 325.339 1995.03 325.339 L2001 325.339 L2001 324.922 Q2001 321.983 1999.06 320.385 Q1997.13 318.765 1993.64 318.765 Q1991.42 318.765 1989.31 319.297 Q1987.2 319.83 1985.26 320.895 L1985.26 316.959 Q1987.6 316.057 1989.8 315.617 Q1991.99 315.154 1994.08 315.154 Q1999.7 315.154 2002.48 318.071 Q2005.26 320.987 2005.26 326.913 Z" fill="#000000" fill-rule="nonzero" fill-opacity="1" /><path clip-path="url(#clip560)" d="M2014.03 305.686 L2018.29 305.686 L2018.29 341.705 L2014.03 341.705 L2014.03 305.686 Z" fill="#000000" fill-rule="nonzero" fill-opacity="1" /><path clip-path="url(#clip560)" d="M2059.61 311.983 L2059.61 324.876 L2072.5 324.876 L2072.5 328.811 L2059.61 328.811 L2059.61 341.705 L2055.72 341.705 L2055.72 328.811 L2042.83 328.811 L2042.83 324.876 L2055.72 324.876 L2055.72 311.983 L2059.61 311.983 Z" fill="#000000" fill-rule="nonzero" fill-opacity="1" /><path clip-path="url(#clip560)" d="M2097.25 307.145 L2101.92 307.145 L2101.92 337.769 L2118.75 337.769 L2118.75 341.705 L2097.25 341.705 L2097.25 307.145 Z" fill="#000000" fill-rule="nonzero" fill-opacity="1" /><path clip-path="url(#clip560)" d="M2132.69 318.765 Q2129.26 318.765 2127.27 321.45 Q2125.28 324.112 2125.28 328.765 Q2125.28 333.418 2127.25 336.103 Q2129.24 338.765 2132.69 338.765 Q2136.09 338.765 2138.08 336.08 Q2140.07 333.395 2140.07 328.765 Q2140.07 324.158 2138.08 321.473 Q2136.09 318.765 2132.69 318.765 M2132.69 315.154 Q2138.24 315.154 2141.42 318.765 Q2144.59 322.376 2144.59 328.765 Q2144.59 335.131 2141.42 338.765 Q2138.24 342.376 2132.69 342.376 Q2127.11 342.376 2123.94 338.765 Q2120.79 335.131 2120.79 328.765 Q2120.79 322.376 2123.94 318.765 Q2127.11 315.154 2132.69 315.154 Z" fill="#000000" fill-rule="nonzero" fill-opacity="1" /><path clip-path="url(#clip560)" d="M2170.3 316.774 L2170.3 320.756 Q2168.5 319.76 2166.67 319.274 Q2164.86 318.765 2163.01 318.765 Q2158.87 318.765 2156.58 321.404 Q2154.29 324.02 2154.29 328.765 Q2154.29 333.51 2156.58 336.149 Q2158.87 338.765 2163.01 338.765 Q2164.86 338.765 2166.67 338.279 Q2168.5 337.769 2170.3 336.774 L2170.3 340.709 Q2168.52 341.543 2166.6 341.959 Q2164.7 342.376 2162.55 342.376 Q2156.69 342.376 2153.24 338.695 Q2149.8 335.015 2149.8 328.765 Q2149.8 322.422 2153.27 318.788 Q2156.76 315.154 2162.83 315.154 Q2164.79 315.154 2166.67 315.571 Q2168.54 315.964 2170.3 316.774 Z" fill="#000000" fill-rule="nonzero" fill-opacity="1" /><path clip-path="url(#clip560)" d="M2189.49 328.672 Q2184.33 328.672 2182.34 329.853 Q2180.35 331.033 2180.35 333.881 Q2180.35 336.149 2181.83 337.492 Q2183.34 338.811 2185.91 338.811 Q2189.45 338.811 2191.58 336.311 Q2193.73 333.788 2193.73 329.621 L2193.73 328.672 L2189.49 328.672 M2197.99 326.913 L2197.99 341.705 L2193.73 341.705 L2193.73 337.769 Q2192.27 340.131 2190.1 341.265 Q2187.92 342.376 2184.77 342.376 Q2180.79 342.376 2178.43 340.154 Q2176.09 337.908 2176.09 334.158 Q2176.09 329.783 2179.01 327.561 Q2181.95 325.339 2187.76 325.339 L2193.73 325.339 L2193.73 324.922 Q2193.73 321.983 2191.79 320.385 Q2189.86 318.765 2186.37 318.765 Q2184.15 318.765 2182.04 319.297 Q2179.93 319.83 2177.99 320.895 L2177.99 316.959 Q2180.33 316.057 2182.53 315.617 Q2184.73 315.154 2186.81 315.154 Q2192.43 315.154 2195.21 318.071 Q2197.99 320.987 2197.99 326.913 Z" fill="#000000" fill-rule="nonzero" fill-opacity="1" /><path clip-path="url(#clip560)" d="M2206.76 305.686 L2211.02 305.686 L2211.02 341.705 L2206.76 341.705 L2206.76 305.686 Z" fill="#000000" fill-rule="nonzero" fill-opacity="1" /><path clip-path="url(#clip560)" d="M2219.26 305.733 L2222.97 305.733 Q2226.44 311.196 2228.15 316.427 Q2229.89 321.658 2229.89 326.82 Q2229.89 332.006 2228.15 337.26 Q2226.44 342.515 2222.97 347.955 L2219.26 347.955 Q2222.34 342.654 2223.85 337.422 Q2225.37 332.168 2225.37 326.82 Q2225.37 321.473 2223.85 316.265 Q2222.34 311.057 2219.26 305.733 Z" fill="#000000" fill-rule="nonzero" fill-opacity="1" /></svg>
