<?xml version="1.0" encoding="utf-8"?>
<svg xmlns="http://www.w3.org/2000/svg" xmlns:xlink="http://www.w3.org/1999/xlink" width="600" height="400" viewBox="0 0 2400 1600">
<defs>
  <clipPath id="clip200">
    <rect x="0" y="0" width="2400" height="1600"/>
  </clipPath>
</defs>
<path clip-path="url(#clip200)" d="M0 1600 L2400 1600 L2400 8.88178e-14 L0 8.88178e-14  Z" fill="#ffffff" fill-rule="evenodd" fill-opacity="1"/>
<defs>
  <clipPath id="clip201">
    <rect x="480" y="0" width="1681" height="1600"/>
  </clipPath>
</defs>
<path clip-path="url(#clip200)" d="M242.135 1423.18 L2352.76 1423.18 L2352.76 123.472 L242.135 123.472  Z" fill="#ffffff" fill-rule="evenodd" fill-opacity="1"/>
<defs>
  <clipPath id="clip202">
    <rect x="242" y="123" width="2112" height="1301"/>
  </clipPath>
</defs>
<polyline clip-path="url(#clip202)" style="stroke:#000000; stroke-linecap:round; stroke-linejoin:round; stroke-width:2; stroke-opacity:0.1; fill:none" points="281.757,1423.18 281.757,123.472 "/>
<polyline clip-path="url(#clip202)" style="stroke:#000000; stroke-linecap:round; stroke-linejoin:round; stroke-width:2; stroke-opacity:0.1; fill:none" points="784.573,1423.18 784.573,123.472 "/>
<polyline clip-path="url(#clip202)" style="stroke:#000000; stroke-linecap:round; stroke-linejoin:round; stroke-width:2; stroke-opacity:0.1; fill:none" points="1287.39,1423.18 1287.39,123.472 "/>
<polyline clip-path="url(#clip202)" style="stroke:#000000; stroke-linecap:round; stroke-linejoin:round; stroke-width:2; stroke-opacity:0.1; fill:none" points="1790.21,1423.18 1790.21,123.472 "/>
<polyline clip-path="url(#clip202)" style="stroke:#000000; stroke-linecap:round; stroke-linejoin:round; stroke-width:2; stroke-opacity:0.1; fill:none" points="2293.02,1423.18 2293.02,123.472 "/>
<polyline clip-path="url(#clip202)" style="stroke:#000000; stroke-linecap:round; stroke-linejoin:round; stroke-width:2; stroke-opacity:0.1; fill:none" points="242.135,1307.09 2352.76,1307.09 "/>
<polyline clip-path="url(#clip202)" style="stroke:#000000; stroke-linecap:round; stroke-linejoin:round; stroke-width:2; stroke-opacity:0.1; fill:none" points="242.135,1040.21 2352.76,1040.21 "/>
<polyline clip-path="url(#clip202)" style="stroke:#000000; stroke-linecap:round; stroke-linejoin:round; stroke-width:2; stroke-opacity:0.1; fill:none" points="242.135,773.326 2352.76,773.326 "/>
<polyline clip-path="url(#clip202)" style="stroke:#000000; stroke-linecap:round; stroke-linejoin:round; stroke-width:2; stroke-opacity:0.1; fill:none" points="242.135,506.445 2352.76,506.445 "/>
<polyline clip-path="url(#clip202)" style="stroke:#000000; stroke-linecap:round; stroke-linejoin:round; stroke-width:2; stroke-opacity:0.1; fill:none" points="242.135,239.563 2352.76,239.563 "/>
<polyline clip-path="url(#clip200)" style="stroke:#000000; stroke-linecap:round; stroke-linejoin:round; stroke-width:4; stroke-opacity:1; fill:none" points="242.135,1423.18 2352.76,1423.18 "/>
<polyline clip-path="url(#clip200)" style="stroke:#000000; stroke-linecap:round; stroke-linejoin:round; stroke-width:4; stroke-opacity:1; fill:none" points="281.757,1423.18 281.757,1404.28 "/>
<polyline clip-path="url(#clip200)" style="stroke:#000000; stroke-linecap:round; stroke-linejoin:round; stroke-width:4; stroke-opacity:1; fill:none" points="784.573,1423.18 784.573,1404.28 "/>
<polyline clip-path="url(#clip200)" style="stroke:#000000; stroke-linecap:round; stroke-linejoin:round; stroke-width:4; stroke-opacity:1; fill:none" points="1287.39,1423.18 1287.39,1404.28 "/>
<polyline clip-path="url(#clip200)" style="stroke:#000000; stroke-linecap:round; stroke-linejoin:round; stroke-width:4; stroke-opacity:1; fill:none" points="1790.21,1423.18 1790.21,1404.28 "/>
<polyline clip-path="url(#clip200)" style="stroke:#000000; stroke-linecap:round; stroke-linejoin:round; stroke-width:4; stroke-opacity:1; fill:none" points="2293.02,1423.18 2293.02,1404.28 "/>
<path clip-path="url(#clip200)" d="M281.757 1454.1 Q278.145 1454.1 276.317 1457.66 Q274.511 1461.2 274.511 1468.33 Q274.511 1475.44 276.317 1479.01 Q278.145 1482.55 281.757 1482.55 Q285.391 1482.55 287.196 1479.01 Q289.025 1475.44 289.025 1468.33 Q289.025 1461.2 287.196 1457.66 Q285.391 1454.1 281.757 1454.1 M281.757 1450.39 Q287.567 1450.39 290.622 1455 Q293.701 1459.58 293.701 1468.33 Q293.701 1477.06 290.622 1481.67 Q287.567 1486.25 281.757 1486.25 Q275.946 1486.25 272.868 1481.67 Q269.812 1477.06 269.812 1468.33 Q269.812 1459.58 272.868 1455 Q275.946 1450.39 281.757 1450.39 Z" fill="#000000" fill-rule="nonzero" fill-opacity="1" /><path clip-path="url(#clip200)" d="M763.844 1481.64 L780.163 1481.64 L780.163 1485.58 L758.219 1485.58 L758.219 1481.64 Q760.881 1478.89 765.464 1474.26 Q770.071 1469.61 771.251 1468.27 Q773.496 1465.74 774.376 1464.01 Q775.279 1462.25 775.279 1460.56 Q775.279 1457.8 773.334 1456.07 Q771.413 1454.33 768.311 1454.33 Q766.112 1454.33 763.659 1455.09 Q761.228 1455.86 758.45 1457.41 L758.45 1452.69 Q761.274 1451.55 763.728 1450.97 Q766.182 1450.39 768.219 1450.39 Q773.589 1450.39 776.783 1453.08 Q779.978 1455.77 779.978 1460.26 Q779.978 1462.39 779.168 1464.31 Q778.381 1466.2 776.274 1468.8 Q775.696 1469.47 772.594 1472.69 Q769.492 1475.88 763.844 1481.64 Z" fill="#000000" fill-rule="nonzero" fill-opacity="1" /><path clip-path="url(#clip200)" d="M790.024 1451.02 L808.381 1451.02 L808.381 1454.96 L794.307 1454.96 L794.307 1463.43 Q795.325 1463.08 796.344 1462.92 Q797.362 1462.73 798.381 1462.73 Q804.168 1462.73 807.547 1465.9 Q810.927 1469.08 810.927 1474.49 Q810.927 1480.07 807.455 1483.17 Q803.982 1486.25 797.663 1486.25 Q795.487 1486.25 793.219 1485.88 Q790.973 1485.51 788.566 1484.77 L788.566 1480.07 Q790.649 1481.2 792.871 1481.76 Q795.094 1482.32 797.57 1482.32 Q801.575 1482.32 803.913 1480.21 Q806.251 1478.1 806.251 1474.49 Q806.251 1470.88 803.913 1468.77 Q801.575 1466.67 797.57 1466.67 Q795.695 1466.67 793.82 1467.08 Q791.969 1467.5 790.024 1468.38 L790.024 1451.02 Z" fill="#000000" fill-rule="nonzero" fill-opacity="1" /><path clip-path="url(#clip200)" d="M1262.09 1451.02 L1280.44 1451.02 L1280.44 1454.96 L1266.37 1454.96 L1266.37 1463.43 Q1267.39 1463.08 1268.41 1462.92 Q1269.43 1462.73 1270.44 1462.73 Q1276.23 1462.73 1279.61 1465.9 Q1282.99 1469.08 1282.99 1474.49 Q1282.99 1480.07 1279.52 1483.17 Q1276.05 1486.25 1269.73 1486.25 Q1267.55 1486.25 1265.28 1485.88 Q1263.04 1485.51 1260.63 1484.77 L1260.63 1480.07 Q1262.71 1481.2 1264.94 1481.76 Q1267.16 1482.32 1269.63 1482.32 Q1273.64 1482.32 1275.98 1480.21 Q1278.31 1478.1 1278.31 1474.49 Q1278.31 1470.88 1275.98 1468.77 Q1273.64 1466.67 1269.63 1466.67 Q1267.76 1466.67 1265.88 1467.08 Q1264.03 1467.5 1262.09 1468.38 L1262.09 1451.02 Z" fill="#000000" fill-rule="nonzero" fill-opacity="1" /><path clip-path="url(#clip200)" d="M1302.2 1454.1 Q1298.59 1454.1 1296.76 1457.66 Q1294.96 1461.2 1294.96 1468.33 Q1294.96 1475.44 1296.76 1479.01 Q1298.59 1482.55 1302.2 1482.55 Q1305.84 1482.55 1307.64 1479.01 Q1309.47 1475.44 1309.47 1468.33 Q1309.47 1461.2 1307.64 1457.66 Q1305.84 1454.1 1302.2 1454.1 M1302.2 1450.39 Q1308.01 1450.39 1311.07 1455 Q1314.15 1459.58 1314.15 1468.33 Q1314.15 1477.06 1311.07 1481.67 Q1308.01 1486.25 1302.2 1486.25 Q1296.39 1486.25 1293.31 1481.67 Q1290.26 1477.06 1290.26 1468.33 Q1290.26 1459.58 1293.31 1455 Q1296.39 1450.39 1302.2 1450.39 Z" fill="#000000" fill-rule="nonzero" fill-opacity="1" /><path clip-path="url(#clip200)" d="M1764.06 1451.02 L1786.28 1451.02 L1786.28 1453.01 L1773.74 1485.58 L1768.85 1485.58 L1780.66 1454.96 L1764.06 1454.96 L1764.06 1451.02 Z" fill="#000000" fill-rule="nonzero" fill-opacity="1" /><path clip-path="url(#clip200)" d="M1795.45 1451.02 L1813.8 1451.02 L1813.8 1454.96 L1799.73 1454.96 L1799.73 1463.43 Q1800.75 1463.08 1801.77 1462.92 Q1802.79 1462.73 1803.8 1462.73 Q1809.59 1462.73 1812.97 1465.9 Q1816.35 1469.08 1816.35 1474.49 Q1816.35 1480.07 1812.88 1483.17 Q1809.41 1486.25 1803.09 1486.25 Q1800.91 1486.25 1798.64 1485.88 Q1796.4 1485.51 1793.99 1484.77 L1793.99 1480.07 Q1796.07 1481.2 1798.3 1481.76 Q1800.52 1482.32 1802.99 1482.32 Q1807 1482.32 1809.34 1480.21 Q1811.67 1478.1 1811.67 1474.49 Q1811.67 1470.88 1809.34 1468.77 Q1807 1466.67 1802.99 1466.67 Q1801.12 1466.67 1799.24 1467.08 Q1797.39 1467.5 1795.45 1468.38 L1795.45 1451.02 Z" fill="#000000" fill-rule="nonzero" fill-opacity="1" /><path clip-path="url(#clip200)" d="M2252.63 1481.64 L2260.27 1481.64 L2260.27 1455.28 L2251.96 1456.95 L2251.96 1452.69 L2260.22 1451.02 L2264.9 1451.02 L2264.9 1481.64 L2272.54 1481.64 L2272.54 1485.58 L2252.63 1485.58 L2252.63 1481.64 Z" fill="#000000" fill-rule="nonzero" fill-opacity="1" /><path clip-path="url(#clip200)" d="M2291.98 1454.1 Q2288.37 1454.1 2286.54 1457.66 Q2284.73 1461.2 2284.73 1468.33 Q2284.73 1475.44 2286.54 1479.01 Q2288.37 1482.55 2291.98 1482.55 Q2295.61 1482.55 2297.42 1479.01 Q2299.25 1475.44 2299.25 1468.33 Q2299.25 1461.2 2297.42 1457.66 Q2295.61 1454.1 2291.98 1454.1 M2291.98 1450.39 Q2297.79 1450.39 2300.85 1455 Q2303.92 1459.58 2303.92 1468.33 Q2303.92 1477.06 2300.85 1481.67 Q2297.79 1486.25 2291.98 1486.25 Q2286.17 1486.25 2283.09 1481.67 Q2280.04 1477.06 2280.04 1468.33 Q2280.04 1459.58 2283.09 1455 Q2286.17 1450.39 2291.98 1450.39 Z" fill="#000000" fill-rule="nonzero" fill-opacity="1" /><path clip-path="url(#clip200)" d="M2322.14 1454.1 Q2318.53 1454.1 2316.7 1457.66 Q2314.9 1461.2 2314.9 1468.33 Q2314.9 1475.44 2316.7 1479.01 Q2318.53 1482.55 2322.14 1482.55 Q2325.78 1482.55 2327.58 1479.01 Q2329.41 1475.44 2329.41 1468.33 Q2329.41 1461.2 2327.58 1457.66 Q2325.78 1454.1 2322.14 1454.1 M2322.14 1450.39 Q2327.95 1450.39 2331.01 1455 Q2334.09 1459.58 2334.09 1468.33 Q2334.09 1477.06 2331.01 1481.67 Q2327.95 1486.25 2322.14 1486.25 Q2316.33 1486.25 2313.25 1481.67 Q2310.2 1477.06 2310.2 1468.33 Q2310.2 1459.58 2313.25 1455 Q2316.33 1450.39 2322.14 1450.39 Z" fill="#000000" fill-rule="nonzero" fill-opacity="1" /><path clip-path="url(#clip200)" d="M1203.61 1520.52 L1233.66 1520.52 L1233.66 1525.93 L1210.04 1525.93 L1210.04 1540 L1232.67 1540 L1232.67 1545.41 L1210.04 1545.41 L1210.04 1562.63 L1234.23 1562.63 L1234.23 1568.04 L1203.61 1568.04 L1203.61 1520.52 Z" fill="#000000" fill-rule="nonzero" fill-opacity="1" /><path clip-path="url(#clip200)" d="M1250.21 1562.7 L1250.21 1581.6 L1244.32 1581.6 L1244.32 1532.4 L1250.21 1532.4 L1250.21 1537.81 Q1252.06 1534.62 1254.86 1533.1 Q1257.69 1531.54 1261.61 1531.54 Q1268.1 1531.54 1272.14 1536.69 Q1276.22 1541.85 1276.22 1550.25 Q1276.22 1558.65 1272.14 1563.81 Q1268.1 1568.97 1261.61 1568.97 Q1257.69 1568.97 1254.86 1567.44 Q1252.06 1565.88 1250.21 1562.7 M1270.14 1550.25 Q1270.14 1543.79 1267.46 1540.13 Q1264.82 1536.44 1260.17 1536.44 Q1255.53 1536.44 1252.85 1540.13 Q1250.21 1543.79 1250.21 1550.25 Q1250.21 1556.71 1252.85 1560.4 Q1255.53 1564.07 1260.17 1564.07 Q1264.82 1564.07 1267.46 1560.4 Q1270.14 1556.71 1270.14 1550.25 Z" fill="#000000" fill-rule="nonzero" fill-opacity="1" /><path clip-path="url(#clip200)" d="M1299.74 1536.5 Q1295.03 1536.5 1292.29 1540.19 Q1289.55 1543.85 1289.55 1550.25 Q1289.55 1556.65 1292.26 1560.34 Q1294.99 1564 1299.74 1564 Q1304.42 1564 1307.15 1560.31 Q1309.89 1556.62 1309.89 1550.25 Q1309.89 1543.92 1307.15 1540.23 Q1304.42 1536.5 1299.74 1536.5 M1299.74 1531.54 Q1307.38 1531.54 1311.74 1536.5 Q1316.1 1541.47 1316.1 1550.25 Q1316.1 1559 1311.74 1564 Q1307.38 1568.97 1299.74 1568.97 Q1292.07 1568.97 1287.71 1564 Q1283.38 1559 1283.38 1550.25 Q1283.38 1541.47 1287.71 1536.5 Q1292.07 1531.54 1299.74 1531.54 Z" fill="#000000" fill-rule="nonzero" fill-opacity="1" /><path clip-path="url(#clip200)" d="M1351.46 1533.76 L1351.46 1539.24 Q1348.98 1537.87 1346.46 1537.2 Q1343.98 1536.5 1341.43 1536.5 Q1335.74 1536.5 1332.58 1540.13 Q1329.43 1543.73 1329.43 1550.25 Q1329.43 1556.78 1332.58 1560.4 Q1335.74 1564 1341.43 1564 Q1343.98 1564 1346.46 1563.33 Q1348.98 1562.63 1351.46 1561.26 L1351.46 1566.68 Q1349.01 1567.82 1346.37 1568.39 Q1343.76 1568.97 1340.8 1568.97 Q1332.74 1568.97 1328 1563.91 Q1323.26 1558.85 1323.26 1550.25 Q1323.26 1541.53 1328.03 1536.53 Q1332.84 1531.54 1341.18 1531.54 Q1343.88 1531.54 1346.46 1532.11 Q1349.04 1532.65 1351.46 1533.76 Z" fill="#000000" fill-rule="nonzero" fill-opacity="1" /><path clip-path="url(#clip200)" d="M1391.28 1546.53 L1391.28 1568.04 L1385.42 1568.04 L1385.42 1546.72 Q1385.42 1541.66 1383.45 1539.14 Q1381.47 1536.63 1377.53 1536.63 Q1372.78 1536.63 1370.05 1539.65 Q1367.31 1542.68 1367.31 1547.9 L1367.31 1568.04 L1361.42 1568.04 L1361.42 1518.52 L1367.31 1518.52 L1367.31 1537.93 Q1369.41 1534.72 1372.24 1533.13 Q1375.11 1531.54 1378.83 1531.54 Q1384.97 1531.54 1388.12 1535.36 Q1391.28 1539.14 1391.28 1546.53 Z" fill="#000000" fill-rule="nonzero" fill-opacity="1" /><polyline clip-path="url(#clip200)" style="stroke:#000000; stroke-linecap:round; stroke-linejoin:round; stroke-width:4; stroke-opacity:1; fill:none" points="242.135,1423.18 242.135,123.472 "/>
<polyline clip-path="url(#clip200)" style="stroke:#000000; stroke-linecap:round; stroke-linejoin:round; stroke-width:4; stroke-opacity:1; fill:none" points="242.135,1307.09 261.032,1307.09 "/>
<polyline clip-path="url(#clip200)" style="stroke:#000000; stroke-linecap:round; stroke-linejoin:round; stroke-width:4; stroke-opacity:1; fill:none" points="242.135,1040.21 261.032,1040.21 "/>
<polyline clip-path="url(#clip200)" style="stroke:#000000; stroke-linecap:round; stroke-linejoin:round; stroke-width:4; stroke-opacity:1; fill:none" points="242.135,773.326 261.032,773.326 "/>
<polyline clip-path="url(#clip200)" style="stroke:#000000; stroke-linecap:round; stroke-linejoin:round; stroke-width:4; stroke-opacity:1; fill:none" points="242.135,506.445 261.032,506.445 "/>
<polyline clip-path="url(#clip200)" style="stroke:#000000; stroke-linecap:round; stroke-linejoin:round; stroke-width:4; stroke-opacity:1; fill:none" points="242.135,239.563 261.032,239.563 "/>
<path clip-path="url(#clip200)" d="M114.26 1307.54 L143.936 1307.54 L143.936 1311.48 L114.26 1311.48 L114.26 1307.54 Z" fill="#000000" fill-rule="nonzero" fill-opacity="1" /><path clip-path="url(#clip200)" d="M154.075 1289.81 L172.431 1289.81 L172.431 1293.74 L158.357 1293.74 L158.357 1302.22 Q159.376 1301.87 160.394 1301.71 Q161.413 1301.52 162.431 1301.52 Q168.218 1301.52 171.598 1304.69 Q174.977 1307.86 174.977 1313.28 Q174.977 1318.86 171.505 1321.96 Q168.033 1325.04 161.714 1325.04 Q159.538 1325.04 157.269 1324.67 Q155.024 1324.3 152.616 1323.56 L152.616 1318.86 Q154.7 1319.99 156.922 1320.55 Q159.144 1321.11 161.621 1321.11 Q165.626 1321.11 167.964 1319 Q170.302 1316.89 170.302 1313.28 Q170.302 1309.67 167.964 1307.56 Q165.626 1305.46 161.621 1305.46 Q159.746 1305.46 157.871 1305.87 Q156.019 1306.29 154.075 1307.17 L154.075 1289.81 Z" fill="#000000" fill-rule="nonzero" fill-opacity="1" /><path clip-path="url(#clip200)" d="M194.19 1292.89 Q190.579 1292.89 188.75 1296.45 Q186.945 1299.99 186.945 1307.12 Q186.945 1314.23 188.75 1317.79 Q190.579 1321.34 194.19 1321.34 Q197.825 1321.34 199.63 1317.79 Q201.459 1314.23 201.459 1307.12 Q201.459 1299.99 199.63 1296.45 Q197.825 1292.89 194.19 1292.89 M194.19 1289.18 Q200 1289.18 203.056 1293.79 Q206.135 1298.37 206.135 1307.12 Q206.135 1315.85 203.056 1320.46 Q200 1325.04 194.19 1325.04 Q188.38 1325.04 185.301 1320.46 Q182.246 1315.85 182.246 1307.12 Q182.246 1298.37 185.301 1293.79 Q188.38 1289.18 194.19 1289.18 Z" fill="#000000" fill-rule="nonzero" fill-opacity="1" /><path clip-path="url(#clip200)" d="M115.256 1040.66 L144.931 1040.66 L144.931 1044.59 L115.256 1044.59 L115.256 1040.66 Z" fill="#000000" fill-rule="nonzero" fill-opacity="1" /><path clip-path="url(#clip200)" d="M159.052 1053.55 L175.371 1053.55 L175.371 1057.49 L153.427 1057.49 L153.427 1053.55 Q156.089 1050.8 160.672 1046.17 Q165.278 1041.52 166.459 1040.17 Q168.704 1037.65 169.584 1035.91 Q170.487 1034.15 170.487 1032.46 Q170.487 1029.71 168.542 1027.97 Q166.621 1026.24 163.519 1026.24 Q161.32 1026.24 158.866 1027 Q156.436 1027.77 153.658 1029.32 L153.658 1024.59 Q156.482 1023.46 158.936 1022.88 Q161.39 1022.3 163.427 1022.3 Q168.797 1022.3 171.991 1024.99 Q175.186 1027.67 175.186 1032.16 Q175.186 1034.29 174.376 1036.21 Q173.589 1038.11 171.482 1040.71 Q170.903 1041.38 167.802 1044.59 Q164.7 1047.79 159.052 1053.55 Z" fill="#000000" fill-rule="nonzero" fill-opacity="1" /><path clip-path="url(#clip200)" d="M185.232 1022.93 L203.588 1022.93 L203.588 1026.86 L189.514 1026.86 L189.514 1035.33 Q190.533 1034.99 191.551 1034.83 Q192.57 1034.64 193.588 1034.64 Q199.375 1034.64 202.755 1037.81 Q206.135 1040.98 206.135 1046.4 Q206.135 1051.98 202.662 1055.08 Q199.19 1058.16 192.871 1058.16 Q190.695 1058.16 188.426 1057.79 Q186.181 1057.42 183.774 1056.68 L183.774 1051.98 Q185.857 1053.11 188.079 1053.67 Q190.301 1054.22 192.778 1054.22 Q196.783 1054.22 199.121 1052.12 Q201.459 1050.01 201.459 1046.4 Q201.459 1042.79 199.121 1040.68 Q196.783 1038.58 192.778 1038.58 Q190.903 1038.58 189.028 1038.99 Q187.176 1039.41 185.232 1040.29 L185.232 1022.93 Z" fill="#000000" fill-rule="nonzero" fill-opacity="1" /><path clip-path="url(#clip200)" d="M194.19 759.125 Q190.579 759.125 188.75 762.689 Q186.945 766.231 186.945 773.361 Q186.945 780.467 188.75 784.032 Q190.579 787.574 194.19 787.574 Q197.825 787.574 199.63 784.032 Q201.459 780.467 201.459 773.361 Q201.459 766.231 199.63 762.689 Q197.825 759.125 194.19 759.125 M194.19 755.421 Q200 755.421 203.056 760.027 Q206.135 764.611 206.135 773.361 Q206.135 782.088 203.056 786.694 Q200 791.277 194.19 791.277 Q188.38 791.277 185.301 786.694 Q182.246 782.088 182.246 773.361 Q182.246 764.611 185.301 760.027 Q188.38 755.421 194.19 755.421 Z" fill="#000000" fill-rule="nonzero" fill-opacity="1" /><path clip-path="url(#clip200)" d="M159.052 519.789 L175.371 519.789 L175.371 523.725 L153.427 523.725 L153.427 519.789 Q156.089 517.035 160.672 512.405 Q165.278 507.752 166.459 506.41 Q168.704 503.887 169.584 502.151 Q170.487 500.391 170.487 498.702 Q170.487 495.947 168.542 494.211 Q166.621 492.475 163.519 492.475 Q161.32 492.475 158.866 493.239 Q156.436 494.002 153.658 495.553 L153.658 490.831 Q156.482 489.697 158.936 489.118 Q161.39 488.54 163.427 488.54 Q168.797 488.54 171.991 491.225 Q175.186 493.91 175.186 498.401 Q175.186 500.53 174.376 502.451 Q173.589 504.35 171.482 506.942 Q170.903 507.614 167.802 510.831 Q164.7 514.026 159.052 519.789 Z" fill="#000000" fill-rule="nonzero" fill-opacity="1" /><path clip-path="url(#clip200)" d="M185.232 489.165 L203.588 489.165 L203.588 493.1 L189.514 493.1 L189.514 501.572 Q190.533 501.225 191.551 501.063 Q192.57 500.877 193.588 500.877 Q199.375 500.877 202.755 504.049 Q206.135 507.22 206.135 512.637 Q206.135 518.215 202.662 521.317 Q199.19 524.396 192.871 524.396 Q190.695 524.396 188.426 524.025 Q186.181 523.655 183.774 522.914 L183.774 518.215 Q185.857 519.35 188.079 519.905 Q190.301 520.461 192.778 520.461 Q196.783 520.461 199.121 518.354 Q201.459 516.248 201.459 512.637 Q201.459 509.026 199.121 506.919 Q196.783 504.813 192.778 504.813 Q190.903 504.813 189.028 505.229 Q187.176 505.646 185.232 506.526 L185.232 489.165 Z" fill="#000000" fill-rule="nonzero" fill-opacity="1" /><path clip-path="url(#clip200)" d="M154.075 222.283 L172.431 222.283 L172.431 226.218 L158.357 226.218 L158.357 234.69 Q159.376 234.343 160.394 234.181 Q161.413 233.996 162.431 233.996 Q168.218 233.996 171.598 237.167 Q174.977 240.339 174.977 245.755 Q174.977 251.334 171.505 254.436 Q168.033 257.514 161.714 257.514 Q159.538 257.514 157.269 257.144 Q155.024 256.774 152.616 256.033 L152.616 251.334 Q154.7 252.468 156.922 253.024 Q159.144 253.579 161.621 253.579 Q165.626 253.579 167.964 251.473 Q170.302 249.366 170.302 245.755 Q170.302 242.144 167.964 240.038 Q165.626 237.931 161.621 237.931 Q159.746 237.931 157.871 238.348 Q156.019 238.764 154.075 239.644 L154.075 222.283 Z" fill="#000000" fill-rule="nonzero" fill-opacity="1" /><path clip-path="url(#clip200)" d="M194.19 225.362 Q190.579 225.362 188.75 228.927 Q186.945 232.468 186.945 239.598 Q186.945 246.704 188.75 250.269 Q190.579 253.811 194.19 253.811 Q197.825 253.811 199.63 250.269 Q201.459 246.704 201.459 239.598 Q201.459 232.468 199.63 228.927 Q197.825 225.362 194.19 225.362 M194.19 221.658 Q200 221.658 203.056 226.265 Q206.135 230.848 206.135 239.598 Q206.135 248.325 203.056 252.931 Q200 257.514 194.19 257.514 Q188.38 257.514 185.301 252.931 Q182.246 248.325 182.246 239.598 Q182.246 230.848 185.301 226.265 Q188.38 221.658 194.19 221.658 Z" fill="#000000" fill-rule="nonzero" fill-opacity="1" /><path clip-path="url(#clip200)" d="M22.818 1013.92 L46.4666 1022.64 L46.4666 1005.17 L22.818 1013.92 M16.4842 1017.55 L16.4842 1010.26 L64.0042 992.147 L64.0042 998.831 L51.8138 1003.16 L51.8138 1024.58 L64.0042 1028.91 L64.0042 1035.69 L16.4842 1017.55 Z" fill="#000000" fill-rule="nonzero" fill-opacity="1" /><path clip-path="url(#clip200)" d="M28.3562 993.484 L28.3562 987.277 L58.275 976.137 L28.3562 964.997 L28.3562 958.791 L64.0042 972.159 L64.0042 980.116 L28.3562 993.484 Z" fill="#000000" fill-rule="nonzero" fill-opacity="1" /><path clip-path="url(#clip200)" d="M44.7161 920.215 L47.5806 920.215 L47.5806 947.142 Q53.6281 946.76 56.8109 943.513 Q59.9619 940.235 59.9619 934.41 Q59.9619 931.036 59.1344 927.885 Q58.3069 924.702 56.6518 921.583 L62.1899 921.583 Q63.5267 924.734 64.227 928.044 Q64.9272 931.355 64.9272 934.76 Q64.9272 943.29 59.9619 948.287 Q54.9967 953.253 46.5303 953.253 Q37.7774 953.253 32.6531 948.542 Q27.4968 943.8 27.4968 935.779 Q27.4968 928.586 32.1438 924.416 Q36.7589 920.215 44.7161 920.215 M42.9973 926.071 Q38.1912 926.135 35.3266 928.777 Q32.4621 931.386 32.4621 935.715 Q32.4621 940.617 35.2312 943.577 Q38.0002 946.505 43.0292 946.951 L42.9973 926.071 Z" fill="#000000" fill-rule="nonzero" fill-opacity="1" /><path clip-path="url(#clip200)" d="M33.8307 889.946 Q33.2578 890.932 33.0032 892.11 Q32.7167 893.256 32.7167 894.656 Q32.7167 899.622 35.9632 902.295 Q39.1779 904.937 45.2253 904.937 L64.0042 904.937 L64.0042 910.825 L28.3562 910.825 L28.3562 904.937 L33.8944 904.937 Q30.6479 903.091 29.0883 900.131 Q27.4968 897.171 27.4968 892.938 Q27.4968 892.333 27.5923 891.601 Q27.656 890.869 27.8151 889.978 L33.8307 889.946 Z" fill="#000000" fill-rule="nonzero" fill-opacity="1" /><path clip-path="url(#clip200)" d="M46.0847 867.602 Q46.0847 874.7 47.7079 877.437 Q49.3312 880.174 53.2461 880.174 Q56.3653 880.174 58.2114 878.137 Q60.0256 876.068 60.0256 872.536 Q60.0256 867.666 56.5881 864.738 Q53.1188 861.777 47.3897 861.777 L46.0847 861.777 L46.0847 867.602 M43.6657 855.921 L64.0042 855.921 L64.0042 861.777 L58.5933 861.777 Q61.8398 863.783 63.3994 866.775 Q64.9272 869.766 64.9272 874.095 Q64.9272 879.57 61.8716 882.816 Q58.7843 886.031 53.6281 886.031 Q47.6125 886.031 44.5569 882.02 Q41.5014 877.978 41.5014 869.989 L41.5014 861.777 L40.9285 861.777 Q36.8862 861.777 34.6901 864.451 Q32.4621 867.093 32.4621 871.899 Q32.4621 874.954 33.1941 877.851 Q33.9262 880.747 35.3903 883.421 L29.9795 883.421 Q28.7381 880.206 28.1334 877.182 Q27.4968 874.159 27.4968 871.294 Q27.4968 863.56 31.5072 859.74 Q35.5176 855.921 43.6657 855.921 Z" fill="#000000" fill-rule="nonzero" fill-opacity="1" /><path clip-path="url(#clip200)" d="M45.7664 820.4 Q39.4007 820.4 35.8996 823.042 Q32.3984 825.652 32.3984 830.395 Q32.3984 835.105 35.8996 837.747 Q39.4007 840.357 45.7664 840.357 Q52.1003 840.357 55.6014 837.747 Q59.1026 835.105 59.1026 830.395 Q59.1026 825.652 55.6014 823.042 Q52.1003 820.4 45.7664 820.4 M59.58 814.544 Q68.683 814.544 73.1071 818.586 Q77.5631 822.628 77.5631 830.967 Q77.5631 834.055 77.0857 836.792 Q76.6401 839.529 75.6852 842.107 L69.9879 842.107 Q71.3884 839.529 72.0568 837.015 Q72.7252 834.5 72.7252 831.89 Q72.7252 826.13 69.7015 823.265 Q66.7096 820.4 60.6303 820.4 L57.7339 820.4 Q60.885 822.215 62.4446 825.047 Q64.0042 827.88 64.0042 831.827 Q64.0042 838.384 59.0071 842.394 Q54.01 846.404 45.7664 846.404 Q37.491 846.404 32.4939 842.394 Q27.4968 838.384 27.4968 831.827 Q27.4968 827.88 29.0564 825.047 Q30.616 822.215 33.7671 820.4 L28.3562 820.4 L28.3562 814.544 L59.58 814.544 Z" fill="#000000" fill-rule="nonzero" fill-opacity="1" /><path clip-path="url(#clip200)" d="M44.7161 771.989 L47.5806 771.989 L47.5806 798.916 Q53.6281 798.534 56.8109 795.288 Q59.9619 792.009 59.9619 786.185 Q59.9619 782.811 59.1344 779.66 Q58.3069 776.477 56.6518 773.358 L62.1899 773.358 Q63.5267 776.509 64.227 779.819 Q64.9272 783.129 64.9272 786.535 Q64.9272 795.065 59.9619 800.062 Q54.9967 805.027 46.5303 805.027 Q37.7774 805.027 32.6531 800.317 Q27.4968 795.574 27.4968 787.553 Q27.4968 780.36 32.1438 776.191 Q36.7589 771.989 44.7161 771.989 M42.9973 777.846 Q38.1912 777.909 35.3266 780.551 Q32.4621 783.161 32.4621 787.49 Q32.4621 792.391 35.2312 795.351 Q38.0002 798.28 43.0292 798.725 L42.9973 777.846 Z" fill="#000000" fill-rule="nonzero" fill-opacity="1" /><path clip-path="url(#clip200)" d="M41.7242 718.867 Q42.4244 716.799 44.7161 714.857 Q47.0077 712.884 51.0181 710.91 L64.0042 704.385 L64.0042 711.292 L51.8138 717.371 Q47.0395 719.727 45.48 721.955 Q43.9204 724.151 43.9204 727.97 L43.9204 734.973 L64.0042 734.973 L64.0042 741.402 L16.4842 741.402 L16.4842 726.888 Q16.4842 718.74 19.8898 714.73 Q23.2955 710.719 30.1704 710.719 Q34.6582 710.719 37.6183 712.82 Q40.5784 714.889 41.7242 718.867 M21.7677 734.973 L38.6368 734.973 L38.6368 726.888 Q38.6368 722.241 36.5043 719.886 Q34.34 717.499 30.1704 717.499 Q26.0009 717.499 23.9002 719.886 Q21.7677 722.241 21.7677 726.888 L21.7677 734.973 Z" fill="#000000" fill-rule="nonzero" fill-opacity="1" /><path clip-path="url(#clip200)" d="M44.7161 668.801 L47.5806 668.801 L47.5806 695.728 Q53.6281 695.346 56.8109 692.1 Q59.9619 688.821 59.9619 682.997 Q59.9619 679.623 59.1344 676.472 Q58.3069 673.289 56.6518 670.17 L62.1899 670.17 Q63.5267 673.321 64.227 676.631 Q64.9272 679.941 64.9272 683.347 Q64.9272 691.877 59.9619 696.874 Q54.9967 701.839 46.5303 701.839 Q37.7774 701.839 32.6531 697.128 Q27.4968 692.386 27.4968 684.365 Q27.4968 677.172 32.1438 673.002 Q36.7589 668.801 44.7161 668.801 M42.9973 674.658 Q38.1912 674.721 35.3266 677.363 Q32.4621 679.973 32.4621 684.302 Q32.4621 689.203 35.2312 692.163 Q38.0002 695.091 43.0292 695.537 L42.9973 674.658 Z" fill="#000000" fill-rule="nonzero" fill-opacity="1" /><path clip-path="url(#clip200)" d="M28.3562 662.595 L28.3562 656.738 L56.1743 649.418 L28.3562 642.129 L28.3562 635.222 L56.1743 627.901 L28.3562 620.613 L28.3562 614.756 L64.0042 624.082 L64.0042 630.989 L34.7856 638.659 L64.0042 646.362 L64.0042 653.269 L28.3562 662.595 Z" fill="#000000" fill-rule="nonzero" fill-opacity="1" /><path clip-path="url(#clip200)" d="M46.0847 589.675 Q46.0847 596.773 47.7079 599.51 Q49.3312 602.248 53.2461 602.248 Q56.3653 602.248 58.2114 600.211 Q60.0256 598.142 60.0256 594.609 Q60.0256 589.739 56.5881 586.811 Q53.1188 583.851 47.3897 583.851 L46.0847 583.851 L46.0847 589.675 M43.6657 577.994 L64.0042 577.994 L64.0042 583.851 L58.5933 583.851 Q61.8398 585.856 63.3994 588.848 Q64.9272 591.84 64.9272 596.168 Q64.9272 601.643 61.8716 604.889 Q58.7843 608.104 53.6281 608.104 Q47.6125 608.104 44.5569 604.094 Q41.5014 600.051 41.5014 592.062 L41.5014 583.851 L40.9285 583.851 Q36.8862 583.851 34.6901 586.524 Q32.4621 589.166 32.4621 593.972 Q32.4621 597.028 33.1941 599.924 Q33.9262 602.821 35.3903 605.494 L29.9795 605.494 Q28.7381 602.279 28.1334 599.256 Q27.4968 596.232 27.4968 593.367 Q27.4968 585.633 31.5072 581.814 Q35.5176 577.994 43.6657 577.994 Z" fill="#000000" fill-rule="nonzero" fill-opacity="1" /><path clip-path="url(#clip200)" d="M33.8307 545.275 Q33.2578 546.261 33.0032 547.439 Q32.7167 548.585 32.7167 549.985 Q32.7167 554.95 35.9632 557.624 Q39.1779 560.266 45.2253 560.266 L64.0042 560.266 L64.0042 566.154 L28.3562 566.154 L28.3562 560.266 L33.8944 560.266 Q30.6479 558.42 29.0883 555.46 Q27.4968 552.5 27.4968 548.266 Q27.4968 547.662 27.5923 546.93 Q27.656 546.198 27.8151 545.306 L33.8307 545.275 Z" fill="#000000" fill-rule="nonzero" fill-opacity="1" /><path clip-path="url(#clip200)" d="M33.7671 516.82 L14.479 516.82 L14.479 510.963 L64.0042 510.963 L64.0042 516.82 L58.657 516.82 Q61.8398 518.666 63.3994 521.499 Q64.9272 524.3 64.9272 528.246 Q64.9272 534.707 59.771 538.782 Q54.6147 542.824 46.212 542.824 Q37.8093 542.824 32.6531 538.782 Q27.4968 534.707 27.4968 528.246 Q27.4968 524.3 29.0564 521.499 Q30.5842 518.666 33.7671 516.82 M46.212 536.776 Q52.6732 536.776 56.3653 534.135 Q60.0256 531.461 60.0256 526.814 Q60.0256 522.167 56.3653 519.493 Q52.6732 516.82 46.212 516.82 Q39.7508 516.82 36.0905 519.493 Q32.3984 522.167 32.3984 526.814 Q32.3984 531.461 36.0905 534.135 Q39.7508 536.776 46.212 536.776 Z" fill="#000000" fill-rule="nonzero" fill-opacity="1" /><path clip-path="url(#clip200)" d="M321.805 12.096 L329.988 12.096 L329.988 72.576 L321.805 72.576 L321.805 12.096 Z" fill="#000000" fill-rule="nonzero" fill-opacity="1" /><path clip-path="url(#clip200)" d="M383.663 45.1919 L383.663 72.576 L376.209 72.576 L376.209 45.4349 Q376.209 38.994 373.697 35.7938 Q371.186 32.5936 366.163 32.5936 Q360.127 32.5936 356.643 36.4419 Q353.159 40.2903 353.159 46.9338 L353.159 72.576 L345.665 72.576 L345.665 27.2059 L353.159 27.2059 L353.159 34.2544 Q355.833 30.163 359.438 28.1376 Q363.084 26.1121 367.824 26.1121 Q375.642 26.1121 379.652 30.9732 Q383.663 35.7938 383.663 45.1919 Z" fill="#000000" fill-rule="nonzero" fill-opacity="1" /><path clip-path="url(#clip200)" d="M421.498 9.54393 L421.498 15.7418 L414.368 15.7418 Q410.358 15.7418 408.778 17.3622 Q407.239 18.9825 407.239 23.1955 L407.239 27.2059 L419.513 27.2059 L419.513 32.9987 L407.239 32.9987 L407.239 72.576 L399.745 72.576 L399.745 32.9987 L392.615 32.9987 L392.615 27.2059 L399.745 27.2059 L399.745 24.0462 Q399.745 16.471 403.269 13.0277 Q406.793 9.54393 414.449 9.54393 L421.498 9.54393 Z" fill="#000000" fill-rule="nonzero" fill-opacity="1" /><path clip-path="url(#clip200)" d="M445.317 32.4315 Q439.322 32.4315 435.838 37.1306 Q432.354 41.7891 432.354 49.9314 Q432.354 58.0738 435.798 62.7728 Q439.281 67.4314 445.317 67.4314 Q451.272 67.4314 454.756 62.7323 Q458.24 58.0333 458.24 49.9314 Q458.24 41.8701 454.756 37.1711 Q451.272 32.4315 445.317 32.4315 M445.317 26.1121 Q455.039 26.1121 460.589 32.4315 Q466.139 38.7509 466.139 49.9314 Q466.139 61.0714 460.589 67.4314 Q455.039 73.7508 445.317 73.7508 Q435.555 73.7508 430.005 67.4314 Q424.496 61.0714 424.496 49.9314 Q424.496 38.7509 430.005 32.4315 Q435.555 26.1121 445.317 26.1121 Z" fill="#000000" fill-rule="nonzero" fill-opacity="1" /><path clip-path="url(#clip200)" d="M504.785 34.1734 Q503.529 33.4443 502.03 33.1202 Q500.572 32.7556 498.789 32.7556 Q492.47 32.7556 489.067 36.8875 Q485.705 40.9789 485.705 48.6757 L485.705 72.576 L478.211 72.576 L478.211 27.2059 L485.705 27.2059 L485.705 34.2544 Q488.054 30.1225 491.822 28.1376 Q495.589 26.1121 500.977 26.1121 Q501.746 26.1121 502.678 26.2337 Q503.61 26.3147 504.744 26.5172 L504.785 34.1734 Z" fill="#000000" fill-rule="nonzero" fill-opacity="1" /><path clip-path="url(#clip200)" d="M546.468 35.9153 Q549.264 30.8922 553.152 28.5022 Q557.041 26.1121 562.307 26.1121 Q569.397 26.1121 573.245 31.0947 Q577.093 36.0368 577.093 45.1919 L577.093 72.576 L569.599 72.576 L569.599 45.4349 Q569.599 38.913 567.29 35.7533 Q564.981 32.5936 560.241 32.5936 Q554.449 32.5936 551.086 36.4419 Q547.724 40.2903 547.724 46.9338 L547.724 72.576 L540.23 72.576 L540.23 45.4349 Q540.23 38.8725 537.921 35.7533 Q535.612 32.5936 530.791 32.5936 Q525.08 32.5936 521.717 36.4824 Q518.355 40.3308 518.355 46.9338 L518.355 72.576 L510.861 72.576 L510.861 27.2059 L518.355 27.2059 L518.355 34.2544 Q520.907 30.082 524.472 28.0971 Q528.037 26.1121 532.938 26.1121 Q537.88 26.1121 541.324 28.6237 Q544.808 31.1352 546.468 35.9153 Z" fill="#000000" fill-rule="nonzero" fill-opacity="1" /><path clip-path="url(#clip200)" d="M612.579 49.7694 Q603.546 49.7694 600.062 51.8354 Q596.578 53.9013 596.578 58.8839 Q596.578 62.8538 599.171 65.2034 Q601.804 67.5124 606.3 67.5124 Q612.498 67.5124 616.225 63.1374 Q619.992 58.7219 619.992 51.4303 L619.992 49.7694 L612.579 49.7694 M627.446 46.6907 L627.446 72.576 L619.992 72.576 L619.992 65.6895 Q617.44 69.8214 613.632 71.8063 Q609.825 73.7508 604.315 73.7508 Q597.348 73.7508 593.216 69.8619 Q589.124 65.9325 589.124 59.3701 Q589.124 51.7138 594.229 47.825 Q599.373 43.9361 609.541 43.9361 L619.992 43.9361 L619.992 43.2069 Q619.992 38.0623 616.59 35.2672 Q613.227 32.4315 607.11 32.4315 Q603.222 32.4315 599.535 33.3632 Q595.849 34.295 592.446 36.1584 L592.446 29.2718 Q596.538 27.692 600.386 26.9223 Q604.234 26.1121 607.88 26.1121 Q617.724 26.1121 622.585 31.2163 Q627.446 36.3204 627.446 46.6907 Z" fill="#000000" fill-rule="nonzero" fill-opacity="1" /><path clip-path="url(#clip200)" d="M650.172 14.324 L650.172 27.2059 L665.524 27.2059 L665.524 32.9987 L650.172 32.9987 L650.172 57.6282 Q650.172 63.1779 651.67 64.7578 Q653.21 66.3376 657.868 66.3376 L665.524 66.3376 L665.524 72.576 L657.868 72.576 Q649.24 72.576 645.959 69.3758 Q642.677 66.1351 642.677 57.6282 L642.677 32.9987 L637.209 32.9987 L637.209 27.2059 L642.677 27.2059 L642.677 14.324 L650.172 14.324 Z" fill="#000000" fill-rule="nonzero" fill-opacity="1" /><path clip-path="url(#clip200)" d="M675.328 27.2059 L682.781 27.2059 L682.781 72.576 L675.328 72.576 L675.328 27.2059 M675.328 9.54393 L682.781 9.54393 L682.781 18.9825 L675.328 18.9825 L675.328 9.54393 Z" fill="#000000" fill-rule="nonzero" fill-opacity="1" /><path clip-path="url(#clip200)" d="M715.958 32.4315 Q709.963 32.4315 706.479 37.1306 Q702.995 41.7891 702.995 49.9314 Q702.995 58.0738 706.439 62.7728 Q709.922 67.4314 715.958 67.4314 Q721.913 67.4314 725.397 62.7323 Q728.881 58.0333 728.881 49.9314 Q728.881 41.8701 725.397 37.1711 Q721.913 32.4315 715.958 32.4315 M715.958 26.1121 Q725.68 26.1121 731.23 32.4315 Q736.78 38.7509 736.78 49.9314 Q736.78 61.0714 731.23 67.4314 Q725.68 73.7508 715.958 73.7508 Q706.196 73.7508 700.646 67.4314 Q695.137 61.0714 695.137 49.9314 Q695.137 38.7509 700.646 32.4315 Q706.196 26.1121 715.958 26.1121 Z" fill="#000000" fill-rule="nonzero" fill-opacity="1" /><path clip-path="url(#clip200)" d="M786.849 45.1919 L786.849 72.576 L779.395 72.576 L779.395 45.4349 Q779.395 38.994 776.884 35.7938 Q774.372 32.5936 769.349 32.5936 Q763.313 32.5936 759.83 36.4419 Q756.346 40.2903 756.346 46.9338 L756.346 72.576 L748.852 72.576 L748.852 27.2059 L756.346 27.2059 L756.346 34.2544 Q759.019 30.163 762.625 28.1376 Q766.27 26.1121 771.01 26.1121 Q778.828 26.1121 782.839 30.9732 Q786.849 35.7938 786.849 45.1919 Z" fill="#000000" fill-rule="nonzero" fill-opacity="1" /><path clip-path="url(#clip200)" d="M823.024 12.096 L831.287 12.096 L844.007 63.2184 L856.687 12.096 L865.882 12.096 L878.602 63.2184 L891.281 12.096 L899.586 12.096 L884.395 72.576 L874.106 72.576 L861.345 20.0763 L848.463 72.576 L838.174 72.576 L823.024 12.096 Z" fill="#000000" fill-rule="nonzero" fill-opacity="1" /><path clip-path="url(#clip200)" d="M925.43 49.7694 Q916.397 49.7694 912.913 51.8354 Q909.429 53.9013 909.429 58.8839 Q909.429 62.8538 912.022 65.2034 Q914.655 67.5124 919.152 67.5124 Q925.349 67.5124 929.076 63.1374 Q932.844 58.7219 932.844 51.4303 L932.844 49.7694 L925.43 49.7694 M940.297 46.6907 L940.297 72.576 L932.844 72.576 L932.844 65.6895 Q930.292 69.8214 926.484 71.8063 Q922.676 73.7508 917.167 73.7508 Q910.199 73.7508 906.067 69.8619 Q901.976 65.9325 901.976 59.3701 Q901.976 51.7138 907.08 47.825 Q912.225 43.9361 922.392 43.9361 L932.844 43.9361 L932.844 43.2069 Q932.844 38.0623 929.441 35.2672 Q926.079 32.4315 919.962 32.4315 Q916.073 32.4315 912.387 33.3632 Q908.7 34.295 905.298 36.1584 L905.298 29.2718 Q909.389 27.692 913.237 26.9223 Q917.086 26.1121 920.731 26.1121 Q930.575 26.1121 935.436 31.2163 Q940.297 36.3204 940.297 46.6907 Z" fill="#000000" fill-rule="nonzero" fill-opacity="1" /><path clip-path="url(#clip200)" d="M981.941 34.1734 Q980.685 33.4443 979.186 33.1202 Q977.728 32.7556 975.945 32.7556 Q969.626 32.7556 966.223 36.8875 Q962.861 40.9789 962.861 48.6757 L962.861 72.576 L955.367 72.576 L955.367 27.2059 L962.861 27.2059 L962.861 34.2544 Q965.21 30.1225 968.978 28.1376 Q972.745 26.1121 978.133 26.1121 Q978.902 26.1121 979.834 26.2337 Q980.766 26.3147 981.9 26.5172 L981.941 34.1734 Z" fill="#000000" fill-rule="nonzero" fill-opacity="1" /><path clip-path="url(#clip200)" d="M1012.73 9.54393 L1012.73 15.7418 L1005.6 15.7418 Q1001.59 15.7418 1000.01 17.3622 Q998.468 18.9825 998.468 23.1955 L998.468 27.2059 L1010.74 27.2059 L1010.74 32.9987 L998.468 32.9987 L998.468 72.576 L990.974 72.576 L990.974 32.9987 L983.845 32.9987 L983.845 27.2059 L990.974 27.2059 L990.974 24.0462 Q990.974 16.471 994.498 13.0277 Q998.023 9.54393 1005.68 9.54393 L1012.73 9.54393 Z" fill="#000000" fill-rule="nonzero" fill-opacity="1" /><path clip-path="url(#clip200)" d="M1039.58 49.7694 Q1030.55 49.7694 1027.07 51.8354 Q1023.58 53.9013 1023.58 58.8839 Q1023.58 62.8538 1026.18 65.2034 Q1028.81 67.5124 1033.31 67.5124 Q1039.5 67.5124 1043.23 63.1374 Q1047 58.7219 1047 51.4303 L1047 49.7694 L1039.58 49.7694 M1054.45 46.6907 L1054.45 72.576 L1047 72.576 L1047 65.6895 Q1044.45 69.8214 1040.64 71.8063 Q1036.83 73.7508 1031.32 73.7508 Q1024.35 73.7508 1020.22 69.8619 Q1016.13 65.9325 1016.13 59.3701 Q1016.13 51.7138 1021.23 47.825 Q1026.38 43.9361 1036.55 43.9361 L1047 43.9361 L1047 43.2069 Q1047 38.0623 1043.6 35.2672 Q1040.23 32.4315 1034.12 32.4315 Q1030.23 32.4315 1026.54 33.3632 Q1022.85 34.295 1019.45 36.1584 L1019.45 29.2718 Q1023.54 27.692 1027.39 26.9223 Q1031.24 26.1121 1034.89 26.1121 Q1044.73 26.1121 1049.59 31.2163 Q1054.45 36.3204 1054.45 46.6907 Z" fill="#000000" fill-rule="nonzero" fill-opacity="1" /><path clip-path="url(#clip200)" d="M1096.1 34.1734 Q1094.84 33.4443 1093.34 33.1202 Q1091.88 32.7556 1090.1 32.7556 Q1083.78 32.7556 1080.38 36.8875 Q1077.02 40.9789 1077.02 48.6757 L1077.02 72.576 L1069.52 72.576 L1069.52 27.2059 L1077.02 27.2059 L1077.02 34.2544 Q1079.36 30.1225 1083.13 28.1376 Q1086.9 26.1121 1092.29 26.1121 Q1093.06 26.1121 1093.99 26.2337 Q1094.92 26.3147 1096.05 26.5172 L1096.1 34.1734 Z" fill="#000000" fill-rule="nonzero" fill-opacity="1" /><path clip-path="url(#clip200)" d="M1140.9 48.0275 L1140.9 51.6733 L1106.63 51.6733 Q1107.11 59.3701 1111.25 63.421 Q1115.42 67.4314 1122.83 67.4314 Q1127.13 67.4314 1131.14 66.3781 Q1135.19 65.3249 1139.16 63.2184 L1139.16 70.267 Q1135.15 71.9684 1130.93 72.8596 Q1126.72 73.7508 1122.39 73.7508 Q1111.53 73.7508 1105.17 67.4314 Q1098.85 61.1119 1098.85 50.3365 Q1098.85 39.1965 1104.85 32.6746 Q1110.88 26.1121 1121.09 26.1121 Q1130.24 26.1121 1135.55 32.0264 Q1140.9 37.9003 1140.9 48.0275 M1133.44 45.84 Q1133.36 39.7232 1130 36.0774 Q1126.68 32.4315 1121.17 32.4315 Q1114.93 32.4315 1111.16 35.9558 Q1107.44 39.4801 1106.87 45.8805 L1133.44 45.84 Z" fill="#000000" fill-rule="nonzero" fill-opacity="1" /><path clip-path="url(#clip200)" d="M1155.04 62.2867 L1163.58 62.2867 L1163.58 72.576 L1155.04 72.576 L1155.04 62.2867 M1155.04 29.6769 L1163.58 29.6769 L1163.58 39.9662 L1155.04 39.9662 L1155.04 29.6769 Z" fill="#000000" fill-rule="nonzero" fill-opacity="1" /><path clip-path="url(#clip200)" d="M1253.07 16.7545 L1253.07 25.383 Q1248.94 21.5346 1244.24 19.6307 Q1239.58 17.7268 1234.31 17.7268 Q1223.94 17.7268 1218.43 24.0867 Q1212.92 30.4061 1212.92 42.3968 Q1212.92 54.3469 1218.43 60.7069 Q1223.94 67.0263 1234.31 67.0263 Q1239.58 67.0263 1244.24 65.1223 Q1248.94 63.2184 1253.07 59.3701 L1253.07 67.9175 Q1248.77 70.8341 1243.95 72.2924 Q1239.17 73.7508 1233.83 73.7508 Q1220.09 73.7508 1212.19 65.3654 Q1204.29 56.9395 1204.29 42.3968 Q1204.29 27.8135 1212.19 19.4281 Q1220.09 11.0023 1233.83 11.0023 Q1239.25 11.0023 1244.03 12.4606 Q1248.85 13.8784 1253.07 16.7545 Z" fill="#000000" fill-rule="nonzero" fill-opacity="1" /><path clip-path="url(#clip200)" d="M1282.96 32.4315 Q1276.97 32.4315 1273.48 37.1306 Q1270 41.7891 1270 49.9314 Q1270 58.0738 1273.44 62.7728 Q1276.93 67.4314 1282.96 67.4314 Q1288.92 67.4314 1292.4 62.7323 Q1295.89 58.0333 1295.89 49.9314 Q1295.89 41.8701 1292.4 37.1711 Q1288.92 32.4315 1282.96 32.4315 M1282.96 26.1121 Q1292.69 26.1121 1298.24 32.4315 Q1303.78 38.7509 1303.78 49.9314 Q1303.78 61.0714 1298.24 67.4314 Q1292.69 73.7508 1282.96 73.7508 Q1273.2 73.7508 1267.65 67.4314 Q1262.14 61.0714 1262.14 49.9314 Q1262.14 38.7509 1267.65 32.4315 Q1273.2 26.1121 1282.96 26.1121 Z" fill="#000000" fill-rule="nonzero" fill-opacity="1" /><path clip-path="url(#clip200)" d="M1351.46 35.9153 Q1354.26 30.8922 1358.15 28.5022 Q1362.04 26.1121 1367.3 26.1121 Q1374.39 26.1121 1378.24 31.0947 Q1382.09 36.0368 1382.09 45.1919 L1382.09 72.576 L1374.59 72.576 L1374.59 45.4349 Q1374.59 38.913 1372.29 35.7533 Q1369.98 32.5936 1365.24 32.5936 Q1359.44 32.5936 1356.08 36.4419 Q1352.72 40.2903 1352.72 46.9338 L1352.72 72.576 L1345.23 72.576 L1345.23 45.4349 Q1345.23 38.8725 1342.92 35.7533 Q1340.61 32.5936 1335.79 32.5936 Q1330.08 32.5936 1326.71 36.4824 Q1323.35 40.3308 1323.35 46.9338 L1323.35 72.576 L1315.86 72.576 L1315.86 27.2059 L1323.35 27.2059 L1323.35 34.2544 Q1325.9 30.082 1329.47 28.0971 Q1333.03 26.1121 1337.93 26.1121 Q1342.88 26.1121 1346.32 28.6237 Q1349.8 31.1352 1351.46 35.9153 Z" fill="#000000" fill-rule="nonzero" fill-opacity="1" /><path clip-path="url(#clip200)" d="M1404.17 65.7705 L1404.17 89.8329 L1396.67 89.8329 L1396.67 27.2059 L1404.17 27.2059 L1404.17 34.0924 Q1406.52 30.0415 1410.08 28.0971 Q1413.69 26.1121 1418.67 26.1121 Q1426.93 26.1121 1432.08 32.6746 Q1437.26 39.2371 1437.26 49.9314 Q1437.26 60.6258 1432.08 67.1883 Q1426.93 73.7508 1418.67 73.7508 Q1413.69 73.7508 1410.08 71.8063 Q1406.52 69.8214 1404.17 65.7705 M1429.53 49.9314 Q1429.53 41.7081 1426.12 37.0496 Q1422.76 32.3505 1416.85 32.3505 Q1410.93 32.3505 1407.53 37.0496 Q1404.17 41.7081 1404.17 49.9314 Q1404.17 58.1548 1407.53 62.8538 Q1410.93 67.5124 1416.85 67.5124 Q1422.76 67.5124 1426.12 62.8538 Q1429.53 58.1548 1429.53 49.9314 Z" fill="#000000" fill-rule="nonzero" fill-opacity="1" /><path clip-path="url(#clip200)" d="M1488.43 48.0275 L1488.43 51.6733 L1454.15 51.6733 Q1454.64 59.3701 1458.77 63.421 Q1462.94 67.4314 1470.36 67.4314 Q1474.65 67.4314 1478.66 66.3781 Q1482.71 65.3249 1486.68 63.2184 L1486.68 70.267 Q1482.67 71.9684 1478.46 72.8596 Q1474.25 73.7508 1469.91 73.7508 Q1459.06 73.7508 1452.7 67.4314 Q1446.38 61.1119 1446.38 50.3365 Q1446.38 39.1965 1452.37 32.6746 Q1458.41 26.1121 1468.62 26.1121 Q1477.77 26.1121 1483.08 32.0264 Q1488.43 37.9003 1488.43 48.0275 M1480.97 45.84 Q1480.89 39.7232 1477.53 36.0774 Q1474.21 32.4315 1468.7 32.4315 Q1462.46 32.4315 1458.69 35.9558 Q1454.96 39.4801 1454.4 45.8805 L1480.97 45.84 Z" fill="#000000" fill-rule="nonzero" fill-opacity="1" /><path clip-path="url(#clip200)" d="M1508.03 14.324 L1508.03 27.2059 L1523.38 27.2059 L1523.38 32.9987 L1508.03 32.9987 L1508.03 57.6282 Q1508.03 63.1779 1509.53 64.7578 Q1511.07 66.3376 1515.73 66.3376 L1523.38 66.3376 L1523.38 72.576 L1515.73 72.576 Q1507.1 72.576 1503.82 69.3758 Q1500.54 66.1351 1500.54 57.6282 L1500.54 32.9987 L1495.07 32.9987 L1495.07 27.2059 L1500.54 27.2059 L1500.54 14.324 L1508.03 14.324 Z" fill="#000000" fill-rule="nonzero" fill-opacity="1" /><path clip-path="url(#clip200)" d="M1533.19 27.2059 L1540.64 27.2059 L1540.64 72.576 L1533.19 72.576 L1533.19 27.2059 M1533.19 9.54393 L1540.64 9.54393 L1540.64 18.9825 L1533.19 18.9825 L1533.19 9.54393 Z" fill="#000000" fill-rule="nonzero" fill-opacity="1" /><path clip-path="url(#clip200)" d="M1563.61 14.324 L1563.61 27.2059 L1578.96 27.2059 L1578.96 32.9987 L1563.61 32.9987 L1563.61 57.6282 Q1563.61 63.1779 1565.11 64.7578 Q1566.65 66.3376 1571.31 66.3376 L1578.96 66.3376 L1578.96 72.576 L1571.31 72.576 Q1562.68 72.576 1559.4 69.3758 Q1556.12 66.1351 1556.12 57.6282 L1556.12 32.9987 L1550.65 32.9987 L1550.65 27.2059 L1556.12 27.2059 L1556.12 14.324 L1563.61 14.324 Z" fill="#000000" fill-rule="nonzero" fill-opacity="1" /><path clip-path="url(#clip200)" d="M1588.77 27.2059 L1596.22 27.2059 L1596.22 72.576 L1588.77 72.576 L1588.77 27.2059 M1588.77 9.54393 L1596.22 9.54393 L1596.22 18.9825 L1588.77 18.9825 L1588.77 9.54393 Z" fill="#000000" fill-rule="nonzero" fill-opacity="1" /><path clip-path="url(#clip200)" d="M1606.47 27.2059 L1614.37 27.2059 L1628.55 65.2844 L1642.72 27.2059 L1650.62 27.2059 L1633.61 72.576 L1623.48 72.576 L1606.47 27.2059 Z" fill="#000000" fill-rule="nonzero" fill-opacity="1" /><path clip-path="url(#clip200)" d="M1699.72 48.0275 L1699.72 51.6733 L1665.45 51.6733 Q1665.94 59.3701 1670.07 63.421 Q1674.24 67.4314 1681.65 67.4314 Q1685.95 67.4314 1689.96 66.3781 Q1694.01 65.3249 1697.98 63.2184 L1697.98 70.267 Q1693.97 71.9684 1689.76 72.8596 Q1685.54 73.7508 1681.21 73.7508 Q1670.35 73.7508 1663.99 67.4314 Q1657.67 61.1119 1657.67 50.3365 Q1657.67 39.1965 1663.67 32.6746 Q1669.7 26.1121 1679.91 26.1121 Q1689.07 26.1121 1694.37 32.0264 Q1699.72 37.9003 1699.72 48.0275 M1692.27 45.84 Q1692.19 39.7232 1688.82 36.0774 Q1685.5 32.4315 1679.99 32.4315 Q1673.75 32.4315 1669.99 35.9558 Q1666.26 39.4801 1665.69 45.8805 L1692.27 45.84 Z" fill="#000000" fill-rule="nonzero" fill-opacity="1" /><path clip-path="url(#clip200)" d="M1783.94 16.7545 L1783.94 25.383 Q1779.81 21.5346 1775.11 19.6307 Q1770.45 17.7268 1765.18 17.7268 Q1754.81 17.7268 1749.3 24.0867 Q1743.79 30.4061 1743.79 42.3968 Q1743.79 54.3469 1749.3 60.7069 Q1754.81 67.0263 1765.18 67.0263 Q1770.45 67.0263 1775.11 65.1223 Q1779.81 63.2184 1783.94 59.3701 L1783.94 67.9175 Q1779.64 70.8341 1774.82 72.2924 Q1770.04 73.7508 1764.7 73.7508 Q1750.96 73.7508 1743.07 65.3654 Q1735.17 56.9395 1735.17 42.3968 Q1735.17 27.8135 1743.07 19.4281 Q1750.96 11.0023 1764.7 11.0023 Q1770.13 11.0023 1774.91 12.4606 Q1779.73 13.8784 1783.94 16.7545 Z" fill="#000000" fill-rule="nonzero" fill-opacity="1" /><path clip-path="url(#clip200)" d="M1813.83 32.4315 Q1807.84 32.4315 1804.36 37.1306 Q1800.87 41.7891 1800.87 49.9314 Q1800.87 58.0738 1804.31 62.7728 Q1807.8 67.4314 1813.83 67.4314 Q1819.79 67.4314 1823.27 62.7323 Q1826.76 58.0333 1826.76 49.9314 Q1826.76 41.8701 1823.27 37.1711 Q1819.79 32.4315 1813.83 32.4315 M1813.83 26.1121 Q1823.56 26.1121 1829.11 32.4315 Q1834.66 38.7509 1834.66 49.9314 Q1834.66 61.0714 1829.11 67.4314 Q1823.56 73.7508 1813.83 73.7508 Q1804.07 73.7508 1798.52 67.4314 Q1793.01 61.0714 1793.01 49.9314 Q1793.01 38.7509 1798.52 32.4315 Q1804.07 26.1121 1813.83 26.1121 Z" fill="#000000" fill-rule="nonzero" fill-opacity="1" /><path clip-path="url(#clip200)" d="M1884.73 45.1919 L1884.73 72.576 L1877.27 72.576 L1877.27 45.4349 Q1877.27 38.994 1874.76 35.7938 Q1872.25 32.5936 1867.23 32.5936 Q1861.19 32.5936 1857.71 36.4419 Q1854.22 40.2903 1854.22 46.9338 L1854.22 72.576 L1846.73 72.576 L1846.73 27.2059 L1854.22 27.2059 L1854.22 34.2544 Q1856.9 30.163 1860.5 28.1376 Q1864.15 26.1121 1868.89 26.1121 Q1876.7 26.1121 1880.71 30.9732 Q1884.73 35.7938 1884.73 45.1919 Z" fill="#000000" fill-rule="nonzero" fill-opacity="1" /><path clip-path="url(#clip200)" d="M1894.24 27.2059 L1902.14 27.2059 L1916.32 65.2844 L1930.5 27.2059 L1938.4 27.2059 L1921.39 72.576 L1911.26 72.576 L1894.24 27.2059 Z" fill="#000000" fill-rule="nonzero" fill-opacity="1" /><path clip-path="url(#clip200)" d="M1987.5 48.0275 L1987.5 51.6733 L1953.23 51.6733 Q1953.71 59.3701 1957.84 63.421 Q1962.02 67.4314 1969.43 67.4314 Q1973.72 67.4314 1977.73 66.3781 Q1981.78 65.3249 1985.75 63.2184 L1985.75 70.267 Q1981.74 71.9684 1977.53 72.8596 Q1973.32 73.7508 1968.98 73.7508 Q1958.13 73.7508 1951.77 67.4314 Q1945.45 61.1119 1945.45 50.3365 Q1945.45 39.1965 1951.44 32.6746 Q1957.48 26.1121 1967.69 26.1121 Q1976.84 26.1121 1982.15 32.0264 Q1987.5 37.9003 1987.5 48.0275 M1980.04 45.84 Q1979.96 39.7232 1976.6 36.0774 Q1973.28 32.4315 1967.77 32.4315 Q1961.53 32.4315 1957.76 35.9558 Q1954.04 39.4801 1953.47 45.8805 L1980.04 45.84 Z" fill="#000000" fill-rule="nonzero" fill-opacity="1" /><path clip-path="url(#clip200)" d="M2026.02 34.1734 Q2024.76 33.4443 2023.27 33.1202 Q2021.81 32.7556 2020.03 32.7556 Q2013.71 32.7556 2010.3 36.8875 Q2006.94 40.9789 2006.94 48.6757 L2006.94 72.576 L1999.45 72.576 L1999.45 27.2059 L2006.94 27.2059 L2006.94 34.2544 Q2009.29 30.1225 2013.06 28.1376 Q2016.83 26.1121 2022.21 26.1121 Q2022.98 26.1121 2023.91 26.2337 Q2024.85 26.3147 2025.98 26.5172 L2026.02 34.1734 Z" fill="#000000" fill-rule="nonzero" fill-opacity="1" /><path clip-path="url(#clip200)" d="M2062.24 49.3643 Q2062.24 41.2625 2058.87 36.8065 Q2055.55 32.3505 2049.52 32.3505 Q2043.52 32.3505 2040.16 36.8065 Q2036.84 41.2625 2036.84 49.3643 Q2036.84 57.4256 2040.16 61.8816 Q2043.52 66.3376 2049.52 66.3376 Q2055.55 66.3376 2058.87 61.8816 Q2062.24 57.4256 2062.24 49.3643 M2069.69 66.9452 Q2069.69 78.5308 2064.54 84.1616 Q2059.4 89.8329 2048.79 89.8329 Q2044.86 89.8329 2041.37 89.2252 Q2037.89 88.6581 2034.61 87.4428 L2034.61 80.1917 Q2037.89 81.9741 2041.09 82.8248 Q2044.29 83.6755 2047.61 83.6755 Q2054.94 83.6755 2058.59 79.8271 Q2062.24 76.0193 2062.24 68.282 L2062.24 64.5957 Q2059.93 68.6061 2056.32 70.5911 Q2052.72 72.576 2047.69 72.576 Q2039.35 72.576 2034.24 66.2161 Q2029.14 59.8562 2029.14 49.3643 Q2029.14 38.832 2034.24 32.472 Q2039.35 26.1121 2047.69 26.1121 Q2052.72 26.1121 2056.32 28.0971 Q2059.93 30.082 2062.24 34.0924 L2062.24 27.2059 L2069.69 27.2059 L2069.69 66.9452 Z" fill="#000000" fill-rule="nonzero" fill-opacity="1" /><path clip-path="url(#clip200)" d="M2123.85 48.0275 L2123.85 51.6733 L2089.58 51.6733 Q2090.07 59.3701 2094.2 63.421 Q2098.37 67.4314 2105.78 67.4314 Q2110.08 67.4314 2114.09 66.3781 Q2118.14 65.3249 2122.11 63.2184 L2122.11 70.267 Q2118.1 71.9684 2113.88 72.8596 Q2109.67 73.7508 2105.34 73.7508 Q2094.48 73.7508 2088.12 67.4314 Q2081.8 61.1119 2081.8 50.3365 Q2081.8 39.1965 2087.8 32.6746 Q2093.83 26.1121 2104.04 26.1121 Q2113.2 26.1121 2118.5 32.0264 Q2123.85 37.9003 2123.85 48.0275 M2116.4 45.84 Q2116.32 39.7232 2112.95 36.0774 Q2109.63 32.4315 2104.12 32.4315 Q2097.88 32.4315 2094.12 35.9558 Q2090.39 39.4801 2089.82 45.8805 L2116.4 45.84 Z" fill="#000000" fill-rule="nonzero" fill-opacity="1" /><path clip-path="url(#clip200)" d="M2173.8 45.1919 L2173.8 72.576 L2166.34 72.576 L2166.34 45.4349 Q2166.34 38.994 2163.83 35.7938 Q2161.32 32.5936 2156.3 32.5936 Q2150.26 32.5936 2146.78 36.4419 Q2143.29 40.2903 2143.29 46.9338 L2143.29 72.576 L2135.8 72.576 L2135.8 27.2059 L2143.29 27.2059 L2143.29 34.2544 Q2145.97 30.163 2149.57 28.1376 Q2153.22 26.1121 2157.96 26.1121 Q2165.78 26.1121 2169.79 30.9732 Q2173.8 35.7938 2173.8 45.1919 Z" fill="#000000" fill-rule="nonzero" fill-opacity="1" /><path clip-path="url(#clip200)" d="M2221.31 28.9478 L2221.31 35.9153 Q2218.16 34.1734 2214.95 33.3227 Q2211.8 32.4315 2208.55 32.4315 Q2201.3 32.4315 2197.29 37.0496 Q2193.28 41.6271 2193.28 49.9314 Q2193.28 58.2358 2197.29 62.8538 Q2201.3 67.4314 2208.55 67.4314 Q2211.8 67.4314 2214.95 66.5807 Q2218.16 65.6895 2221.31 63.9476 L2221.31 70.8341 Q2218.2 72.2924 2214.83 73.0216 Q2211.51 73.7508 2207.74 73.7508 Q2197.5 73.7508 2191.46 67.3098 Q2185.42 60.8689 2185.42 49.9314 Q2185.42 38.832 2191.5 32.472 Q2197.62 26.1121 2208.23 26.1121 Q2211.67 26.1121 2214.95 26.8413 Q2218.24 27.5299 2221.31 28.9478 Z" fill="#000000" fill-rule="nonzero" fill-opacity="1" /><path clip-path="url(#clip200)" d="M2273.09 48.0275 L2273.09 51.6733 L2238.81 51.6733 Q2239.3 59.3701 2243.43 63.421 Q2247.61 67.4314 2255.02 67.4314 Q2259.31 67.4314 2263.32 66.3781 Q2267.37 65.3249 2271.34 63.2184 L2271.34 70.267 Q2267.33 71.9684 2263.12 72.8596 Q2258.91 73.7508 2254.57 73.7508 Q2243.72 73.7508 2237.36 67.4314 Q2231.04 61.1119 2231.04 50.3365 Q2231.04 39.1965 2237.03 32.6746 Q2243.07 26.1121 2253.28 26.1121 Q2262.43 26.1121 2267.74 32.0264 Q2273.09 37.9003 2273.09 48.0275 M2265.63 45.84 Q2265.55 39.7232 2262.19 36.0774 Q2258.87 32.4315 2253.36 32.4315 Q2247.12 32.4315 2243.35 35.9558 Q2239.62 39.4801 2239.06 45.8805 L2265.63 45.84 Z" fill="#000000" fill-rule="nonzero" fill-opacity="1" /><polyline clip-path="url(#clip202)" style="stroke:#ff0000; stroke-linecap:round; stroke-linejoin:round; stroke-width:8; stroke-opacity:1; fill:none" points="301.869,1141.73 321.982,1043.13 342.095,1071.87 362.207,1212.53 382.32,1180.05 402.432,909.177 422.545,776.149 442.658,1127.46 462.77,1098 482.883,1226.44 502.996,949.792 523.108,1228.54 543.221,1081.46 563.334,1189.51 583.446,1355.69 603.559,1120.71 623.672,1188.34 643.784,1250.76 663.897,1273.44 684.01,1195.32 704.122,1160.45 724.235,1103.99 744.347,1301.65 764.46,1016.83 784.573,1337.1 804.685,1285.7 824.798,803.463 844.911,1386.4 865.023,1089.46 885.136,1194.05 905.249,1110.42 925.361,1208.52 945.474,1096.33 965.587,1223.94 985.699,1144.65 1005.81,1054.3 1025.92,1079.99 1046.04,1282.09 1066.15,1059.37 1086.26,1197.74 1106.38,1081.94 1126.49,1224.55 1146.6,1192.04 1166.71,1170.3 1186.83,1274.46 1206.94,1153.7 1227.05,984.717 1247.16,1057.34 1267.28,1162.58 1287.39,1216.8 1307.5,1029.77 1327.61,1202.74 1347.73,1296.03 1367.84,922.101 1387.95,1154.97 1408.06,1342.23 1428.18,1064.43 1448.29,973.465 1468.4,1223.3 1488.52,1191.55 1508.63,895.893 1528.74,1251.17 1548.85,1195.48 1568.97,1174.64 1589.08,831.555 1609.19,1141.21 1629.3,1082.56 1649.42,1280.22 1669.53,1276.1 1689.64,969.723 1709.75,1158.98 1729.87,1233.44 1749.98,1146.94 1770.09,1211.96 1790.21,889.209 1810.32,1151.43 1830.43,1286.9 1850.54,1260.46 1870.66,1167.28 1890.77,1229.31 1910.88,997.296 1930.99,1030.76 1951.11,805.141 1971.22,1149.95 1991.33,1217.65 2011.44,1223.59 2031.56,1089.14 2051.67,801.514 2071.78,1077.66 2091.89,1161.33 2112.01,1102.02 2132.12,1319.31 2152.23,1092 2172.35,1271.77 2192.46,1007.88 2212.57,1142.85 2232.68,780.617 2252.8,1291.89 2272.91,992.925 2293.02,1319.52 "/>
<polyline clip-path="url(#clip202)" style="stroke:#0000ff; stroke-linecap:round; stroke-linejoin:round; stroke-width:8; stroke-opacity:1; fill:none" points="301.869,404.922 321.982,503.522 342.095,474.78 362.207,334.12 382.32,366.6 402.432,637.475 422.545,770.503 442.658,419.195 462.77,448.654 482.883,320.211 502.996,596.86 523.108,318.107 543.221,465.188 563.334,357.144 583.446,190.957 603.559,425.939 623.672,358.312 643.784,295.89 663.897,273.211 684.01,351.329 704.122,386.199 724.235,442.663 744.347,245 764.46,529.819 784.573,209.551 804.685,260.949 824.798,743.189 844.911,160.256 865.023,457.194 885.136,352.601 905.249,436.232 925.361,338.131 945.474,450.321 965.587,322.71 985.699,402.003 1005.81,492.354 1025.92,466.66 1046.04,264.566 1066.15,487.281 1086.26,348.915 1106.38,464.715 1126.49,322.106 1146.6,354.613 1166.71,376.355 1186.83,272.188 1206.94,392.957 1227.05,561.935 1247.16,489.312 1267.28,384.077 1287.39,329.848 1307.5,516.884 1327.61,343.911 1347.73,250.617 1367.84,624.551 1387.95,391.679 1408.06,204.424 1428.18,482.217 1448.29,573.187 1468.4,323.354 1488.52,355.104 1508.63,650.759 1528.74,295.477 1548.85,351.175 1568.97,372.009 1589.08,715.097 1609.19,405.444 1629.3,464.087 1649.42,266.433 1669.53,270.552 1689.64,576.929 1709.75,387.67 1729.87,313.213 1749.98,399.707 1770.09,334.696 1790.21,657.443 1810.32,395.221 1830.43,259.755 1850.54,286.197 1870.66,379.369 1890.77,317.344 1910.88,549.356 1930.99,515.893 1951.11,741.511 1971.22,396.699 1991.33,328.998 2011.44,323.063 2031.56,457.516 2051.67,745.137 2071.78,468.987 2091.89,385.326 2112.01,444.631 2132.12,227.34 2152.23,454.653 2172.35,274.883 2192.46,538.774 2212.57,403.799 2232.68,766.035 2252.8,254.759 2272.91,553.727 2293.02,227.13 "/>
<path clip-path="url(#clip200)" d="M312.489 322.316 L1026.02 322.316 L1026.02 166.796 L312.489 166.796  Z" fill="#ffffff" fill-rule="evenodd" fill-opacity="1"/>
<polyline clip-path="url(#clip200)" style="stroke:#000000; stroke-linecap:round; stroke-linejoin:round; stroke-width:4; stroke-opacity:1; fill:none" points="312.489,322.316 1026.02,322.316 1026.02,166.796 312.489,166.796 312.489,322.316 "/>
<polyline clip-path="url(#clip200)" style="stroke:#ff0000; stroke-linecap:round; stroke-linejoin:round; stroke-width:8; stroke-opacity:1; fill:none" points="335.94,218.636 476.648,218.636 "/>
<path clip-path="url(#clip200)" d="M515.933 205.962 L509.59 223.161 L522.298 223.161 L515.933 205.962 M513.294 201.356 L518.595 201.356 L531.766 235.916 L526.905 235.916 L523.757 227.05 L508.178 227.05 L505.03 235.916 L500.099 235.916 L513.294 201.356 Z" fill="#000000" fill-rule="nonzero" fill-opacity="1" /><path clip-path="url(#clip200)" d="M552.854 213.925 L552.854 199.897 L557.113 199.897 L557.113 235.916 L552.854 235.916 L552.854 232.027 Q551.511 234.342 549.451 235.476 Q547.414 236.587 544.544 236.587 Q539.845 236.587 536.882 232.837 Q533.942 229.087 533.942 222.976 Q533.942 216.865 536.882 213.115 Q539.845 209.365 544.544 209.365 Q547.414 209.365 549.451 210.499 Q551.511 211.61 552.854 213.925 M538.34 222.976 Q538.34 227.675 540.261 230.36 Q542.206 233.022 545.585 233.022 Q548.965 233.022 550.909 230.36 Q552.854 227.675 552.854 222.976 Q552.854 218.277 550.909 215.615 Q548.965 212.93 545.585 212.93 Q542.206 212.93 540.261 215.615 Q538.34 218.277 538.34 222.976 Z" fill="#000000" fill-rule="nonzero" fill-opacity="1" /><path clip-path="url(#clip200)" d="M562.831 209.99 L567.344 209.99 L575.446 231.749 L583.548 209.99 L588.062 209.99 L578.34 235.916 L572.553 235.916 L562.831 209.99 Z" fill="#000000" fill-rule="nonzero" fill-opacity="1" /><path clip-path="url(#clip200)" d="M616.117 221.888 L616.117 223.971 L596.534 223.971 Q596.812 228.369 599.173 230.684 Q601.557 232.976 605.793 232.976 Q608.247 232.976 610.539 232.374 Q612.854 231.772 615.122 230.569 L615.122 234.596 Q612.83 235.568 610.423 236.078 Q608.016 236.587 605.539 236.587 Q599.335 236.587 595.701 232.976 Q592.09 229.365 592.09 223.207 Q592.09 216.842 595.516 213.115 Q598.965 209.365 604.798 209.365 Q610.029 209.365 613.062 212.745 Q616.117 216.101 616.117 221.888 M611.858 220.638 Q611.812 217.143 609.891 215.059 Q607.992 212.976 604.844 212.976 Q601.279 212.976 599.127 214.99 Q596.997 217.004 596.673 220.661 L611.858 220.638 Z" fill="#000000" fill-rule="nonzero" fill-opacity="1" /><path clip-path="url(#clip200)" d="M638.131 213.971 Q637.414 213.555 636.557 213.37 Q635.724 213.161 634.705 213.161 Q631.094 213.161 629.15 215.522 Q627.228 217.86 627.228 222.258 L627.228 235.916 L622.946 235.916 L622.946 209.99 L627.228 209.99 L627.228 214.018 Q628.571 211.657 630.724 210.522 Q632.877 209.365 635.955 209.365 Q636.395 209.365 636.927 209.434 Q637.46 209.481 638.108 209.596 L638.131 213.971 Z" fill="#000000" fill-rule="nonzero" fill-opacity="1" /><path clip-path="url(#clip200)" d="M659.126 210.754 L659.126 214.782 Q657.321 213.856 655.376 213.393 Q653.432 212.93 651.349 212.93 Q648.177 212.93 646.58 213.902 Q645.006 214.874 645.006 216.819 Q645.006 218.3 646.14 219.157 Q647.275 219.99 650.701 220.754 L652.159 221.078 Q656.696 222.05 658.594 223.832 Q660.515 225.592 660.515 228.763 Q660.515 232.374 657.645 234.481 Q654.798 236.587 649.798 236.587 Q647.714 236.587 645.446 236.17 Q643.201 235.777 640.701 234.967 L640.701 230.569 Q643.062 231.795 645.353 232.42 Q647.645 233.022 649.89 233.022 Q652.9 233.022 654.52 232.004 Q656.14 230.962 656.14 229.087 Q656.14 227.351 654.96 226.425 Q653.802 225.499 649.844 224.643 L648.363 224.295 Q644.404 223.462 642.645 221.749 Q640.886 220.013 640.886 217.004 Q640.886 213.346 643.478 211.356 Q646.071 209.365 650.839 209.365 Q653.201 209.365 655.284 209.712 Q657.367 210.059 659.126 210.754 Z" fill="#000000" fill-rule="nonzero" fill-opacity="1" /><path clip-path="url(#clip200)" d="M679.08 222.883 Q673.918 222.883 671.927 224.064 Q669.937 225.244 669.937 228.092 Q669.937 230.36 671.418 231.703 Q672.923 233.022 675.492 233.022 Q679.034 233.022 681.163 230.522 Q683.316 227.999 683.316 223.832 L683.316 222.883 L679.08 222.883 M687.575 221.124 L687.575 235.916 L683.316 235.916 L683.316 231.981 Q681.858 234.342 679.682 235.476 Q677.506 236.587 674.358 236.587 Q670.376 236.587 668.015 234.365 Q665.677 232.119 665.677 228.369 Q665.677 223.994 668.594 221.772 Q671.534 219.55 677.344 219.55 L683.316 219.55 L683.316 219.133 Q683.316 216.194 681.372 214.596 Q679.45 212.976 675.955 212.976 Q673.733 212.976 671.626 213.508 Q669.52 214.041 667.575 215.106 L667.575 211.17 Q669.913 210.268 672.112 209.828 Q674.312 209.365 676.395 209.365 Q682.02 209.365 684.798 212.282 Q687.575 215.198 687.575 221.124 Z" fill="#000000" fill-rule="nonzero" fill-opacity="1" /><path clip-path="url(#clip200)" d="M711.371 213.971 Q710.654 213.555 709.797 213.37 Q708.964 213.161 707.946 213.161 Q704.335 213.161 702.39 215.522 Q700.469 217.86 700.469 222.258 L700.469 235.916 L696.186 235.916 L696.186 209.99 L700.469 209.99 L700.469 214.018 Q701.811 211.657 703.964 210.522 Q706.117 209.365 709.196 209.365 Q709.635 209.365 710.168 209.434 Q710.7 209.481 711.348 209.596 L711.371 213.971 Z" fill="#000000" fill-rule="nonzero" fill-opacity="1" /><path clip-path="url(#clip200)" d="M715.839 209.99 L720.098 209.99 L720.098 235.916 L715.839 235.916 L715.839 209.99 M715.839 199.897 L720.098 199.897 L720.098 205.291 L715.839 205.291 L715.839 199.897 Z" fill="#000000" fill-rule="nonzero" fill-opacity="1" /><path clip-path="url(#clip200)" d="M740.793 222.883 Q735.631 222.883 733.64 224.064 Q731.649 225.244 731.649 228.092 Q731.649 230.36 733.131 231.703 Q734.635 233.022 737.205 233.022 Q740.746 233.022 742.876 230.522 Q745.029 227.999 745.029 223.832 L745.029 222.883 L740.793 222.883 M749.288 221.124 L749.288 235.916 L745.029 235.916 L745.029 231.981 Q743.57 234.342 741.394 235.476 Q739.219 236.587 736.07 236.587 Q732.089 236.587 729.728 234.365 Q727.39 232.119 727.39 228.369 Q727.39 223.994 730.307 221.772 Q733.246 219.55 739.057 219.55 L745.029 219.55 L745.029 219.133 Q745.029 216.194 743.084 214.596 Q741.163 212.976 737.668 212.976 Q735.445 212.976 733.339 213.508 Q731.233 214.041 729.288 215.106 L729.288 211.17 Q731.626 210.268 733.825 209.828 Q736.024 209.365 738.107 209.365 Q743.732 209.365 746.51 212.282 Q749.288 215.198 749.288 221.124 Z" fill="#000000" fill-rule="nonzero" fill-opacity="1" /><path clip-path="url(#clip200)" d="M758.061 199.897 L762.32 199.897 L762.32 235.916 L758.061 235.916 L758.061 199.897 Z" fill="#000000" fill-rule="nonzero" fill-opacity="1" /><path clip-path="url(#clip200)" d="M796.533 199.944 Q793.431 205.268 791.927 210.476 Q790.422 215.684 790.422 221.032 Q790.422 226.379 791.927 231.633 Q793.454 236.865 796.533 242.166 L792.829 242.166 Q789.357 236.726 787.621 231.471 Q785.908 226.217 785.908 221.032 Q785.908 215.87 787.621 210.638 Q789.334 205.407 792.829 199.944 L796.533 199.944 Z" fill="#000000" fill-rule="nonzero" fill-opacity="1" /><path clip-path="url(#clip200)" d="M816.533 205.962 L810.19 223.161 L822.899 223.161 L816.533 205.962 M813.894 201.356 L819.195 201.356 L832.366 235.916 L827.505 235.916 L824.357 227.05 L808.778 227.05 L805.63 235.916 L800.7 235.916 L813.894 201.356 Z" fill="#000000" fill-rule="nonzero" fill-opacity="1" /><path clip-path="url(#clip200)" d="M854.287 222.652 Q854.287 218.022 852.366 215.476 Q850.468 212.93 847.019 212.93 Q843.593 212.93 841.672 215.476 Q839.774 218.022 839.774 222.652 Q839.774 227.258 841.672 229.805 Q843.593 232.351 847.019 232.351 Q850.468 232.351 852.366 229.805 Q854.287 227.258 854.287 222.652 M858.547 232.698 Q858.547 239.318 855.607 242.536 Q852.667 245.777 846.602 245.777 Q844.357 245.777 842.366 245.43 Q840.375 245.105 838.5 244.411 L838.5 240.268 Q840.375 241.286 842.204 241.772 Q844.033 242.258 845.931 242.258 Q850.121 242.258 852.204 240.059 Q854.287 237.883 854.287 233.462 L854.287 231.356 Q852.968 233.647 850.908 234.781 Q848.848 235.916 845.977 235.916 Q841.209 235.916 838.292 232.281 Q835.375 228.647 835.375 222.652 Q835.375 216.633 838.292 212.999 Q841.209 209.365 845.977 209.365 Q848.848 209.365 850.908 210.499 Q852.968 211.633 854.287 213.925 L854.287 209.99 L858.547 209.99 L858.547 232.698 Z" fill="#000000" fill-rule="nonzero" fill-opacity="1" /><path clip-path="url(#clip200)" d="M889.496 221.888 L889.496 223.971 L869.912 223.971 Q870.19 228.369 872.551 230.684 Q874.935 232.976 879.172 232.976 Q881.625 232.976 883.917 232.374 Q886.232 231.772 888.5 230.569 L888.5 234.596 Q886.209 235.568 883.801 236.078 Q881.394 236.587 878.917 236.587 Q872.713 236.587 869.079 232.976 Q865.468 229.365 865.468 223.207 Q865.468 216.842 868.894 213.115 Q872.343 209.365 878.176 209.365 Q883.408 209.365 886.44 212.745 Q889.496 216.101 889.496 221.888 M885.236 220.638 Q885.19 217.143 883.269 215.059 Q881.371 212.976 878.222 212.976 Q874.658 212.976 872.505 214.99 Q870.375 217.004 870.051 220.661 L885.236 220.638 Z" fill="#000000" fill-rule="nonzero" fill-opacity="1" /><path clip-path="url(#clip200)" d="M918.037 220.268 L918.037 235.916 L913.778 235.916 L913.778 220.407 Q913.778 216.726 912.343 214.897 Q910.907 213.069 908.037 213.069 Q904.588 213.069 902.597 215.268 Q900.607 217.467 900.607 221.263 L900.607 235.916 L896.324 235.916 L896.324 209.99 L900.607 209.99 L900.607 214.018 Q902.134 211.68 904.195 210.522 Q906.278 209.365 908.986 209.365 Q913.454 209.365 915.745 212.143 Q918.037 214.897 918.037 220.268 Z" fill="#000000" fill-rule="nonzero" fill-opacity="1" /><path clip-path="url(#clip200)" d="M930.745 202.629 L930.745 209.99 L939.518 209.99 L939.518 213.3 L930.745 213.3 L930.745 227.374 Q930.745 230.545 931.602 231.448 Q932.481 232.351 935.143 232.351 L939.518 232.351 L939.518 235.916 L935.143 235.916 Q930.213 235.916 928.338 234.087 Q926.463 232.235 926.463 227.374 L926.463 213.3 L923.338 213.3 L923.338 209.99 L926.463 209.99 L926.463 202.629 L930.745 202.629 Z" fill="#000000" fill-rule="nonzero" fill-opacity="1" /><path clip-path="url(#clip200)" d="M971.926 205.962 L965.583 223.161 L978.291 223.161 L971.926 205.962 M969.287 201.356 L974.588 201.356 L987.759 235.916 L982.898 235.916 L979.75 227.05 L964.171 227.05 L961.023 235.916 L956.092 235.916 L969.287 201.356 Z" fill="#000000" fill-rule="nonzero" fill-opacity="1" /><path clip-path="url(#clip200)" d="M991.949 199.944 L995.652 199.944 Q999.125 205.407 1000.84 210.638 Q1002.57 215.87 1002.57 221.032 Q1002.57 226.217 1000.84 231.471 Q999.125 236.726 995.652 242.166 L991.949 242.166 Q995.027 236.865 996.532 231.633 Q998.06 226.379 998.06 221.032 Q998.06 215.684 996.532 210.476 Q995.027 205.268 991.949 199.944 Z" fill="#000000" fill-rule="nonzero" fill-opacity="1" /><polyline clip-path="url(#clip200)" style="stroke:#0000ff; stroke-linecap:round; stroke-linejoin:round; stroke-width:8; stroke-opacity:1; fill:none" points="335.94,270.476 476.648,270.476 "/>
<path clip-path="url(#clip200)" d="M522.345 254.33 L522.345 258.89 Q519.683 257.617 517.322 256.992 Q514.961 256.367 512.761 256.367 Q508.942 256.367 506.859 257.848 Q504.799 259.33 504.799 262.061 Q504.799 264.353 506.164 265.534 Q507.553 266.691 511.396 267.409 L514.22 267.987 Q519.451 268.983 521.928 271.506 Q524.428 274.006 524.428 278.219 Q524.428 283.242 521.048 285.834 Q517.692 288.427 511.187 288.427 Q508.734 288.427 505.956 287.871 Q503.201 287.316 500.238 286.228 L500.238 281.413 Q503.086 283.01 505.817 283.821 Q508.549 284.631 511.187 284.631 Q515.192 284.631 517.368 283.057 Q519.544 281.483 519.544 278.566 Q519.544 276.02 517.97 274.584 Q516.419 273.149 512.854 272.432 L510.007 271.876 Q504.775 270.835 502.437 268.612 Q500.099 266.39 500.099 262.432 Q500.099 257.848 503.317 255.21 Q506.558 252.571 512.229 252.571 Q514.66 252.571 517.183 253.011 Q519.706 253.45 522.345 254.33 Z" fill="#000000" fill-rule="nonzero" fill-opacity="1" /><path clip-path="url(#clip200)" d="M535.747 254.469 L535.747 261.83 L544.521 261.83 L544.521 265.14 L535.747 265.14 L535.747 279.214 Q535.747 282.385 536.604 283.288 Q537.484 284.191 540.146 284.191 L544.521 284.191 L544.521 287.756 L540.146 287.756 Q535.215 287.756 533.34 285.927 Q531.465 284.075 531.465 279.214 L531.465 265.14 L528.34 265.14 L528.34 261.83 L531.465 261.83 L531.465 254.469 L535.747 254.469 Z" fill="#000000" fill-rule="nonzero" fill-opacity="1" /><path clip-path="url(#clip200)" d="M561.905 274.723 Q556.743 274.723 554.752 275.904 Q552.761 277.084 552.761 279.932 Q552.761 282.2 554.243 283.543 Q555.747 284.862 558.317 284.862 Q561.858 284.862 563.988 282.362 Q566.141 279.839 566.141 275.672 L566.141 274.723 L561.905 274.723 M570.4 272.964 L570.4 287.756 L566.141 287.756 L566.141 283.821 Q564.682 286.182 562.507 287.316 Q560.331 288.427 557.183 288.427 Q553.201 288.427 550.84 286.205 Q548.502 283.959 548.502 280.209 Q548.502 275.834 551.419 273.612 Q554.358 271.39 560.169 271.39 L566.141 271.39 L566.141 270.973 Q566.141 268.034 564.196 266.436 Q562.275 264.816 558.78 264.816 Q556.558 264.816 554.451 265.348 Q552.345 265.881 550.4 266.946 L550.4 263.01 Q552.738 262.108 554.937 261.668 Q557.136 261.205 559.22 261.205 Q564.845 261.205 567.622 264.122 Q570.4 267.038 570.4 272.964 Z" fill="#000000" fill-rule="nonzero" fill-opacity="1" /><path clip-path="url(#clip200)" d="M600.724 272.108 L600.724 287.756 L596.465 287.756 L596.465 272.247 Q596.465 268.566 595.03 266.737 Q593.594 264.909 590.724 264.909 Q587.275 264.909 585.284 267.108 Q583.293 269.307 583.293 273.103 L583.293 287.756 L579.011 287.756 L579.011 261.83 L583.293 261.83 L583.293 265.858 Q584.821 263.52 586.881 262.362 Q588.965 261.205 591.673 261.205 Q596.141 261.205 598.432 263.983 Q600.724 266.737 600.724 272.108 Z" fill="#000000" fill-rule="nonzero" fill-opacity="1" /><path clip-path="url(#clip200)" d="M626.279 265.765 L626.279 251.737 L630.539 251.737 L630.539 287.756 L626.279 287.756 L626.279 283.867 Q624.937 286.182 622.877 287.316 Q620.84 288.427 617.969 288.427 Q613.27 288.427 610.307 284.677 Q607.367 280.927 607.367 274.816 Q607.367 268.705 610.307 264.955 Q613.27 261.205 617.969 261.205 Q620.84 261.205 622.877 262.339 Q624.937 263.45 626.279 265.765 M611.766 274.816 Q611.766 279.515 613.687 282.2 Q615.631 284.862 619.011 284.862 Q622.39 284.862 624.335 282.2 Q626.279 279.515 626.279 274.816 Q626.279 270.117 624.335 267.455 Q622.39 264.77 619.011 264.77 Q615.631 264.77 613.687 267.455 Q611.766 270.117 611.766 274.816 Z" fill="#000000" fill-rule="nonzero" fill-opacity="1" /><path clip-path="url(#clip200)" d="M651.094 274.723 Q645.932 274.723 643.941 275.904 Q641.951 277.084 641.951 279.932 Q641.951 282.2 643.432 283.543 Q644.937 284.862 647.506 284.862 Q651.048 284.862 653.177 282.362 Q655.33 279.839 655.33 275.672 L655.33 274.723 L651.094 274.723 M659.589 272.964 L659.589 287.756 L655.33 287.756 L655.33 283.821 Q653.872 286.182 651.696 287.316 Q649.52 288.427 646.372 288.427 Q642.39 288.427 640.029 286.205 Q637.691 283.959 637.691 280.209 Q637.691 275.834 640.608 273.612 Q643.548 271.39 649.358 271.39 L655.33 271.39 L655.33 270.973 Q655.33 268.034 653.386 266.436 Q651.464 264.816 647.969 264.816 Q645.747 264.816 643.64 265.348 Q641.534 265.881 639.589 266.946 L639.589 263.01 Q641.927 262.108 644.126 261.668 Q646.326 261.205 648.409 261.205 Q654.034 261.205 656.812 264.122 Q659.589 267.038 659.589 272.964 Z" fill="#000000" fill-rule="nonzero" fill-opacity="1" /><path clip-path="url(#clip200)" d="M683.386 265.811 Q682.668 265.395 681.811 265.21 Q680.978 265.001 679.96 265.001 Q676.349 265.001 674.404 267.362 Q672.483 269.7 672.483 274.098 L672.483 287.756 L668.2 287.756 L668.2 261.83 L672.483 261.83 L672.483 265.858 Q673.825 263.497 675.978 262.362 Q678.131 261.205 681.21 261.205 Q681.649 261.205 682.182 261.274 Q682.714 261.321 683.362 261.436 L683.386 265.811 Z" fill="#000000" fill-rule="nonzero" fill-opacity="1" /><path clip-path="url(#clip200)" d="M704.08 265.765 L704.08 251.737 L708.339 251.737 L708.339 287.756 L704.08 287.756 L704.08 283.867 Q702.737 286.182 700.677 287.316 Q698.64 288.427 695.77 288.427 Q691.071 288.427 688.108 284.677 Q685.168 280.927 685.168 274.816 Q685.168 268.705 688.108 264.955 Q691.071 261.205 695.77 261.205 Q698.64 261.205 700.677 262.339 Q702.737 263.45 704.08 265.765 M689.566 274.816 Q689.566 279.515 691.487 282.2 Q693.432 284.862 696.811 284.862 Q700.191 284.862 702.135 282.2 Q704.08 279.515 704.08 274.816 Q704.08 270.117 702.135 267.455 Q700.191 264.77 696.811 264.77 Q693.432 264.77 691.487 267.455 Q689.566 270.117 689.566 274.816 Z" fill="#000000" fill-rule="nonzero" fill-opacity="1" /><path clip-path="url(#clip200)" d="M742.413 251.784 Q739.311 257.108 737.807 262.316 Q736.302 267.524 736.302 272.872 Q736.302 278.219 737.807 283.473 Q739.334 288.705 742.413 294.006 L738.709 294.006 Q735.237 288.566 733.501 283.311 Q731.788 278.057 731.788 272.872 Q731.788 267.71 733.501 262.478 Q735.214 257.247 738.709 251.784 L742.413 251.784 Z" fill="#000000" fill-rule="nonzero" fill-opacity="1" /><path clip-path="url(#clip200)" d="M762.413 257.802 L756.07 275.001 L768.779 275.001 L762.413 257.802 M759.774 253.196 L765.075 253.196 L778.246 287.756 L773.385 287.756 L770.237 278.89 L754.658 278.89 L751.51 287.756 L746.58 287.756 L759.774 253.196 Z" fill="#000000" fill-rule="nonzero" fill-opacity="1" /><path clip-path="url(#clip200)" d="M800.167 274.492 Q800.167 269.862 798.246 267.316 Q796.348 264.77 792.899 264.77 Q789.473 264.77 787.552 267.316 Q785.654 269.862 785.654 274.492 Q785.654 279.098 787.552 281.645 Q789.473 284.191 792.899 284.191 Q796.348 284.191 798.246 281.645 Q800.167 279.098 800.167 274.492 M804.427 284.538 Q804.427 291.158 801.487 294.376 Q798.547 297.617 792.482 297.617 Q790.237 297.617 788.246 297.27 Q786.255 296.945 784.38 296.251 L784.38 292.108 Q786.255 293.126 788.084 293.612 Q789.913 294.098 791.811 294.098 Q796.001 294.098 798.084 291.899 Q800.167 289.723 800.167 285.302 L800.167 283.196 Q798.848 285.487 796.788 286.621 Q794.728 287.756 791.857 287.756 Q787.089 287.756 784.172 284.121 Q781.255 280.487 781.255 274.492 Q781.255 268.473 784.172 264.839 Q787.089 261.205 791.857 261.205 Q794.728 261.205 796.788 262.339 Q798.848 263.473 800.167 265.765 L800.167 261.83 L804.427 261.83 L804.427 284.538 Z" fill="#000000" fill-rule="nonzero" fill-opacity="1" /><path clip-path="url(#clip200)" d="M835.375 273.728 L835.375 275.811 L815.792 275.811 Q816.07 280.209 818.431 282.524 Q820.815 284.816 825.051 284.816 Q827.505 284.816 829.797 284.214 Q832.112 283.612 834.38 282.409 L834.38 286.436 Q832.088 287.408 829.681 287.918 Q827.274 288.427 824.797 288.427 Q818.593 288.427 814.959 284.816 Q811.348 281.205 811.348 275.047 Q811.348 268.682 814.774 264.955 Q818.223 261.205 824.056 261.205 Q829.288 261.205 832.32 264.585 Q835.375 267.941 835.375 273.728 M831.116 272.478 Q831.07 268.983 829.149 266.899 Q827.251 264.816 824.102 264.816 Q820.538 264.816 818.385 266.83 Q816.255 268.844 815.931 272.501 L831.116 272.478 Z" fill="#000000" fill-rule="nonzero" fill-opacity="1" /><path clip-path="url(#clip200)" d="M863.917 272.108 L863.917 287.756 L859.658 287.756 L859.658 272.247 Q859.658 268.566 858.223 266.737 Q856.787 264.909 853.917 264.909 Q850.468 264.909 848.477 267.108 Q846.487 269.307 846.487 273.103 L846.487 287.756 L842.204 287.756 L842.204 261.83 L846.487 261.83 L846.487 265.858 Q848.014 263.52 850.074 262.362 Q852.158 261.205 854.866 261.205 Q859.334 261.205 861.625 263.983 Q863.917 266.737 863.917 272.108 Z" fill="#000000" fill-rule="nonzero" fill-opacity="1" /><path clip-path="url(#clip200)" d="M876.625 254.469 L876.625 261.83 L885.398 261.83 L885.398 265.14 L876.625 265.14 L876.625 279.214 Q876.625 282.385 877.482 283.288 Q878.361 284.191 881.023 284.191 L885.398 284.191 L885.398 287.756 L881.023 287.756 Q876.093 287.756 874.218 285.927 Q872.343 284.075 872.343 279.214 L872.343 265.14 L869.218 265.14 L869.218 261.83 L872.343 261.83 L872.343 254.469 L876.625 254.469 Z" fill="#000000" fill-rule="nonzero" fill-opacity="1" /><path clip-path="url(#clip200)" d="M910.931 271.251 L910.931 283.913 L918.431 283.913 Q922.204 283.913 924.009 282.362 Q925.838 280.788 925.838 277.571 Q925.838 274.33 924.009 272.802 Q922.204 271.251 918.431 271.251 L910.931 271.251 M910.931 257.038 L910.931 267.455 L917.852 267.455 Q921.278 267.455 922.944 266.182 Q924.634 264.885 924.634 262.247 Q924.634 259.631 922.944 258.335 Q921.278 257.038 917.852 257.038 L910.931 257.038 M906.255 253.196 L918.199 253.196 Q923.546 253.196 926.44 255.418 Q929.333 257.64 929.333 261.737 Q929.333 264.909 927.852 266.784 Q926.37 268.659 923.5 269.122 Q926.949 269.862 928.847 272.223 Q930.768 274.561 930.768 278.08 Q930.768 282.709 927.62 285.233 Q924.472 287.756 918.662 287.756 L906.255 287.756 L906.255 253.196 Z" fill="#000000" fill-rule="nonzero" fill-opacity="1" /><path clip-path="url(#clip200)" d="M937.921 251.784 L941.625 251.784 Q945.097 257.247 946.81 262.478 Q948.546 267.71 948.546 272.872 Q948.546 278.057 946.81 283.311 Q945.097 288.566 941.625 294.006 L937.921 294.006 Q941 288.705 942.505 283.473 Q944.032 278.219 944.032 272.872 Q944.032 267.524 942.505 262.316 Q941 257.108 937.921 251.784 Z" fill="#000000" fill-rule="nonzero" fill-opacity="1" /></svg>
