<?xml version="1.0" encoding="utf-8"?>
<svg xmlns="http://www.w3.org/2000/svg" xmlns:xlink="http://www.w3.org/1999/xlink" width="600" height="400" viewBox="0 0 2400 1600">
<defs>
  <clipPath id="clip650">
    <rect x="0" y="0" width="2400" height="1600"/>
  </clipPath>
</defs>
<path clip-path="url(#clip650)" d="M0 1600 L2400 1600 L2400 8.88178e-14 L0 8.88178e-14  Z" fill="#ffffff" fill-rule="evenodd" fill-opacity="1"/>
<defs>
  <clipPath id="clip651">
    <rect x="480" y="0" width="1681" height="1600"/>
  </clipPath>
</defs>
<path clip-path="url(#clip650)" d="M156.112 1486.45 L2352.76 1486.45 L2352.76 123.472 L156.112 123.472  Z" fill="#ffffff" fill-rule="evenodd" fill-opacity="1"/>
<defs>
  <clipPath id="clip652">
    <rect x="156" y="123" width="2198" height="1364"/>
  </clipPath>
</defs>
<polyline clip-path="url(#clip652)" style="stroke:#000000; stroke-linecap:round; stroke-linejoin:round; stroke-width:2; stroke-opacity:0.1; fill:none" points="218.281,1486.45 218.281,123.472 "/>
<polyline clip-path="url(#clip652)" style="stroke:#000000; stroke-linecap:round; stroke-linejoin:round; stroke-width:2; stroke-opacity:0.1; fill:none" points="563.666,1486.45 563.666,123.472 "/>
<polyline clip-path="url(#clip652)" style="stroke:#000000; stroke-linecap:round; stroke-linejoin:round; stroke-width:2; stroke-opacity:0.1; fill:none" points="909.05,1486.45 909.05,123.472 "/>
<polyline clip-path="url(#clip652)" style="stroke:#000000; stroke-linecap:round; stroke-linejoin:round; stroke-width:2; stroke-opacity:0.1; fill:none" points="1254.43,1486.45 1254.43,123.472 "/>
<polyline clip-path="url(#clip652)" style="stroke:#000000; stroke-linecap:round; stroke-linejoin:round; stroke-width:2; stroke-opacity:0.1; fill:none" points="1599.82,1486.45 1599.82,123.472 "/>
<polyline clip-path="url(#clip652)" style="stroke:#000000; stroke-linecap:round; stroke-linejoin:round; stroke-width:2; stroke-opacity:0.1; fill:none" points="1945.2,1486.45 1945.2,123.472 "/>
<polyline clip-path="url(#clip652)" style="stroke:#000000; stroke-linecap:round; stroke-linejoin:round; stroke-width:2; stroke-opacity:0.1; fill:none" points="2290.59,1486.45 2290.59,123.472 "/>
<polyline clip-path="url(#clip652)" style="stroke:#000000; stroke-linecap:round; stroke-linejoin:round; stroke-width:2; stroke-opacity:0.1; fill:none" points="156.112,1467.98 2352.76,1467.98 "/>
<polyline clip-path="url(#clip652)" style="stroke:#000000; stroke-linecap:round; stroke-linejoin:round; stroke-width:2; stroke-opacity:0.1; fill:none" points="156.112,1089.78 2352.76,1089.78 "/>
<polyline clip-path="url(#clip652)" style="stroke:#000000; stroke-linecap:round; stroke-linejoin:round; stroke-width:2; stroke-opacity:0.1; fill:none" points="156.112,711.589 2352.76,711.589 "/>
<polyline clip-path="url(#clip652)" style="stroke:#000000; stroke-linecap:round; stroke-linejoin:round; stroke-width:2; stroke-opacity:0.1; fill:none" points="156.112,333.394 2352.76,333.394 "/>
<polyline clip-path="url(#clip650)" style="stroke:#000000; stroke-linecap:round; stroke-linejoin:round; stroke-width:4; stroke-opacity:1; fill:none" points="156.112,1486.45 2352.76,1486.45 "/>
<polyline clip-path="url(#clip650)" style="stroke:#000000; stroke-linecap:round; stroke-linejoin:round; stroke-width:4; stroke-opacity:1; fill:none" points="218.281,1486.45 218.281,1467.55 "/>
<polyline clip-path="url(#clip650)" style="stroke:#000000; stroke-linecap:round; stroke-linejoin:round; stroke-width:4; stroke-opacity:1; fill:none" points="563.666,1486.45 563.666,1467.55 "/>
<polyline clip-path="url(#clip650)" style="stroke:#000000; stroke-linecap:round; stroke-linejoin:round; stroke-width:4; stroke-opacity:1; fill:none" points="909.05,1486.45 909.05,1467.55 "/>
<polyline clip-path="url(#clip650)" style="stroke:#000000; stroke-linecap:round; stroke-linejoin:round; stroke-width:4; stroke-opacity:1; fill:none" points="1254.43,1486.45 1254.43,1467.55 "/>
<polyline clip-path="url(#clip650)" style="stroke:#000000; stroke-linecap:round; stroke-linejoin:round; stroke-width:4; stroke-opacity:1; fill:none" points="1599.82,1486.45 1599.82,1467.55 "/>
<polyline clip-path="url(#clip650)" style="stroke:#000000; stroke-linecap:round; stroke-linejoin:round; stroke-width:4; stroke-opacity:1; fill:none" points="1945.2,1486.45 1945.2,1467.55 "/>
<polyline clip-path="url(#clip650)" style="stroke:#000000; stroke-linecap:round; stroke-linejoin:round; stroke-width:4; stroke-opacity:1; fill:none" points="2290.59,1486.45 2290.59,1467.55 "/>
<path clip-path="url(#clip650)" d="M187.749 1532.02 L217.425 1532.02 L217.425 1535.95 L187.749 1535.95 L187.749 1532.02 Z" fill="#000000" fill-rule="nonzero" fill-opacity="1" /><path clip-path="url(#clip650)" d="M241.684 1530.21 Q245.04 1530.93 246.915 1533.2 Q248.814 1535.47 248.814 1538.8 Q248.814 1543.92 245.295 1546.72 Q241.777 1549.52 235.295 1549.52 Q233.119 1549.52 230.804 1549.08 Q228.513 1548.66 226.059 1547.81 L226.059 1543.29 Q228.003 1544.43 230.318 1545.01 Q232.633 1545.58 235.156 1545.58 Q239.554 1545.58 241.846 1543.85 Q244.161 1542.11 244.161 1538.8 Q244.161 1535.75 242.008 1534.03 Q239.878 1532.3 236.059 1532.3 L232.031 1532.3 L232.031 1528.45 L236.244 1528.45 Q239.693 1528.45 241.522 1527.09 Q243.351 1525.7 243.351 1523.11 Q243.351 1520.45 241.452 1519.03 Q239.577 1517.6 236.059 1517.6 Q234.138 1517.6 231.939 1518.01 Q229.74 1518.43 227.101 1519.31 L227.101 1515.14 Q229.763 1514.4 232.078 1514.03 Q234.415 1513.66 236.476 1513.66 Q241.8 1513.66 244.902 1516.09 Q248.003 1518.5 248.003 1522.62 Q248.003 1525.49 246.36 1527.48 Q244.716 1529.45 241.684 1530.21 Z" fill="#000000" fill-rule="nonzero" fill-opacity="1" /><path clip-path="url(#clip650)" d="M533.608 1532.02 L563.284 1532.02 L563.284 1535.95 L533.608 1535.95 L533.608 1532.02 Z" fill="#000000" fill-rule="nonzero" fill-opacity="1" /><path clip-path="url(#clip650)" d="M577.404 1544.91 L593.723 1544.91 L593.723 1548.85 L571.779 1548.85 L571.779 1544.91 Q574.441 1542.16 579.024 1537.53 Q583.631 1532.88 584.811 1531.53 Q587.057 1529.01 587.936 1527.27 Q588.839 1525.51 588.839 1523.82 Q588.839 1521.07 586.895 1519.33 Q584.973 1517.6 581.871 1517.6 Q579.672 1517.6 577.219 1518.36 Q574.788 1519.13 572.01 1520.68 L572.01 1515.95 Q574.834 1514.82 577.288 1514.24 Q579.742 1513.66 581.779 1513.66 Q587.149 1513.66 590.344 1516.35 Q593.538 1519.03 593.538 1523.52 Q593.538 1525.65 592.728 1527.57 Q591.941 1529.47 589.834 1532.07 Q589.256 1532.74 586.154 1535.95 Q583.052 1539.15 577.404 1544.91 Z" fill="#000000" fill-rule="nonzero" fill-opacity="1" /><path clip-path="url(#clip650)" d="M878.807 1532.02 L908.483 1532.02 L908.483 1535.95 L878.807 1535.95 L878.807 1532.02 Z" fill="#000000" fill-rule="nonzero" fill-opacity="1" /><path clip-path="url(#clip650)" d="M919.385 1544.91 L927.024 1544.91 L927.024 1518.55 L918.714 1520.21 L918.714 1515.95 L926.978 1514.29 L931.654 1514.29 L931.654 1544.91 L939.293 1544.91 L939.293 1548.85 L919.385 1548.85 L919.385 1544.91 Z" fill="#000000" fill-rule="nonzero" fill-opacity="1" /><path clip-path="url(#clip650)" d="M1254.43 1517.37 Q1250.82 1517.37 1248.99 1520.93 Q1247.19 1524.47 1247.19 1531.6 Q1247.19 1538.71 1248.99 1542.27 Q1250.82 1545.82 1254.43 1545.82 Q1258.07 1545.82 1259.87 1542.27 Q1261.7 1538.71 1261.7 1531.6 Q1261.7 1524.47 1259.87 1520.93 Q1258.07 1517.37 1254.43 1517.37 M1254.43 1513.66 Q1260.24 1513.66 1263.3 1518.27 Q1266.38 1522.85 1266.38 1531.6 Q1266.38 1540.33 1263.3 1544.94 Q1260.24 1549.52 1254.43 1549.52 Q1248.62 1549.52 1245.55 1544.94 Q1242.49 1540.33 1242.49 1531.6 Q1242.49 1522.85 1245.55 1518.27 Q1248.62 1513.66 1254.43 1513.66 Z" fill="#000000" fill-rule="nonzero" fill-opacity="1" /><path clip-path="url(#clip650)" d="M1590.2 1544.91 L1597.84 1544.91 L1597.84 1518.55 L1589.53 1520.21 L1589.53 1515.95 L1597.79 1514.29 L1602.47 1514.29 L1602.47 1544.91 L1610.11 1544.91 L1610.11 1548.85 L1590.2 1548.85 L1590.2 1544.91 Z" fill="#000000" fill-rule="nonzero" fill-opacity="1" /><path clip-path="url(#clip650)" d="M1939.86 1544.91 L1956.17 1544.91 L1956.17 1548.85 L1934.23 1548.85 L1934.23 1544.91 Q1936.89 1542.16 1941.48 1537.53 Q1946.08 1532.88 1947.26 1531.53 Q1949.51 1529.01 1950.39 1527.27 Q1951.29 1525.51 1951.29 1523.82 Q1951.29 1521.07 1949.35 1519.33 Q1947.42 1517.6 1944.32 1517.6 Q1942.12 1517.6 1939.67 1518.36 Q1937.24 1519.13 1934.46 1520.68 L1934.46 1515.95 Q1937.29 1514.82 1939.74 1514.24 Q1942.19 1513.66 1944.23 1513.66 Q1949.6 1513.66 1952.8 1516.35 Q1955.99 1519.03 1955.99 1523.52 Q1955.99 1525.65 1955.18 1527.57 Q1954.39 1529.47 1952.29 1532.07 Q1951.71 1532.74 1948.61 1535.95 Q1945.5 1539.15 1939.86 1544.91 Z" fill="#000000" fill-rule="nonzero" fill-opacity="1" /><path clip-path="url(#clip650)" d="M2294.83 1530.21 Q2298.19 1530.93 2300.07 1533.2 Q2301.96 1535.47 2301.96 1538.8 Q2301.96 1543.92 2298.45 1546.72 Q2294.93 1549.52 2288.45 1549.52 Q2286.27 1549.52 2283.95 1549.08 Q2281.66 1548.66 2279.21 1547.81 L2279.21 1543.29 Q2281.15 1544.43 2283.47 1545.01 Q2285.78 1545.58 2288.31 1545.58 Q2292.7 1545.58 2295 1543.85 Q2297.31 1542.11 2297.31 1538.8 Q2297.31 1535.75 2295.16 1534.03 Q2293.03 1532.3 2289.21 1532.3 L2285.18 1532.3 L2285.18 1528.45 L2289.39 1528.45 Q2292.84 1528.45 2294.67 1527.09 Q2296.5 1525.7 2296.5 1523.11 Q2296.5 1520.45 2294.6 1519.03 Q2292.73 1517.6 2289.21 1517.6 Q2287.29 1517.6 2285.09 1518.01 Q2282.89 1518.43 2280.25 1519.31 L2280.25 1515.14 Q2282.91 1514.4 2285.23 1514.03 Q2287.57 1513.66 2289.63 1513.66 Q2294.95 1513.66 2298.05 1516.09 Q2301.15 1518.5 2301.15 1522.62 Q2301.15 1525.49 2299.51 1527.48 Q2297.87 1529.45 2294.83 1530.21 Z" fill="#000000" fill-rule="nonzero" fill-opacity="1" /><polyline clip-path="url(#clip650)" style="stroke:#000000; stroke-linecap:round; stroke-linejoin:round; stroke-width:4; stroke-opacity:1; fill:none" points="156.112,1486.45 156.112,123.472 "/>
<polyline clip-path="url(#clip650)" style="stroke:#000000; stroke-linecap:round; stroke-linejoin:round; stroke-width:4; stroke-opacity:1; fill:none" points="156.112,1467.98 175.01,1467.98 "/>
<polyline clip-path="url(#clip650)" style="stroke:#000000; stroke-linecap:round; stroke-linejoin:round; stroke-width:4; stroke-opacity:1; fill:none" points="156.112,1089.78 175.01,1089.78 "/>
<polyline clip-path="url(#clip650)" style="stroke:#000000; stroke-linecap:round; stroke-linejoin:round; stroke-width:4; stroke-opacity:1; fill:none" points="156.112,711.589 175.01,711.589 "/>
<polyline clip-path="url(#clip650)" style="stroke:#000000; stroke-linecap:round; stroke-linejoin:round; stroke-width:4; stroke-opacity:1; fill:none" points="156.112,333.394 175.01,333.394 "/>
<path clip-path="url(#clip650)" d="M62.9365 1453.78 Q59.3254 1453.78 57.4967 1457.34 Q55.6912 1460.88 55.6912 1468.01 Q55.6912 1475.12 57.4967 1478.68 Q59.3254 1482.22 62.9365 1482.22 Q66.5707 1482.22 68.3763 1478.68 Q70.205 1475.12 70.205 1468.01 Q70.205 1460.88 68.3763 1457.34 Q66.5707 1453.78 62.9365 1453.78 M62.9365 1450.07 Q68.7467 1450.07 71.8022 1454.68 Q74.8809 1459.26 74.8809 1468.01 Q74.8809 1476.74 71.8022 1481.34 Q68.7467 1485.93 62.9365 1485.93 Q57.1264 1485.93 54.0477 1481.34 Q50.9921 1476.74 50.9921 1468.01 Q50.9921 1459.26 54.0477 1454.68 Q57.1264 1450.07 62.9365 1450.07 Z" fill="#000000" fill-rule="nonzero" fill-opacity="1" /><path clip-path="url(#clip650)" d="M83.0984 1479.38 L87.9827 1479.38 L87.9827 1485.26 L83.0984 1485.26 L83.0984 1479.38 Z" fill="#000000" fill-rule="nonzero" fill-opacity="1" /><path clip-path="url(#clip650)" d="M108.168 1453.78 Q104.557 1453.78 102.728 1457.34 Q100.922 1460.88 100.922 1468.01 Q100.922 1475.12 102.728 1478.68 Q104.557 1482.22 108.168 1482.22 Q111.802 1482.22 113.608 1478.68 Q115.436 1475.12 115.436 1468.01 Q115.436 1460.88 113.608 1457.34 Q111.802 1453.78 108.168 1453.78 M108.168 1450.07 Q113.978 1450.07 117.033 1454.68 Q120.112 1459.26 120.112 1468.01 Q120.112 1476.74 117.033 1481.34 Q113.978 1485.93 108.168 1485.93 Q102.358 1485.93 99.2789 1481.34 Q96.2234 1476.74 96.2234 1468.01 Q96.2234 1459.26 99.2789 1454.68 Q102.358 1450.07 108.168 1450.07 Z" fill="#000000" fill-rule="nonzero" fill-opacity="1" /><path clip-path="url(#clip650)" d="M63.9319 1075.58 Q60.3208 1075.58 58.4921 1079.15 Q56.6865 1082.69 56.6865 1089.82 Q56.6865 1096.92 58.4921 1100.49 Q60.3208 1104.03 63.9319 1104.03 Q67.5661 1104.03 69.3717 1100.49 Q71.2004 1096.92 71.2004 1089.82 Q71.2004 1082.69 69.3717 1079.15 Q67.5661 1075.58 63.9319 1075.58 M63.9319 1071.88 Q69.742 1071.88 72.7976 1076.48 Q75.8763 1081.07 75.8763 1089.82 Q75.8763 1098.54 72.7976 1103.15 Q69.742 1107.73 63.9319 1107.73 Q58.1217 1107.73 55.043 1103.15 Q51.9875 1098.54 51.9875 1089.82 Q51.9875 1081.07 55.043 1076.48 Q58.1217 1071.88 63.9319 1071.88 Z" fill="#000000" fill-rule="nonzero" fill-opacity="1" /><path clip-path="url(#clip650)" d="M84.0938 1101.18 L88.978 1101.18 L88.978 1107.06 L84.0938 1107.06 L84.0938 1101.18 Z" fill="#000000" fill-rule="nonzero" fill-opacity="1" /><path clip-path="url(#clip650)" d="M99.2095 1072.5 L117.566 1072.5 L117.566 1076.44 L103.492 1076.44 L103.492 1084.91 Q104.51 1084.56 105.529 1084.4 Q106.547 1084.22 107.566 1084.22 Q113.353 1084.22 116.733 1087.39 Q120.112 1090.56 120.112 1095.97 Q120.112 1101.55 116.64 1104.66 Q113.168 1107.73 106.848 1107.73 Q104.672 1107.73 102.404 1107.36 Q100.159 1106.99 97.7511 1106.25 L97.7511 1101.55 Q99.8345 1102.69 102.057 1103.24 Q104.279 1103.8 106.756 1103.8 Q110.76 1103.8 113.098 1101.69 Q115.436 1099.59 115.436 1095.97 Q115.436 1092.36 113.098 1090.26 Q110.76 1088.15 106.756 1088.15 Q104.881 1088.15 103.006 1088.57 Q101.154 1088.98 99.2095 1089.86 L99.2095 1072.5 Z" fill="#000000" fill-rule="nonzero" fill-opacity="1" /><path clip-path="url(#clip650)" d="M53.7467 724.933 L61.3856 724.933 L61.3856 698.568 L53.0754 700.234 L53.0754 695.975 L61.3393 694.309 L66.0152 694.309 L66.0152 724.933 L73.654 724.933 L73.654 728.869 L53.7467 728.869 L53.7467 724.933 Z" fill="#000000" fill-rule="nonzero" fill-opacity="1" /><path clip-path="url(#clip650)" d="M83.0984 722.989 L87.9827 722.989 L87.9827 728.869 L83.0984 728.869 L83.0984 722.989 Z" fill="#000000" fill-rule="nonzero" fill-opacity="1" /><path clip-path="url(#clip650)" d="M108.168 697.387 Q104.557 697.387 102.728 700.952 Q100.922 704.494 100.922 711.623 Q100.922 718.73 102.728 722.295 Q104.557 725.836 108.168 725.836 Q111.802 725.836 113.608 722.295 Q115.436 718.73 115.436 711.623 Q115.436 704.494 113.608 700.952 Q111.802 697.387 108.168 697.387 M108.168 693.684 Q113.978 693.684 117.033 698.29 Q120.112 702.873 120.112 711.623 Q120.112 720.35 117.033 724.957 Q113.978 729.54 108.168 729.54 Q102.358 729.54 99.2789 724.957 Q96.2234 720.35 96.2234 711.623 Q96.2234 702.873 99.2789 698.29 Q102.358 693.684 108.168 693.684 Z" fill="#000000" fill-rule="nonzero" fill-opacity="1" /><path clip-path="url(#clip650)" d="M54.7421 346.739 L62.381 346.739 L62.381 320.374 L54.0708 322.04 L54.0708 317.781 L62.3347 316.114 L67.0106 316.114 L67.0106 346.739 L74.6494 346.739 L74.6494 350.674 L54.7421 350.674 L54.7421 346.739 Z" fill="#000000" fill-rule="nonzero" fill-opacity="1" /><path clip-path="url(#clip650)" d="M84.0938 344.795 L88.978 344.795 L88.978 350.674 L84.0938 350.674 L84.0938 344.795 Z" fill="#000000" fill-rule="nonzero" fill-opacity="1" /><path clip-path="url(#clip650)" d="M99.2095 316.114 L117.566 316.114 L117.566 320.05 L103.492 320.05 L103.492 328.522 Q104.51 328.175 105.529 328.013 Q106.547 327.827 107.566 327.827 Q113.353 327.827 116.733 330.999 Q120.112 334.17 120.112 339.587 Q120.112 345.165 116.64 348.267 Q113.168 351.346 106.848 351.346 Q104.672 351.346 102.404 350.975 Q100.159 350.605 97.7511 349.864 L97.7511 345.165 Q99.8345 346.299 102.057 346.855 Q104.279 347.411 106.756 347.411 Q110.76 347.411 113.098 345.304 Q115.436 343.198 115.436 339.587 Q115.436 335.975 113.098 333.869 Q110.76 331.763 106.756 331.763 Q104.881 331.763 103.006 332.179 Q101.154 332.596 99.2095 333.475 L99.2095 316.114 Z" fill="#000000" fill-rule="nonzero" fill-opacity="1" /><path clip-path="url(#clip650)" d="M506.536 12.096 L514.719 12.096 L514.719 65.6895 L544.169 65.6895 L544.169 72.576 L506.536 72.576 L506.536 12.096 Z" fill="#000000" fill-rule="nonzero" fill-opacity="1" /><path clip-path="url(#clip650)" d="M589.782 48.0275 L589.782 51.6733 L555.511 51.6733 Q555.997 59.3701 560.129 63.421 Q564.302 67.4314 571.715 67.4314 Q576.009 67.4314 580.019 66.3781 Q584.07 65.3249 588.04 63.2184 L588.04 70.267 Q584.03 71.9684 579.817 72.8596 Q575.604 73.7508 571.269 73.7508 Q560.413 73.7508 554.053 67.4314 Q547.734 61.1119 547.734 50.3365 Q547.734 39.1965 553.729 32.6746 Q559.765 26.1121 569.973 26.1121 Q579.128 26.1121 584.435 32.0264 Q589.782 37.9003 589.782 48.0275 M582.328 45.84 Q582.247 39.7232 578.885 36.0774 Q575.563 32.4315 570.054 32.4315 Q563.816 32.4315 560.048 35.9558 Q556.321 39.4801 555.754 45.8805 L582.328 45.84 Z" fill="#000000" fill-rule="nonzero" fill-opacity="1" /><path clip-path="url(#clip650)" d="M622.635 49.7694 Q613.601 49.7694 610.117 51.8354 Q606.634 53.9013 606.634 58.8839 Q606.634 62.8538 609.226 65.2034 Q611.859 67.5124 616.356 67.5124 Q622.554 67.5124 626.281 63.1374 Q630.048 58.7219 630.048 51.4303 L630.048 49.7694 L622.635 49.7694 M637.502 46.6907 L637.502 72.576 L630.048 72.576 L630.048 65.6895 Q627.496 69.8214 623.688 71.8063 Q619.88 73.7508 614.371 73.7508 Q607.403 73.7508 603.271 69.8619 Q599.18 65.9325 599.18 59.3701 Q599.18 51.7138 604.284 47.825 Q609.429 43.9361 619.597 43.9361 L630.048 43.9361 L630.048 43.2069 Q630.048 38.0623 626.645 35.2672 Q623.283 32.4315 617.166 32.4315 Q613.277 32.4315 609.591 33.3632 Q605.905 34.295 602.502 36.1584 L602.502 29.2718 Q606.593 27.692 610.442 26.9223 Q614.29 26.1121 617.936 26.1121 Q627.779 26.1121 632.64 31.2163 Q637.502 36.3204 637.502 46.6907 Z" fill="#000000" fill-rule="nonzero" fill-opacity="1" /><path clip-path="url(#clip650)" d="M679.145 34.1734 Q677.889 33.4443 676.39 33.1202 Q674.932 32.7556 673.15 32.7556 Q666.83 32.7556 663.427 36.8875 Q660.065 40.9789 660.065 48.6757 L660.065 72.576 L652.571 72.576 L652.571 27.2059 L660.065 27.2059 L660.065 34.2544 Q662.415 30.1225 666.182 28.1376 Q669.949 26.1121 675.337 26.1121 Q676.107 26.1121 677.038 26.2337 Q677.97 26.3147 679.104 26.5172 L679.145 34.1734 Z" fill="#000000" fill-rule="nonzero" fill-opacity="1" /><path clip-path="url(#clip650)" d="M723.219 45.1919 L723.219 72.576 L715.765 72.576 L715.765 45.4349 Q715.765 38.994 713.253 35.7938 Q710.742 32.5936 705.719 32.5936 Q699.683 32.5936 696.199 36.4419 Q692.715 40.2903 692.715 46.9338 L692.715 72.576 L685.221 72.576 L685.221 27.2059 L692.715 27.2059 L692.715 34.2544 Q695.389 30.163 698.994 28.1376 Q702.64 26.1121 707.38 26.1121 Q715.198 26.1121 719.208 30.9732 Q723.219 35.7938 723.219 45.1919 Z" fill="#000000" fill-rule="nonzero" fill-opacity="1" /><path clip-path="url(#clip650)" d="M776.893 48.0275 L776.893 51.6733 L742.623 51.6733 Q743.109 59.3701 747.241 63.421 Q751.413 67.4314 758.826 67.4314 Q763.12 67.4314 767.13 66.3781 Q771.181 65.3249 775.151 63.2184 L775.151 70.267 Q771.141 71.9684 766.928 72.8596 Q762.715 73.7508 758.381 73.7508 Q747.524 73.7508 741.164 67.4314 Q734.845 61.1119 734.845 50.3365 Q734.845 39.1965 740.84 32.6746 Q746.876 26.1121 757.084 26.1121 Q766.239 26.1121 771.546 32.0264 Q776.893 37.9003 776.893 48.0275 M769.44 45.84 Q769.358 39.7232 765.996 36.0774 Q762.674 32.4315 757.165 32.4315 Q750.927 32.4315 747.16 35.9558 Q743.433 39.4801 742.866 45.8805 L769.44 45.84 Z" fill="#000000" fill-rule="nonzero" fill-opacity="1" /><path clip-path="url(#clip650)" d="M818.982 34.0924 L818.982 9.54393 L826.436 9.54393 L826.436 72.576 L818.982 72.576 L818.982 65.7705 Q816.633 69.8214 813.027 71.8063 Q809.462 73.7508 804.439 73.7508 Q796.216 73.7508 791.031 67.1883 Q785.886 60.6258 785.886 49.9314 Q785.886 39.2371 791.031 32.6746 Q796.216 26.1121 804.439 26.1121 Q809.462 26.1121 813.027 28.0971 Q816.633 30.0415 818.982 34.0924 M793.583 49.9314 Q793.583 58.1548 796.945 62.8538 Q800.348 67.5124 806.262 67.5124 Q812.177 67.5124 815.579 62.8538 Q818.982 58.1548 818.982 49.9314 Q818.982 41.7081 815.579 37.0496 Q812.177 32.3505 806.262 32.3505 Q800.348 32.3505 796.945 37.0496 Q793.583 41.7081 793.583 49.9314 Z" fill="#000000" fill-rule="nonzero" fill-opacity="1" /><path clip-path="url(#clip650)" d="M904.74 14.0809 L904.74 22.0612 Q900.081 19.8332 895.949 18.7395 Q891.817 17.6457 887.969 17.6457 Q881.285 17.6457 877.639 20.2383 Q874.034 22.8309 874.034 27.611 Q874.034 31.6214 876.424 33.6873 Q878.854 35.7128 885.579 36.9686 L890.521 37.9813 Q899.676 39.7232 904.011 44.1387 Q908.386 48.5136 908.386 55.8863 Q908.386 64.6767 902.471 69.2137 Q896.597 73.7508 885.214 73.7508 Q880.92 73.7508 876.059 72.7785 Q871.239 71.8063 866.054 69.9024 L866.054 61.4765 Q871.036 64.2716 875.816 65.6895 Q880.596 67.1073 885.214 67.1073 Q892.222 67.1073 896.03 64.3527 Q899.838 61.598 899.838 56.4939 Q899.838 52.0379 897.084 49.5264 Q894.369 47.0148 888.131 45.759 L883.148 44.7868 Q873.993 42.9639 869.902 39.075 Q865.811 35.1862 865.811 28.2591 Q865.811 20.2383 871.441 15.6203 Q877.113 11.0023 887.037 11.0023 Q891.291 11.0023 895.706 11.7719 Q900.122 12.5416 904.74 14.0809 Z" fill="#000000" fill-rule="nonzero" fill-opacity="1" /><path clip-path="url(#clip650)" d="M928.194 14.324 L928.194 27.2059 L943.547 27.2059 L943.547 32.9987 L928.194 32.9987 L928.194 57.6282 Q928.194 63.1779 929.693 64.7578 Q931.233 66.3376 935.891 66.3376 L943.547 66.3376 L943.547 72.576 L935.891 72.576 Q927.263 72.576 923.982 69.3758 Q920.7 66.1351 920.7 57.6282 L920.7 32.9987 L915.232 32.9987 L915.232 27.2059 L920.7 27.2059 L920.7 14.324 L928.194 14.324 Z" fill="#000000" fill-rule="nonzero" fill-opacity="1" /><path clip-path="url(#clip650)" d="M973.97 49.7694 Q964.936 49.7694 961.452 51.8354 Q957.969 53.9013 957.969 58.8839 Q957.969 62.8538 960.561 65.2034 Q963.194 67.5124 967.691 67.5124 Q973.889 67.5124 977.615 63.1374 Q981.383 58.7219 981.383 51.4303 L981.383 49.7694 L973.97 49.7694 M988.836 46.6907 L988.836 72.576 L981.383 72.576 L981.383 65.6895 Q978.831 69.8214 975.023 71.8063 Q971.215 73.7508 965.706 73.7508 Q958.738 73.7508 954.606 69.8619 Q950.515 65.9325 950.515 59.3701 Q950.515 51.7138 955.619 47.825 Q960.764 43.9361 970.931 43.9361 L981.383 43.9361 L981.383 43.2069 Q981.383 38.0623 977.98 35.2672 Q974.618 32.4315 968.501 32.4315 Q964.612 32.4315 960.926 33.3632 Q957.239 34.295 953.837 36.1584 L953.837 29.2718 Q957.928 27.692 961.776 26.9223 Q965.625 26.1121 969.271 26.1121 Q979.114 26.1121 983.975 31.2163 Q988.836 36.3204 988.836 46.6907 Z" fill="#000000" fill-rule="nonzero" fill-opacity="1" /><path clip-path="url(#clip650)" d="M1036.76 49.9314 Q1036.76 41.7081 1033.36 37.0496 Q1029.99 32.3505 1024.08 32.3505 Q1018.17 32.3505 1014.76 37.0496 Q1011.4 41.7081 1011.4 49.9314 Q1011.4 58.1548 1014.76 62.8538 Q1018.17 67.5124 1024.08 67.5124 Q1029.99 67.5124 1033.36 62.8538 Q1036.76 58.1548 1036.76 49.9314 M1011.4 34.0924 Q1013.75 30.0415 1017.31 28.0971 Q1020.92 26.1121 1025.9 26.1121 Q1034.17 26.1121 1039.31 32.6746 Q1044.5 39.2371 1044.5 49.9314 Q1044.5 60.6258 1039.31 67.1883 Q1034.17 73.7508 1025.9 73.7508 Q1020.92 73.7508 1017.31 71.8063 Q1013.75 69.8214 1011.4 65.7705 L1011.4 72.576 L1003.91 72.576 L1003.91 9.54393 L1011.4 9.54393 L1011.4 34.0924 Z" fill="#000000" fill-rule="nonzero" fill-opacity="1" /><path clip-path="url(#clip650)" d="M1056.85 27.2059 L1064.3 27.2059 L1064.3 72.576 L1056.85 72.576 L1056.85 27.2059 M1056.85 9.54393 L1064.3 9.54393 L1064.3 18.9825 L1056.85 18.9825 L1056.85 9.54393 Z" fill="#000000" fill-rule="nonzero" fill-opacity="1" /><path clip-path="url(#clip650)" d="M1079.9 9.54393 L1087.35 9.54393 L1087.35 72.576 L1079.9 72.576 L1079.9 9.54393 Z" fill="#000000" fill-rule="nonzero" fill-opacity="1" /><path clip-path="url(#clip650)" d="M1102.95 27.2059 L1110.4 27.2059 L1110.4 72.576 L1102.95 72.576 L1102.95 27.2059 M1102.95 9.54393 L1110.4 9.54393 L1110.4 18.9825 L1102.95 18.9825 L1102.95 9.54393 Z" fill="#000000" fill-rule="nonzero" fill-opacity="1" /><path clip-path="url(#clip650)" d="M1133.37 14.324 L1133.37 27.2059 L1148.73 27.2059 L1148.73 32.9987 L1133.37 32.9987 L1133.37 57.6282 Q1133.37 63.1779 1134.87 64.7578 Q1136.41 66.3376 1141.07 66.3376 L1148.73 66.3376 L1148.73 72.576 L1141.07 72.576 Q1132.44 72.576 1129.16 69.3758 Q1125.88 66.1351 1125.88 57.6282 L1125.88 32.9987 L1120.41 32.9987 L1120.41 27.2059 L1125.88 27.2059 L1125.88 14.324 L1133.37 14.324 Z" fill="#000000" fill-rule="nonzero" fill-opacity="1" /><path clip-path="url(#clip650)" d="M1177.41 76.7889 Q1174.25 84.8907 1171.25 87.3618 Q1168.25 89.8329 1163.23 89.8329 L1157.27 89.8329 L1157.27 83.5945 L1161.65 83.5945 Q1164.73 83.5945 1166.43 82.1361 Q1168.13 80.6778 1170.2 75.2496 L1171.53 71.8468 L1153.18 27.2059 L1161.08 27.2059 L1175.26 62.6918 L1189.44 27.2059 L1197.34 27.2059 L1177.41 76.7889 Z" fill="#000000" fill-rule="nonzero" fill-opacity="1" /><path clip-path="url(#clip650)" d="M1234.32 12.096 L1246.51 12.096 L1261.95 53.2532 L1277.46 12.096 L1289.66 12.096 L1289.66 72.576 L1281.68 72.576 L1281.68 19.4686 L1266.08 60.9499 L1257.86 60.9499 L1242.26 19.4686 L1242.26 72.576 L1234.32 72.576 L1234.32 12.096 Z" fill="#000000" fill-rule="nonzero" fill-opacity="1" /><path clip-path="url(#clip650)" d="M1326.2 49.7694 Q1317.16 49.7694 1313.68 51.8354 Q1310.19 53.9013 1310.19 58.8839 Q1310.19 62.8538 1312.79 65.2034 Q1315.42 67.5124 1319.92 67.5124 Q1326.11 67.5124 1329.84 63.1374 Q1333.61 58.7219 1333.61 51.4303 L1333.61 49.7694 L1326.2 49.7694 M1341.06 46.6907 L1341.06 72.576 L1333.61 72.576 L1333.61 65.6895 Q1331.06 69.8214 1327.25 71.8063 Q1323.44 73.7508 1317.93 73.7508 Q1310.96 73.7508 1306.83 69.8619 Q1302.74 65.9325 1302.74 59.3701 Q1302.74 51.7138 1307.85 47.825 Q1312.99 43.9361 1323.16 43.9361 L1333.61 43.9361 L1333.61 43.2069 Q1333.61 38.0623 1330.21 35.2672 Q1326.84 32.4315 1320.73 32.4315 Q1316.84 32.4315 1313.15 33.3632 Q1309.47 34.295 1306.06 36.1584 L1306.06 29.2718 Q1310.15 27.692 1314 26.9223 Q1317.85 26.1121 1321.5 26.1121 Q1331.34 26.1121 1336.2 31.2163 Q1341.06 36.3204 1341.06 46.6907 Z" fill="#000000" fill-rule="nonzero" fill-opacity="1" /><path clip-path="url(#clip650)" d="M1394.13 45.1919 L1394.13 72.576 L1386.68 72.576 L1386.68 45.4349 Q1386.68 38.994 1384.16 35.7938 Q1381.65 32.5936 1376.63 32.5936 Q1370.59 32.5936 1367.11 36.4419 Q1363.63 40.2903 1363.63 46.9338 L1363.63 72.576 L1356.13 72.576 L1356.13 27.2059 L1363.63 27.2059 L1363.63 34.2544 Q1366.3 30.163 1369.91 28.1376 Q1373.55 26.1121 1378.29 26.1121 Q1386.11 26.1121 1390.12 30.9732 Q1394.13 35.7938 1394.13 45.1919 Z" fill="#000000" fill-rule="nonzero" fill-opacity="1" /><path clip-path="url(#clip650)" d="M1409 27.2059 L1416.45 27.2059 L1416.45 72.576 L1409 72.576 L1409 27.2059 M1409 9.54393 L1416.45 9.54393 L1416.45 18.9825 L1409 18.9825 L1409 9.54393 Z" fill="#000000" fill-rule="nonzero" fill-opacity="1" /><path clip-path="url(#clip650)" d="M1455.01 9.54393 L1455.01 15.7418 L1447.88 15.7418 Q1443.87 15.7418 1442.29 17.3622 Q1440.76 18.9825 1440.76 23.1955 L1440.76 27.2059 L1453.03 27.2059 L1453.03 32.9987 L1440.76 32.9987 L1440.76 72.576 L1433.26 72.576 L1433.26 32.9987 L1426.13 32.9987 L1426.13 27.2059 L1433.26 27.2059 L1433.26 24.0462 Q1433.26 16.471 1436.79 13.0277 Q1440.31 9.54393 1447.97 9.54393 L1455.01 9.54393 Z" fill="#000000" fill-rule="nonzero" fill-opacity="1" /><path clip-path="url(#clip650)" d="M1478.83 32.4315 Q1472.84 32.4315 1469.35 37.1306 Q1465.87 41.7891 1465.87 49.9314 Q1465.87 58.0738 1469.31 62.7728 Q1472.8 67.4314 1478.83 67.4314 Q1484.79 67.4314 1488.27 62.7323 Q1491.76 58.0333 1491.76 49.9314 Q1491.76 41.8701 1488.27 37.1711 Q1484.79 32.4315 1478.83 32.4315 M1478.83 26.1121 Q1488.56 26.1121 1494.11 32.4315 Q1499.66 38.7509 1499.66 49.9314 Q1499.66 61.0714 1494.11 67.4314 Q1488.56 73.7508 1478.83 73.7508 Q1469.07 73.7508 1463.52 67.4314 Q1458.01 61.0714 1458.01 49.9314 Q1458.01 38.7509 1463.52 32.4315 Q1469.07 26.1121 1478.83 26.1121 Z" fill="#000000" fill-rule="nonzero" fill-opacity="1" /><path clip-path="url(#clip650)" d="M1512.01 9.54393 L1519.46 9.54393 L1519.46 72.576 L1512.01 72.576 L1512.01 9.54393 Z" fill="#000000" fill-rule="nonzero" fill-opacity="1" /><path clip-path="url(#clip650)" d="M1564.92 34.0924 L1564.92 9.54393 L1572.37 9.54393 L1572.37 72.576 L1564.92 72.576 L1564.92 65.7705 Q1562.57 69.8214 1558.96 71.8063 Q1555.4 73.7508 1550.37 73.7508 Q1542.15 73.7508 1536.96 67.1883 Q1531.82 60.6258 1531.82 49.9314 Q1531.82 39.2371 1536.96 32.6746 Q1542.15 26.1121 1550.37 26.1121 Q1555.4 26.1121 1558.96 28.0971 Q1562.57 30.0415 1564.92 34.0924 M1539.52 49.9314 Q1539.52 58.1548 1542.88 62.8538 Q1546.28 67.5124 1552.2 67.5124 Q1558.11 67.5124 1561.51 62.8538 Q1564.92 58.1548 1564.92 49.9314 Q1564.92 41.7081 1561.51 37.0496 Q1558.11 32.3505 1552.2 32.3505 Q1546.28 32.3505 1542.88 37.0496 Q1539.52 41.7081 1539.52 49.9314 Z" fill="#000000" fill-rule="nonzero" fill-opacity="1" /><path clip-path="url(#clip650)" d="M1632 9.62495 Q1626.57 18.942 1623.94 28.0566 Q1621.3 37.1711 1621.3 46.5287 Q1621.3 55.8863 1623.94 65.0818 Q1626.61 74.2369 1632 83.5134 L1625.52 83.5134 Q1619.44 73.9938 1616.4 64.7983 Q1613.4 55.6027 1613.4 46.5287 Q1613.4 37.4952 1616.4 28.3401 Q1619.4 19.1851 1625.52 9.62495 L1632 9.62495 Z" fill="#000000" fill-rule="nonzero" fill-opacity="1" /><path clip-path="url(#clip650)" d="M1654.56 65.6895 L1683.12 65.6895 L1683.12 72.576 L1644.72 72.576 L1644.72 65.6895 Q1649.38 60.8689 1657.4 52.7671 Q1665.46 44.6248 1667.52 42.2752 Q1671.45 37.8598 1672.99 34.8216 Q1674.57 31.7429 1674.57 28.7857 Q1674.57 23.9651 1671.17 20.927 Q1667.81 17.8888 1662.38 17.8888 Q1658.53 17.8888 1654.24 19.2256 Q1649.98 20.5624 1645.12 23.2765 L1645.12 15.0127 Q1650.07 13.0277 1654.36 12.015 Q1658.65 11.0023 1662.22 11.0023 Q1671.62 11.0023 1677.21 15.7013 Q1682.8 20.4004 1682.8 28.2591 Q1682.8 31.9859 1681.38 35.3482 Q1680 38.6699 1676.32 43.2069 Q1675.3 44.3817 1669.87 50.0125 Q1664.45 55.6027 1654.56 65.6895 Z" fill="#000000" fill-rule="nonzero" fill-opacity="1" /><path clip-path="url(#clip650)" d="M1707.75 18.8205 L1707.75 65.8515 L1717.63 65.8515 Q1730.15 65.8515 1735.94 60.1802 Q1741.78 54.509 1741.78 42.2752 Q1741.78 30.1225 1735.94 24.4918 Q1730.15 18.8205 1717.63 18.8205 L1707.75 18.8205 M1699.57 12.096 L1716.38 12.096 Q1733.96 12.096 1742.18 19.4281 Q1750.41 26.7198 1750.41 42.2752 Q1750.41 57.9117 1742.14 65.2439 Q1733.88 72.576 1716.38 72.576 L1699.57 72.576 L1699.57 12.096 Z" fill="#000000" fill-rule="nonzero" fill-opacity="1" /><path clip-path="url(#clip650)" d="M1826.08 14.0809 L1826.08 22.0612 Q1821.42 19.8332 1817.29 18.7395 Q1813.15 17.6457 1809.31 17.6457 Q1802.62 17.6457 1798.98 20.2383 Q1795.37 22.8309 1795.37 27.611 Q1795.37 31.6214 1797.76 33.6873 Q1800.19 35.7128 1806.92 36.9686 L1811.86 37.9813 Q1821.01 39.7232 1825.35 44.1387 Q1829.72 48.5136 1829.72 55.8863 Q1829.72 64.6767 1823.81 69.2137 Q1817.94 73.7508 1806.55 73.7508 Q1802.26 73.7508 1797.4 72.7785 Q1792.58 71.8063 1787.39 69.9024 L1787.39 61.4765 Q1792.37 64.2716 1797.15 65.6895 Q1801.93 67.1073 1806.55 67.1073 Q1813.56 67.1073 1817.37 64.3527 Q1821.18 61.598 1821.18 56.4939 Q1821.18 52.0379 1818.42 49.5264 Q1815.71 47.0148 1809.47 45.759 L1804.49 44.7868 Q1795.33 42.9639 1791.24 39.075 Q1787.15 35.1862 1787.15 28.2591 Q1787.15 20.2383 1792.78 15.6203 Q1798.45 11.0023 1808.37 11.0023 Q1812.63 11.0023 1817.04 11.7719 Q1821.46 12.5416 1826.08 14.0809 Z" fill="#000000" fill-rule="nonzero" fill-opacity="1" /><path clip-path="url(#clip650)" d="M1842.16 9.54393 L1849.61 9.54393 L1849.61 72.576 L1842.16 72.576 L1842.16 9.54393 Z" fill="#000000" fill-rule="nonzero" fill-opacity="1" /><path clip-path="url(#clip650)" d="M1865.21 27.2059 L1872.66 27.2059 L1872.66 72.576 L1865.21 72.576 L1865.21 27.2059 M1865.21 9.54393 L1872.66 9.54393 L1872.66 18.9825 L1865.21 18.9825 L1865.21 9.54393 Z" fill="#000000" fill-rule="nonzero" fill-opacity="1" /><path clip-path="url(#clip650)" d="M1920.91 28.9478 L1920.91 35.9153 Q1917.75 34.1734 1914.55 33.3227 Q1911.39 32.4315 1908.15 32.4315 Q1900.9 32.4315 1896.89 37.0496 Q1892.88 41.6271 1892.88 49.9314 Q1892.88 58.2358 1896.89 62.8538 Q1900.9 67.4314 1908.15 67.4314 Q1911.39 67.4314 1914.55 66.5807 Q1917.75 65.6895 1920.91 63.9476 L1920.91 70.8341 Q1917.79 72.2924 1914.43 73.0216 Q1911.11 73.7508 1907.34 73.7508 Q1897.09 73.7508 1891.05 67.3098 Q1885.02 60.8689 1885.02 49.9314 Q1885.02 38.832 1891.09 32.472 Q1897.21 26.1121 1907.82 26.1121 Q1911.27 26.1121 1914.55 26.8413 Q1917.83 27.5299 1920.91 28.9478 Z" fill="#000000" fill-rule="nonzero" fill-opacity="1" /><path clip-path="url(#clip650)" d="M1972.68 48.0275 L1972.68 51.6733 L1938.41 51.6733 Q1938.9 59.3701 1943.03 63.421 Q1947.2 67.4314 1954.61 67.4314 Q1958.91 67.4314 1962.92 66.3781 Q1966.97 65.3249 1970.94 63.2184 L1970.94 70.267 Q1966.93 71.9684 1962.71 72.8596 Q1958.5 73.7508 1954.17 73.7508 Q1943.31 73.7508 1936.95 67.4314 Q1930.63 61.1119 1930.63 50.3365 Q1930.63 39.1965 1936.63 32.6746 Q1942.66 26.1121 1952.87 26.1121 Q1962.03 26.1121 1967.33 32.0264 Q1972.68 37.9003 1972.68 48.0275 M1965.23 45.84 Q1965.14 39.7232 1961.78 36.0774 Q1958.46 32.4315 1952.95 32.4315 Q1946.71 32.4315 1942.95 35.9558 Q1939.22 39.4801 1938.65 45.8805 L1965.23 45.84 Z" fill="#000000" fill-rule="nonzero" fill-opacity="1" /><path clip-path="url(#clip650)" d="M1983.74 9.62495 L1990.22 9.62495 Q1996.3 19.1851 1999.29 28.3401 Q2002.33 37.4952 2002.33 46.5287 Q2002.33 55.6027 1999.29 64.7983 Q1996.3 73.9938 1990.22 83.5134 L1983.74 83.5134 Q1989.13 74.2369 1991.76 65.0818 Q1994.43 55.8863 1994.43 46.5287 Q1994.43 37.1711 1991.76 28.0566 Q1989.13 18.942 1983.74 9.62495 Z" fill="#000000" fill-rule="nonzero" fill-opacity="1" /><polyline clip-path="url(#clip652)" style="stroke:#008000; stroke-linecap:round; stroke-linejoin:round; stroke-width:8; stroke-opacity:1; fill:none" points="218.281,369.798 252.82,450.395 287.358,527.813 321.897,602.054 356.435,673.115 390.973,740.998 425.512,805.702 460.05,867.228 494.589,925.575 529.127,980.744 563.666,1032.73 598.204,1081.54 632.742,1127.18 667.281,1169.63 701.819,1208.91 736.358,1245 770.896,1277.92 805.435,1307.66 839.973,1334.22 874.511,1357.54 909.05,1377.69 943.588,1394.69 978.127,1408.46 1012.67,1418.96 1047.2,1426.54 1081.74,1431.24 1116.28,1432.89 1150.82,1431.61 1185.36,1427.46 1219.9,1424.52 1254.43,1428.19 1288.97,1433.03 1323.51,1441.69 1358.05,1446.75 1392.59,1447.87 1427.13,1444.42 1461.66,1436.76 1496.2,1425.45 1530.74,1410.54 1565.28,1392.04 1599.82,1369.96 1634.36,1344.13 1668.9,1314.61 1703.43,1281.46 1737.97,1244.67 1772.51,1204.26 1807.05,1160.21 1841.59,1112.52 1876.13,1061.21 1910.66,1006.26 1945.2,947.675 1979.74,885.461 2014.28,819.613 2048.82,750.132 2083.36,677.019 2117.89,600.272 2152.43,519.893 2186.97,435.881 2221.51,348.236 2256.05,256.958 2290.59,162.047 "/>
<polyline clip-path="url(#clip652)" style="stroke:#ff0000; stroke-linecap:round; stroke-linejoin:round; stroke-width:4; stroke-opacity:1; fill:none" stroke-dasharray="16, 10" points="563.666,2849.42 563.666,-1239.5 "/>
<polyline clip-path="url(#clip652)" style="stroke:#ff0000; stroke-linecap:round; stroke-linejoin:round; stroke-width:4; stroke-opacity:1; fill:none" stroke-dasharray="16, 10" points="1945.2,2849.42 1945.2,-1239.5 "/>
<path clip-path="url(#clip650)" d="M1516.31 1441.02 L2279.53 1441.02 L2279.53 1285.5 L1516.31 1285.5  Z" fill="#ffffff" fill-rule="evenodd" fill-opacity="1"/>
<polyline clip-path="url(#clip650)" style="stroke:#000000; stroke-linecap:round; stroke-linejoin:round; stroke-width:4; stroke-opacity:1; fill:none" points="1516.31,1441.02 2279.53,1441.02 2279.53,1285.5 1516.31,1285.5 1516.31,1441.02 "/>
<polyline clip-path="url(#clip650)" style="stroke:#008000; stroke-linecap:round; stroke-linejoin:round; stroke-width:8; stroke-opacity:1; fill:none" points="1540.72,1337.34 1687.16,1337.34 "/>
<path clip-path="url(#clip650)" d="M1711.57 1320.06 L1717.86 1320.06 L1733.19 1348.97 L1733.19 1320.06 L1737.72 1320.06 L1737.72 1354.62 L1731.43 1354.62 L1716.1 1325.7 L1716.1 1354.62 L1711.57 1354.62 L1711.57 1320.06 Z" fill="#000000" fill-rule="nonzero" fill-opacity="1" /><path clip-path="url(#clip650)" d="M1769.02 1340.59 L1769.02 1342.67 L1749.44 1342.67 Q1749.71 1347.07 1752.07 1349.38 Q1754.46 1351.68 1758.69 1351.68 Q1761.15 1351.68 1763.44 1351.07 Q1765.75 1350.47 1768.02 1349.27 L1768.02 1353.3 Q1765.73 1354.27 1763.32 1354.78 Q1760.92 1355.29 1758.44 1355.29 Q1752.24 1355.29 1748.6 1351.68 Q1744.99 1348.06 1744.99 1341.91 Q1744.99 1335.54 1748.42 1331.81 Q1751.87 1328.06 1757.7 1328.06 Q1762.93 1328.06 1765.96 1331.44 Q1769.02 1334.8 1769.02 1340.59 M1764.76 1339.34 Q1764.71 1335.84 1762.79 1333.76 Q1760.89 1331.68 1757.75 1331.68 Q1754.18 1331.68 1752.03 1333.69 Q1749.9 1335.7 1749.57 1339.36 L1764.76 1339.34 Z" fill="#000000" fill-rule="nonzero" fill-opacity="1" /><path clip-path="url(#clip650)" d="M1775.57 1344.38 L1775.57 1328.69 L1779.83 1328.69 L1779.83 1344.22 Q1779.83 1347.9 1781.26 1349.75 Q1782.7 1351.58 1785.57 1351.58 Q1789.02 1351.58 1791.01 1349.38 Q1793.02 1347.18 1793.02 1343.39 L1793.02 1328.69 L1797.28 1328.69 L1797.28 1354.62 L1793.02 1354.62 L1793.02 1350.63 Q1791.47 1352.99 1789.41 1354.15 Q1787.38 1355.29 1784.67 1355.29 Q1780.2 1355.29 1777.88 1352.51 Q1775.57 1349.73 1775.57 1344.38 M1786.29 1328.06 L1786.29 1328.06 Z" fill="#000000" fill-rule="nonzero" fill-opacity="1" /><path clip-path="url(#clip650)" d="M1821.08 1332.67 Q1820.36 1332.25 1819.5 1332.07 Q1818.67 1331.86 1817.65 1331.86 Q1814.04 1331.86 1812.1 1334.22 Q1810.18 1336.56 1810.18 1340.96 L1810.18 1354.62 L1805.89 1354.62 L1805.89 1328.69 L1810.18 1328.69 L1810.18 1332.72 Q1811.52 1330.36 1813.67 1329.22 Q1815.82 1328.06 1818.9 1328.06 Q1819.34 1328.06 1819.87 1328.13 Q1820.41 1328.18 1821.06 1328.3 L1821.08 1332.67 Z" fill="#000000" fill-rule="nonzero" fill-opacity="1" /><path clip-path="url(#clip650)" d="M1837.33 1341.58 Q1832.17 1341.58 1830.18 1342.76 Q1828.19 1343.94 1828.19 1346.79 Q1828.19 1349.06 1829.67 1350.4 Q1831.17 1351.72 1833.74 1351.72 Q1837.28 1351.72 1839.41 1349.22 Q1841.56 1346.7 1841.56 1342.53 L1841.56 1341.58 L1837.33 1341.58 M1845.82 1339.82 L1845.82 1354.62 L1841.56 1354.62 L1841.56 1350.68 Q1840.11 1353.04 1837.93 1354.18 Q1835.75 1355.29 1832.61 1355.29 Q1828.62 1355.29 1826.26 1353.06 Q1823.93 1350.82 1823.93 1347.07 Q1823.93 1342.69 1826.84 1340.47 Q1829.78 1338.25 1835.59 1338.25 L1841.56 1338.25 L1841.56 1337.83 Q1841.56 1334.89 1839.62 1333.3 Q1837.7 1331.68 1834.2 1331.68 Q1831.98 1331.68 1829.87 1332.21 Q1827.77 1332.74 1825.82 1333.81 L1825.82 1329.87 Q1828.16 1328.97 1830.36 1328.53 Q1832.56 1328.06 1834.64 1328.06 Q1840.27 1328.06 1843.05 1330.98 Q1845.82 1333.9 1845.82 1339.82 Z" fill="#000000" fill-rule="nonzero" fill-opacity="1" /><path clip-path="url(#clip650)" d="M1854.6 1318.6 L1858.86 1318.6 L1858.86 1354.62 L1854.6 1354.62 L1854.6 1318.6 Z" fill="#000000" fill-rule="nonzero" fill-opacity="1" /><path clip-path="url(#clip650)" d="M1883.02 1320.06 L1887.7 1320.06 L1887.7 1350.68 L1904.53 1350.68 L1904.53 1354.62 L1883.02 1354.62 L1883.02 1320.06 Z" fill="#000000" fill-rule="nonzero" fill-opacity="1" /><path clip-path="url(#clip650)" d="M1915.68 1357.02 Q1913.88 1361.65 1912.17 1363.06 Q1910.45 1364.48 1907.58 1364.48 L1904.18 1364.48 L1904.18 1360.91 L1906.68 1360.91 Q1908.44 1360.91 1909.41 1360.08 Q1910.38 1359.24 1911.56 1356.14 L1912.33 1354.2 L1901.84 1328.69 L1906.36 1328.69 L1914.46 1348.97 L1922.56 1328.69 L1927.07 1328.69 L1915.68 1357.02 Z" fill="#000000" fill-rule="nonzero" fill-opacity="1" /><path clip-path="url(#clip650)" d="M1944.74 1341.58 Q1939.57 1341.58 1937.58 1342.76 Q1935.59 1343.94 1935.59 1346.79 Q1935.59 1349.06 1937.07 1350.4 Q1938.58 1351.72 1941.15 1351.72 Q1944.69 1351.72 1946.82 1349.22 Q1948.97 1346.7 1948.97 1342.53 L1948.97 1341.58 L1944.74 1341.58 M1953.23 1339.82 L1953.23 1354.62 L1948.97 1354.62 L1948.97 1350.68 Q1947.51 1353.04 1945.34 1354.18 Q1943.16 1355.29 1940.01 1355.29 Q1936.03 1355.29 1933.67 1353.06 Q1931.33 1350.82 1931.33 1347.07 Q1931.33 1342.69 1934.25 1340.47 Q1937.19 1338.25 1943 1338.25 L1948.97 1338.25 L1948.97 1337.83 Q1948.97 1334.89 1947.03 1333.3 Q1945.11 1331.68 1941.61 1331.68 Q1939.39 1331.68 1937.28 1332.21 Q1935.18 1332.74 1933.23 1333.81 L1933.23 1329.87 Q1935.57 1328.97 1937.77 1328.53 Q1939.97 1328.06 1942.05 1328.06 Q1947.68 1328.06 1950.45 1330.98 Q1953.23 1333.9 1953.23 1339.82 Z" fill="#000000" fill-rule="nonzero" fill-opacity="1" /><path clip-path="url(#clip650)" d="M1966.12 1350.73 L1966.12 1364.48 L1961.84 1364.48 L1961.84 1328.69 L1966.12 1328.69 L1966.12 1332.62 Q1967.47 1330.31 1969.5 1329.2 Q1971.56 1328.06 1974.41 1328.06 Q1979.13 1328.06 1982.07 1331.81 Q1985.04 1335.56 1985.04 1341.68 Q1985.04 1347.79 1982.07 1351.54 Q1979.13 1355.29 1974.41 1355.29 Q1971.56 1355.29 1969.5 1354.18 Q1967.47 1353.04 1966.12 1350.73 M1980.61 1341.68 Q1980.61 1336.98 1978.67 1334.31 Q1976.75 1331.63 1973.37 1331.63 Q1969.99 1331.63 1968.05 1334.31 Q1966.12 1336.98 1966.12 1341.68 Q1966.12 1346.37 1968.05 1349.06 Q1969.99 1351.72 1973.37 1351.72 Q1976.75 1351.72 1978.67 1349.06 Q1980.61 1346.37 1980.61 1341.68 Z" fill="#000000" fill-rule="nonzero" fill-opacity="1" /><path clip-path="url(#clip650)" d="M1991.66 1344.38 L1991.66 1328.69 L1995.92 1328.69 L1995.92 1344.22 Q1995.92 1347.9 1997.35 1349.75 Q1998.79 1351.58 2001.66 1351.58 Q2005.11 1351.58 2007.1 1349.38 Q2009.11 1347.18 2009.11 1343.39 L2009.11 1328.69 L2013.37 1328.69 L2013.37 1354.62 L2009.11 1354.62 L2009.11 1350.63 Q2007.56 1352.99 2005.5 1354.15 Q2003.46 1355.29 2000.75 1355.29 Q1996.29 1355.29 1993.97 1352.51 Q1991.66 1349.73 1991.66 1344.38 M2002.37 1328.06 L2002.37 1328.06 Z" fill="#000000" fill-rule="nonzero" fill-opacity="1" /><path clip-path="url(#clip650)" d="M2043.69 1338.97 L2043.69 1354.62 L2039.43 1354.62 L2039.43 1339.11 Q2039.43 1335.43 2038 1333.6 Q2036.56 1331.77 2033.69 1331.77 Q2030.24 1331.77 2028.25 1333.97 Q2026.26 1336.17 2026.26 1339.96 L2026.26 1354.62 L2021.98 1354.62 L2021.98 1328.69 L2026.26 1328.69 L2026.26 1332.72 Q2027.79 1330.38 2029.85 1329.22 Q2031.93 1328.06 2034.64 1328.06 Q2039.11 1328.06 2041.4 1330.84 Q2043.69 1333.6 2043.69 1338.97 Z" fill="#000000" fill-rule="nonzero" fill-opacity="1" /><path clip-path="url(#clip650)" d="M2062.23 1331.68 Q2058.81 1331.68 2056.82 1334.36 Q2054.83 1337.02 2054.83 1341.68 Q2054.83 1346.33 2056.8 1349.01 Q2058.79 1351.68 2062.23 1351.68 Q2065.64 1351.68 2067.63 1348.99 Q2069.62 1346.31 2069.62 1341.68 Q2069.62 1337.07 2067.63 1334.38 Q2065.64 1331.68 2062.23 1331.68 M2062.23 1328.06 Q2067.79 1328.06 2070.96 1331.68 Q2074.13 1335.29 2074.13 1341.68 Q2074.13 1348.04 2070.96 1351.68 Q2067.79 1355.29 2062.23 1355.29 Q2056.66 1355.29 2053.48 1351.68 Q2050.34 1348.04 2050.34 1341.68 Q2050.34 1335.29 2053.48 1331.68 Q2056.66 1328.06 2062.23 1328.06 Z" fill="#000000" fill-rule="nonzero" fill-opacity="1" /><path clip-path="url(#clip650)" d="M2078.14 1328.69 L2082.65 1328.69 L2090.75 1350.45 L2098.85 1328.69 L2103.37 1328.69 L2093.65 1354.62 L2087.86 1354.62 L2078.14 1328.69 Z" fill="#000000" fill-rule="nonzero" fill-opacity="1" /><path clip-path="url(#clip650)" d="M2133.41 1354.62 L2120.22 1320.06 L2125.1 1320.06 L2136.05 1349.15 L2147.03 1320.06 L2151.89 1320.06 L2138.72 1354.62 L2133.41 1354.62 Z" fill="#000000" fill-rule="nonzero" fill-opacity="1" /><path clip-path="url(#clip650)" d="M2166.98 1318.64 Q2163.88 1323.97 2162.37 1329.18 Q2160.87 1334.38 2160.87 1339.73 Q2160.87 1345.08 2162.37 1350.33 Q2163.9 1355.56 2166.98 1360.87 L2163.28 1360.87 Q2159.8 1355.43 2158.07 1350.17 Q2156.35 1344.92 2156.35 1339.73 Q2156.35 1334.57 2158.07 1329.34 Q2159.78 1324.11 2163.28 1318.64 L2166.98 1318.64 Z" fill="#000000" fill-rule="nonzero" fill-opacity="1" /><path clip-path="url(#clip650)" d="M2191.77 1329.45 L2191.77 1333.48 Q2189.97 1332.56 2188.02 1332.09 Q2186.08 1331.63 2183.99 1331.63 Q2180.82 1331.63 2179.22 1332.6 Q2177.65 1333.57 2177.65 1335.52 Q2177.65 1337 2178.79 1337.86 Q2179.92 1338.69 2183.35 1339.45 L2184.8 1339.78 Q2189.34 1340.75 2191.24 1342.53 Q2193.16 1344.29 2193.16 1347.46 Q2193.16 1351.07 2190.29 1353.18 Q2187.44 1355.29 2182.44 1355.29 Q2180.36 1355.29 2178.09 1354.87 Q2175.85 1354.48 2173.35 1353.67 L2173.35 1349.27 Q2175.71 1350.5 2178 1351.12 Q2180.29 1351.72 2182.54 1351.72 Q2185.54 1351.72 2187.16 1350.7 Q2188.79 1349.66 2188.79 1347.79 Q2188.79 1346.05 2187.6 1345.12 Q2186.45 1344.2 2182.49 1343.34 L2181.01 1343 Q2177.05 1342.16 2175.29 1340.45 Q2173.53 1338.71 2173.53 1335.7 Q2173.53 1332.05 2176.12 1330.06 Q2178.72 1328.06 2183.48 1328.06 Q2185.85 1328.06 2187.93 1328.41 Q2190.01 1328.76 2191.77 1329.45 Z" fill="#000000" fill-rule="nonzero" fill-opacity="1" /><path clip-path="url(#clip650)" d="M2201.03 1348.74 L2205.91 1348.74 L2205.91 1352.72 L2202.12 1360.12 L2199.13 1360.12 L2201.03 1352.72 L2201.03 1348.74 Z" fill="#000000" fill-rule="nonzero" fill-opacity="1" /><path clip-path="url(#clip650)" d="M2225.61 1323.13 Q2222 1323.13 2220.17 1326.7 Q2218.37 1330.24 2218.37 1337.37 Q2218.37 1344.48 2220.17 1348.04 Q2222 1351.58 2225.61 1351.58 Q2229.25 1351.58 2231.05 1348.04 Q2232.88 1344.48 2232.88 1337.37 Q2232.88 1330.24 2231.05 1326.7 Q2229.25 1323.13 2225.61 1323.13 M2225.61 1319.43 Q2231.42 1319.43 2234.48 1324.04 Q2237.56 1328.62 2237.56 1337.37 Q2237.56 1346.1 2234.48 1350.7 Q2231.42 1355.29 2225.61 1355.29 Q2219.8 1355.29 2216.72 1350.7 Q2213.67 1346.1 2213.67 1337.37 Q2213.67 1328.62 2216.72 1324.04 Q2219.8 1319.43 2225.61 1319.43 Z" fill="#000000" fill-rule="nonzero" fill-opacity="1" /><path clip-path="url(#clip650)" d="M2244.5 1318.64 L2248.21 1318.64 Q2251.68 1324.11 2253.39 1329.34 Q2255.13 1334.57 2255.13 1339.73 Q2255.13 1344.92 2253.39 1350.17 Q2251.68 1355.43 2248.21 1360.87 L2244.5 1360.87 Q2247.58 1355.56 2249.09 1350.33 Q2250.61 1345.08 2250.61 1339.73 Q2250.61 1334.38 2249.09 1329.18 Q2247.58 1323.97 2244.5 1318.64 Z" fill="#000000" fill-rule="nonzero" fill-opacity="1" /><polyline clip-path="url(#clip650)" style="stroke:#ff0000; stroke-linecap:round; stroke-linejoin:round; stroke-width:4; stroke-opacity:1; fill:none" stroke-dasharray="16, 10" points="1540.72,1389.18 1687.16,1389.18 "/>
<path clip-path="url(#clip650)" d="M1739.44 1374.56 L1739.44 1379.49 Q1737.07 1377.29 1734.39 1376.2 Q1731.73 1375.11 1728.72 1375.11 Q1722.79 1375.11 1719.64 1378.75 Q1716.5 1382.36 1716.5 1389.21 Q1716.5 1396.04 1719.64 1399.67 Q1722.79 1403.28 1728.72 1403.28 Q1731.73 1403.28 1734.39 1402.2 Q1737.07 1401.11 1739.44 1398.91 L1739.44 1403.79 Q1736.98 1405.46 1734.23 1406.29 Q1731.5 1407.13 1728.44 1407.13 Q1720.59 1407.13 1716.08 1402.34 Q1711.57 1397.52 1711.57 1389.21 Q1711.57 1380.88 1716.08 1376.09 Q1720.59 1371.27 1728.44 1371.27 Q1731.54 1371.27 1734.27 1372.1 Q1737.03 1372.91 1739.44 1374.56 Z" fill="#000000" fill-rule="nonzero" fill-opacity="1" /><path clip-path="url(#clip650)" d="M1751.33 1389.95 L1751.33 1402.61 L1758.83 1402.61 Q1762.61 1402.61 1764.41 1401.06 Q1766.24 1399.49 1766.24 1396.27 Q1766.24 1393.03 1764.41 1391.5 Q1762.61 1389.95 1758.83 1389.95 L1751.33 1389.95 M1751.33 1375.74 L1751.33 1386.15 L1758.25 1386.15 Q1761.68 1386.15 1763.35 1384.88 Q1765.04 1383.59 1765.04 1380.95 Q1765.04 1378.33 1763.35 1377.03 Q1761.68 1375.74 1758.25 1375.74 L1751.33 1375.74 M1746.66 1371.9 L1758.6 1371.9 Q1763.95 1371.9 1766.84 1374.12 Q1769.74 1376.34 1769.74 1380.44 Q1769.74 1383.61 1768.25 1385.48 Q1766.77 1387.36 1763.9 1387.82 Q1767.35 1388.56 1769.25 1390.92 Q1771.17 1393.26 1771.17 1396.78 Q1771.17 1401.41 1768.02 1403.93 Q1764.88 1406.46 1759.07 1406.46 L1746.66 1406.46 L1746.66 1371.9 Z" fill="#000000" fill-rule="nonzero" fill-opacity="1" /><path clip-path="url(#clip650)" d="M1779.18 1371.9 L1799.04 1371.9 L1799.04 1375.83 L1783.86 1375.83 L1783.86 1386.02 L1797.56 1386.02 L1797.56 1389.95 L1783.86 1389.95 L1783.86 1406.46 L1779.18 1406.46 L1779.18 1371.9 Z" fill="#000000" fill-rule="nonzero" fill-opacity="1" /><path clip-path="url(#clip650)" d="M1842.24 1373.03 L1842.24 1377.59 Q1839.57 1376.32 1837.21 1375.69 Q1834.85 1375.07 1832.65 1375.07 Q1828.83 1375.07 1826.75 1376.55 Q1824.69 1378.03 1824.69 1380.76 Q1824.69 1383.05 1826.06 1384.23 Q1827.44 1385.39 1831.29 1386.11 L1834.11 1386.69 Q1839.34 1387.68 1841.82 1390.21 Q1844.32 1392.71 1844.32 1396.92 Q1844.32 1401.94 1840.94 1404.53 Q1837.58 1407.13 1831.08 1407.13 Q1828.62 1407.13 1825.85 1406.57 Q1823.09 1406.02 1820.13 1404.93 L1820.13 1400.11 Q1822.98 1401.71 1825.71 1402.52 Q1828.44 1403.33 1831.08 1403.33 Q1835.08 1403.33 1837.26 1401.76 Q1839.44 1400.18 1839.44 1397.27 Q1839.44 1394.72 1837.86 1393.28 Q1836.31 1391.85 1832.75 1391.13 L1829.9 1390.58 Q1824.67 1389.53 1822.33 1387.31 Q1819.99 1385.09 1819.99 1381.13 Q1819.99 1376.55 1823.21 1373.91 Q1826.45 1371.27 1832.12 1371.27 Q1834.55 1371.27 1837.07 1371.71 Q1839.6 1372.15 1842.24 1373.03 Z" fill="#000000" fill-rule="nonzero" fill-opacity="1" /><path clip-path="url(#clip650)" d="M1863.21 1393.42 Q1858.05 1393.42 1856.06 1394.6 Q1854.06 1395.78 1854.06 1398.63 Q1854.06 1400.9 1855.55 1402.24 Q1857.05 1403.56 1859.62 1403.56 Q1863.16 1403.56 1865.29 1401.06 Q1867.44 1398.54 1867.44 1394.37 L1867.44 1393.42 L1863.21 1393.42 M1871.7 1391.66 L1871.7 1406.46 L1867.44 1406.46 L1867.44 1402.52 Q1865.99 1404.88 1863.81 1406.02 Q1861.63 1407.13 1858.49 1407.13 Q1854.5 1407.13 1852.14 1404.9 Q1849.81 1402.66 1849.81 1398.91 Q1849.81 1394.53 1852.72 1392.31 Q1855.66 1390.09 1861.47 1390.09 L1867.44 1390.09 L1867.44 1389.67 Q1867.44 1386.73 1865.5 1385.14 Q1863.58 1383.52 1860.08 1383.52 Q1857.86 1383.52 1855.75 1384.05 Q1853.65 1384.58 1851.7 1385.65 L1851.7 1381.71 Q1854.04 1380.81 1856.24 1380.37 Q1858.44 1379.9 1860.52 1379.9 Q1866.15 1379.9 1868.93 1382.82 Q1871.7 1385.74 1871.7 1391.66 Z" fill="#000000" fill-rule="nonzero" fill-opacity="1" /><path clip-path="url(#clip650)" d="M1893.6 1370.44 L1893.6 1373.98 L1889.53 1373.98 Q1887.24 1373.98 1886.33 1374.9 Q1885.45 1375.83 1885.45 1378.24 L1885.45 1380.53 L1892.47 1380.53 L1892.47 1383.84 L1885.45 1383.84 L1885.45 1406.46 L1881.17 1406.46 L1881.17 1383.84 L1877.1 1383.84 L1877.1 1380.53 L1881.17 1380.53 L1881.17 1378.72 Q1881.17 1374.4 1883.18 1372.43 Q1885.2 1370.44 1889.57 1370.44 L1893.6 1370.44 Z" fill="#000000" fill-rule="nonzero" fill-opacity="1" /><path clip-path="url(#clip650)" d="M1919.34 1392.43 L1919.34 1394.51 L1899.76 1394.51 Q1900.04 1398.91 1902.4 1401.22 Q1904.78 1403.52 1909.02 1403.52 Q1911.47 1403.52 1913.76 1402.91 Q1916.08 1402.31 1918.35 1401.11 L1918.35 1405.14 Q1916.06 1406.11 1913.65 1406.62 Q1911.24 1407.13 1908.76 1407.13 Q1902.56 1407.13 1898.93 1403.52 Q1895.31 1399.9 1895.31 1393.75 Q1895.31 1387.38 1898.74 1383.65 Q1902.19 1379.9 1908.02 1379.9 Q1913.25 1379.9 1916.29 1383.28 Q1919.34 1386.64 1919.34 1392.43 M1915.08 1391.18 Q1915.04 1387.68 1913.12 1385.6 Q1911.22 1383.52 1908.07 1383.52 Q1904.5 1383.52 1902.35 1385.53 Q1900.22 1387.54 1899.9 1391.2 L1915.08 1391.18 Z" fill="#000000" fill-rule="nonzero" fill-opacity="1" /><path clip-path="url(#clip650)" d="M1930.55 1373.17 L1930.55 1380.53 L1939.32 1380.53 L1939.32 1383.84 L1930.55 1383.84 L1930.55 1397.91 Q1930.55 1401.09 1931.4 1401.99 Q1932.28 1402.89 1934.94 1402.89 L1939.32 1402.89 L1939.32 1406.46 L1934.94 1406.46 Q1930.01 1406.46 1928.14 1404.63 Q1926.26 1402.77 1926.26 1397.91 L1926.26 1383.84 L1923.14 1383.84 L1923.14 1380.53 L1926.26 1380.53 L1926.26 1373.17 L1930.55 1373.17 Z" fill="#000000" fill-rule="nonzero" fill-opacity="1" /><path clip-path="url(#clip650)" d="M1955.71 1408.86 Q1953.9 1413.49 1952.19 1414.9 Q1950.48 1416.32 1947.61 1416.32 L1944.2 1416.32 L1944.2 1412.75 L1946.7 1412.75 Q1948.46 1412.75 1949.43 1411.92 Q1950.41 1411.08 1951.59 1407.98 L1952.35 1406.04 L1941.87 1380.53 L1946.38 1380.53 L1954.48 1400.81 L1962.58 1380.53 L1967.1 1380.53 L1955.71 1408.86 Z" fill="#000000" fill-rule="nonzero" fill-opacity="1" /><path clip-path="url(#clip650)" d="M1992.91 1389.95 L1992.91 1402.61 L2000.41 1402.61 Q2004.18 1402.61 2005.99 1401.06 Q2007.81 1399.49 2007.81 1396.27 Q2007.81 1393.03 2005.99 1391.5 Q2004.18 1389.95 2000.41 1389.95 L1992.91 1389.95 M1992.91 1375.74 L1992.91 1386.15 L1999.83 1386.15 Q2003.25 1386.15 2004.92 1384.88 Q2006.61 1383.59 2006.61 1380.95 Q2006.61 1378.33 2004.92 1377.03 Q2003.25 1375.74 1999.83 1375.74 L1992.91 1375.74 M1988.23 1371.9 L2000.17 1371.9 Q2005.52 1371.9 2008.42 1374.12 Q2011.31 1376.34 2011.31 1380.44 Q2011.31 1383.61 2009.83 1385.48 Q2008.35 1387.36 2005.48 1387.82 Q2008.92 1388.56 2010.82 1390.92 Q2012.74 1393.26 2012.74 1396.78 Q2012.74 1401.41 2009.6 1403.93 Q2006.45 1406.46 2000.64 1406.46 L1988.23 1406.46 L1988.23 1371.9 Z" fill="#000000" fill-rule="nonzero" fill-opacity="1" /><path clip-path="url(#clip650)" d="M2030.61 1383.52 Q2027.19 1383.52 2025.2 1386.2 Q2023.21 1388.86 2023.21 1393.52 Q2023.21 1398.17 2025.17 1400.85 Q2027.17 1403.52 2030.61 1403.52 Q2034.02 1403.52 2036.01 1400.83 Q2038 1398.15 2038 1393.52 Q2038 1388.91 2036.01 1386.22 Q2034.02 1383.52 2030.61 1383.52 M2030.61 1379.9 Q2036.17 1379.9 2039.34 1383.52 Q2042.51 1387.13 2042.51 1393.52 Q2042.51 1399.88 2039.34 1403.52 Q2036.17 1407.13 2030.61 1407.13 Q2025.04 1407.13 2021.86 1403.52 Q2018.72 1399.88 2018.72 1393.52 Q2018.72 1387.13 2021.86 1383.52 Q2025.04 1379.9 2030.61 1379.9 Z" fill="#000000" fill-rule="nonzero" fill-opacity="1" /><path clip-path="url(#clip650)" d="M2049.13 1396.22 L2049.13 1380.53 L2053.39 1380.53 L2053.39 1396.06 Q2053.39 1399.74 2054.83 1401.59 Q2056.26 1403.42 2059.13 1403.42 Q2062.58 1403.42 2064.57 1401.22 Q2066.59 1399.02 2066.59 1395.23 L2066.59 1380.53 L2070.85 1380.53 L2070.85 1406.46 L2066.59 1406.46 L2066.59 1402.47 Q2065.04 1404.83 2062.98 1405.99 Q2060.94 1407.13 2058.23 1407.13 Q2053.76 1407.13 2051.45 1404.35 Q2049.13 1401.57 2049.13 1396.22 M2059.85 1379.9 L2059.85 1379.9 Z" fill="#000000" fill-rule="nonzero" fill-opacity="1" /><path clip-path="url(#clip650)" d="M2101.17 1390.81 L2101.17 1406.46 L2096.91 1406.46 L2096.91 1390.95 Q2096.91 1387.27 2095.48 1385.44 Q2094.04 1383.61 2091.17 1383.61 Q2087.72 1383.61 2085.73 1385.81 Q2083.74 1388.01 2083.74 1391.8 L2083.74 1406.46 L2079.46 1406.46 L2079.46 1380.53 L2083.74 1380.53 L2083.74 1384.56 Q2085.27 1382.22 2087.33 1381.06 Q2089.41 1379.9 2092.12 1379.9 Q2096.59 1379.9 2098.88 1382.68 Q2101.17 1385.44 2101.17 1390.81 Z" fill="#000000" fill-rule="nonzero" fill-opacity="1" /><path clip-path="url(#clip650)" d="M2126.73 1384.46 L2126.73 1370.44 L2130.98 1370.44 L2130.98 1406.46 L2126.73 1406.46 L2126.73 1402.57 Q2125.38 1404.88 2123.32 1406.02 Q2121.29 1407.13 2118.42 1407.13 Q2113.72 1407.13 2110.75 1403.38 Q2107.81 1399.63 2107.81 1393.52 Q2107.81 1387.4 2110.75 1383.65 Q2113.72 1379.9 2118.42 1379.9 Q2121.29 1379.9 2123.32 1381.04 Q2125.38 1382.15 2126.73 1384.46 M2112.21 1393.52 Q2112.21 1398.21 2114.13 1400.9 Q2116.08 1403.56 2119.46 1403.56 Q2122.84 1403.56 2124.78 1400.9 Q2126.73 1398.21 2126.73 1393.52 Q2126.73 1388.82 2124.78 1386.15 Q2122.84 1383.47 2119.46 1383.47 Q2116.08 1383.47 2114.13 1386.15 Q2112.21 1388.82 2112.21 1393.52 Z" fill="#000000" fill-rule="nonzero" fill-opacity="1" /><path clip-path="url(#clip650)" d="M2156.29 1381.29 L2156.29 1385.32 Q2154.48 1384.4 2152.54 1383.93 Q2150.59 1383.47 2148.51 1383.47 Q2145.34 1383.47 2143.74 1384.44 Q2142.16 1385.41 2142.16 1387.36 Q2142.16 1388.84 2143.3 1389.7 Q2144.43 1390.53 2147.86 1391.29 L2149.32 1391.62 Q2153.85 1392.59 2155.75 1394.37 Q2157.67 1396.13 2157.67 1399.3 Q2157.67 1402.91 2154.8 1405.02 Q2151.96 1407.13 2146.96 1407.13 Q2144.87 1407.13 2142.6 1406.71 Q2140.36 1406.32 2137.86 1405.51 L2137.86 1401.11 Q2140.22 1402.34 2142.51 1402.96 Q2144.8 1403.56 2147.05 1403.56 Q2150.06 1403.56 2151.68 1402.54 Q2153.3 1401.5 2153.3 1399.63 Q2153.3 1397.89 2152.12 1396.96 Q2150.96 1396.04 2147 1395.18 L2145.52 1394.84 Q2141.56 1394 2139.8 1392.29 Q2138.04 1390.55 2138.04 1387.54 Q2138.04 1383.89 2140.64 1381.9 Q2143.23 1379.9 2148 1379.9 Q2150.36 1379.9 2152.44 1380.25 Q2154.53 1380.6 2156.29 1381.29 Z" fill="#000000" fill-rule="nonzero" fill-opacity="1" /></svg>
