<?xml version="1.0" encoding="utf-8"?>
<svg xmlns="http://www.w3.org/2000/svg" xmlns:xlink="http://www.w3.org/1999/xlink" width="600" height="400" viewBox="0 0 2400 1600">
<defs>
  <clipPath id="clip080">
    <rect x="0" y="0" width="2400" height="1600"/>
  </clipPath>
</defs>
<path clip-path="url(#clip080)" d="M0 1600 L2400 1600 L2400 8.88178e-14 L0 8.88178e-14  Z" fill="#ffffff" fill-rule="evenodd" fill-opacity="1"/>
<defs>
  <clipPath id="clip081">
    <rect x="480" y="0" width="1681" height="1600"/>
  </clipPath>
</defs>
<path clip-path="url(#clip080)" d="M112.177 1486.45 L2352.76 1486.45 L2352.76 123.472 L112.177 123.472  Z" fill="#ffffff" fill-rule="evenodd" fill-opacity="1"/>
<defs>
  <clipPath id="clip082">
    <rect x="112" y="123" width="2242" height="1364"/>
  </clipPath>
</defs>
<polyline clip-path="url(#clip082)" style="stroke:#000000; stroke-linecap:round; stroke-linejoin:round; stroke-width:2; stroke-opacity:0.1; fill:none" points="175.59,1486.45 175.59,123.472 "/>
<polyline clip-path="url(#clip082)" style="stroke:#000000; stroke-linecap:round; stroke-linejoin:round; stroke-width:2; stroke-opacity:0.1; fill:none" points="527.882,1486.45 527.882,123.472 "/>
<polyline clip-path="url(#clip082)" style="stroke:#000000; stroke-linecap:round; stroke-linejoin:round; stroke-width:2; stroke-opacity:0.1; fill:none" points="880.174,1486.45 880.174,123.472 "/>
<polyline clip-path="url(#clip082)" style="stroke:#000000; stroke-linecap:round; stroke-linejoin:round; stroke-width:2; stroke-opacity:0.1; fill:none" points="1232.47,1486.45 1232.47,123.472 "/>
<polyline clip-path="url(#clip082)" style="stroke:#000000; stroke-linecap:round; stroke-linejoin:round; stroke-width:2; stroke-opacity:0.1; fill:none" points="1584.76,1486.45 1584.76,123.472 "/>
<polyline clip-path="url(#clip082)" style="stroke:#000000; stroke-linecap:round; stroke-linejoin:round; stroke-width:2; stroke-opacity:0.1; fill:none" points="1937.05,1486.45 1937.05,123.472 "/>
<polyline clip-path="url(#clip082)" style="stroke:#000000; stroke-linecap:round; stroke-linejoin:round; stroke-width:2; stroke-opacity:0.1; fill:none" points="2289.34,1486.45 2289.34,123.472 "/>
<polyline clip-path="url(#clip082)" style="stroke:#000000; stroke-linecap:round; stroke-linejoin:round; stroke-width:2; stroke-opacity:0.1; fill:none" points="112.177,1451.9 2352.76,1451.9 "/>
<polyline clip-path="url(#clip082)" style="stroke:#000000; stroke-linecap:round; stroke-linejoin:round; stroke-width:2; stroke-opacity:0.1; fill:none" points="112.177,1154.21 2352.76,1154.21 "/>
<polyline clip-path="url(#clip082)" style="stroke:#000000; stroke-linecap:round; stroke-linejoin:round; stroke-width:2; stroke-opacity:0.1; fill:none" points="112.177,856.514 2352.76,856.514 "/>
<polyline clip-path="url(#clip082)" style="stroke:#000000; stroke-linecap:round; stroke-linejoin:round; stroke-width:2; stroke-opacity:0.1; fill:none" points="112.177,558.823 2352.76,558.823 "/>
<polyline clip-path="url(#clip082)" style="stroke:#000000; stroke-linecap:round; stroke-linejoin:round; stroke-width:2; stroke-opacity:0.1; fill:none" points="112.177,261.131 2352.76,261.131 "/>
<polyline clip-path="url(#clip080)" style="stroke:#000000; stroke-linecap:round; stroke-linejoin:round; stroke-width:4; stroke-opacity:1; fill:none" points="112.177,1486.45 2352.76,1486.45 "/>
<polyline clip-path="url(#clip080)" style="stroke:#000000; stroke-linecap:round; stroke-linejoin:round; stroke-width:4; stroke-opacity:1; fill:none" points="175.59,1486.45 175.59,1467.55 "/>
<polyline clip-path="url(#clip080)" style="stroke:#000000; stroke-linecap:round; stroke-linejoin:round; stroke-width:4; stroke-opacity:1; fill:none" points="527.882,1486.45 527.882,1467.55 "/>
<polyline clip-path="url(#clip080)" style="stroke:#000000; stroke-linecap:round; stroke-linejoin:round; stroke-width:4; stroke-opacity:1; fill:none" points="880.174,1486.45 880.174,1467.55 "/>
<polyline clip-path="url(#clip080)" style="stroke:#000000; stroke-linecap:round; stroke-linejoin:round; stroke-width:4; stroke-opacity:1; fill:none" points="1232.47,1486.45 1232.47,1467.55 "/>
<polyline clip-path="url(#clip080)" style="stroke:#000000; stroke-linecap:round; stroke-linejoin:round; stroke-width:4; stroke-opacity:1; fill:none" points="1584.76,1486.45 1584.76,1467.55 "/>
<polyline clip-path="url(#clip080)" style="stroke:#000000; stroke-linecap:round; stroke-linejoin:round; stroke-width:4; stroke-opacity:1; fill:none" points="1937.05,1486.45 1937.05,1467.55 "/>
<polyline clip-path="url(#clip080)" style="stroke:#000000; stroke-linecap:round; stroke-linejoin:round; stroke-width:4; stroke-opacity:1; fill:none" points="2289.34,1486.45 2289.34,1467.55 "/>
<path clip-path="url(#clip080)" d="M145.058 1532.02 L174.733 1532.02 L174.733 1535.95 L145.058 1535.95 L145.058 1532.02 Z" fill="#000000" fill-rule="nonzero" fill-opacity="1" /><path clip-path="url(#clip080)" d="M198.992 1530.21 Q202.349 1530.93 204.224 1533.2 Q206.122 1535.47 206.122 1538.8 Q206.122 1543.92 202.604 1546.72 Q199.085 1549.52 192.604 1549.52 Q190.428 1549.52 188.113 1549.08 Q185.821 1548.66 183.368 1547.81 L183.368 1543.29 Q185.312 1544.43 187.627 1545.01 Q189.942 1545.58 192.465 1545.58 Q196.863 1545.58 199.154 1543.85 Q201.469 1542.11 201.469 1538.8 Q201.469 1535.75 199.317 1534.03 Q197.187 1532.3 193.367 1532.3 L189.34 1532.3 L189.34 1528.45 L193.553 1528.45 Q197.002 1528.45 198.83 1527.09 Q200.659 1525.7 200.659 1523.11 Q200.659 1520.45 198.761 1519.03 Q196.886 1517.6 193.367 1517.6 Q191.446 1517.6 189.247 1518.01 Q187.048 1518.43 184.409 1519.31 L184.409 1515.14 Q187.071 1514.4 189.386 1514.03 Q191.724 1513.66 193.784 1513.66 Q199.108 1513.66 202.21 1516.09 Q205.312 1518.5 205.312 1522.62 Q205.312 1525.49 203.668 1527.48 Q202.025 1529.45 198.992 1530.21 Z" fill="#000000" fill-rule="nonzero" fill-opacity="1" /><path clip-path="url(#clip080)" d="M497.824 1532.02 L527.5 1532.02 L527.5 1535.95 L497.824 1535.95 L497.824 1532.02 Z" fill="#000000" fill-rule="nonzero" fill-opacity="1" /><path clip-path="url(#clip080)" d="M541.62 1544.91 L557.94 1544.91 L557.94 1548.85 L535.995 1548.85 L535.995 1544.91 Q538.657 1542.16 543.241 1537.53 Q547.847 1532.88 549.028 1531.53 Q551.273 1529.01 552.153 1527.27 Q553.056 1525.51 553.056 1523.82 Q553.056 1521.07 551.111 1519.33 Q549.19 1517.6 546.088 1517.6 Q543.889 1517.6 541.435 1518.36 Q539.005 1519.13 536.227 1520.68 L536.227 1515.95 Q539.051 1514.82 541.505 1514.24 Q543.958 1513.66 545.995 1513.66 Q551.366 1513.66 554.56 1516.35 Q557.755 1519.03 557.755 1523.52 Q557.755 1525.65 556.944 1527.57 Q556.157 1529.47 554.051 1532.07 Q553.472 1532.74 550.37 1535.95 Q547.269 1539.15 541.62 1544.91 Z" fill="#000000" fill-rule="nonzero" fill-opacity="1" /><path clip-path="url(#clip080)" d="M849.931 1532.02 L879.607 1532.02 L879.607 1535.95 L849.931 1535.95 L849.931 1532.02 Z" fill="#000000" fill-rule="nonzero" fill-opacity="1" /><path clip-path="url(#clip080)" d="M890.51 1544.91 L898.149 1544.91 L898.149 1518.55 L889.839 1520.21 L889.839 1515.95 L898.102 1514.29 L902.778 1514.29 L902.778 1544.91 L910.417 1544.91 L910.417 1548.85 L890.51 1548.85 L890.51 1544.91 Z" fill="#000000" fill-rule="nonzero" fill-opacity="1" /><path clip-path="url(#clip080)" d="M1232.47 1517.37 Q1228.86 1517.37 1227.03 1520.93 Q1225.22 1524.47 1225.22 1531.6 Q1225.22 1538.71 1227.03 1542.27 Q1228.86 1545.82 1232.47 1545.82 Q1236.1 1545.82 1237.91 1542.27 Q1239.74 1538.71 1239.74 1531.6 Q1239.74 1524.47 1237.91 1520.93 Q1236.1 1517.37 1232.47 1517.37 M1232.47 1513.66 Q1238.28 1513.66 1241.33 1518.27 Q1244.41 1522.85 1244.41 1531.6 Q1244.41 1540.33 1241.33 1544.94 Q1238.28 1549.52 1232.47 1549.52 Q1226.66 1549.52 1223.58 1544.94 Q1220.52 1540.33 1220.52 1531.6 Q1220.52 1522.85 1223.58 1518.27 Q1226.66 1513.66 1232.47 1513.66 Z" fill="#000000" fill-rule="nonzero" fill-opacity="1" /><path clip-path="url(#clip080)" d="M1575.14 1544.91 L1582.78 1544.91 L1582.78 1518.55 L1574.47 1520.21 L1574.47 1515.95 L1582.73 1514.29 L1587.41 1514.29 L1587.41 1544.91 L1595.05 1544.91 L1595.05 1548.85 L1575.14 1548.85 L1575.14 1544.91 Z" fill="#000000" fill-rule="nonzero" fill-opacity="1" /><path clip-path="url(#clip080)" d="M1931.7 1544.91 L1948.02 1544.91 L1948.02 1548.85 L1926.08 1548.85 L1926.08 1544.91 Q1928.74 1542.16 1933.32 1537.53 Q1937.93 1532.88 1939.11 1531.53 Q1941.36 1529.01 1942.24 1527.27 Q1943.14 1525.51 1943.14 1523.82 Q1943.14 1521.07 1941.19 1519.33 Q1939.27 1517.6 1936.17 1517.6 Q1933.97 1517.6 1931.52 1518.36 Q1929.09 1519.13 1926.31 1520.68 L1926.31 1515.95 Q1929.13 1514.82 1931.59 1514.24 Q1934.04 1513.66 1936.08 1513.66 Q1941.45 1513.66 1944.64 1516.35 Q1947.84 1519.03 1947.84 1523.52 Q1947.84 1525.65 1947.03 1527.57 Q1946.24 1529.47 1944.13 1532.07 Q1943.56 1532.74 1940.45 1535.95 Q1937.35 1539.15 1931.7 1544.91 Z" fill="#000000" fill-rule="nonzero" fill-opacity="1" /><path clip-path="url(#clip080)" d="M2293.59 1530.21 Q2296.95 1530.93 2298.82 1533.2 Q2300.72 1535.47 2300.72 1538.8 Q2300.72 1543.92 2297.2 1546.72 Q2293.68 1549.52 2287.2 1549.52 Q2285.03 1549.52 2282.71 1549.08 Q2280.42 1548.66 2277.97 1547.81 L2277.97 1543.29 Q2279.91 1544.43 2282.23 1545.01 Q2284.54 1545.58 2287.06 1545.58 Q2291.46 1545.58 2293.75 1543.85 Q2296.07 1542.11 2296.07 1538.8 Q2296.07 1535.75 2293.92 1534.03 Q2291.79 1532.3 2287.97 1532.3 L2283.94 1532.3 L2283.94 1528.45 L2288.15 1528.45 Q2291.6 1528.45 2293.43 1527.09 Q2295.26 1525.7 2295.26 1523.11 Q2295.26 1520.45 2293.36 1519.03 Q2291.48 1517.6 2287.97 1517.6 Q2286.04 1517.6 2283.85 1518.01 Q2281.65 1518.43 2279.01 1519.31 L2279.01 1515.14 Q2281.67 1514.4 2283.98 1514.03 Q2286.32 1513.66 2288.38 1513.66 Q2293.71 1513.66 2296.81 1516.09 Q2299.91 1518.5 2299.91 1522.62 Q2299.91 1525.49 2298.27 1527.48 Q2296.62 1529.45 2293.59 1530.21 Z" fill="#000000" fill-rule="nonzero" fill-opacity="1" /><polyline clip-path="url(#clip080)" style="stroke:#000000; stroke-linecap:round; stroke-linejoin:round; stroke-width:4; stroke-opacity:1; fill:none" points="112.177,1486.45 112.177,123.472 "/>
<polyline clip-path="url(#clip080)" style="stroke:#000000; stroke-linecap:round; stroke-linejoin:round; stroke-width:4; stroke-opacity:1; fill:none" points="112.177,1451.9 131.075,1451.9 "/>
<polyline clip-path="url(#clip080)" style="stroke:#000000; stroke-linecap:round; stroke-linejoin:round; stroke-width:4; stroke-opacity:1; fill:none" points="112.177,1154.21 131.075,1154.21 "/>
<polyline clip-path="url(#clip080)" style="stroke:#000000; stroke-linecap:round; stroke-linejoin:round; stroke-width:4; stroke-opacity:1; fill:none" points="112.177,856.514 131.075,856.514 "/>
<polyline clip-path="url(#clip080)" style="stroke:#000000; stroke-linecap:round; stroke-linejoin:round; stroke-width:4; stroke-opacity:1; fill:none" points="112.177,558.823 131.075,558.823 "/>
<polyline clip-path="url(#clip080)" style="stroke:#000000; stroke-linecap:round; stroke-linejoin:round; stroke-width:4; stroke-opacity:1; fill:none" points="112.177,261.131 131.075,261.131 "/>
<path clip-path="url(#clip080)" d="M64.2328 1437.7 Q60.6217 1437.7 58.793 1441.26 Q56.9875 1444.8 56.9875 1451.93 Q56.9875 1459.04 58.793 1462.6 Q60.6217 1466.15 64.2328 1466.15 Q67.867 1466.15 69.6726 1462.6 Q71.5013 1459.04 71.5013 1451.93 Q71.5013 1444.8 69.6726 1441.26 Q67.867 1437.7 64.2328 1437.7 M64.2328 1433.99 Q70.0429 1433.99 73.0985 1438.6 Q76.1772 1443.18 76.1772 1451.93 Q76.1772 1460.66 73.0985 1465.27 Q70.0429 1469.85 64.2328 1469.85 Q58.4226 1469.85 55.344 1465.27 Q52.2884 1460.66 52.2884 1451.93 Q52.2884 1443.18 55.344 1438.6 Q58.4226 1433.99 64.2328 1433.99 Z" fill="#000000" fill-rule="nonzero" fill-opacity="1" /><path clip-path="url(#clip080)" d="M59.8578 1167.55 L76.1772 1167.55 L76.1772 1171.49 L54.2328 1171.49 L54.2328 1167.55 Q56.8949 1164.8 61.4782 1160.17 Q66.0846 1155.51 67.2652 1154.17 Q69.5105 1151.65 70.3902 1149.91 Q71.2929 1148.15 71.2929 1146.46 Q71.2929 1143.71 69.3485 1141.97 Q67.4272 1140.24 64.3254 1140.24 Q62.1263 1140.24 59.6726 1141 Q57.2421 1141.76 54.4643 1143.32 L54.4643 1138.59 Q57.2884 1137.46 59.7421 1136.88 Q62.1958 1136.3 64.2328 1136.3 Q69.6031 1136.3 72.7976 1138.99 Q75.992 1141.67 75.992 1146.16 Q75.992 1148.29 75.1818 1150.21 Q74.3948 1152.11 72.2883 1154.7 Q71.7096 1155.38 68.6078 1158.59 Q65.5059 1161.79 59.8578 1167.55 Z" fill="#000000" fill-rule="nonzero" fill-opacity="1" /><path clip-path="url(#clip080)" d="M66.5939 843.308 L54.7884 861.757 L66.5939 861.757 L66.5939 843.308 M65.367 839.234 L71.2466 839.234 L71.2466 861.757 L76.1772 861.757 L76.1772 865.646 L71.2466 865.646 L71.2466 873.794 L66.5939 873.794 L66.5939 865.646 L50.9921 865.646 L50.9921 861.132 L65.367 839.234 Z" fill="#000000" fill-rule="nonzero" fill-opacity="1" /><path clip-path="url(#clip080)" d="M64.6495 556.959 Q61.5013 556.959 59.6495 559.112 Q57.8208 561.265 57.8208 565.015 Q57.8208 568.742 59.6495 570.918 Q61.5013 573.07 64.6495 573.07 Q67.7976 573.07 69.6263 570.918 Q71.4781 568.742 71.4781 565.015 Q71.4781 561.265 69.6263 559.112 Q67.7976 556.959 64.6495 556.959 M73.9318 542.307 L73.9318 546.566 Q72.1726 545.732 70.367 545.293 Q68.5846 544.853 66.8254 544.853 Q62.1958 544.853 59.7421 547.978 Q57.3115 551.103 56.9643 557.422 Q58.33 555.408 60.3902 554.344 Q62.4504 553.256 64.9272 553.256 Q70.1355 553.256 73.1448 556.427 Q76.1772 559.575 76.1772 565.015 Q76.1772 570.339 73.029 573.556 Q69.8809 576.774 64.6495 576.774 Q58.6541 576.774 55.4828 572.191 Q52.3116 567.584 52.3116 558.857 Q52.3116 550.663 56.2004 545.802 Q60.0893 540.918 66.6402 540.918 Q68.3994 540.918 70.1818 541.265 Q71.9874 541.612 73.9318 542.307 Z" fill="#000000" fill-rule="nonzero" fill-opacity="1" /><path clip-path="url(#clip080)" d="M64.3254 261.999 Q60.9921 261.999 59.0708 263.781 Q57.1726 265.564 57.1726 268.689 Q57.1726 271.814 59.0708 273.596 Q60.9921 275.379 64.3254 275.379 Q67.6587 275.379 69.58 273.596 Q71.5013 271.791 71.5013 268.689 Q71.5013 265.564 69.58 263.781 Q67.6819 261.999 64.3254 261.999 M59.6495 260.008 Q56.6402 259.267 54.9504 257.207 Q53.2838 255.147 53.2838 252.184 Q53.2838 248.041 56.2236 245.633 Q59.1865 243.226 64.3254 243.226 Q69.4874 243.226 72.4272 245.633 Q75.367 248.041 75.367 252.184 Q75.367 255.147 73.6772 257.207 Q72.0105 259.267 69.0244 260.008 Q72.404 260.795 74.279 263.087 Q76.1772 265.379 76.1772 268.689 Q76.1772 273.712 73.0985 276.397 Q70.0429 279.082 64.3254 279.082 Q58.6078 279.082 55.5291 276.397 Q52.4736 273.712 52.4736 268.689 Q52.4736 265.379 54.3717 263.087 Q56.2699 260.795 59.6495 260.008 M57.9365 252.624 Q57.9365 255.309 59.6032 256.814 Q61.293 258.318 64.3254 258.318 Q67.3346 258.318 69.0244 256.814 Q70.7374 255.309 70.7374 252.624 Q70.7374 249.939 69.0244 248.434 Q67.3346 246.93 64.3254 246.93 Q61.293 246.93 59.6032 248.434 Q57.9365 249.939 57.9365 252.624 Z" fill="#000000" fill-rule="nonzero" fill-opacity="1" /><path clip-path="url(#clip080)" d="M699.55 12.096 L707.733 12.096 L707.733 65.6895 L737.183 65.6895 L737.183 72.576 L699.55 72.576 L699.55 12.096 Z" fill="#000000" fill-rule="nonzero" fill-opacity="1" /><path clip-path="url(#clip080)" d="M782.796 48.0275 L782.796 51.6733 L748.525 51.6733 Q749.011 59.3701 753.143 63.421 Q757.316 67.4314 764.729 67.4314 Q769.023 67.4314 773.033 66.3781 Q777.084 65.3249 781.054 63.2184 L781.054 70.267 Q777.044 71.9684 772.831 72.8596 Q768.618 73.7508 764.283 73.7508 Q753.427 73.7508 747.067 67.4314 Q740.748 61.1119 740.748 50.3365 Q740.748 39.1965 746.743 32.6746 Q752.779 26.1121 762.987 26.1121 Q772.142 26.1121 777.449 32.0264 Q782.796 37.9003 782.796 48.0275 M775.342 45.84 Q775.261 39.7232 771.899 36.0774 Q768.577 32.4315 763.068 32.4315 Q756.83 32.4315 753.062 35.9558 Q749.335 39.4801 748.768 45.8805 L775.342 45.84 Z" fill="#000000" fill-rule="nonzero" fill-opacity="1" /><path clip-path="url(#clip080)" d="M815.649 49.7694 Q806.615 49.7694 803.131 51.8354 Q799.648 53.9013 799.648 58.8839 Q799.648 62.8538 802.24 65.2034 Q804.873 67.5124 809.37 67.5124 Q815.568 67.5124 819.295 63.1374 Q823.062 58.7219 823.062 51.4303 L823.062 49.7694 L815.649 49.7694 M830.516 46.6907 L830.516 72.576 L823.062 72.576 L823.062 65.6895 Q820.51 69.8214 816.702 71.8063 Q812.894 73.7508 807.385 73.7508 Q800.417 73.7508 796.285 69.8619 Q792.194 65.9325 792.194 59.3701 Q792.194 51.7138 797.298 47.825 Q802.443 43.9361 812.611 43.9361 L823.062 43.9361 L823.062 43.2069 Q823.062 38.0623 819.659 35.2672 Q816.297 32.4315 810.18 32.4315 Q806.291 32.4315 802.605 33.3632 Q798.919 34.295 795.516 36.1584 L795.516 29.2718 Q799.607 27.692 803.456 26.9223 Q807.304 26.1121 810.95 26.1121 Q820.793 26.1121 825.654 31.2163 Q830.516 36.3204 830.516 46.6907 Z" fill="#000000" fill-rule="nonzero" fill-opacity="1" /><path clip-path="url(#clip080)" d="M872.159 34.1734 Q870.903 33.4443 869.404 33.1202 Q867.946 32.7556 866.164 32.7556 Q859.844 32.7556 856.441 36.8875 Q853.079 40.9789 853.079 48.6757 L853.079 72.576 L845.585 72.576 L845.585 27.2059 L853.079 27.2059 L853.079 34.2544 Q855.429 30.1225 859.196 28.1376 Q862.963 26.1121 868.351 26.1121 Q869.121 26.1121 870.052 26.2337 Q870.984 26.3147 872.118 26.5172 L872.159 34.1734 Z" fill="#000000" fill-rule="nonzero" fill-opacity="1" /><path clip-path="url(#clip080)" d="M916.233 45.1919 L916.233 72.576 L908.779 72.576 L908.779 45.4349 Q908.779 38.994 906.267 35.7938 Q903.756 32.5936 898.733 32.5936 Q892.697 32.5936 889.213 36.4419 Q885.729 40.2903 885.729 46.9338 L885.729 72.576 L878.235 72.576 L878.235 27.2059 L885.729 27.2059 L885.729 34.2544 Q888.403 30.163 892.008 28.1376 Q895.654 26.1121 900.394 26.1121 Q908.212 26.1121 912.222 30.9732 Q916.233 35.7938 916.233 45.1919 Z" fill="#000000" fill-rule="nonzero" fill-opacity="1" /><path clip-path="url(#clip080)" d="M969.907 48.0275 L969.907 51.6733 L935.637 51.6733 Q936.123 59.3701 940.255 63.421 Q944.427 67.4314 951.84 67.4314 Q956.134 67.4314 960.145 66.3781 Q964.195 65.3249 968.165 63.2184 L968.165 70.267 Q964.155 71.9684 959.942 72.8596 Q955.729 73.7508 951.395 73.7508 Q940.538 73.7508 934.178 67.4314 Q927.859 61.1119 927.859 50.3365 Q927.859 39.1965 933.854 32.6746 Q939.89 26.1121 950.098 26.1121 Q959.253 26.1121 964.56 32.0264 Q969.907 37.9003 969.907 48.0275 M962.454 45.84 Q962.373 39.7232 959.01 36.0774 Q955.689 32.4315 950.179 32.4315 Q943.941 32.4315 940.174 35.9558 Q936.447 39.4801 935.88 45.8805 L962.454 45.84 Z" fill="#000000" fill-rule="nonzero" fill-opacity="1" /><path clip-path="url(#clip080)" d="M1012 34.0924 L1012 9.54393 L1019.45 9.54393 L1019.45 72.576 L1012 72.576 L1012 65.7705 Q1009.65 69.8214 1006.04 71.8063 Q1002.48 73.7508 997.453 73.7508 Q989.23 73.7508 984.045 67.1883 Q978.9 60.6258 978.9 49.9314 Q978.9 39.2371 984.045 32.6746 Q989.23 26.1121 997.453 26.1121 Q1002.48 26.1121 1006.04 28.0971 Q1009.65 30.0415 1012 34.0924 M986.597 49.9314 Q986.597 58.1548 989.959 62.8538 Q993.362 67.5124 999.276 67.5124 Q1005.19 67.5124 1008.59 62.8538 Q1012 58.1548 1012 49.9314 Q1012 41.7081 1008.59 37.0496 Q1005.19 32.3505 999.276 32.3505 Q993.362 32.3505 989.959 37.0496 Q986.597 41.7081 986.597 49.9314 Z" fill="#000000" fill-rule="nonzero" fill-opacity="1" /><path clip-path="url(#clip080)" d="M1097.75 14.0809 L1097.75 22.0612 Q1093.1 19.8332 1088.96 18.7395 Q1084.83 17.6457 1080.98 17.6457 Q1074.3 17.6457 1070.65 20.2383 Q1067.05 22.8309 1067.05 27.611 Q1067.05 31.6214 1069.44 33.6873 Q1071.87 35.7128 1078.59 36.9686 L1083.54 37.9813 Q1092.69 39.7232 1097.02 44.1387 Q1101.4 48.5136 1101.4 55.8863 Q1101.4 64.6767 1095.49 69.2137 Q1089.61 73.7508 1078.23 73.7508 Q1073.93 73.7508 1069.07 72.7785 Q1064.25 71.8063 1059.07 69.9024 L1059.07 61.4765 Q1064.05 64.2716 1068.83 65.6895 Q1073.61 67.1073 1078.23 67.1073 Q1085.24 67.1073 1089.04 64.3527 Q1092.85 61.598 1092.85 56.4939 Q1092.85 52.0379 1090.1 49.5264 Q1087.38 47.0148 1081.15 45.759 L1076.16 44.7868 Q1067.01 42.9639 1062.92 39.075 Q1058.82 35.1862 1058.82 28.2591 Q1058.82 20.2383 1064.46 15.6203 Q1070.13 11.0023 1080.05 11.0023 Q1084.3 11.0023 1088.72 11.7719 Q1093.14 12.5416 1097.75 14.0809 Z" fill="#000000" fill-rule="nonzero" fill-opacity="1" /><path clip-path="url(#clip080)" d="M1121.21 14.324 L1121.21 27.2059 L1136.56 27.2059 L1136.56 32.9987 L1121.21 32.9987 L1121.21 57.6282 Q1121.21 63.1779 1122.71 64.7578 Q1124.25 66.3376 1128.91 66.3376 L1136.56 66.3376 L1136.56 72.576 L1128.91 72.576 Q1120.28 72.576 1117 69.3758 Q1113.71 66.1351 1113.71 57.6282 L1113.71 32.9987 L1108.25 32.9987 L1108.25 27.2059 L1113.71 27.2059 L1113.71 14.324 L1121.21 14.324 Z" fill="#000000" fill-rule="nonzero" fill-opacity="1" /><path clip-path="url(#clip080)" d="M1166.98 49.7694 Q1157.95 49.7694 1154.47 51.8354 Q1150.98 53.9013 1150.98 58.8839 Q1150.98 62.8538 1153.58 65.2034 Q1156.21 67.5124 1160.7 67.5124 Q1166.9 67.5124 1170.63 63.1374 Q1174.4 58.7219 1174.4 51.4303 L1174.4 49.7694 L1166.98 49.7694 M1181.85 46.6907 L1181.85 72.576 L1174.4 72.576 L1174.4 65.6895 Q1171.84 69.8214 1168.04 71.8063 Q1164.23 73.7508 1158.72 73.7508 Q1151.75 73.7508 1147.62 69.8619 Q1143.53 65.9325 1143.53 59.3701 Q1143.53 51.7138 1148.63 47.825 Q1153.78 43.9361 1163.95 43.9361 L1174.4 43.9361 L1174.4 43.2069 Q1174.4 38.0623 1170.99 35.2672 Q1167.63 32.4315 1161.51 32.4315 Q1157.63 32.4315 1153.94 33.3632 Q1150.25 34.295 1146.85 36.1584 L1146.85 29.2718 Q1150.94 27.692 1154.79 26.9223 Q1158.64 26.1121 1162.28 26.1121 Q1172.13 26.1121 1176.99 31.2163 Q1181.85 36.3204 1181.85 46.6907 Z" fill="#000000" fill-rule="nonzero" fill-opacity="1" /><path clip-path="url(#clip080)" d="M1229.77 49.9314 Q1229.77 41.7081 1226.37 37.0496 Q1223.01 32.3505 1217.09 32.3505 Q1211.18 32.3505 1207.78 37.0496 Q1204.41 41.7081 1204.41 49.9314 Q1204.41 58.1548 1207.78 62.8538 Q1211.18 67.5124 1217.09 67.5124 Q1223.01 67.5124 1226.37 62.8538 Q1229.77 58.1548 1229.77 49.9314 M1204.41 34.0924 Q1206.76 30.0415 1210.33 28.0971 Q1213.93 26.1121 1218.92 26.1121 Q1227.18 26.1121 1232.32 32.6746 Q1237.51 39.2371 1237.51 49.9314 Q1237.51 60.6258 1232.32 67.1883 Q1227.18 73.7508 1218.92 73.7508 Q1213.93 73.7508 1210.33 71.8063 Q1206.76 69.8214 1204.41 65.7705 L1204.41 72.576 L1196.92 72.576 L1196.92 9.54393 L1204.41 9.54393 L1204.41 34.0924 Z" fill="#000000" fill-rule="nonzero" fill-opacity="1" /><path clip-path="url(#clip080)" d="M1249.87 27.2059 L1257.32 27.2059 L1257.32 72.576 L1249.87 72.576 L1249.87 27.2059 M1249.87 9.54393 L1257.32 9.54393 L1257.32 18.9825 L1249.87 18.9825 L1249.87 9.54393 Z" fill="#000000" fill-rule="nonzero" fill-opacity="1" /><path clip-path="url(#clip080)" d="M1272.91 9.54393 L1280.37 9.54393 L1280.37 72.576 L1272.91 72.576 L1272.91 9.54393 Z" fill="#000000" fill-rule="nonzero" fill-opacity="1" /><path clip-path="url(#clip080)" d="M1295.96 27.2059 L1303.42 27.2059 L1303.42 72.576 L1295.96 72.576 L1295.96 27.2059 M1295.96 9.54393 L1303.42 9.54393 L1303.42 18.9825 L1295.96 18.9825 L1295.96 9.54393 Z" fill="#000000" fill-rule="nonzero" fill-opacity="1" /><path clip-path="url(#clip080)" d="M1326.39 14.324 L1326.39 27.2059 L1341.74 27.2059 L1341.74 32.9987 L1326.39 32.9987 L1326.39 57.6282 Q1326.39 63.1779 1327.89 64.7578 Q1329.42 66.3376 1334.08 66.3376 L1341.74 66.3376 L1341.74 72.576 L1334.08 72.576 Q1325.46 72.576 1322.17 69.3758 Q1318.89 66.1351 1318.89 57.6282 L1318.89 32.9987 L1313.42 32.9987 L1313.42 27.2059 L1318.89 27.2059 L1318.89 14.324 L1326.39 14.324 Z" fill="#000000" fill-rule="nonzero" fill-opacity="1" /><path clip-path="url(#clip080)" d="M1370.42 76.7889 Q1367.26 84.8907 1364.26 87.3618 Q1361.27 89.8329 1356.24 89.8329 L1350.29 89.8329 L1350.29 83.5945 L1354.66 83.5945 Q1357.74 83.5945 1359.44 82.1361 Q1361.14 80.6778 1363.21 75.2496 L1364.55 71.8468 L1346.2 27.2059 L1354.09 27.2059 L1368.27 62.6918 L1382.45 27.2059 L1390.35 27.2059 L1370.42 76.7889 Z" fill="#000000" fill-rule="nonzero" fill-opacity="1" /><path clip-path="url(#clip080)" d="M1427.34 12.096 L1439.53 12.096 L1454.96 53.2532 L1470.48 12.096 L1482.67 12.096 L1482.67 72.576 L1474.69 72.576 L1474.69 19.4686 L1459.09 60.9499 L1450.87 60.9499 L1435.28 19.4686 L1435.28 72.576 L1427.34 72.576 L1427.34 12.096 Z" fill="#000000" fill-rule="nonzero" fill-opacity="1" /><path clip-path="url(#clip080)" d="M1519.21 49.7694 Q1510.18 49.7694 1506.69 51.8354 Q1503.21 53.9013 1503.21 58.8839 Q1503.21 62.8538 1505.8 65.2034 Q1508.43 67.5124 1512.93 67.5124 Q1519.13 67.5124 1522.86 63.1374 Q1526.62 58.7219 1526.62 51.4303 L1526.62 49.7694 L1519.21 49.7694 M1534.08 46.6907 L1534.08 72.576 L1526.62 72.576 L1526.62 65.6895 Q1524.07 69.8214 1520.26 71.8063 Q1516.46 73.7508 1510.95 73.7508 Q1503.98 73.7508 1499.85 69.8619 Q1495.76 65.9325 1495.76 59.3701 Q1495.76 51.7138 1500.86 47.825 Q1506 43.9361 1516.17 43.9361 L1526.62 43.9361 L1526.62 43.2069 Q1526.62 38.0623 1523.22 35.2672 Q1519.86 32.4315 1513.74 32.4315 Q1509.85 32.4315 1506.17 33.3632 Q1502.48 34.295 1499.08 36.1584 L1499.08 29.2718 Q1503.17 27.692 1507.02 26.9223 Q1510.86 26.1121 1514.51 26.1121 Q1524.35 26.1121 1529.22 31.2163 Q1534.08 36.3204 1534.08 46.6907 Z" fill="#000000" fill-rule="nonzero" fill-opacity="1" /><path clip-path="url(#clip080)" d="M1587.14 45.1919 L1587.14 72.576 L1579.69 72.576 L1579.69 45.4349 Q1579.69 38.994 1577.18 35.7938 Q1574.67 32.5936 1569.64 32.5936 Q1563.61 32.5936 1560.12 36.4419 Q1556.64 40.2903 1556.64 46.9338 L1556.64 72.576 L1549.15 72.576 L1549.15 27.2059 L1556.64 27.2059 L1556.64 34.2544 Q1559.31 30.163 1562.92 28.1376 Q1566.56 26.1121 1571.3 26.1121 Q1579.12 26.1121 1583.13 30.9732 Q1587.14 35.7938 1587.14 45.1919 Z" fill="#000000" fill-rule="nonzero" fill-opacity="1" /><path clip-path="url(#clip080)" d="M1602.01 27.2059 L1609.46 27.2059 L1609.46 72.576 L1602.01 72.576 L1602.01 27.2059 M1602.01 9.54393 L1609.46 9.54393 L1609.46 18.9825 L1602.01 18.9825 L1602.01 9.54393 Z" fill="#000000" fill-rule="nonzero" fill-opacity="1" /><path clip-path="url(#clip080)" d="M1648.03 9.54393 L1648.03 15.7418 L1640.9 15.7418 Q1636.89 15.7418 1635.31 17.3622 Q1633.77 18.9825 1633.77 23.1955 L1633.77 27.2059 L1646.04 27.2059 L1646.04 32.9987 L1633.77 32.9987 L1633.77 72.576 L1626.28 72.576 L1626.28 32.9987 L1619.15 32.9987 L1619.15 27.2059 L1626.28 27.2059 L1626.28 24.0462 Q1626.28 16.471 1629.8 13.0277 Q1633.32 9.54393 1640.98 9.54393 L1648.03 9.54393 Z" fill="#000000" fill-rule="nonzero" fill-opacity="1" /><path clip-path="url(#clip080)" d="M1671.85 32.4315 Q1665.85 32.4315 1662.37 37.1306 Q1658.88 41.7891 1658.88 49.9314 Q1658.88 58.0738 1662.33 62.7728 Q1665.81 67.4314 1671.85 67.4314 Q1677.8 67.4314 1681.29 62.7323 Q1684.77 58.0333 1684.77 49.9314 Q1684.77 41.8701 1681.29 37.1711 Q1677.8 32.4315 1671.85 32.4315 M1671.85 26.1121 Q1681.57 26.1121 1687.12 32.4315 Q1692.67 38.7509 1692.67 49.9314 Q1692.67 61.0714 1687.12 67.4314 Q1681.57 73.7508 1671.85 73.7508 Q1662.09 73.7508 1656.54 67.4314 Q1651.03 61.0714 1651.03 49.9314 Q1651.03 38.7509 1656.54 32.4315 Q1662.09 26.1121 1671.85 26.1121 Z" fill="#000000" fill-rule="nonzero" fill-opacity="1" /><path clip-path="url(#clip080)" d="M1705.02 9.54393 L1712.48 9.54393 L1712.48 72.576 L1705.02 72.576 L1705.02 9.54393 Z" fill="#000000" fill-rule="nonzero" fill-opacity="1" /><path clip-path="url(#clip080)" d="M1757.93 34.0924 L1757.93 9.54393 L1765.38 9.54393 L1765.38 72.576 L1757.93 72.576 L1757.93 65.7705 Q1755.58 69.8214 1751.97 71.8063 Q1748.41 73.7508 1743.39 73.7508 Q1735.16 73.7508 1729.98 67.1883 Q1724.83 60.6258 1724.83 49.9314 Q1724.83 39.2371 1729.98 32.6746 Q1735.16 26.1121 1743.39 26.1121 Q1748.41 26.1121 1751.97 28.0971 Q1755.58 30.0415 1757.93 34.0924 M1732.53 49.9314 Q1732.53 58.1548 1735.89 62.8538 Q1739.3 67.5124 1745.21 67.5124 Q1751.12 67.5124 1754.53 62.8538 Q1757.93 58.1548 1757.93 49.9314 Q1757.93 41.7081 1754.53 37.0496 Q1751.12 32.3505 1745.21 32.3505 Q1739.3 32.3505 1735.89 37.0496 Q1732.53 41.7081 1732.53 49.9314 Z" fill="#000000" fill-rule="nonzero" fill-opacity="1" /><polyline clip-path="url(#clip082)" style="stroke:#008000; stroke-linecap:round; stroke-linejoin:round; stroke-width:8; stroke-opacity:1; fill:none" points="175.59,1276.89 210.819,1289.77 246.048,1302.13 281.277,1313.99 316.507,1325.34 351.736,1336.17 386.965,1346.5 422.194,1356.32 457.424,1365.63 492.653,1374.43 527.882,1382.72 563.111,1390.5 598.341,1397.77 633.57,1404.53 668.799,1410.78 704.028,1416.53 739.257,1421.76 774.487,1426.48 809.716,1430.7 844.945,1434.4 880.174,1437.6 915.404,1440.29 950.633,1442.46 985.862,1444.13 1021.09,1445.29 1056.32,1445.94 1091.55,1446.09 1126.78,1445.76 1162.01,1445.14 1197.24,1444.85 1232.47,1446.64 1267.7,1447.87 1302.92,1446.07 1338.15,1440.78 1373.38,1432.52 1408.61,1421.2 1443.84,1406.84 1479.07,1389.44 1514.3,1369.05 1549.53,1345.66 1584.76,1319.27 1619.99,1289.88 1655.22,1257.49 1690.45,1222.11 1725.68,1183.73 1760.9,1142.36 1796.13,1097.98 1831.36,1050.61 1866.59,1000.24 1901.82,946.879 1937.05,890.517 1972.28,831.157 2007.51,768.801 2042.74,703.447 2077.97,635.095 2113.2,563.747 2148.43,489.401 2183.66,412.059 2218.88,331.719 2254.11,248.381 2289.34,162.047 "/>
<polyline clip-path="url(#clip082)" style="stroke:#ff0000; stroke-linecap:round; stroke-linejoin:round; stroke-width:4; stroke-opacity:1; fill:none" stroke-dasharray="16, 10" points="527.882,2849.42 527.882,-1239.5 "/>
<polyline clip-path="url(#clip082)" style="stroke:#ff0000; stroke-linecap:round; stroke-linejoin:round; stroke-width:4; stroke-opacity:1; fill:none" stroke-dasharray="16, 10" points="1937.05,2849.42 1937.05,-1239.5 "/>
<path clip-path="url(#clip080)" d="M186.863 324.425 L909.252 324.425 L909.252 168.905 L186.863 168.905  Z" fill="#ffffff" fill-rule="evenodd" fill-opacity="1"/>
<polyline clip-path="url(#clip080)" style="stroke:#000000; stroke-linecap:round; stroke-linejoin:round; stroke-width:4; stroke-opacity:1; fill:none" points="186.863,324.425 909.252,324.425 909.252,168.905 186.863,168.905 186.863,324.425 "/>
<polyline clip-path="url(#clip080)" style="stroke:#008000; stroke-linecap:round; stroke-linejoin:round; stroke-width:8; stroke-opacity:1; fill:none" points="211.758,220.745 361.13,220.745 "/>
<path clip-path="url(#clip080)" d="M386.026 203.465 L392.322 203.465 L407.646 232.377 L407.646 203.465 L412.183 203.465 L412.183 238.025 L405.887 238.025 L390.563 209.113 L390.563 238.025 L386.026 238.025 L386.026 203.465 Z" fill="#000000" fill-rule="nonzero" fill-opacity="1" /><path clip-path="url(#clip080)" d="M443.479 223.997 L443.479 226.08 L423.896 226.08 Q424.174 230.478 426.535 232.793 Q428.919 235.085 433.155 235.085 Q435.609 235.085 437.9 234.483 Q440.215 233.881 442.484 232.677 L442.484 236.705 Q440.192 237.677 437.785 238.187 Q435.377 238.696 432.9 238.696 Q426.697 238.696 423.063 235.085 Q419.451 231.474 419.451 225.316 Q419.451 218.951 422.877 215.224 Q426.326 211.474 432.16 211.474 Q437.391 211.474 440.424 214.853 Q443.479 218.21 443.479 223.997 M439.22 222.747 Q439.174 219.252 437.252 217.168 Q435.354 215.085 432.206 215.085 Q428.641 215.085 426.488 217.099 Q424.359 219.113 424.035 222.77 L439.22 222.747 Z" fill="#000000" fill-rule="nonzero" fill-opacity="1" /><path clip-path="url(#clip080)" d="M450.03 227.793 L450.03 212.099 L454.289 212.099 L454.289 227.631 Q454.289 231.312 455.724 233.164 Q457.16 234.992 460.03 234.992 Q463.479 234.992 465.47 232.793 Q467.484 230.594 467.484 226.798 L467.484 212.099 L471.743 212.099 L471.743 238.025 L467.484 238.025 L467.484 234.043 Q465.933 236.404 463.872 237.562 Q461.835 238.696 459.127 238.696 Q454.66 238.696 452.345 235.918 Q450.03 233.14 450.03 227.793 M460.748 211.474 L460.748 211.474 Z" fill="#000000" fill-rule="nonzero" fill-opacity="1" /><path clip-path="url(#clip080)" d="M495.539 216.08 Q494.821 215.664 493.965 215.478 Q493.132 215.27 492.113 215.27 Q488.502 215.27 486.558 217.631 Q484.636 219.969 484.636 224.367 L484.636 238.025 L480.354 238.025 L480.354 212.099 L484.636 212.099 L484.636 216.127 Q485.979 213.766 488.132 212.631 Q490.284 211.474 493.363 211.474 Q493.803 211.474 494.335 211.543 Q494.868 211.59 495.516 211.705 L495.539 216.08 Z" fill="#000000" fill-rule="nonzero" fill-opacity="1" /><path clip-path="url(#clip080)" d="M511.789 224.992 Q506.627 224.992 504.636 226.173 Q502.645 227.353 502.645 230.201 Q502.645 232.469 504.127 233.812 Q505.632 235.131 508.201 235.131 Q511.743 235.131 513.872 232.631 Q516.025 230.108 516.025 225.941 L516.025 224.992 L511.789 224.992 M520.284 223.233 L520.284 238.025 L516.025 238.025 L516.025 234.089 Q514.567 236.451 512.391 237.585 Q510.215 238.696 507.067 238.696 Q503.085 238.696 500.724 236.474 Q498.386 234.228 498.386 230.478 Q498.386 226.103 501.303 223.881 Q504.243 221.659 510.053 221.659 L516.025 221.659 L516.025 221.242 Q516.025 218.303 514.081 216.705 Q512.159 215.085 508.664 215.085 Q506.442 215.085 504.335 215.617 Q502.229 216.15 500.284 217.215 L500.284 213.279 Q502.622 212.377 504.821 211.937 Q507.02 211.474 509.104 211.474 Q514.729 211.474 517.506 214.391 Q520.284 217.307 520.284 223.233 Z" fill="#000000" fill-rule="nonzero" fill-opacity="1" /><path clip-path="url(#clip080)" d="M529.057 202.006 L533.317 202.006 L533.317 238.025 L529.057 238.025 L529.057 202.006 Z" fill="#000000" fill-rule="nonzero" fill-opacity="1" /><path clip-path="url(#clip080)" d="M557.483 203.465 L562.159 203.465 L562.159 234.089 L578.988 234.089 L578.988 238.025 L557.483 238.025 L557.483 203.465 Z" fill="#000000" fill-rule="nonzero" fill-opacity="1" /><path clip-path="url(#clip080)" d="M590.145 240.432 Q588.339 245.062 586.626 246.474 Q584.914 247.886 582.043 247.886 L578.64 247.886 L578.64 244.321 L581.14 244.321 Q582.9 244.321 583.872 243.488 Q584.844 242.654 586.025 239.552 L586.789 237.608 L576.302 212.099 L580.816 212.099 L588.918 232.377 L597.02 212.099 L601.534 212.099 L590.145 240.432 Z" fill="#000000" fill-rule="nonzero" fill-opacity="1" /><path clip-path="url(#clip080)" d="M619.196 224.992 Q614.034 224.992 612.043 226.173 Q610.052 227.353 610.052 230.201 Q610.052 232.469 611.534 233.812 Q613.038 235.131 615.608 235.131 Q619.149 235.131 621.279 232.631 Q623.432 230.108 623.432 225.941 L623.432 224.992 L619.196 224.992 M627.691 223.233 L627.691 238.025 L623.432 238.025 L623.432 234.089 Q621.973 236.451 619.798 237.585 Q617.622 238.696 614.474 238.696 Q610.492 238.696 608.131 236.474 Q605.793 234.228 605.793 230.478 Q605.793 226.103 608.71 223.881 Q611.649 221.659 617.46 221.659 L623.432 221.659 L623.432 221.242 Q623.432 218.303 621.487 216.705 Q619.566 215.085 616.071 215.085 Q613.849 215.085 611.742 215.617 Q609.636 216.15 607.691 217.215 L607.691 213.279 Q610.029 212.377 612.228 211.937 Q614.427 211.474 616.511 211.474 Q622.136 211.474 624.913 214.391 Q627.691 217.307 627.691 223.233 Z" fill="#000000" fill-rule="nonzero" fill-opacity="1" /><path clip-path="url(#clip080)" d="M640.585 234.136 L640.585 247.886 L636.302 247.886 L636.302 212.099 L640.585 212.099 L640.585 216.034 Q641.927 213.719 643.964 212.608 Q646.024 211.474 648.872 211.474 Q653.594 211.474 656.533 215.224 Q659.496 218.974 659.496 225.085 Q659.496 231.196 656.533 234.946 Q653.594 238.696 648.872 238.696 Q646.024 238.696 643.964 237.585 Q641.927 236.451 640.585 234.136 M655.075 225.085 Q655.075 220.386 653.131 217.724 Q651.209 215.039 647.83 215.039 Q644.45 215.039 642.506 217.724 Q640.585 220.386 640.585 225.085 Q640.585 229.784 642.506 232.469 Q644.45 235.131 647.83 235.131 Q651.209 235.131 653.131 232.469 Q655.075 229.784 655.075 225.085 Z" fill="#000000" fill-rule="nonzero" fill-opacity="1" /><path clip-path="url(#clip080)" d="M666.117 227.793 L666.117 212.099 L670.376 212.099 L670.376 227.631 Q670.376 231.312 671.811 233.164 Q673.246 234.992 676.117 234.992 Q679.566 234.992 681.557 232.793 Q683.57 230.594 683.57 226.798 L683.57 212.099 L687.83 212.099 L687.83 238.025 L683.57 238.025 L683.57 234.043 Q682.019 236.404 679.959 237.562 Q677.922 238.696 675.214 238.696 Q670.746 238.696 668.432 235.918 Q666.117 233.14 666.117 227.793 M676.834 211.474 L676.834 211.474 Z" fill="#000000" fill-rule="nonzero" fill-opacity="1" /><path clip-path="url(#clip080)" d="M718.154 222.377 L718.154 238.025 L713.894 238.025 L713.894 222.515 Q713.894 218.835 712.459 217.006 Q711.024 215.178 708.154 215.178 Q704.705 215.178 702.714 217.377 Q700.723 219.576 700.723 223.372 L700.723 238.025 L696.441 238.025 L696.441 212.099 L700.723 212.099 L700.723 216.127 Q702.251 213.789 704.311 212.631 Q706.394 211.474 709.103 211.474 Q713.57 211.474 715.862 214.252 Q718.154 217.006 718.154 222.377 Z" fill="#000000" fill-rule="nonzero" fill-opacity="1" /><path clip-path="url(#clip080)" d="M736.695 215.085 Q733.269 215.085 731.278 217.77 Q729.288 220.432 729.288 225.085 Q729.288 229.738 731.255 232.423 Q733.246 235.085 736.695 235.085 Q740.098 235.085 742.089 232.4 Q744.079 229.715 744.079 225.085 Q744.079 220.478 742.089 217.793 Q740.098 215.085 736.695 215.085 M736.695 211.474 Q742.251 211.474 745.422 215.085 Q748.593 218.696 748.593 225.085 Q748.593 231.451 745.422 235.085 Q742.251 238.696 736.695 238.696 Q731.116 238.696 727.945 235.085 Q724.797 231.451 724.797 225.085 Q724.797 218.696 727.945 215.085 Q731.116 211.474 736.695 211.474 Z" fill="#000000" fill-rule="nonzero" fill-opacity="1" /><path clip-path="url(#clip080)" d="M752.598 212.099 L757.112 212.099 L765.213 233.858 L773.315 212.099 L777.829 212.099 L768.107 238.025 L762.32 238.025 L752.598 212.099 Z" fill="#000000" fill-rule="nonzero" fill-opacity="1" /><path clip-path="url(#clip080)" d="M807.875 238.025 L794.681 203.465 L799.565 203.465 L810.514 232.562 L821.486 203.465 L826.347 203.465 L813.176 238.025 L807.875 238.025 Z" fill="#000000" fill-rule="nonzero" fill-opacity="1" /><path clip-path="url(#clip080)" d="M841.44 202.053 Q838.338 207.377 836.833 212.585 Q835.329 217.793 835.329 223.14 Q835.329 228.488 836.833 233.742 Q838.361 238.974 841.44 244.275 L837.736 244.275 Q834.264 238.835 832.528 233.58 Q830.815 228.326 830.815 223.14 Q830.815 217.978 832.528 212.747 Q834.241 207.516 837.736 202.053 L841.44 202.053 Z" fill="#000000" fill-rule="nonzero" fill-opacity="1" /><path clip-path="url(#clip080)" d="M866.231 212.863 L866.231 216.891 Q864.426 215.965 862.481 215.502 Q860.537 215.039 858.454 215.039 Q855.282 215.039 853.685 216.011 Q852.111 216.983 852.111 218.928 Q852.111 220.409 853.245 221.265 Q854.38 222.099 857.806 222.863 L859.264 223.187 Q863.801 224.159 865.699 225.941 Q867.62 227.701 867.62 230.872 Q867.62 234.483 864.75 236.589 Q861.903 238.696 856.903 238.696 Q854.819 238.696 852.551 238.279 Q850.306 237.886 847.806 237.076 L847.806 232.677 Q850.167 233.904 852.458 234.529 Q854.75 235.131 856.995 235.131 Q860.005 235.131 861.625 234.113 Q863.245 233.071 863.245 231.196 Q863.245 229.46 862.065 228.534 Q860.907 227.608 856.949 226.752 L855.468 226.404 Q851.509 225.571 849.75 223.858 Q847.991 222.122 847.991 219.113 Q847.991 215.455 850.583 213.465 Q853.176 211.474 857.944 211.474 Q860.306 211.474 862.389 211.821 Q864.472 212.168 866.231 212.863 Z" fill="#000000" fill-rule="nonzero" fill-opacity="1" /><path clip-path="url(#clip080)" d="M873.731 202.053 L877.435 202.053 Q880.907 207.516 882.62 212.747 Q884.356 217.978 884.356 223.14 Q884.356 228.326 882.62 233.58 Q880.907 238.835 877.435 244.275 L873.731 244.275 Q876.81 238.974 878.315 233.742 Q879.842 228.488 879.842 223.14 Q879.842 217.793 878.315 212.585 Q876.81 207.377 873.731 202.053 Z" fill="#000000" fill-rule="nonzero" fill-opacity="1" /><polyline clip-path="url(#clip080)" style="stroke:#ff0000; stroke-linecap:round; stroke-linejoin:round; stroke-width:4; stroke-opacity:1; fill:none" stroke-dasharray="16, 10" points="211.758,272.585 361.13,272.585 "/>
<path clip-path="url(#clip080)" d="M413.896 257.967 L413.896 262.897 Q411.535 260.698 408.85 259.61 Q406.188 258.522 403.178 258.522 Q397.252 258.522 394.104 262.156 Q390.956 265.768 390.956 272.619 Q390.956 279.448 394.104 283.082 Q397.252 286.693 403.178 286.693 Q406.188 286.693 408.85 285.605 Q411.535 284.517 413.896 282.318 L413.896 287.203 Q411.442 288.869 408.688 289.703 Q405.956 290.536 402.901 290.536 Q395.053 290.536 390.54 285.744 Q386.026 280.93 386.026 272.619 Q386.026 264.286 390.54 259.494 Q395.053 254.68 402.901 254.68 Q406.002 254.68 408.734 255.513 Q411.489 256.323 413.896 257.967 Z" fill="#000000" fill-rule="nonzero" fill-opacity="1" /><path clip-path="url(#clip080)" d="M425.794 273.36 L425.794 286.022 L433.294 286.022 Q437.067 286.022 438.873 284.471 Q440.701 282.897 440.701 279.68 Q440.701 276.439 438.873 274.911 Q437.067 273.36 433.294 273.36 L425.794 273.36 M425.794 259.147 L425.794 269.564 L432.715 269.564 Q436.141 269.564 437.808 268.291 Q439.498 266.994 439.498 264.356 Q439.498 261.74 437.808 260.444 Q436.141 259.147 432.715 259.147 L425.794 259.147 M421.118 255.305 L433.062 255.305 Q438.41 255.305 441.303 257.527 Q444.197 259.749 444.197 263.846 Q444.197 267.018 442.715 268.893 Q441.234 270.768 438.363 271.23 Q441.812 271.971 443.711 274.332 Q445.632 276.67 445.632 280.189 Q445.632 284.818 442.484 287.342 Q439.336 289.865 433.525 289.865 L421.118 289.865 L421.118 255.305 Z" fill="#000000" fill-rule="nonzero" fill-opacity="1" /><path clip-path="url(#clip080)" d="M453.641 255.305 L473.502 255.305 L473.502 259.24 L458.317 259.24 L458.317 269.425 L472.021 269.425 L472.021 273.36 L458.317 273.36 L458.317 289.865 L453.641 289.865 L453.641 255.305 Z" fill="#000000" fill-rule="nonzero" fill-opacity="1" /><path clip-path="url(#clip080)" d="M516.696 256.439 L516.696 260.999 Q514.034 259.726 511.673 259.101 Q509.312 258.476 507.113 258.476 Q503.294 258.476 501.21 259.957 Q499.15 261.439 499.15 264.17 Q499.15 266.462 500.516 267.643 Q501.905 268.8 505.747 269.518 L508.571 270.096 Q513.803 271.092 516.28 273.615 Q518.78 276.115 518.78 280.328 Q518.78 285.351 515.4 287.943 Q512.044 290.536 505.539 290.536 Q503.085 290.536 500.307 289.98 Q497.553 289.425 494.59 288.337 L494.59 283.522 Q497.437 285.119 500.169 285.929 Q502.9 286.74 505.539 286.74 Q509.544 286.74 511.719 285.166 Q513.895 283.592 513.895 280.675 Q513.895 278.129 512.321 276.693 Q510.77 275.258 507.206 274.541 L504.358 273.985 Q499.127 272.943 496.789 270.721 Q494.451 268.499 494.451 264.541 Q494.451 259.957 497.669 257.319 Q500.909 254.68 506.581 254.68 Q509.011 254.68 511.534 255.119 Q514.057 255.559 516.696 256.439 Z" fill="#000000" fill-rule="nonzero" fill-opacity="1" /><path clip-path="url(#clip080)" d="M537.668 276.832 Q532.506 276.832 530.516 278.013 Q528.525 279.193 528.525 282.041 Q528.525 284.309 530.006 285.652 Q531.511 286.971 534.08 286.971 Q537.622 286.971 539.752 284.471 Q541.904 281.948 541.904 277.781 L541.904 276.832 L537.668 276.832 M546.164 275.073 L546.164 289.865 L541.904 289.865 L541.904 285.929 Q540.446 288.291 538.27 289.425 Q536.094 290.536 532.946 290.536 Q528.965 290.536 526.604 288.314 Q524.266 286.068 524.266 282.318 Q524.266 277.943 527.182 275.721 Q530.122 273.499 535.932 273.499 L541.904 273.499 L541.904 273.082 Q541.904 270.143 539.96 268.545 Q538.039 266.925 534.543 266.925 Q532.321 266.925 530.215 267.457 Q528.108 267.99 526.164 269.055 L526.164 265.119 Q528.502 264.217 530.701 263.777 Q532.9 263.314 534.983 263.314 Q540.608 263.314 543.386 266.231 Q546.164 269.147 546.164 275.073 Z" fill="#000000" fill-rule="nonzero" fill-opacity="1" /><path clip-path="url(#clip080)" d="M568.062 253.846 L568.062 257.388 L563.988 257.388 Q561.696 257.388 560.793 258.314 Q559.914 259.24 559.914 261.647 L559.914 263.939 L566.927 263.939 L566.927 267.249 L559.914 267.249 L559.914 289.865 L555.631 289.865 L555.631 267.249 L551.557 267.249 L551.557 263.939 L555.631 263.939 L555.631 262.133 Q555.631 257.805 557.645 255.837 Q559.659 253.846 564.034 253.846 L568.062 253.846 Z" fill="#000000" fill-rule="nonzero" fill-opacity="1" /><path clip-path="url(#clip080)" d="M593.802 275.837 L593.802 277.92 L574.219 277.92 Q574.497 282.318 576.858 284.633 Q579.242 286.925 583.478 286.925 Q585.932 286.925 588.224 286.323 Q590.538 285.721 592.807 284.517 L592.807 288.545 Q590.515 289.517 588.108 290.027 Q585.701 290.536 583.224 290.536 Q577.02 290.536 573.386 286.925 Q569.775 283.314 569.775 277.156 Q569.775 270.791 573.201 267.064 Q576.65 263.314 582.483 263.314 Q587.714 263.314 590.747 266.693 Q593.802 270.05 593.802 275.837 M589.543 274.587 Q589.497 271.092 587.576 269.008 Q585.677 266.925 582.529 266.925 Q578.964 266.925 576.812 268.939 Q574.682 270.953 574.358 274.61 L589.543 274.587 Z" fill="#000000" fill-rule="nonzero" fill-opacity="1" /><path clip-path="url(#clip080)" d="M605.006 256.578 L605.006 263.939 L613.779 263.939 L613.779 267.249 L605.006 267.249 L605.006 281.323 Q605.006 284.494 605.862 285.397 Q606.742 286.3 609.404 286.3 L613.779 286.3 L613.779 289.865 L609.404 289.865 Q604.474 289.865 602.599 288.036 Q600.724 286.184 600.724 281.323 L600.724 267.249 L597.599 267.249 L597.599 263.939 L600.724 263.939 L600.724 256.578 L605.006 256.578 Z" fill="#000000" fill-rule="nonzero" fill-opacity="1" /><path clip-path="url(#clip080)" d="M630.168 292.272 Q628.362 296.902 626.649 298.314 Q624.936 299.726 622.066 299.726 L618.663 299.726 L618.663 296.161 L621.163 296.161 Q622.923 296.161 623.895 295.328 Q624.867 294.494 626.048 291.392 L626.811 289.448 L616.325 263.939 L620.839 263.939 L628.941 284.217 L637.043 263.939 L641.557 263.939 L630.168 292.272 Z" fill="#000000" fill-rule="nonzero" fill-opacity="1" /><path clip-path="url(#clip080)" d="M667.367 273.36 L667.367 286.022 L674.867 286.022 Q678.64 286.022 680.445 284.471 Q682.274 282.897 682.274 279.68 Q682.274 276.439 680.445 274.911 Q678.64 273.36 674.867 273.36 L667.367 273.36 M667.367 259.147 L667.367 269.564 L674.288 269.564 Q677.714 269.564 679.381 268.291 Q681.07 266.994 681.07 264.356 Q681.07 261.74 679.381 260.444 Q677.714 259.147 674.288 259.147 L667.367 259.147 M662.691 255.305 L674.635 255.305 Q679.982 255.305 682.876 257.527 Q685.769 259.749 685.769 263.846 Q685.769 267.018 684.288 268.893 Q682.807 270.768 679.936 271.23 Q683.385 271.971 685.283 274.332 Q687.205 276.67 687.205 280.189 Q687.205 284.818 684.056 287.342 Q680.908 289.865 675.098 289.865 L662.691 289.865 L662.691 255.305 Z" fill="#000000" fill-rule="nonzero" fill-opacity="1" /><path clip-path="url(#clip080)" d="M705.075 266.925 Q701.649 266.925 699.658 269.61 Q697.668 272.272 697.668 276.925 Q697.668 281.578 699.635 284.263 Q701.626 286.925 705.075 286.925 Q708.478 286.925 710.468 284.24 Q712.459 281.555 712.459 276.925 Q712.459 272.318 710.468 269.633 Q708.478 266.925 705.075 266.925 M705.075 263.314 Q710.63 263.314 713.802 266.925 Q716.973 270.536 716.973 276.925 Q716.973 283.291 713.802 286.925 Q710.63 290.536 705.075 290.536 Q699.496 290.536 696.325 286.925 Q693.177 283.291 693.177 276.925 Q693.177 270.536 696.325 266.925 Q699.496 263.314 705.075 263.314 Z" fill="#000000" fill-rule="nonzero" fill-opacity="1" /><path clip-path="url(#clip080)" d="M723.593 279.633 L723.593 263.939 L727.853 263.939 L727.853 279.471 Q727.853 283.152 729.288 285.004 Q730.723 286.832 733.593 286.832 Q737.042 286.832 739.033 284.633 Q741.047 282.434 741.047 278.638 L741.047 263.939 L745.306 263.939 L745.306 289.865 L741.047 289.865 L741.047 285.883 Q739.496 288.244 737.436 289.402 Q735.399 290.536 732.69 290.536 Q728.223 290.536 725.908 287.758 Q723.593 284.98 723.593 279.633 M734.311 263.314 L734.311 263.314 Z" fill="#000000" fill-rule="nonzero" fill-opacity="1" /><path clip-path="url(#clip080)" d="M775.63 274.217 L775.63 289.865 L771.371 289.865 L771.371 274.355 Q771.371 270.675 769.936 268.846 Q768.5 267.018 765.63 267.018 Q762.181 267.018 760.19 269.217 Q758.2 271.416 758.2 275.212 L758.2 289.865 L753.917 289.865 L753.917 263.939 L758.2 263.939 L758.2 267.967 Q759.727 265.629 761.788 264.471 Q763.871 263.314 766.579 263.314 Q771.047 263.314 773.338 266.092 Q775.63 268.846 775.63 274.217 Z" fill="#000000" fill-rule="nonzero" fill-opacity="1" /><path clip-path="url(#clip080)" d="M801.186 267.874 L801.186 253.846 L805.445 253.846 L805.445 289.865 L801.186 289.865 L801.186 285.976 Q799.843 288.291 797.783 289.425 Q795.746 290.536 792.875 290.536 Q788.176 290.536 785.213 286.786 Q782.274 283.036 782.274 276.925 Q782.274 270.814 785.213 267.064 Q788.176 263.314 792.875 263.314 Q795.746 263.314 797.783 264.448 Q799.843 265.559 801.186 267.874 M786.672 276.925 Q786.672 281.624 788.593 284.309 Q790.537 286.971 793.917 286.971 Q797.297 286.971 799.241 284.309 Q801.186 281.624 801.186 276.925 Q801.186 272.226 799.241 269.564 Q797.297 266.879 793.917 266.879 Q790.537 266.879 788.593 269.564 Q786.672 272.226 786.672 276.925 Z" fill="#000000" fill-rule="nonzero" fill-opacity="1" /><path clip-path="url(#clip080)" d="M830.746 264.703 L830.746 268.731 Q828.94 267.805 826.996 267.342 Q825.051 266.879 822.968 266.879 Q819.797 266.879 818.199 267.851 Q816.625 268.823 816.625 270.768 Q816.625 272.249 817.759 273.105 Q818.894 273.939 822.32 274.703 L823.778 275.027 Q828.315 275.999 830.213 277.781 Q832.134 279.541 832.134 282.712 Q832.134 286.323 829.264 288.429 Q826.417 290.536 821.417 290.536 Q819.334 290.536 817.065 290.119 Q814.82 289.726 812.32 288.916 L812.32 284.517 Q814.681 285.744 816.972 286.369 Q819.264 286.971 821.509 286.971 Q824.519 286.971 826.139 285.953 Q827.759 284.911 827.759 283.036 Q827.759 281.3 826.579 280.374 Q825.421 279.448 821.463 278.592 L819.982 278.244 Q816.023 277.411 814.264 275.698 Q812.505 273.962 812.505 270.953 Q812.505 267.295 815.097 265.305 Q817.69 263.314 822.459 263.314 Q824.82 263.314 826.903 263.661 Q828.986 264.008 830.746 264.703 Z" fill="#000000" fill-rule="nonzero" fill-opacity="1" /></svg>
