<?xml version="1.0" encoding="utf-8"?>
<svg xmlns="http://www.w3.org/2000/svg" xmlns:xlink="http://www.w3.org/1999/xlink" width="600" height="400" viewBox="0 0 2400 1600">
<defs>
  <clipPath id="clip540">
    <rect x="0" y="0" width="2400" height="1600"/>
  </clipPath>
</defs>
<path clip-path="url(#clip540)" d="M0 1600 L2400 1600 L2400 8.88178e-14 L0 8.88178e-14  Z" fill="#ffffff" fill-rule="evenodd" fill-opacity="1"/>
<defs>
  <clipPath id="clip541">
    <rect x="480" y="0" width="1681" height="1600"/>
  </clipPath>
</defs>
<path clip-path="url(#clip540)" d="M242.135 1486.45 L2352.76 1486.45 L2352.76 123.472 L242.135 123.472  Z" fill="#ffffff" fill-rule="evenodd" fill-opacity="1"/>
<defs>
  <clipPath id="clip542">
    <rect x="242" y="123" width="2112" height="1364"/>
  </clipPath>
</defs>
<polyline clip-path="url(#clip542)" style="stroke:#000000; stroke-linecap:round; stroke-linejoin:round; stroke-width:2; stroke-opacity:0.1; fill:none" points="610.807,1486.45 610.807,123.472 "/>
<polyline clip-path="url(#clip542)" style="stroke:#000000; stroke-linecap:round; stroke-linejoin:round; stroke-width:2; stroke-opacity:0.1; fill:none" points="1242.27,1486.45 1242.27,123.472 "/>
<polyline clip-path="url(#clip542)" style="stroke:#000000; stroke-linecap:round; stroke-linejoin:round; stroke-width:2; stroke-opacity:0.1; fill:none" points="1984.08,1486.45 1984.08,123.472 "/>
<polyline clip-path="url(#clip542)" style="stroke:#000000; stroke-linecap:round; stroke-linejoin:round; stroke-width:2; stroke-opacity:0.1; fill:none" points="242.135,1257.84 2352.76,1257.84 "/>
<polyline clip-path="url(#clip542)" style="stroke:#000000; stroke-linecap:round; stroke-linejoin:round; stroke-width:2; stroke-opacity:0.1; fill:none" points="242.135,1004.3 2352.76,1004.3 "/>
<polyline clip-path="url(#clip542)" style="stroke:#000000; stroke-linecap:round; stroke-linejoin:round; stroke-width:2; stroke-opacity:0.1; fill:none" points="242.135,750.759 2352.76,750.759 "/>
<polyline clip-path="url(#clip542)" style="stroke:#000000; stroke-linecap:round; stroke-linejoin:round; stroke-width:2; stroke-opacity:0.1; fill:none" points="242.135,497.221 2352.76,497.221 "/>
<polyline clip-path="url(#clip542)" style="stroke:#000000; stroke-linecap:round; stroke-linejoin:round; stroke-width:2; stroke-opacity:0.1; fill:none" points="242.135,243.682 2352.76,243.682 "/>
<polyline clip-path="url(#clip540)" style="stroke:#000000; stroke-linecap:round; stroke-linejoin:round; stroke-width:4; stroke-opacity:1; fill:none" points="242.135,1486.45 2352.76,1486.45 "/>
<polyline clip-path="url(#clip540)" style="stroke:#000000; stroke-linecap:round; stroke-linejoin:round; stroke-width:4; stroke-opacity:1; fill:none" points="610.807,1486.45 610.807,1467.55 "/>
<polyline clip-path="url(#clip540)" style="stroke:#000000; stroke-linecap:round; stroke-linejoin:round; stroke-width:4; stroke-opacity:1; fill:none" points="1242.27,1486.45 1242.27,1467.55 "/>
<polyline clip-path="url(#clip540)" style="stroke:#000000; stroke-linecap:round; stroke-linejoin:round; stroke-width:4; stroke-opacity:1; fill:none" points="1984.08,1486.45 1984.08,1467.55 "/>
<path clip-path="url(#clip540)" d="M458.019 1514.29 L477.88 1514.29 L477.88 1518.22 L462.695 1518.22 L462.695 1528.41 L476.398 1528.41 L476.398 1532.34 L462.695 1532.34 L462.695 1548.85 L458.019 1548.85 L458.019 1514.29 Z" fill="#000000" fill-rule="nonzero" fill-opacity="1" /><path clip-path="url(#clip540)" d="M482.07 1538.62 L482.07 1522.92 L486.329 1522.92 L486.329 1538.45 Q486.329 1542.13 487.764 1543.99 Q489.199 1545.82 492.07 1545.82 Q495.519 1545.82 497.509 1543.62 Q499.523 1541.42 499.523 1537.62 L499.523 1522.92 L503.783 1522.92 L503.783 1548.85 L499.523 1548.85 L499.523 1544.87 Q497.972 1547.23 495.912 1548.38 Q493.875 1549.52 491.167 1549.52 Q486.699 1549.52 484.384 1546.74 Q482.07 1543.96 482.07 1538.62 M492.787 1522.3 L492.787 1522.3 Z" fill="#000000" fill-rule="nonzero" fill-opacity="1" /><path clip-path="url(#clip540)" d="M512.556 1512.83 L516.815 1512.83 L516.815 1548.85 L512.556 1548.85 L512.556 1512.83 Z" fill="#000000" fill-rule="nonzero" fill-opacity="1" /><path clip-path="url(#clip540)" d="M525.727 1512.83 L529.986 1512.83 L529.986 1548.85 L525.727 1548.85 L525.727 1512.83 Z" fill="#000000" fill-rule="nonzero" fill-opacity="1" /><path clip-path="url(#clip540)" d="M570.541 1532.64 Q572.046 1533.15 573.458 1534.82 Q574.893 1536.49 576.328 1539.4 L581.074 1548.85 L576.051 1548.85 L571.629 1539.98 Q569.916 1536.51 568.296 1535.38 Q566.699 1534.24 563.921 1534.24 L558.829 1534.24 L558.829 1548.85 L554.153 1548.85 L554.153 1514.29 L564.708 1514.29 Q570.634 1514.29 573.551 1516.76 Q576.467 1519.24 576.467 1524.24 Q576.467 1527.51 574.94 1529.66 Q573.435 1531.81 570.541 1532.64 M558.829 1518.13 L558.829 1530.4 L564.708 1530.4 Q568.088 1530.4 569.801 1528.85 Q571.537 1527.27 571.537 1524.24 Q571.537 1521.21 569.801 1519.68 Q568.088 1518.13 564.708 1518.13 L558.829 1518.13 Z" fill="#000000" fill-rule="nonzero" fill-opacity="1" /><path clip-path="url(#clip540)" d="M606.953 1534.82 L606.953 1536.9 L587.37 1536.9 Q587.648 1541.3 590.009 1543.62 Q592.393 1545.91 596.629 1545.91 Q599.083 1545.91 601.375 1545.31 Q603.689 1544.7 605.958 1543.5 L605.958 1547.53 Q603.666 1548.5 601.259 1549.01 Q598.851 1549.52 596.375 1549.52 Q590.171 1549.52 586.537 1545.91 Q582.926 1542.3 582.926 1536.14 Q582.926 1529.77 586.352 1526.05 Q589.801 1522.3 595.634 1522.3 Q600.865 1522.3 603.898 1525.68 Q606.953 1529.03 606.953 1534.82 M602.694 1533.57 Q602.648 1530.07 600.726 1527.99 Q598.828 1525.91 595.68 1525.91 Q592.115 1525.91 589.963 1527.92 Q587.833 1529.94 587.509 1533.59 L602.694 1533.57 Z" fill="#000000" fill-rule="nonzero" fill-opacity="1" /><path clip-path="url(#clip540)" d="M627.069 1512.83 L627.069 1516.37 L622.995 1516.37 Q620.703 1516.37 619.8 1517.3 Q618.921 1518.22 618.921 1520.63 L618.921 1522.92 L625.935 1522.92 L625.935 1526.23 L618.921 1526.23 L618.921 1548.85 L614.638 1548.85 L614.638 1526.23 L610.564 1526.23 L610.564 1522.92 L614.638 1522.92 L614.638 1521.12 Q614.638 1516.79 616.652 1514.82 Q618.666 1512.83 623.041 1512.83 L627.069 1512.83 Z" fill="#000000" fill-rule="nonzero" fill-opacity="1" /><path clip-path="url(#clip540)" d="M630.634 1512.83 L634.893 1512.83 L634.893 1548.85 L630.634 1548.85 L630.634 1512.83 Z" fill="#000000" fill-rule="nonzero" fill-opacity="1" /><path clip-path="url(#clip540)" d="M665.981 1534.82 L665.981 1536.9 L646.398 1536.9 Q646.675 1541.3 649.036 1543.62 Q651.421 1545.91 655.657 1545.91 Q658.11 1545.91 660.402 1545.31 Q662.717 1544.7 664.985 1543.5 L664.985 1547.53 Q662.694 1548.5 660.286 1549.01 Q657.879 1549.52 655.402 1549.52 Q649.198 1549.52 645.564 1545.91 Q641.953 1542.3 641.953 1536.14 Q641.953 1529.77 645.379 1526.05 Q648.828 1522.3 654.661 1522.3 Q659.893 1522.3 662.925 1525.68 Q665.981 1529.03 665.981 1534.82 M661.721 1533.57 Q661.675 1530.07 659.754 1527.99 Q657.856 1525.91 654.708 1525.91 Q651.143 1525.91 648.99 1527.92 Q646.86 1529.94 646.536 1533.59 L661.721 1533.57 Z" fill="#000000" fill-rule="nonzero" fill-opacity="1" /><path clip-path="url(#clip540)" d="M693.689 1522.92 L684.314 1535.54 L694.175 1548.85 L689.152 1548.85 L681.606 1538.66 L674.059 1548.85 L669.036 1548.85 L679.106 1535.28 L669.893 1522.92 L674.916 1522.92 L681.791 1532.16 L688.666 1522.92 L693.689 1522.92 Z" fill="#000000" fill-rule="nonzero" fill-opacity="1" /><path clip-path="url(#clip540)" d="M700.194 1522.92 L704.453 1522.92 L704.453 1548.85 L700.194 1548.85 L700.194 1522.92 M700.194 1512.83 L704.453 1512.83 L704.453 1518.22 L700.194 1518.22 L700.194 1512.83 Z" fill="#000000" fill-rule="nonzero" fill-opacity="1" /><path clip-path="url(#clip540)" d="M710.309 1522.92 L714.823 1522.92 L722.925 1544.68 L731.027 1522.92 L735.541 1522.92 L725.818 1548.85 L720.031 1548.85 L710.309 1522.92 Z" fill="#000000" fill-rule="nonzero" fill-opacity="1" /><path clip-path="url(#clip540)" d="M763.596 1534.82 L763.596 1536.9 L744.013 1536.9 Q744.29 1541.3 746.652 1543.62 Q749.036 1545.91 753.272 1545.91 Q755.726 1545.91 758.017 1545.31 Q760.332 1544.7 762.601 1543.5 L762.601 1547.53 Q760.309 1548.5 757.902 1549.01 Q755.494 1549.52 753.017 1549.52 Q746.814 1549.52 743.179 1545.91 Q739.568 1542.3 739.568 1536.14 Q739.568 1529.77 742.994 1526.05 Q746.443 1522.3 752.277 1522.3 Q757.508 1522.3 760.54 1525.68 Q763.596 1529.03 763.596 1534.82 M759.337 1533.57 Q759.29 1530.07 757.369 1527.99 Q755.471 1525.91 752.323 1525.91 Q748.758 1525.91 746.605 1527.92 Q744.476 1529.94 744.152 1533.59 L759.337 1533.57 Z" fill="#000000" fill-rule="nonzero" fill-opacity="1" /><path clip-path="url(#clip540)" d="M1121.37 1517.46 Q1116.27 1517.46 1113.27 1521.26 Q1110.28 1525.05 1110.28 1531.6 Q1110.28 1538.13 1113.27 1541.93 Q1116.27 1545.72 1121.37 1545.72 Q1126.46 1545.72 1129.42 1541.93 Q1132.41 1538.13 1132.41 1531.6 Q1132.41 1525.05 1129.42 1521.26 Q1126.46 1517.46 1121.37 1517.46 M1121.37 1513.66 Q1128.64 1513.66 1132.99 1518.55 Q1137.34 1523.41 1137.34 1531.6 Q1137.34 1539.77 1132.99 1544.66 Q1128.64 1549.52 1121.37 1549.52 Q1114.08 1549.52 1109.7 1544.66 Q1105.35 1539.8 1105.35 1531.6 Q1105.35 1523.41 1109.7 1518.55 Q1114.08 1513.66 1121.37 1513.66 Z" fill="#000000" fill-rule="nonzero" fill-opacity="1" /><path clip-path="url(#clip540)" d="M1159.49 1526.9 Q1158.77 1526.49 1157.92 1526.3 Q1157.08 1526.09 1156.07 1526.09 Q1152.46 1526.09 1150.51 1528.45 Q1148.59 1530.79 1148.59 1535.19 L1148.59 1548.85 L1144.31 1548.85 L1144.31 1522.92 L1148.59 1522.92 L1148.59 1526.95 Q1149.93 1524.59 1152.08 1523.45 Q1154.24 1522.3 1157.32 1522.3 Q1157.76 1522.3 1158.29 1522.37 Q1158.82 1522.41 1159.47 1522.53 L1159.49 1526.9 Z" fill="#000000" fill-rule="nonzero" fill-opacity="1" /><path clip-path="url(#clip540)" d="M1175.74 1535.82 Q1170.58 1535.82 1168.59 1537 Q1166.6 1538.18 1166.6 1541.02 Q1166.6 1543.29 1168.08 1544.63 Q1169.58 1545.95 1172.15 1545.95 Q1175.7 1545.95 1177.83 1543.45 Q1179.98 1540.93 1179.98 1536.76 L1179.98 1535.82 L1175.74 1535.82 M1184.24 1534.06 L1184.24 1548.85 L1179.98 1548.85 L1179.98 1544.91 Q1178.52 1547.27 1176.34 1548.41 Q1174.17 1549.52 1171.02 1549.52 Q1167.04 1549.52 1164.68 1547.3 Q1162.34 1545.05 1162.34 1541.3 Q1162.34 1536.93 1165.26 1534.7 Q1168.2 1532.48 1174.01 1532.48 L1179.98 1532.48 L1179.98 1532.07 Q1179.98 1529.13 1178.03 1527.53 Q1176.11 1525.91 1172.62 1525.91 Q1170.39 1525.91 1168.29 1526.44 Q1166.18 1526.97 1164.24 1528.04 L1164.24 1524.1 Q1166.58 1523.2 1168.77 1522.76 Q1170.97 1522.3 1173.06 1522.3 Q1178.68 1522.3 1181.46 1525.21 Q1184.24 1528.13 1184.24 1534.06 Z" fill="#000000" fill-rule="nonzero" fill-opacity="1" /><path clip-path="url(#clip540)" d="M1211.67 1523.92 L1211.67 1527.9 Q1209.86 1526.9 1208.03 1526.42 Q1206.23 1525.91 1204.38 1525.91 Q1200.23 1525.91 1197.94 1528.55 Q1195.65 1531.16 1195.65 1535.91 Q1195.65 1540.65 1197.94 1543.29 Q1200.23 1545.91 1204.38 1545.91 Q1206.23 1545.91 1208.03 1545.42 Q1209.86 1544.91 1211.67 1543.92 L1211.67 1547.85 Q1209.89 1548.69 1207.96 1549.1 Q1206.07 1549.52 1203.91 1549.52 Q1198.06 1549.52 1194.61 1545.84 Q1191.16 1542.16 1191.16 1535.91 Q1191.16 1529.57 1194.63 1525.93 Q1198.13 1522.3 1204.19 1522.3 Q1206.16 1522.3 1208.03 1522.71 Q1209.91 1523.11 1211.67 1523.92 Z" fill="#000000" fill-rule="nonzero" fill-opacity="1" /><path clip-path="url(#clip540)" d="M1219.08 1512.83 L1223.33 1512.83 L1223.33 1548.85 L1219.08 1548.85 L1219.08 1512.83 Z" fill="#000000" fill-rule="nonzero" fill-opacity="1" /><path clip-path="url(#clip540)" d="M1254.42 1534.82 L1254.42 1536.9 L1234.84 1536.9 Q1235.12 1541.3 1237.48 1543.62 Q1239.86 1545.91 1244.1 1545.91 Q1246.55 1545.91 1248.84 1545.31 Q1251.16 1544.7 1253.43 1543.5 L1253.43 1547.53 Q1251.14 1548.5 1248.73 1549.01 Q1246.32 1549.52 1243.84 1549.52 Q1237.64 1549.52 1234.01 1545.91 Q1230.39 1542.3 1230.39 1536.14 Q1230.39 1529.77 1233.82 1526.05 Q1237.27 1522.3 1243.1 1522.3 Q1248.33 1522.3 1251.37 1525.68 Q1254.42 1529.03 1254.42 1534.82 M1250.16 1533.57 Q1250.12 1530.07 1248.2 1527.99 Q1246.3 1525.91 1243.15 1525.91 Q1239.58 1525.91 1237.43 1527.92 Q1235.3 1529.94 1234.98 1533.59 L1250.16 1533.57 Z" fill="#000000" fill-rule="nonzero" fill-opacity="1" /><path clip-path="url(#clip540)" d="M1290.7 1517.46 Q1285.6 1517.46 1282.59 1521.26 Q1279.61 1525.05 1279.61 1531.6 Q1279.61 1538.13 1282.59 1541.93 Q1285.6 1545.72 1290.7 1545.72 Q1295.79 1545.72 1298.75 1541.93 Q1301.74 1538.13 1301.74 1531.6 Q1301.74 1525.05 1298.75 1521.26 Q1295.79 1517.46 1290.7 1517.46 M1290.7 1513.66 Q1297.96 1513.66 1302.32 1518.55 Q1306.67 1523.41 1306.67 1531.6 Q1306.67 1539.77 1302.32 1544.66 Q1297.96 1549.52 1290.7 1549.52 Q1283.4 1549.52 1279.03 1544.66 Q1274.68 1539.8 1274.68 1531.6 Q1274.68 1523.41 1279.03 1518.55 Q1283.4 1513.66 1290.7 1513.66 Z" fill="#000000" fill-rule="nonzero" fill-opacity="1" /><path clip-path="url(#clip540)" d="M1335.35 1533.2 L1335.35 1548.85 L1331.09 1548.85 L1331.09 1533.34 Q1331.09 1529.66 1329.65 1527.83 Q1328.22 1526 1325.35 1526 Q1321.9 1526 1319.91 1528.2 Q1317.92 1530.4 1317.92 1534.2 L1317.92 1548.85 L1313.63 1548.85 L1313.63 1522.92 L1317.92 1522.92 L1317.92 1526.95 Q1319.44 1524.61 1321.51 1523.45 Q1323.59 1522.3 1326.3 1522.3 Q1330.76 1522.3 1333.06 1525.07 Q1335.35 1527.83 1335.35 1533.2 Z" fill="#000000" fill-rule="nonzero" fill-opacity="1" /><path clip-path="url(#clip540)" d="M1343.84 1512.83 L1348.1 1512.83 L1348.1 1548.85 L1343.84 1548.85 L1343.84 1512.83 Z" fill="#000000" fill-rule="nonzero" fill-opacity="1" /><path clip-path="url(#clip540)" d="M1367.8 1551.26 Q1366 1555.88 1364.28 1557.3 Q1362.57 1558.71 1359.7 1558.71 L1356.3 1558.71 L1356.3 1555.14 L1358.8 1555.14 Q1360.56 1555.14 1361.53 1554.31 Q1362.5 1553.48 1363.68 1550.38 L1364.44 1548.43 L1353.96 1522.92 L1358.47 1522.92 L1366.57 1543.2 L1374.68 1522.92 L1379.19 1522.92 L1367.8 1551.26 Z" fill="#000000" fill-rule="nonzero" fill-opacity="1" /><path clip-path="url(#clip540)" d="M1862.97 1515.42 L1862.97 1519.98 Q1860.31 1518.71 1857.95 1518.08 Q1855.59 1517.46 1853.39 1517.46 Q1849.57 1517.46 1847.49 1518.94 Q1845.43 1520.42 1845.43 1523.15 Q1845.43 1525.45 1846.79 1526.63 Q1848.18 1527.78 1852.02 1528.5 L1854.85 1529.08 Q1860.08 1530.07 1862.56 1532.6 Q1865.06 1535.1 1865.06 1539.31 Q1865.06 1544.33 1861.68 1546.93 Q1858.32 1549.52 1851.82 1549.52 Q1849.36 1549.52 1846.58 1548.96 Q1843.83 1548.41 1840.87 1547.32 L1840.87 1542.51 Q1843.71 1544.1 1846.45 1544.91 Q1849.18 1545.72 1851.82 1545.72 Q1855.82 1545.72 1858 1544.15 Q1860.17 1542.57 1860.17 1539.66 Q1860.17 1537.11 1858.6 1535.68 Q1857.05 1534.24 1853.48 1533.52 L1850.63 1532.97 Q1845.4 1531.93 1843.07 1529.7 Q1840.73 1527.48 1840.73 1523.52 Q1840.73 1518.94 1843.95 1516.3 Q1847.19 1513.66 1852.86 1513.66 Q1855.29 1513.66 1857.81 1514.1 Q1860.33 1514.54 1862.97 1515.42 Z" fill="#000000" fill-rule="nonzero" fill-opacity="1" /><path clip-path="url(#clip540)" d="M1876.38 1515.56 L1876.38 1522.92 L1885.15 1522.92 L1885.15 1526.23 L1876.38 1526.23 L1876.38 1540.31 Q1876.38 1543.48 1877.23 1544.38 Q1878.11 1545.28 1880.77 1545.28 L1885.15 1545.28 L1885.15 1548.85 L1880.77 1548.85 Q1875.84 1548.85 1873.97 1547.02 Q1872.09 1545.17 1872.09 1540.31 L1872.09 1526.23 L1868.97 1526.23 L1868.97 1522.92 L1872.09 1522.92 L1872.09 1515.56 L1876.38 1515.56 Z" fill="#000000" fill-rule="nonzero" fill-opacity="1" /><path clip-path="url(#clip540)" d="M1902.53 1535.82 Q1897.37 1535.82 1895.38 1537 Q1893.39 1538.18 1893.39 1541.02 Q1893.39 1543.29 1894.87 1544.63 Q1896.38 1545.95 1898.94 1545.95 Q1902.49 1545.95 1904.62 1543.45 Q1906.77 1540.93 1906.77 1536.76 L1906.77 1535.82 L1902.53 1535.82 M1911.03 1534.06 L1911.03 1548.85 L1906.77 1548.85 L1906.77 1544.91 Q1905.31 1547.27 1903.13 1548.41 Q1900.96 1549.52 1897.81 1549.52 Q1893.83 1549.52 1891.47 1547.3 Q1889.13 1545.05 1889.13 1541.3 Q1889.13 1536.93 1892.05 1534.7 Q1894.99 1532.48 1900.8 1532.48 L1906.77 1532.48 L1906.77 1532.07 Q1906.77 1529.13 1904.82 1527.53 Q1902.9 1525.91 1899.41 1525.91 Q1897.19 1525.91 1895.08 1526.44 Q1892.97 1526.97 1891.03 1528.04 L1891.03 1524.1 Q1893.37 1523.2 1895.57 1522.76 Q1897.76 1522.3 1899.85 1522.3 Q1905.47 1522.3 1908.25 1525.21 Q1911.03 1528.13 1911.03 1534.06 Z" fill="#000000" fill-rule="nonzero" fill-opacity="1" /><path clip-path="url(#clip540)" d="M1941.35 1533.2 L1941.35 1548.85 L1937.09 1548.85 L1937.09 1533.34 Q1937.09 1529.66 1935.66 1527.83 Q1934.22 1526 1931.35 1526 Q1927.9 1526 1925.91 1528.2 Q1923.92 1530.4 1923.92 1534.2 L1923.92 1548.85 L1919.64 1548.85 L1919.64 1522.92 L1923.92 1522.92 L1923.92 1526.95 Q1925.45 1524.61 1927.51 1523.45 Q1929.59 1522.3 1932.3 1522.3 Q1936.77 1522.3 1939.06 1525.07 Q1941.35 1527.83 1941.35 1533.2 Z" fill="#000000" fill-rule="nonzero" fill-opacity="1" /><path clip-path="url(#clip540)" d="M1966.91 1526.86 L1966.91 1512.83 L1971.17 1512.83 L1971.17 1548.85 L1966.91 1548.85 L1966.91 1544.96 Q1965.56 1547.27 1963.5 1548.41 Q1961.47 1549.52 1958.6 1549.52 Q1953.9 1549.52 1950.94 1545.77 Q1948 1542.02 1948 1535.91 Q1948 1529.8 1950.94 1526.05 Q1953.9 1522.3 1958.6 1522.3 Q1961.47 1522.3 1963.5 1523.43 Q1965.56 1524.54 1966.91 1526.86 M1952.39 1535.91 Q1952.39 1540.61 1954.31 1543.29 Q1956.26 1545.95 1959.64 1545.95 Q1963.02 1545.95 1964.96 1543.29 Q1966.91 1540.61 1966.91 1535.91 Q1966.91 1531.21 1964.96 1528.55 Q1963.02 1525.86 1959.64 1525.86 Q1956.26 1525.86 1954.31 1528.55 Q1952.39 1531.21 1952.39 1535.91 Z" fill="#000000" fill-rule="nonzero" fill-opacity="1" /><path clip-path="url(#clip540)" d="M1991.72 1535.82 Q1986.56 1535.82 1984.57 1537 Q1982.58 1538.18 1982.58 1541.02 Q1982.58 1543.29 1984.06 1544.63 Q1985.56 1545.95 1988.13 1545.95 Q1991.68 1545.95 1993.81 1543.45 Q1995.96 1540.93 1995.96 1536.76 L1995.96 1535.82 L1991.72 1535.82 M2000.22 1534.06 L2000.22 1548.85 L1995.96 1548.85 L1995.96 1544.91 Q1994.5 1547.27 1992.32 1548.41 Q1990.15 1549.52 1987 1549.52 Q1983.02 1549.52 1980.66 1547.3 Q1978.32 1545.05 1978.32 1541.3 Q1978.32 1536.93 1981.24 1534.7 Q1984.18 1532.48 1989.99 1532.48 L1995.96 1532.48 L1995.96 1532.07 Q1995.96 1529.13 1994.01 1527.53 Q1992.09 1525.91 1988.6 1525.91 Q1986.37 1525.91 1984.27 1526.44 Q1982.16 1526.97 1980.22 1528.04 L1980.22 1524.1 Q1982.56 1523.2 1984.75 1522.76 Q1986.95 1522.3 1989.04 1522.3 Q1994.66 1522.3 1997.44 1525.21 Q2000.22 1528.13 2000.22 1534.06 Z" fill="#000000" fill-rule="nonzero" fill-opacity="1" /><path clip-path="url(#clip540)" d="M2024.01 1526.9 Q2023.3 1526.49 2022.44 1526.3 Q2021.61 1526.09 2020.59 1526.09 Q2016.98 1526.09 2015.03 1528.45 Q2013.11 1530.79 2013.11 1535.19 L2013.11 1548.85 L2008.83 1548.85 L2008.83 1522.92 L2013.11 1522.92 L2013.11 1526.95 Q2014.45 1524.59 2016.61 1523.45 Q2018.76 1522.3 2021.84 1522.3 Q2022.28 1522.3 2022.81 1522.37 Q2023.34 1522.41 2023.99 1522.53 L2024.01 1526.9 Z" fill="#000000" fill-rule="nonzero" fill-opacity="1" /><path clip-path="url(#clip540)" d="M2044.71 1526.86 L2044.71 1512.83 L2048.97 1512.83 L2048.97 1548.85 L2044.71 1548.85 L2044.71 1544.96 Q2043.37 1547.27 2041.31 1548.41 Q2039.27 1549.52 2036.4 1549.52 Q2031.7 1549.52 2028.74 1545.77 Q2025.8 1542.02 2025.8 1535.91 Q2025.8 1529.8 2028.74 1526.05 Q2031.7 1522.3 2036.4 1522.3 Q2039.27 1522.3 2041.31 1523.43 Q2043.37 1524.54 2044.71 1526.86 M2030.19 1535.91 Q2030.19 1540.61 2032.12 1543.29 Q2034.06 1545.95 2037.44 1545.95 Q2040.82 1545.95 2042.76 1543.29 Q2044.71 1540.61 2044.71 1535.91 Q2044.71 1531.21 2042.76 1528.55 Q2040.82 1525.86 2037.44 1525.86 Q2034.06 1525.86 2032.12 1528.55 Q2030.19 1531.21 2030.19 1535.91 Z" fill="#000000" fill-rule="nonzero" fill-opacity="1" /><path clip-path="url(#clip540)" d="M2089.38 1532.64 Q2090.89 1533.15 2092.3 1534.82 Q2093.74 1536.49 2095.17 1539.4 L2099.92 1548.85 L2094.89 1548.85 L2090.47 1539.98 Q2088.76 1536.51 2087.14 1535.38 Q2085.54 1534.24 2082.76 1534.24 L2077.67 1534.24 L2077.67 1548.85 L2072.99 1548.85 L2072.99 1514.29 L2083.55 1514.29 Q2089.48 1514.29 2092.39 1516.76 Q2095.31 1519.24 2095.31 1524.24 Q2095.31 1527.51 2093.78 1529.66 Q2092.28 1531.81 2089.38 1532.64 M2077.67 1518.13 L2077.67 1530.4 L2083.55 1530.4 Q2086.93 1530.4 2088.64 1528.85 Q2090.38 1527.27 2090.38 1524.24 Q2090.38 1521.21 2088.64 1519.68 Q2086.93 1518.13 2083.55 1518.13 L2077.67 1518.13 Z" fill="#000000" fill-rule="nonzero" fill-opacity="1" /><path clip-path="url(#clip540)" d="M2105.93 1514.29 L2110.61 1514.29 L2110.61 1544.91 L2127.44 1544.91 L2127.44 1548.85 L2105.93 1548.85 L2105.93 1514.29 Z" fill="#000000" fill-rule="nonzero" fill-opacity="1" /><polyline clip-path="url(#clip540)" style="stroke:#000000; stroke-linecap:round; stroke-linejoin:round; stroke-width:4; stroke-opacity:1; fill:none" points="242.135,1486.45 242.135,123.472 "/>
<polyline clip-path="url(#clip540)" style="stroke:#000000; stroke-linecap:round; stroke-linejoin:round; stroke-width:4; stroke-opacity:1; fill:none" points="242.135,1257.84 261.032,1257.84 "/>
<polyline clip-path="url(#clip540)" style="stroke:#000000; stroke-linecap:round; stroke-linejoin:round; stroke-width:4; stroke-opacity:1; fill:none" points="242.135,1004.3 261.032,1004.3 "/>
<polyline clip-path="url(#clip540)" style="stroke:#000000; stroke-linecap:round; stroke-linejoin:round; stroke-width:4; stroke-opacity:1; fill:none" points="242.135,750.759 261.032,750.759 "/>
<polyline clip-path="url(#clip540)" style="stroke:#000000; stroke-linecap:round; stroke-linejoin:round; stroke-width:4; stroke-opacity:1; fill:none" points="242.135,497.221 261.032,497.221 "/>
<polyline clip-path="url(#clip540)" style="stroke:#000000; stroke-linecap:round; stroke-linejoin:round; stroke-width:4; stroke-opacity:1; fill:none" points="242.135,243.682 261.032,243.682 "/>
<path clip-path="url(#clip540)" d="M114.26 1258.29 L143.936 1258.29 L143.936 1262.22 L114.26 1262.22 L114.26 1258.29 Z" fill="#000000" fill-rule="nonzero" fill-opacity="1" /><path clip-path="url(#clip540)" d="M164.028 1258.7 Q160.695 1258.7 158.774 1260.49 Q156.876 1262.27 156.876 1265.39 Q156.876 1268.52 158.774 1270.3 Q160.695 1272.08 164.028 1272.08 Q167.362 1272.08 169.283 1270.3 Q171.204 1268.5 171.204 1265.39 Q171.204 1262.27 169.283 1260.49 Q167.385 1258.7 164.028 1258.7 M159.353 1256.71 Q156.343 1255.97 154.653 1253.91 Q152.987 1251.85 152.987 1248.89 Q152.987 1244.75 155.927 1242.34 Q158.89 1239.93 164.028 1239.93 Q169.19 1239.93 172.13 1242.34 Q175.07 1244.75 175.07 1248.89 Q175.07 1251.85 173.38 1253.91 Q171.714 1255.97 168.727 1256.71 Q172.107 1257.5 173.982 1259.79 Q175.88 1262.08 175.88 1265.39 Q175.88 1270.42 172.802 1273.1 Q169.746 1275.79 164.028 1275.79 Q158.311 1275.79 155.232 1273.1 Q152.177 1270.42 152.177 1265.39 Q152.177 1262.08 154.075 1259.79 Q155.973 1257.5 159.353 1256.71 M157.64 1249.33 Q157.64 1252.01 159.306 1253.52 Q160.996 1255.02 164.028 1255.02 Q167.038 1255.02 168.727 1253.52 Q170.44 1252.01 170.44 1249.33 Q170.44 1246.64 168.727 1245.14 Q167.038 1243.63 164.028 1243.63 Q160.996 1243.63 159.306 1245.14 Q157.64 1246.64 157.64 1249.33 Z" fill="#000000" fill-rule="nonzero" fill-opacity="1" /><path clip-path="url(#clip540)" d="M194.19 1243.63 Q190.579 1243.63 188.75 1247.2 Q186.945 1250.74 186.945 1257.87 Q186.945 1264.98 188.75 1268.54 Q190.579 1272.08 194.19 1272.08 Q197.825 1272.08 199.63 1268.54 Q201.459 1264.98 201.459 1257.87 Q201.459 1250.74 199.63 1247.2 Q197.825 1243.63 194.19 1243.63 M194.19 1239.93 Q200 1239.93 203.056 1244.54 Q206.135 1249.12 206.135 1257.87 Q206.135 1266.6 203.056 1271.2 Q200 1275.79 194.19 1275.79 Q188.38 1275.79 185.301 1271.2 Q182.246 1266.6 182.246 1257.87 Q182.246 1249.12 185.301 1244.54 Q188.38 1239.93 194.19 1239.93 Z" fill="#000000" fill-rule="nonzero" fill-opacity="1" /><path clip-path="url(#clip540)" d="M114.26 1004.75 L143.936 1004.75 L143.936 1008.68 L114.26 1008.68 L114.26 1004.75 Z" fill="#000000" fill-rule="nonzero" fill-opacity="1" /><path clip-path="url(#clip540)" d="M164.607 1002.43 Q161.459 1002.43 159.607 1004.59 Q157.778 1006.74 157.778 1010.49 Q157.778 1014.22 159.607 1016.39 Q161.459 1018.54 164.607 1018.54 Q167.755 1018.54 169.584 1016.39 Q171.436 1014.22 171.436 1010.49 Q171.436 1006.74 169.584 1004.59 Q167.755 1002.43 164.607 1002.43 M173.889 987.781 L173.889 992.04 Q172.13 991.207 170.325 990.767 Q168.542 990.327 166.783 990.327 Q162.153 990.327 159.7 993.452 Q157.269 996.577 156.922 1002.9 Q158.288 1000.88 160.348 999.818 Q162.408 998.73 164.885 998.73 Q170.093 998.73 173.102 1001.9 Q176.135 1005.05 176.135 1010.49 Q176.135 1015.81 172.987 1019.03 Q169.839 1022.25 164.607 1022.25 Q158.612 1022.25 155.44 1017.67 Q152.269 1013.06 152.269 1004.33 Q152.269 996.137 156.158 991.276 Q160.047 986.392 166.598 986.392 Q168.357 986.392 170.139 986.739 Q171.945 987.087 173.889 987.781 Z" fill="#000000" fill-rule="nonzero" fill-opacity="1" /><path clip-path="url(#clip540)" d="M194.19 990.096 Q190.579 990.096 188.75 993.661 Q186.945 997.202 186.945 1004.33 Q186.945 1011.44 188.75 1015 Q190.579 1018.54 194.19 1018.54 Q197.825 1018.54 199.63 1015 Q201.459 1011.44 201.459 1004.33 Q201.459 997.202 199.63 993.661 Q197.825 990.096 194.19 990.096 M194.19 986.392 Q200 986.392 203.056 990.999 Q206.135 995.582 206.135 1004.33 Q206.135 1013.06 203.056 1017.67 Q200 1022.25 194.19 1022.25 Q188.38 1022.25 185.301 1017.67 Q182.246 1013.06 182.246 1004.33 Q182.246 995.582 185.301 990.999 Q188.38 986.392 194.19 986.392 Z" fill="#000000" fill-rule="nonzero" fill-opacity="1" /><path clip-path="url(#clip540)" d="M114.26 751.21 L143.936 751.21 L143.936 755.145 L114.26 755.145 L114.26 751.21 Z" fill="#000000" fill-rule="nonzero" fill-opacity="1" /><path clip-path="url(#clip540)" d="M166.876 737.553 L155.07 756.002 L166.876 756.002 L166.876 737.553 M165.649 733.479 L171.528 733.479 L171.528 756.002 L176.459 756.002 L176.459 759.891 L171.528 759.891 L171.528 768.039 L166.876 768.039 L166.876 759.891 L151.274 759.891 L151.274 755.377 L165.649 733.479 Z" fill="#000000" fill-rule="nonzero" fill-opacity="1" /><path clip-path="url(#clip540)" d="M194.19 736.558 Q190.579 736.558 188.75 740.122 Q186.945 743.664 186.945 750.794 Q186.945 757.9 188.75 761.465 Q190.579 765.006 194.19 765.006 Q197.825 765.006 199.63 761.465 Q201.459 757.9 201.459 750.794 Q201.459 743.664 199.63 740.122 Q197.825 736.558 194.19 736.558 M194.19 732.854 Q200 732.854 203.056 737.46 Q206.135 742.044 206.135 750.794 Q206.135 759.52 203.056 764.127 Q200 768.71 194.19 768.71 Q188.38 768.71 185.301 764.127 Q182.246 759.52 182.246 750.794 Q182.246 742.044 185.301 737.46 Q188.38 732.854 194.19 732.854 Z" fill="#000000" fill-rule="nonzero" fill-opacity="1" /><path clip-path="url(#clip540)" d="M114.26 497.672 L143.936 497.672 L143.936 501.607 L114.26 501.607 L114.26 497.672 Z" fill="#000000" fill-rule="nonzero" fill-opacity="1" /><path clip-path="url(#clip540)" d="M158.056 510.565 L174.376 510.565 L174.376 514.501 L152.431 514.501 L152.431 510.565 Q155.093 507.811 159.677 503.181 Q164.283 498.528 165.464 497.186 Q167.709 494.663 168.589 492.927 Q169.491 491.167 169.491 489.478 Q169.491 486.723 167.547 484.987 Q165.626 483.251 162.524 483.251 Q160.325 483.251 157.871 484.015 Q155.44 484.779 152.663 486.329 L152.663 481.607 Q155.487 480.473 157.94 479.894 Q160.394 479.316 162.431 479.316 Q167.802 479.316 170.996 482.001 Q174.19 484.686 174.19 489.177 Q174.19 491.306 173.38 493.228 Q172.593 495.126 170.487 497.718 Q169.908 498.39 166.806 501.607 Q163.704 504.802 158.056 510.565 Z" fill="#000000" fill-rule="nonzero" fill-opacity="1" /><path clip-path="url(#clip540)" d="M194.19 483.019 Q190.579 483.019 188.75 486.584 Q186.945 490.126 186.945 497.255 Q186.945 504.362 188.75 507.927 Q190.579 511.468 194.19 511.468 Q197.825 511.468 199.63 507.927 Q201.459 504.362 201.459 497.255 Q201.459 490.126 199.63 486.584 Q197.825 483.019 194.19 483.019 M194.19 479.316 Q200 479.316 203.056 483.922 Q206.135 488.505 206.135 497.255 Q206.135 505.982 203.056 510.589 Q200 515.172 194.19 515.172 Q188.38 515.172 185.301 510.589 Q182.246 505.982 182.246 497.255 Q182.246 488.505 185.301 483.922 Q188.38 479.316 194.19 479.316 Z" fill="#000000" fill-rule="nonzero" fill-opacity="1" /><path clip-path="url(#clip540)" d="M194.19 229.481 Q190.579 229.481 188.75 233.046 Q186.945 236.587 186.945 243.717 Q186.945 250.823 188.75 254.388 Q190.579 257.93 194.19 257.93 Q197.825 257.93 199.63 254.388 Q201.459 250.823 201.459 243.717 Q201.459 236.587 199.63 233.046 Q197.825 229.481 194.19 229.481 M194.19 225.777 Q200 225.777 203.056 230.384 Q206.135 234.967 206.135 243.717 Q206.135 252.444 203.056 257.05 Q200 261.634 194.19 261.634 Q188.38 261.634 185.301 257.05 Q182.246 252.444 182.246 243.717 Q182.246 234.967 185.301 230.384 Q188.38 225.777 194.19 225.777 Z" fill="#000000" fill-rule="nonzero" fill-opacity="1" /><path clip-path="url(#clip540)" d="M22.818 1124.88 L46.4666 1133.61 L46.4666 1116.13 L22.818 1124.88 M16.4842 1128.51 L16.4842 1121.22 L64.0042 1103.11 L64.0042 1109.8 L51.8138 1114.13 L51.8138 1135.55 L64.0042 1139.88 L64.0042 1146.66 L16.4842 1128.51 Z" fill="#000000" fill-rule="nonzero" fill-opacity="1" /><path clip-path="url(#clip540)" d="M29.7248 1071.92 L35.1993 1071.92 Q33.8307 1074.4 33.1623 1076.92 Q32.4621 1079.4 32.4621 1081.95 Q32.4621 1087.65 36.0905 1090.8 Q39.6872 1093.95 46.212 1093.95 Q52.7369 1093.95 56.3653 1090.8 Q59.9619 1087.65 59.9619 1081.95 Q59.9619 1079.4 59.2935 1076.92 Q58.5933 1074.4 57.2247 1071.92 L62.6355 1071.92 Q63.7814 1074.37 64.3543 1077.01 Q64.9272 1079.62 64.9272 1082.58 Q64.9272 1090.64 59.8664 1095.38 Q54.8057 1100.12 46.212 1100.12 Q37.491 1100.12 32.4939 1095.35 Q27.4968 1090.54 27.4968 1082.2 Q27.4968 1079.5 28.0697 1076.92 Q28.6108 1074.34 29.7248 1071.92 Z" fill="#000000" fill-rule="nonzero" fill-opacity="1" /><path clip-path="url(#clip540)" d="M29.7248 1036.08 L35.1993 1036.08 Q33.8307 1038.57 33.1623 1041.08 Q32.4621 1043.56 32.4621 1046.11 Q32.4621 1051.81 36.0905 1054.96 Q39.6872 1058.11 46.212 1058.11 Q52.7369 1058.11 56.3653 1054.96 Q59.9619 1051.81 59.9619 1046.11 Q59.9619 1043.56 59.2935 1041.08 Q58.5933 1038.57 57.2247 1036.08 L62.6355 1036.08 Q63.7814 1038.53 64.3543 1041.18 Q64.9272 1043.79 64.9272 1046.75 Q64.9272 1054.8 59.8664 1059.54 Q54.8057 1064.28 46.212 1064.28 Q37.491 1064.28 32.4939 1059.51 Q27.4968 1054.7 27.4968 1046.36 Q27.4968 1043.66 28.0697 1041.08 Q28.6108 1038.5 29.7248 1036.08 Z" fill="#000000" fill-rule="nonzero" fill-opacity="1" /><path clip-path="url(#clip540)" d="M49.9359 1026.5 L28.3562 1026.5 L28.3562 1020.65 L49.7131 1020.65 Q54.7739 1020.65 57.3202 1018.67 Q59.8346 1016.7 59.8346 1012.75 Q59.8346 1008.01 56.8109 1005.27 Q53.7872 1002.5 48.5673 1002.5 L28.3562 1002.5 L28.3562 996.647 L64.0042 996.647 L64.0042 1002.5 L58.5296 1002.5 Q61.7762 1004.64 63.3676 1007.47 Q64.9272 1010.27 64.9272 1013.99 Q64.9272 1020.14 61.1078 1023.32 Q57.2883 1026.5 49.9359 1026.5 M27.4968 1011.77 L27.4968 1011.77 Z" fill="#000000" fill-rule="nonzero" fill-opacity="1" /><path clip-path="url(#clip540)" d="M35.1993 956.83 Q31.2526 954.634 29.3747 951.578 Q27.4968 948.523 27.4968 944.385 Q27.4968 938.815 31.4117 935.791 Q35.2948 932.767 42.4881 932.767 L64.0042 932.767 L64.0042 938.656 L42.679 938.656 Q37.5546 938.656 35.072 940.47 Q32.5894 942.284 32.5894 946.008 Q32.5894 950.56 35.6131 953.201 Q38.6368 955.843 43.8567 955.843 L64.0042 955.843 L64.0042 961.731 L42.679 961.731 Q37.5228 961.731 35.072 963.546 Q32.5894 965.36 32.5894 969.147 Q32.5894 973.635 35.6449 976.277 Q38.6686 978.919 43.8567 978.919 L64.0042 978.919 L64.0042 984.807 L28.3562 984.807 L28.3562 978.919 L33.8944 978.919 Q30.616 976.914 29.0564 974.113 Q27.4968 971.312 27.4968 967.461 Q27.4968 963.577 29.4702 960.872 Q31.4436 958.135 35.1993 956.83 Z" fill="#000000" fill-rule="nonzero" fill-opacity="1" /><path clip-path="url(#clip540)" d="M49.9359 921.691 L28.3562 921.691 L28.3562 915.835 L49.7131 915.835 Q54.7739 915.835 57.3202 913.861 Q59.8346 911.888 59.8346 907.941 Q59.8346 903.199 56.8109 900.462 Q53.7872 897.692 48.5673 897.692 L28.3562 897.692 L28.3562 891.836 L64.0042 891.836 L64.0042 897.692 L58.5296 897.692 Q61.7762 899.825 63.3676 902.658 Q64.9272 905.459 64.9272 909.183 Q64.9272 915.325 61.1078 918.508 Q57.2883 921.691 49.9359 921.691 M27.4968 906.955 L27.4968 906.955 Z" fill="#000000" fill-rule="nonzero" fill-opacity="1" /><path clip-path="url(#clip540)" d="M14.479 879.773 L14.479 873.917 L64.0042 873.917 L64.0042 879.773 L14.479 879.773 Z" fill="#000000" fill-rule="nonzero" fill-opacity="1" /><path clip-path="url(#clip540)" d="M46.0847 845.462 Q46.0847 852.56 47.7079 855.297 Q49.3312 858.034 53.2461 858.034 Q56.3653 858.034 58.2114 855.997 Q60.0256 853.928 60.0256 850.395 Q60.0256 845.525 56.5881 842.597 Q53.1188 839.637 47.3897 839.637 L46.0847 839.637 L46.0847 845.462 M43.6657 833.781 L64.0042 833.781 L64.0042 839.637 L58.5933 839.637 Q61.8398 841.642 63.3994 844.634 Q64.9272 847.626 64.9272 851.955 Q64.9272 857.429 61.8716 860.676 Q58.7843 863.891 53.6281 863.891 Q47.6125 863.891 44.5569 859.88 Q41.5014 855.838 41.5014 847.849 L41.5014 839.637 L40.9285 839.637 Q36.8862 839.637 34.6901 842.311 Q32.4621 844.953 32.4621 849.759 Q32.4621 852.814 33.1941 855.711 Q33.9262 858.607 35.3903 861.281 L29.9795 861.281 Q28.7381 858.066 28.1334 855.042 Q27.4968 852.018 27.4968 849.154 Q27.4968 841.42 31.5072 837.6 Q35.5176 833.781 43.6657 833.781 Z" fill="#000000" fill-rule="nonzero" fill-opacity="1" /><path clip-path="url(#clip540)" d="M18.2347 815.925 L28.3562 815.925 L28.3562 803.862 L32.9077 803.862 L32.9077 815.925 L52.2594 815.925 Q56.6199 815.925 57.8613 814.747 Q59.1026 813.538 59.1026 809.878 L59.1026 803.862 L64.0042 803.862 L64.0042 809.878 Q64.0042 816.657 61.4897 819.235 Q58.9434 821.813 52.2594 821.813 L32.9077 821.813 L32.9077 826.11 L28.3562 826.11 L28.3562 821.813 L18.2347 821.813 L18.2347 815.925 Z" fill="#000000" fill-rule="nonzero" fill-opacity="1" /><path clip-path="url(#clip540)" d="M44.7161 765.668 L47.5806 765.668 L47.5806 792.595 Q53.6281 792.213 56.8109 788.966 Q59.9619 785.688 59.9619 779.863 Q59.9619 776.489 59.1344 773.338 Q58.3069 770.155 56.6518 767.036 L62.1899 767.036 Q63.5267 770.187 64.227 773.497 Q64.9272 776.808 64.9272 780.213 Q64.9272 788.743 59.9619 793.74 Q54.9967 798.706 46.5303 798.706 Q37.7774 798.706 32.6531 793.995 Q27.4968 789.253 27.4968 781.232 Q27.4968 774.039 32.1438 769.869 Q36.7589 765.668 44.7161 765.668 M42.9973 771.524 Q38.1912 771.588 35.3266 774.23 Q32.4621 776.839 32.4621 781.168 Q32.4621 786.07 35.2312 789.03 Q38.0002 791.958 43.0292 792.404 L42.9973 771.524 Z" fill="#000000" fill-rule="nonzero" fill-opacity="1" /><path clip-path="url(#clip540)" d="M33.7671 732.598 L14.479 732.598 L14.479 726.741 L64.0042 726.741 L64.0042 732.598 L58.657 732.598 Q61.8398 734.444 63.3994 737.277 Q64.9272 740.078 64.9272 744.024 Q64.9272 750.485 59.771 754.56 Q54.6147 758.602 46.212 758.602 Q37.8093 758.602 32.6531 754.56 Q27.4968 750.485 27.4968 744.024 Q27.4968 740.078 29.0564 737.277 Q30.5842 734.444 33.7671 732.598 M46.212 752.554 Q52.6732 752.554 56.3653 749.913 Q60.0256 747.239 60.0256 742.592 Q60.0256 737.945 56.3653 735.271 Q52.6732 732.598 46.212 732.598 Q39.7508 732.598 36.0905 735.271 Q32.3984 737.945 32.3984 742.592 Q32.3984 747.239 36.0905 749.913 Q39.7508 752.554 46.212 752.554 Z" fill="#000000" fill-rule="nonzero" fill-opacity="1" /><path clip-path="url(#clip540)" d="M41.7242 671.169 Q42.4244 669.1 44.7161 667.158 Q47.0077 665.185 51.0181 663.212 L64.0042 656.687 L64.0042 663.594 L51.8138 669.673 Q47.0395 672.028 45.48 674.256 Q43.9204 676.452 43.9204 680.272 L43.9204 687.274 L64.0042 687.274 L64.0042 693.703 L16.4842 693.703 L16.4842 679.19 Q16.4842 671.041 19.8898 667.031 Q23.2955 663.021 30.1704 663.021 Q34.6582 663.021 37.6183 665.121 Q40.5784 667.19 41.7242 671.169 M21.7677 687.274 L38.6368 687.274 L38.6368 679.19 Q38.6368 674.543 36.5043 672.187 Q34.34 669.8 30.1704 669.8 Q26.0009 669.8 23.9002 672.187 Q21.7677 674.543 21.7677 679.19 L21.7677 687.274 Z" fill="#000000" fill-rule="nonzero" fill-opacity="1" /><path clip-path="url(#clip540)" d="M44.7161 621.102 L47.5806 621.102 L47.5806 648.029 Q53.6281 647.647 56.8109 644.401 Q59.9619 641.123 59.9619 635.298 Q59.9619 631.924 59.1344 628.773 Q58.3069 625.59 56.6518 622.471 L62.1899 622.471 Q63.5267 625.622 64.227 628.932 Q64.9272 632.242 64.9272 635.648 Q64.9272 644.178 59.9619 649.175 Q54.9967 654.14 46.5303 654.14 Q37.7774 654.14 32.6531 649.43 Q27.4968 644.687 27.4968 636.667 Q27.4968 629.473 32.1438 625.304 Q36.7589 621.102 44.7161 621.102 M42.9973 626.959 Q38.1912 627.023 35.3266 629.664 Q32.4621 632.274 32.4621 636.603 Q32.4621 641.505 35.2312 644.465 Q38.0002 647.393 43.0292 647.838 L42.9973 626.959 Z" fill="#000000" fill-rule="nonzero" fill-opacity="1" /><path clip-path="url(#clip540)" d="M28.3562 614.896 L28.3562 609.039 L56.1743 601.719 L28.3562 594.43 L28.3562 587.523 L56.1743 580.203 L28.3562 572.914 L28.3562 567.058 L64.0042 576.383 L64.0042 583.29 L34.7856 590.961 L64.0042 598.663 L64.0042 605.57 L28.3562 614.896 Z" fill="#000000" fill-rule="nonzero" fill-opacity="1" /><path clip-path="url(#clip540)" d="M46.0847 541.977 Q46.0847 549.075 47.7079 551.812 Q49.3312 554.549 53.2461 554.549 Q56.3653 554.549 58.2114 552.512 Q60.0256 550.443 60.0256 546.91 Q60.0256 542.04 56.5881 539.112 Q53.1188 536.152 47.3897 536.152 L46.0847 536.152 L46.0847 541.977 M43.6657 530.296 L64.0042 530.296 L64.0042 536.152 L58.5933 536.152 Q61.8398 538.157 63.3994 541.149 Q64.9272 544.141 64.9272 548.47 Q64.9272 553.944 61.8716 557.191 Q58.7843 560.405 53.6281 560.405 Q47.6125 560.405 44.5569 556.395 Q41.5014 552.353 41.5014 544.364 L41.5014 536.152 L40.9285 536.152 Q36.8862 536.152 34.6901 538.826 Q32.4621 541.467 32.4621 546.274 Q32.4621 549.329 33.1941 552.226 Q33.9262 555.122 35.3903 557.796 L29.9795 557.796 Q28.7381 554.581 28.1334 551.557 Q27.4968 548.533 27.4968 545.669 Q27.4968 537.935 31.5072 534.115 Q35.5176 530.296 43.6657 530.296 Z" fill="#000000" fill-rule="nonzero" fill-opacity="1" /><path clip-path="url(#clip540)" d="M33.8307 497.576 Q33.2578 498.563 33.0032 499.74 Q32.7167 500.886 32.7167 502.287 Q32.7167 507.252 35.9632 509.925 Q39.1779 512.567 45.2253 512.567 L64.0042 512.567 L64.0042 518.455 L28.3562 518.455 L28.3562 512.567 L33.8944 512.567 Q30.6479 510.721 29.0883 507.761 Q27.4968 504.801 27.4968 500.568 Q27.4968 499.963 27.5923 499.231 Q27.656 498.499 27.8151 497.608 L33.8307 497.576 Z" fill="#000000" fill-rule="nonzero" fill-opacity="1" /><path clip-path="url(#clip540)" d="M33.7671 469.121 L14.479 469.121 L14.479 463.265 L64.0042 463.265 L64.0042 469.121 L58.657 469.121 Q61.8398 470.967 63.3994 473.8 Q64.9272 476.601 64.9272 480.548 Q64.9272 487.009 59.771 491.083 Q54.6147 495.125 46.212 495.125 Q37.8093 495.125 32.6531 491.083 Q27.4968 487.009 27.4968 480.548 Q27.4968 476.601 29.0564 473.8 Q30.5842 470.967 33.7671 469.121 M46.212 489.078 Q52.6732 489.078 56.3653 486.436 Q60.0256 483.762 60.0256 479.115 Q60.0256 474.468 56.3653 471.795 Q52.6732 469.121 46.212 469.121 Q39.7508 469.121 36.0905 471.795 Q32.3984 474.468 32.3984 479.115 Q32.3984 483.762 36.0905 486.436 Q39.7508 489.078 46.212 489.078 Z" fill="#000000" fill-rule="nonzero" fill-opacity="1" /><path clip-path="url(#clip540)" d="M805.706 20.1573 L794.607 50.2555 L816.846 50.2555 L805.706 20.1573 M801.088 12.096 L810.365 12.096 L833.414 72.576 L824.907 72.576 L819.398 57.061 L792.135 57.061 L786.626 72.576 L777.998 72.576 L801.088 12.096 Z" fill="#000000" fill-rule="nonzero" fill-opacity="1" /><path clip-path="url(#clip540)" d="M874.49 49.9314 Q874.49 41.7081 871.088 37.0496 Q867.725 32.3505 861.811 32.3505 Q855.897 32.3505 852.494 37.0496 Q849.132 41.7081 849.132 49.9314 Q849.132 58.1548 852.494 62.8538 Q855.897 67.5124 861.811 67.5124 Q867.725 67.5124 871.088 62.8538 Q874.49 58.1548 874.49 49.9314 M849.132 34.0924 Q851.481 30.0415 855.046 28.0971 Q858.651 26.1121 863.634 26.1121 Q871.898 26.1121 877.042 32.6746 Q882.228 39.2371 882.228 49.9314 Q882.228 60.6258 877.042 67.1883 Q871.898 73.7508 863.634 73.7508 Q858.651 73.7508 855.046 71.8063 Q851.481 69.8214 849.132 65.7705 L849.132 72.576 L841.638 72.576 L841.638 9.54393 L849.132 9.54393 L849.132 34.0924 Z" fill="#000000" fill-rule="nonzero" fill-opacity="1" /><path clip-path="url(#clip540)" d="M894.583 9.54393 L902.037 9.54393 L902.037 72.576 L894.583 72.576 L894.583 9.54393 Z" fill="#000000" fill-rule="nonzero" fill-opacity="1" /><path clip-path="url(#clip540)" d="M938.252 49.7694 Q929.218 49.7694 925.734 51.8354 Q922.251 53.9013 922.251 58.8839 Q922.251 62.8538 924.843 65.2034 Q927.476 67.5124 931.973 67.5124 Q938.171 67.5124 941.897 63.1374 Q945.665 58.7219 945.665 51.4303 L945.665 49.7694 L938.252 49.7694 M953.118 46.6907 L953.118 72.576 L945.665 72.576 L945.665 65.6895 Q943.113 69.8214 939.305 71.8063 Q935.497 73.7508 929.988 73.7508 Q923.02 73.7508 918.888 69.8619 Q914.797 65.9325 914.797 59.3701 Q914.797 51.7138 919.901 47.825 Q925.046 43.9361 935.213 43.9361 L945.665 43.9361 L945.665 43.2069 Q945.665 38.0623 942.262 35.2672 Q938.9 32.4315 932.783 32.4315 Q928.894 32.4315 925.208 33.3632 Q921.521 34.295 918.119 36.1584 L918.119 29.2718 Q922.21 27.692 926.058 26.9223 Q929.907 26.1121 933.553 26.1121 Q943.396 26.1121 948.257 31.2163 Q953.118 36.3204 953.118 46.6907 Z" fill="#000000" fill-rule="nonzero" fill-opacity="1" /><path clip-path="url(#clip540)" d="M975.844 14.324 L975.844 27.2059 L991.197 27.2059 L991.197 32.9987 L975.844 32.9987 L975.844 57.6282 Q975.844 63.1779 977.343 64.7578 Q978.882 66.3376 983.541 66.3376 L991.197 66.3376 L991.197 72.576 L983.541 72.576 Q974.912 72.576 971.631 69.3758 Q968.35 66.1351 968.35 57.6282 L968.35 32.9987 L962.881 32.9987 L962.881 27.2059 L968.35 27.2059 L968.35 14.324 L975.844 14.324 Z" fill="#000000" fill-rule="nonzero" fill-opacity="1" /><path clip-path="url(#clip540)" d="M1001 27.2059 L1008.45 27.2059 L1008.45 72.576 L1001 72.576 L1001 27.2059 M1001 9.54393 L1008.45 9.54393 L1008.45 18.9825 L1001 18.9825 L1001 9.54393 Z" fill="#000000" fill-rule="nonzero" fill-opacity="1" /><path clip-path="url(#clip540)" d="M1041.63 32.4315 Q1035.64 32.4315 1032.15 37.1306 Q1028.67 41.7891 1028.67 49.9314 Q1028.67 58.0738 1032.11 62.7728 Q1035.59 67.4314 1041.63 67.4314 Q1047.59 67.4314 1051.07 62.7323 Q1054.55 58.0333 1054.55 49.9314 Q1054.55 41.8701 1051.07 37.1711 Q1047.59 32.4315 1041.63 32.4315 M1041.63 26.1121 Q1051.35 26.1121 1056.9 32.4315 Q1062.45 38.7509 1062.45 49.9314 Q1062.45 61.0714 1056.9 67.4314 Q1051.35 73.7508 1041.63 73.7508 Q1031.87 73.7508 1026.32 67.4314 Q1020.81 61.0714 1020.81 49.9314 Q1020.81 38.7509 1026.32 32.4315 Q1031.87 26.1121 1041.63 26.1121 Z" fill="#000000" fill-rule="nonzero" fill-opacity="1" /><path clip-path="url(#clip540)" d="M1112.52 45.1919 L1112.52 72.576 L1105.07 72.576 L1105.07 45.4349 Q1105.07 38.994 1102.56 35.7938 Q1100.04 32.5936 1095.02 32.5936 Q1088.99 32.5936 1085.5 36.4419 Q1082.02 40.2903 1082.02 46.9338 L1082.02 72.576 L1074.52 72.576 L1074.52 27.2059 L1082.02 27.2059 L1082.02 34.2544 Q1084.69 30.163 1088.3 28.1376 Q1091.94 26.1121 1096.68 26.1121 Q1104.5 26.1121 1108.51 30.9732 Q1112.52 35.7938 1112.52 45.1919 Z" fill="#000000" fill-rule="nonzero" fill-opacity="1" /><path clip-path="url(#clip540)" d="M1199.37 16.7545 L1199.37 25.383 Q1195.24 21.5346 1190.54 19.6307 Q1185.88 17.7268 1180.62 17.7268 Q1170.25 17.7268 1164.74 24.0867 Q1159.23 30.4061 1159.23 42.3968 Q1159.23 54.3469 1164.74 60.7069 Q1170.25 67.0263 1180.62 67.0263 Q1185.88 67.0263 1190.54 65.1223 Q1195.24 63.2184 1199.37 59.3701 L1199.37 67.9175 Q1195.08 70.8341 1190.26 72.2924 Q1185.48 73.7508 1180.13 73.7508 Q1166.4 73.7508 1158.5 65.3654 Q1150.6 56.9395 1150.6 42.3968 Q1150.6 27.8135 1158.5 19.4281 Q1166.4 11.0023 1180.13 11.0023 Q1185.56 11.0023 1190.34 12.4606 Q1195.16 13.8784 1199.37 16.7545 Z" fill="#000000" fill-rule="nonzero" fill-opacity="1" /><path clip-path="url(#clip540)" d="M1237.98 34.1734 Q1236.72 33.4443 1235.22 33.1202 Q1233.77 32.7556 1231.98 32.7556 Q1225.66 32.7556 1222.26 36.8875 Q1218.9 40.9789 1218.9 48.6757 L1218.9 72.576 L1211.4 72.576 L1211.4 27.2059 L1218.9 27.2059 L1218.9 34.2544 Q1221.25 30.1225 1225.02 28.1376 Q1228.78 26.1121 1234.17 26.1121 Q1234.94 26.1121 1235.87 26.2337 Q1236.8 26.3147 1237.94 26.5172 L1237.98 34.1734 Z" fill="#000000" fill-rule="nonzero" fill-opacity="1" /><path clip-path="url(#clip540)" d="M1245.8 27.2059 L1253.25 27.2059 L1253.25 72.576 L1245.8 72.576 L1245.8 27.2059 M1245.8 9.54393 L1253.25 9.54393 L1253.25 18.9825 L1245.8 18.9825 L1245.8 9.54393 Z" fill="#000000" fill-rule="nonzero" fill-opacity="1" /><path clip-path="url(#clip540)" d="M1276.22 14.324 L1276.22 27.2059 L1291.57 27.2059 L1291.57 32.9987 L1276.22 32.9987 L1276.22 57.6282 Q1276.22 63.1779 1277.72 64.7578 Q1279.26 66.3376 1283.92 66.3376 L1291.57 66.3376 L1291.57 72.576 L1283.92 72.576 Q1275.29 72.576 1272.01 69.3758 Q1268.72 66.1351 1268.72 57.6282 L1268.72 32.9987 L1263.26 32.9987 L1263.26 27.2059 L1268.72 27.2059 L1268.72 14.324 L1276.22 14.324 Z" fill="#000000" fill-rule="nonzero" fill-opacity="1" /><path clip-path="url(#clip540)" d="M1301.37 27.2059 L1308.83 27.2059 L1308.83 72.576 L1301.37 72.576 L1301.37 27.2059 M1301.37 9.54393 L1308.83 9.54393 L1308.83 18.9825 L1301.37 18.9825 L1301.37 9.54393 Z" fill="#000000" fill-rule="nonzero" fill-opacity="1" /><path clip-path="url(#clip540)" d="M1357.07 28.9478 L1357.07 35.9153 Q1353.91 34.1734 1350.71 33.3227 Q1347.55 32.4315 1344.31 32.4315 Q1337.06 32.4315 1333.05 37.0496 Q1329.04 41.6271 1329.04 49.9314 Q1329.04 58.2358 1333.05 62.8538 Q1337.06 67.4314 1344.31 67.4314 Q1347.55 67.4314 1350.71 66.5807 Q1353.91 65.6895 1357.07 63.9476 L1357.07 70.8341 Q1353.96 72.2924 1350.59 73.0216 Q1347.27 73.7508 1343.5 73.7508 Q1333.26 73.7508 1327.22 67.3098 Q1321.18 60.8689 1321.18 49.9314 Q1321.18 38.832 1327.26 32.472 Q1333.38 26.1121 1343.99 26.1121 Q1347.43 26.1121 1350.71 26.8413 Q1354 27.5299 1357.07 28.9478 Z" fill="#000000" fill-rule="nonzero" fill-opacity="1" /><path clip-path="url(#clip540)" d="M1390.66 49.7694 Q1381.62 49.7694 1378.14 51.8354 Q1374.66 53.9013 1374.66 58.8839 Q1374.66 62.8538 1377.25 65.2034 Q1379.88 67.5124 1384.38 67.5124 Q1390.58 67.5124 1394.3 63.1374 Q1398.07 58.7219 1398.07 51.4303 L1398.07 49.7694 L1390.66 49.7694 M1405.52 46.6907 L1405.52 72.576 L1398.07 72.576 L1398.07 65.6895 Q1395.52 69.8214 1391.71 71.8063 Q1387.9 73.7508 1382.39 73.7508 Q1375.43 73.7508 1371.29 69.8619 Q1367.2 65.9325 1367.2 59.3701 Q1367.2 51.7138 1372.31 47.825 Q1377.45 43.9361 1387.62 43.9361 L1398.07 43.9361 L1398.07 43.2069 Q1398.07 38.0623 1394.67 35.2672 Q1391.3 32.4315 1385.19 32.4315 Q1381.3 32.4315 1377.61 33.3632 Q1373.93 34.295 1370.52 36.1584 L1370.52 29.2718 Q1374.62 27.692 1378.46 26.9223 Q1382.31 26.1121 1385.96 26.1121 Q1395.8 26.1121 1400.66 31.2163 Q1405.52 36.3204 1405.52 46.6907 Z" fill="#000000" fill-rule="nonzero" fill-opacity="1" /><path clip-path="url(#clip540)" d="M1420.88 9.54393 L1428.33 9.54393 L1428.33 72.576 L1420.88 72.576 L1420.88 9.54393 Z" fill="#000000" fill-rule="nonzero" fill-opacity="1" /><path clip-path="url(#clip540)" d="M1443.93 27.2059 L1451.38 27.2059 L1451.38 72.576 L1443.93 72.576 L1443.93 27.2059 M1443.93 9.54393 L1451.38 9.54393 L1451.38 18.9825 L1443.93 18.9825 L1443.93 9.54393 Z" fill="#000000" fill-rule="nonzero" fill-opacity="1" /><path clip-path="url(#clip540)" d="M1474.35 14.324 L1474.35 27.2059 L1489.7 27.2059 L1489.7 32.9987 L1474.35 32.9987 L1474.35 57.6282 Q1474.35 63.1779 1475.85 64.7578 Q1477.39 66.3376 1482.04 66.3376 L1489.7 66.3376 L1489.7 72.576 L1482.04 72.576 Q1473.42 72.576 1470.14 69.3758 Q1466.85 66.1351 1466.85 57.6282 L1466.85 32.9987 L1461.39 32.9987 L1461.39 27.2059 L1466.85 27.2059 L1466.85 14.324 L1474.35 14.324 Z" fill="#000000" fill-rule="nonzero" fill-opacity="1" /><path clip-path="url(#clip540)" d="M1518.38 76.7889 Q1515.22 84.8907 1512.22 87.3618 Q1509.23 89.8329 1504.2 89.8329 L1498.25 89.8329 L1498.25 83.5945 L1502.62 83.5945 Q1505.7 83.5945 1507.4 82.1361 Q1509.11 80.6778 1511.17 75.2496 L1512.51 71.8468 L1494.16 27.2059 L1502.06 27.2059 L1516.23 62.6918 L1530.41 27.2059 L1538.31 27.2059 L1518.38 76.7889 Z" fill="#000000" fill-rule="nonzero" fill-opacity="1" /><path clip-path="url(#clip540)" d="M1544.47 62.2867 L1553.02 62.2867 L1553.02 72.576 L1544.47 72.576 L1544.47 62.2867 M1544.47 29.6769 L1553.02 29.6769 L1553.02 39.9662 L1544.47 39.9662 L1544.47 29.6769 Z" fill="#000000" fill-rule="nonzero" fill-opacity="1" /><path clip-path="url(#clip540)" d="M1588.83 12.096 L1639.99 12.096 L1639.99 18.9825 L1618.52 18.9825 L1618.52 72.576 L1610.3 72.576 L1610.3 18.9825 L1588.83 18.9825 L1588.83 12.096 Z" fill="#000000" fill-rule="nonzero" fill-opacity="1" /><path clip-path="url(#clip540)" d="M1645.01 27.2059 L1652.47 27.2059 L1652.47 72.576 L1645.01 72.576 L1645.01 27.2059 M1645.01 9.54393 L1652.47 9.54393 L1652.47 18.9825 L1645.01 18.9825 L1645.01 9.54393 Z" fill="#000000" fill-rule="nonzero" fill-opacity="1" /><path clip-path="url(#clip540)" d="M1706.87 48.0275 L1706.87 51.6733 L1672.6 51.6733 Q1673.09 59.3701 1677.22 63.421 Q1681.39 67.4314 1688.8 67.4314 Q1693.1 67.4314 1697.11 66.3781 Q1701.16 65.3249 1705.13 63.2184 L1705.13 70.267 Q1701.12 71.9684 1696.9 72.8596 Q1692.69 73.7508 1688.36 73.7508 Q1677.5 73.7508 1671.14 67.4314 Q1664.82 61.1119 1664.82 50.3365 Q1664.82 39.1965 1670.82 32.6746 Q1676.85 26.1121 1687.06 26.1121 Q1696.22 26.1121 1701.52 32.0264 Q1706.87 37.9003 1706.87 48.0275 M1699.42 45.84 Q1699.34 39.7232 1695.97 36.0774 Q1692.65 32.4315 1687.14 32.4315 Q1680.9 32.4315 1677.14 35.9558 Q1673.41 39.4801 1672.84 45.8805 L1699.42 45.84 Z" fill="#000000" fill-rule="nonzero" fill-opacity="1" /><path clip-path="url(#clip540)" d="M1745.39 34.1734 Q1744.14 33.4443 1742.64 33.1202 Q1741.18 32.7556 1739.4 32.7556 Q1733.08 32.7556 1729.68 36.8875 Q1726.31 40.9789 1726.31 48.6757 L1726.31 72.576 L1718.82 72.576 L1718.82 27.2059 L1726.31 27.2059 L1726.31 34.2544 Q1728.66 30.1225 1732.43 28.1376 Q1736.2 26.1121 1741.59 26.1121 Q1742.36 26.1121 1743.29 26.2337 Q1744.22 26.3147 1745.35 26.5172 L1745.39 34.1734 Z" fill="#000000" fill-rule="nonzero" fill-opacity="1" /><path clip-path="url(#clip540)" d="M1782.05 65.6895 L1795.42 65.6895 L1795.42 19.5497 L1780.88 22.4663 L1780.88 15.0127 L1795.34 12.096 L1803.52 12.096 L1803.52 65.6895 L1816.89 65.6895 L1816.89 72.576 L1782.05 72.576 L1782.05 65.6895 Z" fill="#000000" fill-rule="nonzero" fill-opacity="1" /><circle clip-path="url(#clip542)" cx="607.794" cy="243.977" r="14.4" fill="#009af9" fill-rule="evenodd" fill-opacity="0.6" stroke="#000000" stroke-opacity="0.6" stroke-width="3.2"/>
<circle clip-path="url(#clip542)" cx="677.054" cy="243.993" r="14.4" fill="#009af9" fill-rule="evenodd" fill-opacity="0.6" stroke="#000000" stroke-opacity="0.6" stroke-width="3.2"/>
<circle clip-path="url(#clip542)" cx="625.07" cy="244.058" r="14.4" fill="#009af9" fill-rule="evenodd" fill-opacity="0.6" stroke="#000000" stroke-opacity="0.6" stroke-width="3.2"/>
<circle clip-path="url(#clip542)" cx="676.982" cy="243.935" r="14.4" fill="#009af9" fill-rule="evenodd" fill-opacity="0.6" stroke="#000000" stroke-opacity="0.6" stroke-width="3.2"/>
<circle clip-path="url(#clip542)" cx="438.905" cy="243.961" r="14.4" fill="#009af9" fill-rule="evenodd" fill-opacity="0.6" stroke="#000000" stroke-opacity="0.6" stroke-width="3.2"/>
<circle clip-path="url(#clip542)" cx="696.751" cy="243.965" r="14.4" fill="#009af9" fill-rule="evenodd" fill-opacity="0.6" stroke="#000000" stroke-opacity="0.6" stroke-width="3.2"/>
<circle clip-path="url(#clip542)" cx="657.699" cy="243.974" r="14.4" fill="#009af9" fill-rule="evenodd" fill-opacity="0.6" stroke="#000000" stroke-opacity="0.6" stroke-width="3.2"/>
<circle clip-path="url(#clip542)" cx="616.975" cy="244.037" r="14.4" fill="#009af9" fill-rule="evenodd" fill-opacity="0.6" stroke="#000000" stroke-opacity="0.6" stroke-width="3.2"/>
<circle clip-path="url(#clip542)" cx="453.022" cy="243.943" r="14.4" fill="#009af9" fill-rule="evenodd" fill-opacity="0.6" stroke="#000000" stroke-opacity="0.6" stroke-width="3.2"/>
<circle clip-path="url(#clip542)" cx="653.138" cy="243.956" r="14.4" fill="#009af9" fill-rule="evenodd" fill-opacity="0.6" stroke="#000000" stroke-opacity="0.6" stroke-width="3.2"/>
<circle clip-path="url(#clip542)" cx="644.166" cy="243.95" r="14.4" fill="#009af9" fill-rule="evenodd" fill-opacity="0.6" stroke="#000000" stroke-opacity="0.6" stroke-width="3.2"/>
<circle clip-path="url(#clip542)" cx="567.276" cy="243.937" r="14.4" fill="#009af9" fill-rule="evenodd" fill-opacity="0.6" stroke="#000000" stroke-opacity="0.6" stroke-width="3.2"/>
<circle clip-path="url(#clip542)" cx="607.885" cy="244.03" r="14.4" fill="#009af9" fill-rule="evenodd" fill-opacity="0.6" stroke="#000000" stroke-opacity="0.6" stroke-width="3.2"/>
<circle clip-path="url(#clip542)" cx="661.683" cy="243.936" r="14.4" fill="#009af9" fill-rule="evenodd" fill-opacity="0.6" stroke="#000000" stroke-opacity="0.6" stroke-width="3.2"/>
<circle clip-path="url(#clip542)" cx="597.791" cy="243.949" r="14.4" fill="#009af9" fill-rule="evenodd" fill-opacity="0.6" stroke="#000000" stroke-opacity="0.6" stroke-width="3.2"/>
<circle clip-path="url(#clip542)" cx="1151.73" cy="244.006" r="14.4" fill="#e26f46" fill-rule="evenodd" fill-opacity="0.6" stroke="#000000" stroke-opacity="0.6" stroke-width="3.2"/>
<circle clip-path="url(#clip542)" cx="1122.74" cy="243.977" r="14.4" fill="#e26f46" fill-rule="evenodd" fill-opacity="0.6" stroke="#000000" stroke-opacity="0.6" stroke-width="3.2"/>
<circle clip-path="url(#clip542)" cx="1268.91" cy="244.055" r="14.4" fill="#e26f46" fill-rule="evenodd" fill-opacity="0.6" stroke="#000000" stroke-opacity="0.6" stroke-width="3.2"/>
<circle clip-path="url(#clip542)" cx="1310.11" cy="243.997" r="14.4" fill="#e26f46" fill-rule="evenodd" fill-opacity="0.6" stroke="#000000" stroke-opacity="0.6" stroke-width="3.2"/>
<circle clip-path="url(#clip542)" cx="1136.61" cy="243.948" r="14.4" fill="#e26f46" fill-rule="evenodd" fill-opacity="0.6" stroke="#000000" stroke-opacity="0.6" stroke-width="3.2"/>
<circle clip-path="url(#clip542)" cx="1349.12" cy="244.006" r="14.4" fill="#e26f46" fill-rule="evenodd" fill-opacity="0.6" stroke="#000000" stroke-opacity="0.6" stroke-width="3.2"/>
<circle clip-path="url(#clip542)" cx="1254.36" cy="243.977" r="14.4" fill="#e26f46" fill-rule="evenodd" fill-opacity="0.6" stroke="#000000" stroke-opacity="0.6" stroke-width="3.2"/>
<circle clip-path="url(#clip542)" cx="1352.33" cy="244.055" r="14.4" fill="#e26f46" fill-rule="evenodd" fill-opacity="0.6" stroke="#000000" stroke-opacity="0.6" stroke-width="3.2"/>
<circle clip-path="url(#clip542)" cx="1225.56" cy="243.997" r="14.4" fill="#e26f46" fill-rule="evenodd" fill-opacity="0.6" stroke="#000000" stroke-opacity="0.6" stroke-width="3.2"/>
<circle clip-path="url(#clip542)" cx="1213.29" cy="243.948" r="14.4" fill="#e26f46" fill-rule="evenodd" fill-opacity="0.6" stroke="#000000" stroke-opacity="0.6" stroke-width="3.2"/>
<circle clip-path="url(#clip542)" cx="1156.89" cy="244.006" r="14.4" fill="#e26f46" fill-rule="evenodd" fill-opacity="0.6" stroke="#000000" stroke-opacity="0.6" stroke-width="3.2"/>
<circle clip-path="url(#clip542)" cx="1288.66" cy="243.977" r="14.4" fill="#e26f46" fill-rule="evenodd" fill-opacity="0.6" stroke="#000000" stroke-opacity="0.6" stroke-width="3.2"/>
<circle clip-path="url(#clip542)" cx="1180.66" cy="244.055" r="14.4" fill="#e26f46" fill-rule="evenodd" fill-opacity="0.6" stroke="#000000" stroke-opacity="0.6" stroke-width="3.2"/>
<circle clip-path="url(#clip542)" cx="1438.57" cy="243.997" r="14.4" fill="#e26f46" fill-rule="evenodd" fill-opacity="0.6" stroke="#000000" stroke-opacity="0.6" stroke-width="3.2"/>
<circle clip-path="url(#clip542)" cx="1313.91" cy="243.948" r="14.4" fill="#e26f46" fill-rule="evenodd" fill-opacity="0.6" stroke="#000000" stroke-opacity="0.6" stroke-width="3.2"/>
<circle clip-path="url(#clip542)" cx="1808.64" cy="244.405" r="14.4" fill="#3da44d" fill-rule="evenodd" fill-opacity="0.6" stroke="#000000" stroke-opacity="0.6" stroke-width="3.2"/>
<circle clip-path="url(#clip542)" cx="1810.72" cy="245.207" r="14.4" fill="#3da44d" fill-rule="evenodd" fill-opacity="0.6" stroke="#000000" stroke-opacity="0.6" stroke-width="3.2"/>
<circle clip-path="url(#clip542)" cx="1858.51" cy="1275.65" r="14.4" fill="#3da44d" fill-rule="evenodd" fill-opacity="0.6" stroke="#000000" stroke-opacity="0.6" stroke-width="3.2"/>
<circle clip-path="url(#clip542)" cx="1831.44" cy="244.344" r="14.4" fill="#3da44d" fill-rule="evenodd" fill-opacity="0.6" stroke="#000000" stroke-opacity="0.6" stroke-width="3.2"/>
<circle clip-path="url(#clip542)" cx="2107.18" cy="244.407" r="14.4" fill="#3da44d" fill-rule="evenodd" fill-opacity="0.6" stroke="#000000" stroke-opacity="0.6" stroke-width="3.2"/>
<circle clip-path="url(#clip542)" cx="1878.15" cy="1257.86" r="14.4" fill="#3da44d" fill-rule="evenodd" fill-opacity="0.6" stroke="#000000" stroke-opacity="0.6" stroke-width="3.2"/>
<circle clip-path="url(#clip542)" cx="1772.96" cy="244.296" r="14.4" fill="#3da44d" fill-rule="evenodd" fill-opacity="0.6" stroke="#000000" stroke-opacity="0.6" stroke-width="3.2"/>
<circle clip-path="url(#clip542)" cx="2014.23" cy="1343.26" r="14.4" fill="#3da44d" fill-rule="evenodd" fill-opacity="0.6" stroke="#000000" stroke-opacity="0.6" stroke-width="3.2"/>
<circle clip-path="url(#clip542)" cx="1960.82" cy="244.383" r="14.4" fill="#3da44d" fill-rule="evenodd" fill-opacity="0.6" stroke="#000000" stroke-opacity="0.6" stroke-width="3.2"/>
<circle clip-path="url(#clip542)" cx="2069.95" cy="245.529" r="14.4" fill="#3da44d" fill-rule="evenodd" fill-opacity="0.6" stroke="#000000" stroke-opacity="0.6" stroke-width="3.2"/>
<circle clip-path="url(#clip542)" cx="1887.57" cy="1437.88" r="14.4" fill="#3da44d" fill-rule="evenodd" fill-opacity="0.6" stroke="#000000" stroke-opacity="0.6" stroke-width="3.2"/>
<circle clip-path="url(#clip542)" cx="2175.57" cy="244.175" r="14.4" fill="#3da44d" fill-rule="evenodd" fill-opacity="0.6" stroke="#000000" stroke-opacity="0.6" stroke-width="3.2"/>
<circle clip-path="url(#clip542)" cx="1864.25" cy="1300.45" r="14.4" fill="#3da44d" fill-rule="evenodd" fill-opacity="0.6" stroke="#000000" stroke-opacity="0.6" stroke-width="3.2"/>
<circle clip-path="url(#clip542)" cx="1906.8" cy="244.682" r="14.4" fill="#3da44d" fill-rule="evenodd" fill-opacity="0.6" stroke="#000000" stroke-opacity="0.6" stroke-width="3.2"/>
<path clip-path="url(#clip542)" d="M1731.5 686.865 L1731.5 243.682 L2236.67 243.682 L2236.67 686.865 L1731.5 686.865 L1731.5 686.865  Z" fill="#808080" fill-rule="evenodd" fill-opacity="0.3"/>
<polyline clip-path="url(#clip542)" style="stroke:#000000; stroke-linecap:round; stroke-linejoin:round; stroke-width:4; stroke-opacity:0.3; fill:none" points="1731.5,686.865 1731.5,243.682 2236.67,243.682 2236.67,686.865 1731.5,686.865 "/>
<path clip-path="url(#clip542)" d="M989.685 243.997 L989.685 243.682 L1494.85 243.682 L1494.85 243.997 L989.685 243.997 L989.685 243.997  Z" fill="#808080" fill-rule="evenodd" fill-opacity="0.3"/>
<polyline clip-path="url(#clip542)" style="stroke:#000000; stroke-linecap:round; stroke-linejoin:round; stroke-width:4; stroke-opacity:0.3; fill:none" points="989.685,243.997 989.685,243.682 1494.85,243.682 1494.85,243.997 989.685,243.997 "/>
<path clip-path="url(#clip542)" d="M358.223 243.973 L358.223 243.682 L863.392 243.682 L863.392 243.973 L358.223 243.973 L358.223 243.973  Z" fill="#808080" fill-rule="evenodd" fill-opacity="0.3"/>
<polyline clip-path="url(#clip542)" style="stroke:#000000; stroke-linecap:round; stroke-linejoin:round; stroke-width:4; stroke-opacity:0.3; fill:none" points="358.223,243.973 358.223,243.682 863.392,243.682 863.392,243.973 358.223,243.973 "/>
<circle clip-path="url(#clip542)" style="fill:#808080; stroke:none; fill-opacity:0" cx="1984.08" cy="686.865" r="2"/>
<circle clip-path="url(#clip542)" style="fill:#808080; stroke:none; fill-opacity:0" cx="1242.27" cy="243.997" r="2"/>
<circle clip-path="url(#clip542)" style="fill:#808080; stroke:none; fill-opacity:0" cx="610.807" cy="243.973" r="2"/>
<polyline clip-path="url(#clip542)" style="stroke:#000000; stroke-linecap:round; stroke-linejoin:round; stroke-width:4; stroke-opacity:0.3; fill:none" points="1984.08,1250.26 1984.08,123.472 "/>
<polyline clip-path="url(#clip542)" style="stroke:#000000; stroke-linecap:round; stroke-linejoin:round; stroke-width:4; stroke-opacity:0.3; fill:none" points="1242.27,244.033 1242.27,243.96 "/>
<polyline clip-path="url(#clip542)" style="stroke:#000000; stroke-linecap:round; stroke-linejoin:round; stroke-width:4; stroke-opacity:0.3; fill:none" points="610.807,244.013 610.807,243.934 "/>
<line clip-path="url(#clip542)" x1="2000.08" y1="1250.26" x2="1968.08" y2="1250.26" style="stroke:#000000; stroke-width:4; stroke-opacity:0.3"/>
<line clip-path="url(#clip542)" x1="2000.08" y1="123.472" x2="1968.08" y2="123.472" style="stroke:#000000; stroke-width:4; stroke-opacity:0.3"/>
<line clip-path="url(#clip542)" x1="1258.27" y1="244.033" x2="1226.27" y2="244.033" style="stroke:#000000; stroke-width:4; stroke-opacity:0.3"/>
<line clip-path="url(#clip542)" x1="1258.27" y1="243.96" x2="1226.27" y2="243.96" style="stroke:#000000; stroke-width:4; stroke-opacity:0.3"/>
<line clip-path="url(#clip542)" x1="626.807" y1="244.013" x2="594.807" y2="244.013" style="stroke:#000000; stroke-width:4; stroke-opacity:0.3"/>
<line clip-path="url(#clip542)" x1="626.807" y1="243.934" x2="594.807" y2="243.934" style="stroke:#000000; stroke-width:4; stroke-opacity:0.3"/>
<path clip-path="url(#clip540)" d="M1765.76 1441.02 L2282.4 1441.02 L2282.4 1181.82 L1765.76 1181.82  Z" fill="#ffffff" fill-rule="evenodd" fill-opacity="1"/>
<polyline clip-path="url(#clip540)" style="stroke:#000000; stroke-linecap:round; stroke-linejoin:round; stroke-width:4; stroke-opacity:1; fill:none" points="1765.76,1441.02 2282.4,1441.02 2282.4,1181.82 1765.76,1181.82 1765.76,1441.02 "/>
<circle clip-path="url(#clip540)" cx="1859.57" cy="1233.66" r="20.48" fill="#009af9" fill-rule="evenodd" fill-opacity="0.6" stroke="#000000" stroke-opacity="0.6" stroke-width="4.55111"/>
<path clip-path="url(#clip540)" d="M1953.37 1216.38 L1973.23 1216.38 L1973.23 1220.31 L1958.05 1220.31 L1958.05 1230.5 L1971.75 1230.5 L1971.75 1234.43 L1958.05 1234.43 L1958.05 1250.94 L1953.37 1250.94 L1953.37 1216.38 Z" fill="#000000" fill-rule="nonzero" fill-opacity="1" /><path clip-path="url(#clip540)" d="M1977.42 1240.7 L1977.42 1225.01 L1981.68 1225.01 L1981.68 1240.54 Q1981.68 1244.22 1983.12 1246.07 Q1984.55 1247.9 1987.42 1247.9 Q1990.87 1247.9 1992.86 1245.7 Q1994.88 1243.5 1994.88 1239.71 L1994.88 1225.01 L1999.14 1225.01 L1999.14 1250.94 L1994.88 1250.94 L1994.88 1246.95 Q1993.33 1249.31 1991.27 1250.47 Q1989.23 1251.61 1986.52 1251.61 Q1982.05 1251.61 1979.74 1248.83 Q1977.42 1246.05 1977.42 1240.7 M1988.14 1224.38 L1988.14 1224.38 Z" fill="#000000" fill-rule="nonzero" fill-opacity="1" /><path clip-path="url(#clip540)" d="M2007.91 1214.92 L2012.17 1214.92 L2012.17 1250.94 L2007.91 1250.94 L2007.91 1214.92 Z" fill="#000000" fill-rule="nonzero" fill-opacity="1" /><path clip-path="url(#clip540)" d="M2021.08 1214.92 L2025.34 1214.92 L2025.34 1250.94 L2021.08 1250.94 L2021.08 1214.92 Z" fill="#000000" fill-rule="nonzero" fill-opacity="1" /><path clip-path="url(#clip540)" d="M2065.9 1234.73 Q2067.4 1235.24 2068.81 1236.91 Q2070.25 1238.57 2071.68 1241.49 L2076.43 1250.94 L2071.41 1250.94 L2066.98 1242.07 Q2065.27 1238.6 2063.65 1237.46 Q2062.05 1236.33 2059.28 1236.33 L2054.18 1236.33 L2054.18 1250.94 L2049.51 1250.94 L2049.51 1216.38 L2060.06 1216.38 Q2065.99 1216.38 2068.91 1218.85 Q2071.82 1221.33 2071.82 1226.33 Q2071.82 1229.59 2070.29 1231.75 Q2068.79 1233.9 2065.9 1234.73 M2054.18 1220.22 L2054.18 1232.49 L2060.06 1232.49 Q2063.44 1232.49 2065.16 1230.94 Q2066.89 1229.36 2066.89 1226.33 Q2066.89 1223.3 2065.16 1221.77 Q2063.44 1220.22 2060.06 1220.22 L2054.18 1220.22 Z" fill="#000000" fill-rule="nonzero" fill-opacity="1" /><path clip-path="url(#clip540)" d="M2102.31 1236.91 L2102.31 1238.99 L2082.72 1238.99 Q2083 1243.39 2085.36 1245.7 Q2087.75 1248 2091.98 1248 Q2094.44 1248 2096.73 1247.39 Q2099.04 1246.79 2101.31 1245.59 L2101.31 1249.62 Q2099.02 1250.59 2096.61 1251.1 Q2094.21 1251.61 2091.73 1251.61 Q2085.53 1251.61 2081.89 1248 Q2078.28 1244.38 2078.28 1238.23 Q2078.28 1231.86 2081.71 1228.13 Q2085.16 1224.38 2090.99 1224.38 Q2096.22 1224.38 2099.25 1227.76 Q2102.31 1231.12 2102.31 1236.91 M2098.05 1235.66 Q2098 1232.16 2096.08 1230.08 Q2094.18 1228 2091.03 1228 Q2087.47 1228 2085.32 1230.01 Q2083.19 1232.02 2082.86 1235.68 L2098.05 1235.66 Z" fill="#000000" fill-rule="nonzero" fill-opacity="1" /><path clip-path="url(#clip540)" d="M2122.42 1214.92 L2122.42 1218.46 L2118.35 1218.46 Q2116.06 1218.46 2115.15 1219.38 Q2114.28 1220.31 2114.28 1222.72 L2114.28 1225.01 L2121.29 1225.01 L2121.29 1228.32 L2114.28 1228.32 L2114.28 1250.94 L2109.99 1250.94 L2109.99 1228.32 L2105.92 1228.32 L2105.92 1225.01 L2109.99 1225.01 L2109.99 1223.2 Q2109.99 1218.88 2112.01 1216.91 Q2114.02 1214.92 2118.4 1214.92 L2122.42 1214.92 Z" fill="#000000" fill-rule="nonzero" fill-opacity="1" /><path clip-path="url(#clip540)" d="M2125.99 1214.92 L2130.25 1214.92 L2130.25 1250.94 L2125.99 1250.94 L2125.99 1214.92 Z" fill="#000000" fill-rule="nonzero" fill-opacity="1" /><path clip-path="url(#clip540)" d="M2161.34 1236.91 L2161.34 1238.99 L2141.75 1238.99 Q2142.03 1243.39 2144.39 1245.7 Q2146.78 1248 2151.01 1248 Q2153.46 1248 2155.76 1247.39 Q2158.07 1246.79 2160.34 1245.59 L2160.34 1249.62 Q2158.05 1250.59 2155.64 1251.1 Q2153.23 1251.61 2150.76 1251.61 Q2144.55 1251.61 2140.92 1248 Q2137.31 1244.38 2137.31 1238.23 Q2137.31 1231.86 2140.73 1228.13 Q2144.18 1224.38 2150.02 1224.38 Q2155.25 1224.38 2158.28 1227.76 Q2161.34 1231.12 2161.34 1236.91 M2157.08 1235.66 Q2157.03 1232.16 2155.11 1230.08 Q2153.21 1228 2150.06 1228 Q2146.5 1228 2144.34 1230.01 Q2142.22 1232.02 2141.89 1235.68 L2157.08 1235.66 Z" fill="#000000" fill-rule="nonzero" fill-opacity="1" /><path clip-path="url(#clip540)" d="M2189.04 1225.01 L2179.67 1237.63 L2189.53 1250.94 L2184.51 1250.94 L2176.96 1240.75 L2169.41 1250.94 L2164.39 1250.94 L2174.46 1237.37 L2165.25 1225.01 L2170.27 1225.01 L2177.15 1234.25 L2184.02 1225.01 L2189.04 1225.01 Z" fill="#000000" fill-rule="nonzero" fill-opacity="1" /><path clip-path="url(#clip540)" d="M2195.55 1225.01 L2199.81 1225.01 L2199.81 1250.94 L2195.55 1250.94 L2195.55 1225.01 M2195.55 1214.92 L2199.81 1214.92 L2199.81 1220.31 L2195.55 1220.31 L2195.55 1214.92 Z" fill="#000000" fill-rule="nonzero" fill-opacity="1" /><path clip-path="url(#clip540)" d="M2205.66 1225.01 L2210.18 1225.01 L2218.28 1246.77 L2226.38 1225.01 L2230.9 1225.01 L2221.17 1250.94 L2215.39 1250.94 L2205.66 1225.01 Z" fill="#000000" fill-rule="nonzero" fill-opacity="1" /><path clip-path="url(#clip540)" d="M2258.95 1236.91 L2258.95 1238.99 L2239.37 1238.99 Q2239.65 1243.39 2242.01 1245.7 Q2244.39 1248 2248.63 1248 Q2251.08 1248 2253.37 1247.39 Q2255.69 1246.79 2257.96 1245.59 L2257.96 1249.62 Q2255.66 1250.59 2253.26 1251.1 Q2250.85 1251.61 2248.37 1251.61 Q2242.17 1251.61 2238.53 1248 Q2234.92 1244.38 2234.92 1238.23 Q2234.92 1231.86 2238.35 1228.13 Q2241.8 1224.38 2247.63 1224.38 Q2252.86 1224.38 2255.89 1227.76 Q2258.95 1231.12 2258.95 1236.91 M2254.69 1235.66 Q2254.64 1232.16 2252.72 1230.08 Q2250.83 1228 2247.68 1228 Q2244.11 1228 2241.96 1230.01 Q2239.83 1232.02 2239.51 1235.68 L2254.69 1235.66 Z" fill="#000000" fill-rule="nonzero" fill-opacity="1" /><circle clip-path="url(#clip540)" cx="1859.57" cy="1285.5" r="20.48" fill="#e26f46" fill-rule="evenodd" fill-opacity="0.6" stroke="#000000" stroke-opacity="0.6" stroke-width="4.55111"/>
<path clip-path="url(#clip540)" d="M1969.39 1271.39 Q1964.3 1271.39 1961.29 1275.18 Q1958.3 1278.98 1958.3 1285.53 Q1958.3 1292.06 1961.29 1295.85 Q1964.3 1299.65 1969.39 1299.65 Q1974.48 1299.65 1977.45 1295.85 Q1980.43 1292.06 1980.43 1285.53 Q1980.43 1278.98 1977.45 1275.18 Q1974.48 1271.39 1969.39 1271.39 M1969.39 1267.59 Q1976.66 1267.59 1981.01 1272.47 Q1985.36 1277.34 1985.36 1285.53 Q1985.36 1293.7 1981.01 1298.59 Q1976.66 1303.45 1969.39 1303.45 Q1962.1 1303.45 1957.73 1298.59 Q1953.37 1293.72 1953.37 1285.53 Q1953.37 1277.34 1957.73 1272.47 Q1962.1 1267.59 1969.39 1267.59 Z" fill="#000000" fill-rule="nonzero" fill-opacity="1" /><path clip-path="url(#clip540)" d="M2007.52 1280.83 Q2006.8 1280.41 2005.94 1280.23 Q2005.11 1280.02 2004.09 1280.02 Q2000.48 1280.02 1998.54 1282.38 Q1996.61 1284.72 1996.61 1289.12 L1996.61 1302.78 L1992.33 1302.78 L1992.33 1276.85 L1996.61 1276.85 L1996.61 1280.88 Q1997.96 1278.52 2000.11 1277.38 Q2002.26 1276.22 2005.34 1276.22 Q2005.78 1276.22 2006.31 1276.29 Q2006.85 1276.34 2007.49 1276.46 L2007.52 1280.83 Z" fill="#000000" fill-rule="nonzero" fill-opacity="1" /><path clip-path="url(#clip540)" d="M2023.77 1289.74 Q2018.6 1289.74 2016.61 1290.92 Q2014.62 1292.1 2014.62 1294.95 Q2014.62 1297.22 2016.1 1298.56 Q2017.61 1299.88 2020.18 1299.88 Q2023.72 1299.88 2025.85 1297.38 Q2028 1294.86 2028 1290.69 L2028 1289.74 L2023.77 1289.74 M2032.26 1287.98 L2032.26 1302.78 L2028 1302.78 L2028 1298.84 Q2026.54 1301.2 2024.37 1302.34 Q2022.19 1303.45 2019.04 1303.45 Q2015.06 1303.45 2012.7 1301.22 Q2010.36 1298.98 2010.36 1295.23 Q2010.36 1290.85 2013.28 1288.63 Q2016.22 1286.41 2022.03 1286.41 L2028 1286.41 L2028 1285.99 Q2028 1283.05 2026.06 1281.46 Q2024.14 1279.84 2020.64 1279.84 Q2018.42 1279.84 2016.31 1280.37 Q2014.21 1280.9 2012.26 1281.97 L2012.26 1278.03 Q2014.6 1277.13 2016.8 1276.69 Q2019 1276.22 2021.08 1276.22 Q2026.71 1276.22 2029.48 1279.14 Q2032.26 1282.06 2032.26 1287.98 Z" fill="#000000" fill-rule="nonzero" fill-opacity="1" /><path clip-path="url(#clip540)" d="M2059.69 1277.84 L2059.69 1281.83 Q2057.89 1280.83 2056.06 1280.34 Q2054.25 1279.84 2052.4 1279.84 Q2048.26 1279.84 2045.97 1282.47 Q2043.67 1285.09 2043.67 1289.84 Q2043.67 1294.58 2045.97 1297.22 Q2048.26 1299.84 2052.4 1299.84 Q2054.25 1299.84 2056.06 1299.35 Q2057.89 1298.84 2059.69 1297.84 L2059.69 1301.78 Q2057.91 1302.61 2055.99 1303.03 Q2054.09 1303.45 2051.94 1303.45 Q2046.08 1303.45 2042.63 1299.77 Q2039.18 1296.09 2039.18 1289.84 Q2039.18 1283.49 2042.66 1279.86 Q2046.15 1276.22 2052.22 1276.22 Q2054.18 1276.22 2056.06 1276.64 Q2057.93 1277.03 2059.69 1277.84 Z" fill="#000000" fill-rule="nonzero" fill-opacity="1" /><path clip-path="url(#clip540)" d="M2067.1 1266.76 L2071.36 1266.76 L2071.36 1302.78 L2067.1 1302.78 L2067.1 1266.76 Z" fill="#000000" fill-rule="nonzero" fill-opacity="1" /><path clip-path="url(#clip540)" d="M2102.45 1288.75 L2102.45 1290.83 L2082.86 1290.83 Q2083.14 1295.23 2085.5 1297.54 Q2087.89 1299.84 2092.12 1299.84 Q2094.58 1299.84 2096.87 1299.23 Q2099.18 1298.63 2101.45 1297.43 L2101.45 1301.46 Q2099.16 1302.43 2096.75 1302.94 Q2094.34 1303.45 2091.87 1303.45 Q2085.66 1303.45 2082.03 1299.84 Q2078.42 1296.22 2078.42 1290.07 Q2078.42 1283.7 2081.84 1279.97 Q2085.29 1276.22 2091.13 1276.22 Q2096.36 1276.22 2099.39 1279.6 Q2102.45 1282.96 2102.45 1288.75 M2098.19 1287.5 Q2098.14 1284 2096.22 1281.92 Q2094.32 1279.84 2091.17 1279.84 Q2087.61 1279.84 2085.46 1281.85 Q2083.33 1283.86 2083 1287.52 L2098.19 1287.5 Z" fill="#000000" fill-rule="nonzero" fill-opacity="1" /><path clip-path="url(#clip540)" d="M2138.72 1271.39 Q2133.63 1271.39 2130.62 1275.18 Q2127.63 1278.98 2127.63 1285.53 Q2127.63 1292.06 2130.62 1295.85 Q2133.63 1299.65 2138.72 1299.65 Q2143.81 1299.65 2146.78 1295.85 Q2149.76 1292.06 2149.76 1285.53 Q2149.76 1278.98 2146.78 1275.18 Q2143.81 1271.39 2138.72 1271.39 M2138.72 1267.59 Q2145.99 1267.59 2150.34 1272.47 Q2154.69 1277.34 2154.69 1285.53 Q2154.69 1293.7 2150.34 1298.59 Q2145.99 1303.45 2138.72 1303.45 Q2131.43 1303.45 2127.05 1298.59 Q2122.7 1293.72 2122.7 1285.53 Q2122.7 1277.34 2127.05 1272.47 Q2131.43 1267.59 2138.72 1267.59 Z" fill="#000000" fill-rule="nonzero" fill-opacity="1" /><path clip-path="url(#clip540)" d="M2183.37 1287.13 L2183.37 1302.78 L2179.11 1302.78 L2179.11 1287.27 Q2179.11 1283.59 2177.68 1281.76 Q2176.24 1279.93 2173.37 1279.93 Q2169.92 1279.93 2167.93 1282.13 Q2165.94 1284.33 2165.94 1288.12 L2165.94 1302.78 L2161.66 1302.78 L2161.66 1276.85 L2165.94 1276.85 L2165.94 1280.88 Q2167.47 1278.54 2169.53 1277.38 Q2171.61 1276.22 2174.32 1276.22 Q2178.79 1276.22 2181.08 1279 Q2183.37 1281.76 2183.37 1287.13 Z" fill="#000000" fill-rule="nonzero" fill-opacity="1" /><path clip-path="url(#clip540)" d="M2191.87 1266.76 L2196.13 1266.76 L2196.13 1302.78 L2191.87 1302.78 L2191.87 1266.76 Z" fill="#000000" fill-rule="nonzero" fill-opacity="1" /><path clip-path="url(#clip540)" d="M2215.83 1305.18 Q2214.02 1309.81 2212.31 1311.22 Q2210.59 1312.64 2207.72 1312.64 L2204.32 1312.64 L2204.32 1309.07 L2206.82 1309.07 Q2208.58 1309.07 2209.55 1308.24 Q2210.52 1307.4 2211.71 1304.3 L2212.47 1302.36 L2201.98 1276.85 L2206.5 1276.85 L2214.6 1297.13 L2222.7 1276.85 L2227.21 1276.85 L2215.83 1305.18 Z" fill="#000000" fill-rule="nonzero" fill-opacity="1" /><circle clip-path="url(#clip540)" cx="1859.57" cy="1337.34" r="20.48" fill="#3da44d" fill-rule="evenodd" fill-opacity="0.6" stroke="#000000" stroke-opacity="0.6" stroke-width="4.55111"/>
<path clip-path="url(#clip540)" d="M1975.62 1321.19 L1975.62 1325.75 Q1972.96 1324.48 1970.6 1323.85 Q1968.23 1323.23 1966.04 1323.23 Q1962.22 1323.23 1960.13 1324.71 Q1958.07 1326.19 1958.07 1328.92 Q1958.07 1331.21 1959.44 1332.39 Q1960.83 1333.55 1964.67 1334.27 L1967.49 1334.85 Q1972.73 1335.84 1975.2 1338.37 Q1977.7 1340.87 1977.7 1345.08 Q1977.7 1350.1 1974.32 1352.69 Q1970.97 1355.29 1964.46 1355.29 Q1962.01 1355.29 1959.23 1354.73 Q1956.48 1354.18 1953.51 1353.09 L1953.51 1348.27 Q1956.36 1349.87 1959.09 1350.68 Q1961.82 1351.49 1964.46 1351.49 Q1968.47 1351.49 1970.64 1349.92 Q1972.82 1348.34 1972.82 1345.43 Q1972.82 1342.88 1971.24 1341.44 Q1969.69 1340.01 1966.13 1339.29 L1963.28 1338.74 Q1958.05 1337.69 1955.71 1335.47 Q1953.37 1333.25 1953.37 1329.29 Q1953.37 1324.71 1956.59 1322.07 Q1959.83 1319.43 1965.5 1319.43 Q1967.93 1319.43 1970.46 1319.87 Q1972.98 1320.31 1975.62 1321.19 Z" fill="#000000" fill-rule="nonzero" fill-opacity="1" /><path clip-path="url(#clip540)" d="M1989.02 1321.33 L1989.02 1328.69 L1997.79 1328.69 L1997.79 1332 L1989.02 1332 L1989.02 1346.07 Q1989.02 1349.25 1989.88 1350.15 Q1990.76 1351.05 1993.42 1351.05 L1997.79 1351.05 L1997.79 1354.62 L1993.42 1354.62 Q1988.49 1354.62 1986.61 1352.79 Q1984.74 1350.93 1984.74 1346.07 L1984.74 1332 L1981.61 1332 L1981.61 1328.69 L1984.74 1328.69 L1984.74 1321.33 L1989.02 1321.33 Z" fill="#000000" fill-rule="nonzero" fill-opacity="1" /><path clip-path="url(#clip540)" d="M2015.18 1341.58 Q2010.02 1341.58 2008.03 1342.76 Q2006.04 1343.94 2006.04 1346.79 Q2006.04 1349.06 2007.52 1350.4 Q2009.02 1351.72 2011.59 1351.72 Q2015.13 1351.72 2017.26 1349.22 Q2019.41 1346.7 2019.41 1342.53 L2019.41 1341.58 L2015.18 1341.58 M2023.67 1339.82 L2023.67 1354.62 L2019.41 1354.62 L2019.41 1350.68 Q2017.96 1353.04 2015.78 1354.18 Q2013.6 1355.29 2010.46 1355.29 Q2006.48 1355.29 2004.11 1353.06 Q2001.78 1350.82 2001.78 1347.07 Q2001.78 1342.69 2004.69 1340.47 Q2007.63 1338.25 2013.44 1338.25 L2019.41 1338.25 L2019.41 1337.83 Q2019.41 1334.89 2017.47 1333.3 Q2015.55 1331.68 2012.05 1331.68 Q2009.83 1331.68 2007.73 1332.21 Q2005.62 1332.74 2003.67 1333.81 L2003.67 1329.87 Q2006.01 1328.97 2008.21 1328.53 Q2010.41 1328.06 2012.49 1328.06 Q2018.12 1328.06 2020.9 1330.98 Q2023.67 1333.9 2023.67 1339.82 Z" fill="#000000" fill-rule="nonzero" fill-opacity="1" /><path clip-path="url(#clip540)" d="M2054 1338.97 L2054 1354.62 L2049.74 1354.62 L2049.74 1339.11 Q2049.74 1335.43 2048.3 1333.6 Q2046.87 1331.77 2044 1331.77 Q2040.55 1331.77 2038.56 1333.97 Q2036.57 1336.17 2036.57 1339.96 L2036.57 1354.62 L2032.29 1354.62 L2032.29 1328.69 L2036.57 1328.69 L2036.57 1332.72 Q2038.1 1330.38 2040.16 1329.22 Q2042.24 1328.06 2044.95 1328.06 Q2049.41 1328.06 2051.71 1330.84 Q2054 1333.6 2054 1338.97 Z" fill="#000000" fill-rule="nonzero" fill-opacity="1" /><path clip-path="url(#clip540)" d="M2079.55 1332.62 L2079.55 1318.6 L2083.81 1318.6 L2083.81 1354.62 L2079.55 1354.62 L2079.55 1350.73 Q2078.21 1353.04 2076.15 1354.18 Q2074.11 1355.29 2071.24 1355.29 Q2066.54 1355.29 2063.58 1351.54 Q2060.64 1347.79 2060.64 1341.68 Q2060.64 1335.56 2063.58 1331.81 Q2066.54 1328.06 2071.24 1328.06 Q2074.11 1328.06 2076.15 1329.2 Q2078.21 1330.31 2079.55 1332.62 M2065.04 1341.68 Q2065.04 1346.37 2066.96 1349.06 Q2068.91 1351.72 2072.28 1351.72 Q2075.66 1351.72 2077.61 1349.06 Q2079.55 1346.37 2079.55 1341.68 Q2079.55 1336.98 2077.61 1334.31 Q2075.66 1331.63 2072.28 1331.63 Q2068.91 1331.63 2066.96 1334.31 Q2065.04 1336.98 2065.04 1341.68 Z" fill="#000000" fill-rule="nonzero" fill-opacity="1" /><path clip-path="url(#clip540)" d="M2104.37 1341.58 Q2099.21 1341.58 2097.22 1342.76 Q2095.22 1343.94 2095.22 1346.79 Q2095.22 1349.06 2096.71 1350.4 Q2098.21 1351.72 2100.78 1351.72 Q2104.32 1351.72 2106.45 1349.22 Q2108.6 1346.7 2108.6 1342.53 L2108.6 1341.58 L2104.37 1341.58 M2112.86 1339.82 L2112.86 1354.62 L2108.6 1354.62 L2108.6 1350.68 Q2107.15 1353.04 2104.97 1354.18 Q2102.79 1355.29 2099.65 1355.29 Q2095.66 1355.29 2093.3 1353.06 Q2090.97 1350.82 2090.97 1347.07 Q2090.97 1342.69 2093.88 1340.47 Q2096.82 1338.25 2102.63 1338.25 L2108.6 1338.25 L2108.6 1337.83 Q2108.6 1334.89 2106.66 1333.3 Q2104.74 1331.68 2101.24 1331.68 Q2099.02 1331.68 2096.91 1332.21 Q2094.81 1332.74 2092.86 1333.81 L2092.86 1329.87 Q2095.2 1328.97 2097.4 1328.53 Q2099.6 1328.06 2101.68 1328.06 Q2107.31 1328.06 2110.09 1330.98 Q2112.86 1333.9 2112.86 1339.82 Z" fill="#000000" fill-rule="nonzero" fill-opacity="1" /><path clip-path="url(#clip540)" d="M2136.66 1332.67 Q2135.94 1332.25 2135.09 1332.07 Q2134.25 1331.86 2133.23 1331.86 Q2129.62 1331.86 2127.68 1334.22 Q2125.76 1336.56 2125.76 1340.96 L2125.76 1354.62 L2121.47 1354.62 L2121.47 1328.69 L2125.76 1328.69 L2125.76 1332.72 Q2127.1 1330.36 2129.25 1329.22 Q2131.4 1328.06 2134.48 1328.06 Q2134.92 1328.06 2135.46 1328.13 Q2135.99 1328.18 2136.64 1328.3 L2136.66 1332.67 Z" fill="#000000" fill-rule="nonzero" fill-opacity="1" /><path clip-path="url(#clip540)" d="M2157.35 1332.62 L2157.35 1318.6 L2161.61 1318.6 L2161.61 1354.62 L2157.35 1354.62 L2157.35 1350.73 Q2156.01 1353.04 2153.95 1354.18 Q2151.91 1355.29 2149.04 1355.29 Q2144.34 1355.29 2141.38 1351.54 Q2138.44 1347.79 2138.44 1341.68 Q2138.44 1335.56 2141.38 1331.81 Q2144.34 1328.06 2149.04 1328.06 Q2151.91 1328.06 2153.95 1329.2 Q2156.01 1330.31 2157.35 1332.62 M2142.84 1341.68 Q2142.84 1346.37 2144.76 1349.06 Q2146.71 1351.72 2150.09 1351.72 Q2153.46 1351.72 2155.41 1349.06 Q2157.35 1346.37 2157.35 1341.68 Q2157.35 1336.98 2155.41 1334.31 Q2153.46 1331.63 2150.09 1331.63 Q2146.71 1331.63 2144.76 1334.31 Q2142.84 1336.98 2142.84 1341.68 Z" fill="#000000" fill-rule="nonzero" fill-opacity="1" /><path clip-path="url(#clip540)" d="M2202.03 1338.41 Q2203.53 1338.92 2204.95 1340.59 Q2206.38 1342.25 2207.82 1345.17 L2212.56 1354.62 L2207.54 1354.62 L2203.12 1345.75 Q2201.4 1342.28 2199.78 1341.14 Q2198.19 1340.01 2195.41 1340.01 L2190.32 1340.01 L2190.32 1354.62 L2185.64 1354.62 L2185.64 1320.06 L2196.2 1320.06 Q2202.12 1320.06 2205.04 1322.53 Q2207.96 1325.01 2207.96 1330.01 Q2207.96 1333.27 2206.43 1335.43 Q2204.92 1337.58 2202.03 1338.41 M2190.32 1323.9 L2190.32 1336.17 L2196.2 1336.17 Q2199.58 1336.17 2201.29 1334.62 Q2203.02 1333.04 2203.02 1330.01 Q2203.02 1326.98 2201.29 1325.45 Q2199.58 1323.9 2196.2 1323.9 L2190.32 1323.9 Z" fill="#000000" fill-rule="nonzero" fill-opacity="1" /><path clip-path="url(#clip540)" d="M2218.58 1320.06 L2223.26 1320.06 L2223.26 1350.68 L2240.08 1350.68 L2240.08 1354.62 L2218.58 1354.62 L2218.58 1320.06 Z" fill="#000000" fill-rule="nonzero" fill-opacity="1" /><path clip-path="url(#clip540)" d="M1789.21 1409.91 L1929.92 1409.91 L1929.92 1368.44 L1789.21 1368.44 L1789.21 1409.91  Z" fill="#808080" fill-rule="evenodd" fill-opacity="0.3"/>
<polyline clip-path="url(#clip540)" style="stroke:#000000; stroke-linecap:round; stroke-linejoin:round; stroke-width:4; stroke-opacity:1; fill:none" points="1789.21,1409.91 1929.92,1409.91 1929.92,1368.44 1789.21,1368.44 1789.21,1409.91 "/>
<path clip-path="url(#clip540)" d="M1953.37 1371.9 L1960.34 1371.9 L1969.16 1395.41 L1978.03 1371.9 L1984.99 1371.9 L1984.99 1406.46 L1980.43 1406.46 L1980.43 1376.11 L1971.52 1399.81 L1966.82 1399.81 L1957.91 1376.11 L1957.91 1406.46 L1953.37 1406.46 L1953.37 1371.9 Z" fill="#000000" fill-rule="nonzero" fill-opacity="1" /><path clip-path="url(#clip540)" d="M2016.27 1392.43 L2016.27 1394.51 L1996.68 1394.51 Q1996.96 1398.91 1999.32 1401.22 Q2001.71 1403.52 2005.94 1403.52 Q2008.4 1403.52 2010.69 1402.91 Q2013 1402.31 2015.27 1401.11 L2015.27 1405.14 Q2012.98 1406.11 2010.57 1406.62 Q2008.16 1407.13 2005.69 1407.13 Q1999.48 1407.13 1995.85 1403.52 Q1992.24 1399.9 1992.24 1393.75 Q1992.24 1387.38 1995.66 1383.65 Q1999.11 1379.9 2004.95 1379.9 Q2010.18 1379.9 2013.21 1383.28 Q2016.27 1386.64 2016.27 1392.43 M2012.01 1391.18 Q2011.96 1387.68 2010.04 1385.6 Q2008.14 1383.52 2004.99 1383.52 Q2001.43 1383.52 1999.28 1385.53 Q1997.15 1387.54 1996.82 1391.2 L2012.01 1391.18 Z" fill="#000000" fill-rule="nonzero" fill-opacity="1" /><path clip-path="url(#clip540)" d="M2035.04 1393.42 Q2029.88 1393.42 2027.89 1394.6 Q2025.9 1395.78 2025.9 1398.63 Q2025.9 1400.9 2027.38 1402.24 Q2028.88 1403.56 2031.45 1403.56 Q2034.99 1403.56 2037.12 1401.06 Q2039.28 1398.54 2039.28 1394.37 L2039.28 1393.42 L2035.04 1393.42 M2043.54 1391.66 L2043.54 1406.46 L2039.28 1406.46 L2039.28 1402.52 Q2037.82 1404.88 2035.64 1406.02 Q2033.47 1407.13 2030.32 1407.13 Q2026.34 1407.13 2023.97 1404.9 Q2021.64 1402.66 2021.64 1398.91 Q2021.64 1394.53 2024.55 1392.31 Q2027.49 1390.09 2033.3 1390.09 L2039.28 1390.09 L2039.28 1389.67 Q2039.28 1386.73 2037.33 1385.14 Q2035.41 1383.52 2031.91 1383.52 Q2029.69 1383.52 2027.59 1384.05 Q2025.48 1384.58 2023.54 1385.65 L2023.54 1381.71 Q2025.87 1380.81 2028.07 1380.37 Q2030.27 1379.9 2032.35 1379.9 Q2037.98 1379.9 2040.76 1382.82 Q2043.54 1385.74 2043.54 1391.66 Z" fill="#000000" fill-rule="nonzero" fill-opacity="1" /><path clip-path="url(#clip540)" d="M2073.86 1390.81 L2073.86 1406.46 L2069.6 1406.46 L2069.6 1390.95 Q2069.6 1387.27 2068.16 1385.44 Q2066.73 1383.61 2063.86 1383.61 Q2060.41 1383.61 2058.42 1385.81 Q2056.43 1388.01 2056.43 1391.8 L2056.43 1406.46 L2052.15 1406.46 L2052.15 1380.53 L2056.43 1380.53 L2056.43 1384.56 Q2057.96 1382.22 2060.02 1381.06 Q2062.1 1379.9 2064.81 1379.9 Q2069.28 1379.9 2071.57 1382.68 Q2073.86 1385.44 2073.86 1390.81 Z" fill="#000000" fill-rule="nonzero" fill-opacity="1" /><path clip-path="url(#clip540)" d="M2114.76 1376.73 L2114.76 1385.69 L2127.65 1385.69 L2127.65 1389.63 L2114.76 1389.63 L2114.76 1398.59 L2110.87 1398.59 L2110.87 1389.63 L2097.98 1389.63 L2097.98 1385.69 L2110.87 1385.69 L2110.87 1376.73 L2114.76 1376.73 M2097.98 1402.52 L2127.65 1402.52 L2127.65 1406.46 L2097.98 1406.46 L2097.98 1402.52 Z" fill="#000000" fill-rule="nonzero" fill-opacity="1" /><path clip-path="url(#clip540)" d="M2173.12 1373.03 L2173.12 1377.59 Q2170.46 1376.32 2168.09 1375.69 Q2165.73 1375.07 2163.53 1375.07 Q2159.71 1375.07 2157.63 1376.55 Q2155.57 1378.03 2155.57 1380.76 Q2155.57 1383.05 2156.94 1384.23 Q2158.33 1385.39 2162.17 1386.11 L2164.99 1386.69 Q2170.22 1387.68 2172.7 1390.21 Q2175.2 1392.71 2175.2 1396.92 Q2175.2 1401.94 2171.82 1404.53 Q2168.46 1407.13 2161.96 1407.13 Q2159.51 1407.13 2156.73 1406.57 Q2153.97 1406.02 2151.01 1404.93 L2151.01 1400.11 Q2153.86 1401.71 2156.59 1402.52 Q2159.32 1403.33 2161.96 1403.33 Q2165.96 1403.33 2168.14 1401.76 Q2170.32 1400.18 2170.32 1397.27 Q2170.32 1394.72 2168.74 1393.28 Q2167.19 1391.85 2163.63 1391.13 L2160.78 1390.58 Q2155.55 1389.53 2153.21 1387.31 Q2150.87 1385.09 2150.87 1381.13 Q2150.87 1376.55 2154.09 1373.91 Q2157.33 1371.27 2163 1371.27 Q2165.43 1371.27 2167.96 1371.71 Q2170.48 1372.15 2173.12 1373.03 Z" fill="#000000" fill-rule="nonzero" fill-opacity="1" /><path clip-path="url(#clip540)" d="M2186.52 1373.17 L2186.52 1380.53 L2195.29 1380.53 L2195.29 1383.84 L2186.52 1383.84 L2186.52 1397.91 Q2186.52 1401.09 2187.38 1401.99 Q2188.26 1402.89 2190.92 1402.89 L2195.29 1402.89 L2195.29 1406.46 L2190.92 1406.46 Q2185.99 1406.46 2184.11 1404.63 Q2182.24 1402.77 2182.24 1397.91 L2182.24 1383.84 L2179.11 1383.84 L2179.11 1380.53 L2182.24 1380.53 L2182.24 1373.17 L2186.52 1373.17 Z" fill="#000000" fill-rule="nonzero" fill-opacity="1" /><path clip-path="url(#clip540)" d="M2217.96 1384.46 L2217.96 1370.44 L2222.21 1370.44 L2222.21 1406.46 L2217.96 1406.46 L2217.96 1402.57 Q2216.61 1404.88 2214.55 1406.02 Q2212.52 1407.13 2209.65 1407.13 Q2204.95 1407.13 2201.98 1403.38 Q2199.04 1399.63 2199.04 1393.52 Q2199.04 1387.4 2201.98 1383.65 Q2204.95 1379.9 2209.65 1379.9 Q2212.52 1379.9 2214.55 1381.04 Q2216.61 1382.15 2217.96 1384.46 M2203.44 1393.52 Q2203.44 1398.21 2205.36 1400.9 Q2207.31 1403.56 2210.69 1403.56 Q2214.07 1403.56 2216.01 1400.9 Q2217.96 1398.21 2217.96 1393.52 Q2217.96 1388.82 2216.01 1386.15 Q2214.07 1383.47 2210.69 1383.47 Q2207.31 1383.47 2205.36 1386.15 Q2203.44 1388.82 2203.44 1393.52 Z" fill="#000000" fill-rule="nonzero" fill-opacity="1" /></svg>
