<?xml version="1.0" encoding="utf-8"?>
<svg xmlns="http://www.w3.org/2000/svg" xmlns:xlink="http://www.w3.org/1999/xlink" width="600" height="400" viewBox="0 0 2400 1600">
<defs>
  <clipPath id="clip570">
    <rect x="0" y="0" width="2400" height="1600"/>
  </clipPath>
</defs>
<path clip-path="url(#clip570)" d="M0 1600 L2400 1600 L2400 8.88178e-14 L0 8.88178e-14  Z" fill="#ffffff" fill-rule="evenodd" fill-opacity="1"/>
<defs>
  <clipPath id="clip571">
    <rect x="242" y="123" width="2112" height="1364"/>
  </clipPath>
</defs>
<path clip-path="url(#clip570)" d="M302.458 1486.45 L2352.76 1486.45 L2352.76 123.472 L302.458 123.472  Z" fill="#ffffff" fill-rule="evenodd" fill-opacity="1"/>
<defs>
  <clipPath id="clip572">
    <rect x="302" y="123" width="2051" height="1364"/>
  </clipPath>
</defs>
<polyline clip-path="url(#clip572)" style="stroke:#000000; stroke-linecap:round; stroke-linejoin:round; stroke-width:2; stroke-opacity:0.1; fill:none" points="670.581,1486.45 670.581,123.472 "/>
<polyline clip-path="url(#clip572)" style="stroke:#000000; stroke-linecap:round; stroke-linejoin:round; stroke-width:2; stroke-opacity:0.1; fill:none" points="1308.96,1486.45 1308.96,123.472 "/>
<polyline clip-path="url(#clip572)" style="stroke:#000000; stroke-linecap:round; stroke-linejoin:round; stroke-width:2; stroke-opacity:0.1; fill:none" points="1984.63,1486.45 1984.63,123.472 "/>
<polyline clip-path="url(#clip572)" style="stroke:#000000; stroke-linecap:round; stroke-linejoin:round; stroke-width:2; stroke-opacity:0.1; fill:none" points="302.458,1401.36 2352.76,1401.36 "/>
<polyline clip-path="url(#clip572)" style="stroke:#000000; stroke-linecap:round; stroke-linejoin:round; stroke-width:2; stroke-opacity:0.1; fill:none" points="302.458,1188.38 2352.76,1188.38 "/>
<polyline clip-path="url(#clip572)" style="stroke:#000000; stroke-linecap:round; stroke-linejoin:round; stroke-width:2; stroke-opacity:0.1; fill:none" points="302.458,975.396 2352.76,975.396 "/>
<polyline clip-path="url(#clip572)" style="stroke:#000000; stroke-linecap:round; stroke-linejoin:round; stroke-width:2; stroke-opacity:0.1; fill:none" points="302.458,762.415 2352.76,762.415 "/>
<polyline clip-path="url(#clip572)" style="stroke:#000000; stroke-linecap:round; stroke-linejoin:round; stroke-width:2; stroke-opacity:0.1; fill:none" points="302.458,549.434 2352.76,549.434 "/>
<polyline clip-path="url(#clip572)" style="stroke:#000000; stroke-linecap:round; stroke-linejoin:round; stroke-width:2; stroke-opacity:0.1; fill:none" points="302.458,336.453 2352.76,336.453 "/>
<polyline clip-path="url(#clip572)" style="stroke:#000000; stroke-linecap:round; stroke-linejoin:round; stroke-width:2; stroke-opacity:0.1; fill:none" points="302.458,123.472 2352.76,123.472 "/>
<polyline clip-path="url(#clip570)" style="stroke:#000000; stroke-linecap:round; stroke-linejoin:round; stroke-width:4; stroke-opacity:1; fill:none" points="302.458,1486.45 2352.76,1486.45 "/>
<polyline clip-path="url(#clip570)" style="stroke:#000000; stroke-linecap:round; stroke-linejoin:round; stroke-width:4; stroke-opacity:1; fill:none" points="670.581,1486.45 670.581,1467.55 "/>
<polyline clip-path="url(#clip570)" style="stroke:#000000; stroke-linecap:round; stroke-linejoin:round; stroke-width:4; stroke-opacity:1; fill:none" points="1308.96,1486.45 1308.96,1467.55 "/>
<polyline clip-path="url(#clip570)" style="stroke:#000000; stroke-linecap:round; stroke-linejoin:round; stroke-width:4; stroke-opacity:1; fill:none" points="1984.63,1486.45 1984.63,1467.55 "/>
<path clip-path="url(#clip570)" d="M517.793 1514.29 L537.654 1514.29 L537.654 1518.22 L522.469 1518.22 L522.469 1528.41 L536.172 1528.41 L536.172 1532.34 L522.469 1532.34 L522.469 1548.85 L517.793 1548.85 L517.793 1514.29 Z" fill="#000000" fill-rule="nonzero" fill-opacity="1" /><path clip-path="url(#clip570)" d="M541.844 1538.62 L541.844 1522.92 L546.103 1522.92 L546.103 1538.45 Q546.103 1542.13 547.538 1543.99 Q548.973 1545.82 551.844 1545.82 Q555.293 1545.82 557.283 1543.62 Q559.297 1541.42 559.297 1537.62 L559.297 1522.92 L563.556 1522.92 L563.556 1548.85 L559.297 1548.85 L559.297 1544.87 Q557.746 1547.23 555.686 1548.38 Q553.649 1549.52 550.941 1549.52 Q546.473 1549.52 544.158 1546.74 Q541.844 1543.96 541.844 1538.62 M552.561 1522.3 L552.561 1522.3 Z" fill="#000000" fill-rule="nonzero" fill-opacity="1" /><path clip-path="url(#clip570)" d="M572.33 1512.83 L576.589 1512.83 L576.589 1548.85 L572.33 1548.85 L572.33 1512.83 Z" fill="#000000" fill-rule="nonzero" fill-opacity="1" /><path clip-path="url(#clip570)" d="M585.501 1512.83 L589.76 1512.83 L589.76 1548.85 L585.501 1548.85 L585.501 1512.83 Z" fill="#000000" fill-rule="nonzero" fill-opacity="1" /><path clip-path="url(#clip570)" d="M630.315 1532.64 Q631.82 1533.15 633.232 1534.82 Q634.667 1536.49 636.102 1539.4 L640.848 1548.85 L635.825 1548.85 L631.403 1539.98 Q629.69 1536.51 628.07 1535.38 Q626.473 1534.24 623.695 1534.24 L618.602 1534.24 L618.602 1548.85 L613.927 1548.85 L613.927 1514.29 L624.482 1514.29 Q630.408 1514.29 633.325 1516.76 Q636.241 1519.24 636.241 1524.24 Q636.241 1527.51 634.714 1529.66 Q633.209 1531.81 630.315 1532.64 M618.602 1518.13 L618.602 1530.4 L624.482 1530.4 Q627.862 1530.4 629.575 1528.85 Q631.311 1527.27 631.311 1524.24 Q631.311 1521.21 629.575 1519.68 Q627.862 1518.13 624.482 1518.13 L618.602 1518.13 Z" fill="#000000" fill-rule="nonzero" fill-opacity="1" /><path clip-path="url(#clip570)" d="M666.727 1534.82 L666.727 1536.9 L647.144 1536.9 Q647.422 1541.3 649.783 1543.62 Q652.167 1545.91 656.403 1545.91 Q658.857 1545.91 661.149 1545.31 Q663.463 1544.7 665.732 1543.5 L665.732 1547.53 Q663.44 1548.5 661.033 1549.01 Q658.625 1549.52 656.149 1549.52 Q649.945 1549.52 646.311 1545.91 Q642.7 1542.3 642.7 1536.14 Q642.7 1529.77 646.125 1526.05 Q649.575 1522.3 655.408 1522.3 Q660.639 1522.3 663.672 1525.68 Q666.727 1529.03 666.727 1534.82 M662.468 1533.57 Q662.422 1530.07 660.5 1527.99 Q658.602 1525.91 655.454 1525.91 Q651.889 1525.91 649.737 1527.92 Q647.607 1529.94 647.283 1533.59 L662.468 1533.57 Z" fill="#000000" fill-rule="nonzero" fill-opacity="1" /><path clip-path="url(#clip570)" d="M686.843 1512.83 L686.843 1516.37 L682.769 1516.37 Q680.477 1516.37 679.574 1517.3 Q678.695 1518.22 678.695 1520.63 L678.695 1522.92 L685.709 1522.92 L685.709 1526.23 L678.695 1526.23 L678.695 1548.85 L674.412 1548.85 L674.412 1526.23 L670.338 1526.23 L670.338 1522.92 L674.412 1522.92 L674.412 1521.12 Q674.412 1516.79 676.426 1514.82 Q678.44 1512.83 682.815 1512.83 L686.843 1512.83 Z" fill="#000000" fill-rule="nonzero" fill-opacity="1" /><path clip-path="url(#clip570)" d="M690.408 1512.83 L694.667 1512.83 L694.667 1548.85 L690.408 1548.85 L690.408 1512.83 Z" fill="#000000" fill-rule="nonzero" fill-opacity="1" /><path clip-path="url(#clip570)" d="M725.755 1534.82 L725.755 1536.9 L706.171 1536.9 Q706.449 1541.3 708.81 1543.62 Q711.195 1545.91 715.431 1545.91 Q717.884 1545.91 720.176 1545.31 Q722.491 1544.7 724.759 1543.5 L724.759 1547.53 Q722.468 1548.5 720.06 1549.01 Q717.653 1549.52 715.176 1549.52 Q708.972 1549.52 705.338 1545.91 Q701.727 1542.3 701.727 1536.14 Q701.727 1529.77 705.153 1526.05 Q708.602 1522.3 714.435 1522.3 Q719.667 1522.3 722.699 1525.68 Q725.755 1529.03 725.755 1534.82 M721.495 1533.57 Q721.449 1530.07 719.528 1527.99 Q717.63 1525.91 714.482 1525.91 Q710.917 1525.91 708.764 1527.92 Q706.634 1529.94 706.31 1533.59 L721.495 1533.57 Z" fill="#000000" fill-rule="nonzero" fill-opacity="1" /><path clip-path="url(#clip570)" d="M753.463 1522.92 L744.088 1535.54 L753.949 1548.85 L748.926 1548.85 L741.38 1538.66 L733.833 1548.85 L728.81 1548.85 L738.88 1535.28 L729.667 1522.92 L734.69 1522.92 L741.565 1532.16 L748.44 1522.92 L753.463 1522.92 Z" fill="#000000" fill-rule="nonzero" fill-opacity="1" /><path clip-path="url(#clip570)" d="M759.967 1522.92 L764.227 1522.92 L764.227 1548.85 L759.967 1548.85 L759.967 1522.92 M759.967 1512.83 L764.227 1512.83 L764.227 1518.22 L759.967 1518.22 L759.967 1512.83 Z" fill="#000000" fill-rule="nonzero" fill-opacity="1" /><path clip-path="url(#clip570)" d="M770.083 1522.92 L774.597 1522.92 L782.699 1544.68 L790.801 1522.92 L795.314 1522.92 L785.592 1548.85 L779.805 1548.85 L770.083 1522.92 Z" fill="#000000" fill-rule="nonzero" fill-opacity="1" /><path clip-path="url(#clip570)" d="M823.37 1534.82 L823.37 1536.9 L803.787 1536.9 Q804.064 1541.3 806.426 1543.62 Q808.81 1545.91 813.046 1545.91 Q815.5 1545.91 817.791 1545.31 Q820.106 1544.7 822.375 1543.5 L822.375 1547.53 Q820.083 1548.5 817.675 1549.01 Q815.268 1549.52 812.791 1549.52 Q806.588 1549.52 802.953 1545.91 Q799.342 1542.3 799.342 1536.14 Q799.342 1529.77 802.768 1526.05 Q806.217 1522.3 812.051 1522.3 Q817.282 1522.3 820.314 1525.68 Q823.37 1529.03 823.37 1534.82 M819.111 1533.57 Q819.064 1530.07 817.143 1527.99 Q815.245 1525.91 812.097 1525.91 Q808.532 1525.91 806.379 1527.92 Q804.25 1529.94 803.926 1533.59 L819.111 1533.57 Z" fill="#000000" fill-rule="nonzero" fill-opacity="1" /><path clip-path="url(#clip570)" d="M1188.06 1517.46 Q1182.97 1517.46 1179.96 1521.26 Q1176.97 1525.05 1176.97 1531.6 Q1176.97 1538.13 1179.96 1541.93 Q1182.97 1545.72 1188.06 1545.72 Q1193.15 1545.72 1196.12 1541.93 Q1199.1 1538.13 1199.1 1531.6 Q1199.1 1525.05 1196.12 1521.26 Q1193.15 1517.46 1188.06 1517.46 M1188.06 1513.66 Q1195.33 1513.66 1199.68 1518.55 Q1204.03 1523.41 1204.03 1531.6 Q1204.03 1539.77 1199.68 1544.66 Q1195.33 1549.52 1188.06 1549.52 Q1180.77 1549.52 1176.39 1544.66 Q1172.04 1539.8 1172.04 1531.6 Q1172.04 1523.41 1176.39 1518.55 Q1180.77 1513.66 1188.06 1513.66 Z" fill="#000000" fill-rule="nonzero" fill-opacity="1" /><path clip-path="url(#clip570)" d="M1226.19 1526.9 Q1225.47 1526.49 1224.61 1526.3 Q1223.78 1526.09 1222.76 1526.09 Q1219.15 1526.09 1217.2 1528.45 Q1215.28 1530.79 1215.28 1535.19 L1215.28 1548.85 L1211 1548.85 L1211 1522.92 L1215.28 1522.92 L1215.28 1526.95 Q1216.63 1524.59 1218.78 1523.45 Q1220.93 1522.3 1224.01 1522.3 Q1224.45 1522.3 1224.98 1522.37 Q1225.52 1522.41 1226.16 1522.53 L1226.19 1526.9 Z" fill="#000000" fill-rule="nonzero" fill-opacity="1" /><path clip-path="url(#clip570)" d="M1242.44 1535.82 Q1237.27 1535.82 1235.28 1537 Q1233.29 1538.18 1233.29 1541.02 Q1233.29 1543.29 1234.77 1544.63 Q1236.28 1545.95 1238.85 1545.95 Q1242.39 1545.95 1244.52 1543.45 Q1246.67 1540.93 1246.67 1536.76 L1246.67 1535.82 L1242.44 1535.82 M1250.93 1534.06 L1250.93 1548.85 L1246.67 1548.85 L1246.67 1544.91 Q1245.21 1547.27 1243.04 1548.41 Q1240.86 1549.52 1237.71 1549.52 Q1233.73 1549.52 1231.37 1547.3 Q1229.03 1545.05 1229.03 1541.3 Q1229.03 1536.93 1231.95 1534.7 Q1234.89 1532.48 1240.7 1532.48 L1246.67 1532.48 L1246.67 1532.07 Q1246.67 1529.13 1244.73 1527.53 Q1242.81 1525.91 1239.31 1525.91 Q1237.09 1525.91 1234.98 1526.44 Q1232.88 1526.97 1230.93 1528.04 L1230.93 1524.1 Q1233.27 1523.2 1235.47 1522.76 Q1237.67 1522.3 1239.75 1522.3 Q1245.38 1522.3 1248.15 1525.21 Q1250.93 1528.13 1250.93 1534.06 Z" fill="#000000" fill-rule="nonzero" fill-opacity="1" /><path clip-path="url(#clip570)" d="M1278.36 1523.92 L1278.36 1527.9 Q1276.56 1526.9 1274.73 1526.42 Q1272.92 1525.91 1271.07 1525.91 Q1266.93 1525.91 1264.64 1528.55 Q1262.34 1531.16 1262.34 1535.91 Q1262.34 1540.65 1264.64 1543.29 Q1266.93 1545.91 1271.07 1545.91 Q1272.92 1545.91 1274.73 1545.42 Q1276.56 1544.91 1278.36 1543.92 L1278.36 1547.85 Q1276.58 1548.69 1274.66 1549.1 Q1272.76 1549.52 1270.61 1549.52 Q1264.75 1549.52 1261.3 1545.84 Q1257.85 1542.16 1257.85 1535.91 Q1257.85 1529.57 1261.33 1525.93 Q1264.82 1522.3 1270.89 1522.3 Q1272.85 1522.3 1274.73 1522.71 Q1276.6 1523.11 1278.36 1523.92 Z" fill="#000000" fill-rule="nonzero" fill-opacity="1" /><path clip-path="url(#clip570)" d="M1285.77 1512.83 L1290.03 1512.83 L1290.03 1548.85 L1285.77 1548.85 L1285.77 1512.83 Z" fill="#000000" fill-rule="nonzero" fill-opacity="1" /><path clip-path="url(#clip570)" d="M1321.12 1534.82 L1321.12 1536.9 L1301.53 1536.9 Q1301.81 1541.3 1304.17 1543.62 Q1306.56 1545.91 1310.79 1545.91 Q1313.25 1545.91 1315.54 1545.31 Q1317.85 1544.7 1320.12 1543.5 L1320.12 1547.53 Q1317.83 1548.5 1315.42 1549.01 Q1313.01 1549.52 1310.54 1549.52 Q1304.33 1549.52 1300.7 1545.91 Q1297.09 1542.3 1297.09 1536.14 Q1297.09 1529.77 1300.51 1526.05 Q1303.96 1522.3 1309.8 1522.3 Q1315.03 1522.3 1318.06 1525.68 Q1321.12 1529.03 1321.12 1534.82 M1316.86 1533.57 Q1316.81 1530.07 1314.89 1527.99 Q1312.99 1525.91 1309.84 1525.91 Q1306.28 1525.91 1304.13 1527.92 Q1302 1529.94 1301.67 1533.59 L1316.86 1533.57 Z" fill="#000000" fill-rule="nonzero" fill-opacity="1" /><path clip-path="url(#clip570)" d="M1357.39 1517.46 Q1352.3 1517.46 1349.29 1521.26 Q1346.3 1525.05 1346.3 1531.6 Q1346.3 1538.13 1349.29 1541.93 Q1352.3 1545.72 1357.39 1545.72 Q1362.48 1545.72 1365.44 1541.93 Q1368.43 1538.13 1368.43 1531.6 Q1368.43 1525.05 1365.44 1521.26 Q1362.48 1517.46 1357.39 1517.46 M1357.39 1513.66 Q1364.66 1513.66 1369.01 1518.55 Q1373.36 1523.41 1373.36 1531.6 Q1373.36 1539.77 1369.01 1544.66 Q1364.66 1549.52 1357.39 1549.52 Q1350.1 1549.52 1345.72 1544.66 Q1341.37 1539.8 1341.37 1531.6 Q1341.37 1523.41 1345.72 1518.55 Q1350.1 1513.66 1357.39 1513.66 Z" fill="#000000" fill-rule="nonzero" fill-opacity="1" /><path clip-path="url(#clip570)" d="M1402.04 1533.2 L1402.04 1548.85 L1397.78 1548.85 L1397.78 1533.34 Q1397.78 1529.66 1396.35 1527.83 Q1394.91 1526 1392.04 1526 Q1388.59 1526 1386.6 1528.2 Q1384.61 1530.4 1384.61 1534.2 L1384.61 1548.85 L1380.33 1548.85 L1380.33 1522.92 L1384.61 1522.92 L1384.61 1526.95 Q1386.14 1524.61 1388.2 1523.45 Q1390.28 1522.3 1392.99 1522.3 Q1397.46 1522.3 1399.75 1525.07 Q1402.04 1527.83 1402.04 1533.2 Z" fill="#000000" fill-rule="nonzero" fill-opacity="1" /><path clip-path="url(#clip570)" d="M1410.54 1512.83 L1414.8 1512.83 L1414.8 1548.85 L1410.54 1548.85 L1410.54 1512.83 Z" fill="#000000" fill-rule="nonzero" fill-opacity="1" /><path clip-path="url(#clip570)" d="M1434.5 1551.26 Q1432.69 1555.88 1430.98 1557.3 Q1429.26 1558.71 1426.39 1558.71 L1422.99 1558.71 L1422.99 1555.14 L1425.49 1555.14 Q1427.25 1555.14 1428.22 1554.31 Q1429.19 1553.48 1430.38 1550.38 L1431.14 1548.43 L1420.65 1522.92 L1425.17 1522.92 L1433.27 1543.2 L1441.37 1522.92 L1445.88 1522.92 L1434.5 1551.26 Z" fill="#000000" fill-rule="nonzero" fill-opacity="1" /><path clip-path="url(#clip570)" d="M1863.52 1515.42 L1863.52 1519.98 Q1860.86 1518.71 1858.5 1518.08 Q1856.14 1517.46 1853.94 1517.46 Q1850.12 1517.46 1848.04 1518.94 Q1845.98 1520.42 1845.98 1523.15 Q1845.98 1525.45 1847.34 1526.63 Q1848.73 1527.78 1852.57 1528.5 L1855.4 1529.08 Q1860.63 1530.07 1863.11 1532.6 Q1865.61 1535.1 1865.61 1539.31 Q1865.61 1544.33 1862.23 1546.93 Q1858.87 1549.52 1852.37 1549.52 Q1849.91 1549.52 1847.13 1548.96 Q1844.38 1548.41 1841.42 1547.32 L1841.42 1542.51 Q1844.26 1544.1 1846.99 1544.91 Q1849.73 1545.72 1852.37 1545.72 Q1856.37 1545.72 1858.55 1544.15 Q1860.72 1542.57 1860.72 1539.66 Q1860.72 1537.11 1859.15 1535.68 Q1857.6 1534.24 1854.03 1533.52 L1851.18 1532.97 Q1845.95 1531.93 1843.62 1529.7 Q1841.28 1527.48 1841.28 1523.52 Q1841.28 1518.94 1844.49 1516.3 Q1847.74 1513.66 1853.41 1513.66 Q1855.84 1513.66 1858.36 1514.1 Q1860.88 1514.54 1863.52 1515.42 Z" fill="#000000" fill-rule="nonzero" fill-opacity="1" /><path clip-path="url(#clip570)" d="M1876.93 1515.56 L1876.93 1522.92 L1885.7 1522.92 L1885.7 1526.23 L1876.93 1526.23 L1876.93 1540.31 Q1876.93 1543.48 1877.78 1544.38 Q1878.66 1545.28 1881.32 1545.28 L1885.7 1545.28 L1885.7 1548.85 L1881.32 1548.85 Q1876.39 1548.85 1874.52 1547.02 Q1872.64 1545.17 1872.64 1540.31 L1872.64 1526.23 L1869.52 1526.23 L1869.52 1522.92 L1872.64 1522.92 L1872.64 1515.56 L1876.93 1515.56 Z" fill="#000000" fill-rule="nonzero" fill-opacity="1" /><path clip-path="url(#clip570)" d="M1903.08 1535.82 Q1897.92 1535.82 1895.93 1537 Q1893.94 1538.18 1893.94 1541.02 Q1893.94 1543.29 1895.42 1544.63 Q1896.93 1545.95 1899.49 1545.95 Q1903.04 1545.95 1905.17 1543.45 Q1907.32 1540.93 1907.32 1536.76 L1907.32 1535.82 L1903.08 1535.82 M1911.58 1534.06 L1911.58 1548.85 L1907.32 1548.85 L1907.32 1544.91 Q1905.86 1547.27 1903.68 1548.41 Q1901.51 1549.52 1898.36 1549.52 Q1894.38 1549.52 1892.02 1547.3 Q1889.68 1545.05 1889.68 1541.3 Q1889.68 1536.93 1892.6 1534.7 Q1895.54 1532.48 1901.35 1532.48 L1907.32 1532.48 L1907.32 1532.07 Q1907.32 1529.13 1905.37 1527.53 Q1903.45 1525.91 1899.96 1525.91 Q1897.74 1525.91 1895.63 1526.44 Q1893.52 1526.97 1891.58 1528.04 L1891.58 1524.1 Q1893.92 1523.2 1896.11 1522.76 Q1898.31 1522.3 1900.4 1522.3 Q1906.02 1522.3 1908.8 1525.21 Q1911.58 1528.13 1911.58 1534.06 Z" fill="#000000" fill-rule="nonzero" fill-opacity="1" /><path clip-path="url(#clip570)" d="M1941.9 1533.2 L1941.9 1548.85 L1937.64 1548.85 L1937.64 1533.34 Q1937.64 1529.66 1936.21 1527.83 Q1934.77 1526 1931.9 1526 Q1928.45 1526 1926.46 1528.2 Q1924.47 1530.4 1924.47 1534.2 L1924.47 1548.85 L1920.19 1548.85 L1920.19 1522.92 L1924.47 1522.92 L1924.47 1526.95 Q1926 1524.61 1928.06 1523.45 Q1930.14 1522.3 1932.85 1522.3 Q1937.32 1522.3 1939.61 1525.07 Q1941.9 1527.83 1941.9 1533.2 Z" fill="#000000" fill-rule="nonzero" fill-opacity="1" /><path clip-path="url(#clip570)" d="M1967.46 1526.86 L1967.46 1512.83 L1971.72 1512.83 L1971.72 1548.85 L1967.46 1548.85 L1967.46 1544.96 Q1966.11 1547.27 1964.05 1548.41 Q1962.02 1549.52 1959.15 1549.52 Q1954.45 1549.52 1951.48 1545.77 Q1948.55 1542.02 1948.55 1535.91 Q1948.55 1529.8 1951.48 1526.05 Q1954.45 1522.3 1959.15 1522.3 Q1962.02 1522.3 1964.05 1523.43 Q1966.11 1524.54 1967.46 1526.86 M1952.94 1535.91 Q1952.94 1540.61 1954.86 1543.29 Q1956.81 1545.95 1960.19 1545.95 Q1963.57 1545.95 1965.51 1543.29 Q1967.46 1540.61 1967.46 1535.91 Q1967.46 1531.21 1965.51 1528.55 Q1963.57 1525.86 1960.19 1525.86 Q1956.81 1525.86 1954.86 1528.55 Q1952.94 1531.21 1952.94 1535.91 Z" fill="#000000" fill-rule="nonzero" fill-opacity="1" /><path clip-path="url(#clip570)" d="M1992.27 1535.82 Q1987.11 1535.82 1985.12 1537 Q1983.13 1538.18 1983.13 1541.02 Q1983.13 1543.29 1984.61 1544.63 Q1986.11 1545.95 1988.68 1545.95 Q1992.23 1545.95 1994.36 1543.45 Q1996.51 1540.93 1996.51 1536.76 L1996.51 1535.82 L1992.27 1535.82 M2000.77 1534.06 L2000.77 1548.85 L1996.51 1548.85 L1996.51 1544.91 Q1995.05 1547.27 1992.87 1548.41 Q1990.7 1549.52 1987.55 1549.52 Q1983.57 1549.52 1981.21 1547.3 Q1978.87 1545.05 1978.87 1541.3 Q1978.87 1536.93 1981.79 1534.7 Q1984.73 1532.48 1990.54 1532.48 L1996.51 1532.48 L1996.51 1532.07 Q1996.51 1529.13 1994.56 1527.53 Q1992.64 1525.91 1989.15 1525.91 Q1986.92 1525.91 1984.82 1526.44 Q1982.71 1526.97 1980.77 1528.04 L1980.77 1524.1 Q1983.11 1523.2 1985.3 1522.76 Q1987.5 1522.3 1989.59 1522.3 Q1995.21 1522.3 1997.99 1525.21 Q2000.77 1528.13 2000.77 1534.06 Z" fill="#000000" fill-rule="nonzero" fill-opacity="1" /><path clip-path="url(#clip570)" d="M2024.56 1526.9 Q2023.85 1526.49 2022.99 1526.3 Q2022.16 1526.09 2021.14 1526.09 Q2017.53 1526.09 2015.58 1528.45 Q2013.66 1530.79 2013.66 1535.19 L2013.66 1548.85 L2009.38 1548.85 L2009.38 1522.92 L2013.66 1522.92 L2013.66 1526.95 Q2015 1524.59 2017.16 1523.45 Q2019.31 1522.3 2022.39 1522.3 Q2022.83 1522.3 2023.36 1522.37 Q2023.89 1522.41 2024.54 1522.53 L2024.56 1526.9 Z" fill="#000000" fill-rule="nonzero" fill-opacity="1" /><path clip-path="url(#clip570)" d="M2045.26 1526.86 L2045.26 1512.83 L2049.52 1512.83 L2049.52 1548.85 L2045.26 1548.85 L2045.26 1544.96 Q2043.92 1547.27 2041.85 1548.41 Q2039.82 1549.52 2036.95 1549.52 Q2032.25 1549.52 2029.29 1545.77 Q2026.35 1542.02 2026.35 1535.91 Q2026.35 1529.8 2029.29 1526.05 Q2032.25 1522.3 2036.95 1522.3 Q2039.82 1522.3 2041.85 1523.43 Q2043.92 1524.54 2045.26 1526.86 M2030.74 1535.91 Q2030.74 1540.61 2032.67 1543.29 Q2034.61 1545.95 2037.99 1545.95 Q2041.37 1545.95 2043.31 1543.29 Q2045.26 1540.61 2045.26 1535.91 Q2045.26 1531.21 2043.31 1528.55 Q2041.37 1525.86 2037.99 1525.86 Q2034.61 1525.86 2032.67 1528.55 Q2030.74 1531.21 2030.74 1535.91 Z" fill="#000000" fill-rule="nonzero" fill-opacity="1" /><path clip-path="url(#clip570)" d="M2089.93 1532.64 Q2091.44 1533.15 2092.85 1534.82 Q2094.29 1536.49 2095.72 1539.4 L2100.47 1548.85 L2095.44 1548.85 L2091.02 1539.98 Q2089.31 1536.51 2087.69 1535.38 Q2086.09 1534.24 2083.31 1534.24 L2078.22 1534.24 L2078.22 1548.85 L2073.54 1548.85 L2073.54 1514.29 L2084.1 1514.29 Q2090.03 1514.29 2092.94 1516.76 Q2095.86 1519.24 2095.86 1524.24 Q2095.86 1527.51 2094.33 1529.66 Q2092.83 1531.81 2089.93 1532.64 M2078.22 1518.13 L2078.22 1530.4 L2084.1 1530.4 Q2087.48 1530.4 2089.19 1528.85 Q2090.93 1527.27 2090.93 1524.24 Q2090.93 1521.21 2089.19 1519.68 Q2087.48 1518.13 2084.1 1518.13 L2078.22 1518.13 Z" fill="#000000" fill-rule="nonzero" fill-opacity="1" /><path clip-path="url(#clip570)" d="M2106.48 1514.29 L2111.16 1514.29 L2111.16 1544.91 L2127.99 1544.91 L2127.99 1548.85 L2106.48 1548.85 L2106.48 1514.29 Z" fill="#000000" fill-rule="nonzero" fill-opacity="1" /><polyline clip-path="url(#clip570)" style="stroke:#000000; stroke-linecap:round; stroke-linejoin:round; stroke-width:4; stroke-opacity:1; fill:none" points="302.458,1486.45 302.458,123.472 "/>
<polyline clip-path="url(#clip570)" style="stroke:#000000; stroke-linecap:round; stroke-linejoin:round; stroke-width:4; stroke-opacity:1; fill:none" points="302.458,1401.36 321.356,1401.36 "/>
<polyline clip-path="url(#clip570)" style="stroke:#000000; stroke-linecap:round; stroke-linejoin:round; stroke-width:4; stroke-opacity:1; fill:none" points="302.458,1188.38 321.356,1188.38 "/>
<polyline clip-path="url(#clip570)" style="stroke:#000000; stroke-linecap:round; stroke-linejoin:round; stroke-width:4; stroke-opacity:1; fill:none" points="302.458,975.396 321.356,975.396 "/>
<polyline clip-path="url(#clip570)" style="stroke:#000000; stroke-linecap:round; stroke-linejoin:round; stroke-width:4; stroke-opacity:1; fill:none" points="302.458,762.415 321.356,762.415 "/>
<polyline clip-path="url(#clip570)" style="stroke:#000000; stroke-linecap:round; stroke-linejoin:round; stroke-width:4; stroke-opacity:1; fill:none" points="302.458,549.434 321.356,549.434 "/>
<polyline clip-path="url(#clip570)" style="stroke:#000000; stroke-linecap:round; stroke-linejoin:round; stroke-width:4; stroke-opacity:1; fill:none" points="302.458,336.453 321.356,336.453 "/>
<polyline clip-path="url(#clip570)" style="stroke:#000000; stroke-linecap:round; stroke-linejoin:round; stroke-width:4; stroke-opacity:1; fill:none" points="302.458,123.472 321.356,123.472 "/>
<path clip-path="url(#clip570)" d="M114.26 1401.81 L143.936 1401.81 L143.936 1405.74 L114.26 1405.74 L114.26 1401.81 Z" fill="#000000" fill-rule="nonzero" fill-opacity="1" /><path clip-path="url(#clip570)" d="M164.607 1399.49 Q161.459 1399.49 159.607 1401.65 Q157.778 1403.8 157.778 1407.55 Q157.778 1411.28 159.607 1413.45 Q161.459 1415.61 164.607 1415.61 Q167.755 1415.61 169.584 1413.45 Q171.436 1411.28 171.436 1407.55 Q171.436 1403.8 169.584 1401.65 Q167.755 1399.49 164.607 1399.49 M173.889 1384.84 L173.889 1389.1 Q172.13 1388.27 170.325 1387.83 Q168.542 1387.39 166.783 1387.39 Q162.153 1387.39 159.7 1390.51 Q157.269 1393.64 156.922 1399.96 Q158.288 1397.94 160.348 1396.88 Q162.408 1395.79 164.885 1395.79 Q170.093 1395.79 173.102 1398.96 Q176.135 1402.11 176.135 1407.55 Q176.135 1412.87 172.987 1416.09 Q169.839 1419.31 164.607 1419.31 Q158.612 1419.31 155.44 1414.73 Q152.269 1410.12 152.269 1401.39 Q152.269 1393.2 156.158 1388.34 Q160.047 1383.45 166.598 1383.45 Q168.357 1383.45 170.139 1383.8 Q171.945 1384.15 173.889 1384.84 Z" fill="#000000" fill-rule="nonzero" fill-opacity="1" /><path clip-path="url(#clip570)" d="M194.19 1387.16 Q190.579 1387.16 188.75 1390.72 Q186.945 1394.26 186.945 1401.39 Q186.945 1408.5 188.75 1412.06 Q190.579 1415.61 194.19 1415.61 Q197.825 1415.61 199.63 1412.06 Q201.459 1408.5 201.459 1401.39 Q201.459 1394.26 199.63 1390.72 Q197.825 1387.16 194.19 1387.16 M194.19 1383.45 Q200 1383.45 203.056 1388.06 Q206.135 1392.64 206.135 1401.39 Q206.135 1410.12 203.056 1414.73 Q200 1419.31 194.19 1419.31 Q188.38 1419.31 185.301 1414.73 Q182.246 1410.12 182.246 1401.39 Q182.246 1392.64 185.301 1388.06 Q188.38 1383.45 194.19 1383.45 Z" fill="#000000" fill-rule="nonzero" fill-opacity="1" /><path clip-path="url(#clip570)" d="M224.352 1387.16 Q220.741 1387.16 218.912 1390.72 Q217.107 1394.26 217.107 1401.39 Q217.107 1408.5 218.912 1412.06 Q220.741 1415.61 224.352 1415.61 Q227.986 1415.61 229.792 1412.06 Q231.621 1408.5 231.621 1401.39 Q231.621 1394.26 229.792 1390.72 Q227.986 1387.16 224.352 1387.16 M224.352 1383.45 Q230.162 1383.45 233.218 1388.06 Q236.297 1392.64 236.297 1401.39 Q236.297 1410.12 233.218 1414.73 Q230.162 1419.31 224.352 1419.31 Q218.542 1419.31 215.463 1414.73 Q212.408 1410.12 212.408 1401.39 Q212.408 1392.64 215.463 1388.06 Q218.542 1383.45 224.352 1383.45 Z" fill="#000000" fill-rule="nonzero" fill-opacity="1" /><path clip-path="url(#clip570)" d="M254.514 1387.16 Q250.903 1387.16 249.074 1390.72 Q247.269 1394.26 247.269 1401.39 Q247.269 1408.5 249.074 1412.06 Q250.903 1415.61 254.514 1415.61 Q258.148 1415.61 259.954 1412.06 Q261.783 1408.5 261.783 1401.39 Q261.783 1394.26 259.954 1390.72 Q258.148 1387.16 254.514 1387.16 M254.514 1383.45 Q260.324 1383.45 263.38 1388.06 Q266.458 1392.64 266.458 1401.39 Q266.458 1410.12 263.38 1414.73 Q260.324 1419.31 254.514 1419.31 Q248.704 1419.31 245.625 1414.73 Q242.57 1410.12 242.57 1401.39 Q242.57 1392.64 245.625 1388.06 Q248.704 1383.45 254.514 1383.45 Z" fill="#000000" fill-rule="nonzero" fill-opacity="1" /><path clip-path="url(#clip570)" d="M114.26 1188.83 L143.936 1188.83 L143.936 1192.76 L114.26 1192.76 L114.26 1188.83 Z" fill="#000000" fill-rule="nonzero" fill-opacity="1" /><path clip-path="url(#clip570)" d="M154.075 1171.1 L172.431 1171.1 L172.431 1175.03 L158.357 1175.03 L158.357 1183.5 Q159.376 1183.16 160.394 1183 Q161.413 1182.81 162.431 1182.81 Q168.218 1182.81 171.598 1185.98 Q174.977 1189.15 174.977 1194.57 Q174.977 1200.15 171.505 1203.25 Q168.033 1206.33 161.714 1206.33 Q159.538 1206.33 157.269 1205.96 Q155.024 1205.59 152.616 1204.85 L152.616 1200.15 Q154.7 1201.28 156.922 1201.84 Q159.144 1202.39 161.621 1202.39 Q165.626 1202.39 167.964 1200.29 Q170.302 1198.18 170.302 1194.57 Q170.302 1190.96 167.964 1188.85 Q165.626 1186.75 161.621 1186.75 Q159.746 1186.75 157.871 1187.16 Q156.019 1187.58 154.075 1188.46 L154.075 1171.1 Z" fill="#000000" fill-rule="nonzero" fill-opacity="1" /><path clip-path="url(#clip570)" d="M194.19 1174.18 Q190.579 1174.18 188.75 1177.74 Q186.945 1181.28 186.945 1188.41 Q186.945 1195.52 188.75 1199.08 Q190.579 1202.62 194.19 1202.62 Q197.825 1202.62 199.63 1199.08 Q201.459 1195.52 201.459 1188.41 Q201.459 1181.28 199.63 1177.74 Q197.825 1174.18 194.19 1174.18 M194.19 1170.47 Q200 1170.47 203.056 1175.08 Q206.135 1179.66 206.135 1188.41 Q206.135 1197.14 203.056 1201.75 Q200 1206.33 194.19 1206.33 Q188.38 1206.33 185.301 1201.75 Q182.246 1197.14 182.246 1188.41 Q182.246 1179.66 185.301 1175.08 Q188.38 1170.47 194.19 1170.47 Z" fill="#000000" fill-rule="nonzero" fill-opacity="1" /><path clip-path="url(#clip570)" d="M224.352 1174.18 Q220.741 1174.18 218.912 1177.74 Q217.107 1181.28 217.107 1188.41 Q217.107 1195.52 218.912 1199.08 Q220.741 1202.62 224.352 1202.62 Q227.986 1202.62 229.792 1199.08 Q231.621 1195.52 231.621 1188.41 Q231.621 1181.28 229.792 1177.74 Q227.986 1174.18 224.352 1174.18 M224.352 1170.47 Q230.162 1170.47 233.218 1175.08 Q236.297 1179.66 236.297 1188.41 Q236.297 1197.14 233.218 1201.75 Q230.162 1206.33 224.352 1206.33 Q218.542 1206.33 215.463 1201.75 Q212.408 1197.14 212.408 1188.41 Q212.408 1179.66 215.463 1175.08 Q218.542 1170.47 224.352 1170.47 Z" fill="#000000" fill-rule="nonzero" fill-opacity="1" /><path clip-path="url(#clip570)" d="M254.514 1174.18 Q250.903 1174.18 249.074 1177.74 Q247.269 1181.28 247.269 1188.41 Q247.269 1195.52 249.074 1199.08 Q250.903 1202.62 254.514 1202.62 Q258.148 1202.62 259.954 1199.08 Q261.783 1195.52 261.783 1188.41 Q261.783 1181.28 259.954 1177.74 Q258.148 1174.18 254.514 1174.18 M254.514 1170.47 Q260.324 1170.47 263.38 1175.08 Q266.458 1179.66 266.458 1188.41 Q266.458 1197.14 263.38 1201.75 Q260.324 1206.33 254.514 1206.33 Q248.704 1206.33 245.625 1201.75 Q242.57 1197.14 242.57 1188.41 Q242.57 1179.66 245.625 1175.08 Q248.704 1170.47 254.514 1170.47 Z" fill="#000000" fill-rule="nonzero" fill-opacity="1" /><path clip-path="url(#clip570)" d="M114.26 975.848 L143.936 975.848 L143.936 979.783 L114.26 979.783 L114.26 975.848 Z" fill="#000000" fill-rule="nonzero" fill-opacity="1" /><path clip-path="url(#clip570)" d="M166.876 962.19 L155.07 980.639 L166.876 980.639 L166.876 962.19 M165.649 958.116 L171.528 958.116 L171.528 980.639 L176.459 980.639 L176.459 984.528 L171.528 984.528 L171.528 992.676 L166.876 992.676 L166.876 984.528 L151.274 984.528 L151.274 980.014 L165.649 958.116 Z" fill="#000000" fill-rule="nonzero" fill-opacity="1" /><path clip-path="url(#clip570)" d="M194.19 961.195 Q190.579 961.195 188.75 964.76 Q186.945 968.301 186.945 975.431 Q186.945 982.537 188.75 986.102 Q190.579 989.644 194.19 989.644 Q197.825 989.644 199.63 986.102 Q201.459 982.537 201.459 975.431 Q201.459 968.301 199.63 964.76 Q197.825 961.195 194.19 961.195 M194.19 957.491 Q200 957.491 203.056 962.098 Q206.135 966.681 206.135 975.431 Q206.135 984.158 203.056 988.764 Q200 993.347 194.19 993.347 Q188.38 993.347 185.301 988.764 Q182.246 984.158 182.246 975.431 Q182.246 966.681 185.301 962.098 Q188.38 957.491 194.19 957.491 Z" fill="#000000" fill-rule="nonzero" fill-opacity="1" /><path clip-path="url(#clip570)" d="M224.352 961.195 Q220.741 961.195 218.912 964.76 Q217.107 968.301 217.107 975.431 Q217.107 982.537 218.912 986.102 Q220.741 989.644 224.352 989.644 Q227.986 989.644 229.792 986.102 Q231.621 982.537 231.621 975.431 Q231.621 968.301 229.792 964.76 Q227.986 961.195 224.352 961.195 M224.352 957.491 Q230.162 957.491 233.218 962.098 Q236.297 966.681 236.297 975.431 Q236.297 984.158 233.218 988.764 Q230.162 993.347 224.352 993.347 Q218.542 993.347 215.463 988.764 Q212.408 984.158 212.408 975.431 Q212.408 966.681 215.463 962.098 Q218.542 957.491 224.352 957.491 Z" fill="#000000" fill-rule="nonzero" fill-opacity="1" /><path clip-path="url(#clip570)" d="M254.514 961.195 Q250.903 961.195 249.074 964.76 Q247.269 968.301 247.269 975.431 Q247.269 982.537 249.074 986.102 Q250.903 989.644 254.514 989.644 Q258.148 989.644 259.954 986.102 Q261.783 982.537 261.783 975.431 Q261.783 968.301 259.954 964.76 Q258.148 961.195 254.514 961.195 M254.514 957.491 Q260.324 957.491 263.38 962.098 Q266.458 966.681 266.458 975.431 Q266.458 984.158 263.38 988.764 Q260.324 993.347 254.514 993.347 Q248.704 993.347 245.625 988.764 Q242.57 984.158 242.57 975.431 Q242.57 966.681 245.625 962.098 Q248.704 957.491 254.514 957.491 Z" fill="#000000" fill-rule="nonzero" fill-opacity="1" /><path clip-path="url(#clip570)" d="M114.26 762.867 L143.936 762.867 L143.936 766.802 L114.26 766.802 L114.26 762.867 Z" fill="#000000" fill-rule="nonzero" fill-opacity="1" /><path clip-path="url(#clip570)" d="M168.195 761.061 Q171.552 761.779 173.427 764.047 Q175.325 766.316 175.325 769.649 Q175.325 774.765 171.806 777.566 Q168.288 780.366 161.806 780.366 Q159.63 780.366 157.315 779.927 Q155.024 779.51 152.57 778.654 L152.57 774.14 Q154.515 775.274 156.829 775.853 Q159.144 776.431 161.667 776.431 Q166.065 776.431 168.357 774.695 Q170.672 772.959 170.672 769.649 Q170.672 766.593 168.519 764.88 Q166.39 763.144 162.57 763.144 L158.542 763.144 L158.542 759.302 L162.755 759.302 Q166.204 759.302 168.033 757.936 Q169.862 756.547 169.862 753.955 Q169.862 751.293 167.964 749.881 Q166.089 748.445 162.57 748.445 Q160.649 748.445 158.45 748.862 Q156.251 749.279 153.612 750.158 L153.612 745.992 Q156.274 745.251 158.589 744.881 Q160.927 744.51 162.987 744.51 Q168.311 744.51 171.413 746.941 Q174.514 749.348 174.514 753.468 Q174.514 756.339 172.871 758.33 Q171.227 760.297 168.195 761.061 Z" fill="#000000" fill-rule="nonzero" fill-opacity="1" /><path clip-path="url(#clip570)" d="M194.19 748.214 Q190.579 748.214 188.75 751.779 Q186.945 755.32 186.945 762.45 Q186.945 769.556 188.75 773.121 Q190.579 776.663 194.19 776.663 Q197.825 776.663 199.63 773.121 Q201.459 769.556 201.459 762.45 Q201.459 755.32 199.63 751.779 Q197.825 748.214 194.19 748.214 M194.19 744.51 Q200 744.51 203.056 749.117 Q206.135 753.7 206.135 762.45 Q206.135 771.177 203.056 775.783 Q200 780.366 194.19 780.366 Q188.38 780.366 185.301 775.783 Q182.246 771.177 182.246 762.45 Q182.246 753.7 185.301 749.117 Q188.38 744.51 194.19 744.51 Z" fill="#000000" fill-rule="nonzero" fill-opacity="1" /><path clip-path="url(#clip570)" d="M224.352 748.214 Q220.741 748.214 218.912 751.779 Q217.107 755.32 217.107 762.45 Q217.107 769.556 218.912 773.121 Q220.741 776.663 224.352 776.663 Q227.986 776.663 229.792 773.121 Q231.621 769.556 231.621 762.45 Q231.621 755.32 229.792 751.779 Q227.986 748.214 224.352 748.214 M224.352 744.51 Q230.162 744.51 233.218 749.117 Q236.297 753.7 236.297 762.45 Q236.297 771.177 233.218 775.783 Q230.162 780.366 224.352 780.366 Q218.542 780.366 215.463 775.783 Q212.408 771.177 212.408 762.45 Q212.408 753.7 215.463 749.117 Q218.542 744.51 224.352 744.51 Z" fill="#000000" fill-rule="nonzero" fill-opacity="1" /><path clip-path="url(#clip570)" d="M254.514 748.214 Q250.903 748.214 249.074 751.779 Q247.269 755.32 247.269 762.45 Q247.269 769.556 249.074 773.121 Q250.903 776.663 254.514 776.663 Q258.148 776.663 259.954 773.121 Q261.783 769.556 261.783 762.45 Q261.783 755.32 259.954 751.779 Q258.148 748.214 254.514 748.214 M254.514 744.51 Q260.324 744.51 263.38 749.117 Q266.458 753.7 266.458 762.45 Q266.458 771.177 263.38 775.783 Q260.324 780.366 254.514 780.366 Q248.704 780.366 245.625 775.783 Q242.57 771.177 242.57 762.45 Q242.57 753.7 245.625 749.117 Q248.704 744.51 254.514 744.51 Z" fill="#000000" fill-rule="nonzero" fill-opacity="1" /><path clip-path="url(#clip570)" d="M114.26 549.886 L143.936 549.886 L143.936 553.821 L114.26 553.821 L114.26 549.886 Z" fill="#000000" fill-rule="nonzero" fill-opacity="1" /><path clip-path="url(#clip570)" d="M158.056 562.779 L174.376 562.779 L174.376 566.714 L152.431 566.714 L152.431 562.779 Q155.093 560.024 159.677 555.395 Q164.283 550.742 165.464 549.399 Q167.709 546.876 168.589 545.14 Q169.491 543.381 169.491 541.691 Q169.491 538.937 167.547 537.2 Q165.626 535.464 162.524 535.464 Q160.325 535.464 157.871 536.228 Q155.44 536.992 152.663 538.543 L152.663 533.821 Q155.487 532.687 157.94 532.108 Q160.394 531.529 162.431 531.529 Q167.802 531.529 170.996 534.214 Q174.19 536.9 174.19 541.39 Q174.19 543.52 173.38 545.441 Q172.593 547.339 170.487 549.932 Q169.908 550.603 166.806 553.821 Q163.704 557.015 158.056 562.779 Z" fill="#000000" fill-rule="nonzero" fill-opacity="1" /><path clip-path="url(#clip570)" d="M194.19 535.233 Q190.579 535.233 188.75 538.798 Q186.945 542.339 186.945 549.469 Q186.945 556.575 188.75 560.14 Q190.579 563.682 194.19 563.682 Q197.825 563.682 199.63 560.14 Q201.459 556.575 201.459 549.469 Q201.459 542.339 199.63 538.798 Q197.825 535.233 194.19 535.233 M194.19 531.529 Q200 531.529 203.056 536.136 Q206.135 540.719 206.135 549.469 Q206.135 558.196 203.056 562.802 Q200 567.385 194.19 567.385 Q188.38 567.385 185.301 562.802 Q182.246 558.196 182.246 549.469 Q182.246 540.719 185.301 536.136 Q188.38 531.529 194.19 531.529 Z" fill="#000000" fill-rule="nonzero" fill-opacity="1" /><path clip-path="url(#clip570)" d="M224.352 535.233 Q220.741 535.233 218.912 538.798 Q217.107 542.339 217.107 549.469 Q217.107 556.575 218.912 560.14 Q220.741 563.682 224.352 563.682 Q227.986 563.682 229.792 560.14 Q231.621 556.575 231.621 549.469 Q231.621 542.339 229.792 538.798 Q227.986 535.233 224.352 535.233 M224.352 531.529 Q230.162 531.529 233.218 536.136 Q236.297 540.719 236.297 549.469 Q236.297 558.196 233.218 562.802 Q230.162 567.385 224.352 567.385 Q218.542 567.385 215.463 562.802 Q212.408 558.196 212.408 549.469 Q212.408 540.719 215.463 536.136 Q218.542 531.529 224.352 531.529 Z" fill="#000000" fill-rule="nonzero" fill-opacity="1" /><path clip-path="url(#clip570)" d="M254.514 535.233 Q250.903 535.233 249.074 538.798 Q247.269 542.339 247.269 549.469 Q247.269 556.575 249.074 560.14 Q250.903 563.682 254.514 563.682 Q258.148 563.682 259.954 560.14 Q261.783 556.575 261.783 549.469 Q261.783 542.339 259.954 538.798 Q258.148 535.233 254.514 535.233 M254.514 531.529 Q260.324 531.529 263.38 536.136 Q266.458 540.719 266.458 549.469 Q266.458 558.196 263.38 562.802 Q260.324 567.385 254.514 567.385 Q248.704 567.385 245.625 562.802 Q242.57 558.196 242.57 549.469 Q242.57 540.719 245.625 536.136 Q248.704 531.529 254.514 531.529 Z" fill="#000000" fill-rule="nonzero" fill-opacity="1" /><path clip-path="url(#clip570)" d="M114.26 336.905 L143.936 336.905 L143.936 340.84 L114.26 340.84 L114.26 336.905 Z" fill="#000000" fill-rule="nonzero" fill-opacity="1" /><path clip-path="url(#clip570)" d="M154.839 349.798 L162.477 349.798 L162.477 323.432 L154.167 325.099 L154.167 320.84 L162.431 319.173 L167.107 319.173 L167.107 349.798 L174.746 349.798 L174.746 353.733 L154.839 353.733 L154.839 349.798 Z" fill="#000000" fill-rule="nonzero" fill-opacity="1" /><path clip-path="url(#clip570)" d="M194.19 322.252 Q190.579 322.252 188.75 325.817 Q186.945 329.358 186.945 336.488 Q186.945 343.594 188.75 347.159 Q190.579 350.701 194.19 350.701 Q197.825 350.701 199.63 347.159 Q201.459 343.594 201.459 336.488 Q201.459 329.358 199.63 325.817 Q197.825 322.252 194.19 322.252 M194.19 318.548 Q200 318.548 203.056 323.155 Q206.135 327.738 206.135 336.488 Q206.135 345.215 203.056 349.821 Q200 354.404 194.19 354.404 Q188.38 354.404 185.301 349.821 Q182.246 345.215 182.246 336.488 Q182.246 327.738 185.301 323.155 Q188.38 318.548 194.19 318.548 Z" fill="#000000" fill-rule="nonzero" fill-opacity="1" /><path clip-path="url(#clip570)" d="M224.352 322.252 Q220.741 322.252 218.912 325.817 Q217.107 329.358 217.107 336.488 Q217.107 343.594 218.912 347.159 Q220.741 350.701 224.352 350.701 Q227.986 350.701 229.792 347.159 Q231.621 343.594 231.621 336.488 Q231.621 329.358 229.792 325.817 Q227.986 322.252 224.352 322.252 M224.352 318.548 Q230.162 318.548 233.218 323.155 Q236.297 327.738 236.297 336.488 Q236.297 345.215 233.218 349.821 Q230.162 354.404 224.352 354.404 Q218.542 354.404 215.463 349.821 Q212.408 345.215 212.408 336.488 Q212.408 327.738 215.463 323.155 Q218.542 318.548 224.352 318.548 Z" fill="#000000" fill-rule="nonzero" fill-opacity="1" /><path clip-path="url(#clip570)" d="M254.514 322.252 Q250.903 322.252 249.074 325.817 Q247.269 329.358 247.269 336.488 Q247.269 343.594 249.074 347.159 Q250.903 350.701 254.514 350.701 Q258.148 350.701 259.954 347.159 Q261.783 343.594 261.783 336.488 Q261.783 329.358 259.954 325.817 Q258.148 322.252 254.514 322.252 M254.514 318.548 Q260.324 318.548 263.38 323.155 Q266.458 327.738 266.458 336.488 Q266.458 345.215 263.38 349.821 Q260.324 354.404 254.514 354.404 Q248.704 354.404 245.625 349.821 Q242.57 345.215 242.57 336.488 Q242.57 327.738 245.625 323.155 Q248.704 318.548 254.514 318.548 Z" fill="#000000" fill-rule="nonzero" fill-opacity="1" /><path clip-path="url(#clip570)" d="M254.514 109.271 Q250.903 109.271 249.074 112.836 Q247.269 116.377 247.269 123.507 Q247.269 130.613 249.074 134.178 Q250.903 137.72 254.514 137.72 Q258.148 137.72 259.954 134.178 Q261.783 130.613 261.783 123.507 Q261.783 116.377 259.954 112.836 Q258.148 109.271 254.514 109.271 M254.514 105.567 Q260.324 105.567 263.38 110.174 Q266.458 114.757 266.458 123.507 Q266.458 132.234 263.38 136.84 Q260.324 141.423 254.514 141.423 Q248.704 141.423 245.625 136.84 Q242.57 132.234 242.57 123.507 Q242.57 114.757 245.625 110.174 Q248.704 105.567 254.514 105.567 Z" fill="#000000" fill-rule="nonzero" fill-opacity="1" /><path clip-path="url(#clip570)" d="M22.818 1124.88 L46.4666 1133.61 L46.4666 1116.13 L22.818 1124.88 M16.4842 1128.51 L16.4842 1121.22 L64.0042 1103.11 L64.0042 1109.8 L51.8138 1114.13 L51.8138 1135.55 L64.0042 1139.88 L64.0042 1146.66 L16.4842 1128.51 Z" fill="#000000" fill-rule="nonzero" fill-opacity="1" /><path clip-path="url(#clip570)" d="M29.7248 1071.92 L35.1993 1071.92 Q33.8307 1074.4 33.1623 1076.92 Q32.4621 1079.4 32.4621 1081.95 Q32.4621 1087.65 36.0905 1090.8 Q39.6872 1093.95 46.212 1093.95 Q52.7369 1093.95 56.3653 1090.8 Q59.9619 1087.65 59.9619 1081.95 Q59.9619 1079.4 59.2935 1076.92 Q58.5933 1074.4 57.2247 1071.92 L62.6355 1071.92 Q63.7814 1074.37 64.3543 1077.01 Q64.9272 1079.62 64.9272 1082.58 Q64.9272 1090.64 59.8664 1095.38 Q54.8057 1100.12 46.212 1100.12 Q37.491 1100.12 32.4939 1095.35 Q27.4968 1090.54 27.4968 1082.2 Q27.4968 1079.5 28.0697 1076.92 Q28.6108 1074.34 29.7248 1071.92 Z" fill="#000000" fill-rule="nonzero" fill-opacity="1" /><path clip-path="url(#clip570)" d="M29.7248 1036.08 L35.1993 1036.08 Q33.8307 1038.57 33.1623 1041.08 Q32.4621 1043.56 32.4621 1046.11 Q32.4621 1051.81 36.0905 1054.96 Q39.6872 1058.11 46.212 1058.11 Q52.7369 1058.11 56.3653 1054.96 Q59.9619 1051.81 59.9619 1046.11 Q59.9619 1043.56 59.2935 1041.08 Q58.5933 1038.57 57.2247 1036.08 L62.6355 1036.08 Q63.7814 1038.53 64.3543 1041.18 Q64.9272 1043.79 64.9272 1046.75 Q64.9272 1054.8 59.8664 1059.54 Q54.8057 1064.28 46.212 1064.28 Q37.491 1064.28 32.4939 1059.51 Q27.4968 1054.7 27.4968 1046.36 Q27.4968 1043.66 28.0697 1041.08 Q28.6108 1038.5 29.7248 1036.08 Z" fill="#000000" fill-rule="nonzero" fill-opacity="1" /><path clip-path="url(#clip570)" d="M49.9359 1026.5 L28.3562 1026.5 L28.3562 1020.65 L49.7131 1020.65 Q54.7739 1020.65 57.3202 1018.67 Q59.8346 1016.7 59.8346 1012.75 Q59.8346 1008.01 56.8109 1005.27 Q53.7872 1002.5 48.5673 1002.5 L28.3562 1002.5 L28.3562 996.647 L64.0042 996.647 L64.0042 1002.5 L58.5296 1002.5 Q61.7762 1004.64 63.3676 1007.47 Q64.9272 1010.27 64.9272 1013.99 Q64.9272 1020.14 61.1078 1023.32 Q57.2883 1026.5 49.9359 1026.5 M27.4968 1011.77 L27.4968 1011.77 Z" fill="#000000" fill-rule="nonzero" fill-opacity="1" /><path clip-path="url(#clip570)" d="M35.1993 956.83 Q31.2526 954.634 29.3747 951.578 Q27.4968 948.523 27.4968 944.385 Q27.4968 938.815 31.4117 935.791 Q35.2948 932.767 42.4881 932.767 L64.0042 932.767 L64.0042 938.656 L42.679 938.656 Q37.5546 938.656 35.072 940.47 Q32.5894 942.284 32.5894 946.008 Q32.5894 950.56 35.6131 953.201 Q38.6368 955.843 43.8567 955.843 L64.0042 955.843 L64.0042 961.731 L42.679 961.731 Q37.5228 961.731 35.072 963.546 Q32.5894 965.36 32.5894 969.147 Q32.5894 973.635 35.6449 976.277 Q38.6686 978.919 43.8567 978.919 L64.0042 978.919 L64.0042 984.807 L28.3562 984.807 L28.3562 978.919 L33.8944 978.919 Q30.616 976.914 29.0564 974.113 Q27.4968 971.312 27.4968 967.461 Q27.4968 963.577 29.4702 960.872 Q31.4436 958.135 35.1993 956.83 Z" fill="#000000" fill-rule="nonzero" fill-opacity="1" /><path clip-path="url(#clip570)" d="M49.9359 921.691 L28.3562 921.691 L28.3562 915.835 L49.7131 915.835 Q54.7739 915.835 57.3202 913.861 Q59.8346 911.888 59.8346 907.941 Q59.8346 903.199 56.8109 900.462 Q53.7872 897.692 48.5673 897.692 L28.3562 897.692 L28.3562 891.836 L64.0042 891.836 L64.0042 897.692 L58.5296 897.692 Q61.7762 899.825 63.3676 902.658 Q64.9272 905.459 64.9272 909.183 Q64.9272 915.325 61.1078 918.508 Q57.2883 921.691 49.9359 921.691 M27.4968 906.955 L27.4968 906.955 Z" fill="#000000" fill-rule="nonzero" fill-opacity="1" /><path clip-path="url(#clip570)" d="M14.479 879.773 L14.479 873.917 L64.0042 873.917 L64.0042 879.773 L14.479 879.773 Z" fill="#000000" fill-rule="nonzero" fill-opacity="1" /><path clip-path="url(#clip570)" d="M46.0847 845.462 Q46.0847 852.56 47.7079 855.297 Q49.3312 858.034 53.2461 858.034 Q56.3653 858.034 58.2114 855.997 Q60.0256 853.928 60.0256 850.395 Q60.0256 845.525 56.5881 842.597 Q53.1188 839.637 47.3897 839.637 L46.0847 839.637 L46.0847 845.462 M43.6657 833.781 L64.0042 833.781 L64.0042 839.637 L58.5933 839.637 Q61.8398 841.642 63.3994 844.634 Q64.9272 847.626 64.9272 851.955 Q64.9272 857.429 61.8716 860.676 Q58.7843 863.891 53.6281 863.891 Q47.6125 863.891 44.5569 859.88 Q41.5014 855.838 41.5014 847.849 L41.5014 839.637 L40.9285 839.637 Q36.8862 839.637 34.6901 842.311 Q32.4621 844.953 32.4621 849.759 Q32.4621 852.814 33.1941 855.711 Q33.9262 858.607 35.3903 861.281 L29.9795 861.281 Q28.7381 858.066 28.1334 855.042 Q27.4968 852.018 27.4968 849.154 Q27.4968 841.42 31.5072 837.6 Q35.5176 833.781 43.6657 833.781 Z" fill="#000000" fill-rule="nonzero" fill-opacity="1" /><path clip-path="url(#clip570)" d="M18.2347 815.925 L28.3562 815.925 L28.3562 803.862 L32.9077 803.862 L32.9077 815.925 L52.2594 815.925 Q56.6199 815.925 57.8613 814.747 Q59.1026 813.538 59.1026 809.878 L59.1026 803.862 L64.0042 803.862 L64.0042 809.878 Q64.0042 816.657 61.4897 819.235 Q58.9434 821.813 52.2594 821.813 L32.9077 821.813 L32.9077 826.11 L28.3562 826.11 L28.3562 821.813 L18.2347 821.813 L18.2347 815.925 Z" fill="#000000" fill-rule="nonzero" fill-opacity="1" /><path clip-path="url(#clip570)" d="M44.7161 765.668 L47.5806 765.668 L47.5806 792.595 Q53.6281 792.213 56.8109 788.966 Q59.9619 785.688 59.9619 779.863 Q59.9619 776.489 59.1344 773.338 Q58.3069 770.155 56.6518 767.036 L62.1899 767.036 Q63.5267 770.187 64.227 773.497 Q64.9272 776.808 64.9272 780.213 Q64.9272 788.743 59.9619 793.74 Q54.9967 798.706 46.5303 798.706 Q37.7774 798.706 32.6531 793.995 Q27.4968 789.253 27.4968 781.232 Q27.4968 774.039 32.1438 769.869 Q36.7589 765.668 44.7161 765.668 M42.9973 771.524 Q38.1912 771.588 35.3266 774.23 Q32.4621 776.839 32.4621 781.168 Q32.4621 786.07 35.2312 789.03 Q38.0002 791.958 43.0292 792.404 L42.9973 771.524 Z" fill="#000000" fill-rule="nonzero" fill-opacity="1" /><path clip-path="url(#clip570)" d="M33.7671 732.598 L14.479 732.598 L14.479 726.741 L64.0042 726.741 L64.0042 732.598 L58.657 732.598 Q61.8398 734.444 63.3994 737.277 Q64.9272 740.078 64.9272 744.024 Q64.9272 750.485 59.771 754.56 Q54.6147 758.602 46.212 758.602 Q37.8093 758.602 32.6531 754.56 Q27.4968 750.485 27.4968 744.024 Q27.4968 740.078 29.0564 737.277 Q30.5842 734.444 33.7671 732.598 M46.212 752.554 Q52.6732 752.554 56.3653 749.913 Q60.0256 747.239 60.0256 742.592 Q60.0256 737.945 56.3653 735.271 Q52.6732 732.598 46.212 732.598 Q39.7508 732.598 36.0905 735.271 Q32.3984 737.945 32.3984 742.592 Q32.3984 747.239 36.0905 749.913 Q39.7508 752.554 46.212 752.554 Z" fill="#000000" fill-rule="nonzero" fill-opacity="1" /><path clip-path="url(#clip570)" d="M41.7242 671.169 Q42.4244 669.1 44.7161 667.158 Q47.0077 665.185 51.0181 663.212 L64.0042 656.687 L64.0042 663.594 L51.8138 669.673 Q47.0395 672.028 45.48 674.256 Q43.9204 676.452 43.9204 680.272 L43.9204 687.274 L64.0042 687.274 L64.0042 693.703 L16.4842 693.703 L16.4842 679.19 Q16.4842 671.041 19.8898 667.031 Q23.2955 663.021 30.1704 663.021 Q34.6582 663.021 37.6183 665.121 Q40.5784 667.19 41.7242 671.169 M21.7677 687.274 L38.6368 687.274 L38.6368 679.19 Q38.6368 674.543 36.5043 672.187 Q34.34 669.8 30.1704 669.8 Q26.0009 669.8 23.9002 672.187 Q21.7677 674.543 21.7677 679.19 L21.7677 687.274 Z" fill="#000000" fill-rule="nonzero" fill-opacity="1" /><path clip-path="url(#clip570)" d="M44.7161 621.102 L47.5806 621.102 L47.5806 648.029 Q53.6281 647.647 56.8109 644.401 Q59.9619 641.123 59.9619 635.298 Q59.9619 631.924 59.1344 628.773 Q58.3069 625.59 56.6518 622.471 L62.1899 622.471 Q63.5267 625.622 64.227 628.932 Q64.9272 632.242 64.9272 635.648 Q64.9272 644.178 59.9619 649.175 Q54.9967 654.14 46.5303 654.14 Q37.7774 654.14 32.6531 649.43 Q27.4968 644.687 27.4968 636.667 Q27.4968 629.473 32.1438 625.304 Q36.7589 621.102 44.7161 621.102 M42.9973 626.959 Q38.1912 627.023 35.3266 629.664 Q32.4621 632.274 32.4621 636.603 Q32.4621 641.505 35.2312 644.465 Q38.0002 647.393 43.0292 647.838 L42.9973 626.959 Z" fill="#000000" fill-rule="nonzero" fill-opacity="1" /><path clip-path="url(#clip570)" d="M28.3562 614.896 L28.3562 609.039 L56.1743 601.719 L28.3562 594.43 L28.3562 587.523 L56.1743 580.203 L28.3562 572.914 L28.3562 567.058 L64.0042 576.383 L64.0042 583.29 L34.7856 590.961 L64.0042 598.663 L64.0042 605.57 L28.3562 614.896 Z" fill="#000000" fill-rule="nonzero" fill-opacity="1" /><path clip-path="url(#clip570)" d="M46.0847 541.977 Q46.0847 549.075 47.7079 551.812 Q49.3312 554.549 53.2461 554.549 Q56.3653 554.549 58.2114 552.512 Q60.0256 550.443 60.0256 546.91 Q60.0256 542.04 56.5881 539.112 Q53.1188 536.152 47.3897 536.152 L46.0847 536.152 L46.0847 541.977 M43.6657 530.296 L64.0042 530.296 L64.0042 536.152 L58.5933 536.152 Q61.8398 538.157 63.3994 541.149 Q64.9272 544.141 64.9272 548.47 Q64.9272 553.944 61.8716 557.191 Q58.7843 560.405 53.6281 560.405 Q47.6125 560.405 44.5569 556.395 Q41.5014 552.353 41.5014 544.364 L41.5014 536.152 L40.9285 536.152 Q36.8862 536.152 34.6901 538.826 Q32.4621 541.467 32.4621 546.274 Q32.4621 549.329 33.1941 552.226 Q33.9262 555.122 35.3903 557.796 L29.9795 557.796 Q28.7381 554.581 28.1334 551.557 Q27.4968 548.533 27.4968 545.669 Q27.4968 537.935 31.5072 534.115 Q35.5176 530.296 43.6657 530.296 Z" fill="#000000" fill-rule="nonzero" fill-opacity="1" /><path clip-path="url(#clip570)" d="M33.8307 497.576 Q33.2578 498.563 33.0032 499.74 Q32.7167 500.886 32.7167 502.287 Q32.7167 507.252 35.9632 509.925 Q39.1779 512.567 45.2253 512.567 L64.0042 512.567 L64.0042 518.455 L28.3562 518.455 L28.3562 512.567 L33.8944 512.567 Q30.6479 510.721 29.0883 507.761 Q27.4968 504.801 27.4968 500.568 Q27.4968 499.963 27.5923 499.231 Q27.656 498.499 27.8151 497.608 L33.8307 497.576 Z" fill="#000000" fill-rule="nonzero" fill-opacity="1" /><path clip-path="url(#clip570)" d="M33.7671 469.121 L14.479 469.121 L14.479 463.265 L64.0042 463.265 L64.0042 469.121 L58.657 469.121 Q61.8398 470.967 63.3994 473.8 Q64.9272 476.601 64.9272 480.548 Q64.9272 487.009 59.771 491.083 Q54.6147 495.125 46.212 495.125 Q37.8093 495.125 32.6531 491.083 Q27.4968 487.009 27.4968 480.548 Q27.4968 476.601 29.0564 473.8 Q30.5842 470.967 33.7671 469.121 M46.212 489.078 Q52.6732 489.078 56.3653 486.436 Q60.0256 483.762 60.0256 479.115 Q60.0256 474.468 56.3653 471.795 Q52.6732 469.121 46.212 469.121 Q39.7508 469.121 36.0905 471.795 Q32.3984 474.468 32.3984 479.115 Q32.3984 483.762 36.0905 486.436 Q39.7508 489.078 46.212 489.078 Z" fill="#000000" fill-rule="nonzero" fill-opacity="1" /><path clip-path="url(#clip570)" d="M836.192 20.1573 L825.092 50.2555 L847.332 50.2555 L836.192 20.1573 M831.574 12.096 L840.851 12.096 L863.9 72.576 L855.393 72.576 L849.884 57.061 L822.621 57.061 L817.112 72.576 L808.484 72.576 L831.574 12.096 Z" fill="#000000" fill-rule="nonzero" fill-opacity="1" /><path clip-path="url(#clip570)" d="M904.976 49.9314 Q904.976 41.7081 901.574 37.0496 Q898.211 32.3505 892.297 32.3505 Q886.383 32.3505 882.98 37.0496 Q879.618 41.7081 879.618 49.9314 Q879.618 58.1548 882.98 62.8538 Q886.383 67.5124 892.297 67.5124 Q898.211 67.5124 901.574 62.8538 Q904.976 58.1548 904.976 49.9314 M879.618 34.0924 Q881.967 30.0415 885.532 28.0971 Q889.137 26.1121 894.12 26.1121 Q902.384 26.1121 907.528 32.6746 Q912.714 39.2371 912.714 49.9314 Q912.714 60.6258 907.528 67.1883 Q902.384 73.7508 894.12 73.7508 Q889.137 73.7508 885.532 71.8063 Q881.967 69.8214 879.618 65.7705 L879.618 72.576 L872.123 72.576 L872.123 9.54393 L879.618 9.54393 L879.618 34.0924 Z" fill="#000000" fill-rule="nonzero" fill-opacity="1" /><path clip-path="url(#clip570)" d="M925.069 9.54393 L932.522 9.54393 L932.522 72.576 L925.069 72.576 L925.069 9.54393 Z" fill="#000000" fill-rule="nonzero" fill-opacity="1" /><path clip-path="url(#clip570)" d="M968.738 49.7694 Q959.704 49.7694 956.22 51.8354 Q952.736 53.9013 952.736 58.8839 Q952.736 62.8538 955.329 65.2034 Q957.962 67.5124 962.459 67.5124 Q968.657 67.5124 972.383 63.1374 Q976.151 58.7219 976.151 51.4303 L976.151 49.7694 L968.738 49.7694 M983.604 46.6907 L983.604 72.576 L976.151 72.576 L976.151 65.6895 Q973.599 69.8214 969.791 71.8063 Q965.983 73.7508 960.474 73.7508 Q953.506 73.7508 949.374 69.8619 Q945.283 65.9325 945.283 59.3701 Q945.283 51.7138 950.387 47.825 Q955.532 43.9361 965.699 43.9361 L976.151 43.9361 L976.151 43.2069 Q976.151 38.0623 972.748 35.2672 Q969.386 32.4315 963.269 32.4315 Q959.38 32.4315 955.694 33.3632 Q952.007 34.295 948.605 36.1584 L948.605 29.2718 Q952.696 27.692 956.544 26.9223 Q960.393 26.1121 964.039 26.1121 Q973.882 26.1121 978.743 31.2163 Q983.604 36.3204 983.604 46.6907 Z" fill="#000000" fill-rule="nonzero" fill-opacity="1" /><path clip-path="url(#clip570)" d="M1006.33 14.324 L1006.33 27.2059 L1021.68 27.2059 L1021.68 32.9987 L1006.33 32.9987 L1006.33 57.6282 Q1006.33 63.1779 1007.83 64.7578 Q1009.37 66.3376 1014.03 66.3376 L1021.68 66.3376 L1021.68 72.576 L1014.03 72.576 Q1005.4 72.576 1002.12 69.3758 Q998.836 66.1351 998.836 57.6282 L998.836 32.9987 L993.367 32.9987 L993.367 27.2059 L998.836 27.2059 L998.836 14.324 L1006.33 14.324 Z" fill="#000000" fill-rule="nonzero" fill-opacity="1" /><path clip-path="url(#clip570)" d="M1031.49 27.2059 L1038.94 27.2059 L1038.94 72.576 L1031.49 72.576 L1031.49 27.2059 M1031.49 9.54393 L1038.94 9.54393 L1038.94 18.9825 L1031.49 18.9825 L1031.49 9.54393 Z" fill="#000000" fill-rule="nonzero" fill-opacity="1" /><path clip-path="url(#clip570)" d="M1072.12 32.4315 Q1066.12 32.4315 1062.64 37.1306 Q1059.15 41.7891 1059.15 49.9314 Q1059.15 58.0738 1062.6 62.7728 Q1066.08 67.4314 1072.12 67.4314 Q1078.07 67.4314 1081.56 62.7323 Q1085.04 58.0333 1085.04 49.9314 Q1085.04 41.8701 1081.56 37.1711 Q1078.07 32.4315 1072.12 32.4315 M1072.12 26.1121 Q1081.84 26.1121 1087.39 32.4315 Q1092.94 38.7509 1092.94 49.9314 Q1092.94 61.0714 1087.39 67.4314 Q1081.84 73.7508 1072.12 73.7508 Q1062.35 73.7508 1056.8 67.4314 Q1051.29 61.0714 1051.29 49.9314 Q1051.29 38.7509 1056.8 32.4315 Q1062.35 26.1121 1072.12 26.1121 Z" fill="#000000" fill-rule="nonzero" fill-opacity="1" /><path clip-path="url(#clip570)" d="M1143.01 45.1919 L1143.01 72.576 L1135.55 72.576 L1135.55 45.4349 Q1135.55 38.994 1133.04 35.7938 Q1130.53 32.5936 1125.51 32.5936 Q1119.47 32.5936 1115.99 36.4419 Q1112.5 40.2903 1112.5 46.9338 L1112.5 72.576 L1105.01 72.576 L1105.01 27.2059 L1112.5 27.2059 L1112.5 34.2544 Q1115.18 30.163 1118.78 28.1376 Q1122.43 26.1121 1127.17 26.1121 Q1134.99 26.1121 1139 30.9732 Q1143.01 35.7938 1143.01 45.1919 Z" fill="#000000" fill-rule="nonzero" fill-opacity="1" /><path clip-path="url(#clip570)" d="M1229.86 16.7545 L1229.86 25.383 Q1225.73 21.5346 1221.03 19.6307 Q1216.37 17.7268 1211.1 17.7268 Q1200.73 17.7268 1195.22 24.0867 Q1189.71 30.4061 1189.71 42.3968 Q1189.71 54.3469 1195.22 60.7069 Q1200.73 67.0263 1211.1 67.0263 Q1216.37 67.0263 1221.03 65.1223 Q1225.73 63.2184 1229.86 59.3701 L1229.86 67.9175 Q1225.56 70.8341 1220.74 72.2924 Q1215.96 73.7508 1210.62 73.7508 Q1196.88 73.7508 1188.99 65.3654 Q1181.09 56.9395 1181.09 42.3968 Q1181.09 27.8135 1188.99 19.4281 Q1196.88 11.0023 1210.62 11.0023 Q1216.05 11.0023 1220.83 12.4606 Q1225.65 13.8784 1229.86 16.7545 Z" fill="#000000" fill-rule="nonzero" fill-opacity="1" /><path clip-path="url(#clip570)" d="M1268.46 34.1734 Q1267.21 33.4443 1265.71 33.1202 Q1264.25 32.7556 1262.47 32.7556 Q1256.15 32.7556 1252.75 36.8875 Q1249.38 40.9789 1249.38 48.6757 L1249.38 72.576 L1241.89 72.576 L1241.89 27.2059 L1249.38 27.2059 L1249.38 34.2544 Q1251.73 30.1225 1255.5 28.1376 Q1259.27 26.1121 1264.66 26.1121 Q1265.43 26.1121 1266.36 26.2337 Q1267.29 26.3147 1268.42 26.5172 L1268.46 34.1734 Z" fill="#000000" fill-rule="nonzero" fill-opacity="1" /><path clip-path="url(#clip570)" d="M1276.28 27.2059 L1283.74 27.2059 L1283.74 72.576 L1276.28 72.576 L1276.28 27.2059 M1276.28 9.54393 L1283.74 9.54393 L1283.74 18.9825 L1276.28 18.9825 L1276.28 9.54393 Z" fill="#000000" fill-rule="nonzero" fill-opacity="1" /><path clip-path="url(#clip570)" d="M1306.7 14.324 L1306.7 27.2059 L1322.06 27.2059 L1322.06 32.9987 L1306.7 32.9987 L1306.7 57.6282 Q1306.7 63.1779 1308.2 64.7578 Q1309.74 66.3376 1314.4 66.3376 L1322.06 66.3376 L1322.06 72.576 L1314.4 72.576 Q1305.77 72.576 1302.49 69.3758 Q1299.21 66.1351 1299.21 57.6282 L1299.21 32.9987 L1293.74 32.9987 L1293.74 27.2059 L1299.21 27.2059 L1299.21 14.324 L1306.7 14.324 Z" fill="#000000" fill-rule="nonzero" fill-opacity="1" /><path clip-path="url(#clip570)" d="M1331.86 27.2059 L1339.31 27.2059 L1339.31 72.576 L1331.86 72.576 L1331.86 27.2059 M1331.86 9.54393 L1339.31 9.54393 L1339.31 18.9825 L1331.86 18.9825 L1331.86 9.54393 Z" fill="#000000" fill-rule="nonzero" fill-opacity="1" /><path clip-path="url(#clip570)" d="M1387.56 28.9478 L1387.56 35.9153 Q1384.4 34.1734 1381.2 33.3227 Q1378.04 32.4315 1374.8 32.4315 Q1367.55 32.4315 1363.54 37.0496 Q1359.53 41.6271 1359.53 49.9314 Q1359.53 58.2358 1363.54 62.8538 Q1367.55 67.4314 1374.8 67.4314 Q1378.04 67.4314 1381.2 66.5807 Q1384.4 65.6895 1387.56 63.9476 L1387.56 70.8341 Q1384.44 72.2924 1381.08 73.0216 Q1377.76 73.7508 1373.99 73.7508 Q1363.74 73.7508 1357.71 67.3098 Q1351.67 60.8689 1351.67 49.9314 Q1351.67 38.832 1357.75 32.472 Q1363.86 26.1121 1374.48 26.1121 Q1377.92 26.1121 1381.2 26.8413 Q1384.48 27.5299 1387.56 28.9478 Z" fill="#000000" fill-rule="nonzero" fill-opacity="1" /><path clip-path="url(#clip570)" d="M1421.14 49.7694 Q1412.11 49.7694 1408.63 51.8354 Q1405.14 53.9013 1405.14 58.8839 Q1405.14 62.8538 1407.73 65.2034 Q1410.37 67.5124 1414.86 67.5124 Q1421.06 67.5124 1424.79 63.1374 Q1428.56 58.7219 1428.56 51.4303 L1428.56 49.7694 L1421.14 49.7694 M1436.01 46.6907 L1436.01 72.576 L1428.56 72.576 L1428.56 65.6895 Q1426 69.8214 1422.2 71.8063 Q1418.39 73.7508 1412.88 73.7508 Q1405.91 73.7508 1401.78 69.8619 Q1397.69 65.9325 1397.69 59.3701 Q1397.69 51.7138 1402.79 47.825 Q1407.94 43.9361 1418.1 43.9361 L1428.56 43.9361 L1428.56 43.2069 Q1428.56 38.0623 1425.15 35.2672 Q1421.79 32.4315 1415.67 32.4315 Q1411.78 32.4315 1408.1 33.3632 Q1404.41 34.295 1401.01 36.1584 L1401.01 29.2718 Q1405.1 27.692 1408.95 26.9223 Q1412.8 26.1121 1416.44 26.1121 Q1426.29 26.1121 1431.15 31.2163 Q1436.01 36.3204 1436.01 46.6907 Z" fill="#000000" fill-rule="nonzero" fill-opacity="1" /><path clip-path="url(#clip570)" d="M1451.36 9.54393 L1458.82 9.54393 L1458.82 72.576 L1451.36 72.576 L1451.36 9.54393 Z" fill="#000000" fill-rule="nonzero" fill-opacity="1" /><path clip-path="url(#clip570)" d="M1474.41 27.2059 L1481.87 27.2059 L1481.87 72.576 L1474.41 72.576 L1474.41 27.2059 M1474.41 9.54393 L1481.87 9.54393 L1481.87 18.9825 L1474.41 18.9825 L1474.41 9.54393 Z" fill="#000000" fill-rule="nonzero" fill-opacity="1" /><path clip-path="url(#clip570)" d="M1504.83 14.324 L1504.83 27.2059 L1520.19 27.2059 L1520.19 32.9987 L1504.83 32.9987 L1504.83 57.6282 Q1504.83 63.1779 1506.33 64.7578 Q1507.87 66.3376 1512.53 66.3376 L1520.19 66.3376 L1520.19 72.576 L1512.53 72.576 Q1503.9 72.576 1500.62 69.3758 Q1497.34 66.1351 1497.34 57.6282 L1497.34 32.9987 L1491.87 32.9987 L1491.87 27.2059 L1497.34 27.2059 L1497.34 14.324 L1504.83 14.324 Z" fill="#000000" fill-rule="nonzero" fill-opacity="1" /><path clip-path="url(#clip570)" d="M1548.87 76.7889 Q1545.71 84.8907 1542.71 87.3618 Q1539.71 89.8329 1534.69 89.8329 L1528.73 89.8329 L1528.73 83.5945 L1533.11 83.5945 Q1536.19 83.5945 1537.89 82.1361 Q1539.59 80.6778 1541.66 75.2496 L1542.99 71.8468 L1524.64 27.2059 L1532.54 27.2059 L1546.72 62.6918 L1560.9 27.2059 L1568.8 27.2059 L1548.87 76.7889 Z" fill="#000000" fill-rule="nonzero" fill-opacity="1" /><path clip-path="url(#clip570)" d="M1574.96 62.2867 L1583.5 62.2867 L1583.5 72.576 L1574.96 72.576 L1574.96 62.2867 M1574.96 29.6769 L1583.5 29.6769 L1583.5 39.9662 L1574.96 39.9662 L1574.96 29.6769 Z" fill="#000000" fill-rule="nonzero" fill-opacity="1" /><path clip-path="url(#clip570)" d="M1619.31 12.096 L1670.48 12.096 L1670.48 18.9825 L1649.01 18.9825 L1649.01 72.576 L1640.78 72.576 L1640.78 18.9825 L1619.31 18.9825 L1619.31 12.096 Z" fill="#000000" fill-rule="nonzero" fill-opacity="1" /><path clip-path="url(#clip570)" d="M1675.5 27.2059 L1682.95 27.2059 L1682.95 72.576 L1675.5 72.576 L1675.5 27.2059 M1675.5 9.54393 L1682.95 9.54393 L1682.95 18.9825 L1675.5 18.9825 L1675.5 9.54393 Z" fill="#000000" fill-rule="nonzero" fill-opacity="1" /><path clip-path="url(#clip570)" d="M1737.36 48.0275 L1737.36 51.6733 L1703.09 51.6733 Q1703.57 59.3701 1707.7 63.421 Q1711.88 67.4314 1719.29 67.4314 Q1723.58 67.4314 1727.59 66.3781 Q1731.64 65.3249 1735.61 63.2184 L1735.61 70.267 Q1731.6 71.9684 1727.39 72.8596 Q1723.18 73.7508 1718.84 73.7508 Q1707.99 73.7508 1701.63 67.4314 Q1695.31 61.1119 1695.31 50.3365 Q1695.31 39.1965 1701.3 32.6746 Q1707.34 26.1121 1717.55 26.1121 Q1726.7 26.1121 1732.01 32.0264 Q1737.36 37.9003 1737.36 48.0275 M1729.9 45.84 Q1729.82 39.7232 1726.46 36.0774 Q1723.14 32.4315 1717.63 32.4315 Q1711.39 32.4315 1707.62 35.9558 Q1703.9 39.4801 1703.33 45.8805 L1729.9 45.84 Z" fill="#000000" fill-rule="nonzero" fill-opacity="1" /><path clip-path="url(#clip570)" d="M1775.88 34.1734 Q1774.62 33.4443 1773.13 33.1202 Q1771.67 32.7556 1769.88 32.7556 Q1763.57 32.7556 1760.16 36.8875 Q1756.8 40.9789 1756.8 48.6757 L1756.8 72.576 L1749.31 72.576 L1749.31 27.2059 L1756.8 27.2059 L1756.8 34.2544 Q1759.15 30.1225 1762.92 28.1376 Q1766.68 26.1121 1772.07 26.1121 Q1772.84 26.1121 1773.77 26.2337 Q1774.71 26.3147 1775.84 26.5172 L1775.88 34.1734 Z" fill="#000000" fill-rule="nonzero" fill-opacity="1" /><path clip-path="url(#clip570)" d="M1818.17 65.6895 L1846.73 65.6895 L1846.73 72.576 L1808.33 72.576 L1808.33 65.6895 Q1812.99 60.8689 1821.01 52.7671 Q1829.07 44.6248 1831.13 42.2752 Q1835.06 37.8598 1836.6 34.8216 Q1838.18 31.7429 1838.18 28.7857 Q1838.18 23.9651 1834.78 20.927 Q1831.42 17.8888 1825.99 17.8888 Q1822.14 17.8888 1817.85 19.2256 Q1813.59 20.5624 1808.73 23.2765 L1808.73 15.0127 Q1813.68 13.0277 1817.97 12.015 Q1822.26 11.0023 1825.83 11.0023 Q1835.23 11.0023 1840.82 15.7013 Q1846.41 20.4004 1846.41 28.2591 Q1846.41 31.9859 1844.99 35.3482 Q1843.61 38.6699 1839.93 43.2069 Q1838.91 44.3817 1833.48 50.0125 Q1828.06 55.6027 1818.17 65.6895 Z" fill="#000000" fill-rule="nonzero" fill-opacity="1" /><circle clip-path="url(#clip572)" cx="726.798" cy="123.814" r="14.4" fill="#009af9" fill-rule="evenodd" fill-opacity="0.6" stroke="#000000" stroke-opacity="0.6" stroke-width="3.2"/>
<circle clip-path="url(#clip572)" cx="801.997" cy="123.688" r="14.4" fill="#009af9" fill-rule="evenodd" fill-opacity="0.6" stroke="#000000" stroke-opacity="0.6" stroke-width="3.2"/>
<circle clip-path="url(#clip572)" cx="663.524" cy="123.987" r="14.4" fill="#009af9" fill-rule="evenodd" fill-opacity="0.6" stroke="#000000" stroke-opacity="0.6" stroke-width="3.2"/>
<circle clip-path="url(#clip572)" cx="605.072" cy="123.785" r="14.4" fill="#009af9" fill-rule="evenodd" fill-opacity="0.6" stroke="#000000" stroke-opacity="0.6" stroke-width="3.2"/>
<circle clip-path="url(#clip572)" cx="822.106" cy="123.627" r="14.4" fill="#009af9" fill-rule="evenodd" fill-opacity="0.6" stroke="#000000" stroke-opacity="0.6" stroke-width="3.2"/>
<circle clip-path="url(#clip572)" cx="539.904" cy="123.656" r="14.4" fill="#009af9" fill-rule="evenodd" fill-opacity="0.6" stroke="#000000" stroke-opacity="0.6" stroke-width="3.2"/>
<circle clip-path="url(#clip572)" cx="499.546" cy="123.662" r="14.4" fill="#009af9" fill-rule="evenodd" fill-opacity="0.6" stroke="#000000" stroke-opacity="0.6" stroke-width="3.2"/>
<circle clip-path="url(#clip572)" cx="713.124" cy="123.87" r="14.4" fill="#009af9" fill-rule="evenodd" fill-opacity="0.6" stroke="#000000" stroke-opacity="0.6" stroke-width="3.2"/>
<circle clip-path="url(#clip572)" cx="582.336" cy="123.802" r="14.4" fill="#009af9" fill-rule="evenodd" fill-opacity="0.6" stroke="#000000" stroke-opacity="0.6" stroke-width="3.2"/>
<circle clip-path="url(#clip572)" cx="627.759" cy="123.637" r="14.4" fill="#009af9" fill-rule="evenodd" fill-opacity="0.6" stroke="#000000" stroke-opacity="0.6" stroke-width="3.2"/>
<circle clip-path="url(#clip572)" cx="772.392" cy="123.714" r="14.4" fill="#009af9" fill-rule="evenodd" fill-opacity="0.6" stroke="#000000" stroke-opacity="0.6" stroke-width="3.2"/>
<circle clip-path="url(#clip572)" cx="605.925" cy="123.693" r="14.4" fill="#009af9" fill-rule="evenodd" fill-opacity="0.6" stroke="#000000" stroke-opacity="0.6" stroke-width="3.2"/>
<circle clip-path="url(#clip572)" cx="543.731" cy="123.773" r="14.4" fill="#009af9" fill-rule="evenodd" fill-opacity="0.6" stroke="#000000" stroke-opacity="0.6" stroke-width="3.2"/>
<circle clip-path="url(#clip572)" cx="592.396" cy="123.739" r="14.4" fill="#009af9" fill-rule="evenodd" fill-opacity="0.6" stroke="#000000" stroke-opacity="0.6" stroke-width="3.2"/>
<circle clip-path="url(#clip572)" cx="700.784" cy="123.621" r="14.4" fill="#009af9" fill-rule="evenodd" fill-opacity="0.6" stroke="#000000" stroke-opacity="0.6" stroke-width="3.2"/>
<circle clip-path="url(#clip572)" cx="1425.07" cy="123.645" r="14.4" fill="#e26f46" fill-rule="evenodd" fill-opacity="0.6" stroke="#000000" stroke-opacity="0.6" stroke-width="3.2"/>
<circle clip-path="url(#clip572)" cx="1412.61" cy="123.73" r="14.4" fill="#e26f46" fill-rule="evenodd" fill-opacity="0.6" stroke="#000000" stroke-opacity="0.6" stroke-width="3.2"/>
<circle clip-path="url(#clip572)" cx="1352.39" cy="123.697" r="14.4" fill="#e26f46" fill-rule="evenodd" fill-opacity="0.6" stroke="#000000" stroke-opacity="0.6" stroke-width="3.2"/>
<circle clip-path="url(#clip572)" cx="1277.6" cy="123.872" r="14.4" fill="#e26f46" fill-rule="evenodd" fill-opacity="0.6" stroke="#000000" stroke-opacity="0.6" stroke-width="3.2"/>
<circle clip-path="url(#clip572)" cx="1283.75" cy="123.846" r="14.4" fill="#e26f46" fill-rule="evenodd" fill-opacity="0.6" stroke="#000000" stroke-opacity="0.6" stroke-width="3.2"/>
<circle clip-path="url(#clip572)" cx="1304.43" cy="123.614" r="14.4" fill="#e26f46" fill-rule="evenodd" fill-opacity="0.6" stroke="#000000" stroke-opacity="0.6" stroke-width="3.2"/>
<circle clip-path="url(#clip572)" cx="1286.41" cy="123.817" r="14.4" fill="#e26f46" fill-rule="evenodd" fill-opacity="0.6" stroke="#000000" stroke-opacity="0.6" stroke-width="3.2"/>
<circle clip-path="url(#clip572)" cx="1317.88" cy="123.633" r="14.4" fill="#e26f46" fill-rule="evenodd" fill-opacity="0.6" stroke="#000000" stroke-opacity="0.6" stroke-width="3.2"/>
<circle clip-path="url(#clip572)" cx="1217.02" cy="123.859" r="14.4" fill="#e26f46" fill-rule="evenodd" fill-opacity="0.6" stroke="#000000" stroke-opacity="0.6" stroke-width="3.2"/>
<circle clip-path="url(#clip572)" cx="1497.77" cy="123.819" r="14.4" fill="#e26f46" fill-rule="evenodd" fill-opacity="0.6" stroke="#000000" stroke-opacity="0.6" stroke-width="3.2"/>
<circle clip-path="url(#clip572)" cx="1360.96" cy="123.622" r="14.4" fill="#e26f46" fill-rule="evenodd" fill-opacity="0.6" stroke="#000000" stroke-opacity="0.6" stroke-width="3.2"/>
<circle clip-path="url(#clip572)" cx="1234.83" cy="123.779" r="14.4" fill="#e26f46" fill-rule="evenodd" fill-opacity="0.6" stroke="#000000" stroke-opacity="0.6" stroke-width="3.2"/>
<circle clip-path="url(#clip572)" cx="1299.42" cy="123.564" r="14.4" fill="#e26f46" fill-rule="evenodd" fill-opacity="0.6" stroke="#000000" stroke-opacity="0.6" stroke-width="3.2"/>
<circle clip-path="url(#clip572)" cx="1428.86" cy="123.753" r="14.4" fill="#e26f46" fill-rule="evenodd" fill-opacity="0.6" stroke="#000000" stroke-opacity="0.6" stroke-width="3.2"/>
<circle clip-path="url(#clip572)" cx="1420.59" cy="123.729" r="14.4" fill="#e26f46" fill-rule="evenodd" fill-opacity="0.6" stroke="#000000" stroke-opacity="0.6" stroke-width="3.2"/>
<circle clip-path="url(#clip572)" cx="2092.76" cy="647.194" r="14.4" fill="#3da44d" fill-rule="evenodd" fill-opacity="0.6" stroke="#000000" stroke-opacity="0.6" stroke-width="3.2"/>
<circle clip-path="url(#clip572)" cx="2153.61" cy="575.528" r="14.4" fill="#3da44d" fill-rule="evenodd" fill-opacity="0.6" stroke="#000000" stroke-opacity="0.6" stroke-width="3.2"/>
<circle clip-path="url(#clip572)" cx="2094.93" cy="343.917" r="14.4" fill="#3da44d" fill-rule="evenodd" fill-opacity="0.6" stroke="#000000" stroke-opacity="0.6" stroke-width="3.2"/>
<circle clip-path="url(#clip572)" cx="2002.57" cy="361.525" r="14.4" fill="#3da44d" fill-rule="evenodd" fill-opacity="0.6" stroke="#000000" stroke-opacity="0.6" stroke-width="3.2"/>
<circle clip-path="url(#clip572)" cx="2092.46" cy="627.581" r="14.4" fill="#3da44d" fill-rule="evenodd" fill-opacity="0.6" stroke="#000000" stroke-opacity="0.6" stroke-width="3.2"/>
<circle clip-path="url(#clip572)" cx="2074" cy="124.148" r="14.4" fill="#3da44d" fill-rule="evenodd" fill-opacity="0.6" stroke="#000000" stroke-opacity="0.6" stroke-width="3.2"/>
<circle clip-path="url(#clip572)" cx="1922" cy="616.555" r="14.4" fill="#3da44d" fill-rule="evenodd" fill-opacity="0.6" stroke="#000000" stroke-opacity="0.6" stroke-width="3.2"/>
<circle clip-path="url(#clip572)" cx="1931.89" cy="144.271" r="14.4" fill="#3da44d" fill-rule="evenodd" fill-opacity="0.6" stroke="#000000" stroke-opacity="0.6" stroke-width="3.2"/>
<circle clip-path="url(#clip572)" cx="1936.28" cy="282.706" r="14.4" fill="#3da44d" fill-rule="evenodd" fill-opacity="0.6" stroke="#000000" stroke-opacity="0.6" stroke-width="3.2"/>
<circle clip-path="url(#clip572)" cx="1942.85" cy="1281.62" r="14.4" fill="#3da44d" fill-rule="evenodd" fill-opacity="0.6" stroke="#000000" stroke-opacity="0.6" stroke-width="3.2"/>
<circle clip-path="url(#clip572)" cx="1908.41" cy="602.378" r="14.4" fill="#3da44d" fill-rule="evenodd" fill-opacity="0.6" stroke="#000000" stroke-opacity="0.6" stroke-width="3.2"/>
<circle clip-path="url(#clip572)" cx="2001.69" cy="1486.45" r="14.4" fill="#3da44d" fill-rule="evenodd" fill-opacity="0.6" stroke="#000000" stroke-opacity="0.6" stroke-width="3.2"/>
<circle clip-path="url(#clip572)" cx="2002.44" cy="124.341" r="14.4" fill="#3da44d" fill-rule="evenodd" fill-opacity="0.6" stroke="#000000" stroke-opacity="0.6" stroke-width="3.2"/>
<circle clip-path="url(#clip572)" cx="2099.17" cy="382.275" r="14.4" fill="#3da44d" fill-rule="evenodd" fill-opacity="0.6" stroke="#000000" stroke-opacity="0.6" stroke-width="3.2"/>
<circle clip-path="url(#clip572)" cx="1942.63" cy="1468.27" r="14.4" fill="#3da44d" fill-rule="evenodd" fill-opacity="0.6" stroke="#000000" stroke-opacity="0.6" stroke-width="3.2"/>
<path clip-path="url(#clip572)" d="M1729.28 604.584 L1729.28 123.472 L2239.99 123.472 L2239.99 604.584 L1729.28 604.584 L1729.28 604.584  Z" fill="#808080" fill-rule="evenodd" fill-opacity="0.3"/>
<polyline clip-path="url(#clip572)" style="stroke:#000000; stroke-linecap:round; stroke-linejoin:round; stroke-width:4; stroke-opacity:0.3; fill:none" points="1729.28,604.584 1729.28,123.472 2239.99,123.472 2239.99,604.584 1729.28,604.584 "/>
<path clip-path="url(#clip572)" d="M1053.61 123.732 L1053.61 123.472 L1564.32 123.472 L1564.32 123.732 L1053.61 123.732 L1053.61 123.732  Z" fill="#808080" fill-rule="evenodd" fill-opacity="0.3"/>
<polyline clip-path="url(#clip572)" style="stroke:#000000; stroke-linecap:round; stroke-linejoin:round; stroke-width:4; stroke-opacity:0.3; fill:none" points="1053.61,123.732 1053.61,123.472 1564.32,123.472 1564.32,123.732 1053.61,123.732 "/>
<path clip-path="url(#clip572)" d="M415.228 123.738 L415.228 123.472 L925.934 123.472 L925.934 123.738 L415.228 123.738 L415.228 123.738  Z" fill="#808080" fill-rule="evenodd" fill-opacity="0.3"/>
<polyline clip-path="url(#clip572)" style="stroke:#000000; stroke-linecap:round; stroke-linejoin:round; stroke-width:4; stroke-opacity:0.3; fill:none" points="415.228,123.738 415.228,123.472 925.934,123.472 925.934,123.738 415.228,123.738 "/>
<circle clip-path="url(#clip572)" style="fill:#808080; stroke:none; fill-opacity:0" cx="1984.63" cy="604.584" r="2"/>
<circle clip-path="url(#clip572)" style="fill:#808080; stroke:none; fill-opacity:0" cx="1308.96" cy="123.732" r="2"/>
<circle clip-path="url(#clip572)" style="fill:#808080; stroke:none; fill-opacity:0" cx="670.581" cy="123.738" r="2"/>
<polyline clip-path="url(#clip572)" style="stroke:#000000; stroke-linecap:round; stroke-linejoin:round; stroke-width:4; stroke-opacity:0.3; fill:none" points="1984.63,1062.74 1984.63,146.424 "/>
<polyline clip-path="url(#clip572)" style="stroke:#000000; stroke-linecap:round; stroke-linejoin:round; stroke-width:4; stroke-opacity:0.3; fill:none" points="1308.96,123.832 1308.96,123.632 "/>
<polyline clip-path="url(#clip572)" style="stroke:#000000; stroke-linecap:round; stroke-linejoin:round; stroke-width:4; stroke-opacity:0.3; fill:none" points="670.581,123.84 670.581,123.636 "/>
<line clip-path="url(#clip572)" x1="2000.63" y1="1062.74" x2="1968.63" y2="1062.74" style="stroke:#000000; stroke-width:4; stroke-opacity:0.3"/>
<line clip-path="url(#clip572)" x1="2000.63" y1="146.424" x2="1968.63" y2="146.424" style="stroke:#000000; stroke-width:4; stroke-opacity:0.3"/>
<line clip-path="url(#clip572)" x1="1324.96" y1="123.832" x2="1292.96" y2="123.832" style="stroke:#000000; stroke-width:4; stroke-opacity:0.3"/>
<line clip-path="url(#clip572)" x1="1324.96" y1="123.632" x2="1292.96" y2="123.632" style="stroke:#000000; stroke-width:4; stroke-opacity:0.3"/>
<line clip-path="url(#clip572)" x1="686.581" y1="123.84" x2="654.581" y2="123.84" style="stroke:#000000; stroke-width:4; stroke-opacity:0.3"/>
<line clip-path="url(#clip572)" x1="686.581" y1="123.636" x2="654.581" y2="123.636" style="stroke:#000000; stroke-width:4; stroke-opacity:0.3"/>
<path clip-path="url(#clip570)" d="M1773.81 1441.02 L2284.41 1441.02 L2284.41 1181.82 L1773.81 1181.82  Z" fill="#ffffff" fill-rule="evenodd" fill-opacity="1"/>
<polyline clip-path="url(#clip570)" style="stroke:#000000; stroke-linecap:round; stroke-linejoin:round; stroke-width:4; stroke-opacity:1; fill:none" points="1773.81,1441.02 2284.41,1441.02 2284.41,1181.82 1773.81,1181.82 1773.81,1441.02 "/>
<circle clip-path="url(#clip570)" cx="1864.93" cy="1233.66" r="20.48" fill="#009af9" fill-rule="evenodd" fill-opacity="0.6" stroke="#000000" stroke-opacity="0.6" stroke-width="4.55111"/>
<path clip-path="url(#clip570)" d="M1956.05 1216.38 L1975.92 1216.38 L1975.92 1220.31 L1960.73 1220.31 L1960.73 1230.5 L1974.43 1230.5 L1974.43 1234.43 L1960.73 1234.43 L1960.73 1250.94 L1956.05 1250.94 L1956.05 1216.38 Z" fill="#000000" fill-rule="nonzero" fill-opacity="1" /><path clip-path="url(#clip570)" d="M1980.11 1240.7 L1980.11 1225.01 L1984.36 1225.01 L1984.36 1240.54 Q1984.36 1244.22 1985.8 1246.07 Q1987.23 1247.9 1990.11 1247.9 Q1993.55 1247.9 1995.55 1245.7 Q1997.56 1243.5 1997.56 1239.71 L1997.56 1225.01 L2001.82 1225.01 L2001.82 1250.94 L1997.56 1250.94 L1997.56 1246.95 Q1996.01 1249.31 1993.95 1250.47 Q1991.91 1251.61 1989.2 1251.61 Q1984.73 1251.61 1982.42 1248.83 Q1980.11 1246.05 1980.11 1240.7 M1990.82 1224.38 L1990.82 1224.38 Z" fill="#000000" fill-rule="nonzero" fill-opacity="1" /><path clip-path="url(#clip570)" d="M2010.59 1214.92 L2014.85 1214.92 L2014.85 1250.94 L2010.59 1250.94 L2010.59 1214.92 Z" fill="#000000" fill-rule="nonzero" fill-opacity="1" /><path clip-path="url(#clip570)" d="M2023.76 1214.92 L2028.02 1214.92 L2028.02 1250.94 L2023.76 1250.94 L2023.76 1214.92 Z" fill="#000000" fill-rule="nonzero" fill-opacity="1" /><path clip-path="url(#clip570)" d="M2068.58 1234.73 Q2070.08 1235.24 2071.49 1236.91 Q2072.93 1238.57 2074.36 1241.49 L2079.11 1250.94 L2074.09 1250.94 L2069.67 1242.07 Q2067.95 1238.6 2066.33 1237.46 Q2064.73 1236.33 2061.96 1236.33 L2056.86 1236.33 L2056.86 1250.94 L2052.19 1250.94 L2052.19 1216.38 L2062.74 1216.38 Q2068.67 1216.38 2071.59 1218.85 Q2074.5 1221.33 2074.5 1226.33 Q2074.5 1229.59 2072.98 1231.75 Q2071.47 1233.9 2068.58 1234.73 M2056.86 1220.22 L2056.86 1232.49 L2062.74 1232.49 Q2066.12 1232.49 2067.84 1230.94 Q2069.57 1229.36 2069.57 1226.33 Q2069.57 1223.3 2067.84 1221.77 Q2066.12 1220.22 2062.74 1220.22 L2056.86 1220.22 Z" fill="#000000" fill-rule="nonzero" fill-opacity="1" /><path clip-path="url(#clip570)" d="M2104.99 1236.91 L2104.99 1238.99 L2085.41 1238.99 Q2085.68 1243.39 2088.04 1245.7 Q2090.43 1248 2094.66 1248 Q2097.12 1248 2099.41 1247.39 Q2101.73 1246.79 2103.99 1245.59 L2103.99 1249.62 Q2101.7 1250.59 2099.29 1251.1 Q2096.89 1251.61 2094.41 1251.61 Q2088.21 1251.61 2084.57 1248 Q2080.96 1244.38 2080.96 1238.23 Q2080.96 1231.86 2084.39 1228.13 Q2087.84 1224.38 2093.67 1224.38 Q2098.9 1224.38 2101.93 1227.76 Q2104.99 1231.12 2104.99 1236.91 M2100.73 1235.66 Q2100.68 1232.16 2098.76 1230.08 Q2096.86 1228 2093.72 1228 Q2090.15 1228 2088 1230.01 Q2085.87 1232.02 2085.54 1235.68 L2100.73 1235.66 Z" fill="#000000" fill-rule="nonzero" fill-opacity="1" /><path clip-path="url(#clip570)" d="M2125.1 1214.92 L2125.1 1218.46 L2121.03 1218.46 Q2118.74 1218.46 2117.84 1219.38 Q2116.96 1220.31 2116.96 1222.72 L2116.96 1225.01 L2123.97 1225.01 L2123.97 1228.32 L2116.96 1228.32 L2116.96 1250.94 L2112.67 1250.94 L2112.67 1228.32 L2108.6 1228.32 L2108.6 1225.01 L2112.67 1225.01 L2112.67 1223.2 Q2112.67 1218.88 2114.69 1216.91 Q2116.7 1214.92 2121.08 1214.92 L2125.1 1214.92 Z" fill="#000000" fill-rule="nonzero" fill-opacity="1" /><path clip-path="url(#clip570)" d="M2128.67 1214.92 L2132.93 1214.92 L2132.93 1250.94 L2128.67 1250.94 L2128.67 1214.92 Z" fill="#000000" fill-rule="nonzero" fill-opacity="1" /><path clip-path="url(#clip570)" d="M2164.02 1236.91 L2164.02 1238.99 L2144.43 1238.99 Q2144.71 1243.39 2147.07 1245.7 Q2149.46 1248 2153.69 1248 Q2156.15 1248 2158.44 1247.39 Q2160.75 1246.79 2163.02 1245.59 L2163.02 1249.62 Q2160.73 1250.59 2158.32 1251.1 Q2155.91 1251.61 2153.44 1251.61 Q2147.23 1251.61 2143.6 1248 Q2139.99 1244.38 2139.99 1238.23 Q2139.99 1231.86 2143.41 1228.13 Q2146.86 1224.38 2152.7 1224.38 Q2157.93 1224.38 2160.96 1227.76 Q2164.02 1231.12 2164.02 1236.91 M2159.76 1235.66 Q2159.71 1232.16 2157.79 1230.08 Q2155.89 1228 2152.74 1228 Q2149.18 1228 2147.03 1230.01 Q2144.9 1232.02 2144.57 1235.68 L2159.76 1235.66 Z" fill="#000000" fill-rule="nonzero" fill-opacity="1" /><path clip-path="url(#clip570)" d="M2191.72 1225.01 L2182.35 1237.63 L2192.21 1250.94 L2187.19 1250.94 L2179.64 1240.75 L2172.1 1250.94 L2167.07 1250.94 L2177.14 1237.37 L2167.93 1225.01 L2172.95 1225.01 L2179.83 1234.25 L2186.7 1225.01 L2191.72 1225.01 Z" fill="#000000" fill-rule="nonzero" fill-opacity="1" /><path clip-path="url(#clip570)" d="M2198.23 1225.01 L2202.49 1225.01 L2202.49 1250.94 L2198.23 1250.94 L2198.23 1225.01 M2198.23 1214.92 L2202.49 1214.92 L2202.49 1220.31 L2198.23 1220.31 L2198.23 1214.92 Z" fill="#000000" fill-rule="nonzero" fill-opacity="1" /><path clip-path="url(#clip570)" d="M2208.34 1225.01 L2212.86 1225.01 L2220.96 1246.77 L2229.06 1225.01 L2233.58 1225.01 L2223.85 1250.94 L2218.07 1250.94 L2208.34 1225.01 Z" fill="#000000" fill-rule="nonzero" fill-opacity="1" /><path clip-path="url(#clip570)" d="M2261.63 1236.91 L2261.63 1238.99 L2242.05 1238.99 Q2242.33 1243.39 2244.69 1245.7 Q2247.07 1248 2251.31 1248 Q2253.76 1248 2256.05 1247.39 Q2258.37 1246.79 2260.64 1245.59 L2260.64 1249.62 Q2258.34 1250.59 2255.94 1251.1 Q2253.53 1251.61 2251.05 1251.61 Q2244.85 1251.61 2241.22 1248 Q2237.6 1244.38 2237.6 1238.23 Q2237.6 1231.86 2241.03 1228.13 Q2244.48 1224.38 2250.31 1224.38 Q2255.54 1224.38 2258.58 1227.76 Q2261.63 1231.12 2261.63 1236.91 M2257.37 1235.66 Q2257.33 1232.16 2255.4 1230.08 Q2253.51 1228 2250.36 1228 Q2246.79 1228 2244.64 1230.01 Q2242.51 1232.02 2242.19 1235.68 L2257.37 1235.66 Z" fill="#000000" fill-rule="nonzero" fill-opacity="1" /><circle clip-path="url(#clip570)" cx="1864.93" cy="1285.5" r="20.48" fill="#e26f46" fill-rule="evenodd" fill-opacity="0.6" stroke="#000000" stroke-opacity="0.6" stroke-width="4.55111"/>
<path clip-path="url(#clip570)" d="M1972.07 1271.39 Q1966.98 1271.39 1963.97 1275.18 Q1960.99 1278.98 1960.99 1285.53 Q1960.99 1292.06 1963.97 1295.85 Q1966.98 1299.65 1972.07 1299.65 Q1977.17 1299.65 1980.13 1295.85 Q1983.11 1292.06 1983.11 1285.53 Q1983.11 1278.98 1980.13 1275.18 Q1977.17 1271.39 1972.07 1271.39 M1972.07 1267.59 Q1979.34 1267.59 1983.69 1272.47 Q1988.05 1277.34 1988.05 1285.53 Q1988.05 1293.7 1983.69 1298.59 Q1979.34 1303.45 1972.07 1303.45 Q1964.78 1303.45 1960.41 1298.59 Q1956.05 1293.72 1956.05 1285.53 Q1956.05 1277.34 1960.41 1272.47 Q1964.78 1267.59 1972.07 1267.59 Z" fill="#000000" fill-rule="nonzero" fill-opacity="1" /><path clip-path="url(#clip570)" d="M2010.2 1280.83 Q2009.48 1280.41 2008.62 1280.23 Q2007.79 1280.02 2006.77 1280.02 Q2003.16 1280.02 2001.22 1282.38 Q1999.3 1284.72 1999.3 1289.12 L1999.3 1302.78 L1995.01 1302.78 L1995.01 1276.85 L1999.3 1276.85 L1999.3 1280.88 Q2000.64 1278.52 2002.79 1277.38 Q2004.94 1276.22 2008.02 1276.22 Q2008.46 1276.22 2008.99 1276.29 Q2009.53 1276.34 2010.17 1276.46 L2010.2 1280.83 Z" fill="#000000" fill-rule="nonzero" fill-opacity="1" /><path clip-path="url(#clip570)" d="M2026.45 1289.74 Q2021.29 1289.74 2019.29 1290.92 Q2017.3 1292.1 2017.3 1294.95 Q2017.3 1297.22 2018.79 1298.56 Q2020.29 1299.88 2022.86 1299.88 Q2026.4 1299.88 2028.53 1297.38 Q2030.68 1294.86 2030.68 1290.69 L2030.68 1289.74 L2026.45 1289.74 M2034.94 1287.98 L2034.94 1302.78 L2030.68 1302.78 L2030.68 1298.84 Q2029.23 1301.2 2027.05 1302.34 Q2024.87 1303.45 2021.73 1303.45 Q2017.74 1303.45 2015.38 1301.22 Q2013.04 1298.98 2013.04 1295.23 Q2013.04 1290.85 2015.96 1288.63 Q2018.9 1286.41 2024.71 1286.41 L2030.68 1286.41 L2030.68 1285.99 Q2030.68 1283.05 2028.74 1281.46 Q2026.82 1279.84 2023.32 1279.84 Q2021.1 1279.84 2018.99 1280.37 Q2016.89 1280.9 2014.94 1281.97 L2014.94 1278.03 Q2017.28 1277.13 2019.48 1276.69 Q2021.68 1276.22 2023.76 1276.22 Q2029.39 1276.22 2032.17 1279.14 Q2034.94 1282.06 2034.94 1287.98 Z" fill="#000000" fill-rule="nonzero" fill-opacity="1" /><path clip-path="url(#clip570)" d="M2062.37 1277.84 L2062.37 1281.83 Q2060.57 1280.83 2058.74 1280.34 Q2056.93 1279.84 2055.08 1279.84 Q2050.94 1279.84 2048.65 1282.47 Q2046.35 1285.09 2046.35 1289.84 Q2046.35 1294.58 2048.65 1297.22 Q2050.94 1299.84 2055.08 1299.84 Q2056.93 1299.84 2058.74 1299.35 Q2060.57 1298.84 2062.37 1297.84 L2062.37 1301.78 Q2060.59 1302.61 2058.67 1303.03 Q2056.77 1303.45 2054.62 1303.45 Q2048.76 1303.45 2045.31 1299.77 Q2041.86 1296.09 2041.86 1289.84 Q2041.86 1283.49 2045.34 1279.86 Q2048.83 1276.22 2054.9 1276.22 Q2056.86 1276.22 2058.74 1276.64 Q2060.61 1277.03 2062.37 1277.84 Z" fill="#000000" fill-rule="nonzero" fill-opacity="1" /><path clip-path="url(#clip570)" d="M2069.78 1266.76 L2074.04 1266.76 L2074.04 1302.78 L2069.78 1302.78 L2069.78 1266.76 Z" fill="#000000" fill-rule="nonzero" fill-opacity="1" /><path clip-path="url(#clip570)" d="M2105.13 1288.75 L2105.13 1290.83 L2085.54 1290.83 Q2085.82 1295.23 2088.18 1297.54 Q2090.57 1299.84 2094.8 1299.84 Q2097.26 1299.84 2099.55 1299.23 Q2101.86 1298.63 2104.13 1297.43 L2104.13 1301.46 Q2101.84 1302.43 2099.43 1302.94 Q2097.03 1303.45 2094.55 1303.45 Q2088.35 1303.45 2084.71 1299.84 Q2081.1 1296.22 2081.1 1290.07 Q2081.1 1283.7 2084.53 1279.97 Q2087.98 1276.22 2093.81 1276.22 Q2099.04 1276.22 2102.07 1279.6 Q2105.13 1282.96 2105.13 1288.75 M2100.87 1287.5 Q2100.82 1284 2098.9 1281.92 Q2097 1279.84 2093.85 1279.84 Q2090.29 1279.84 2088.14 1281.85 Q2086.01 1283.86 2085.68 1287.52 L2100.87 1287.5 Z" fill="#000000" fill-rule="nonzero" fill-opacity="1" /><path clip-path="url(#clip570)" d="M2141.4 1271.39 Q2136.31 1271.39 2133.3 1275.18 Q2130.31 1278.98 2130.31 1285.53 Q2130.31 1292.06 2133.3 1295.85 Q2136.31 1299.65 2141.4 1299.65 Q2146.49 1299.65 2149.46 1295.85 Q2152.44 1292.06 2152.44 1285.53 Q2152.44 1278.98 2149.46 1275.18 Q2146.49 1271.39 2141.4 1271.39 M2141.4 1267.59 Q2148.67 1267.59 2153.02 1272.47 Q2157.37 1277.34 2157.37 1285.53 Q2157.37 1293.7 2153.02 1298.59 Q2148.67 1303.45 2141.4 1303.45 Q2134.11 1303.45 2129.73 1298.59 Q2125.38 1293.72 2125.38 1285.53 Q2125.38 1277.34 2129.73 1272.47 Q2134.11 1267.59 2141.4 1267.59 Z" fill="#000000" fill-rule="nonzero" fill-opacity="1" /><path clip-path="url(#clip570)" d="M2186.05 1287.13 L2186.05 1302.78 L2181.79 1302.78 L2181.79 1287.27 Q2181.79 1283.59 2180.36 1281.76 Q2178.92 1279.93 2176.05 1279.93 Q2172.6 1279.93 2170.61 1282.13 Q2168.62 1284.33 2168.62 1288.12 L2168.62 1302.78 L2164.34 1302.78 L2164.34 1276.85 L2168.62 1276.85 L2168.62 1280.88 Q2170.15 1278.54 2172.21 1277.38 Q2174.29 1276.22 2177 1276.22 Q2181.47 1276.22 2183.76 1279 Q2186.05 1281.76 2186.05 1287.13 Z" fill="#000000" fill-rule="nonzero" fill-opacity="1" /><path clip-path="url(#clip570)" d="M2194.55 1266.76 L2198.81 1266.76 L2198.81 1302.78 L2194.55 1302.78 L2194.55 1266.76 Z" fill="#000000" fill-rule="nonzero" fill-opacity="1" /><path clip-path="url(#clip570)" d="M2218.51 1305.18 Q2216.7 1309.81 2214.99 1311.22 Q2213.28 1312.64 2210.4 1312.64 L2207 1312.64 L2207 1309.07 L2209.5 1309.07 Q2211.26 1309.07 2212.23 1308.24 Q2213.21 1307.4 2214.39 1304.3 L2215.15 1302.36 L2204.66 1276.85 L2209.18 1276.85 L2217.28 1297.13 L2225.38 1276.85 L2229.9 1276.85 L2218.51 1305.18 Z" fill="#000000" fill-rule="nonzero" fill-opacity="1" /><circle clip-path="url(#clip570)" cx="1864.93" cy="1337.34" r="20.48" fill="#3da44d" fill-rule="evenodd" fill-opacity="0.6" stroke="#000000" stroke-opacity="0.6" stroke-width="4.55111"/>
<path clip-path="url(#clip570)" d="M1978.3 1321.19 L1978.3 1325.75 Q1975.64 1324.48 1973.28 1323.85 Q1970.92 1323.23 1968.72 1323.23 Q1964.9 1323.23 1962.81 1324.71 Q1960.75 1326.19 1960.75 1328.92 Q1960.75 1331.21 1962.12 1332.39 Q1963.51 1333.55 1967.35 1334.27 L1970.17 1334.85 Q1975.41 1335.84 1977.88 1338.37 Q1980.38 1340.87 1980.38 1345.08 Q1980.38 1350.1 1977 1352.69 Q1973.65 1355.29 1967.14 1355.29 Q1964.69 1355.29 1961.91 1354.73 Q1959.16 1354.18 1956.19 1353.09 L1956.19 1348.27 Q1959.04 1349.87 1961.77 1350.68 Q1964.5 1351.49 1967.14 1351.49 Q1971.15 1351.49 1973.32 1349.92 Q1975.5 1348.34 1975.5 1345.43 Q1975.5 1342.88 1973.92 1341.44 Q1972.37 1340.01 1968.81 1339.29 L1965.96 1338.74 Q1960.73 1337.69 1958.39 1335.47 Q1956.05 1333.25 1956.05 1329.29 Q1956.05 1324.71 1959.27 1322.07 Q1962.51 1319.43 1968.18 1319.43 Q1970.61 1319.43 1973.14 1319.87 Q1975.66 1320.31 1978.3 1321.19 Z" fill="#000000" fill-rule="nonzero" fill-opacity="1" /><path clip-path="url(#clip570)" d="M1991.7 1321.33 L1991.7 1328.69 L2000.48 1328.69 L2000.48 1332 L1991.7 1332 L1991.7 1346.07 Q1991.7 1349.25 1992.56 1350.15 Q1993.44 1351.05 1996.1 1351.05 L2000.48 1351.05 L2000.48 1354.62 L1996.1 1354.62 Q1991.17 1354.62 1989.3 1352.79 Q1987.42 1350.93 1987.42 1346.07 L1987.42 1332 L1984.3 1332 L1984.3 1328.69 L1987.42 1328.69 L1987.42 1321.33 L1991.7 1321.33 Z" fill="#000000" fill-rule="nonzero" fill-opacity="1" /><path clip-path="url(#clip570)" d="M2017.86 1341.58 Q2012.7 1341.58 2010.71 1342.76 Q2008.72 1343.94 2008.72 1346.79 Q2008.72 1349.06 2010.2 1350.4 Q2011.7 1351.72 2014.27 1351.72 Q2017.81 1351.72 2019.94 1349.22 Q2022.1 1346.7 2022.1 1342.53 L2022.1 1341.58 L2017.86 1341.58 M2026.36 1339.82 L2026.36 1354.62 L2022.1 1354.62 L2022.1 1350.68 Q2020.64 1353.04 2018.46 1354.18 Q2016.29 1355.29 2013.14 1355.29 Q2009.16 1355.29 2006.79 1353.06 Q2004.46 1350.82 2004.46 1347.07 Q2004.46 1342.69 2007.37 1340.47 Q2010.31 1338.25 2016.12 1338.25 L2022.1 1338.25 L2022.1 1337.83 Q2022.1 1334.89 2020.15 1333.3 Q2018.23 1331.68 2014.73 1331.68 Q2012.51 1331.68 2010.41 1332.21 Q2008.3 1332.74 2006.36 1333.81 L2006.36 1329.87 Q2008.69 1328.97 2010.89 1328.53 Q2013.09 1328.06 2015.17 1328.06 Q2020.8 1328.06 2023.58 1330.98 Q2026.36 1333.9 2026.36 1339.82 Z" fill="#000000" fill-rule="nonzero" fill-opacity="1" /><path clip-path="url(#clip570)" d="M2056.68 1338.97 L2056.68 1354.62 L2052.42 1354.62 L2052.42 1339.11 Q2052.42 1335.43 2050.98 1333.6 Q2049.55 1331.77 2046.68 1331.77 Q2043.23 1331.77 2041.24 1333.97 Q2039.25 1336.17 2039.25 1339.96 L2039.25 1354.62 L2034.97 1354.62 L2034.97 1328.69 L2039.25 1328.69 L2039.25 1332.72 Q2040.78 1330.38 2042.84 1329.22 Q2044.92 1328.06 2047.63 1328.06 Q2052.1 1328.06 2054.39 1330.84 Q2056.68 1333.6 2056.68 1338.97 Z" fill="#000000" fill-rule="nonzero" fill-opacity="1" /><path clip-path="url(#clip570)" d="M2082.23 1332.62 L2082.23 1318.6 L2086.49 1318.6 L2086.49 1354.62 L2082.23 1354.62 L2082.23 1350.73 Q2080.89 1353.04 2078.83 1354.18 Q2076.79 1355.29 2073.92 1355.29 Q2069.23 1355.29 2066.26 1351.54 Q2063.32 1347.79 2063.32 1341.68 Q2063.32 1335.56 2066.26 1331.81 Q2069.23 1328.06 2073.92 1328.06 Q2076.79 1328.06 2078.83 1329.2 Q2080.89 1330.31 2082.23 1332.62 M2067.72 1341.68 Q2067.72 1346.37 2069.64 1349.06 Q2071.59 1351.72 2074.97 1351.72 Q2078.35 1351.72 2080.29 1349.06 Q2082.23 1346.37 2082.23 1341.68 Q2082.23 1336.98 2080.29 1334.31 Q2078.35 1331.63 2074.97 1331.63 Q2071.59 1331.63 2069.64 1334.31 Q2067.72 1336.98 2067.72 1341.68 Z" fill="#000000" fill-rule="nonzero" fill-opacity="1" /><path clip-path="url(#clip570)" d="M2107.05 1341.58 Q2101.89 1341.58 2099.9 1342.76 Q2097.91 1343.94 2097.91 1346.79 Q2097.91 1349.06 2099.39 1350.4 Q2100.89 1351.72 2103.46 1351.72 Q2107 1351.72 2109.13 1349.22 Q2111.29 1346.7 2111.29 1342.53 L2111.29 1341.58 L2107.05 1341.58 M2115.54 1339.82 L2115.54 1354.62 L2111.29 1354.62 L2111.29 1350.68 Q2109.83 1353.04 2107.65 1354.18 Q2105.48 1355.29 2102.33 1355.29 Q2098.35 1355.29 2095.98 1353.06 Q2093.65 1350.82 2093.65 1347.07 Q2093.65 1342.69 2096.56 1340.47 Q2099.5 1338.25 2105.31 1338.25 L2111.29 1338.25 L2111.29 1337.83 Q2111.29 1334.89 2109.34 1333.3 Q2107.42 1331.68 2103.92 1331.68 Q2101.7 1331.68 2099.6 1332.21 Q2097.49 1332.74 2095.54 1333.81 L2095.54 1329.87 Q2097.88 1328.97 2100.08 1328.53 Q2102.28 1328.06 2104.36 1328.06 Q2109.99 1328.06 2112.77 1330.98 Q2115.54 1333.9 2115.54 1339.82 Z" fill="#000000" fill-rule="nonzero" fill-opacity="1" /><path clip-path="url(#clip570)" d="M2139.34 1332.67 Q2138.62 1332.25 2137.77 1332.07 Q2136.93 1331.86 2135.91 1331.86 Q2132.3 1331.86 2130.36 1334.22 Q2128.44 1336.56 2128.44 1340.96 L2128.44 1354.62 L2124.16 1354.62 L2124.16 1328.69 L2128.44 1328.69 L2128.44 1332.72 Q2129.78 1330.36 2131.93 1329.22 Q2134.09 1328.06 2137.16 1328.06 Q2137.6 1328.06 2138.14 1328.13 Q2138.67 1328.18 2139.32 1328.3 L2139.34 1332.67 Z" fill="#000000" fill-rule="nonzero" fill-opacity="1" /><path clip-path="url(#clip570)" d="M2160.03 1332.62 L2160.03 1318.6 L2164.29 1318.6 L2164.29 1354.62 L2160.03 1354.62 L2160.03 1350.73 Q2158.69 1353.04 2156.63 1354.18 Q2154.6 1355.29 2151.72 1355.29 Q2147.03 1355.29 2144.06 1351.54 Q2141.12 1347.79 2141.12 1341.68 Q2141.12 1335.56 2144.06 1331.81 Q2147.03 1328.06 2151.72 1328.06 Q2154.6 1328.06 2156.63 1329.2 Q2158.69 1330.31 2160.03 1332.62 M2145.52 1341.68 Q2145.52 1346.37 2147.44 1349.06 Q2149.39 1351.72 2152.77 1351.72 Q2156.15 1351.72 2158.09 1349.06 Q2160.03 1346.37 2160.03 1341.68 Q2160.03 1336.98 2158.09 1334.31 Q2156.15 1331.63 2152.77 1331.63 Q2149.39 1331.63 2147.44 1334.31 Q2145.52 1336.98 2145.52 1341.68 Z" fill="#000000" fill-rule="nonzero" fill-opacity="1" /><path clip-path="url(#clip570)" d="M2204.71 1338.41 Q2206.22 1338.92 2207.63 1340.59 Q2209.06 1342.25 2210.5 1345.17 L2215.24 1354.62 L2210.22 1354.62 L2205.8 1345.75 Q2204.09 1342.28 2202.47 1341.14 Q2200.87 1340.01 2198.09 1340.01 L2193 1340.01 L2193 1354.62 L2188.32 1354.62 L2188.32 1320.06 L2198.88 1320.06 Q2204.8 1320.06 2207.72 1322.53 Q2210.64 1325.01 2210.64 1330.01 Q2210.64 1333.27 2209.11 1335.43 Q2207.6 1337.58 2204.71 1338.41 M2193 1323.9 L2193 1336.17 L2198.88 1336.17 Q2202.26 1336.17 2203.97 1334.62 Q2205.71 1333.04 2205.71 1330.01 Q2205.71 1326.98 2203.97 1325.45 Q2202.26 1323.9 2198.88 1323.9 L2193 1323.9 Z" fill="#000000" fill-rule="nonzero" fill-opacity="1" /><path clip-path="url(#clip570)" d="M2221.26 1320.06 L2225.94 1320.06 L2225.94 1350.68 L2242.77 1350.68 L2242.77 1354.62 L2221.26 1354.62 L2221.26 1320.06 Z" fill="#000000" fill-rule="nonzero" fill-opacity="1" /><path clip-path="url(#clip570)" d="M1796.59 1409.91 L1933.27 1409.91 L1933.27 1368.44 L1796.59 1368.44 L1796.59 1409.91  Z" fill="#808080" fill-rule="evenodd" fill-opacity="0.3"/>
<polyline clip-path="url(#clip570)" style="stroke:#000000; stroke-linecap:round; stroke-linejoin:round; stroke-width:4; stroke-opacity:1; fill:none" points="1796.59,1409.91 1933.27,1409.91 1933.27,1368.44 1796.59,1368.44 1796.59,1409.91 "/>
<path clip-path="url(#clip570)" d="M1956.05 1371.9 L1963.02 1371.9 L1971.84 1395.41 L1980.71 1371.9 L1987.67 1371.9 L1987.67 1406.46 L1983.11 1406.46 L1983.11 1376.11 L1974.2 1399.81 L1969.5 1399.81 L1960.59 1376.11 L1960.59 1406.46 L1956.05 1406.46 L1956.05 1371.9 Z" fill="#000000" fill-rule="nonzero" fill-opacity="1" /><path clip-path="url(#clip570)" d="M2018.95 1392.43 L2018.95 1394.51 L1999.36 1394.51 Q1999.64 1398.91 2002 1401.22 Q2004.39 1403.52 2008.62 1403.52 Q2011.08 1403.52 2013.37 1402.91 Q2015.68 1402.31 2017.95 1401.11 L2017.95 1405.14 Q2015.66 1406.11 2013.25 1406.62 Q2010.85 1407.13 2008.37 1407.13 Q2002.17 1407.13 1998.53 1403.52 Q1994.92 1399.9 1994.92 1393.75 Q1994.92 1387.38 1998.35 1383.65 Q2001.8 1379.9 2007.63 1379.9 Q2012.86 1379.9 2015.89 1383.28 Q2018.95 1386.64 2018.95 1392.43 M2014.69 1391.18 Q2014.64 1387.68 2012.72 1385.6 Q2010.82 1383.52 2007.67 1383.52 Q2004.11 1383.52 2001.96 1385.53 Q1999.83 1387.54 1999.5 1391.2 L2014.69 1391.18 Z" fill="#000000" fill-rule="nonzero" fill-opacity="1" /><path clip-path="url(#clip570)" d="M2037.72 1393.42 Q2032.56 1393.42 2030.57 1394.6 Q2028.58 1395.78 2028.58 1398.63 Q2028.58 1400.9 2030.06 1402.24 Q2031.56 1403.56 2034.13 1403.56 Q2037.67 1403.56 2039.8 1401.06 Q2041.96 1398.54 2041.96 1394.37 L2041.96 1393.42 L2037.72 1393.42 M2046.22 1391.66 L2046.22 1406.46 L2041.96 1406.46 L2041.96 1402.52 Q2040.5 1404.88 2038.32 1406.02 Q2036.15 1407.13 2033 1407.13 Q2029.02 1407.13 2026.66 1404.9 Q2024.32 1402.66 2024.32 1398.91 Q2024.32 1394.53 2027.23 1392.31 Q2030.17 1390.09 2035.98 1390.09 L2041.96 1390.09 L2041.96 1389.67 Q2041.96 1386.73 2040.01 1385.14 Q2038.09 1383.52 2034.6 1383.52 Q2032.37 1383.52 2030.27 1384.05 Q2028.16 1384.58 2026.22 1385.65 L2026.22 1381.71 Q2028.55 1380.81 2030.75 1380.37 Q2032.95 1379.9 2035.04 1379.9 Q2040.66 1379.9 2043.44 1382.82 Q2046.22 1385.74 2046.22 1391.66 Z" fill="#000000" fill-rule="nonzero" fill-opacity="1" /><path clip-path="url(#clip570)" d="M2076.54 1390.81 L2076.54 1406.46 L2072.28 1406.46 L2072.28 1390.95 Q2072.28 1387.27 2070.85 1385.44 Q2069.41 1383.61 2066.54 1383.61 Q2063.09 1383.61 2061.1 1385.81 Q2059.11 1388.01 2059.11 1391.8 L2059.11 1406.46 L2054.83 1406.46 L2054.83 1380.53 L2059.11 1380.53 L2059.11 1384.56 Q2060.64 1382.22 2062.7 1381.06 Q2064.78 1379.9 2067.49 1379.9 Q2071.96 1379.9 2074.25 1382.68 Q2076.54 1385.44 2076.54 1390.81 Z" fill="#000000" fill-rule="nonzero" fill-opacity="1" /><path clip-path="url(#clip570)" d="M2117.44 1376.73 L2117.44 1385.69 L2130.34 1385.69 L2130.34 1389.63 L2117.44 1389.63 L2117.44 1398.59 L2113.55 1398.59 L2113.55 1389.63 L2100.66 1389.63 L2100.66 1385.69 L2113.55 1385.69 L2113.55 1376.73 L2117.44 1376.73 M2100.66 1402.52 L2130.34 1402.52 L2130.34 1406.46 L2100.66 1406.46 L2100.66 1402.52 Z" fill="#000000" fill-rule="nonzero" fill-opacity="1" /><path clip-path="url(#clip570)" d="M2175.8 1373.03 L2175.8 1377.59 Q2173.14 1376.32 2170.78 1375.69 Q2168.41 1375.07 2166.22 1375.07 Q2162.4 1375.07 2160.31 1376.55 Q2158.25 1378.03 2158.25 1380.76 Q2158.25 1383.05 2159.62 1384.23 Q2161.01 1385.39 2164.85 1386.11 L2167.67 1386.69 Q2172.91 1387.68 2175.38 1390.21 Q2177.88 1392.71 2177.88 1396.92 Q2177.88 1401.94 2174.5 1404.53 Q2171.15 1407.13 2164.64 1407.13 Q2162.19 1407.13 2159.41 1406.57 Q2156.66 1406.02 2153.69 1404.93 L2153.69 1400.11 Q2156.54 1401.71 2159.27 1402.52 Q2162 1403.33 2164.64 1403.33 Q2168.65 1403.33 2170.82 1401.76 Q2173 1400.18 2173 1397.27 Q2173 1394.72 2171.42 1393.28 Q2169.87 1391.85 2166.31 1391.13 L2163.46 1390.58 Q2158.23 1389.53 2155.89 1387.31 Q2153.55 1385.09 2153.55 1381.13 Q2153.55 1376.55 2156.77 1373.91 Q2160.01 1371.27 2165.68 1371.27 Q2168.11 1371.27 2170.64 1371.71 Q2173.16 1372.15 2175.8 1373.03 Z" fill="#000000" fill-rule="nonzero" fill-opacity="1" /><path clip-path="url(#clip570)" d="M2189.2 1373.17 L2189.2 1380.53 L2197.97 1380.53 L2197.97 1383.84 L2189.2 1383.84 L2189.2 1397.91 Q2189.2 1401.09 2190.06 1401.99 Q2190.94 1402.89 2193.6 1402.89 L2197.97 1402.89 L2197.97 1406.46 L2193.6 1406.46 Q2188.67 1406.46 2186.79 1404.63 Q2184.92 1402.77 2184.92 1397.91 L2184.92 1383.84 L2181.79 1383.84 L2181.79 1380.53 L2184.92 1380.53 L2184.92 1373.17 L2189.2 1373.17 Z" fill="#000000" fill-rule="nonzero" fill-opacity="1" /><path clip-path="url(#clip570)" d="M2220.64 1384.46 L2220.64 1370.44 L2224.9 1370.44 L2224.9 1406.46 L2220.64 1406.46 L2220.64 1402.57 Q2219.29 1404.88 2217.23 1406.02 Q2215.2 1407.13 2212.33 1407.13 Q2207.63 1407.13 2204.66 1403.38 Q2201.72 1399.63 2201.72 1393.52 Q2201.72 1387.4 2204.66 1383.65 Q2207.63 1379.9 2212.33 1379.9 Q2215.2 1379.9 2217.23 1381.04 Q2219.29 1382.15 2220.64 1384.46 M2206.12 1393.52 Q2206.12 1398.21 2208.04 1400.9 Q2209.99 1403.56 2213.37 1403.56 Q2216.75 1403.56 2218.69 1400.9 Q2220.64 1398.21 2220.64 1393.52 Q2220.64 1388.82 2218.69 1386.15 Q2216.75 1383.47 2213.37 1383.47 Q2209.99 1383.47 2208.04 1386.15 Q2206.12 1388.82 2206.12 1393.52 Z" fill="#000000" fill-rule="nonzero" fill-opacity="1" /></svg>
