<?xml version="1.0" encoding="utf-8"?>
<svg xmlns="http://www.w3.org/2000/svg" xmlns:xlink="http://www.w3.org/1999/xlink" width="600" height="400" viewBox="0 0 2400 1600">
<defs>
  <clipPath id="clip640">
    <rect x="0" y="0" width="2400" height="1600"/>
  </clipPath>
</defs>
<path clip-path="url(#clip640)" d="M0 1600 L2400 1600 L2400 8.88178e-14 L0 8.88178e-14  Z" fill="#ffffff" fill-rule="evenodd" fill-opacity="1"/>
<defs>
  <clipPath id="clip641">
    <rect x="361" y="207" width="1918" height="1187"/>
  </clipPath>
</defs>
<path clip-path="url(#clip640)" d="M440.035 1394.28 L2278.74 1394.28 L2278.74 207.94 L440.035 207.94  Z" fill="#ffffff" fill-rule="evenodd" fill-opacity="1"/>
<defs>
  <clipPath id="clip642">
    <rect x="440" y="207" width="1840" height="1187"/>
  </clipPath>
</defs>
<polyline clip-path="url(#clip642)" style="stroke:#222255; stroke-linecap:round; stroke-linejoin:round; stroke-width:2.2; stroke-opacity:0.05; fill:none" points="448.708,1394.28 448.708,207.94 "/>
<polyline clip-path="url(#clip642)" style="stroke:#222255; stroke-linecap:round; stroke-linejoin:round; stroke-width:2.2; stroke-opacity:0.05; fill:none" points="524.598,1394.28 524.598,207.94 "/>
<polyline clip-path="url(#clip642)" style="stroke:#222255; stroke-linecap:round; stroke-linejoin:round; stroke-width:2.2; stroke-opacity:0.05; fill:none" points="676.378,1394.28 676.378,207.94 "/>
<polyline clip-path="url(#clip642)" style="stroke:#222255; stroke-linecap:round; stroke-linejoin:round; stroke-width:2.2; stroke-opacity:0.05; fill:none" points="752.268,1394.28 752.268,207.94 "/>
<polyline clip-path="url(#clip642)" style="stroke:#222255; stroke-linecap:round; stroke-linejoin:round; stroke-width:2.2; stroke-opacity:0.05; fill:none" points="828.158,1394.28 828.158,207.94 "/>
<polyline clip-path="url(#clip642)" style="stroke:#222255; stroke-linecap:round; stroke-linejoin:round; stroke-width:2.2; stroke-opacity:0.05; fill:none" points="904.048,1394.28 904.048,207.94 "/>
<polyline clip-path="url(#clip642)" style="stroke:#222255; stroke-linecap:round; stroke-linejoin:round; stroke-width:2.2; stroke-opacity:0.05; fill:none" points="1055.83,1394.28 1055.83,207.94 "/>
<polyline clip-path="url(#clip642)" style="stroke:#222255; stroke-linecap:round; stroke-linejoin:round; stroke-width:2.2; stroke-opacity:0.05; fill:none" points="1131.72,1394.28 1131.72,207.94 "/>
<polyline clip-path="url(#clip642)" style="stroke:#222255; stroke-linecap:round; stroke-linejoin:round; stroke-width:2.2; stroke-opacity:0.05; fill:none" points="1207.61,1394.28 1207.61,207.94 "/>
<polyline clip-path="url(#clip642)" style="stroke:#222255; stroke-linecap:round; stroke-linejoin:round; stroke-width:2.2; stroke-opacity:0.05; fill:none" points="1283.5,1394.28 1283.5,207.94 "/>
<polyline clip-path="url(#clip642)" style="stroke:#222255; stroke-linecap:round; stroke-linejoin:round; stroke-width:2.2; stroke-opacity:0.05; fill:none" points="1435.28,1394.28 1435.28,207.94 "/>
<polyline clip-path="url(#clip642)" style="stroke:#222255; stroke-linecap:round; stroke-linejoin:round; stroke-width:2.2; stroke-opacity:0.05; fill:none" points="1511.17,1394.28 1511.17,207.94 "/>
<polyline clip-path="url(#clip642)" style="stroke:#222255; stroke-linecap:round; stroke-linejoin:round; stroke-width:2.2; stroke-opacity:0.05; fill:none" points="1587.06,1394.28 1587.06,207.94 "/>
<polyline clip-path="url(#clip642)" style="stroke:#222255; stroke-linecap:round; stroke-linejoin:round; stroke-width:2.2; stroke-opacity:0.05; fill:none" points="1662.95,1394.28 1662.95,207.94 "/>
<polyline clip-path="url(#clip642)" style="stroke:#222255; stroke-linecap:round; stroke-linejoin:round; stroke-width:2.2; stroke-opacity:0.05; fill:none" points="1814.73,1394.28 1814.73,207.94 "/>
<polyline clip-path="url(#clip642)" style="stroke:#222255; stroke-linecap:round; stroke-linejoin:round; stroke-width:2.2; stroke-opacity:0.05; fill:none" points="1890.62,1394.28 1890.62,207.94 "/>
<polyline clip-path="url(#clip642)" style="stroke:#222255; stroke-linecap:round; stroke-linejoin:round; stroke-width:2.2; stroke-opacity:0.05; fill:none" points="1966.51,1394.28 1966.51,207.94 "/>
<polyline clip-path="url(#clip642)" style="stroke:#222255; stroke-linecap:round; stroke-linejoin:round; stroke-width:2.2; stroke-opacity:0.05; fill:none" points="2042.4,1394.28 2042.4,207.94 "/>
<polyline clip-path="url(#clip642)" style="stroke:#222255; stroke-linecap:round; stroke-linejoin:round; stroke-width:2.2; stroke-opacity:0.05; fill:none" points="2194.18,1394.28 2194.18,207.94 "/>
<polyline clip-path="url(#clip642)" style="stroke:#222255; stroke-linecap:round; stroke-linejoin:round; stroke-width:2.2; stroke-opacity:0.05; fill:none" points="2270.07,1394.28 2270.07,207.94 "/>
<polyline clip-path="url(#clip642)" style="stroke:#222255; stroke-linecap:round; stroke-linejoin:round; stroke-width:2.2; stroke-opacity:0.05; fill:none" points="440.035,1368.76 2278.74,1368.76 "/>
<polyline clip-path="url(#clip642)" style="stroke:#222255; stroke-linecap:round; stroke-linejoin:round; stroke-width:2.2; stroke-opacity:0.05; fill:none" points="440.035,1325.35 2278.74,1325.35 "/>
<polyline clip-path="url(#clip642)" style="stroke:#222255; stroke-linecap:round; stroke-linejoin:round; stroke-width:2.2; stroke-opacity:0.05; fill:none" points="440.035,1281.95 2278.74,1281.95 "/>
<polyline clip-path="url(#clip642)" style="stroke:#222255; stroke-linecap:round; stroke-linejoin:round; stroke-width:2.2; stroke-opacity:0.05; fill:none" points="440.035,1238.55 2278.74,1238.55 "/>
<polyline clip-path="url(#clip642)" style="stroke:#222255; stroke-linecap:round; stroke-linejoin:round; stroke-width:2.2; stroke-opacity:0.05; fill:none" points="440.035,1151.74 2278.74,1151.74 "/>
<polyline clip-path="url(#clip642)" style="stroke:#222255; stroke-linecap:round; stroke-linejoin:round; stroke-width:2.2; stroke-opacity:0.05; fill:none" points="440.035,1108.34 2278.74,1108.34 "/>
<polyline clip-path="url(#clip642)" style="stroke:#222255; stroke-linecap:round; stroke-linejoin:round; stroke-width:2.2; stroke-opacity:0.05; fill:none" points="440.035,1064.94 2278.74,1064.94 "/>
<polyline clip-path="url(#clip642)" style="stroke:#222255; stroke-linecap:round; stroke-linejoin:round; stroke-width:2.2; stroke-opacity:0.05; fill:none" points="440.035,1021.54 2278.74,1021.54 "/>
<polyline clip-path="url(#clip642)" style="stroke:#222255; stroke-linecap:round; stroke-linejoin:round; stroke-width:2.2; stroke-opacity:0.05; fill:none" points="440.035,934.734 2278.74,934.734 "/>
<polyline clip-path="url(#clip642)" style="stroke:#222255; stroke-linecap:round; stroke-linejoin:round; stroke-width:2.2; stroke-opacity:0.05; fill:none" points="440.035,891.332 2278.74,891.332 "/>
<polyline clip-path="url(#clip642)" style="stroke:#222255; stroke-linecap:round; stroke-linejoin:round; stroke-width:2.2; stroke-opacity:0.05; fill:none" points="440.035,847.93 2278.74,847.93 "/>
<polyline clip-path="url(#clip642)" style="stroke:#222255; stroke-linecap:round; stroke-linejoin:round; stroke-width:2.2; stroke-opacity:0.05; fill:none" points="440.035,804.528 2278.74,804.528 "/>
<polyline clip-path="url(#clip642)" style="stroke:#222255; stroke-linecap:round; stroke-linejoin:round; stroke-width:2.2; stroke-opacity:0.05; fill:none" points="440.035,717.723 2278.74,717.723 "/>
<polyline clip-path="url(#clip642)" style="stroke:#222255; stroke-linecap:round; stroke-linejoin:round; stroke-width:2.2; stroke-opacity:0.05; fill:none" points="440.035,674.321 2278.74,674.321 "/>
<polyline clip-path="url(#clip642)" style="stroke:#222255; stroke-linecap:round; stroke-linejoin:round; stroke-width:2.2; stroke-opacity:0.05; fill:none" points="440.035,630.919 2278.74,630.919 "/>
<polyline clip-path="url(#clip642)" style="stroke:#222255; stroke-linecap:round; stroke-linejoin:round; stroke-width:2.2; stroke-opacity:0.05; fill:none" points="440.035,587.517 2278.74,587.517 "/>
<polyline clip-path="url(#clip642)" style="stroke:#222255; stroke-linecap:round; stroke-linejoin:round; stroke-width:2.2; stroke-opacity:0.05; fill:none" points="440.035,500.713 2278.74,500.713 "/>
<polyline clip-path="url(#clip642)" style="stroke:#222255; stroke-linecap:round; stroke-linejoin:round; stroke-width:2.2; stroke-opacity:0.05; fill:none" points="440.035,457.31 2278.74,457.31 "/>
<polyline clip-path="url(#clip642)" style="stroke:#222255; stroke-linecap:round; stroke-linejoin:round; stroke-width:2.2; stroke-opacity:0.05; fill:none" points="440.035,413.908 2278.74,413.908 "/>
<polyline clip-path="url(#clip642)" style="stroke:#222255; stroke-linecap:round; stroke-linejoin:round; stroke-width:2.2; stroke-opacity:0.05; fill:none" points="440.035,370.506 2278.74,370.506 "/>
<polyline clip-path="url(#clip642)" style="stroke:#222255; stroke-linecap:round; stroke-linejoin:round; stroke-width:2.2; stroke-opacity:0.05; fill:none" points="440.035,283.702 2278.74,283.702 "/>
<polyline clip-path="url(#clip642)" style="stroke:#222255; stroke-linecap:round; stroke-linejoin:round; stroke-width:2.2; stroke-opacity:0.05; fill:none" points="440.035,240.3 2278.74,240.3 "/>
<polyline clip-path="url(#clip642)" style="stroke:#222255; stroke-linecap:round; stroke-linejoin:round; stroke-width:2.2; stroke-opacity:0.1; fill:none" points="600.488,1394.28 600.488,207.94 "/>
<polyline clip-path="url(#clip642)" style="stroke:#222255; stroke-linecap:round; stroke-linejoin:round; stroke-width:2.2; stroke-opacity:0.1; fill:none" points="979.938,1394.28 979.938,207.94 "/>
<polyline clip-path="url(#clip642)" style="stroke:#222255; stroke-linecap:round; stroke-linejoin:round; stroke-width:2.2; stroke-opacity:0.1; fill:none" points="1359.39,1394.28 1359.39,207.94 "/>
<polyline clip-path="url(#clip642)" style="stroke:#222255; stroke-linecap:round; stroke-linejoin:round; stroke-width:2.2; stroke-opacity:0.1; fill:none" points="1738.84,1394.28 1738.84,207.94 "/>
<polyline clip-path="url(#clip642)" style="stroke:#222255; stroke-linecap:round; stroke-linejoin:round; stroke-width:2.2; stroke-opacity:0.1; fill:none" points="2118.29,1394.28 2118.29,207.94 "/>
<polyline clip-path="url(#clip642)" style="stroke:#222255; stroke-linecap:round; stroke-linejoin:round; stroke-width:2.2; stroke-opacity:0.1; fill:none" points="440.035,1195.15 2278.74,1195.15 "/>
<polyline clip-path="url(#clip642)" style="stroke:#222255; stroke-linecap:round; stroke-linejoin:round; stroke-width:2.2; stroke-opacity:0.1; fill:none" points="440.035,978.136 2278.74,978.136 "/>
<polyline clip-path="url(#clip642)" style="stroke:#222255; stroke-linecap:round; stroke-linejoin:round; stroke-width:2.2; stroke-opacity:0.1; fill:none" points="440.035,761.125 2278.74,761.125 "/>
<polyline clip-path="url(#clip642)" style="stroke:#222255; stroke-linecap:round; stroke-linejoin:round; stroke-width:2.2; stroke-opacity:0.1; fill:none" points="440.035,544.115 2278.74,544.115 "/>
<polyline clip-path="url(#clip642)" style="stroke:#222255; stroke-linecap:round; stroke-linejoin:round; stroke-width:2.2; stroke-opacity:0.1; fill:none" points="440.035,327.104 2278.74,327.104 "/>
<polyline clip-path="url(#clip640)" style="stroke:#222255; stroke-linecap:round; stroke-linejoin:round; stroke-width:4.4; stroke-opacity:0; fill:none" points="600.488,1394.28 600.488,1375.38 "/>
<polyline clip-path="url(#clip640)" style="stroke:#222255; stroke-linecap:round; stroke-linejoin:round; stroke-width:4.4; stroke-opacity:0; fill:none" points="979.938,1394.28 979.938,1375.38 "/>
<polyline clip-path="url(#clip640)" style="stroke:#222255; stroke-linecap:round; stroke-linejoin:round; stroke-width:4.4; stroke-opacity:0; fill:none" points="1359.39,1394.28 1359.39,1375.38 "/>
<polyline clip-path="url(#clip640)" style="stroke:#222255; stroke-linecap:round; stroke-linejoin:round; stroke-width:4.4; stroke-opacity:0; fill:none" points="1738.84,1394.28 1738.84,1375.38 "/>
<polyline clip-path="url(#clip640)" style="stroke:#222255; stroke-linecap:round; stroke-linejoin:round; stroke-width:4.4; stroke-opacity:0; fill:none" points="2118.29,1394.28 2118.29,1375.38 "/>
<polyline clip-path="url(#clip640)" style="stroke:#222255; stroke-linecap:round; stroke-linejoin:round; stroke-width:4.4; stroke-opacity:0; fill:none" points="448.708,1394.28 448.708,1384.83 "/>
<polyline clip-path="url(#clip640)" style="stroke:#222255; stroke-linecap:round; stroke-linejoin:round; stroke-width:4.4; stroke-opacity:0; fill:none" points="524.598,1394.28 524.598,1384.83 "/>
<polyline clip-path="url(#clip640)" style="stroke:#222255; stroke-linecap:round; stroke-linejoin:round; stroke-width:4.4; stroke-opacity:0; fill:none" points="676.378,1394.28 676.378,1384.83 "/>
<polyline clip-path="url(#clip640)" style="stroke:#222255; stroke-linecap:round; stroke-linejoin:round; stroke-width:4.4; stroke-opacity:0; fill:none" points="752.268,1394.28 752.268,1384.83 "/>
<polyline clip-path="url(#clip640)" style="stroke:#222255; stroke-linecap:round; stroke-linejoin:round; stroke-width:4.4; stroke-opacity:0; fill:none" points="828.158,1394.28 828.158,1384.83 "/>
<polyline clip-path="url(#clip640)" style="stroke:#222255; stroke-linecap:round; stroke-linejoin:round; stroke-width:4.4; stroke-opacity:0; fill:none" points="904.048,1394.28 904.048,1384.83 "/>
<polyline clip-path="url(#clip640)" style="stroke:#222255; stroke-linecap:round; stroke-linejoin:round; stroke-width:4.4; stroke-opacity:0; fill:none" points="1055.83,1394.28 1055.83,1384.83 "/>
<polyline clip-path="url(#clip640)" style="stroke:#222255; stroke-linecap:round; stroke-linejoin:round; stroke-width:4.4; stroke-opacity:0; fill:none" points="1131.72,1394.28 1131.72,1384.83 "/>
<polyline clip-path="url(#clip640)" style="stroke:#222255; stroke-linecap:round; stroke-linejoin:round; stroke-width:4.4; stroke-opacity:0; fill:none" points="1207.61,1394.28 1207.61,1384.83 "/>
<polyline clip-path="url(#clip640)" style="stroke:#222255; stroke-linecap:round; stroke-linejoin:round; stroke-width:4.4; stroke-opacity:0; fill:none" points="1283.5,1394.28 1283.5,1384.83 "/>
<polyline clip-path="url(#clip640)" style="stroke:#222255; stroke-linecap:round; stroke-linejoin:round; stroke-width:4.4; stroke-opacity:0; fill:none" points="1435.28,1394.28 1435.28,1384.83 "/>
<polyline clip-path="url(#clip640)" style="stroke:#222255; stroke-linecap:round; stroke-linejoin:round; stroke-width:4.4; stroke-opacity:0; fill:none" points="1511.17,1394.28 1511.17,1384.83 "/>
<polyline clip-path="url(#clip640)" style="stroke:#222255; stroke-linecap:round; stroke-linejoin:round; stroke-width:4.4; stroke-opacity:0; fill:none" points="1587.06,1394.28 1587.06,1384.83 "/>
<polyline clip-path="url(#clip640)" style="stroke:#222255; stroke-linecap:round; stroke-linejoin:round; stroke-width:4.4; stroke-opacity:0; fill:none" points="1662.95,1394.28 1662.95,1384.83 "/>
<polyline clip-path="url(#clip640)" style="stroke:#222255; stroke-linecap:round; stroke-linejoin:round; stroke-width:4.4; stroke-opacity:0; fill:none" points="1814.73,1394.28 1814.73,1384.83 "/>
<polyline clip-path="url(#clip640)" style="stroke:#222255; stroke-linecap:round; stroke-linejoin:round; stroke-width:4.4; stroke-opacity:0; fill:none" points="1890.62,1394.28 1890.62,1384.83 "/>
<polyline clip-path="url(#clip640)" style="stroke:#222255; stroke-linecap:round; stroke-linejoin:round; stroke-width:4.4; stroke-opacity:0; fill:none" points="1966.51,1394.28 1966.51,1384.83 "/>
<polyline clip-path="url(#clip640)" style="stroke:#222255; stroke-linecap:round; stroke-linejoin:round; stroke-width:4.4; stroke-opacity:0; fill:none" points="2042.4,1394.28 2042.4,1384.83 "/>
<polyline clip-path="url(#clip640)" style="stroke:#222255; stroke-linecap:round; stroke-linejoin:round; stroke-width:4.4; stroke-opacity:0; fill:none" points="2194.18,1394.28 2194.18,1384.83 "/>
<polyline clip-path="url(#clip640)" style="stroke:#222255; stroke-linecap:round; stroke-linejoin:round; stroke-width:4.4; stroke-opacity:0; fill:none" points="2270.07,1394.28 2270.07,1384.83 "/>
<g clip-path="url(#clip640)">
<text style="fill:#000000; fill-opacity:1; font-family:Century Gothic,CenturyGothic,AppleGothic,sans-serif; font-size:65px; text-anchor:middle;" transform="rotate(0, 600.488, 1471.25)" x="600.488" y="1471.25">EGP</text>
</g>
<g clip-path="url(#clip640)">
<text style="fill:#000000; fill-opacity:1; font-family:Century Gothic,CenturyGothic,AppleGothic,sans-serif; font-size:65px; text-anchor:middle;" transform="rotate(0, 979.938, 1471.25)" x="979.938" y="1471.25">FPRL</text>
</g>
<g clip-path="url(#clip640)">
<text style="fill:#000000; fill-opacity:1; font-family:Century Gothic,CenturyGothic,AppleGothic,sans-serif; font-size:65px; text-anchor:middle;" transform="rotate(0, 1359.39, 1471.25)" x="1359.39" y="1471.25">ICRL</text>
</g>
<g clip-path="url(#clip640)">
<text style="fill:#000000; fill-opacity:1; font-family:Century Gothic,CenturyGothic,AppleGothic,sans-serif; font-size:65px; text-anchor:middle;" transform="rotate(0, 1738.84, 1471.25)" x="1738.84" y="1471.25">PPO</text>
</g>
<g clip-path="url(#clip640)">
<text style="fill:#000000; fill-opacity:1; font-family:Century Gothic,CenturyGothic,AppleGothic,sans-serif; font-size:65px; text-anchor:middle;" transform="rotate(0, 2118.29, 1471.25)" x="2118.29" y="1471.25">SAC</text>
</g>
<polyline clip-path="url(#clip640)" style="stroke:#222255; stroke-linecap:round; stroke-linejoin:round; stroke-width:4.4; stroke-opacity:0; fill:none" points="440.035,1195.15 458.932,1195.15 "/>
<polyline clip-path="url(#clip640)" style="stroke:#222255; stroke-linecap:round; stroke-linejoin:round; stroke-width:4.4; stroke-opacity:0; fill:none" points="440.035,978.136 458.932,978.136 "/>
<polyline clip-path="url(#clip640)" style="stroke:#222255; stroke-linecap:round; stroke-linejoin:round; stroke-width:4.4; stroke-opacity:0; fill:none" points="440.035,761.125 458.932,761.125 "/>
<polyline clip-path="url(#clip640)" style="stroke:#222255; stroke-linecap:round; stroke-linejoin:round; stroke-width:4.4; stroke-opacity:0; fill:none" points="440.035,544.115 458.932,544.115 "/>
<polyline clip-path="url(#clip640)" style="stroke:#222255; stroke-linecap:round; stroke-linejoin:round; stroke-width:4.4; stroke-opacity:0; fill:none" points="440.035,327.104 458.932,327.104 "/>
<polyline clip-path="url(#clip640)" style="stroke:#222255; stroke-linecap:round; stroke-linejoin:round; stroke-width:4.4; stroke-opacity:0; fill:none" points="440.035,1368.76 449.484,1368.76 "/>
<polyline clip-path="url(#clip640)" style="stroke:#222255; stroke-linecap:round; stroke-linejoin:round; stroke-width:4.4; stroke-opacity:0; fill:none" points="440.035,1325.35 449.484,1325.35 "/>
<polyline clip-path="url(#clip640)" style="stroke:#222255; stroke-linecap:round; stroke-linejoin:round; stroke-width:4.4; stroke-opacity:0; fill:none" points="440.035,1281.95 449.484,1281.95 "/>
<polyline clip-path="url(#clip640)" style="stroke:#222255; stroke-linecap:round; stroke-linejoin:round; stroke-width:4.4; stroke-opacity:0; fill:none" points="440.035,1238.55 449.484,1238.55 "/>
<polyline clip-path="url(#clip640)" style="stroke:#222255; stroke-linecap:round; stroke-linejoin:round; stroke-width:4.4; stroke-opacity:0; fill:none" points="440.035,1151.74 449.484,1151.74 "/>
<polyline clip-path="url(#clip640)" style="stroke:#222255; stroke-linecap:round; stroke-linejoin:round; stroke-width:4.4; stroke-opacity:0; fill:none" points="440.035,1108.34 449.484,1108.34 "/>
<polyline clip-path="url(#clip640)" style="stroke:#222255; stroke-linecap:round; stroke-linejoin:round; stroke-width:4.4; stroke-opacity:0; fill:none" points="440.035,1064.94 449.484,1064.94 "/>
<polyline clip-path="url(#clip640)" style="stroke:#222255; stroke-linecap:round; stroke-linejoin:round; stroke-width:4.4; stroke-opacity:0; fill:none" points="440.035,1021.54 449.484,1021.54 "/>
<polyline clip-path="url(#clip640)" style="stroke:#222255; stroke-linecap:round; stroke-linejoin:round; stroke-width:4.4; stroke-opacity:0; fill:none" points="440.035,934.734 449.484,934.734 "/>
<polyline clip-path="url(#clip640)" style="stroke:#222255; stroke-linecap:round; stroke-linejoin:round; stroke-width:4.4; stroke-opacity:0; fill:none" points="440.035,891.332 449.484,891.332 "/>
<polyline clip-path="url(#clip640)" style="stroke:#222255; stroke-linecap:round; stroke-linejoin:round; stroke-width:4.4; stroke-opacity:0; fill:none" points="440.035,847.93 449.484,847.93 "/>
<polyline clip-path="url(#clip640)" style="stroke:#222255; stroke-linecap:round; stroke-linejoin:round; stroke-width:4.4; stroke-opacity:0; fill:none" points="440.035,804.528 449.484,804.528 "/>
<polyline clip-path="url(#clip640)" style="stroke:#222255; stroke-linecap:round; stroke-linejoin:round; stroke-width:4.4; stroke-opacity:0; fill:none" points="440.035,717.723 449.484,717.723 "/>
<polyline clip-path="url(#clip640)" style="stroke:#222255; stroke-linecap:round; stroke-linejoin:round; stroke-width:4.4; stroke-opacity:0; fill:none" points="440.035,674.321 449.484,674.321 "/>
<polyline clip-path="url(#clip640)" style="stroke:#222255; stroke-linecap:round; stroke-linejoin:round; stroke-width:4.4; stroke-opacity:0; fill:none" points="440.035,630.919 449.484,630.919 "/>
<polyline clip-path="url(#clip640)" style="stroke:#222255; stroke-linecap:round; stroke-linejoin:round; stroke-width:4.4; stroke-opacity:0; fill:none" points="440.035,587.517 449.484,587.517 "/>
<polyline clip-path="url(#clip640)" style="stroke:#222255; stroke-linecap:round; stroke-linejoin:round; stroke-width:4.4; stroke-opacity:0; fill:none" points="440.035,500.713 449.484,500.713 "/>
<polyline clip-path="url(#clip640)" style="stroke:#222255; stroke-linecap:round; stroke-linejoin:round; stroke-width:4.4; stroke-opacity:0; fill:none" points="440.035,457.31 449.484,457.31 "/>
<polyline clip-path="url(#clip640)" style="stroke:#222255; stroke-linecap:round; stroke-linejoin:round; stroke-width:4.4; stroke-opacity:0; fill:none" points="440.035,413.908 449.484,413.908 "/>
<polyline clip-path="url(#clip640)" style="stroke:#222255; stroke-linecap:round; stroke-linejoin:round; stroke-width:4.4; stroke-opacity:0; fill:none" points="440.035,370.506 449.484,370.506 "/>
<polyline clip-path="url(#clip640)" style="stroke:#222255; stroke-linecap:round; stroke-linejoin:round; stroke-width:4.4; stroke-opacity:0; fill:none" points="440.035,283.702 449.484,283.702 "/>
<polyline clip-path="url(#clip640)" style="stroke:#222255; stroke-linecap:round; stroke-linejoin:round; stroke-width:4.4; stroke-opacity:0; fill:none" points="440.035,240.3 449.484,240.3 "/>
<g clip-path="url(#clip640)">
<text style="fill:#000000; fill-opacity:1; font-family:Century Gothic,CenturyGothic,AppleGothic,sans-serif; font-size:65px; text-anchor:middle;" transform="rotate(0, 313.907, 1219.15)" x="313.907" y="1219.15">−1000</text>
</g>
<g clip-path="url(#clip640)">
<text style="fill:#000000; fill-opacity:1; font-family:Century Gothic,CenturyGothic,AppleGothic,sans-serif; font-size:65px; text-anchor:middle;" transform="rotate(0, 331.695, 1002.14)" x="331.695" y="1002.14">−800</text>
</g>
<g clip-path="url(#clip640)">
<text style="fill:#000000; fill-opacity:1; font-family:Century Gothic,CenturyGothic,AppleGothic,sans-serif; font-size:65px; text-anchor:middle;" transform="rotate(0, 331.695, 785.125)" x="331.695" y="785.125">−600</text>
</g>
<g clip-path="url(#clip640)">
<text style="fill:#000000; fill-opacity:1; font-family:Century Gothic,CenturyGothic,AppleGothic,sans-serif; font-size:65px; text-anchor:middle;" transform="rotate(0, 331.695, 568.115)" x="331.695" y="568.115">−400</text>
</g>
<g clip-path="url(#clip640)">
<text style="fill:#000000; fill-opacity:1; font-family:Century Gothic,CenturyGothic,AppleGothic,sans-serif; font-size:65px; text-anchor:middle;" transform="rotate(0, 331.695, 351.104)" x="331.695" y="351.104">−200</text>
</g>
<g clip-path="url(#clip640)">
<text style="fill:#000000; fill-opacity:1; font-family:Century Gothic,CenturyGothic,AppleGothic,sans-serif; font-size:77px; text-anchor:middle;" transform="rotate(-90, 175.113, 801.108)" x="175.113" y="801.108">Reward Distribution</text>
</g>
<g clip-path="url(#clip640)">
<text style="fill:#000000; fill-opacity:1; font-family:Century Gothic,CenturyGothic,AppleGothic,sans-serif; font-size:91px; text-anchor:middle;" transform="rotate(0, 1359.39, 80.4)" x="1359.39" y="80.4">Performance Density: Tier 3</text>
</g>
<path clip-path="url(#clip642)" d="M601.816 996.4 L601.941 990.657 L602.075 984.914 L602.219 979.171 L602.376 973.428 L602.545 967.685 L602.729 961.942 L602.929 956.199 L603.145 950.455 L603.379 944.712 L603.63 938.969 L603.899 933.226 L604.187 927.483 L604.494 921.74 L604.821 915.997 L605.169 910.254 L605.539 904.511 L605.933 898.768 L606.353 893.025 L606.804 887.282 L607.289 881.538 L607.812 875.795 L608.379 870.052 L608.995 864.309 L609.667 858.566 L610.402 852.823 L611.204 847.08 L612.079 841.337 L613.031 835.594 L614.064 829.851 L615.178 824.108 L616.371 818.365 L617.639 812.622 L618.975 806.878 L620.368 801.135 L621.805 795.392 L623.27 789.649 L624.744 783.906 L626.207 778.163 L627.636 772.42 L629.011 766.677 L630.309 760.934 L631.51 755.191 L632.597 749.448 L633.554 743.705 L634.369 737.961 L635.032 732.218 L635.539 726.475 L635.887 720.732 L636.076 714.989 L636.11 709.246 L635.994 703.503 L635.733 697.76 L635.335 692.017 L634.808 686.274 L634.16 680.531 L633.401 674.788 L632.537 669.044 L631.581 663.301 L630.543 657.558 L629.433 651.815 L628.267 646.072 L627.058 640.329 L625.824 634.586 L624.582 628.843 L623.351 623.1 L622.152 617.357 L621.004 611.614 L619.929 605.871 L618.946 600.127 L618.075 594.384 L617.334 588.641 L616.741 582.898 L616.31 577.155 L616.057 571.412 L615.994 565.669 L616.132 559.926 L616.483 554.183 L617.055 548.44 L617.854 542.697 L618.887 536.954 L620.156 531.21 L621.661 525.467 L623.4 519.724 L625.367 513.981 L627.549 508.238 L629.934 502.495 L632.503 496.752 L635.232 491.009 L638.098 485.266 L641.073 479.523 L644.13 473.78 L647.242 468.037 L650.385 462.294 L653.538 456.55 L656.685 450.807 L659.816 445.064 L662.926 439.321 L666.016 433.578 L669.092 427.835 L672.161 422.092 L675.233 416.349 L678.316 410.606 L681.414 404.863 L684.523 399.12 L687.633 393.377 L690.721 387.633 L693.753 381.89 L696.685 376.147 L699.46 370.404 L702.013 364.661 L704.272 358.918 L706.162 353.175 L707.608 347.432 L708.542 341.689 L708.902 335.946 L708.639 330.203 L707.719 324.46 L706.127 318.716 L703.863 312.973 L700.95 307.23 L697.426 301.487 L693.346 295.744 L688.78 290.001 L683.807 284.258 L678.516 278.515 L672.998 272.772 L667.345 267.029 L661.647 261.286 L655.989 255.543 L650.449 249.799 L645.095 244.056 L555.881 244.056 L550.527 249.799 L544.987 255.543 L539.329 261.286 L533.631 267.029 L527.978 272.772 L522.459 278.515 L517.168 284.258 L512.196 290.001 L507.63 295.744 L503.55 301.487 L500.026 307.23 L497.113 312.973 L494.849 318.716 L493.256 324.46 L492.337 330.203 L492.074 335.946 L492.433 341.689 L493.367 347.432 L494.814 353.175 L496.704 358.918 L498.963 364.661 L501.516 370.404 L504.29 376.147 L507.222 381.89 L510.255 387.633 L513.342 393.377 L516.452 399.12 L519.562 404.863 L522.659 410.606 L525.742 416.349 L528.814 422.092 L531.884 427.835 L534.959 433.578 L538.049 439.321 L541.159 445.064 L544.29 450.807 L547.438 456.55 L550.591 462.294 L553.734 468.037 L556.846 473.78 L559.903 479.523 L562.878 485.266 L565.744 491.009 L568.473 496.752 L571.041 502.495 L573.426 508.238 L575.609 513.981 L577.575 519.724 L579.314 525.467 L580.82 531.21 L582.089 536.954 L583.122 542.697 L583.921 548.44 L584.493 554.183 L584.843 559.926 L584.982 565.669 L584.919 571.412 L584.665 577.155 L584.235 582.898 L583.641 588.641 L582.901 594.384 L582.03 600.127 L581.047 605.871 L579.972 611.614 L578.824 617.357 L577.625 623.1 L576.394 628.843 L575.152 634.586 L573.917 640.329 L572.709 646.072 L571.542 651.815 L570.433 657.558 L569.394 663.301 L568.438 669.044 L567.575 674.788 L566.815 680.531 L566.167 686.274 L565.64 692.017 L565.243 697.76 L564.982 703.503 L564.866 709.246 L564.9 714.989 L565.089 720.732 L565.437 726.475 L565.944 732.218 L566.607 737.961 L567.422 743.705 L568.378 749.448 L569.465 755.191 L570.667 760.934 L571.965 766.677 L573.339 772.42 L574.769 778.163 L576.231 783.906 L577.705 789.649 L579.17 795.392 L580.608 801.135 L582.001 806.878 L583.337 812.622 L584.605 818.365 L585.798 824.108 L586.912 829.851 L587.944 835.594 L588.897 841.337 L589.772 847.08 L590.574 852.823 L591.308 858.566 L591.98 864.309 L592.597 870.052 L593.164 875.795 L593.687 881.538 L594.171 887.282 L594.622 893.025 L595.043 898.768 L595.437 904.511 L595.807 910.254 L596.155 915.997 L596.481 921.74 L596.788 927.483 L597.076 933.226 L597.346 938.969 L597.597 944.712 L597.83 950.455 L598.046 956.199 L598.246 961.942 L598.43 967.685 L598.6 973.428 L598.756 979.171 L598.901 984.914 L599.035 990.657 L599.159 996.4 L601.816 996.4  Z" fill="#ee7733" fill-rule="evenodd" fill-opacity="0.4"/>
<polyline clip-path="url(#clip642)" style="stroke:#000000; stroke-linecap:round; stroke-linejoin:round; stroke-width:5.28; stroke-opacity:0.4; fill:none" points="601.816,996.4 601.941,990.657 602.075,984.914 602.219,979.171 602.376,973.428 602.545,967.685 602.729,961.942 602.929,956.199 603.145,950.455 603.379,944.712 603.63,938.969 603.899,933.226 604.187,927.483 604.494,921.74 604.821,915.997 605.169,910.254 605.539,904.511 605.933,898.768 606.353,893.025 606.804,887.282 607.289,881.538 607.812,875.795 608.379,870.052 608.995,864.309 609.667,858.566 610.402,852.823 611.204,847.08 612.079,841.337 613.031,835.594 614.064,829.851 615.178,824.108 616.371,818.365 617.639,812.622 618.975,806.878 620.368,801.135 621.805,795.392 623.27,789.649 624.744,783.906 626.207,778.163 627.636,772.42 629.011,766.677 630.309,760.934 631.51,755.191 632.597,749.448 633.554,743.705 634.369,737.961 635.032,732.218 635.539,726.475 635.887,720.732 636.076,714.989 636.11,709.246 635.994,703.503 635.733,697.76 635.335,692.017 634.808,686.274 634.16,680.531 633.401,674.788 632.537,669.044 631.581,663.301 630.543,657.558 629.433,651.815 628.267,646.072 627.058,640.329 625.824,634.586 624.582,628.843 623.351,623.1 622.152,617.357 621.004,611.614 619.929,605.871 618.946,600.127 618.075,594.384 617.334,588.641 616.741,582.898 616.31,577.155 616.057,571.412 615.994,565.669 616.132,559.926 616.483,554.183 617.055,548.44 617.854,542.697 618.887,536.954 620.156,531.21 621.661,525.467 623.4,519.724 625.367,513.981 627.549,508.238 629.934,502.495 632.503,496.752 635.232,491.009 638.098,485.266 641.073,479.523 644.13,473.78 647.242,468.037 650.385,462.294 653.538,456.55 656.685,450.807 659.816,445.064 662.926,439.321 666.016,433.578 669.092,427.835 672.161,422.092 675.233,416.349 678.316,410.606 681.414,404.863 684.523,399.12 687.633,393.377 690.721,387.633 693.753,381.89 696.685,376.147 699.46,370.404 702.013,364.661 704.272,358.918 706.162,353.175 707.608,347.432 708.542,341.689 708.902,335.946 708.639,330.203 707.719,324.46 706.127,318.716 703.863,312.973 700.95,307.23 697.426,301.487 693.346,295.744 688.78,290.001 683.807,284.258 678.516,278.515 672.998,272.772 667.345,267.029 661.647,261.286 655.989,255.543 650.449,249.799 645.095,244.056 555.881,244.056 550.527,249.799 544.987,255.543 539.329,261.286 533.631,267.029 527.978,272.772 522.459,278.515 517.168,284.258 512.196,290.001 507.63,295.744 503.55,301.487 500.026,307.23 497.113,312.973 494.849,318.716 493.256,324.46 492.337,330.203 492.074,335.946 492.433,341.689 493.367,347.432 494.814,353.175 496.704,358.918 498.963,364.661 501.516,370.404 504.29,376.147 507.222,381.89 510.255,387.633 513.342,393.377 516.452,399.12 519.562,404.863 522.659,410.606 525.742,416.349 528.814,422.092 531.884,427.835 534.959,433.578 538.049,439.321 541.159,445.064 544.29,450.807 547.438,456.55 550.591,462.294 553.734,468.037 556.846,473.78 559.903,479.523 562.878,485.266 565.744,491.009 568.473,496.752 571.041,502.495 573.426,508.238 575.609,513.981 577.575,519.724 579.314,525.467 580.82,531.21 582.089,536.954 583.122,542.697 583.921,548.44 584.493,554.183 584.843,559.926 584.982,565.669 584.919,571.412 584.665,577.155 584.235,582.898 583.641,588.641 582.901,594.384 582.03,600.127 581.047,605.871 579.972,611.614 578.824,617.357 577.625,623.1 576.394,628.843 575.152,634.586 573.917,640.329 572.709,646.072 571.542,651.815 570.433,657.558 569.394,663.301 568.438,669.044 567.575,674.788 566.815,680.531 566.167,686.274 565.64,692.017 565.243,697.76 564.982,703.503 564.866,709.246 564.9,714.989 565.089,720.732 565.437,726.475 565.944,732.218 566.607,737.961 567.422,743.705 568.378,749.448 569.465,755.191 570.667,760.934 571.965,766.677 573.339,772.42 574.769,778.163 576.231,783.906 577.705,789.649 579.17,795.392 580.608,801.135 582.001,806.878 583.337,812.622 584.605,818.365 585.798,824.108 586.912,829.851 587.944,835.594 588.897,841.337 589.772,847.08 590.574,852.823 591.308,858.566 591.98,864.309 592.597,870.052 593.164,875.795 593.687,881.538 594.171,887.282 594.622,893.025 595.043,898.768 595.437,904.511 595.807,910.254 596.155,915.997 596.481,921.74 596.788,927.483 597.076,933.226 597.346,938.969 597.597,944.712 597.83,950.455 598.046,956.199 598.246,961.942 598.43,967.685 598.6,973.428 598.756,979.171 598.901,984.914 599.035,990.657 599.159,996.4 601.816,996.4 "/>
<path clip-path="url(#clip642)" d="M988.93 1356.44 L989.804 1350.27 L990.681 1344.1 L991.559 1337.93 L992.439 1331.76 L993.324 1325.59 L994.221 1319.41 L995.139 1313.24 L996.087 1307.07 L997.08 1300.9 L998.129 1294.73 L999.247 1288.56 L1000.44 1282.39 L1001.73 1276.22 L1003.1 1270.05 L1004.57 1263.88 L1006.12 1257.71 L1007.75 1251.53 L1009.45 1245.36 L1011.2 1239.19 L1012.97 1233.02 L1014.75 1226.85 L1016.51 1220.68 L1018.23 1214.51 L1019.89 1208.34 L1021.47 1202.17 L1022.97 1196 L1024.38 1189.83 L1025.69 1183.65 L1026.91 1177.48 L1028.04 1171.31 L1029.11 1165.14 L1030.11 1158.97 L1031.07 1152.8 L1032 1146.63 L1032.92 1140.46 L1033.82 1134.29 L1034.72 1128.12 L1035.63 1121.94 L1036.56 1115.77 L1037.52 1109.6 L1038.51 1103.43 L1039.54 1097.26 L1040.63 1091.09 L1041.79 1084.92 L1043.03 1078.75 L1044.38 1072.58 L1045.84 1066.41 L1047.43 1060.24 L1049.16 1054.06 L1051.01 1047.89 L1052.99 1041.72 L1055.09 1035.55 L1057.28 1029.38 L1059.54 1023.21 L1061.84 1017.04 L1064.16 1010.87 L1066.45 1004.7 L1068.7 998.526 L1070.87 992.355 L1072.94 986.184 L1074.9 980.013 L1076.74 973.842 L1078.44 967.671 L1080 961.5 L1081.43 955.329 L1082.71 949.158 L1083.86 942.987 L1084.88 936.816 L1085.76 930.645 L1086.51 924.474 L1087.13 918.303 L1087.62 912.132 L1087.99 905.961 L1088.23 899.79 L1088.35 893.62 L1088.35 887.449 L1088.24 881.278 L1088.01 875.107 L1087.67 868.936 L1087.21 862.765 L1086.64 856.594 L1085.94 850.423 L1085.11 844.252 L1084.14 838.081 L1083.01 831.91 L1081.7 825.739 L1080.21 819.568 L1078.51 813.397 L1076.6 807.226 L1074.46 801.055 L1072.09 794.884 L1069.49 788.713 L1066.67 782.542 L1063.62 776.371 L1060.37 770.201 L1056.94 764.03 L1053.35 757.859 L1049.64 751.688 L1045.84 745.517 L1041.98 739.346 L1038.12 733.175 L1034.29 727.004 L1030.54 720.833 L1026.9 714.662 L1023.42 708.491 L1020.13 702.32 L1017.04 696.149 L1014.19 689.978 L1011.57 683.807 L1009.19 677.636 L1007.03 671.465 L1005.09 665.294 L1003.35 659.123 L1001.78 652.953 L1000.36 646.782 L999.058 640.611 L997.864 634.44 L996.753 628.269 L995.713 622.098 L994.732 615.927 L993.804 609.756 L992.927 603.585 L992.1 597.414 L991.326 591.243 L990.607 585.072 L989.945 578.901 L989.34 572.73 L988.791 566.559 L988.293 560.388 L987.842 554.217 L987.428 548.046 L987.042 541.875 L986.675 535.705 L986.316 529.534 L985.959 523.363 L985.595 517.192 L985.22 511.021 L974.655 511.021 L974.281 517.192 L973.917 523.363 L973.559 529.534 L973.201 535.705 L972.833 541.875 L972.448 548.046 L972.034 554.217 L971.582 560.388 L971.085 566.559 L970.535 572.73 L969.93 578.901 L969.268 585.072 L968.549 591.243 L967.775 597.414 L966.949 603.585 L966.071 609.756 L965.144 615.927 L964.162 622.098 L963.122 628.269 L962.011 634.44 L960.817 640.611 L959.519 646.782 L958.097 652.953 L956.526 659.123 L954.782 665.294 L952.843 671.465 L950.69 677.636 L948.307 683.807 L945.688 689.978 L942.833 696.149 L939.749 702.32 L936.455 708.491 L932.974 714.662 L929.339 720.833 L925.586 727.004 L921.756 733.175 L917.893 739.346 L914.039 745.517 L910.235 751.688 L906.522 757.859 L902.935 764.03 L899.504 770.201 L896.255 776.371 L893.21 782.542 L890.382 788.713 L887.782 794.884 L885.413 801.055 L883.275 807.226 L881.362 813.397 L879.665 819.568 L878.171 825.739 L876.866 831.91 L875.734 838.081 L874.76 844.252 L873.931 850.423 L873.235 856.594 L872.663 862.765 L872.208 868.936 L871.866 875.107 L871.638 881.278 L871.523 887.449 L871.525 893.62 L871.645 899.79 L871.887 905.961 L872.253 912.132 L872.746 918.303 L873.367 924.474 L874.118 930.645 L875 936.816 L876.015 942.987 L877.164 949.158 L878.45 955.329 L879.873 961.5 L881.436 967.671 L883.136 973.842 L884.97 980.013 L886.93 986.184 L889.004 992.355 L891.175 998.526 L893.421 1004.7 L895.716 1010.87 L898.03 1017.04 L900.334 1023.21 L902.595 1029.38 L904.786 1035.55 L906.882 1041.72 L908.864 1047.89 L910.719 1054.06 L912.442 1060.24 L914.031 1066.41 L915.495 1072.58 L916.843 1078.75 L918.09 1084.92 L919.25 1091.09 L920.338 1097.26 L921.37 1103.43 L922.358 1109.6 L923.312 1115.77 L924.241 1121.94 L925.153 1128.12 L926.057 1134.29 L926.959 1140.46 L927.871 1146.63 L928.801 1152.8 L929.762 1158.97 L930.769 1165.14 L931.834 1171.31 L932.97 1177.48 L934.189 1183.65 L935.499 1189.83 L936.904 1196 L938.402 1202.17 L939.987 1208.34 L941.648 1214.51 L943.368 1220.68 L945.128 1226.85 L946.906 1233.02 L948.679 1239.19 L950.424 1245.36 L952.122 1251.53 L953.754 1257.71 L955.308 1263.88 L956.774 1270.05 L958.149 1276.22 L959.432 1282.39 L960.628 1288.56 L961.746 1294.73 L962.795 1300.9 L963.788 1307.07 L964.737 1313.24 L965.654 1319.41 L966.551 1325.59 L967.436 1331.76 L968.316 1337.93 L969.195 1344.1 L970.072 1350.27 L970.945 1356.44 L988.93 1356.44  Z" fill="#0077bb" fill-rule="evenodd" fill-opacity="0.4"/>
<polyline clip-path="url(#clip642)" style="stroke:#000000; stroke-linecap:round; stroke-linejoin:round; stroke-width:5.28; stroke-opacity:0.4; fill:none" points="988.93,1356.44 989.804,1350.27 990.681,1344.1 991.559,1337.93 992.439,1331.76 993.324,1325.59 994.221,1319.41 995.139,1313.24 996.087,1307.07 997.08,1300.9 998.129,1294.73 999.247,1288.56 1000.44,1282.39 1001.73,1276.22 1003.1,1270.05 1004.57,1263.88 1006.12,1257.71 1007.75,1251.53 1009.45,1245.36 1011.2,1239.19 1012.97,1233.02 1014.75,1226.85 1016.51,1220.68 1018.23,1214.51 1019.89,1208.34 1021.47,1202.17 1022.97,1196 1024.38,1189.83 1025.69,1183.65 1026.91,1177.48 1028.04,1171.31 1029.11,1165.14 1030.11,1158.97 1031.07,1152.8 1032,1146.63 1032.92,1140.46 1033.82,1134.29 1034.72,1128.12 1035.63,1121.94 1036.56,1115.77 1037.52,1109.6 1038.51,1103.43 1039.54,1097.26 1040.63,1091.09 1041.79,1084.92 1043.03,1078.75 1044.38,1072.58 1045.84,1066.41 1047.43,1060.24 1049.16,1054.06 1051.01,1047.89 1052.99,1041.72 1055.09,1035.55 1057.28,1029.38 1059.54,1023.21 1061.84,1017.04 1064.16,1010.87 1066.45,1004.7 1068.7,998.526 1070.87,992.355 1072.94,986.184 1074.9,980.013 1076.74,973.842 1078.44,967.671 1080,961.5 1081.43,955.329 1082.71,949.158 1083.86,942.987 1084.88,936.816 1085.76,930.645 1086.51,924.474 1087.13,918.303 1087.62,912.132 1087.99,905.961 1088.23,899.79 1088.35,893.62 1088.35,887.449 1088.24,881.278 1088.01,875.107 1087.67,868.936 1087.21,862.765 1086.64,856.594 1085.94,850.423 1085.11,844.252 1084.14,838.081 1083.01,831.91 1081.7,825.739 1080.21,819.568 1078.51,813.397 1076.6,807.226 1074.46,801.055 1072.09,794.884 1069.49,788.713 1066.67,782.542 1063.62,776.371 1060.37,770.201 1056.94,764.03 1053.35,757.859 1049.64,751.688 1045.84,745.517 1041.98,739.346 1038.12,733.175 1034.29,727.004 1030.54,720.833 1026.9,714.662 1023.42,708.491 1020.13,702.32 1017.04,696.149 1014.19,689.978 1011.57,683.807 1009.19,677.636 1007.03,671.465 1005.09,665.294 1003.35,659.123 1001.78,652.953 1000.36,646.782 999.058,640.611 997.864,634.44 996.753,628.269 995.713,622.098 994.732,615.927 993.804,609.756 992.927,603.585 992.1,597.414 991.326,591.243 990.607,585.072 989.945,578.901 989.34,572.73 988.791,566.559 988.293,560.388 987.842,554.217 987.428,548.046 987.042,541.875 986.675,535.705 986.316,529.534 985.959,523.363 985.595,517.192 985.22,511.021 974.655,511.021 974.281,517.192 973.917,523.363 973.559,529.534 973.201,535.705 972.833,541.875 972.448,548.046 972.034,554.217 971.582,560.388 971.085,566.559 970.535,572.73 969.93,578.901 969.268,585.072 968.549,591.243 967.775,597.414 966.949,603.585 966.071,609.756 965.144,615.927 964.162,622.098 963.122,628.269 962.011,634.44 960.817,640.611 959.519,646.782 958.097,652.953 956.526,659.123 954.782,665.294 952.843,671.465 950.69,677.636 948.307,683.807 945.688,689.978 942.833,696.149 939.749,702.32 936.455,708.491 932.974,714.662 929.339,720.833 925.586,727.004 921.756,733.175 917.893,739.346 914.039,745.517 910.235,751.688 906.522,757.859 902.935,764.03 899.504,770.201 896.255,776.371 893.21,782.542 890.382,788.713 887.782,794.884 885.413,801.055 883.275,807.226 881.362,813.397 879.665,819.568 878.171,825.739 876.866,831.91 875.734,838.081 874.76,844.252 873.931,850.423 873.235,856.594 872.663,862.765 872.208,868.936 871.866,875.107 871.638,881.278 871.523,887.449 871.525,893.62 871.645,899.79 871.887,905.961 872.253,912.132 872.746,918.303 873.367,924.474 874.118,930.645 875,936.816 876.015,942.987 877.164,949.158 878.45,955.329 879.873,961.5 881.436,967.671 883.136,973.842 884.97,980.013 886.93,986.184 889.004,992.355 891.175,998.526 893.421,1004.7 895.716,1010.87 898.03,1017.04 900.334,1023.21 902.595,1029.38 904.786,1035.55 906.882,1041.72 908.864,1047.89 910.719,1054.06 912.442,1060.24 914.031,1066.41 915.495,1072.58 916.843,1078.75 918.09,1084.92 919.25,1091.09 920.338,1097.26 921.37,1103.43 922.358,1109.6 923.312,1115.77 924.241,1121.94 925.153,1128.12 926.057,1134.29 926.959,1140.46 927.871,1146.63 928.801,1152.8 929.762,1158.97 930.769,1165.14 931.834,1171.31 932.97,1177.48 934.189,1183.65 935.499,1189.83 936.904,1196 938.402,1202.17 939.987,1208.34 941.648,1214.51 943.368,1220.68 945.128,1226.85 946.906,1233.02 948.679,1239.19 950.424,1245.36 952.122,1251.53 953.754,1257.71 955.308,1263.88 956.774,1270.05 958.149,1276.22 959.432,1282.39 960.628,1288.56 961.746,1294.73 962.795,1300.9 963.788,1307.07 964.737,1313.24 965.654,1319.41 966.551,1325.59 967.436,1331.76 968.316,1337.93 969.195,1344.1 970.072,1350.27 970.945,1356.44 988.93,1356.44 "/>
<path clip-path="url(#clip642)" d="M1360.1 1128.08 L1360.1 1121.63 L1360.08 1115.19 L1360.07 1108.75 L1360.04 1102.31 L1360.02 1095.86 L1360 1089.42 L1359.98 1082.98 L1359.96 1076.54 L1359.96 1070.09 L1359.96 1063.65 L1359.98 1057.21 L1360.01 1050.76 L1360.04 1044.32 L1360.09 1037.88 L1360.15 1031.44 L1360.21 1024.99 L1360.28 1018.55 L1360.36 1012.11 L1360.44 1005.67 L1360.53 999.223 L1360.62 992.78 L1360.73 986.338 L1360.85 979.895 L1360.98 973.452 L1361.14 967.009 L1361.32 960.567 L1361.52 954.124 L1361.76 947.681 L1362.03 941.239 L1362.34 934.796 L1362.69 928.353 L1363.08 921.91 L1363.52 915.468 L1363.99 909.025 L1364.5 902.582 L1365.05 896.139 L1365.63 889.697 L1366.25 883.254 L1366.91 876.811 L1367.61 870.369 L1368.34 863.926 L1369.13 857.483 L1369.96 851.04 L1370.86 844.598 L1371.83 838.155 L1372.88 831.712 L1374.02 825.27 L1375.25 818.827 L1376.57 812.384 L1377.98 805.941 L1379.48 799.499 L1381.05 793.056 L1382.67 786.613 L1384.31 780.171 L1385.95 773.728 L1387.55 767.285 L1389.08 760.842 L1390.51 754.4 L1391.8 747.957 L1392.93 741.514 L1393.87 735.072 L1394.61 728.629 L1395.13 722.186 L1395.43 715.743 L1395.51 709.301 L1395.38 702.858 L1395.03 696.415 L1394.5 689.973 L1393.78 683.53 L1392.9 677.087 L1391.88 670.644 L1390.73 664.202 L1389.47 657.759 L1388.13 651.316 L1386.73 644.873 L1385.28 638.431 L1383.83 631.988 L1382.4 625.545 L1381.01 619.103 L1379.69 612.66 L1378.48 606.217 L1377.4 599.774 L1376.47 593.332 L1375.73 586.889 L1375.18 580.446 L1374.85 574.004 L1374.76 567.561 L1374.93 561.118 L1375.35 554.675 L1376.05 548.233 L1377.04 541.79 L1378.31 535.347 L1379.87 528.905 L1381.72 522.462 L1383.86 516.019 L1386.26 509.576 L1388.91 503.134 L1391.79 496.691 L1394.86 490.248 L1398.1 483.806 L1401.47 477.363 L1404.92 470.92 L1408.44 464.477 L1411.97 458.035 L1415.52 451.592 L1419.05 445.149 L1422.56 438.706 L1426.05 432.264 L1429.53 425.821 L1433.01 419.378 L1436.49 412.936 L1439.98 406.493 L1443.47 400.05 L1446.96 393.607 L1450.4 387.165 L1453.75 380.722 L1456.94 374.279 L1459.9 367.837 L1462.53 361.394 L1464.73 354.951 L1466.4 348.508 L1467.45 342.066 L1467.8 335.623 L1467.38 329.18 L1466.15 322.738 L1464.08 316.295 L1461.21 309.852 L1457.56 303.409 L1453.2 296.967 L1448.23 290.524 L1442.74 284.081 L1436.86 277.639 L1430.7 271.196 L1424.41 264.753 L1418.09 258.31 L1411.86 251.868 L1405.83 245.425 L1312.95 245.425 L1306.91 251.868 L1300.68 258.31 L1294.37 264.753 L1288.07 271.196 L1281.92 277.639 L1276.04 284.081 L1270.55 290.524 L1265.57 296.967 L1261.21 303.409 L1257.57 309.852 L1254.69 316.295 L1252.63 322.738 L1251.4 329.18 L1250.97 335.623 L1251.32 342.066 L1252.37 348.508 L1254.05 354.951 L1256.25 361.394 L1258.88 367.837 L1261.84 374.279 L1265.03 380.722 L1268.38 387.165 L1271.82 393.607 L1275.3 400.05 L1278.8 406.493 L1282.29 412.936 L1285.77 419.378 L1289.24 425.821 L1292.72 432.264 L1296.21 438.706 L1299.73 445.149 L1303.26 451.592 L1306.8 458.035 L1310.34 464.477 L1313.85 470.92 L1317.31 477.363 L1320.67 483.806 L1323.91 490.248 L1326.98 496.691 L1329.86 503.134 L1332.52 509.576 L1334.92 516.019 L1337.05 522.462 L1338.9 528.905 L1340.47 535.347 L1341.74 541.79 L1342.72 548.233 L1343.42 554.675 L1343.85 561.118 L1344.01 567.561 L1343.92 574.004 L1343.59 580.446 L1343.05 586.889 L1342.3 593.332 L1341.38 599.774 L1340.29 606.217 L1339.08 612.66 L1337.77 619.103 L1336.38 625.545 L1334.94 631.988 L1333.49 638.431 L1332.05 644.873 L1330.64 651.316 L1329.3 657.759 L1328.04 664.202 L1326.89 670.644 L1325.87 677.087 L1324.99 683.53 L1324.28 689.973 L1323.74 696.415 L1323.4 702.858 L1323.26 709.301 L1323.34 715.743 L1323.64 722.186 L1324.16 728.629 L1324.9 735.072 L1325.84 741.514 L1326.97 747.957 L1328.26 754.4 L1329.69 760.842 L1331.22 767.285 L1332.83 773.728 L1334.47 780.171 L1336.11 786.613 L1337.73 793.056 L1339.29 799.499 L1340.79 805.941 L1342.2 812.384 L1343.53 818.827 L1344.76 825.27 L1345.89 831.712 L1346.94 838.155 L1347.91 844.598 L1348.81 851.04 L1349.65 857.483 L1350.43 863.926 L1351.17 870.369 L1351.87 876.811 L1352.52 883.254 L1353.14 889.697 L1353.73 896.139 L1354.28 902.582 L1354.79 909.025 L1355.26 915.468 L1355.69 921.91 L1356.08 928.353 L1356.43 934.796 L1356.74 941.239 L1357.01 947.681 L1357.25 954.124 L1357.46 960.567 L1357.64 967.009 L1357.79 973.452 L1357.93 979.895 L1358.05 986.338 L1358.15 992.78 L1358.25 999.223 L1358.34 1005.67 L1358.42 1012.11 L1358.5 1018.55 L1358.57 1024.99 L1358.63 1031.44 L1358.68 1037.88 L1358.73 1044.32 L1358.77 1050.76 L1358.8 1057.21 L1358.81 1063.65 L1358.82 1070.09 L1358.81 1076.54 L1358.8 1082.98 L1358.78 1089.42 L1358.76 1095.86 L1358.73 1102.31 L1358.71 1108.75 L1358.69 1115.19 L1358.68 1121.63 L1358.67 1128.08 L1360.1 1128.08  Z" fill="#33bbee" fill-rule="evenodd" fill-opacity="0.4"/>
<polyline clip-path="url(#clip642)" style="stroke:#000000; stroke-linecap:round; stroke-linejoin:round; stroke-width:5.28; stroke-opacity:0.4; fill:none" points="1360.1,1128.08 1360.1,1121.63 1360.08,1115.19 1360.07,1108.75 1360.04,1102.31 1360.02,1095.86 1360,1089.42 1359.98,1082.98 1359.96,1076.54 1359.96,1070.09 1359.96,1063.65 1359.98,1057.21 1360.01,1050.76 1360.04,1044.32 1360.09,1037.88 1360.15,1031.44 1360.21,1024.99 1360.28,1018.55 1360.36,1012.11 1360.44,1005.67 1360.53,999.223 1360.62,992.78 1360.73,986.338 1360.85,979.895 1360.98,973.452 1361.14,967.009 1361.32,960.567 1361.52,954.124 1361.76,947.681 1362.03,941.239 1362.34,934.796 1362.69,928.353 1363.08,921.91 1363.52,915.468 1363.99,909.025 1364.5,902.582 1365.05,896.139 1365.63,889.697 1366.25,883.254 1366.91,876.811 1367.61,870.369 1368.34,863.926 1369.13,857.483 1369.96,851.04 1370.86,844.598 1371.83,838.155 1372.88,831.712 1374.02,825.27 1375.25,818.827 1376.57,812.384 1377.98,805.941 1379.48,799.499 1381.05,793.056 1382.67,786.613 1384.31,780.171 1385.95,773.728 1387.55,767.285 1389.08,760.842 1390.51,754.4 1391.8,747.957 1392.93,741.514 1393.87,735.072 1394.61,728.629 1395.13,722.186 1395.43,715.743 1395.51,709.301 1395.38,702.858 1395.03,696.415 1394.5,689.973 1393.78,683.53 1392.9,677.087 1391.88,670.644 1390.73,664.202 1389.47,657.759 1388.13,651.316 1386.73,644.873 1385.28,638.431 1383.83,631.988 1382.4,625.545 1381.01,619.103 1379.69,612.66 1378.48,606.217 1377.4,599.774 1376.47,593.332 1375.73,586.889 1375.18,580.446 1374.85,574.004 1374.76,567.561 1374.93,561.118 1375.35,554.675 1376.05,548.233 1377.04,541.79 1378.31,535.347 1379.87,528.905 1381.72,522.462 1383.86,516.019 1386.26,509.576 1388.91,503.134 1391.79,496.691 1394.86,490.248 1398.1,483.806 1401.47,477.363 1404.92,470.92 1408.44,464.477 1411.97,458.035 1415.52,451.592 1419.05,445.149 1422.56,438.706 1426.05,432.264 1429.53,425.821 1433.01,419.378 1436.49,412.936 1439.98,406.493 1443.47,400.05 1446.96,393.607 1450.4,387.165 1453.75,380.722 1456.94,374.279 1459.9,367.837 1462.53,361.394 1464.73,354.951 1466.4,348.508 1467.45,342.066 1467.8,335.623 1467.38,329.18 1466.15,322.738 1464.08,316.295 1461.21,309.852 1457.56,303.409 1453.2,296.967 1448.23,290.524 1442.74,284.081 1436.86,277.639 1430.7,271.196 1424.41,264.753 1418.09,258.31 1411.86,251.868 1405.83,245.425 1312.95,245.425 1306.91,251.868 1300.68,258.31 1294.37,264.753 1288.07,271.196 1281.92,277.639 1276.04,284.081 1270.55,290.524 1265.57,296.967 1261.21,303.409 1257.57,309.852 1254.69,316.295 1252.63,322.738 1251.4,329.18 1250.97,335.623 1251.32,342.066 1252.37,348.508 1254.05,354.951 1256.25,361.394 1258.88,367.837 1261.84,374.279 1265.03,380.722 1268.38,387.165 1271.82,393.607 1275.3,400.05 1278.8,406.493 1282.29,412.936 1285.77,419.378 1289.24,425.821 1292.72,432.264 1296.21,438.706 1299.73,445.149 1303.26,451.592 1306.8,458.035 1310.34,464.477 1313.85,470.92 1317.31,477.363 1320.67,483.806 1323.91,490.248 1326.98,496.691 1329.86,503.134 1332.52,509.576 1334.92,516.019 1337.05,522.462 1338.9,528.905 1340.47,535.347 1341.74,541.79 1342.72,548.233 1343.42,554.675 1343.85,561.118 1344.01,567.561 1343.92,574.004 1343.59,580.446 1343.05,586.889 1342.3,593.332 1341.38,599.774 1340.29,606.217 1339.08,612.66 1337.77,619.103 1336.38,625.545 1334.94,631.988 1333.49,638.431 1332.05,644.873 1330.64,651.316 1329.3,657.759 1328.04,664.202 1326.89,670.644 1325.87,677.087 1324.99,683.53 1324.28,689.973 1323.74,696.415 1323.4,702.858 1323.26,709.301 1323.34,715.743 1323.64,722.186 1324.16,728.629 1324.9,735.072 1325.84,741.514 1326.97,747.957 1328.26,754.4 1329.69,760.842 1331.22,767.285 1332.83,773.728 1334.47,780.171 1336.11,786.613 1337.73,793.056 1339.29,799.499 1340.79,805.941 1342.2,812.384 1343.53,818.827 1344.76,825.27 1345.89,831.712 1346.94,838.155 1347.91,844.598 1348.81,851.04 1349.65,857.483 1350.43,863.926 1351.17,870.369 1351.87,876.811 1352.52,883.254 1353.14,889.697 1353.73,896.139 1354.28,902.582 1354.79,909.025 1355.26,915.468 1355.69,921.91 1356.08,928.353 1356.43,934.796 1356.74,941.239 1357.01,947.681 1357.25,954.124 1357.46,960.567 1357.64,967.009 1357.79,973.452 1357.93,979.895 1358.05,986.338 1358.15,992.78 1358.25,999.223 1358.34,1005.67 1358.42,1012.11 1358.5,1018.55 1358.57,1024.99 1358.63,1031.44 1358.68,1037.88 1358.73,1044.32 1358.77,1050.76 1358.8,1057.21 1358.81,1063.65 1358.82,1070.09 1358.81,1076.54 1358.8,1082.98 1358.78,1089.42 1358.76,1095.86 1358.73,1102.31 1358.71,1108.75 1358.69,1115.19 1358.68,1121.63 1358.67,1128.08 1360.1,1128.08 "/>
<path clip-path="url(#clip642)" d="M1747.95 859.325 L1748.66 854.317 L1749.4 849.31 L1750.17 844.302 L1750.96 839.294 L1751.79 834.286 L1752.66 829.278 L1753.57 824.27 L1754.53 819.262 L1755.54 814.255 L1756.6 809.247 L1757.7 804.239 L1758.84 799.231 L1760.02 794.223 L1761.22 789.215 L1762.44 784.208 L1763.66 779.2 L1764.86 774.192 L1766.04 769.184 L1767.17 764.176 L1768.24 759.168 L1769.24 754.16 L1770.15 749.153 L1770.97 744.145 L1771.67 739.137 L1772.26 734.129 L1772.72 729.121 L1773.07 724.113 L1773.29 719.105 L1773.39 714.098 L1773.38 709.09 L1773.25 704.082 L1773.01 699.074 L1772.67 694.066 L1772.23 689.058 L1771.7 684.05 L1771.09 679.043 L1770.39 674.035 L1769.62 669.027 L1768.77 664.019 L1767.86 659.011 L1766.89 654.003 L1765.87 648.995 L1764.8 643.988 L1763.7 638.98 L1762.57 633.972 L1761.44 628.964 L1760.31 623.956 L1759.2 618.948 L1758.12 613.94 L1757.09 608.933 L1756.12 603.925 L1755.23 598.917 L1754.42 593.909 L1753.72 588.901 L1753.12 583.893 L1752.64 578.885 L1752.29 573.878 L1752.08 568.87 L1752 563.862 L1752.07 558.854 L1752.29 553.846 L1752.67 548.838 L1753.2 543.83 L1753.9 538.823 L1754.77 533.815 L1755.82 528.807 L1757.04 523.799 L1758.43 518.791 L1760 513.783 L1761.74 508.776 L1763.65 503.768 L1765.72 498.76 L1767.94 493.752 L1770.29 488.744 L1772.77 483.736 L1775.36 478.728 L1778.03 473.721 L1780.78 468.713 L1783.59 463.705 L1786.44 458.697 L1789.33 453.689 L1792.24 448.681 L1795.17 443.673 L1798.11 438.666 L1801.06 433.658 L1804.03 428.65 L1807.01 423.642 L1810.02 418.634 L1813.04 413.626 L1816.07 408.618 L1819.11 403.611 L1822.16 398.603 L1825.18 393.595 L1828.16 388.587 L1831.07 383.579 L1833.87 378.571 L1836.52 373.563 L1838.99 368.556 L1841.22 363.548 L1843.16 358.54 L1844.78 353.532 L1846.03 348.524 L1846.86 343.516 L1847.25 338.508 L1847.17 333.501 L1846.61 328.493 L1845.55 323.485 L1843.99 318.477 L1841.95 313.469 L1839.45 308.461 L1836.5 303.453 L1833.15 298.446 L1829.43 293.438 L1825.4 288.43 L1821.09 283.422 L1816.56 278.414 L1811.87 273.406 L1807.07 268.398 L1802.22 263.391 L1797.35 258.383 L1792.53 253.375 L1787.81 248.367 L1783.21 243.359 L1694.46 243.359 L1689.87 248.367 L1685.14 253.375 L1680.32 258.383 L1675.46 263.391 L1670.6 268.398 L1665.8 273.406 L1661.11 278.414 L1656.58 283.422 L1652.28 288.43 L1648.24 293.438 L1644.52 298.446 L1641.17 303.453 L1638.23 308.461 L1635.72 313.469 L1633.68 318.477 L1632.13 323.485 L1631.07 328.493 L1630.5 333.501 L1630.42 338.508 L1630.81 343.516 L1631.65 348.524 L1632.89 353.532 L1634.51 358.54 L1636.46 363.548 L1638.69 368.556 L1641.15 373.563 L1643.81 378.571 L1646.61 383.579 L1649.52 388.587 L1652.5 393.595 L1655.52 398.603 L1658.56 403.611 L1661.6 408.618 L1664.64 413.626 L1667.66 418.634 L1670.66 423.642 L1673.64 428.65 L1676.61 433.658 L1679.57 438.666 L1682.51 443.673 L1685.44 448.681 L1688.35 453.689 L1691.23 458.697 L1694.09 463.705 L1696.89 468.713 L1699.64 473.721 L1702.32 478.728 L1704.9 483.736 L1707.38 488.744 L1709.73 493.752 L1711.95 498.76 L1714.02 503.768 L1715.93 508.776 L1717.67 513.783 L1719.24 518.791 L1720.64 523.799 L1721.86 528.807 L1722.9 533.815 L1723.77 538.823 L1724.47 543.83 L1725.01 548.838 L1725.39 553.846 L1725.61 558.854 L1725.67 563.862 L1725.6 568.87 L1725.38 573.878 L1725.03 578.885 L1724.55 583.893 L1723.96 588.901 L1723.25 593.909 L1722.45 598.917 L1721.55 603.925 L1720.59 608.933 L1719.55 613.94 L1718.48 618.948 L1717.37 623.956 L1716.24 628.964 L1715.1 633.972 L1713.98 638.98 L1712.88 643.988 L1711.81 648.995 L1710.79 654.003 L1709.81 659.011 L1708.9 664.019 L1708.06 669.027 L1707.28 674.035 L1706.59 679.043 L1705.97 684.05 L1705.44 689.058 L1705 694.066 L1704.66 699.074 L1704.43 704.082 L1704.3 709.09 L1704.28 714.098 L1704.38 719.105 L1704.6 724.113 L1704.95 729.121 L1705.42 734.129 L1706 739.137 L1706.71 744.145 L1707.52 749.153 L1708.43 754.16 L1709.43 759.168 L1710.5 764.176 L1711.64 769.184 L1712.81 774.192 L1714.02 779.2 L1715.24 784.208 L1716.45 789.215 L1717.66 794.223 L1718.83 799.231 L1719.98 804.239 L1721.08 809.247 L1722.13 814.255 L1723.14 819.262 L1724.1 824.27 L1725.01 829.278 L1725.88 834.286 L1726.71 839.294 L1727.51 844.302 L1728.27 849.31 L1729.01 854.317 L1729.72 859.325 L1747.95 859.325  Z" fill="#ee3377" fill-rule="evenodd" fill-opacity="0.4"/>
<polyline clip-path="url(#clip642)" style="stroke:#000000; stroke-linecap:round; stroke-linejoin:round; stroke-width:5.28; stroke-opacity:0.4; fill:none" points="1747.95,859.325 1748.66,854.317 1749.4,849.31 1750.17,844.302 1750.96,839.294 1751.79,834.286 1752.66,829.278 1753.57,824.27 1754.53,819.262 1755.54,814.255 1756.6,809.247 1757.7,804.239 1758.84,799.231 1760.02,794.223 1761.22,789.215 1762.44,784.208 1763.66,779.2 1764.86,774.192 1766.04,769.184 1767.17,764.176 1768.24,759.168 1769.24,754.16 1770.15,749.153 1770.97,744.145 1771.67,739.137 1772.26,734.129 1772.72,729.121 1773.07,724.113 1773.29,719.105 1773.39,714.098 1773.38,709.09 1773.25,704.082 1773.01,699.074 1772.67,694.066 1772.23,689.058 1771.7,684.05 1771.09,679.043 1770.39,674.035 1769.62,669.027 1768.77,664.019 1767.86,659.011 1766.89,654.003 1765.87,648.995 1764.8,643.988 1763.7,638.98 1762.57,633.972 1761.44,628.964 1760.31,623.956 1759.2,618.948 1758.12,613.94 1757.09,608.933 1756.12,603.925 1755.23,598.917 1754.42,593.909 1753.72,588.901 1753.12,583.893 1752.64,578.885 1752.29,573.878 1752.08,568.87 1752,563.862 1752.07,558.854 1752.29,553.846 1752.67,548.838 1753.2,543.83 1753.9,538.823 1754.77,533.815 1755.82,528.807 1757.04,523.799 1758.43,518.791 1760,513.783 1761.74,508.776 1763.65,503.768 1765.72,498.76 1767.94,493.752 1770.29,488.744 1772.77,483.736 1775.36,478.728 1778.03,473.721 1780.78,468.713 1783.59,463.705 1786.44,458.697 1789.33,453.689 1792.24,448.681 1795.17,443.673 1798.11,438.666 1801.06,433.658 1804.03,428.65 1807.01,423.642 1810.02,418.634 1813.04,413.626 1816.07,408.618 1819.11,403.611 1822.16,398.603 1825.18,393.595 1828.16,388.587 1831.07,383.579 1833.87,378.571 1836.52,373.563 1838.99,368.556 1841.22,363.548 1843.16,358.54 1844.78,353.532 1846.03,348.524 1846.86,343.516 1847.25,338.508 1847.17,333.501 1846.61,328.493 1845.55,323.485 1843.99,318.477 1841.95,313.469 1839.45,308.461 1836.5,303.453 1833.15,298.446 1829.43,293.438 1825.4,288.43 1821.09,283.422 1816.56,278.414 1811.87,273.406 1807.07,268.398 1802.22,263.391 1797.35,258.383 1792.53,253.375 1787.81,248.367 1783.21,243.359 1694.46,243.359 1689.87,248.367 1685.14,253.375 1680.32,258.383 1675.46,263.391 1670.6,268.398 1665.8,273.406 1661.11,278.414 1656.58,283.422 1652.28,288.43 1648.24,293.438 1644.52,298.446 1641.17,303.453 1638.23,308.461 1635.72,313.469 1633.68,318.477 1632.13,323.485 1631.07,328.493 1630.5,333.501 1630.42,338.508 1630.81,343.516 1631.65,348.524 1632.89,353.532 1634.51,358.54 1636.46,363.548 1638.69,368.556 1641.15,373.563 1643.81,378.571 1646.61,383.579 1649.52,388.587 1652.5,393.595 1655.52,398.603 1658.56,403.611 1661.6,408.618 1664.64,413.626 1667.66,418.634 1670.66,423.642 1673.64,428.65 1676.61,433.658 1679.57,438.666 1682.51,443.673 1685.44,448.681 1688.35,453.689 1691.23,458.697 1694.09,463.705 1696.89,468.713 1699.64,473.721 1702.32,478.728 1704.9,483.736 1707.38,488.744 1709.73,493.752 1711.95,498.76 1714.02,503.768 1715.93,508.776 1717.67,513.783 1719.24,518.791 1720.64,523.799 1721.86,528.807 1722.9,533.815 1723.77,538.823 1724.47,543.83 1725.01,548.838 1725.39,553.846 1725.61,558.854 1725.67,563.862 1725.6,568.87 1725.38,573.878 1725.03,578.885 1724.55,583.893 1723.96,588.901 1723.25,593.909 1722.45,598.917 1721.55,603.925 1720.59,608.933 1719.55,613.94 1718.48,618.948 1717.37,623.956 1716.24,628.964 1715.1,633.972 1713.98,638.98 1712.88,643.988 1711.81,648.995 1710.79,654.003 1709.81,659.011 1708.9,664.019 1708.06,669.027 1707.28,674.035 1706.59,679.043 1705.97,684.05 1705.44,689.058 1705,694.066 1704.66,699.074 1704.43,704.082 1704.3,709.09 1704.28,714.098 1704.38,719.105 1704.6,724.113 1704.95,729.121 1705.42,734.129 1706,739.137 1706.71,744.145 1707.52,749.153 1708.43,754.16 1709.43,759.168 1710.5,764.176 1711.64,769.184 1712.81,774.192 1714.02,779.2 1715.24,784.208 1716.45,789.215 1717.66,794.223 1718.83,799.231 1719.98,804.239 1721.08,809.247 1722.13,814.255 1723.14,819.262 1724.1,824.27 1725.01,829.278 1725.88,834.286 1726.71,839.294 1727.51,844.302 1728.27,849.31 1729.01,854.317 1729.72,859.325 1747.95,859.325 "/>
<path clip-path="url(#clip642)" d="M2121.2 1043.33 L2121.25 1037.88 L2121.29 1032.44 L2121.32 1027 L2121.36 1021.55 L2121.4 1016.11 L2121.46 1010.67 L2121.54 1005.23 L2121.66 999.782 L2121.8 994.339 L2121.98 988.895 L2122.2 983.452 L2122.45 978.009 L2122.73 972.565 L2123.04 967.122 L2123.37 961.679 L2123.72 956.236 L2124.08 950.792 L2124.46 945.349 L2124.85 939.906 L2125.25 934.463 L2125.68 929.019 L2126.12 923.576 L2126.6 918.133 L2127.12 912.69 L2127.67 907.246 L2128.29 901.803 L2128.96 896.36 L2129.69 890.916 L2130.5 885.473 L2131.39 880.03 L2132.35 874.587 L2133.4 869.143 L2134.54 863.7 L2135.77 858.257 L2137.08 852.814 L2138.48 847.37 L2139.96 841.927 L2141.52 836.484 L2143.15 831.04 L2144.83 825.597 L2146.55 820.154 L2148.3 814.711 L2150.06 809.267 L2151.8 803.824 L2153.51 798.381 L2155.17 792.938 L2156.75 787.494 L2158.25 782.051 L2159.64 776.608 L2160.9 771.165 L2162.04 765.721 L2163.04 760.278 L2163.89 754.835 L2164.59 749.391 L2165.12 743.948 L2165.48 738.505 L2165.66 733.062 L2165.65 727.618 L2165.45 722.175 L2165.06 716.732 L2164.48 711.289 L2163.72 705.845 L2162.79 700.402 L2161.72 694.959 L2160.54 689.516 L2159.3 684.072 L2158.02 678.629 L2156.77 673.186 L2155.59 667.742 L2154.53 662.299 L2153.64 656.856 L2152.94 651.413 L2152.49 645.969 L2152.29 640.526 L2152.36 635.083 L2152.71 629.64 L2153.32 624.196 L2154.19 618.753 L2155.31 613.31 L2156.64 607.867 L2158.18 602.423 L2159.89 596.98 L2161.77 591.537 L2163.81 586.093 L2165.98 580.65 L2168.31 575.207 L2170.78 569.764 L2173.4 564.32 L2176.18 558.877 L2179.14 553.434 L2182.26 547.991 L2185.55 542.547 L2189 537.104 L2192.58 531.661 L2196.25 526.218 L2199.98 520.774 L2203.69 515.331 L2207.32 509.888 L2210.8 504.444 L2214.06 499.001 L2217.02 493.558 L2219.64 488.115 L2221.86 482.671 L2223.66 477.228 L2225.03 471.785 L2225.98 466.342 L2226.53 460.898 L2226.7 455.455 L2226.55 450.012 L2226.11 444.569 L2225.41 439.125 L2224.49 433.682 L2223.35 428.239 L2222.01 422.795 L2220.43 417.352 L2218.6 411.909 L2216.48 406.466 L2214.04 401.022 L2211.23 395.579 L2208.03 390.136 L2204.43 384.693 L2200.44 379.249 L2196.07 373.806 L2191.37 368.363 L2186.39 362.92 L2181.22 357.476 L2175.94 352.033 L2170.63 346.59 L2165.39 341.146 L2160.3 335.703 L2155.43 330.26 L2150.85 324.817 L2146.58 319.373 L2089.99 319.373 L2085.73 324.817 L2081.14 330.26 L2076.27 335.703 L2071.18 341.146 L2065.94 346.59 L2060.63 352.033 L2055.35 357.476 L2050.18 362.92 L2045.21 368.363 L2040.51 373.806 L2036.14 379.249 L2032.14 384.693 L2028.54 390.136 L2025.34 395.579 L2022.54 401.022 L2020.09 406.466 L2017.97 411.909 L2016.14 417.352 L2014.57 422.795 L2013.22 428.239 L2012.09 433.682 L2011.16 439.125 L2010.47 444.569 L2010.03 450.012 L2009.87 455.455 L2010.05 460.898 L2010.59 466.342 L2011.54 471.785 L2012.91 477.228 L2014.71 482.671 L2016.94 488.115 L2019.55 493.558 L2022.52 499.001 L2025.78 504.444 L2029.26 509.888 L2032.89 515.331 L2036.6 520.774 L2040.32 526.218 L2043.99 531.661 L2047.57 537.104 L2051.02 542.547 L2054.31 547.991 L2057.44 553.434 L2060.39 558.877 L2063.17 564.32 L2065.8 569.764 L2068.27 575.207 L2070.59 580.65 L2072.77 586.093 L2074.8 591.537 L2076.68 596.98 L2078.4 602.423 L2079.93 607.867 L2081.27 613.31 L2082.38 618.753 L2083.25 624.196 L2083.87 629.64 L2084.21 635.083 L2084.28 640.526 L2084.09 645.969 L2083.63 651.413 L2082.94 656.856 L2082.04 662.299 L2080.99 667.742 L2079.81 673.186 L2078.55 678.629 L2077.28 684.072 L2076.03 689.516 L2074.85 694.959 L2073.78 700.402 L2072.86 705.845 L2072.09 711.289 L2071.51 716.732 L2071.12 722.175 L2070.92 727.618 L2070.92 733.062 L2071.1 738.505 L2071.46 743.948 L2071.99 749.391 L2072.68 754.835 L2073.53 760.278 L2074.53 765.721 L2075.67 771.165 L2076.94 776.608 L2078.33 782.051 L2079.82 787.494 L2081.4 792.938 L2083.06 798.381 L2084.77 803.824 L2086.52 809.267 L2088.27 814.711 L2090.02 820.154 L2091.75 825.597 L2093.43 831.04 L2095.05 836.484 L2096.61 841.927 L2098.09 847.37 L2099.49 852.814 L2100.81 858.257 L2102.03 863.7 L2103.17 869.143 L2104.22 874.587 L2105.19 880.03 L2106.07 885.473 L2106.88 890.916 L2107.62 896.36 L2108.29 901.803 L2108.9 907.246 L2109.46 912.69 L2109.97 918.133 L2110.45 923.576 L2110.9 929.019 L2111.32 934.463 L2111.73 939.906 L2112.12 945.349 L2112.49 950.792 L2112.86 956.236 L2113.21 961.679 L2113.54 967.122 L2113.84 972.565 L2114.12 978.009 L2114.37 983.452 L2114.59 988.895 L2114.77 994.339 L2114.92 999.782 L2115.03 1005.23 L2115.12 1010.67 L2115.18 1016.11 L2115.22 1021.55 L2115.25 1027 L2115.29 1032.44 L2115.32 1037.88 L2115.38 1043.33 L2121.2 1043.33  Z" fill="#cc3311" fill-rule="evenodd" fill-opacity="0.4"/>
<polyline clip-path="url(#clip642)" style="stroke:#000000; stroke-linecap:round; stroke-linejoin:round; stroke-width:5.28; stroke-opacity:0.4; fill:none" points="2121.2,1043.33 2121.25,1037.88 2121.29,1032.44 2121.32,1027 2121.36,1021.55 2121.4,1016.11 2121.46,1010.67 2121.54,1005.23 2121.66,999.782 2121.8,994.339 2121.98,988.895 2122.2,983.452 2122.45,978.009 2122.73,972.565 2123.04,967.122 2123.37,961.679 2123.72,956.236 2124.08,950.792 2124.46,945.349 2124.85,939.906 2125.25,934.463 2125.68,929.019 2126.12,923.576 2126.6,918.133 2127.12,912.69 2127.67,907.246 2128.29,901.803 2128.96,896.36 2129.69,890.916 2130.5,885.473 2131.39,880.03 2132.35,874.587 2133.4,869.143 2134.54,863.7 2135.77,858.257 2137.08,852.814 2138.48,847.37 2139.96,841.927 2141.52,836.484 2143.15,831.04 2144.83,825.597 2146.55,820.154 2148.3,814.711 2150.06,809.267 2151.8,803.824 2153.51,798.381 2155.17,792.938 2156.75,787.494 2158.25,782.051 2159.64,776.608 2160.9,771.165 2162.04,765.721 2163.04,760.278 2163.89,754.835 2164.59,749.391 2165.12,743.948 2165.48,738.505 2165.66,733.062 2165.65,727.618 2165.45,722.175 2165.06,716.732 2164.48,711.289 2163.72,705.845 2162.79,700.402 2161.72,694.959 2160.54,689.516 2159.3,684.072 2158.02,678.629 2156.77,673.186 2155.59,667.742 2154.53,662.299 2153.64,656.856 2152.94,651.413 2152.49,645.969 2152.29,640.526 2152.36,635.083 2152.71,629.64 2153.32,624.196 2154.19,618.753 2155.31,613.31 2156.64,607.867 2158.18,602.423 2159.89,596.98 2161.77,591.537 2163.81,586.093 2165.98,580.65 2168.31,575.207 2170.78,569.764 2173.4,564.32 2176.18,558.877 2179.14,553.434 2182.26,547.991 2185.55,542.547 2189,537.104 2192.58,531.661 2196.25,526.218 2199.98,520.774 2203.69,515.331 2207.32,509.888 2210.8,504.444 2214.06,499.001 2217.02,493.558 2219.64,488.115 2221.86,482.671 2223.66,477.228 2225.03,471.785 2225.98,466.342 2226.53,460.898 2226.7,455.455 2226.55,450.012 2226.11,444.569 2225.41,439.125 2224.49,433.682 2223.35,428.239 2222.01,422.795 2220.43,417.352 2218.6,411.909 2216.48,406.466 2214.04,401.022 2211.23,395.579 2208.03,390.136 2204.43,384.693 2200.44,379.249 2196.07,373.806 2191.37,368.363 2186.39,362.92 2181.22,357.476 2175.94,352.033 2170.63,346.59 2165.39,341.146 2160.3,335.703 2155.43,330.26 2150.85,324.817 2146.58,319.373 2089.99,319.373 2085.73,324.817 2081.14,330.26 2076.27,335.703 2071.18,341.146 2065.94,346.59 2060.63,352.033 2055.35,357.476 2050.18,362.92 2045.21,368.363 2040.51,373.806 2036.14,379.249 2032.14,384.693 2028.54,390.136 2025.34,395.579 2022.54,401.022 2020.09,406.466 2017.97,411.909 2016.14,417.352 2014.57,422.795 2013.22,428.239 2012.09,433.682 2011.16,439.125 2010.47,444.569 2010.03,450.012 2009.87,455.455 2010.05,460.898 2010.59,466.342 2011.54,471.785 2012.91,477.228 2014.71,482.671 2016.94,488.115 2019.55,493.558 2022.52,499.001 2025.78,504.444 2029.26,509.888 2032.89,515.331 2036.6,520.774 2040.32,526.218 2043.99,531.661 2047.57,537.104 2051.02,542.547 2054.31,547.991 2057.44,553.434 2060.39,558.877 2063.17,564.32 2065.8,569.764 2068.27,575.207 2070.59,580.65 2072.77,586.093 2074.8,591.537 2076.68,596.98 2078.4,602.423 2079.93,607.867 2081.27,613.31 2082.38,618.753 2083.25,624.196 2083.87,629.64 2084.21,635.083 2084.28,640.526 2084.09,645.969 2083.63,651.413 2082.94,656.856 2082.04,662.299 2080.99,667.742 2079.81,673.186 2078.55,678.629 2077.28,684.072 2076.03,689.516 2074.85,694.959 2073.78,700.402 2072.86,705.845 2072.09,711.289 2071.51,716.732 2071.12,722.175 2070.92,727.618 2070.92,733.062 2071.1,738.505 2071.46,743.948 2071.99,749.391 2072.68,754.835 2073.53,760.278 2074.53,765.721 2075.67,771.165 2076.94,776.608 2078.33,782.051 2079.82,787.494 2081.4,792.938 2083.06,798.381 2084.77,803.824 2086.52,809.267 2088.27,814.711 2090.02,820.154 2091.75,825.597 2093.43,831.04 2095.05,836.484 2096.61,841.927 2098.09,847.37 2099.49,852.814 2100.81,858.257 2102.03,863.7 2103.17,869.143 2104.22,874.587 2105.19,880.03 2106.07,885.473 2106.88,890.916 2107.62,896.36 2108.29,901.803 2108.9,907.246 2109.46,912.69 2109.97,918.133 2110.45,923.576 2110.9,929.019 2111.32,934.463 2111.73,939.906 2112.12,945.349 2112.49,950.792 2112.86,956.236 2113.21,961.679 2113.54,967.122 2113.84,972.565 2114.12,978.009 2114.37,983.452 2114.59,988.895 2114.77,994.339 2114.92,999.782 2115.03,1005.23 2115.12,1010.67 2115.18,1016.11 2115.22,1021.55 2115.25,1027 2115.29,1032.44 2115.32,1037.88 2115.38,1043.33 2121.2,1043.33 "/>
<path clip-path="url(#clip642)" d="M600.488 932.93 L546.281 932.93 L654.695 932.93 L600.488 932.93 L600.488 586.755 L600.488 932.93  Z" fill="#000000" fill-rule="evenodd" fill-opacity="0.1"/>
<polyline clip-path="url(#clip642)" style="stroke:#000000; stroke-linecap:round; stroke-linejoin:round; stroke-width:5.28; stroke-opacity:1; fill:none" points="600.488,932.93 546.281,932.93 654.695,932.93 600.488,932.93 600.488,586.755 600.488,932.93 "/>
<path clip-path="url(#clip642)" d="M708.902 586.755 L708.902 387.786 L492.074 387.786 L492.074 586.755 L708.902 586.755 L708.902 387.786 L708.902 586.755  Z" fill="#000000" fill-rule="evenodd" fill-opacity="0.1"/>
<polyline clip-path="url(#clip642)" style="stroke:#000000; stroke-linecap:round; stroke-linejoin:round; stroke-width:5.28; stroke-opacity:1; fill:none" points="708.902,586.755 708.902,387.786 492.074,387.786 492.074,586.755 708.902,586.755 708.902,387.786 708.902,586.755 "/>
<path clip-path="url(#clip642)" d="M708.902 326.597 L492.074 326.597 L492.074 387.786 L708.902 387.786 L708.902 326.597 L600.488 326.597 L708.902 326.597  Z" fill="#000000" fill-rule="evenodd" fill-opacity="0.1"/>
<polyline clip-path="url(#clip642)" style="stroke:#000000; stroke-linecap:round; stroke-linejoin:round; stroke-width:5.28; stroke-opacity:1; fill:none" points="708.902,326.597 492.074,326.597 492.074,387.786 708.902,387.786 708.902,326.597 600.488,326.597 708.902,326.597 "/>
<path clip-path="url(#clip642)" d="M600.488 241.683 L546.281 241.683 L654.695 241.683 L600.488 241.683 L600.488 326.597 L600.488 241.683  Z" fill="#000000" fill-rule="evenodd" fill-opacity="0.1"/>
<polyline clip-path="url(#clip642)" style="stroke:#000000; stroke-linecap:round; stroke-linejoin:round; stroke-width:5.28; stroke-opacity:1; fill:none" points="600.488,241.683 546.281,241.683 654.695,241.683 600.488,241.683 600.488,326.597 600.488,241.683 "/>
<path clip-path="url(#clip642)" d="M979.938 1360.7 L925.731 1360.7 L1034.14 1360.7 L979.938 1360.7 L979.938 1058 L979.938 1360.7  Z" fill="#000000" fill-rule="evenodd" fill-opacity="0.1"/>
<polyline clip-path="url(#clip642)" style="stroke:#000000; stroke-linecap:round; stroke-linejoin:round; stroke-width:5.28; stroke-opacity:1; fill:none" points="979.938,1360.7 925.731,1360.7 1034.14,1360.7 979.938,1360.7 979.938,1058 979.938,1360.7 "/>
<path clip-path="url(#clip642)" d="M1088.35 1058 L1088.35 923.912 L871.523 923.912 L871.523 1058 L1088.35 1058 L1088.35 923.912 L1088.35 1058  Z" fill="#000000" fill-rule="evenodd" fill-opacity="0.1"/>
<polyline clip-path="url(#clip642)" style="stroke:#000000; stroke-linecap:round; stroke-linejoin:round; stroke-width:5.28; stroke-opacity:1; fill:none" points="1088.35,1058 1088.35,923.912 871.523,923.912 871.523,1058 1088.35,1058 1088.35,923.912 1088.35,1058 "/>
<path clip-path="url(#clip642)" d="M1088.35 818.825 L871.523 818.825 L871.523 923.912 L1088.35 923.912 L1088.35 818.825 L979.938 818.825 L1088.35 818.825  Z" fill="#000000" fill-rule="evenodd" fill-opacity="0.1"/>
<polyline clip-path="url(#clip642)" style="stroke:#000000; stroke-linecap:round; stroke-linejoin:round; stroke-width:5.28; stroke-opacity:1; fill:none" points="1088.35,818.825 871.523,818.825 871.523,923.912 1088.35,923.912 1088.35,818.825 979.938,818.825 1088.35,818.825 "/>
<path clip-path="url(#clip642)" d="M979.938 506.76 L925.731 506.76 L1034.14 506.76 L979.938 506.76 L979.938 818.825 L979.938 506.76  Z" fill="#000000" fill-rule="evenodd" fill-opacity="0.1"/>
<polyline clip-path="url(#clip642)" style="stroke:#000000; stroke-linecap:round; stroke-linejoin:round; stroke-width:5.28; stroke-opacity:1; fill:none" points="979.938,506.76 925.731,506.76 1034.14,506.76 979.938,506.76 979.938,818.825 979.938,506.76 "/>
<path clip-path="url(#clip642)" d="M1359.39 932.93 L1305.18 932.93 L1413.59 932.93 L1359.39 932.93 L1359.39 586.755 L1359.39 932.93  Z" fill="#000000" fill-rule="evenodd" fill-opacity="0.1"/>
<polyline clip-path="url(#clip642)" style="stroke:#000000; stroke-linecap:round; stroke-linejoin:round; stroke-width:5.28; stroke-opacity:1; fill:none" points="1359.39,932.93 1305.18,932.93 1413.59,932.93 1359.39,932.93 1359.39,586.755 1359.39,932.93 "/>
<path clip-path="url(#clip642)" d="M1467.8 586.755 L1467.8 387.786 L1250.97 387.786 L1250.97 586.755 L1467.8 586.755 L1467.8 387.786 L1467.8 586.755  Z" fill="#000000" fill-rule="evenodd" fill-opacity="0.1"/>
<polyline clip-path="url(#clip642)" style="stroke:#000000; stroke-linecap:round; stroke-linejoin:round; stroke-width:5.28; stroke-opacity:1; fill:none" points="1467.8,586.755 1467.8,387.786 1250.97,387.786 1250.97,586.755 1467.8,586.755 1467.8,387.786 1467.8,586.755 "/>
<path clip-path="url(#clip642)" d="M1467.8 326.597 L1250.97 326.597 L1250.97 387.786 L1467.8 387.786 L1467.8 326.597 L1359.39 326.597 L1467.8 326.597  Z" fill="#000000" fill-rule="evenodd" fill-opacity="0.1"/>
<polyline clip-path="url(#clip642)" style="stroke:#000000; stroke-linecap:round; stroke-linejoin:round; stroke-width:5.28; stroke-opacity:1; fill:none" points="1467.8,326.597 1250.97,326.597 1250.97,387.786 1467.8,387.786 1467.8,326.597 1359.39,326.597 1467.8,326.597 "/>
<path clip-path="url(#clip642)" d="M1359.39 241.683 L1305.18 241.683 L1413.59 241.683 L1359.39 241.683 L1359.39 326.597 L1359.39 241.683  Z" fill="#000000" fill-rule="evenodd" fill-opacity="0.1"/>
<polyline clip-path="url(#clip642)" style="stroke:#000000; stroke-linecap:round; stroke-linejoin:round; stroke-width:5.28; stroke-opacity:1; fill:none" points="1359.39,241.683 1305.18,241.683 1413.59,241.683 1359.39,241.683 1359.39,326.597 1359.39,241.683 "/>
<path clip-path="url(#clip642)" d="M1738.84 861.169 L1684.63 861.169 L1793.04 861.169 L1738.84 861.169 L1738.84 557.49 L1738.84 861.169  Z" fill="#000000" fill-rule="evenodd" fill-opacity="0.1"/>
<polyline clip-path="url(#clip642)" style="stroke:#000000; stroke-linecap:round; stroke-linejoin:round; stroke-width:5.28; stroke-opacity:1; fill:none" points="1738.84,861.169 1684.63,861.169 1793.04,861.169 1738.84,861.169 1738.84,557.49 1738.84,861.169 "/>
<path clip-path="url(#clip642)" d="M1847.25 557.49 L1847.25 377.449 L1630.42 377.449 L1630.42 557.49 L1847.25 557.49 L1847.25 377.449 L1847.25 557.49  Z" fill="#000000" fill-rule="evenodd" fill-opacity="0.1"/>
<polyline clip-path="url(#clip642)" style="stroke:#000000; stroke-linecap:round; stroke-linejoin:round; stroke-width:5.28; stroke-opacity:1; fill:none" points="1847.25,557.49 1847.25,377.449 1630.42,377.449 1630.42,557.49 1847.25,557.49 1847.25,377.449 1847.25,557.49 "/>
<path clip-path="url(#clip642)" d="M1847.25 327.138 L1630.42 327.138 L1630.42 377.449 L1847.25 377.449 L1847.25 327.138 L1738.84 327.138 L1847.25 327.138  Z" fill="#000000" fill-rule="evenodd" fill-opacity="0.1"/>
<polyline clip-path="url(#clip642)" style="stroke:#000000; stroke-linecap:round; stroke-linejoin:round; stroke-width:5.28; stroke-opacity:1; fill:none" points="1847.25,327.138 1630.42,327.138 1630.42,377.449 1847.25,377.449 1847.25,327.138 1738.84,327.138 1847.25,327.138 "/>
<path clip-path="url(#clip642)" d="M1738.84 241.515 L1684.63 241.515 L1793.04 241.515 L1738.84 241.515 L1738.84 327.138 L1738.84 241.515  Z" fill="#000000" fill-rule="evenodd" fill-opacity="0.1"/>
<polyline clip-path="url(#clip642)" style="stroke:#000000; stroke-linecap:round; stroke-linejoin:round; stroke-width:5.28; stroke-opacity:1; fill:none" points="1738.84,241.515 1684.63,241.515 1793.04,241.515 1738.84,241.515 1738.84,327.138 1738.84,241.515 "/>
<path clip-path="url(#clip642)" d="M2118.29 1047.89 L2064.08 1047.89 L2172.49 1047.89 L2118.29 1047.89 L2118.29 689.966 L2118.29 1047.89  Z" fill="#000000" fill-rule="evenodd" fill-opacity="0.1"/>
<polyline clip-path="url(#clip642)" style="stroke:#000000; stroke-linecap:round; stroke-linejoin:round; stroke-width:5.28; stroke-opacity:1; fill:none" points="2118.29,1047.89 2064.08,1047.89 2172.49,1047.89 2118.29,1047.89 2118.29,689.966 2118.29,1047.89 "/>
<path clip-path="url(#clip642)" d="M2226.7 689.966 L2226.7 493.974 L2009.87 493.974 L2009.87 689.966 L2226.7 689.966 L2226.7 493.974 L2226.7 689.966  Z" fill="#000000" fill-rule="evenodd" fill-opacity="0.1"/>
<polyline clip-path="url(#clip642)" style="stroke:#000000; stroke-linecap:round; stroke-linejoin:round; stroke-width:5.28; stroke-opacity:1; fill:none" points="2226.7,689.966 2226.7,493.974 2009.87,493.974 2009.87,689.966 2226.7,689.966 2226.7,493.974 2226.7,689.966 "/>
<path clip-path="url(#clip642)" d="M2226.7 428.329 L2009.87 428.329 L2009.87 493.974 L2226.7 493.974 L2226.7 428.329 L2118.29 428.329 L2226.7 428.329  Z" fill="#000000" fill-rule="evenodd" fill-opacity="0.1"/>
<polyline clip-path="url(#clip642)" style="stroke:#000000; stroke-linecap:round; stroke-linejoin:round; stroke-width:5.28; stroke-opacity:1; fill:none" points="2226.7,428.329 2009.87,428.329 2009.87,493.974 2226.7,493.974 2226.7,428.329 2118.29,428.329 2226.7,428.329 "/>
<path clip-path="url(#clip642)" d="M2118.29 314.807 L2064.08 314.807 L2172.49 314.807 L2118.29 314.807 L2118.29 428.329 L2118.29 314.807  Z" fill="#000000" fill-rule="evenodd" fill-opacity="0.1"/>
<polyline clip-path="url(#clip642)" style="stroke:#000000; stroke-linecap:round; stroke-linejoin:round; stroke-width:5.28; stroke-opacity:1; fill:none" points="2118.29,314.807 2064.08,314.807 2172.49,314.807 2118.29,314.807 2118.29,428.329 2118.29,314.807 "/>
<circle clip-path="url(#clip642)" cx="600.488" cy="998.774" r="23.76" fill="#000000" fill-rule="evenodd" fill-opacity="1" stroke="none"/>
<circle clip-path="url(#clip642)" cx="1359.39" cy="998.774" r="23.76" fill="#000000" fill-rule="evenodd" fill-opacity="1" stroke="none"/>
<circle clip-path="url(#clip642)" cx="1359.39" cy="1131.82" r="23.76" fill="#000000" fill-rule="evenodd" fill-opacity="1" stroke="none"/>
<polyline clip-path="url(#clip642)" style="stroke:#000000; stroke-linecap:round; stroke-linejoin:round; stroke-width:0; stroke-opacity:1; fill:none" points="600.488,932.93 546.281,932.93 654.695,932.93 600.488,932.93 600.488,586.755 "/>
<polyline clip-path="url(#clip642)" style="stroke:#000000; stroke-linecap:round; stroke-linejoin:round; stroke-width:0; stroke-opacity:1; fill:none" points="708.902,586.755 708.902,387.786 492.074,387.786 492.074,586.755 708.902,586.755 708.902,387.786 "/>
<polyline clip-path="url(#clip642)" style="stroke:#000000; stroke-linecap:round; stroke-linejoin:round; stroke-width:0; stroke-opacity:1; fill:none" points="708.902,326.597 492.074,326.597 492.074,387.786 708.902,387.786 708.902,326.597 600.488,326.597 "/>
<polyline clip-path="url(#clip642)" style="stroke:#000000; stroke-linecap:round; stroke-linejoin:round; stroke-width:0; stroke-opacity:1; fill:none" points="600.488,241.683 546.281,241.683 654.695,241.683 600.488,241.683 600.488,326.597 "/>
<polyline clip-path="url(#clip642)" style="stroke:#000000; stroke-linecap:round; stroke-linejoin:round; stroke-width:0; stroke-opacity:1; fill:none" points="979.938,1360.7 925.731,1360.7 1034.14,1360.7 979.938,1360.7 979.938,1058 "/>
<polyline clip-path="url(#clip642)" style="stroke:#000000; stroke-linecap:round; stroke-linejoin:round; stroke-width:0; stroke-opacity:1; fill:none" points="1088.35,1058 1088.35,923.912 871.523,923.912 871.523,1058 1088.35,1058 1088.35,923.912 "/>
<polyline clip-path="url(#clip642)" style="stroke:#000000; stroke-linecap:round; stroke-linejoin:round; stroke-width:0; stroke-opacity:1; fill:none" points="1088.35,818.825 871.523,818.825 871.523,923.912 1088.35,923.912 1088.35,818.825 979.938,818.825 "/>
<polyline clip-path="url(#clip642)" style="stroke:#000000; stroke-linecap:round; stroke-linejoin:round; stroke-width:0; stroke-opacity:1; fill:none" points="979.938,506.76 925.731,506.76 1034.14,506.76 979.938,506.76 979.938,818.825 "/>
<polyline clip-path="url(#clip642)" style="stroke:#000000; stroke-linecap:round; stroke-linejoin:round; stroke-width:0; stroke-opacity:1; fill:none" points="1359.39,932.93 1305.18,932.93 1413.59,932.93 1359.39,932.93 1359.39,586.755 "/>
<polyline clip-path="url(#clip642)" style="stroke:#000000; stroke-linecap:round; stroke-linejoin:round; stroke-width:0; stroke-opacity:1; fill:none" points="1467.8,586.755 1467.8,387.786 1250.97,387.786 1250.97,586.755 1467.8,586.755 1467.8,387.786 "/>
<polyline clip-path="url(#clip642)" style="stroke:#000000; stroke-linecap:round; stroke-linejoin:round; stroke-width:0; stroke-opacity:1; fill:none" points="1467.8,326.597 1250.97,326.597 1250.97,387.786 1467.8,387.786 1467.8,326.597 1359.39,326.597 "/>
<polyline clip-path="url(#clip642)" style="stroke:#000000; stroke-linecap:round; stroke-linejoin:round; stroke-width:0; stroke-opacity:1; fill:none" points="1359.39,241.683 1305.18,241.683 1413.59,241.683 1359.39,241.683 1359.39,326.597 "/>
<polyline clip-path="url(#clip642)" style="stroke:#000000; stroke-linecap:round; stroke-linejoin:round; stroke-width:0; stroke-opacity:1; fill:none" points="1738.84,861.169 1684.63,861.169 1793.04,861.169 1738.84,861.169 1738.84,557.49 "/>
<polyline clip-path="url(#clip642)" style="stroke:#000000; stroke-linecap:round; stroke-linejoin:round; stroke-width:0; stroke-opacity:1; fill:none" points="1847.25,557.49 1847.25,377.449 1630.42,377.449 1630.42,557.49 1847.25,557.49 1847.25,377.449 "/>
<polyline clip-path="url(#clip642)" style="stroke:#000000; stroke-linecap:round; stroke-linejoin:round; stroke-width:0; stroke-opacity:1; fill:none" points="1847.25,327.138 1630.42,327.138 1630.42,377.449 1847.25,377.449 1847.25,327.138 1738.84,327.138 "/>
<polyline clip-path="url(#clip642)" style="stroke:#000000; stroke-linecap:round; stroke-linejoin:round; stroke-width:0; stroke-opacity:1; fill:none" points="1738.84,241.515 1684.63,241.515 1793.04,241.515 1738.84,241.515 1738.84,327.138 "/>
<polyline clip-path="url(#clip642)" style="stroke:#000000; stroke-linecap:round; stroke-linejoin:round; stroke-width:0; stroke-opacity:1; fill:none" points="2118.29,1047.89 2064.08,1047.89 2172.49,1047.89 2118.29,1047.89 2118.29,689.966 "/>
<polyline clip-path="url(#clip642)" style="stroke:#000000; stroke-linecap:round; stroke-linejoin:round; stroke-width:0; stroke-opacity:1; fill:none" points="2226.7,689.966 2226.7,493.974 2009.87,493.974 2009.87,689.966 2226.7,689.966 2226.7,493.974 "/>
<polyline clip-path="url(#clip642)" style="stroke:#000000; stroke-linecap:round; stroke-linejoin:round; stroke-width:0; stroke-opacity:1; fill:none" points="2226.7,428.329 2009.87,428.329 2009.87,493.974 2226.7,493.974 2226.7,428.329 2118.29,428.329 "/>
<polyline clip-path="url(#clip642)" style="stroke:#000000; stroke-linecap:round; stroke-linejoin:round; stroke-width:0; stroke-opacity:1; fill:none" points="2118.29,314.807 2064.08,314.807 2172.49,314.807 2118.29,314.807 2118.29,428.329 "/>
</svg>
