<?xml version="1.0" encoding="utf-8"?>
<svg xmlns="http://www.w3.org/2000/svg" xmlns:xlink="http://www.w3.org/1999/xlink" width="600" height="400" viewBox="0 0 2400 1600">
<defs>
  <clipPath id="clip090">
    <rect x="0" y="0" width="2400" height="1600"/>
  </clipPath>
</defs>
<path clip-path="url(#clip090)" d="M0 1600 L2400 1600 L2400 8.88178e-14 L0 8.88178e-14  Z" fill="#ffffff" fill-rule="evenodd" fill-opacity="1"/>
<defs>
  <clipPath id="clip091">
    <rect x="242" y="123" width="2112" height="1364"/>
  </clipPath>
</defs>
<path clip-path="url(#clip090)" d="M302.458 1486.45 L2352.76 1486.45 L2352.76 123.472 L302.458 123.472  Z" fill="#ffffff" fill-rule="evenodd" fill-opacity="1"/>
<defs>
  <clipPath id="clip092">
    <rect x="302" y="123" width="2051" height="1364"/>
  </clipPath>
</defs>
<polyline clip-path="url(#clip092)" style="stroke:#000000; stroke-linecap:round; stroke-linejoin:round; stroke-width:2; stroke-opacity:0.1; fill:none" points="523.281,1486.45 523.281,123.472 "/>
<polyline clip-path="url(#clip092)" style="stroke:#000000; stroke-linecap:round; stroke-linejoin:round; stroke-width:2; stroke-opacity:0.1; fill:none" points="925.444,1486.45 925.444,123.472 "/>
<polyline clip-path="url(#clip092)" style="stroke:#000000; stroke-linecap:round; stroke-linejoin:round; stroke-width:2; stroke-opacity:0.1; fill:none" points="1327.61,1486.45 1327.61,123.472 "/>
<polyline clip-path="url(#clip092)" style="stroke:#000000; stroke-linecap:round; stroke-linejoin:round; stroke-width:2; stroke-opacity:0.1; fill:none" points="1729.77,1486.45 1729.77,123.472 "/>
<polyline clip-path="url(#clip092)" style="stroke:#000000; stroke-linecap:round; stroke-linejoin:round; stroke-width:2; stroke-opacity:0.1; fill:none" points="2131.93,1486.45 2131.93,123.472 "/>
<polyline clip-path="url(#clip092)" style="stroke:#000000; stroke-linecap:round; stroke-linejoin:round; stroke-width:2; stroke-opacity:0.1; fill:none" points="302.458,1413.44 2352.76,1413.44 "/>
<polyline clip-path="url(#clip092)" style="stroke:#000000; stroke-linecap:round; stroke-linejoin:round; stroke-width:2; stroke-opacity:0.1; fill:none" points="302.458,1090.95 2352.76,1090.95 "/>
<polyline clip-path="url(#clip092)" style="stroke:#000000; stroke-linecap:round; stroke-linejoin:round; stroke-width:2; stroke-opacity:0.1; fill:none" points="302.458,768.456 2352.76,768.456 "/>
<polyline clip-path="url(#clip092)" style="stroke:#000000; stroke-linecap:round; stroke-linejoin:round; stroke-width:2; stroke-opacity:0.1; fill:none" points="302.458,445.964 2352.76,445.964 "/>
<polyline clip-path="url(#clip092)" style="stroke:#000000; stroke-linecap:round; stroke-linejoin:round; stroke-width:2; stroke-opacity:0.1; fill:none" points="302.458,123.472 2352.76,123.472 "/>
<polyline clip-path="url(#clip090)" style="stroke:#000000; stroke-linecap:round; stroke-linejoin:round; stroke-width:4; stroke-opacity:1; fill:none" points="302.458,1486.45 2352.76,1486.45 "/>
<polyline clip-path="url(#clip090)" style="stroke:#000000; stroke-linecap:round; stroke-linejoin:round; stroke-width:4; stroke-opacity:1; fill:none" points="523.281,1486.45 523.281,1467.55 "/>
<polyline clip-path="url(#clip090)" style="stroke:#000000; stroke-linecap:round; stroke-linejoin:round; stroke-width:4; stroke-opacity:1; fill:none" points="925.444,1486.45 925.444,1467.55 "/>
<polyline clip-path="url(#clip090)" style="stroke:#000000; stroke-linecap:round; stroke-linejoin:round; stroke-width:4; stroke-opacity:1; fill:none" points="1327.61,1486.45 1327.61,1467.55 "/>
<polyline clip-path="url(#clip090)" style="stroke:#000000; stroke-linecap:round; stroke-linejoin:round; stroke-width:4; stroke-opacity:1; fill:none" points="1729.77,1486.45 1729.77,1467.55 "/>
<polyline clip-path="url(#clip090)" style="stroke:#000000; stroke-linecap:round; stroke-linejoin:round; stroke-width:4; stroke-opacity:1; fill:none" points="2131.93,1486.45 2131.93,1467.55 "/>
<path clip-path="url(#clip090)" d="M478.779 1514.29 L500.631 1514.29 L500.631 1518.22 L483.455 1518.22 L483.455 1528.45 L499.913 1528.45 L499.913 1532.39 L483.455 1532.39 L483.455 1544.91 L501.048 1544.91 L501.048 1548.85 L478.779 1548.85 L478.779 1514.29 Z" fill="#000000" fill-rule="nonzero" fill-opacity="1" /><path clip-path="url(#clip090)" d="M532.297 1543.92 L532.297 1534.63 L524.659 1534.63 L524.659 1530.79 L536.927 1530.79 L536.927 1545.63 Q534.219 1547.55 530.955 1548.55 Q527.691 1549.52 523.987 1549.52 Q515.885 1549.52 511.302 1544.8 Q506.742 1540.05 506.742 1531.6 Q506.742 1523.13 511.302 1518.41 Q515.885 1513.66 523.987 1513.66 Q527.367 1513.66 530.399 1514.5 Q533.455 1515.33 536.024 1516.95 L536.024 1521.93 Q533.432 1519.73 530.515 1518.62 Q527.598 1517.51 524.381 1517.51 Q518.038 1517.51 514.844 1521.05 Q511.673 1524.59 511.673 1531.6 Q511.673 1538.59 514.844 1542.13 Q518.038 1545.68 524.381 1545.68 Q526.858 1545.68 528.802 1545.26 Q530.747 1544.82 532.297 1543.92 Z" fill="#000000" fill-rule="nonzero" fill-opacity="1" /><path clip-path="url(#clip090)" d="M550.145 1518.13 L550.145 1531.12 L556.024 1531.12 Q559.288 1531.12 561.07 1529.43 Q562.853 1527.74 562.853 1524.61 Q562.853 1521.51 561.07 1519.82 Q559.288 1518.13 556.024 1518.13 L550.145 1518.13 M545.469 1514.29 L556.024 1514.29 Q561.834 1514.29 564.797 1516.93 Q567.783 1519.54 567.783 1524.61 Q567.783 1529.73 564.797 1532.34 Q561.834 1534.96 556.024 1534.96 L550.145 1534.96 L550.145 1548.85 L545.469 1548.85 L545.469 1514.29 Z" fill="#000000" fill-rule="nonzero" fill-opacity="1" /><path clip-path="url(#clip090)" d="M870.294 1514.29 L890.155 1514.29 L890.155 1518.22 L874.97 1518.22 L874.97 1528.41 L888.674 1528.41 L888.674 1532.34 L874.97 1532.34 L874.97 1548.85 L870.294 1548.85 L870.294 1514.29 Z" fill="#000000" fill-rule="nonzero" fill-opacity="1" /><path clip-path="url(#clip090)" d="M902.238 1518.13 L902.238 1531.12 L908.118 1531.12 Q911.382 1531.12 913.164 1529.43 Q914.947 1527.74 914.947 1524.61 Q914.947 1521.51 913.164 1519.82 Q911.382 1518.13 908.118 1518.13 L902.238 1518.13 M897.562 1514.29 L908.118 1514.29 Q913.928 1514.29 916.891 1516.93 Q919.877 1519.54 919.877 1524.61 Q919.877 1529.73 916.891 1532.34 Q913.928 1534.96 908.118 1534.96 L902.238 1534.96 L902.238 1548.85 L897.562 1548.85 L897.562 1514.29 Z" fill="#000000" fill-rule="nonzero" fill-opacity="1" /><path clip-path="url(#clip090)" d="M942.539 1532.64 Q944.044 1533.15 945.456 1534.82 Q946.891 1536.49 948.326 1539.4 L953.071 1548.85 L948.048 1548.85 L943.627 1539.98 Q941.914 1536.51 940.294 1535.38 Q938.696 1534.24 935.919 1534.24 L930.826 1534.24 L930.826 1548.85 L926.15 1548.85 L926.15 1514.29 L936.706 1514.29 Q942.632 1514.29 945.548 1516.76 Q948.465 1519.24 948.465 1524.24 Q948.465 1527.51 946.937 1529.66 Q945.433 1531.81 942.539 1532.64 M930.826 1518.13 L930.826 1530.4 L936.706 1530.4 Q940.085 1530.4 941.798 1528.85 Q943.534 1527.27 943.534 1524.24 Q943.534 1521.21 941.798 1519.68 Q940.085 1518.13 936.706 1518.13 L930.826 1518.13 Z" fill="#000000" fill-rule="nonzero" fill-opacity="1" /><path clip-path="url(#clip090)" d="M959.09 1514.29 L963.766 1514.29 L963.766 1544.91 L980.594 1544.91 L980.594 1548.85 L959.09 1548.85 L959.09 1514.29 Z" fill="#000000" fill-rule="nonzero" fill-opacity="1" /><path clip-path="url(#clip090)" d="M1276.84 1514.29 L1281.52 1514.29 L1281.52 1548.85 L1276.84 1548.85 L1276.84 1514.29 Z" fill="#000000" fill-rule="nonzero" fill-opacity="1" /><path clip-path="url(#clip090)" d="M1316.7 1516.95 L1316.7 1521.88 Q1314.34 1519.68 1311.66 1518.59 Q1309 1517.51 1305.99 1517.51 Q1300.06 1517.51 1296.91 1521.14 Q1293.76 1524.75 1293.76 1531.6 Q1293.76 1538.43 1296.91 1542.07 Q1300.06 1545.68 1305.99 1545.68 Q1309 1545.68 1311.66 1544.59 Q1314.34 1543.5 1316.7 1541.3 L1316.7 1546.19 Q1314.25 1547.85 1311.5 1548.69 Q1308.76 1549.52 1305.71 1549.52 Q1297.86 1549.52 1293.35 1544.73 Q1288.83 1539.91 1288.83 1531.6 Q1288.83 1523.27 1293.35 1518.48 Q1297.86 1513.66 1305.71 1513.66 Q1308.81 1513.66 1311.54 1514.5 Q1314.3 1515.31 1316.7 1516.95 Z" fill="#000000" fill-rule="nonzero" fill-opacity="1" /><path clip-path="url(#clip090)" d="M1340.32 1532.64 Q1341.82 1533.15 1343.23 1534.82 Q1344.67 1536.49 1346.1 1539.4 L1350.85 1548.85 L1345.82 1548.85 L1341.4 1539.98 Q1339.69 1536.51 1338.07 1535.38 Q1336.47 1534.24 1333.7 1534.24 L1328.6 1534.24 L1328.6 1548.85 L1323.93 1548.85 L1323.93 1514.29 L1334.48 1514.29 Q1340.41 1514.29 1343.32 1516.76 Q1346.24 1519.24 1346.24 1524.24 Q1346.24 1527.51 1344.71 1529.66 Q1343.21 1531.81 1340.32 1532.64 M1328.6 1518.13 L1328.6 1530.4 L1334.48 1530.4 Q1337.86 1530.4 1339.57 1528.85 Q1341.31 1527.27 1341.31 1524.24 Q1341.31 1521.21 1339.57 1519.68 Q1337.86 1518.13 1334.48 1518.13 L1328.6 1518.13 Z" fill="#000000" fill-rule="nonzero" fill-opacity="1" /><path clip-path="url(#clip090)" d="M1356.87 1514.29 L1361.54 1514.29 L1361.54 1544.91 L1378.37 1544.91 L1378.37 1548.85 L1356.87 1548.85 L1356.87 1514.29 Z" fill="#000000" fill-rule="nonzero" fill-opacity="1" /><path clip-path="url(#clip090)" d="M1690.86 1518.13 L1690.86 1531.12 L1696.74 1531.12 Q1700 1531.12 1701.78 1529.43 Q1703.57 1527.74 1703.57 1524.61 Q1703.57 1521.51 1701.78 1519.82 Q1700 1518.13 1696.74 1518.13 L1690.86 1518.13 M1686.18 1514.29 L1696.74 1514.29 Q1702.55 1514.29 1705.51 1516.93 Q1708.5 1519.54 1708.5 1524.61 Q1708.5 1529.73 1705.51 1532.34 Q1702.55 1534.96 1696.74 1534.96 L1690.86 1534.96 L1690.86 1548.85 L1686.18 1548.85 L1686.18 1514.29 Z" fill="#000000" fill-rule="nonzero" fill-opacity="1" /><path clip-path="url(#clip090)" d="M1719.45 1518.13 L1719.45 1531.12 L1725.33 1531.12 Q1728.59 1531.12 1730.37 1529.43 Q1732.15 1527.74 1732.15 1524.61 Q1732.15 1521.51 1730.37 1519.82 Q1728.59 1518.13 1725.33 1518.13 L1719.45 1518.13 M1714.77 1514.29 L1725.33 1514.29 Q1731.14 1514.29 1734.1 1516.93 Q1737.08 1519.54 1737.08 1524.61 Q1737.08 1529.73 1734.1 1532.34 Q1731.14 1534.96 1725.33 1534.96 L1719.45 1534.96 L1719.45 1548.85 L1714.77 1548.85 L1714.77 1514.29 Z" fill="#000000" fill-rule="nonzero" fill-opacity="1" /><path clip-path="url(#clip090)" d="M1757.39 1517.46 Q1752.29 1517.46 1749.28 1521.26 Q1746.3 1525.05 1746.3 1531.6 Q1746.3 1538.13 1749.28 1541.93 Q1752.29 1545.72 1757.39 1545.72 Q1762.48 1545.72 1765.44 1541.93 Q1768.43 1538.13 1768.43 1531.6 Q1768.43 1525.05 1765.44 1521.26 Q1762.48 1517.46 1757.39 1517.46 M1757.39 1513.66 Q1764.65 1513.66 1769.01 1518.55 Q1773.36 1523.41 1773.36 1531.6 Q1773.36 1539.77 1769.01 1544.66 Q1764.65 1549.52 1757.39 1549.52 Q1750.09 1549.52 1745.72 1544.66 Q1741.37 1539.8 1741.37 1531.6 Q1741.37 1523.41 1745.72 1518.55 Q1750.09 1513.66 1757.39 1513.66 Z" fill="#000000" fill-rule="nonzero" fill-opacity="1" /><path clip-path="url(#clip090)" d="M2109.19 1515.42 L2109.19 1519.98 Q2106.53 1518.71 2104.17 1518.08 Q2101.81 1517.46 2099.61 1517.46 Q2095.79 1517.46 2093.7 1518.94 Q2091.64 1520.42 2091.64 1523.15 Q2091.64 1525.45 2093.01 1526.63 Q2094.4 1527.78 2098.24 1528.5 L2101.07 1529.08 Q2106.3 1530.07 2108.77 1532.6 Q2111.27 1535.1 2111.27 1539.31 Q2111.27 1544.33 2107.89 1546.93 Q2104.54 1549.52 2098.03 1549.52 Q2095.58 1549.52 2092.8 1548.96 Q2090.05 1548.41 2087.08 1547.32 L2087.08 1542.51 Q2089.93 1544.1 2092.66 1544.91 Q2095.39 1545.72 2098.03 1545.72 Q2102.04 1545.72 2104.21 1544.15 Q2106.39 1542.57 2106.39 1539.66 Q2106.39 1537.11 2104.82 1535.68 Q2103.26 1534.24 2099.7 1533.52 L2096.85 1532.97 Q2091.62 1531.93 2089.28 1529.7 Q2086.94 1527.48 2086.94 1523.52 Q2086.94 1518.94 2090.16 1516.3 Q2093.4 1513.66 2099.07 1513.66 Q2101.5 1513.66 2104.03 1514.1 Q2106.55 1514.54 2109.19 1515.42 Z" fill="#000000" fill-rule="nonzero" fill-opacity="1" /><path clip-path="url(#clip090)" d="M2131 1518.89 L2124.65 1536.09 L2137.36 1536.09 L2131 1518.89 M2128.36 1514.29 L2133.66 1514.29 L2146.83 1548.85 L2141.97 1548.85 L2138.82 1539.98 L2123.24 1539.98 L2120.09 1548.85 L2115.16 1548.85 L2128.36 1514.29 Z" fill="#000000" fill-rule="nonzero" fill-opacity="1" /><path clip-path="url(#clip090)" d="M2176.92 1516.95 L2176.92 1521.88 Q2174.56 1519.68 2171.87 1518.59 Q2169.21 1517.51 2166.2 1517.51 Q2160.28 1517.51 2157.13 1521.14 Q2153.98 1524.75 2153.98 1531.6 Q2153.98 1538.43 2157.13 1542.07 Q2160.28 1545.68 2166.2 1545.68 Q2169.21 1545.68 2171.87 1544.59 Q2174.56 1543.5 2176.92 1541.3 L2176.92 1546.19 Q2174.47 1547.85 2171.71 1548.69 Q2168.98 1549.52 2165.93 1549.52 Q2158.08 1549.52 2153.56 1544.73 Q2149.05 1539.91 2149.05 1531.6 Q2149.05 1523.27 2153.56 1518.48 Q2158.08 1513.66 2165.93 1513.66 Q2169.03 1513.66 2171.76 1514.5 Q2174.51 1515.31 2176.92 1516.95 Z" fill="#000000" fill-rule="nonzero" fill-opacity="1" /><polyline clip-path="url(#clip090)" style="stroke:#000000; stroke-linecap:round; stroke-linejoin:round; stroke-width:4; stroke-opacity:1; fill:none" points="302.458,1486.45 302.458,123.472 "/>
<polyline clip-path="url(#clip090)" style="stroke:#000000; stroke-linecap:round; stroke-linejoin:round; stroke-width:4; stroke-opacity:1; fill:none" points="302.458,1413.44 321.356,1413.44 "/>
<polyline clip-path="url(#clip090)" style="stroke:#000000; stroke-linecap:round; stroke-linejoin:round; stroke-width:4; stroke-opacity:1; fill:none" points="302.458,1090.95 321.356,1090.95 "/>
<polyline clip-path="url(#clip090)" style="stroke:#000000; stroke-linecap:round; stroke-linejoin:round; stroke-width:4; stroke-opacity:1; fill:none" points="302.458,768.456 321.356,768.456 "/>
<polyline clip-path="url(#clip090)" style="stroke:#000000; stroke-linecap:round; stroke-linejoin:round; stroke-width:4; stroke-opacity:1; fill:none" points="302.458,445.964 321.356,445.964 "/>
<polyline clip-path="url(#clip090)" style="stroke:#000000; stroke-linecap:round; stroke-linejoin:round; stroke-width:4; stroke-opacity:1; fill:none" points="302.458,123.472 321.356,123.472 "/>
<path clip-path="url(#clip090)" d="M114.26 1413.89 L143.936 1413.89 L143.936 1417.83 L114.26 1417.83 L114.26 1413.89 Z" fill="#000000" fill-rule="nonzero" fill-opacity="1" /><path clip-path="url(#clip090)" d="M154.839 1426.78 L162.477 1426.78 L162.477 1400.42 L154.167 1402.08 L154.167 1397.83 L162.431 1396.16 L167.107 1396.16 L167.107 1426.78 L174.746 1426.78 L174.746 1430.72 L154.839 1430.72 L154.839 1426.78 Z" fill="#000000" fill-rule="nonzero" fill-opacity="1" /><path clip-path="url(#clip090)" d="M194.19 1399.24 Q190.579 1399.24 188.75 1402.8 Q186.945 1406.34 186.945 1413.47 Q186.945 1420.58 188.75 1424.14 Q190.579 1427.69 194.19 1427.69 Q197.825 1427.69 199.63 1424.14 Q201.459 1420.58 201.459 1413.47 Q201.459 1406.34 199.63 1402.8 Q197.825 1399.24 194.19 1399.24 M194.19 1395.53 Q200 1395.53 203.056 1400.14 Q206.135 1404.72 206.135 1413.47 Q206.135 1422.2 203.056 1426.81 Q200 1431.39 194.19 1431.39 Q188.38 1431.39 185.301 1426.81 Q182.246 1422.2 182.246 1413.47 Q182.246 1404.72 185.301 1400.14 Q188.38 1395.53 194.19 1395.53 Z" fill="#000000" fill-rule="nonzero" fill-opacity="1" /><path clip-path="url(#clip090)" d="M224.352 1399.24 Q220.741 1399.24 218.912 1402.8 Q217.107 1406.34 217.107 1413.47 Q217.107 1420.58 218.912 1424.14 Q220.741 1427.69 224.352 1427.69 Q227.986 1427.69 229.792 1424.14 Q231.621 1420.58 231.621 1413.47 Q231.621 1406.34 229.792 1402.8 Q227.986 1399.24 224.352 1399.24 M224.352 1395.53 Q230.162 1395.53 233.218 1400.14 Q236.297 1404.72 236.297 1413.47 Q236.297 1422.2 233.218 1426.81 Q230.162 1431.39 224.352 1431.39 Q218.542 1431.39 215.463 1426.81 Q212.408 1422.2 212.408 1413.47 Q212.408 1404.72 215.463 1400.14 Q218.542 1395.53 224.352 1395.53 Z" fill="#000000" fill-rule="nonzero" fill-opacity="1" /><path clip-path="url(#clip090)" d="M254.514 1399.24 Q250.903 1399.24 249.074 1402.8 Q247.269 1406.34 247.269 1413.47 Q247.269 1420.58 249.074 1424.14 Q250.903 1427.69 254.514 1427.69 Q258.148 1427.69 259.954 1424.14 Q261.783 1420.58 261.783 1413.47 Q261.783 1406.34 259.954 1402.8 Q258.148 1399.24 254.514 1399.24 M254.514 1395.53 Q260.324 1395.53 263.38 1400.14 Q266.458 1404.72 266.458 1413.47 Q266.458 1422.2 263.38 1426.81 Q260.324 1431.39 254.514 1431.39 Q248.704 1431.39 245.625 1426.81 Q242.57 1422.2 242.57 1413.47 Q242.57 1404.72 245.625 1400.14 Q248.704 1395.53 254.514 1395.53 Z" fill="#000000" fill-rule="nonzero" fill-opacity="1" /><path clip-path="url(#clip090)" d="M144.422 1091.4 L174.098 1091.4 L174.098 1095.33 L144.422 1095.33 L144.422 1091.4 Z" fill="#000000" fill-rule="nonzero" fill-opacity="1" /><path clip-path="url(#clip090)" d="M183.01 1073.67 L205.232 1073.67 L205.232 1075.66 L192.686 1108.23 L187.801 1108.23 L199.607 1077.6 L183.01 1077.6 L183.01 1073.67 Z" fill="#000000" fill-rule="nonzero" fill-opacity="1" /><path clip-path="url(#clip090)" d="M214.399 1073.67 L232.755 1073.67 L232.755 1077.6 L218.681 1077.6 L218.681 1086.07 Q219.699 1085.73 220.718 1085.57 Q221.736 1085.38 222.755 1085.38 Q228.542 1085.38 231.922 1088.55 Q235.301 1091.72 235.301 1097.14 Q235.301 1102.72 231.829 1105.82 Q228.357 1108.9 222.037 1108.9 Q219.861 1108.9 217.593 1108.53 Q215.348 1108.16 212.94 1107.42 L212.94 1102.72 Q215.024 1103.85 217.246 1104.41 Q219.468 1104.96 221.945 1104.96 Q225.949 1104.96 228.287 1102.86 Q230.625 1100.75 230.625 1097.14 Q230.625 1093.53 228.287 1091.42 Q225.949 1089.32 221.945 1089.32 Q220.07 1089.32 218.195 1089.73 Q216.343 1090.15 214.399 1091.03 L214.399 1073.67 Z" fill="#000000" fill-rule="nonzero" fill-opacity="1" /><path clip-path="url(#clip090)" d="M254.514 1076.75 Q250.903 1076.75 249.074 1080.31 Q247.269 1083.85 247.269 1090.98 Q247.269 1098.09 249.074 1101.65 Q250.903 1105.19 254.514 1105.19 Q258.148 1105.19 259.954 1101.65 Q261.783 1098.09 261.783 1090.98 Q261.783 1083.85 259.954 1080.31 Q258.148 1076.75 254.514 1076.75 M254.514 1073.04 Q260.324 1073.04 263.38 1077.65 Q266.458 1082.23 266.458 1090.98 Q266.458 1099.71 263.38 1104.32 Q260.324 1108.9 254.514 1108.9 Q248.704 1108.9 245.625 1104.32 Q242.57 1099.71 242.57 1090.98 Q242.57 1082.23 245.625 1077.65 Q248.704 1073.04 254.514 1073.04 Z" fill="#000000" fill-rule="nonzero" fill-opacity="1" /><path clip-path="url(#clip090)" d="M144.422 768.907 L174.098 768.907 L174.098 772.842 L144.422 772.842 L144.422 768.907 Z" fill="#000000" fill-rule="nonzero" fill-opacity="1" /><path clip-path="url(#clip090)" d="M184.237 751.176 L202.593 751.176 L202.593 755.111 L188.519 755.111 L188.519 763.583 Q189.538 763.236 190.556 763.074 Q191.575 762.888 192.593 762.888 Q198.38 762.888 201.76 766.06 Q205.139 769.231 205.139 774.648 Q205.139 780.226 201.667 783.328 Q198.195 786.407 191.875 786.407 Q189.7 786.407 187.431 786.036 Q185.186 785.666 182.778 784.925 L182.778 780.226 Q184.862 781.361 187.084 781.916 Q189.306 782.472 191.783 782.472 Q195.787 782.472 198.125 780.365 Q200.463 778.259 200.463 774.648 Q200.463 771.037 198.125 768.93 Q195.787 766.824 191.783 766.824 Q189.908 766.824 188.033 767.24 Q186.181 767.657 184.237 768.537 L184.237 751.176 Z" fill="#000000" fill-rule="nonzero" fill-opacity="1" /><path clip-path="url(#clip090)" d="M224.352 754.254 Q220.741 754.254 218.912 757.819 Q217.107 761.361 217.107 768.49 Q217.107 775.597 218.912 779.162 Q220.741 782.703 224.352 782.703 Q227.986 782.703 229.792 779.162 Q231.621 775.597 231.621 768.49 Q231.621 761.361 229.792 757.819 Q227.986 754.254 224.352 754.254 M224.352 750.551 Q230.162 750.551 233.218 755.157 Q236.297 759.74 236.297 768.49 Q236.297 777.217 233.218 781.824 Q230.162 786.407 224.352 786.407 Q218.542 786.407 215.463 781.824 Q212.408 777.217 212.408 768.49 Q212.408 759.74 215.463 755.157 Q218.542 750.551 224.352 750.551 Z" fill="#000000" fill-rule="nonzero" fill-opacity="1" /><path clip-path="url(#clip090)" d="M254.514 754.254 Q250.903 754.254 249.074 757.819 Q247.269 761.361 247.269 768.49 Q247.269 775.597 249.074 779.162 Q250.903 782.703 254.514 782.703 Q258.148 782.703 259.954 779.162 Q261.783 775.597 261.783 768.49 Q261.783 761.361 259.954 757.819 Q258.148 754.254 254.514 754.254 M254.514 750.551 Q260.324 750.551 263.38 755.157 Q266.458 759.74 266.458 768.49 Q266.458 777.217 263.38 781.824 Q260.324 786.407 254.514 786.407 Q248.704 786.407 245.625 781.824 Q242.57 777.217 242.57 768.49 Q242.57 759.74 245.625 755.157 Q248.704 750.551 254.514 750.551 Z" fill="#000000" fill-rule="nonzero" fill-opacity="1" /><path clip-path="url(#clip090)" d="M144.422 446.415 L174.098 446.415 L174.098 450.35 L144.422 450.35 L144.422 446.415 Z" fill="#000000" fill-rule="nonzero" fill-opacity="1" /><path clip-path="url(#clip090)" d="M188.218 459.309 L204.537 459.309 L204.537 463.244 L182.593 463.244 L182.593 459.309 Q185.255 456.554 189.838 451.924 Q194.445 447.272 195.625 445.929 Q197.871 443.406 198.75 441.67 Q199.653 439.911 199.653 438.221 Q199.653 435.466 197.709 433.73 Q195.787 431.994 192.686 431.994 Q190.487 431.994 188.033 432.758 Q185.602 433.522 182.825 435.073 L182.825 430.351 Q185.649 429.216 188.102 428.638 Q190.556 428.059 192.593 428.059 Q197.963 428.059 201.158 430.744 Q204.352 433.429 204.352 437.92 Q204.352 440.05 203.542 441.971 Q202.755 443.869 200.649 446.462 Q200.07 447.133 196.968 450.35 Q193.866 453.545 188.218 459.309 Z" fill="#000000" fill-rule="nonzero" fill-opacity="1" /><path clip-path="url(#clip090)" d="M214.399 428.684 L232.755 428.684 L232.755 432.619 L218.681 432.619 L218.681 441.091 Q219.699 440.744 220.718 440.582 Q221.736 440.397 222.755 440.397 Q228.542 440.397 231.922 443.568 Q235.301 446.739 235.301 452.156 Q235.301 457.735 231.829 460.836 Q228.357 463.915 222.037 463.915 Q219.861 463.915 217.593 463.545 Q215.348 463.174 212.94 462.434 L212.94 457.735 Q215.024 458.869 217.246 459.424 Q219.468 459.98 221.945 459.98 Q225.949 459.98 228.287 457.874 Q230.625 455.767 230.625 452.156 Q230.625 448.545 228.287 446.438 Q225.949 444.332 221.945 444.332 Q220.07 444.332 218.195 444.749 Q216.343 445.165 214.399 446.045 L214.399 428.684 Z" fill="#000000" fill-rule="nonzero" fill-opacity="1" /><path clip-path="url(#clip090)" d="M254.514 431.763 Q250.903 431.763 249.074 435.327 Q247.269 438.869 247.269 445.999 Q247.269 453.105 249.074 456.67 Q250.903 460.211 254.514 460.211 Q258.148 460.211 259.954 456.67 Q261.783 453.105 261.783 445.999 Q261.783 438.869 259.954 435.327 Q258.148 431.763 254.514 431.763 M254.514 428.059 Q260.324 428.059 263.38 432.665 Q266.458 437.249 266.458 445.999 Q266.458 454.725 263.38 459.332 Q260.324 463.915 254.514 463.915 Q248.704 463.915 245.625 459.332 Q242.57 454.725 242.57 445.999 Q242.57 437.249 245.625 432.665 Q248.704 428.059 254.514 428.059 Z" fill="#000000" fill-rule="nonzero" fill-opacity="1" /><path clip-path="url(#clip090)" d="M254.514 109.271 Q250.903 109.271 249.074 112.836 Q247.269 116.377 247.269 123.507 Q247.269 130.613 249.074 134.178 Q250.903 137.72 254.514 137.72 Q258.148 137.72 259.954 134.178 Q261.783 130.613 261.783 123.507 Q261.783 116.377 259.954 112.836 Q258.148 109.271 254.514 109.271 M254.514 105.567 Q260.324 105.567 263.38 110.174 Q266.458 114.757 266.458 123.507 Q266.458 132.234 263.38 136.84 Q260.324 141.423 254.514 141.423 Q248.704 141.423 245.625 136.84 Q242.57 132.234 242.57 123.507 Q242.57 114.757 245.625 110.174 Q248.704 105.567 254.514 105.567 Z" fill="#000000" fill-rule="nonzero" fill-opacity="1" /><path clip-path="url(#clip090)" d="M16.4842 1019.34 L16.4842 1009.76 L48.8219 997.634 L16.4842 985.444 L16.4842 975.863 L64.0042 975.863 L64.0042 982.134 L22.277 982.134 L54.8694 994.388 L54.8694 1000.85 L22.277 1013.1 L64.0042 1013.1 L64.0042 1019.34 L16.4842 1019.34 Z" fill="#000000" fill-rule="nonzero" fill-opacity="1" /><path clip-path="url(#clip090)" d="M44.7161 932.863 L47.5806 932.863 L47.5806 959.79 Q53.6281 959.408 56.8109 956.161 Q59.9619 952.883 59.9619 947.058 Q59.9619 943.685 59.1344 940.534 Q58.3069 937.351 56.6518 934.232 L62.1899 934.232 Q63.5267 937.383 64.227 940.693 Q64.9272 944.003 64.9272 947.409 Q64.9272 955.939 59.9619 960.936 Q54.9967 965.901 46.5303 965.901 Q37.7774 965.901 32.6531 961.19 Q27.4968 956.448 27.4968 948.427 Q27.4968 941.234 32.1438 937.064 Q36.7589 932.863 44.7161 932.863 M42.9973 938.719 Q38.1912 938.783 35.3266 941.425 Q32.4621 944.035 32.4621 948.363 Q32.4621 953.265 35.2312 956.225 Q38.0002 959.153 43.0292 959.599 L42.9973 938.719 Z" fill="#000000" fill-rule="nonzero" fill-opacity="1" /><path clip-path="url(#clip090)" d="M46.0847 907.05 Q46.0847 914.148 47.7079 916.885 Q49.3312 919.622 53.2461 919.622 Q56.3653 919.622 58.2114 917.585 Q60.0256 915.516 60.0256 911.983 Q60.0256 907.114 56.5881 904.185 Q53.1188 901.225 47.3897 901.225 L46.0847 901.225 L46.0847 907.05 M43.6657 895.369 L64.0042 895.369 L64.0042 901.225 L58.5933 901.225 Q61.8398 903.231 63.3994 906.222 Q64.9272 909.214 64.9272 913.543 Q64.9272 919.018 61.8716 922.264 Q58.7843 925.479 53.6281 925.479 Q47.6125 925.479 44.5569 921.468 Q41.5014 917.426 41.5014 909.437 L41.5014 901.225 L40.9285 901.225 Q36.8862 901.225 34.6901 903.899 Q32.4621 906.541 32.4621 911.347 Q32.4621 914.402 33.1941 917.299 Q33.9262 920.195 35.3903 922.869 L29.9795 922.869 Q28.7381 919.654 28.1334 916.63 Q27.4968 913.607 27.4968 910.742 Q27.4968 903.008 31.5072 899.188 Q35.5176 895.369 43.6657 895.369 Z" fill="#000000" fill-rule="nonzero" fill-opacity="1" /><path clip-path="url(#clip090)" d="M42.4881 853.674 L64.0042 853.674 L64.0042 859.53 L42.679 859.53 Q37.6183 859.53 35.1038 861.503 Q32.5894 863.477 32.5894 867.423 Q32.5894 872.166 35.6131 874.903 Q38.6368 877.64 43.8567 877.64 L64.0042 877.64 L64.0042 883.529 L28.3562 883.529 L28.3562 877.64 L33.8944 877.64 Q30.6797 875.54 29.0883 872.707 Q27.4968 869.842 27.4968 866.119 Q27.4968 859.976 31.3163 856.825 Q35.1038 853.674 42.4881 853.674 Z" fill="#000000" fill-rule="nonzero" fill-opacity="1" /><path clip-path="url(#clip090)" d="M41.7242 798.483 Q42.4244 796.414 44.7161 794.472 Q47.0077 792.499 51.0181 790.526 L64.0042 784.001 L64.0042 790.908 L51.8138 796.987 Q47.0395 799.342 45.48 801.57 Q43.9204 803.766 43.9204 807.586 L43.9204 814.588 L64.0042 814.588 L64.0042 821.017 L16.4842 821.017 L16.4842 806.504 Q16.4842 798.356 19.8898 794.345 Q23.2955 790.335 30.1704 790.335 Q34.6582 790.335 37.6183 792.435 Q40.5784 794.504 41.7242 798.483 M21.7677 814.588 L38.6368 814.588 L38.6368 806.504 Q38.6368 801.857 36.5043 799.501 Q34.34 797.114 30.1704 797.114 Q26.0009 797.114 23.9002 799.501 Q21.7677 801.857 21.7677 806.504 L21.7677 814.588 Z" fill="#000000" fill-rule="nonzero" fill-opacity="1" /><path clip-path="url(#clip090)" d="M44.7161 748.417 L47.5806 748.417 L47.5806 775.344 Q53.6281 774.962 56.8109 771.715 Q59.9619 768.437 59.9619 762.612 Q59.9619 759.238 59.1344 756.087 Q58.3069 752.904 56.6518 749.785 L62.1899 749.785 Q63.5267 752.936 64.227 756.246 Q64.9272 759.557 64.9272 762.962 Q64.9272 771.492 59.9619 776.489 Q54.9967 781.455 46.5303 781.455 Q37.7774 781.455 32.6531 776.744 Q27.4968 772.002 27.4968 763.981 Q27.4968 756.788 32.1438 752.618 Q36.7589 748.417 44.7161 748.417 M42.9973 754.273 Q38.1912 754.337 35.3266 756.978 Q32.4621 759.588 32.4621 763.917 Q32.4621 768.819 35.2312 771.779 Q38.0002 774.707 43.0292 775.153 L42.9973 754.273 Z" fill="#000000" fill-rule="nonzero" fill-opacity="1" /><path clip-path="url(#clip090)" d="M28.3562 742.21 L28.3562 736.354 L56.1743 729.033 L28.3562 721.744 L28.3562 714.838 L56.1743 707.517 L28.3562 700.228 L28.3562 694.372 L64.0042 703.698 L64.0042 710.604 L34.7856 718.275 L64.0042 725.977 L64.0042 732.884 L28.3562 742.21 Z" fill="#000000" fill-rule="nonzero" fill-opacity="1" /><path clip-path="url(#clip090)" d="M46.0847 669.291 Q46.0847 676.389 47.7079 679.126 Q49.3312 681.863 53.2461 681.863 Q56.3653 681.863 58.2114 679.826 Q60.0256 677.757 60.0256 674.224 Q60.0256 669.355 56.5881 666.426 Q53.1188 663.466 47.3897 663.466 L46.0847 663.466 L46.0847 669.291 M43.6657 657.61 L64.0042 657.61 L64.0042 663.466 L58.5933 663.466 Q61.8398 665.471 63.3994 668.463 Q64.9272 671.455 64.9272 675.784 Q64.9272 681.258 61.8716 684.505 Q58.7843 687.72 53.6281 687.72 Q47.6125 687.72 44.5569 683.709 Q41.5014 679.667 41.5014 671.678 L41.5014 663.466 L40.9285 663.466 Q36.8862 663.466 34.6901 666.14 Q32.4621 668.782 32.4621 673.588 Q32.4621 676.643 33.1941 679.54 Q33.9262 682.436 35.3903 685.11 L29.9795 685.11 Q28.7381 681.895 28.1334 678.871 Q27.4968 675.848 27.4968 672.983 Q27.4968 665.249 31.5072 661.429 Q35.5176 657.61 43.6657 657.61 Z" fill="#000000" fill-rule="nonzero" fill-opacity="1" /><path clip-path="url(#clip090)" d="M33.8307 624.89 Q33.2578 625.877 33.0032 627.054 Q32.7167 628.2 32.7167 629.601 Q32.7167 634.566 35.9632 637.24 Q39.1779 639.881 45.2253 639.881 L64.0042 639.881 L64.0042 645.77 L28.3562 645.77 L28.3562 639.881 L33.8944 639.881 Q30.6479 638.035 29.0883 635.075 Q27.4968 632.115 27.4968 627.882 Q27.4968 627.277 27.5923 626.545 Q27.656 625.813 27.8151 624.922 L33.8307 624.89 Z" fill="#000000" fill-rule="nonzero" fill-opacity="1" /><path clip-path="url(#clip090)" d="M33.7671 596.435 L14.479 596.435 L14.479 590.579 L64.0042 590.579 L64.0042 596.435 L58.657 596.435 Q61.8398 598.281 63.3994 601.114 Q64.9272 603.915 64.9272 607.862 Q64.9272 614.323 59.771 618.397 Q54.6147 622.439 46.212 622.439 Q37.8093 622.439 32.6531 618.397 Q27.4968 614.323 27.4968 607.862 Q27.4968 603.915 29.0564 601.114 Q30.5842 598.281 33.7671 596.435 M46.212 616.392 Q52.6732 616.392 56.3653 613.75 Q60.0256 611.076 60.0256 606.43 Q60.0256 601.783 56.3653 599.109 Q52.6732 596.435 46.212 596.435 Q39.7508 596.435 36.0905 599.109 Q32.3984 601.783 32.3984 606.43 Q32.3984 611.076 36.0905 613.75 Q39.7508 616.392 46.212 616.392 Z" fill="#000000" fill-rule="nonzero" fill-opacity="1" /><path clip-path="url(#clip090)" d="M685.964 18.8205 L685.964 41.5461 L696.253 41.5461 Q701.965 41.5461 705.084 38.5889 Q708.204 35.6318 708.204 30.163 Q708.204 24.7348 705.084 21.7777 Q701.965 18.8205 696.253 18.8205 L685.964 18.8205 M677.781 12.096 L696.253 12.096 Q706.421 12.096 711.606 16.714 Q716.832 21.2916 716.832 30.163 Q716.832 39.1155 711.606 43.6931 Q706.421 48.2706 696.253 48.2706 L685.964 48.2706 L685.964 72.576 L677.781 72.576 L677.781 12.096 Z" fill="#000000" fill-rule="nonzero" fill-opacity="1" /><path clip-path="url(#clip090)" d="M763.336 48.0275 L763.336 51.6733 L729.066 51.6733 Q729.552 59.3701 733.684 63.421 Q737.856 67.4314 745.269 67.4314 Q749.563 67.4314 753.574 66.3781 Q757.625 65.3249 761.595 63.2184 L761.595 70.267 Q757.584 71.9684 753.371 72.8596 Q749.158 73.7508 744.824 73.7508 Q733.967 73.7508 727.607 67.4314 Q721.288 61.1119 721.288 50.3365 Q721.288 39.1965 727.283 32.6746 Q733.319 26.1121 743.528 26.1121 Q752.683 26.1121 757.989 32.0264 Q763.336 37.9003 763.336 48.0275 M755.883 45.84 Q755.802 39.7232 752.44 36.0774 Q749.118 32.4315 743.609 32.4315 Q737.37 32.4315 733.603 35.9558 Q729.876 39.4801 729.309 45.8805 L755.883 45.84 Z" fill="#000000" fill-rule="nonzero" fill-opacity="1" /><path clip-path="url(#clip090)" d="M801.861 34.1734 Q800.605 33.4443 799.106 33.1202 Q797.648 32.7556 795.865 32.7556 Q789.546 32.7556 786.143 36.8875 Q782.781 40.9789 782.781 48.6757 L782.781 72.576 L775.287 72.576 L775.287 27.2059 L782.781 27.2059 L782.781 34.2544 Q785.13 30.1225 788.898 28.1376 Q792.665 26.1121 798.053 26.1121 Q798.822 26.1121 799.754 26.2337 Q800.686 26.3147 801.82 26.5172 L801.861 34.1734 Z" fill="#000000" fill-rule="nonzero" fill-opacity="1" /><path clip-path="url(#clip090)" d="M832.647 9.54393 L832.647 15.7418 L825.518 15.7418 Q821.507 15.7418 819.928 17.3622 Q818.388 18.9825 818.388 23.1955 L818.388 27.2059 L830.662 27.2059 L830.662 32.9987 L818.388 32.9987 L818.388 72.576 L810.894 72.576 L810.894 32.9987 L803.764 32.9987 L803.764 27.2059 L810.894 27.2059 L810.894 24.0462 Q810.894 16.471 814.418 13.0277 Q817.943 9.54393 825.599 9.54393 L832.647 9.54393 Z" fill="#000000" fill-rule="nonzero" fill-opacity="1" /><path clip-path="url(#clip090)" d="M856.467 32.4315 Q850.471 32.4315 846.988 37.1306 Q843.504 41.7891 843.504 49.9314 Q843.504 58.0738 846.947 62.7728 Q850.431 67.4314 856.467 67.4314 Q862.422 67.4314 865.905 62.7323 Q869.389 58.0333 869.389 49.9314 Q869.389 41.8701 865.905 37.1711 Q862.422 32.4315 856.467 32.4315 M856.467 26.1121 Q866.189 26.1121 871.739 32.4315 Q877.288 38.7509 877.288 49.9314 Q877.288 61.0714 871.739 67.4314 Q866.189 73.7508 856.467 73.7508 Q846.704 73.7508 841.154 67.4314 Q835.645 61.0714 835.645 49.9314 Q835.645 38.7509 841.154 32.4315 Q846.704 26.1121 856.467 26.1121 Z" fill="#000000" fill-rule="nonzero" fill-opacity="1" /><path clip-path="url(#clip090)" d="M915.934 34.1734 Q914.678 33.4443 913.179 33.1202 Q911.721 32.7556 909.939 32.7556 Q903.619 32.7556 900.217 36.8875 Q896.854 40.9789 896.854 48.6757 L896.854 72.576 L889.36 72.576 L889.36 27.2059 L896.854 27.2059 L896.854 34.2544 Q899.204 30.1225 902.971 28.1376 Q906.738 26.1121 912.126 26.1121 Q912.896 26.1121 913.828 26.2337 Q914.759 26.3147 915.894 26.5172 L915.934 34.1734 Z" fill="#000000" fill-rule="nonzero" fill-opacity="1" /><path clip-path="url(#clip090)" d="M957.618 35.9153 Q960.413 30.8922 964.302 28.5022 Q968.191 26.1121 973.457 26.1121 Q980.546 26.1121 984.394 31.0947 Q988.243 36.0368 988.243 45.1919 L988.243 72.576 L980.748 72.576 L980.748 45.4349 Q980.748 38.913 978.439 35.7533 Q976.13 32.5936 971.391 32.5936 Q965.598 32.5936 962.236 36.4419 Q958.874 40.2903 958.874 46.9338 L958.874 72.576 L951.379 72.576 L951.379 45.4349 Q951.379 38.8725 949.07 35.7533 Q946.761 32.5936 941.941 32.5936 Q936.229 32.5936 932.867 36.4824 Q929.505 40.3308 929.505 46.9338 L929.505 72.576 L922.01 72.576 L922.01 27.2059 L929.505 27.2059 L929.505 34.2544 Q932.057 30.082 935.621 28.0971 Q939.186 26.1121 944.088 26.1121 Q949.03 26.1121 952.473 28.6237 Q955.957 31.1352 957.618 35.9153 Z" fill="#000000" fill-rule="nonzero" fill-opacity="1" /><path clip-path="url(#clip090)" d="M1023.73 49.7694 Q1014.7 49.7694 1011.21 51.8354 Q1007.73 53.9013 1007.73 58.8839 Q1007.73 62.8538 1010.32 65.2034 Q1012.95 67.5124 1017.45 67.5124 Q1023.65 67.5124 1027.37 63.1374 Q1031.14 58.7219 1031.14 51.4303 L1031.14 49.7694 L1023.73 49.7694 M1038.6 46.6907 L1038.6 72.576 L1031.14 72.576 L1031.14 65.6895 Q1028.59 69.8214 1024.78 71.8063 Q1020.97 73.7508 1015.46 73.7508 Q1008.5 73.7508 1004.37 69.8619 Q1000.27 65.9325 1000.27 59.3701 Q1000.27 51.7138 1005.38 47.825 Q1010.52 43.9361 1020.69 43.9361 L1031.14 43.9361 L1031.14 43.2069 Q1031.14 38.0623 1027.74 35.2672 Q1024.38 32.4315 1018.26 32.4315 Q1014.37 32.4315 1010.68 33.3632 Q1007 34.295 1003.6 36.1584 L1003.6 29.2718 Q1007.69 27.692 1011.54 26.9223 Q1015.38 26.1121 1019.03 26.1121 Q1028.87 26.1121 1033.73 31.2163 Q1038.6 36.3204 1038.6 46.6907 Z" fill="#000000" fill-rule="nonzero" fill-opacity="1" /><path clip-path="url(#clip090)" d="M1091.66 45.1919 L1091.66 72.576 L1084.21 72.576 L1084.21 45.4349 Q1084.21 38.994 1081.7 35.7938 Q1079.19 32.5936 1074.16 32.5936 Q1068.13 32.5936 1064.64 36.4419 Q1061.16 40.2903 1061.16 46.9338 L1061.16 72.576 L1053.66 72.576 L1053.66 27.2059 L1061.16 27.2059 L1061.16 34.2544 Q1063.83 30.163 1067.44 28.1376 Q1071.08 26.1121 1075.82 26.1121 Q1083.64 26.1121 1087.65 30.9732 Q1091.66 35.7938 1091.66 45.1919 Z" fill="#000000" fill-rule="nonzero" fill-opacity="1" /><path clip-path="url(#clip090)" d="M1139.18 28.9478 L1139.18 35.9153 Q1136.02 34.1734 1132.82 33.3227 Q1129.66 32.4315 1126.42 32.4315 Q1119.17 32.4315 1115.16 37.0496 Q1111.15 41.6271 1111.15 49.9314 Q1111.15 58.2358 1115.16 62.8538 Q1119.17 67.4314 1126.42 67.4314 Q1129.66 67.4314 1132.82 66.5807 Q1136.02 65.6895 1139.18 63.9476 L1139.18 70.8341 Q1136.06 72.2924 1132.7 73.0216 Q1129.38 73.7508 1125.61 73.7508 Q1115.36 73.7508 1109.32 67.3098 Q1103.29 60.8689 1103.29 49.9314 Q1103.29 38.832 1109.36 32.472 Q1115.48 26.1121 1126.09 26.1121 Q1129.54 26.1121 1132.82 26.8413 Q1136.1 27.5299 1139.18 28.9478 Z" fill="#000000" fill-rule="nonzero" fill-opacity="1" /><path clip-path="url(#clip090)" d="M1190.95 48.0275 L1190.95 51.6733 L1156.68 51.6733 Q1157.17 59.3701 1161.3 63.421 Q1165.47 67.4314 1172.88 67.4314 Q1177.18 67.4314 1181.19 66.3781 Q1185.24 65.3249 1189.21 63.2184 L1189.21 70.267 Q1185.2 71.9684 1180.98 72.8596 Q1176.77 73.7508 1172.44 73.7508 Q1161.58 73.7508 1155.22 67.4314 Q1148.9 61.1119 1148.9 50.3365 Q1148.9 39.1965 1154.9 32.6746 Q1160.93 26.1121 1171.14 26.1121 Q1180.3 26.1121 1185.6 32.0264 Q1190.95 37.9003 1190.95 48.0275 M1183.5 45.84 Q1183.42 39.7232 1180.05 36.0774 Q1176.73 32.4315 1171.22 32.4315 Q1164.98 32.4315 1161.22 35.9558 Q1157.49 39.4801 1156.92 45.8805 L1183.5 45.84 Z" fill="#000000" fill-rule="nonzero" fill-opacity="1" /><path clip-path="url(#clip090)" d="M1238.06 43.6931 L1238.06 65.8515 L1251.19 65.8515 Q1257.79 65.8515 1260.95 63.1374 Q1264.15 60.3828 1264.15 54.752 Q1264.15 49.0808 1260.95 46.4072 Q1257.79 43.6931 1251.19 43.6931 L1238.06 43.6931 M1238.06 18.8205 L1238.06 37.0496 L1250.17 37.0496 Q1256.17 37.0496 1259.09 34.8216 Q1262.04 32.5531 1262.04 27.935 Q1262.04 23.3575 1259.09 21.089 Q1256.17 18.8205 1250.17 18.8205 L1238.06 18.8205 M1229.88 12.096 L1250.78 12.096 Q1260.14 12.096 1265.2 15.9849 Q1270.27 19.8737 1270.27 27.0438 Q1270.27 32.5936 1267.67 35.8748 Q1265.08 39.156 1260.06 39.9662 Q1266.09 41.2625 1269.42 45.3944 Q1272.78 49.4858 1272.78 55.6432 Q1272.78 63.745 1267.27 68.1605 Q1261.76 72.576 1251.59 72.576 L1229.88 72.576 L1229.88 12.096 Z" fill="#000000" fill-rule="nonzero" fill-opacity="1" /><path clip-path="url(#clip090)" d="M1325.28 48.0275 L1325.28 51.6733 L1291.01 51.6733 Q1291.49 59.3701 1295.63 63.421 Q1299.8 67.4314 1307.21 67.4314 Q1311.5 67.4314 1315.52 66.3781 Q1319.57 65.3249 1323.54 63.2184 L1323.54 70.267 Q1319.53 71.9684 1315.31 72.8596 Q1311.1 73.7508 1306.77 73.7508 Q1295.91 73.7508 1289.55 67.4314 Q1283.23 61.1119 1283.23 50.3365 Q1283.23 39.1965 1289.22 32.6746 Q1295.26 26.1121 1305.47 26.1121 Q1314.62 26.1121 1319.93 32.0264 Q1325.28 37.9003 1325.28 48.0275 M1317.82 45.84 Q1317.74 39.7232 1314.38 36.0774 Q1311.06 32.4315 1305.55 32.4315 Q1299.31 32.4315 1295.54 35.9558 Q1291.82 39.4801 1291.25 45.8805 L1317.82 45.84 Z" fill="#000000" fill-rule="nonzero" fill-opacity="1" /><path clip-path="url(#clip090)" d="M1375.23 45.1919 L1375.23 72.576 L1367.77 72.576 L1367.77 45.4349 Q1367.77 38.994 1365.26 35.7938 Q1362.75 32.5936 1357.73 32.5936 Q1351.69 32.5936 1348.21 36.4419 Q1344.72 40.2903 1344.72 46.9338 L1344.72 72.576 L1337.23 72.576 L1337.23 27.2059 L1344.72 27.2059 L1344.72 34.2544 Q1347.4 30.163 1351 28.1376 Q1354.65 26.1121 1359.39 26.1121 Q1367.2 26.1121 1371.22 30.9732 Q1375.23 35.7938 1375.23 45.1919 Z" fill="#000000" fill-rule="nonzero" fill-opacity="1" /><path clip-path="url(#clip090)" d="M1422.74 28.9478 L1422.74 35.9153 Q1419.58 34.1734 1416.38 33.3227 Q1413.22 32.4315 1409.98 32.4315 Q1402.73 32.4315 1398.72 37.0496 Q1394.71 41.6271 1394.71 49.9314 Q1394.71 58.2358 1398.72 62.8538 Q1402.73 67.4314 1409.98 67.4314 Q1413.22 67.4314 1416.38 66.5807 Q1419.58 65.6895 1422.74 63.9476 L1422.74 70.8341 Q1419.62 72.2924 1416.26 73.0216 Q1412.94 73.7508 1409.17 73.7508 Q1398.92 73.7508 1392.89 67.3098 Q1386.85 60.8689 1386.85 49.9314 Q1386.85 38.832 1392.93 32.472 Q1399.04 26.1121 1409.66 26.1121 Q1413.1 26.1121 1416.38 26.8413 Q1419.66 27.5299 1422.74 28.9478 Z" fill="#000000" fill-rule="nonzero" fill-opacity="1" /><path clip-path="url(#clip090)" d="M1473.42 45.1919 L1473.42 72.576 L1465.97 72.576 L1465.97 45.4349 Q1465.97 38.994 1463.45 35.7938 Q1460.94 32.5936 1455.92 32.5936 Q1449.88 32.5936 1446.4 36.4419 Q1442.92 40.2903 1442.92 46.9338 L1442.92 72.576 L1435.42 72.576 L1435.42 9.54393 L1442.92 9.54393 L1442.92 34.2544 Q1445.59 30.163 1449.2 28.1376 Q1452.84 26.1121 1457.58 26.1121 Q1465.4 26.1121 1469.41 30.9732 Q1473.42 35.7938 1473.42 45.1919 Z" fill="#000000" fill-rule="nonzero" fill-opacity="1" /><path clip-path="url(#clip090)" d="M1523.61 35.9153 Q1526.41 30.8922 1530.29 28.5022 Q1534.18 26.1121 1539.45 26.1121 Q1546.54 26.1121 1550.39 31.0947 Q1554.23 36.0368 1554.23 45.1919 L1554.23 72.576 L1546.74 72.576 L1546.74 45.4349 Q1546.74 38.913 1544.43 35.7533 Q1542.12 32.5936 1537.38 32.5936 Q1531.59 32.5936 1528.23 36.4419 Q1524.87 40.2903 1524.87 46.9338 L1524.87 72.576 L1517.37 72.576 L1517.37 45.4349 Q1517.37 38.8725 1515.06 35.7533 Q1512.75 32.5936 1507.93 32.5936 Q1502.22 32.5936 1498.86 36.4824 Q1495.5 40.3308 1495.5 46.9338 L1495.5 72.576 L1488 72.576 L1488 27.2059 L1495.5 27.2059 L1495.5 34.2544 Q1498.05 30.082 1501.61 28.0971 Q1505.18 26.1121 1510.08 26.1121 Q1515.02 26.1121 1518.47 28.6237 Q1521.95 31.1352 1523.61 35.9153 Z" fill="#000000" fill-rule="nonzero" fill-opacity="1" /><path clip-path="url(#clip090)" d="M1589.72 49.7694 Q1580.69 49.7694 1577.2 51.8354 Q1573.72 53.9013 1573.72 58.8839 Q1573.72 62.8538 1576.31 65.2034 Q1578.95 67.5124 1583.44 67.5124 Q1589.64 67.5124 1593.37 63.1374 Q1597.13 58.7219 1597.13 51.4303 L1597.13 49.7694 L1589.72 49.7694 M1604.59 46.6907 L1604.59 72.576 L1597.13 72.576 L1597.13 65.6895 Q1594.58 69.8214 1590.77 71.8063 Q1586.97 73.7508 1581.46 73.7508 Q1574.49 73.7508 1570.36 69.8619 Q1566.27 65.9325 1566.27 59.3701 Q1566.27 51.7138 1571.37 47.825 Q1576.51 43.9361 1586.68 43.9361 L1597.13 43.9361 L1597.13 43.2069 Q1597.13 38.0623 1593.73 35.2672 Q1590.37 32.4315 1584.25 32.4315 Q1580.36 32.4315 1576.68 33.3632 Q1572.99 34.295 1569.59 36.1584 L1569.59 29.2718 Q1573.68 27.692 1577.53 26.9223 Q1581.38 26.1121 1585.02 26.1121 Q1594.87 26.1121 1599.73 31.2163 Q1604.59 36.3204 1604.59 46.6907 Z" fill="#000000" fill-rule="nonzero" fill-opacity="1" /><path clip-path="url(#clip090)" d="M1646.23 34.1734 Q1644.98 33.4443 1643.48 33.1202 Q1642.02 32.7556 1640.24 32.7556 Q1633.92 32.7556 1630.51 36.8875 Q1627.15 40.9789 1627.15 48.6757 L1627.15 72.576 L1619.66 72.576 L1619.66 27.2059 L1627.15 27.2059 L1627.15 34.2544 Q1629.5 30.1225 1633.27 28.1376 Q1637.04 26.1121 1642.42 26.1121 Q1643.19 26.1121 1644.12 26.2337 Q1645.06 26.3147 1646.19 26.5172 L1646.23 34.1734 Z" fill="#000000" fill-rule="nonzero" fill-opacity="1" /><path clip-path="url(#clip090)" d="M1653.77 9.54393 L1661.26 9.54393 L1661.26 46.7717 L1683.5 27.2059 L1693.02 27.2059 L1668.96 48.4326 L1694.03 72.576 L1684.31 72.576 L1661.26 50.4176 L1661.26 72.576 L1653.77 72.576 L1653.77 9.54393 Z" fill="#000000" fill-rule="nonzero" fill-opacity="1" /><path clip-path="url(#clip090)" d="M1704 62.2867 L1712.54 62.2867 L1712.54 72.576 L1704 72.576 L1704 62.2867 M1704 29.6769 L1712.54 29.6769 L1712.54 39.9662 L1704 39.9662 L1704 29.6769 Z" fill="#000000" fill-rule="nonzero" fill-opacity="1" /><path clip-path="url(#clip090)" d="M1748.35 12.096 L1799.52 12.096 L1799.52 18.9825 L1778.05 18.9825 L1778.05 72.576 L1769.82 72.576 L1769.82 18.9825 L1748.35 18.9825 L1748.35 12.096 Z" fill="#000000" fill-rule="nonzero" fill-opacity="1" /><path clip-path="url(#clip090)" d="M1804.54 27.2059 L1811.99 27.2059 L1811.99 72.576 L1804.54 72.576 L1804.54 27.2059 M1804.54 9.54393 L1811.99 9.54393 L1811.99 18.9825 L1804.54 18.9825 L1804.54 9.54393 Z" fill="#000000" fill-rule="nonzero" fill-opacity="1" /><path clip-path="url(#clip090)" d="M1866.4 48.0275 L1866.4 51.6733 L1832.13 51.6733 Q1832.61 59.3701 1836.75 63.421 Q1840.92 67.4314 1848.33 67.4314 Q1852.62 67.4314 1856.63 66.3781 Q1860.69 65.3249 1864.66 63.2184 L1864.66 70.267 Q1860.65 71.9684 1856.43 72.8596 Q1852.22 73.7508 1847.89 73.7508 Q1837.03 73.7508 1830.67 67.4314 Q1824.35 61.1119 1824.35 50.3365 Q1824.35 39.1965 1830.34 32.6746 Q1836.38 26.1121 1846.59 26.1121 Q1855.74 26.1121 1861.05 32.0264 Q1866.4 37.9003 1866.4 48.0275 M1858.94 45.84 Q1858.86 39.7232 1855.5 36.0774 Q1852.18 32.4315 1846.67 32.4315 Q1840.43 32.4315 1836.66 35.9558 Q1832.94 39.4801 1832.37 45.8805 L1858.94 45.84 Z" fill="#000000" fill-rule="nonzero" fill-opacity="1" /><path clip-path="url(#clip090)" d="M1904.92 34.1734 Q1903.67 33.4443 1902.17 33.1202 Q1900.71 32.7556 1898.93 32.7556 Q1892.61 32.7556 1889.2 36.8875 Q1885.84 40.9789 1885.84 48.6757 L1885.84 72.576 L1878.35 72.576 L1878.35 27.2059 L1885.84 27.2059 L1885.84 34.2544 Q1888.19 30.1225 1891.96 28.1376 Q1895.73 26.1121 1901.11 26.1121 Q1901.88 26.1121 1902.82 26.2337 Q1903.75 26.3147 1904.88 26.5172 L1904.92 34.1734 Z" fill="#000000" fill-rule="nonzero" fill-opacity="1" /><path clip-path="url(#clip090)" d="M1964.96 39.9662 Q1970.83 41.222 1974.11 45.1919 Q1977.43 49.1618 1977.43 54.9951 Q1977.43 63.9476 1971.28 68.8492 Q1965.12 73.7508 1953.78 73.7508 Q1949.97 73.7508 1945.92 72.9811 Q1941.91 72.2519 1937.61 70.7531 L1937.61 62.8538 Q1941.02 64.8388 1945.07 65.8515 Q1949.12 66.8642 1953.53 66.8642 Q1961.23 66.8642 1965.24 63.826 Q1969.29 60.7879 1969.29 54.9951 Q1969.29 49.6479 1965.52 46.6502 Q1961.8 43.612 1955.11 43.612 L1948.06 43.612 L1948.06 36.8875 L1955.44 36.8875 Q1961.47 36.8875 1964.67 34.4975 Q1967.87 32.067 1967.87 27.5299 Q1967.87 22.8714 1964.55 20.4004 Q1961.27 17.8888 1955.11 17.8888 Q1951.75 17.8888 1947.9 18.618 Q1944.05 19.3471 1939.44 20.8865 L1939.44 13.5948 Q1944.09 12.2985 1948.14 11.6504 Q1952.24 11.0023 1955.84 11.0023 Q1965.16 11.0023 1970.59 15.2557 Q1976.02 19.4686 1976.02 26.6793 Q1976.02 31.7024 1973.14 35.1862 Q1970.26 38.6294 1964.96 39.9662 Z" fill="#000000" fill-rule="nonzero" fill-opacity="1" /><path clip-path="url(#clip092)" d="M362.416 855.392 L362.416 123.472 L426.762 123.472 L426.762 855.392 L362.416 855.392 L362.416 855.392  Z" fill="#009af9" fill-rule="evenodd" fill-opacity="1"/>
<polyline clip-path="url(#clip092)" style="stroke:#000000; stroke-linecap:round; stroke-linejoin:round; stroke-width:4; stroke-opacity:1; fill:none" points="362.416,855.392 362.416,123.472 426.762,123.472 426.762,855.392 362.416,855.392 "/>
<circle clip-path="url(#clip092)" style="fill:#009af9; stroke:none; fill-opacity:0" cx="394.589" cy="855.392" r="2"/>
<path clip-path="url(#clip092)" d="M394.589 950.233 L394.589 760.551 L394.589 123.472 L394.589 123.472  Z" fill="#009af9" fill-rule="evenodd" fill-opacity="1"/>
<polyline clip-path="url(#clip092)" style="stroke:#000000; stroke-linecap:round; stroke-linejoin:round; stroke-width:4; stroke-opacity:1; fill:none" points="394.589,950.233 394.589,760.551 "/>
<line clip-path="url(#clip092)" x1="410.589" y1="950.233" x2="378.589" y2="950.233" style="stroke:#000000; stroke-width:4; stroke-opacity:1"/>
<line clip-path="url(#clip092)" x1="410.589" y1="760.551" x2="378.589" y2="760.551" style="stroke:#000000; stroke-width:4; stroke-opacity:1"/>
<path clip-path="url(#clip092)" d="M828.925 1354.55 L828.925 123.472 L893.271 123.472 L893.271 1354.55 L828.925 1354.55 L828.925 1354.55  Z" fill="#e26f46" fill-rule="evenodd" fill-opacity="1"/>
<polyline clip-path="url(#clip092)" style="stroke:#000000; stroke-linecap:round; stroke-linejoin:round; stroke-width:4; stroke-opacity:1; fill:none" points="828.925,1354.55 828.925,123.472 893.271,123.472 893.271,1354.55 828.925,1354.55 "/>
<circle clip-path="url(#clip092)" style="fill:#e26f46; stroke:none; fill-opacity:0" cx="861.098" cy="1354.55" r="2"/>
<path clip-path="url(#clip092)" d="M861.098 1486.45 L861.098 1222.66 L861.098 123.472 L861.098 123.472  Z" fill="#e26f46" fill-rule="evenodd" fill-opacity="1"/>
<polyline clip-path="url(#clip092)" style="stroke:#000000; stroke-linecap:round; stroke-linejoin:round; stroke-width:4; stroke-opacity:1; fill:none" points="861.098,1486.45 861.098,1222.66 "/>
<line clip-path="url(#clip092)" x1="877.098" y1="1486.45" x2="845.098" y2="1486.45" style="stroke:#000000; stroke-width:4; stroke-opacity:1"/>
<line clip-path="url(#clip092)" x1="877.098" y1="1222.66" x2="845.098" y2="1222.66" style="stroke:#000000; stroke-width:4; stroke-opacity:1"/>
<path clip-path="url(#clip092)" d="M1295.43 857.898 L1295.43 123.472 L1359.78 123.472 L1359.78 857.898 L1295.43 857.898 L1295.43 857.898  Z" fill="#3da44d" fill-rule="evenodd" fill-opacity="1"/>
<polyline clip-path="url(#clip092)" style="stroke:#000000; stroke-linecap:round; stroke-linejoin:round; stroke-width:4; stroke-opacity:1; fill:none" points="1295.43,857.898 1295.43,123.472 1359.78,123.472 1359.78,857.898 1295.43,857.898 "/>
<circle clip-path="url(#clip092)" style="fill:#3da44d; stroke:none; fill-opacity:0" cx="1327.61" cy="857.898" r="2"/>
<path clip-path="url(#clip092)" d="M1327.61 963.383 L1327.61 752.412 L1327.61 123.472 L1327.61 123.472  Z" fill="#3da44d" fill-rule="evenodd" fill-opacity="1"/>
<polyline clip-path="url(#clip092)" style="stroke:#000000; stroke-linecap:round; stroke-linejoin:round; stroke-width:4; stroke-opacity:1; fill:none" points="1327.61,963.383 1327.61,752.412 "/>
<line clip-path="url(#clip092)" x1="1343.61" y1="963.383" x2="1311.61" y2="963.383" style="stroke:#000000; stroke-width:4; stroke-opacity:1"/>
<line clip-path="url(#clip092)" x1="1343.61" y1="752.412" x2="1311.61" y2="752.412" style="stroke:#000000; stroke-width:4; stroke-opacity:1"/>
<path clip-path="url(#clip092)" d="M1761.94 845.008 L1761.94 123.472 L1826.29 123.472 L1826.29 845.008 L1761.94 845.008 L1761.94 845.008  Z" fill="#c271d2" fill-rule="evenodd" fill-opacity="1"/>
<polyline clip-path="url(#clip092)" style="stroke:#000000; stroke-linecap:round; stroke-linejoin:round; stroke-width:4; stroke-opacity:1; fill:none" points="1761.94,845.008 1761.94,123.472 1826.29,123.472 1826.29,845.008 1761.94,845.008 "/>
<circle clip-path="url(#clip092)" style="fill:#c271d2; stroke:none; fill-opacity:0" cx="1794.12" cy="845.008" r="2"/>
<path clip-path="url(#clip092)" d="M1794.12 927.831 L1794.12 762.186 L1794.12 123.472 L1794.12 123.472  Z" fill="#c271d2" fill-rule="evenodd" fill-opacity="1"/>
<polyline clip-path="url(#clip092)" style="stroke:#000000; stroke-linecap:round; stroke-linejoin:round; stroke-width:4; stroke-opacity:1; fill:none" points="1794.12,927.831 1794.12,762.186 "/>
<line clip-path="url(#clip092)" x1="1810.12" y1="927.831" x2="1778.12" y2="927.831" style="stroke:#000000; stroke-width:4; stroke-opacity:1"/>
<line clip-path="url(#clip092)" x1="1810.12" y1="762.186" x2="1778.12" y2="762.186" style="stroke:#000000; stroke-width:4; stroke-opacity:1"/>
<path clip-path="url(#clip092)" d="M2228.45 910.867 L2228.45 123.472 L2292.8 123.472 L2292.8 910.867 L2228.45 910.867 L2228.45 910.867  Z" fill="#ac8d18" fill-rule="evenodd" fill-opacity="1"/>
<polyline clip-path="url(#clip092)" style="stroke:#000000; stroke-linecap:round; stroke-linejoin:round; stroke-width:4; stroke-opacity:1; fill:none" points="2228.45,910.867 2228.45,123.472 2292.8,123.472 2292.8,910.867 2228.45,910.867 "/>
<circle clip-path="url(#clip092)" style="fill:#ac8d18; stroke:none; fill-opacity:0" cx="2260.63" cy="910.867" r="2"/>
<path clip-path="url(#clip092)" d="M2260.63 1019.51 L2260.63 802.222 L2260.63 123.472 L2260.63 123.472  Z" fill="#ac8d18" fill-rule="evenodd" fill-opacity="1"/>
<polyline clip-path="url(#clip092)" style="stroke:#000000; stroke-linecap:round; stroke-linejoin:round; stroke-width:4; stroke-opacity:1; fill:none" points="2260.63,1019.51 2260.63,802.222 "/>
<line clip-path="url(#clip092)" x1="2276.63" y1="1019.51" x2="2244.63" y2="1019.51" style="stroke:#000000; stroke-width:4; stroke-opacity:1"/>
<line clip-path="url(#clip092)" x1="2276.63" y1="802.222" x2="2244.63" y2="802.222" style="stroke:#000000; stroke-width:4; stroke-opacity:1"/>
</svg>
