<?xml version="1.0" encoding="utf-8"?>
<svg xmlns="http://www.w3.org/2000/svg" xmlns:xlink="http://www.w3.org/1999/xlink" width="600" height="400" viewBox="0 0 2400 1600">
<defs>
  <clipPath id="clip630">
    <rect x="0" y="0" width="2400" height="1600"/>
  </clipPath>
</defs>
<path clip-path="url(#clip630)" d="M0 1600 L2400 1600 L2400 8.88178e-14 L0 8.88178e-14  Z" fill="#ffffff" fill-rule="evenodd" fill-opacity="1"/>
<defs>
  <clipPath id="clip631">
    <rect x="309" y="123" width="2044" height="1301"/>
  </clipPath>
</defs>
<path clip-path="url(#clip630)" d="M279.704 1423.18 L2352.76 1423.18 L2352.76 123.472 L279.704 123.472  Z" fill="#ffffff" fill-rule="evenodd" fill-opacity="1"/>
<defs>
  <clipPath id="clip632">
    <rect x="279" y="123" width="2074" height="1301"/>
  </clipPath>
</defs>
<polyline clip-path="url(#clip632)" style="stroke:#000000; stroke-linecap:round; stroke-linejoin:round; stroke-width:2; stroke-opacity:0.1; fill:none" points="338.375,1423.18 338.375,123.472 "/>
<polyline clip-path="url(#clip632)" style="stroke:#000000; stroke-linecap:round; stroke-linejoin:round; stroke-width:2; stroke-opacity:0.1; fill:none" points="949.534,1423.18 949.534,123.472 "/>
<polyline clip-path="url(#clip632)" style="stroke:#000000; stroke-linecap:round; stroke-linejoin:round; stroke-width:2; stroke-opacity:0.1; fill:none" points="1560.69,1423.18 1560.69,123.472 "/>
<polyline clip-path="url(#clip632)" style="stroke:#000000; stroke-linecap:round; stroke-linejoin:round; stroke-width:2; stroke-opacity:0.1; fill:none" points="2171.85,1423.18 2171.85,123.472 "/>
<polyline clip-path="url(#clip632)" style="stroke:#000000; stroke-linecap:round; stroke-linejoin:round; stroke-width:2; stroke-opacity:0.1; fill:none" points="279.704,1372.85 2352.76,1372.85 "/>
<polyline clip-path="url(#clip632)" style="stroke:#000000; stroke-linecap:round; stroke-linejoin:round; stroke-width:2; stroke-opacity:0.1; fill:none" points="279.704,1097.71 2352.76,1097.71 "/>
<polyline clip-path="url(#clip632)" style="stroke:#000000; stroke-linecap:round; stroke-linejoin:round; stroke-width:2; stroke-opacity:0.1; fill:none" points="279.704,822.574 2352.76,822.574 "/>
<polyline clip-path="url(#clip632)" style="stroke:#000000; stroke-linecap:round; stroke-linejoin:round; stroke-width:2; stroke-opacity:0.1; fill:none" points="279.704,547.438 2352.76,547.438 "/>
<polyline clip-path="url(#clip632)" style="stroke:#000000; stroke-linecap:round; stroke-linejoin:round; stroke-width:2; stroke-opacity:0.1; fill:none" points="279.704,272.302 2352.76,272.302 "/>
<polyline clip-path="url(#clip630)" style="stroke:#000000; stroke-linecap:round; stroke-linejoin:round; stroke-width:4; stroke-opacity:1; fill:none" points="279.704,1423.18 2352.76,1423.18 "/>
<polyline clip-path="url(#clip630)" style="stroke:#000000; stroke-linecap:round; stroke-linejoin:round; stroke-width:4; stroke-opacity:1; fill:none" points="338.375,1423.18 338.375,1404.28 "/>
<polyline clip-path="url(#clip630)" style="stroke:#000000; stroke-linecap:round; stroke-linejoin:round; stroke-width:4; stroke-opacity:1; fill:none" points="949.534,1423.18 949.534,1404.28 "/>
<polyline clip-path="url(#clip630)" style="stroke:#000000; stroke-linecap:round; stroke-linejoin:round; stroke-width:4; stroke-opacity:1; fill:none" points="1560.69,1423.18 1560.69,1404.28 "/>
<polyline clip-path="url(#clip630)" style="stroke:#000000; stroke-linecap:round; stroke-linejoin:round; stroke-width:4; stroke-opacity:1; fill:none" points="2171.85,1423.18 2171.85,1404.28 "/>
<path clip-path="url(#clip630)" d="M315.76 1454.1 Q312.148 1454.1 310.32 1457.66 Q308.514 1461.2 308.514 1468.33 Q308.514 1475.44 310.32 1479.01 Q312.148 1482.55 315.76 1482.55 Q319.394 1482.55 321.199 1479.01 Q323.028 1475.44 323.028 1468.33 Q323.028 1461.2 321.199 1457.66 Q319.394 1454.1 315.76 1454.1 M315.76 1450.39 Q321.57 1450.39 324.625 1455 Q327.704 1459.58 327.704 1468.33 Q327.704 1477.06 324.625 1481.67 Q321.57 1486.25 315.76 1486.25 Q309.949 1486.25 306.871 1481.67 Q303.815 1477.06 303.815 1468.33 Q303.815 1459.58 306.871 1455 Q309.949 1450.39 315.76 1450.39 Z" fill="#000000" fill-rule="nonzero" fill-opacity="1" /><path clip-path="url(#clip630)" d="M335.922 1479.7 L340.806 1479.7 L340.806 1485.58 L335.922 1485.58 L335.922 1479.7 Z" fill="#000000" fill-rule="nonzero" fill-opacity="1" /><path clip-path="url(#clip630)" d="M360.991 1454.1 Q357.38 1454.1 355.551 1457.66 Q353.745 1461.2 353.745 1468.33 Q353.745 1475.44 355.551 1479.01 Q357.38 1482.55 360.991 1482.55 Q364.625 1482.55 366.431 1479.01 Q368.259 1475.44 368.259 1468.33 Q368.259 1461.2 366.431 1457.66 Q364.625 1454.1 360.991 1454.1 M360.991 1450.39 Q366.801 1450.39 369.857 1455 Q372.935 1459.58 372.935 1468.33 Q372.935 1477.06 369.857 1481.67 Q366.801 1486.25 360.991 1486.25 Q355.181 1486.25 352.102 1481.67 Q349.046 1477.06 349.046 1468.33 Q349.046 1459.58 352.102 1455 Q355.181 1450.39 360.991 1450.39 Z" fill="#000000" fill-rule="nonzero" fill-opacity="1" /><path clip-path="url(#clip630)" d="M927.416 1454.1 Q923.805 1454.1 921.977 1457.66 Q920.171 1461.2 920.171 1468.33 Q920.171 1475.44 921.977 1479.01 Q923.805 1482.55 927.416 1482.55 Q931.051 1482.55 932.856 1479.01 Q934.685 1475.44 934.685 1468.33 Q934.685 1461.2 932.856 1457.66 Q931.051 1454.1 927.416 1454.1 M927.416 1450.39 Q933.227 1450.39 936.282 1455 Q939.361 1459.58 939.361 1468.33 Q939.361 1477.06 936.282 1481.67 Q933.227 1486.25 927.416 1486.25 Q921.606 1486.25 918.528 1481.67 Q915.472 1477.06 915.472 1468.33 Q915.472 1459.58 918.528 1455 Q921.606 1450.39 927.416 1450.39 Z" fill="#000000" fill-rule="nonzero" fill-opacity="1" /><path clip-path="url(#clip630)" d="M947.578 1479.7 L952.463 1479.7 L952.463 1485.58 L947.578 1485.58 L947.578 1479.7 Z" fill="#000000" fill-rule="nonzero" fill-opacity="1" /><path clip-path="url(#clip630)" d="M962.694 1451.02 L981.05 1451.02 L981.05 1454.96 L966.976 1454.96 L966.976 1463.43 Q967.995 1463.08 969.013 1462.92 Q970.032 1462.73 971.05 1462.73 Q976.837 1462.73 980.217 1465.9 Q983.597 1469.08 983.597 1474.49 Q983.597 1480.07 980.125 1483.17 Q976.652 1486.25 970.333 1486.25 Q968.157 1486.25 965.888 1485.88 Q963.643 1485.51 961.236 1484.77 L961.236 1480.07 Q963.319 1481.2 965.541 1481.76 Q967.763 1482.32 970.24 1482.32 Q974.245 1482.32 976.583 1480.21 Q978.921 1478.1 978.921 1474.49 Q978.921 1470.88 976.583 1468.77 Q974.245 1466.67 970.24 1466.67 Q968.365 1466.67 966.49 1467.08 Q964.638 1467.5 962.694 1468.38 L962.694 1451.02 Z" fill="#000000" fill-rule="nonzero" fill-opacity="1" /><path clip-path="url(#clip630)" d="M1527.85 1481.64 L1535.49 1481.64 L1535.49 1455.28 L1527.18 1456.95 L1527.18 1452.69 L1535.44 1451.02 L1540.11 1451.02 L1540.11 1481.64 L1547.75 1481.64 L1547.75 1485.58 L1527.85 1485.58 L1527.85 1481.64 Z" fill="#000000" fill-rule="nonzero" fill-opacity="1" /><path clip-path="url(#clip630)" d="M1557.2 1479.7 L1562.08 1479.7 L1562.08 1485.58 L1557.2 1485.58 L1557.2 1479.7 Z" fill="#000000" fill-rule="nonzero" fill-opacity="1" /><path clip-path="url(#clip630)" d="M1582.27 1454.1 Q1578.66 1454.1 1576.83 1457.66 Q1575.02 1461.2 1575.02 1468.33 Q1575.02 1475.44 1576.83 1479.01 Q1578.66 1482.55 1582.27 1482.55 Q1585.9 1482.55 1587.71 1479.01 Q1589.54 1475.44 1589.54 1468.33 Q1589.54 1461.2 1587.71 1457.66 Q1585.9 1454.1 1582.27 1454.1 M1582.27 1450.39 Q1588.08 1450.39 1591.13 1455 Q1594.21 1459.58 1594.21 1468.33 Q1594.21 1477.06 1591.13 1481.67 Q1588.08 1486.25 1582.27 1486.25 Q1576.46 1486.25 1573.38 1481.67 Q1570.32 1477.06 1570.32 1468.33 Q1570.32 1459.58 1573.38 1455 Q1576.46 1450.39 1582.27 1450.39 Z" fill="#000000" fill-rule="nonzero" fill-opacity="1" /><path clip-path="url(#clip630)" d="M2139.5 1481.64 L2147.14 1481.64 L2147.14 1455.28 L2138.83 1456.95 L2138.83 1452.69 L2147.1 1451.02 L2151.77 1451.02 L2151.77 1481.64 L2159.41 1481.64 L2159.41 1485.58 L2139.5 1485.58 L2139.5 1481.64 Z" fill="#000000" fill-rule="nonzero" fill-opacity="1" /><path clip-path="url(#clip630)" d="M2168.86 1479.7 L2173.74 1479.7 L2173.74 1485.58 L2168.86 1485.58 L2168.86 1479.7 Z" fill="#000000" fill-rule="nonzero" fill-opacity="1" /><path clip-path="url(#clip630)" d="M2183.97 1451.02 L2202.33 1451.02 L2202.33 1454.96 L2188.25 1454.96 L2188.25 1463.43 Q2189.27 1463.08 2190.29 1462.92 Q2191.31 1462.73 2192.33 1462.73 Q2198.11 1462.73 2201.49 1465.9 Q2204.87 1469.08 2204.87 1474.49 Q2204.87 1480.07 2201.4 1483.17 Q2197.93 1486.25 2191.61 1486.25 Q2189.43 1486.25 2187.17 1485.88 Q2184.92 1485.51 2182.51 1484.77 L2182.51 1480.07 Q2184.6 1481.2 2186.82 1481.76 Q2189.04 1482.32 2191.52 1482.32 Q2195.52 1482.32 2197.86 1480.21 Q2200.2 1478.1 2200.2 1474.49 Q2200.2 1470.88 2197.86 1468.77 Q2195.52 1466.67 2191.52 1466.67 Q2189.64 1466.67 2187.77 1467.08 Q2185.92 1467.5 2183.97 1468.38 L2183.97 1451.02 Z" fill="#000000" fill-rule="nonzero" fill-opacity="1" /><path clip-path="url(#clip630)" d="M1007.06 1524.18 L1007.06 1530.96 Q1003.82 1527.94 1000.12 1526.44 Q996.465 1524.95 992.327 1524.95 Q984.179 1524.95 979.85 1529.95 Q975.521 1534.91 975.521 1544.33 Q975.521 1553.72 979.85 1558.72 Q984.179 1563.68 992.327 1563.68 Q996.465 1563.68 1000.12 1562.19 Q1003.82 1560.69 1007.06 1557.67 L1007.06 1564.38 Q1003.69 1566.68 999.902 1567.82 Q996.146 1568.97 991.945 1568.97 Q981.155 1568.97 974.948 1562.38 Q968.742 1555.76 968.742 1544.33 Q968.742 1532.87 974.948 1526.28 Q981.155 1519.66 991.945 1519.66 Q996.21 1519.66 999.966 1520.81 Q1003.75 1521.92 1007.06 1524.18 Z" fill="#000000" fill-rule="nonzero" fill-opacity="1" /><path clip-path="url(#clip630)" d="M1030.55 1536.5 Q1025.84 1536.5 1023.11 1540.19 Q1020.37 1543.85 1020.37 1550.25 Q1020.37 1556.65 1023.07 1560.34 Q1025.81 1564 1030.55 1564 Q1035.23 1564 1037.97 1560.31 Q1040.71 1556.62 1040.71 1550.25 Q1040.71 1543.92 1037.97 1540.23 Q1035.23 1536.5 1030.55 1536.5 M1030.55 1531.54 Q1038.19 1531.54 1042.55 1536.5 Q1046.91 1541.47 1046.91 1550.25 Q1046.91 1559 1042.55 1564 Q1038.19 1568.97 1030.55 1568.97 Q1022.88 1568.97 1018.52 1564 Q1014.19 1559 1014.19 1550.25 Q1014.19 1541.47 1018.52 1536.5 Q1022.88 1531.54 1030.55 1531.54 Z" fill="#000000" fill-rule="nonzero" fill-opacity="1" /><path clip-path="url(#clip630)" d="M1056.02 1553.98 L1056.02 1532.4 L1061.87 1532.4 L1061.87 1553.75 Q1061.87 1558.81 1063.85 1561.36 Q1065.82 1563.87 1069.77 1563.87 Q1074.51 1563.87 1077.25 1560.85 Q1080.01 1557.83 1080.01 1552.61 L1080.01 1532.4 L1085.87 1532.4 L1085.87 1568.04 L1080.01 1568.04 L1080.01 1562.57 Q1077.88 1565.82 1075.05 1567.41 Q1072.25 1568.97 1068.52 1568.97 Q1062.38 1568.97 1059.2 1565.15 Q1056.02 1561.33 1056.02 1553.98 M1070.75 1531.54 L1070.75 1531.54 Z" fill="#000000" fill-rule="nonzero" fill-opacity="1" /><path clip-path="url(#clip630)" d="M1103.6 1562.7 L1103.6 1581.6 L1097.71 1581.6 L1097.71 1532.4 L1103.6 1532.4 L1103.6 1537.81 Q1105.45 1534.62 1108.25 1533.1 Q1111.08 1531.54 1114.99 1531.54 Q1121.49 1531.54 1125.53 1536.69 Q1129.6 1541.85 1129.6 1550.25 Q1129.6 1558.65 1125.53 1563.81 Q1121.49 1568.97 1114.99 1568.97 Q1111.08 1568.97 1108.25 1567.44 Q1105.45 1565.88 1103.6 1562.7 M1123.52 1550.25 Q1123.52 1543.79 1120.85 1540.13 Q1118.21 1536.44 1113.56 1536.44 Q1108.91 1536.44 1106.24 1540.13 Q1103.6 1543.79 1103.6 1550.25 Q1103.6 1556.71 1106.24 1560.4 Q1108.91 1564.07 1113.56 1564.07 Q1118.21 1564.07 1120.85 1560.4 Q1123.52 1556.71 1123.52 1550.25 Z" fill="#000000" fill-rule="nonzero" fill-opacity="1" /><path clip-path="url(#clip630)" d="M1139.31 1518.52 L1145.17 1518.52 L1145.17 1568.04 L1139.31 1568.04 L1139.31 1518.52 Z" fill="#000000" fill-rule="nonzero" fill-opacity="1" /><path clip-path="url(#clip630)" d="M1157.42 1532.4 L1163.28 1532.4 L1163.28 1568.04 L1157.42 1568.04 L1157.42 1532.4 M1157.42 1518.52 L1163.28 1518.52 L1163.28 1525.93 L1157.42 1525.93 L1157.42 1518.52 Z" fill="#000000" fill-rule="nonzero" fill-opacity="1" /><path clip-path="url(#clip630)" d="M1205.16 1546.53 L1205.16 1568.04 L1199.31 1568.04 L1199.31 1546.72 Q1199.31 1541.66 1197.33 1539.14 Q1195.36 1536.63 1191.41 1536.63 Q1186.67 1536.63 1183.93 1539.65 Q1181.2 1542.68 1181.2 1547.9 L1181.2 1568.04 L1175.31 1568.04 L1175.31 1532.4 L1181.2 1532.4 L1181.2 1537.93 Q1183.3 1534.72 1186.13 1533.13 Q1189 1531.54 1192.72 1531.54 Q1198.86 1531.54 1202.01 1535.36 Q1205.16 1539.14 1205.16 1546.53 Z" fill="#000000" fill-rule="nonzero" fill-opacity="1" /><path clip-path="url(#clip630)" d="M1240.3 1549.81 Q1240.3 1543.44 1237.66 1539.94 Q1235.05 1536.44 1230.31 1536.44 Q1225.6 1536.44 1222.96 1539.94 Q1220.35 1543.44 1220.35 1549.81 Q1220.35 1556.14 1222.96 1559.64 Q1225.6 1563.14 1230.31 1563.14 Q1235.05 1563.14 1237.66 1559.64 Q1240.3 1556.14 1240.3 1549.81 M1246.16 1563.62 Q1246.16 1572.72 1242.12 1577.15 Q1238.07 1581.6 1229.74 1581.6 Q1226.65 1581.6 1223.91 1581.13 Q1221.17 1580.68 1218.6 1579.72 L1218.6 1574.03 Q1221.17 1575.43 1223.69 1576.1 Q1226.2 1576.76 1228.81 1576.76 Q1234.57 1576.76 1237.44 1573.74 Q1240.3 1570.75 1240.3 1564.67 L1240.3 1561.77 Q1238.49 1564.92 1235.66 1566.48 Q1232.82 1568.04 1228.88 1568.04 Q1222.32 1568.04 1218.31 1563.05 Q1214.3 1558.05 1214.3 1549.81 Q1214.3 1541.53 1218.31 1536.53 Q1222.32 1531.54 1228.88 1531.54 Q1232.82 1531.54 1235.66 1533.1 Q1238.49 1534.66 1240.3 1537.81 L1240.3 1532.4 L1246.16 1532.4 L1246.16 1563.62 Z" fill="#000000" fill-rule="nonzero" fill-opacity="1" /><path clip-path="url(#clip630)" d="M1307.68 1522.08 L1307.68 1528.35 Q1304.02 1526.6 1300.78 1525.74 Q1297.53 1524.88 1294.51 1524.88 Q1289.26 1524.88 1286.39 1526.92 Q1283.56 1528.96 1283.56 1532.71 Q1283.56 1535.87 1285.44 1537.49 Q1287.35 1539.08 1292.63 1540.07 L1296.51 1540.86 Q1303.71 1542.23 1307.11 1545.7 Q1310.55 1549.14 1310.55 1554.93 Q1310.55 1561.84 1305.9 1565.4 Q1301.29 1568.97 1292.34 1568.97 Q1288.97 1568.97 1285.15 1568.2 Q1281.36 1567.44 1277.29 1565.94 L1277.29 1559.32 Q1281.2 1561.52 1284.96 1562.63 Q1288.71 1563.75 1292.34 1563.75 Q1297.85 1563.75 1300.84 1561.58 Q1303.83 1559.42 1303.83 1555.41 Q1303.83 1551.91 1301.67 1549.93 Q1299.54 1547.96 1294.63 1546.97 L1290.72 1546.21 Q1283.53 1544.78 1280.31 1541.72 Q1277.1 1538.67 1277.1 1533.22 Q1277.1 1526.92 1281.52 1523.29 Q1285.98 1519.66 1293.77 1519.66 Q1297.12 1519.66 1300.59 1520.27 Q1304.06 1520.87 1307.68 1522.08 Z" fill="#000000" fill-rule="nonzero" fill-opacity="1" /><path clip-path="url(#clip630)" d="M1326.11 1522.27 L1326.11 1532.4 L1338.18 1532.4 L1338.18 1536.95 L1326.11 1536.95 L1326.11 1556.3 Q1326.11 1560.66 1327.29 1561.9 Q1328.5 1563.14 1332.16 1563.14 L1338.18 1563.14 L1338.18 1568.04 L1332.16 1568.04 Q1325.38 1568.04 1322.8 1565.53 Q1320.22 1562.98 1320.22 1556.3 L1320.22 1536.95 L1315.93 1536.95 L1315.93 1532.4 L1320.22 1532.4 L1320.22 1522.27 L1326.11 1522.27 Z" fill="#000000" fill-rule="nonzero" fill-opacity="1" /><path clip-path="url(#clip630)" d="M1366.53 1537.87 Q1365.55 1537.3 1364.37 1537.04 Q1363.22 1536.76 1361.82 1536.76 Q1356.86 1536.76 1354.19 1540 Q1351.54 1543.22 1351.54 1549.27 L1351.54 1568.04 L1345.66 1568.04 L1345.66 1532.4 L1351.54 1532.4 L1351.54 1537.93 Q1353.39 1534.69 1356.35 1533.13 Q1359.31 1531.54 1363.54 1531.54 Q1364.15 1531.54 1364.88 1531.63 Q1365.61 1531.7 1366.5 1531.85 L1366.53 1537.87 Z" fill="#000000" fill-rule="nonzero" fill-opacity="1" /><path clip-path="url(#clip630)" d="M1401.74 1548.76 L1401.74 1551.62 L1374.81 1551.62 Q1375.19 1557.67 1378.44 1560.85 Q1381.72 1564 1387.54 1564 Q1390.92 1564 1394.07 1563.17 Q1397.25 1562.35 1400.37 1560.69 L1400.37 1566.23 Q1397.22 1567.57 1393.91 1568.27 Q1390.6 1568.97 1387.19 1568.97 Q1378.66 1568.97 1373.66 1564 Q1368.7 1559.04 1368.7 1550.57 Q1368.7 1541.82 1373.41 1536.69 Q1378.15 1531.54 1386.17 1531.54 Q1393.37 1531.54 1397.54 1536.18 Q1401.74 1540.8 1401.74 1548.76 M1395.88 1547.04 Q1395.82 1542.23 1393.18 1539.37 Q1390.57 1536.5 1386.24 1536.5 Q1381.34 1536.5 1378.38 1539.27 Q1375.45 1542.04 1375 1547.07 L1395.88 1547.04 Z" fill="#000000" fill-rule="nonzero" fill-opacity="1" /><path clip-path="url(#clip630)" d="M1440.98 1546.53 L1440.98 1568.04 L1435.13 1568.04 L1435.13 1546.72 Q1435.13 1541.66 1433.15 1539.14 Q1431.18 1536.63 1427.23 1536.63 Q1422.49 1536.63 1419.75 1539.65 Q1417.01 1542.68 1417.01 1547.9 L1417.01 1568.04 L1411.13 1568.04 L1411.13 1532.4 L1417.01 1532.4 L1417.01 1537.93 Q1419.12 1534.72 1421.95 1533.13 Q1424.81 1531.54 1428.54 1531.54 Q1434.68 1531.54 1437.83 1535.36 Q1440.98 1539.14 1440.98 1546.53 Z" fill="#000000" fill-rule="nonzero" fill-opacity="1" /><path clip-path="url(#clip630)" d="M1476.12 1549.81 Q1476.12 1543.44 1473.48 1539.94 Q1470.87 1536.44 1466.13 1536.44 Q1461.42 1536.44 1458.77 1539.94 Q1456.16 1543.44 1456.16 1549.81 Q1456.16 1556.14 1458.77 1559.64 Q1461.42 1563.14 1466.13 1563.14 Q1470.87 1563.14 1473.48 1559.64 Q1476.12 1556.14 1476.12 1549.81 M1481.98 1563.62 Q1481.98 1572.72 1477.93 1577.15 Q1473.89 1581.6 1465.55 1581.6 Q1462.47 1581.6 1459.73 1581.13 Q1456.99 1580.68 1454.41 1579.72 L1454.41 1574.03 Q1456.99 1575.43 1459.51 1576.1 Q1462.02 1576.76 1464.63 1576.76 Q1470.39 1576.76 1473.26 1573.74 Q1476.12 1570.75 1476.12 1564.67 L1476.12 1561.77 Q1474.31 1564.92 1471.47 1566.48 Q1468.64 1568.04 1464.69 1568.04 Q1458.14 1568.04 1454.13 1563.05 Q1450.12 1558.05 1450.12 1549.81 Q1450.12 1541.53 1454.13 1536.53 Q1458.14 1531.54 1464.69 1531.54 Q1468.64 1531.54 1471.47 1533.1 Q1474.31 1534.66 1476.12 1537.81 L1476.12 1532.4 L1481.98 1532.4 L1481.98 1563.62 Z" fill="#000000" fill-rule="nonzero" fill-opacity="1" /><path clip-path="url(#clip630)" d="M1499.83 1522.27 L1499.83 1532.4 L1511.9 1532.4 L1511.9 1536.95 L1499.83 1536.95 L1499.83 1556.3 Q1499.83 1560.66 1501.01 1561.9 Q1502.22 1563.14 1505.88 1563.14 L1511.9 1563.14 L1511.9 1568.04 L1505.88 1568.04 Q1499.1 1568.04 1496.52 1565.53 Q1493.94 1562.98 1493.94 1556.3 L1493.94 1536.95 L1489.65 1536.95 L1489.65 1532.4 L1493.94 1532.4 L1493.94 1522.27 L1499.83 1522.27 Z" fill="#000000" fill-rule="nonzero" fill-opacity="1" /><path clip-path="url(#clip630)" d="M1549.23 1546.53 L1549.23 1568.04 L1543.37 1568.04 L1543.37 1546.72 Q1543.37 1541.66 1541.4 1539.14 Q1539.43 1536.63 1535.48 1536.63 Q1530.74 1536.63 1528 1539.65 Q1525.26 1542.68 1525.26 1547.9 L1525.26 1568.04 L1519.38 1568.04 L1519.38 1518.52 L1525.26 1518.52 L1525.26 1537.93 Q1527.36 1534.72 1530.2 1533.13 Q1533.06 1531.54 1536.79 1531.54 Q1542.93 1531.54 1546.08 1535.36 Q1549.23 1539.14 1549.23 1546.53 Z" fill="#000000" fill-rule="nonzero" fill-opacity="1" /><path clip-path="url(#clip630)" d="M1595.7 1518.58 Q1591.44 1525.9 1589.37 1533.06 Q1587.3 1540.23 1587.3 1547.58 Q1587.3 1554.93 1589.37 1562.16 Q1591.47 1569.35 1595.7 1576.64 L1590.61 1576.64 Q1585.83 1569.16 1583.45 1561.93 Q1581.09 1554.71 1581.09 1547.58 Q1581.09 1540.48 1583.45 1533.29 Q1585.8 1526.09 1590.61 1518.58 L1595.7 1518.58 Z" fill="#000000" fill-rule="nonzero" fill-opacity="1" /><path clip-path="url(#clip630)" d="M1627.85 1551.46 L1626.45 1544.11 Q1625.01 1536.57 1619.35 1536.57 Q1615.08 1536.57 1613.14 1540.07 Q1610.69 1544.46 1610.69 1550.25 Q1610.69 1557.25 1613.08 1560.6 Q1615.5 1564 1619.35 1564 Q1623.61 1564 1625.91 1557.22 L1627.85 1551.46 M1631.13 1541.72 L1634.28 1532.4 L1639.5 1532.4 L1632.97 1551.72 L1634.24 1558.69 Q1634.53 1560.25 1635.65 1561.55 Q1636.95 1563.08 1637.97 1563.08 L1640.77 1563.08 L1640.77 1568.04 L1637.27 1568.04 Q1634.28 1568.04 1631.6 1565.37 Q1630.3 1564.03 1629.76 1561.23 Q1628.29 1564.77 1625.3 1567.53 Q1623.9 1568.84 1619.35 1568.84 Q1611.87 1568.84 1608.24 1564 Q1604.52 1559 1604.52 1550.25 Q1604.52 1540.89 1608.56 1536.5 Q1613.05 1531.6 1619.35 1531.6 Q1629.25 1531.6 1631.13 1541.72 Z" fill="#000000" fill-rule="nonzero" fill-opacity="1" /><path clip-path="url(#clip630)" d="M1649.11 1518.58 L1654.2 1518.58 Q1658.98 1526.09 1661.33 1533.29 Q1663.72 1540.48 1663.72 1547.58 Q1663.72 1554.71 1661.33 1561.93 Q1658.98 1569.16 1654.2 1576.64 L1649.11 1576.64 Q1653.34 1569.35 1655.41 1562.16 Q1657.51 1554.93 1657.51 1547.58 Q1657.51 1540.23 1655.41 1533.06 Q1653.34 1525.9 1649.11 1518.58 Z" fill="#000000" fill-rule="nonzero" fill-opacity="1" /><polyline clip-path="url(#clip630)" style="stroke:#000000; stroke-linecap:round; stroke-linejoin:round; stroke-width:4; stroke-opacity:1; fill:none" points="279.704,1423.18 279.704,123.472 "/>
<polyline clip-path="url(#clip630)" style="stroke:#000000; stroke-linecap:round; stroke-linejoin:round; stroke-width:4; stroke-opacity:1; fill:none" points="279.704,1372.85 298.602,1372.85 "/>
<polyline clip-path="url(#clip630)" style="stroke:#000000; stroke-linecap:round; stroke-linejoin:round; stroke-width:4; stroke-opacity:1; fill:none" points="279.704,1097.71 298.602,1097.71 "/>
<polyline clip-path="url(#clip630)" style="stroke:#000000; stroke-linecap:round; stroke-linejoin:round; stroke-width:4; stroke-opacity:1; fill:none" points="279.704,822.574 298.602,822.574 "/>
<polyline clip-path="url(#clip630)" style="stroke:#000000; stroke-linecap:round; stroke-linejoin:round; stroke-width:4; stroke-opacity:1; fill:none" points="279.704,547.438 298.602,547.438 "/>
<polyline clip-path="url(#clip630)" style="stroke:#000000; stroke-linecap:round; stroke-linejoin:round; stroke-width:4; stroke-opacity:1; fill:none" points="279.704,272.302 298.602,272.302 "/>
<path clip-path="url(#clip630)" d="M126.205 1358.64 Q122.593 1358.64 120.765 1362.21 Q118.959 1365.75 118.959 1372.88 Q118.959 1379.99 120.765 1383.55 Q122.593 1387.09 126.205 1387.09 Q129.839 1387.09 131.644 1383.55 Q133.473 1379.99 133.473 1372.88 Q133.473 1365.75 131.644 1362.21 Q129.839 1358.64 126.205 1358.64 M126.205 1354.94 Q132.015 1354.94 135.07 1359.55 Q138.149 1364.13 138.149 1372.88 Q138.149 1381.61 135.07 1386.21 Q132.015 1390.8 126.205 1390.8 Q120.394 1390.8 117.316 1386.21 Q114.26 1381.61 114.26 1372.88 Q114.26 1364.13 117.316 1359.55 Q120.394 1354.94 126.205 1354.94 Z" fill="#000000" fill-rule="nonzero" fill-opacity="1" /><path clip-path="url(#clip630)" d="M146.366 1384.25 L151.251 1384.25 L151.251 1390.13 L146.366 1390.13 L146.366 1384.25 Z" fill="#000000" fill-rule="nonzero" fill-opacity="1" /><path clip-path="url(#clip630)" d="M162.246 1386.19 L169.885 1386.19 L169.885 1359.82 L161.575 1361.49 L161.575 1357.23 L169.839 1355.57 L174.514 1355.57 L174.514 1386.19 L182.153 1386.19 L182.153 1390.13 L162.246 1390.13 L162.246 1386.19 Z" fill="#000000" fill-rule="nonzero" fill-opacity="1" /><path clip-path="url(#clip630)" d="M195.625 1386.19 L211.945 1386.19 L211.945 1390.13 L190 1390.13 L190 1386.19 Q192.663 1383.44 197.246 1378.81 Q201.852 1374.15 203.033 1372.81 Q205.278 1370.29 206.158 1368.55 Q207.061 1366.79 207.061 1365.1 Q207.061 1362.35 205.116 1360.61 Q203.195 1358.88 200.093 1358.88 Q197.894 1358.88 195.44 1359.64 Q193.01 1360.4 190.232 1361.95 L190.232 1357.23 Q193.056 1356.1 195.51 1355.52 Q197.963 1354.94 200 1354.94 Q205.371 1354.94 208.565 1357.63 Q211.76 1360.31 211.76 1364.8 Q211.76 1366.93 210.949 1368.85 Q210.162 1370.75 208.056 1373.34 Q207.477 1374.01 204.375 1377.23 Q201.274 1380.43 195.625 1386.19 Z" fill="#000000" fill-rule="nonzero" fill-opacity="1" /><path clip-path="url(#clip630)" d="M231.76 1358.64 Q228.148 1358.64 226.32 1362.21 Q224.514 1365.75 224.514 1372.88 Q224.514 1379.99 226.32 1383.55 Q228.148 1387.09 231.76 1387.09 Q235.394 1387.09 237.199 1383.55 Q239.028 1379.99 239.028 1372.88 Q239.028 1365.75 237.199 1362.21 Q235.394 1358.64 231.76 1358.64 M231.76 1354.94 Q237.57 1354.94 240.625 1359.55 Q243.704 1364.13 243.704 1372.88 Q243.704 1381.61 240.625 1386.21 Q237.57 1390.8 231.76 1390.8 Q225.949 1390.8 222.871 1386.21 Q219.815 1381.61 219.815 1372.88 Q219.815 1364.13 222.871 1359.55 Q225.949 1354.94 231.76 1354.94 Z" fill="#000000" fill-rule="nonzero" fill-opacity="1" /><path clip-path="url(#clip630)" d="M127.2 1083.51 Q123.589 1083.51 121.76 1087.07 Q119.955 1090.61 119.955 1097.74 Q119.955 1104.85 121.76 1108.42 Q123.589 1111.96 127.2 1111.96 Q130.834 1111.96 132.64 1108.42 Q134.468 1104.85 134.468 1097.74 Q134.468 1090.61 132.64 1087.07 Q130.834 1083.51 127.2 1083.51 M127.2 1079.8 Q133.01 1079.8 136.066 1084.41 Q139.144 1088.99 139.144 1097.74 Q139.144 1106.47 136.066 1111.08 Q133.01 1115.66 127.2 1115.66 Q121.39 1115.66 118.311 1111.08 Q115.256 1106.47 115.256 1097.74 Q115.256 1088.99 118.311 1084.41 Q121.39 1079.8 127.2 1079.8 Z" fill="#000000" fill-rule="nonzero" fill-opacity="1" /><path clip-path="url(#clip630)" d="M147.362 1109.11 L152.246 1109.11 L152.246 1114.99 L147.362 1114.99 L147.362 1109.11 Z" fill="#000000" fill-rule="nonzero" fill-opacity="1" /><path clip-path="url(#clip630)" d="M163.241 1111.05 L170.88 1111.05 L170.88 1084.69 L162.57 1086.36 L162.57 1082.1 L170.834 1080.43 L175.51 1080.43 L175.51 1111.05 L183.149 1111.05 L183.149 1114.99 L163.241 1114.99 L163.241 1111.05 Z" fill="#000000" fill-rule="nonzero" fill-opacity="1" /><path clip-path="url(#clip630)" d="M196.621 1111.05 L212.94 1111.05 L212.94 1114.99 L190.996 1114.99 L190.996 1111.05 Q193.658 1108.3 198.241 1103.67 Q202.848 1099.02 204.028 1097.67 Q206.274 1095.15 207.153 1093.42 Q208.056 1091.66 208.056 1089.97 Q208.056 1087.21 206.112 1085.48 Q204.19 1083.74 201.088 1083.74 Q198.889 1083.74 196.436 1084.5 Q194.005 1085.27 191.227 1086.82 L191.227 1082.1 Q194.051 1080.96 196.505 1080.38 Q198.959 1079.8 200.996 1079.8 Q206.366 1079.8 209.561 1082.49 Q212.755 1085.17 212.755 1089.67 Q212.755 1091.8 211.945 1093.72 Q211.158 1095.61 209.051 1098.21 Q208.473 1098.88 205.371 1102.1 Q202.269 1105.29 196.621 1111.05 Z" fill="#000000" fill-rule="nonzero" fill-opacity="1" /><path clip-path="url(#clip630)" d="M222.801 1080.43 L241.158 1080.43 L241.158 1084.36 L227.084 1084.36 L227.084 1092.84 Q228.102 1092.49 229.121 1092.33 Q230.139 1092.14 231.158 1092.14 Q236.945 1092.14 240.324 1095.31 Q243.704 1098.49 243.704 1103.9 Q243.704 1109.48 240.232 1112.58 Q236.76 1115.66 230.44 1115.66 Q228.264 1115.66 225.996 1115.29 Q223.75 1114.92 221.343 1114.18 L221.343 1109.48 Q223.426 1110.61 225.648 1111.17 Q227.871 1111.73 230.347 1111.73 Q234.352 1111.73 236.69 1109.62 Q239.028 1107.51 239.028 1103.9 Q239.028 1100.29 236.69 1098.18 Q234.352 1096.08 230.347 1096.08 Q228.473 1096.08 226.598 1096.49 Q224.746 1096.91 222.801 1097.79 L222.801 1080.43 Z" fill="#000000" fill-rule="nonzero" fill-opacity="1" /><path clip-path="url(#clip630)" d="M126.205 808.372 Q122.593 808.372 120.765 811.937 Q118.959 815.479 118.959 822.608 Q118.959 829.715 120.765 833.28 Q122.593 836.821 126.205 836.821 Q129.839 836.821 131.644 833.28 Q133.473 829.715 133.473 822.608 Q133.473 815.479 131.644 811.937 Q129.839 808.372 126.205 808.372 M126.205 804.669 Q132.015 804.669 135.07 809.275 Q138.149 813.858 138.149 822.608 Q138.149 831.335 135.07 835.942 Q132.015 840.525 126.205 840.525 Q120.394 840.525 117.316 835.942 Q114.26 831.335 114.26 822.608 Q114.26 813.858 117.316 809.275 Q120.394 804.669 126.205 804.669 Z" fill="#000000" fill-rule="nonzero" fill-opacity="1" /><path clip-path="url(#clip630)" d="M146.366 833.974 L151.251 833.974 L151.251 839.854 L146.366 839.854 L146.366 833.974 Z" fill="#000000" fill-rule="nonzero" fill-opacity="1" /><path clip-path="url(#clip630)" d="M162.246 835.919 L169.885 835.919 L169.885 809.553 L161.575 811.22 L161.575 806.96 L169.839 805.294 L174.514 805.294 L174.514 835.919 L182.153 835.919 L182.153 839.854 L162.246 839.854 L162.246 835.919 Z" fill="#000000" fill-rule="nonzero" fill-opacity="1" /><path clip-path="url(#clip630)" d="M205.764 821.22 Q209.121 821.937 210.996 824.206 Q212.894 826.474 212.894 829.807 Q212.894 834.923 209.375 837.724 Q205.857 840.525 199.375 840.525 Q197.2 840.525 194.885 840.085 Q192.593 839.668 190.139 838.812 L190.139 834.298 Q192.084 835.432 194.399 836.011 Q196.713 836.59 199.237 836.59 Q203.635 836.59 205.926 834.854 Q208.241 833.118 208.241 829.807 Q208.241 826.752 206.088 825.039 Q203.959 823.303 200.139 823.303 L196.112 823.303 L196.112 819.46 L200.325 819.46 Q203.774 819.46 205.602 818.095 Q207.431 816.706 207.431 814.113 Q207.431 811.451 205.533 810.039 Q203.658 808.604 200.139 808.604 Q198.218 808.604 196.019 809.021 Q193.82 809.437 191.181 810.317 L191.181 806.15 Q193.843 805.409 196.158 805.039 Q198.496 804.669 200.556 804.669 Q205.88 804.669 208.982 807.099 Q212.084 809.507 212.084 813.627 Q212.084 816.497 210.44 818.488 Q208.797 820.456 205.764 821.22 Z" fill="#000000" fill-rule="nonzero" fill-opacity="1" /><path clip-path="url(#clip630)" d="M231.76 808.372 Q228.148 808.372 226.32 811.937 Q224.514 815.479 224.514 822.608 Q224.514 829.715 226.32 833.28 Q228.148 836.821 231.76 836.821 Q235.394 836.821 237.199 833.28 Q239.028 829.715 239.028 822.608 Q239.028 815.479 237.199 811.937 Q235.394 808.372 231.76 808.372 M231.76 804.669 Q237.57 804.669 240.625 809.275 Q243.704 813.858 243.704 822.608 Q243.704 831.335 240.625 835.942 Q237.57 840.525 231.76 840.525 Q225.949 840.525 222.871 835.942 Q219.815 831.335 219.815 822.608 Q219.815 813.858 222.871 809.275 Q225.949 804.669 231.76 804.669 Z" fill="#000000" fill-rule="nonzero" fill-opacity="1" /><path clip-path="url(#clip630)" d="M127.2 533.236 Q123.589 533.236 121.76 536.801 Q119.955 540.343 119.955 547.472 Q119.955 554.579 121.76 558.144 Q123.589 561.685 127.2 561.685 Q130.834 561.685 132.64 558.144 Q134.468 554.579 134.468 547.472 Q134.468 540.343 132.64 536.801 Q130.834 533.236 127.2 533.236 M127.2 529.533 Q133.01 529.533 136.066 534.139 Q139.144 538.723 139.144 547.472 Q139.144 556.199 136.066 560.806 Q133.01 565.389 127.2 565.389 Q121.39 565.389 118.311 560.806 Q115.256 556.199 115.256 547.472 Q115.256 538.723 118.311 534.139 Q121.39 529.533 127.2 529.533 Z" fill="#000000" fill-rule="nonzero" fill-opacity="1" /><path clip-path="url(#clip630)" d="M147.362 558.838 L152.246 558.838 L152.246 564.718 L147.362 564.718 L147.362 558.838 Z" fill="#000000" fill-rule="nonzero" fill-opacity="1" /><path clip-path="url(#clip630)" d="M163.241 560.783 L170.88 560.783 L170.88 534.417 L162.57 536.084 L162.57 531.824 L170.834 530.158 L175.51 530.158 L175.51 560.783 L183.149 560.783 L183.149 564.718 L163.241 564.718 L163.241 560.783 Z" fill="#000000" fill-rule="nonzero" fill-opacity="1" /><path clip-path="url(#clip630)" d="M206.76 546.084 Q210.116 546.801 211.991 549.07 Q213.889 551.338 213.889 554.672 Q213.889 559.787 210.371 562.588 Q206.852 565.389 200.371 565.389 Q198.195 565.389 195.88 564.949 Q193.588 564.533 191.135 563.676 L191.135 559.162 Q193.079 560.296 195.394 560.875 Q197.709 561.454 200.232 561.454 Q204.63 561.454 206.922 559.718 Q209.237 557.982 209.237 554.672 Q209.237 551.616 207.084 549.903 Q204.954 548.167 201.135 548.167 L197.107 548.167 L197.107 544.324 L201.32 544.324 Q204.769 544.324 206.598 542.959 Q208.426 541.57 208.426 538.977 Q208.426 536.315 206.528 534.903 Q204.653 533.468 201.135 533.468 Q199.213 533.468 197.014 533.885 Q194.815 534.301 192.176 535.181 L192.176 531.014 Q194.838 530.273 197.153 529.903 Q199.491 529.533 201.551 529.533 Q206.875 529.533 209.977 531.963 Q213.079 534.371 213.079 538.491 Q213.079 541.361 211.436 543.352 Q209.792 545.32 206.76 546.084 Z" fill="#000000" fill-rule="nonzero" fill-opacity="1" /><path clip-path="url(#clip630)" d="M222.801 530.158 L241.158 530.158 L241.158 534.093 L227.084 534.093 L227.084 542.565 Q228.102 542.218 229.121 542.056 Q230.139 541.871 231.158 541.871 Q236.945 541.871 240.324 545.042 Q243.704 548.213 243.704 553.63 Q243.704 559.209 240.232 562.31 Q236.76 565.389 230.44 565.389 Q228.264 565.389 225.996 565.019 Q223.75 564.648 221.343 563.908 L221.343 559.209 Q223.426 560.343 225.648 560.898 Q227.871 561.454 230.347 561.454 Q234.352 561.454 236.69 559.347 Q239.028 557.241 239.028 553.63 Q239.028 550.019 236.69 547.912 Q234.352 545.806 230.347 545.806 Q228.473 545.806 226.598 546.222 Q224.746 546.639 222.801 547.519 L222.801 530.158 Z" fill="#000000" fill-rule="nonzero" fill-opacity="1" /><path clip-path="url(#clip630)" d="M126.205 258.101 Q122.593 258.101 120.765 261.665 Q118.959 265.207 118.959 272.337 Q118.959 279.443 120.765 283.008 Q122.593 286.549 126.205 286.549 Q129.839 286.549 131.644 283.008 Q133.473 279.443 133.473 272.337 Q133.473 265.207 131.644 261.665 Q129.839 258.101 126.205 258.101 M126.205 254.397 Q132.015 254.397 135.07 259.003 Q138.149 263.587 138.149 272.337 Q138.149 281.063 135.07 285.67 Q132.015 290.253 126.205 290.253 Q120.394 290.253 117.316 285.67 Q114.26 281.063 114.26 272.337 Q114.26 263.587 117.316 259.003 Q120.394 254.397 126.205 254.397 Z" fill="#000000" fill-rule="nonzero" fill-opacity="1" /><path clip-path="url(#clip630)" d="M146.366 283.702 L151.251 283.702 L151.251 289.582 L146.366 289.582 L146.366 283.702 Z" fill="#000000" fill-rule="nonzero" fill-opacity="1" /><path clip-path="url(#clip630)" d="M162.246 285.647 L169.885 285.647 L169.885 259.281 L161.575 260.948 L161.575 256.688 L169.839 255.022 L174.514 255.022 L174.514 285.647 L182.153 285.647 L182.153 289.582 L162.246 289.582 L162.246 285.647 Z" fill="#000000" fill-rule="nonzero" fill-opacity="1" /><path clip-path="url(#clip630)" d="M204.445 259.096 L192.639 277.545 L204.445 277.545 L204.445 259.096 M203.218 255.022 L209.098 255.022 L209.098 277.545 L214.028 277.545 L214.028 281.434 L209.098 281.434 L209.098 289.582 L204.445 289.582 L204.445 281.434 L188.843 281.434 L188.843 276.92 L203.218 255.022 Z" fill="#000000" fill-rule="nonzero" fill-opacity="1" /><path clip-path="url(#clip630)" d="M231.76 258.101 Q228.148 258.101 226.32 261.665 Q224.514 265.207 224.514 272.337 Q224.514 279.443 226.32 283.008 Q228.148 286.549 231.76 286.549 Q235.394 286.549 237.199 283.008 Q239.028 279.443 239.028 272.337 Q239.028 265.207 237.199 261.665 Q235.394 258.101 231.76 258.101 M231.76 254.397 Q237.57 254.397 240.625 259.003 Q243.704 263.587 243.704 272.337 Q243.704 281.063 240.625 285.67 Q237.57 290.253 231.76 290.253 Q225.949 290.253 222.871 285.67 Q219.815 281.063 219.815 272.337 Q219.815 263.587 222.871 259.003 Q225.949 254.397 231.76 254.397 Z" fill="#000000" fill-rule="nonzero" fill-opacity="1" /><path clip-path="url(#clip630)" d="M16.4842 995.903 L16.4842 955.703 L21.895 955.703 L21.895 972.573 L64.0042 972.573 L64.0042 979.034 L21.895 979.034 L21.895 995.903 L16.4842 995.903 Z" fill="#000000" fill-rule="nonzero" fill-opacity="1" /><path clip-path="url(#clip630)" d="M33.8307 938.675 Q33.2578 939.662 33.0032 940.84 Q32.7167 941.985 32.7167 943.386 Q32.7167 948.351 35.9632 951.025 Q39.1779 953.666 45.2253 953.666 L64.0042 953.666 L64.0042 959.555 L28.3562 959.555 L28.3562 953.666 L33.8944 953.666 Q30.6479 951.82 29.0883 948.86 Q27.4968 945.9 27.4968 941.667 Q27.4968 941.062 27.5923 940.33 Q27.656 939.598 27.8151 938.707 L33.8307 938.675 Z" fill="#000000" fill-rule="nonzero" fill-opacity="1" /><path clip-path="url(#clip630)" d="M46.0847 916.332 Q46.0847 923.429 47.7079 926.167 Q49.3312 928.904 53.2461 928.904 Q56.3653 928.904 58.2114 926.867 Q60.0256 924.798 60.0256 921.265 Q60.0256 916.395 56.5881 913.467 Q53.1188 910.507 47.3897 910.507 L46.0847 910.507 L46.0847 916.332 M43.6657 904.651 L64.0042 904.651 L64.0042 910.507 L58.5933 910.507 Q61.8398 912.512 63.3994 915.504 Q64.9272 918.496 64.9272 922.825 Q64.9272 928.299 61.8716 931.546 Q58.7843 934.76 53.6281 934.76 Q47.6125 934.76 44.5569 930.75 Q41.5014 926.708 41.5014 918.719 L41.5014 910.507 L40.9285 910.507 Q36.8862 910.507 34.6901 913.181 Q32.4621 915.822 32.4621 920.628 Q32.4621 923.684 33.1941 926.58 Q33.9262 929.477 35.3903 932.15 L29.9795 932.15 Q28.7381 928.936 28.1334 925.912 Q27.4968 922.888 27.4968 920.024 Q27.4968 912.289 31.5072 908.47 Q35.5176 904.651 43.6657 904.651 Z" fill="#000000" fill-rule="nonzero" fill-opacity="1" /><path clip-path="url(#clip630)" d="M28.3562 892.587 L28.3562 886.731 L64.6407 886.731 Q71.452 886.731 74.5076 889.341 Q77.5631 891.919 77.5631 897.68 L77.5631 899.908 L72.5979 899.908 L72.5979 898.348 Q72.5979 895.006 71.0383 893.797 Q69.5105 892.587 64.6407 892.587 L28.3562 892.587 M14.479 892.587 L14.479 886.731 L21.895 886.731 L21.895 892.587 L14.479 892.587 Z" fill="#000000" fill-rule="nonzero" fill-opacity="1" /><path clip-path="url(#clip630)" d="M44.7161 843.985 L47.5806 843.985 L47.5806 870.912 Q53.6281 870.53 56.8109 867.284 Q59.9619 864.005 59.9619 858.181 Q59.9619 854.807 59.1344 851.656 Q58.3069 848.473 56.6518 845.354 L62.1899 845.354 Q63.5267 848.505 64.227 851.815 Q64.9272 855.125 64.9272 858.531 Q64.9272 867.061 59.9619 872.058 Q54.9967 877.023 46.5303 877.023 Q37.7774 877.023 32.6531 872.313 Q27.4968 867.57 27.4968 859.549 Q27.4968 852.356 32.1438 848.187 Q36.7589 843.985 44.7161 843.985 M42.9973 849.842 Q38.1912 849.905 35.3266 852.547 Q32.4621 855.157 32.4621 859.486 Q32.4621 864.387 35.2312 867.347 Q38.0002 870.276 43.0292 870.721 L42.9973 849.842 Z" fill="#000000" fill-rule="nonzero" fill-opacity="1" /><path clip-path="url(#clip630)" d="M29.7248 808.719 L35.1993 808.719 Q33.8307 811.202 33.1623 813.716 Q32.4621 816.199 32.4621 818.745 Q32.4621 824.443 36.0905 827.594 Q39.6872 830.745 46.212 830.745 Q52.7369 830.745 56.3653 827.594 Q59.9619 824.443 59.9619 818.745 Q59.9619 816.199 59.2935 813.716 Q58.5933 811.202 57.2247 808.719 L62.6355 808.719 Q63.7814 811.17 64.3543 813.812 Q64.9272 816.422 64.9272 819.382 Q64.9272 827.434 59.8664 832.177 Q54.8057 836.919 46.212 836.919 Q37.491 836.919 32.4939 832.145 Q27.4968 827.339 27.4968 819 Q27.4968 816.295 28.0697 813.716 Q28.6108 811.138 29.7248 808.719 Z" fill="#000000" fill-rule="nonzero" fill-opacity="1" /><path clip-path="url(#clip630)" d="M18.2347 792.741 L28.3562 792.741 L28.3562 780.678 L32.9077 780.678 L32.9077 792.741 L52.2594 792.741 Q56.6199 792.741 57.8613 791.564 Q59.1026 790.354 59.1026 786.694 L59.1026 780.678 L64.0042 780.678 L64.0042 786.694 Q64.0042 793.473 61.4897 796.052 Q58.9434 798.63 52.2594 798.63 L32.9077 798.63 L32.9077 802.927 L28.3562 802.927 L28.3562 798.63 L18.2347 798.63 L18.2347 792.741 Z" fill="#000000" fill-rule="nonzero" fill-opacity="1" /><path clip-path="url(#clip630)" d="M32.4621 759.162 Q32.4621 763.873 36.1542 766.61 Q39.8145 769.347 46.212 769.347 Q52.6095 769.347 56.3017 766.642 Q59.9619 763.905 59.9619 759.162 Q59.9619 754.483 56.2698 751.746 Q52.5777 749.009 46.212 749.009 Q39.8781 749.009 36.186 751.746 Q32.4621 754.483 32.4621 759.162 M27.4968 759.162 Q27.4968 751.523 32.4621 747.163 Q37.4273 742.802 46.212 742.802 Q54.9649 742.802 59.9619 747.163 Q64.9272 751.523 64.9272 759.162 Q64.9272 766.833 59.9619 771.193 Q54.9649 775.522 46.212 775.522 Q37.4273 775.522 32.4621 771.193 Q27.4968 766.833 27.4968 759.162 Z" fill="#000000" fill-rule="nonzero" fill-opacity="1" /><path clip-path="url(#clip630)" d="M33.8307 712.438 Q33.2578 713.425 33.0032 714.602 Q32.7167 715.748 32.7167 717.149 Q32.7167 722.114 35.9632 724.787 Q39.1779 727.429 45.2253 727.429 L64.0042 727.429 L64.0042 733.318 L28.3562 733.318 L28.3562 727.429 L33.8944 727.429 Q30.6479 725.583 29.0883 722.623 Q27.4968 719.663 27.4968 715.43 Q27.4968 714.825 27.5923 714.093 Q27.656 713.361 27.8151 712.47 L33.8307 712.438 Z" fill="#000000" fill-rule="nonzero" fill-opacity="1" /><path clip-path="url(#clip630)" d="M67.3143 691.463 Q73.68 693.946 75.6216 696.301 Q77.5631 698.656 77.5631 702.603 L77.5631 707.282 L72.6615 707.282 L72.6615 703.844 Q72.6615 701.425 71.5157 700.089 Q70.3699 698.752 66.1048 697.128 L63.4312 696.078 L28.3562 710.496 L28.3562 704.29 L56.238 693.15 L28.3562 682.01 L28.3562 675.803 L67.3143 691.463 Z" fill="#000000" fill-rule="nonzero" fill-opacity="1" /><path clip-path="url(#clip630)" d="M18.0438 618.257 L24.314 618.257 Q22.5634 621.918 21.704 625.164 Q20.8447 628.411 20.8447 631.434 Q20.8447 636.686 22.8817 639.551 Q24.9187 642.383 28.6745 642.383 Q31.8255 642.383 33.4488 640.506 Q35.0402 638.596 36.0269 633.312 L36.8226 629.429 Q38.1912 622.236 41.6605 618.83 Q45.098 615.393 50.8908 615.393 Q57.7976 615.393 61.3624 620.04 Q64.9272 624.655 64.9272 633.599 Q64.9272 636.973 64.1633 640.792 Q63.3994 644.58 61.9035 648.654 L55.2831 648.654 Q57.4793 644.739 58.5933 640.983 Q59.7073 637.227 59.7073 633.599 Q59.7073 628.092 57.543 625.101 Q55.3786 622.109 51.3682 622.109 Q47.8671 622.109 45.8937 624.273 Q43.9204 626.405 42.9337 631.307 L42.1698 635.222 Q40.7375 642.415 37.682 645.63 Q34.6264 648.845 29.1837 648.845 Q22.8817 648.845 19.2532 644.42 Q15.6248 639.964 15.6248 632.166 Q15.6248 628.824 16.2295 625.355 Q16.8343 621.886 18.0438 618.257 Z" fill="#000000" fill-rule="nonzero" fill-opacity="1" /><path clip-path="url(#clip630)" d="M18.2347 599.829 L28.3562 599.829 L28.3562 587.766 L32.9077 587.766 L32.9077 599.829 L52.2594 599.829 Q56.6199 599.829 57.8613 598.651 Q59.1026 597.442 59.1026 593.781 L59.1026 587.766 L64.0042 587.766 L64.0042 593.781 Q64.0042 600.561 61.4897 603.139 Q58.9434 605.717 52.2594 605.717 L32.9077 605.717 L32.9077 610.014 L28.3562 610.014 L28.3562 605.717 L18.2347 605.717 L18.2347 599.829 Z" fill="#000000" fill-rule="nonzero" fill-opacity="1" /><path clip-path="url(#clip630)" d="M33.7671 556.606 L14.479 556.606 L14.479 550.749 L64.0042 550.749 L64.0042 556.606 L58.657 556.606 Q61.8398 558.452 63.3994 561.284 Q64.9272 564.085 64.9272 568.032 Q64.9272 574.493 59.771 578.567 Q54.6147 582.609 46.212 582.609 Q37.8093 582.609 32.6531 578.567 Q27.4968 574.493 27.4968 568.032 Q27.4968 564.085 29.0564 561.284 Q30.5842 558.452 33.7671 556.606 M46.212 576.562 Q52.6732 576.562 56.3653 573.92 Q60.0256 571.247 60.0256 566.6 Q60.0256 561.953 56.3653 559.279 Q52.6732 556.606 46.212 556.606 Q39.7508 556.606 36.0905 559.279 Q32.3984 561.953 32.3984 566.6 Q32.3984 571.247 36.0905 573.92 Q39.7508 576.562 46.212 576.562 Z" fill="#000000" fill-rule="nonzero" fill-opacity="1" /><path clip-path="url(#clip630)" d="M808.692 14.0809 L808.692 22.0612 Q804.034 19.8332 799.902 18.7395 Q795.77 17.6457 791.921 17.6457 Q785.237 17.6457 781.592 20.2383 Q777.986 22.8309 777.986 27.611 Q777.986 31.6214 780.376 33.6873 Q782.807 35.7128 789.531 36.9686 L794.473 37.9813 Q803.628 39.7232 807.963 44.1387 Q812.338 48.5136 812.338 55.8863 Q812.338 64.6767 806.424 69.2137 Q800.55 73.7508 789.167 73.7508 Q784.873 73.7508 780.012 72.7785 Q775.191 71.8063 770.006 69.9024 L770.006 61.4765 Q774.989 64.2716 779.769 65.6895 Q784.549 67.1073 789.167 67.1073 Q796.175 67.1073 799.983 64.3527 Q803.791 61.598 803.791 56.4939 Q803.791 52.0379 801.036 49.5264 Q798.322 47.0148 792.083 45.759 L787.101 44.7868 Q777.946 42.9639 773.854 39.075 Q769.763 35.1862 769.763 28.2591 Q769.763 20.2383 775.394 15.6203 Q781.065 11.0023 790.99 11.0023 Q795.243 11.0023 799.659 11.7719 Q804.074 12.5416 808.692 14.0809 Z" fill="#000000" fill-rule="nonzero" fill-opacity="1" /><path clip-path="url(#clip630)" d="M832.147 14.324 L832.147 27.2059 L847.5 27.2059 L847.5 32.9987 L832.147 32.9987 L832.147 57.6282 Q832.147 63.1779 833.646 64.7578 Q835.185 66.3376 839.844 66.3376 L847.5 66.3376 L847.5 72.576 L839.844 72.576 Q831.215 72.576 827.934 69.3758 Q824.653 66.1351 824.653 57.6282 L824.653 32.9987 L819.184 32.9987 L819.184 27.2059 L824.653 27.2059 L824.653 14.324 L832.147 14.324 Z" fill="#000000" fill-rule="nonzero" fill-opacity="1" /><path clip-path="url(#clip630)" d="M877.922 49.7694 Q868.889 49.7694 865.405 51.8354 Q861.921 53.9013 861.921 58.8839 Q861.921 62.8538 864.514 65.2034 Q867.147 67.5124 871.643 67.5124 Q877.841 67.5124 881.568 63.1374 Q885.335 58.7219 885.335 51.4303 L885.335 49.7694 L877.922 49.7694 M892.789 46.6907 L892.789 72.576 L885.335 72.576 L885.335 65.6895 Q882.783 69.8214 878.975 71.8063 Q875.167 73.7508 869.658 73.7508 Q862.691 73.7508 858.559 69.8619 Q854.467 65.9325 854.467 59.3701 Q854.467 51.7138 859.571 47.825 Q864.716 43.9361 874.884 43.9361 L885.335 43.9361 L885.335 43.2069 Q885.335 38.0623 881.932 35.2672 Q878.57 32.4315 872.453 32.4315 Q868.564 32.4315 864.878 33.3632 Q861.192 34.295 857.789 36.1584 L857.789 29.2718 Q861.88 27.692 865.729 26.9223 Q869.577 26.1121 873.223 26.1121 Q883.067 26.1121 887.928 31.2163 Q892.789 36.3204 892.789 46.6907 Z" fill="#000000" fill-rule="nonzero" fill-opacity="1" /><path clip-path="url(#clip630)" d="M940.711 49.9314 Q940.711 41.7081 937.308 37.0496 Q933.946 32.3505 928.032 32.3505 Q922.117 32.3505 918.715 37.0496 Q915.352 41.7081 915.352 49.9314 Q915.352 58.1548 918.715 62.8538 Q922.117 67.5124 928.032 67.5124 Q933.946 67.5124 937.308 62.8538 Q940.711 58.1548 940.711 49.9314 M915.352 34.0924 Q917.702 30.0415 921.267 28.0971 Q924.872 26.1121 929.855 26.1121 Q938.119 26.1121 943.263 32.6746 Q948.448 39.2371 948.448 49.9314 Q948.448 60.6258 943.263 67.1883 Q938.119 73.7508 929.855 73.7508 Q924.872 73.7508 921.267 71.8063 Q917.702 69.8214 915.352 65.7705 L915.352 72.576 L907.858 72.576 L907.858 9.54393 L915.352 9.54393 L915.352 34.0924 Z" fill="#000000" fill-rule="nonzero" fill-opacity="1" /><path clip-path="url(#clip630)" d="M960.804 27.2059 L968.257 27.2059 L968.257 72.576 L960.804 72.576 L960.804 27.2059 M960.804 9.54393 L968.257 9.54393 L968.257 18.9825 L960.804 18.9825 L960.804 9.54393 Z" fill="#000000" fill-rule="nonzero" fill-opacity="1" /><path clip-path="url(#clip630)" d="M983.853 9.54393 L991.307 9.54393 L991.307 72.576 L983.853 72.576 L983.853 9.54393 Z" fill="#000000" fill-rule="nonzero" fill-opacity="1" /><path clip-path="url(#clip630)" d="M1006.9 27.2059 L1014.36 27.2059 L1014.36 72.576 L1006.9 72.576 L1006.9 27.2059 M1006.9 9.54393 L1014.36 9.54393 L1014.36 18.9825 L1006.9 18.9825 L1006.9 9.54393 Z" fill="#000000" fill-rule="nonzero" fill-opacity="1" /><path clip-path="url(#clip630)" d="M1037.33 14.324 L1037.33 27.2059 L1052.68 27.2059 L1052.68 32.9987 L1037.33 32.9987 L1037.33 57.6282 Q1037.33 63.1779 1038.82 64.7578 Q1040.36 66.3376 1045.02 66.3376 L1052.68 66.3376 L1052.68 72.576 L1045.02 72.576 Q1036.39 72.576 1033.11 69.3758 Q1029.83 66.1351 1029.83 57.6282 L1029.83 32.9987 L1024.36 32.9987 L1024.36 27.2059 L1029.83 27.2059 L1029.83 14.324 L1037.33 14.324 Z" fill="#000000" fill-rule="nonzero" fill-opacity="1" /><path clip-path="url(#clip630)" d="M1081.36 76.7889 Q1078.2 84.8907 1075.2 87.3618 Q1072.2 89.8329 1067.18 89.8329 L1061.23 89.8329 L1061.23 83.5945 L1065.6 83.5945 Q1068.68 83.5945 1070.38 82.1361 Q1072.08 80.6778 1074.15 75.2496 L1075.48 71.8468 L1057.13 27.2059 L1065.03 27.2059 L1079.21 62.6918 L1093.39 27.2059 L1101.29 27.2059 L1081.36 76.7889 Z" fill="#000000" fill-rule="nonzero" fill-opacity="1" /><path clip-path="url(#clip630)" d="M1146.46 43.6931 L1146.46 65.8515 L1159.58 65.8515 Q1166.18 65.8515 1169.34 63.1374 Q1172.54 60.3828 1172.54 54.752 Q1172.54 49.0808 1169.34 46.4072 Q1166.18 43.6931 1159.58 43.6931 L1146.46 43.6931 M1146.46 18.8205 L1146.46 37.0496 L1158.57 37.0496 Q1164.56 37.0496 1167.48 34.8216 Q1170.44 32.5531 1170.44 27.935 Q1170.44 23.3575 1167.48 21.089 Q1164.56 18.8205 1158.57 18.8205 L1146.46 18.8205 M1138.27 12.096 L1159.18 12.096 Q1168.53 12.096 1173.6 15.9849 Q1178.66 19.8737 1178.66 27.0438 Q1178.66 32.5936 1176.07 35.8748 Q1173.48 39.156 1168.45 39.9662 Q1174.49 41.2625 1177.81 45.3944 Q1181.17 49.4858 1181.17 55.6432 Q1181.17 63.745 1175.66 68.1605 Q1170.15 72.576 1159.99 72.576 L1138.27 72.576 L1138.27 12.096 Z" fill="#000000" fill-rule="nonzero" fill-opacity="1" /><path clip-path="url(#clip630)" d="M1194.86 27.2059 L1202.32 27.2059 L1202.32 72.576 L1194.86 72.576 L1194.86 27.2059 M1194.86 9.54393 L1202.32 9.54393 L1202.32 18.9825 L1194.86 18.9825 L1194.86 9.54393 Z" fill="#000000" fill-rule="nonzero" fill-opacity="1" /><path clip-path="url(#clip630)" d="M1240.88 9.54393 L1240.88 15.7418 L1233.75 15.7418 Q1229.74 15.7418 1228.16 17.3622 Q1226.62 18.9825 1226.62 23.1955 L1226.62 27.2059 L1238.9 27.2059 L1238.9 32.9987 L1226.62 32.9987 L1226.62 72.576 L1219.13 72.576 L1219.13 32.9987 L1212 32.9987 L1212 27.2059 L1219.13 27.2059 L1219.13 24.0462 Q1219.13 16.471 1222.65 13.0277 Q1226.18 9.54393 1233.83 9.54393 L1240.88 9.54393 Z" fill="#000000" fill-rule="nonzero" fill-opacity="1" /><path clip-path="url(#clip630)" d="M1246.35 54.671 L1246.35 27.2059 L1253.81 27.2059 L1253.81 54.3874 Q1253.81 60.8284 1256.32 64.0691 Q1258.83 67.2693 1263.85 67.2693 Q1269.89 67.2693 1273.37 63.421 Q1276.9 59.5726 1276.9 52.9291 L1276.9 27.2059 L1284.35 27.2059 L1284.35 72.576 L1276.9 72.576 L1276.9 65.6084 Q1274.18 69.7404 1270.58 71.7658 Q1267.01 73.7508 1262.27 73.7508 Q1254.45 73.7508 1250.4 68.8897 Q1246.35 64.0286 1246.35 54.671 M1265.11 26.1121 L1265.11 26.1121 Z" fill="#000000" fill-rule="nonzero" fill-opacity="1" /><path clip-path="url(#clip630)" d="M1325.99 34.1734 Q1324.74 33.4443 1323.24 33.1202 Q1321.78 32.7556 1320 32.7556 Q1313.68 32.7556 1310.28 36.8875 Q1306.91 40.9789 1306.91 48.6757 L1306.91 72.576 L1299.42 72.576 L1299.42 27.2059 L1306.91 27.2059 L1306.91 34.2544 Q1309.26 30.1225 1313.03 28.1376 Q1316.8 26.1121 1322.18 26.1121 Q1322.95 26.1121 1323.89 26.2337 Q1324.82 26.3147 1325.95 26.5172 L1325.99 34.1734 Z" fill="#000000" fill-rule="nonzero" fill-opacity="1" /><path clip-path="url(#clip630)" d="M1364.64 28.9478 L1364.64 35.9153 Q1361.48 34.1734 1358.28 33.3227 Q1355.12 32.4315 1351.88 32.4315 Q1344.63 32.4315 1340.62 37.0496 Q1336.61 41.6271 1336.61 49.9314 Q1336.61 58.2358 1340.62 62.8538 Q1344.63 67.4314 1351.88 67.4314 Q1355.12 67.4314 1358.28 66.5807 Q1361.48 65.6895 1364.64 63.9476 L1364.64 70.8341 Q1361.52 72.2924 1358.16 73.0216 Q1354.84 73.7508 1351.07 73.7508 Q1340.82 73.7508 1334.78 67.3098 Q1328.75 60.8689 1328.75 49.9314 Q1328.75 38.832 1334.82 32.472 Q1340.94 26.1121 1351.55 26.1121 Q1355 26.1121 1358.28 26.8413 Q1361.56 27.5299 1364.64 28.9478 Z" fill="#000000" fill-rule="nonzero" fill-opacity="1" /><path clip-path="url(#clip630)" d="M1398.22 49.7694 Q1389.19 49.7694 1385.7 51.8354 Q1382.22 53.9013 1382.22 58.8839 Q1382.22 62.8538 1384.81 65.2034 Q1387.44 67.5124 1391.94 67.5124 Q1398.14 67.5124 1401.87 63.1374 Q1405.63 58.7219 1405.63 51.4303 L1405.63 49.7694 L1398.22 49.7694 M1413.09 46.6907 L1413.09 72.576 L1405.63 72.576 L1405.63 65.6895 Q1403.08 69.8214 1399.27 71.8063 Q1395.47 73.7508 1389.96 73.7508 Q1382.99 73.7508 1378.86 69.8619 Q1374.77 65.9325 1374.77 59.3701 Q1374.77 51.7138 1379.87 47.825 Q1385.01 43.9361 1395.18 43.9361 L1405.63 43.9361 L1405.63 43.2069 Q1405.63 38.0623 1402.23 35.2672 Q1398.87 32.4315 1392.75 32.4315 Q1388.86 32.4315 1385.18 33.3632 Q1381.49 34.295 1378.09 36.1584 L1378.09 29.2718 Q1382.18 27.692 1386.03 26.9223 Q1389.88 26.1121 1393.52 26.1121 Q1403.36 26.1121 1408.23 31.2163 Q1413.09 36.3204 1413.09 46.6907 Z" fill="#000000" fill-rule="nonzero" fill-opacity="1" /><path clip-path="url(#clip630)" d="M1435.81 14.324 L1435.81 27.2059 L1451.17 27.2059 L1451.17 32.9987 L1435.81 32.9987 L1435.81 57.6282 Q1435.81 63.1779 1437.31 64.7578 Q1438.85 66.3376 1443.51 66.3376 L1451.17 66.3376 L1451.17 72.576 L1443.51 72.576 Q1434.88 72.576 1431.6 69.3758 Q1428.32 66.1351 1428.32 57.6282 L1428.32 32.9987 L1422.85 32.9987 L1422.85 27.2059 L1428.32 27.2059 L1428.32 14.324 L1435.81 14.324 Z" fill="#000000" fill-rule="nonzero" fill-opacity="1" /><path clip-path="url(#clip630)" d="M1460.97 27.2059 L1468.42 27.2059 L1468.42 72.576 L1460.97 72.576 L1460.97 27.2059 M1460.97 9.54393 L1468.42 9.54393 L1468.42 18.9825 L1460.97 18.9825 L1460.97 9.54393 Z" fill="#000000" fill-rule="nonzero" fill-opacity="1" /><path clip-path="url(#clip630)" d="M1501.6 32.4315 Q1495.6 32.4315 1492.12 37.1306 Q1488.64 41.7891 1488.64 49.9314 Q1488.64 58.0738 1492.08 62.7728 Q1495.56 67.4314 1501.6 67.4314 Q1507.55 67.4314 1511.04 62.7323 Q1514.52 58.0333 1514.52 49.9314 Q1514.52 41.8701 1511.04 37.1711 Q1507.55 32.4315 1501.6 32.4315 M1501.6 26.1121 Q1511.32 26.1121 1516.87 32.4315 Q1522.42 38.7509 1522.42 49.9314 Q1522.42 61.0714 1516.87 67.4314 Q1511.32 73.7508 1501.6 73.7508 Q1491.84 73.7508 1486.29 67.4314 Q1480.78 61.0714 1480.78 49.9314 Q1480.78 38.7509 1486.29 32.4315 Q1491.84 26.1121 1501.6 26.1121 Z" fill="#000000" fill-rule="nonzero" fill-opacity="1" /><path clip-path="url(#clip630)" d="M1572.49 45.1919 L1572.49 72.576 L1565.04 72.576 L1565.04 45.4349 Q1565.04 38.994 1562.52 35.7938 Q1560.01 32.5936 1554.99 32.5936 Q1548.95 32.5936 1545.47 36.4419 Q1541.99 40.2903 1541.99 46.9338 L1541.99 72.576 L1534.49 72.576 L1534.49 27.2059 L1541.99 27.2059 L1541.99 34.2544 Q1544.66 30.163 1548.27 28.1376 Q1551.91 26.1121 1556.65 26.1121 Q1564.47 26.1121 1568.48 30.9732 Q1572.49 35.7938 1572.49 45.1919 Z" fill="#000000" fill-rule="nonzero" fill-opacity="1" /><path clip-path="url(#clip630)" d="M1589.26 62.2867 L1597.81 62.2867 L1597.81 72.576 L1589.26 72.576 L1589.26 62.2867 M1589.26 29.6769 L1597.81 29.6769 L1597.81 39.9662 L1589.26 39.9662 L1589.26 29.6769 Z" fill="#000000" fill-rule="nonzero" fill-opacity="1" /><path clip-path="url(#clip630)" d="M1633.62 12.096 L1684.78 12.096 L1684.78 18.9825 L1663.31 18.9825 L1663.31 72.576 L1655.09 72.576 L1655.09 18.9825 L1633.62 18.9825 L1633.62 12.096 Z" fill="#000000" fill-rule="nonzero" fill-opacity="1" /><path clip-path="url(#clip630)" d="M1689.8 27.2059 L1697.26 27.2059 L1697.26 72.576 L1689.8 72.576 L1689.8 27.2059 M1689.8 9.54393 L1697.26 9.54393 L1697.26 18.9825 L1689.8 18.9825 L1689.8 9.54393 Z" fill="#000000" fill-rule="nonzero" fill-opacity="1" /><path clip-path="url(#clip630)" d="M1751.66 48.0275 L1751.66 51.6733 L1717.39 51.6733 Q1717.88 59.3701 1722.01 63.421 Q1726.18 67.4314 1733.59 67.4314 Q1737.89 67.4314 1741.9 66.3781 Q1745.95 65.3249 1749.92 63.2184 L1749.92 70.267 Q1745.91 71.9684 1741.7 72.8596 Q1737.48 73.7508 1733.15 73.7508 Q1722.29 73.7508 1715.93 67.4314 Q1709.61 61.1119 1709.61 50.3365 Q1709.61 39.1965 1715.61 32.6746 Q1721.64 26.1121 1731.85 26.1121 Q1741.01 26.1121 1746.31 32.0264 Q1751.66 37.9003 1751.66 48.0275 M1744.21 45.84 Q1744.13 39.7232 1740.76 36.0774 Q1737.44 32.4315 1731.93 32.4315 Q1725.7 32.4315 1721.93 35.9558 Q1718.2 39.4801 1717.63 45.8805 L1744.21 45.84 Z" fill="#000000" fill-rule="nonzero" fill-opacity="1" /><path clip-path="url(#clip630)" d="M1790.19 34.1734 Q1788.93 33.4443 1787.43 33.1202 Q1785.97 32.7556 1784.19 32.7556 Q1777.87 32.7556 1774.47 36.8875 Q1771.11 40.9789 1771.11 48.6757 L1771.11 72.576 L1763.61 72.576 L1763.61 27.2059 L1771.11 27.2059 L1771.11 34.2544 Q1773.46 30.1225 1777.22 28.1376 Q1780.99 26.1121 1786.38 26.1121 Q1787.15 26.1121 1788.08 26.2337 Q1789.01 26.3147 1790.15 26.5172 L1790.19 34.1734 Z" fill="#000000" fill-rule="nonzero" fill-opacity="1" /><path clip-path="url(#clip630)" d="M1850.22 39.9662 Q1856.09 41.222 1859.38 45.1919 Q1862.7 49.1618 1862.7 54.9951 Q1862.7 63.9476 1856.54 68.8492 Q1850.38 73.7508 1839.04 73.7508 Q1835.23 73.7508 1831.18 72.9811 Q1827.17 72.2519 1822.88 70.7531 L1822.88 62.8538 Q1826.28 64.8388 1830.33 65.8515 Q1834.38 66.8642 1838.8 66.8642 Q1846.49 66.8642 1850.5 63.826 Q1854.55 60.7879 1854.55 54.9951 Q1854.55 49.6479 1850.79 46.6502 Q1847.06 43.612 1840.38 43.612 L1833.33 43.612 L1833.33 36.8875 L1840.7 36.8875 Q1846.74 36.8875 1849.94 34.4975 Q1853.14 32.067 1853.14 27.5299 Q1853.14 22.8714 1849.82 20.4004 Q1846.53 17.8888 1840.38 17.8888 Q1837.01 17.8888 1833.17 18.618 Q1829.32 19.3471 1824.7 20.8865 L1824.7 13.5948 Q1829.36 12.2985 1833.41 11.6504 Q1837.5 11.0023 1841.11 11.0023 Q1850.42 11.0023 1855.85 15.2557 Q1861.28 19.4686 1861.28 26.6793 Q1861.28 31.7024 1858.4 35.1862 Q1855.53 38.6294 1850.22 39.9662 Z" fill="#000000" fill-rule="nonzero" fill-opacity="1" /><polyline clip-path="url(#clip632)" style="stroke:#0000ff; stroke-linecap:round; stroke-linejoin:round; stroke-width:8; stroke-opacity:1; fill:none" points="338.375,160.256 387.268,750.504 436.161,927.805 485.053,1029.17 533.946,1091.18 582.839,1070.91 631.732,1106.17 680.624,1154.82 729.517,1247.39 778.41,1176.65 827.303,1170.64 876.195,956.133 925.088,1109.39 973.981,1177.67 1022.87,1166.91 1071.77,1216.77 1120.66,1189.57 1169.55,1306.13 1218.44,1348.09 1267.34,1331.07 1316.23,1383.95 1365.12,1386.4 1414.02,1355.66 1462.91,1327.09 1511.8,1359.24 1560.69,1378.22 1609.59,1329.54 1658.48,1291.54 1707.37,1277.84 1756.26,1318.58 1805.16,1297.29 1854.05,1283.18 1902.94,1272.52 1951.84,1228.37 2000.73,1228.58 2049.62,1206.48 2098.51,1215.03 2147.41,1259.08 2196.3,1250.92 2245.19,1245.65 2294.08,1239.24 "/>
<circle clip-path="url(#clip632)" cx="338.375" cy="160.256" r="14.4" fill="#008000" fill-rule="evenodd" fill-opacity="1" stroke="#000000" stroke-opacity="1" stroke-width="3.2"/>
<circle clip-path="url(#clip632)" cx="387.268" cy="750.504" r="14.4" fill="#008000" fill-rule="evenodd" fill-opacity="1" stroke="#000000" stroke-opacity="1" stroke-width="3.2"/>
<circle clip-path="url(#clip632)" cx="436.161" cy="927.805" r="14.4" fill="#008000" fill-rule="evenodd" fill-opacity="1" stroke="#000000" stroke-opacity="1" stroke-width="3.2"/>
<circle clip-path="url(#clip632)" cx="485.053" cy="1029.17" r="14.4" fill="#008000" fill-rule="evenodd" fill-opacity="1" stroke="#000000" stroke-opacity="1" stroke-width="3.2"/>
<circle clip-path="url(#clip632)" cx="533.946" cy="1091.18" r="14.4" fill="#008000" fill-rule="evenodd" fill-opacity="1" stroke="#000000" stroke-opacity="1" stroke-width="3.2"/>
<circle clip-path="url(#clip632)" cx="582.839" cy="1070.91" r="14.4" fill="#008000" fill-rule="evenodd" fill-opacity="1" stroke="#000000" stroke-opacity="1" stroke-width="3.2"/>
<circle clip-path="url(#clip632)" cx="631.732" cy="1106.17" r="14.4" fill="#008000" fill-rule="evenodd" fill-opacity="1" stroke="#000000" stroke-opacity="1" stroke-width="3.2"/>
<circle clip-path="url(#clip632)" cx="680.624" cy="1154.82" r="14.4" fill="#008000" fill-rule="evenodd" fill-opacity="1" stroke="#000000" stroke-opacity="1" stroke-width="3.2"/>
<circle clip-path="url(#clip632)" cx="729.517" cy="1247.39" r="14.4" fill="#008000" fill-rule="evenodd" fill-opacity="1" stroke="#000000" stroke-opacity="1" stroke-width="3.2"/>
<circle clip-path="url(#clip632)" cx="778.41" cy="1176.65" r="14.4" fill="#008000" fill-rule="evenodd" fill-opacity="1" stroke="#000000" stroke-opacity="1" stroke-width="3.2"/>
<circle clip-path="url(#clip632)" cx="827.303" cy="1170.64" r="14.4" fill="#008000" fill-rule="evenodd" fill-opacity="1" stroke="#000000" stroke-opacity="1" stroke-width="3.2"/>
<circle clip-path="url(#clip632)" cx="876.195" cy="956.133" r="14.4" fill="#008000" fill-rule="evenodd" fill-opacity="1" stroke="#000000" stroke-opacity="1" stroke-width="3.2"/>
<circle clip-path="url(#clip632)" cx="925.088" cy="1109.39" r="14.4" fill="#008000" fill-rule="evenodd" fill-opacity="1" stroke="#000000" stroke-opacity="1" stroke-width="3.2"/>
<circle clip-path="url(#clip632)" cx="973.981" cy="1177.67" r="14.4" fill="#008000" fill-rule="evenodd" fill-opacity="1" stroke="#000000" stroke-opacity="1" stroke-width="3.2"/>
<circle clip-path="url(#clip632)" cx="1022.87" cy="1166.91" r="14.4" fill="#008000" fill-rule="evenodd" fill-opacity="1" stroke="#000000" stroke-opacity="1" stroke-width="3.2"/>
<circle clip-path="url(#clip632)" cx="1071.77" cy="1216.77" r="14.4" fill="#008000" fill-rule="evenodd" fill-opacity="1" stroke="#000000" stroke-opacity="1" stroke-width="3.2"/>
<circle clip-path="url(#clip632)" cx="1120.66" cy="1189.57" r="14.4" fill="#008000" fill-rule="evenodd" fill-opacity="1" stroke="#000000" stroke-opacity="1" stroke-width="3.2"/>
<circle clip-path="url(#clip632)" cx="1169.55" cy="1306.13" r="14.4" fill="#008000" fill-rule="evenodd" fill-opacity="1" stroke="#000000" stroke-opacity="1" stroke-width="3.2"/>
<circle clip-path="url(#clip632)" cx="1218.44" cy="1348.09" r="14.4" fill="#008000" fill-rule="evenodd" fill-opacity="1" stroke="#000000" stroke-opacity="1" stroke-width="3.2"/>
<circle clip-path="url(#clip632)" cx="1267.34" cy="1331.07" r="14.4" fill="#008000" fill-rule="evenodd" fill-opacity="1" stroke="#000000" stroke-opacity="1" stroke-width="3.2"/>
<circle clip-path="url(#clip632)" cx="1316.23" cy="1383.95" r="14.4" fill="#008000" fill-rule="evenodd" fill-opacity="1" stroke="#000000" stroke-opacity="1" stroke-width="3.2"/>
<circle clip-path="url(#clip632)" cx="1365.12" cy="1386.4" r="14.4" fill="#008000" fill-rule="evenodd" fill-opacity="1" stroke="#000000" stroke-opacity="1" stroke-width="3.2"/>
<circle clip-path="url(#clip632)" cx="1414.02" cy="1355.66" r="14.4" fill="#008000" fill-rule="evenodd" fill-opacity="1" stroke="#000000" stroke-opacity="1" stroke-width="3.2"/>
<circle clip-path="url(#clip632)" cx="1462.91" cy="1327.09" r="14.4" fill="#008000" fill-rule="evenodd" fill-opacity="1" stroke="#000000" stroke-opacity="1" stroke-width="3.2"/>
<circle clip-path="url(#clip632)" cx="1511.8" cy="1359.24" r="14.4" fill="#008000" fill-rule="evenodd" fill-opacity="1" stroke="#000000" stroke-opacity="1" stroke-width="3.2"/>
<circle clip-path="url(#clip632)" cx="1560.69" cy="1378.22" r="14.4" fill="#008000" fill-rule="evenodd" fill-opacity="1" stroke="#000000" stroke-opacity="1" stroke-width="3.2"/>
<circle clip-path="url(#clip632)" cx="1609.59" cy="1329.54" r="14.4" fill="#008000" fill-rule="evenodd" fill-opacity="1" stroke="#000000" stroke-opacity="1" stroke-width="3.2"/>
<circle clip-path="url(#clip632)" cx="1658.48" cy="1291.54" r="14.4" fill="#008000" fill-rule="evenodd" fill-opacity="1" stroke="#000000" stroke-opacity="1" stroke-width="3.2"/>
<circle clip-path="url(#clip632)" cx="1707.37" cy="1277.84" r="14.4" fill="#008000" fill-rule="evenodd" fill-opacity="1" stroke="#000000" stroke-opacity="1" stroke-width="3.2"/>
<circle clip-path="url(#clip632)" cx="1756.26" cy="1318.58" r="14.4" fill="#008000" fill-rule="evenodd" fill-opacity="1" stroke="#000000" stroke-opacity="1" stroke-width="3.2"/>
<circle clip-path="url(#clip632)" cx="1805.16" cy="1297.29" r="14.4" fill="#008000" fill-rule="evenodd" fill-opacity="1" stroke="#000000" stroke-opacity="1" stroke-width="3.2"/>
<circle clip-path="url(#clip632)" cx="1854.05" cy="1283.18" r="14.4" fill="#008000" fill-rule="evenodd" fill-opacity="1" stroke="#000000" stroke-opacity="1" stroke-width="3.2"/>
<circle clip-path="url(#clip632)" cx="1902.94" cy="1272.52" r="14.4" fill="#008000" fill-rule="evenodd" fill-opacity="1" stroke="#000000" stroke-opacity="1" stroke-width="3.2"/>
<circle clip-path="url(#clip632)" cx="1951.84" cy="1228.37" r="14.4" fill="#008000" fill-rule="evenodd" fill-opacity="1" stroke="#000000" stroke-opacity="1" stroke-width="3.2"/>
<circle clip-path="url(#clip632)" cx="2000.73" cy="1228.58" r="14.4" fill="#008000" fill-rule="evenodd" fill-opacity="1" stroke="#000000" stroke-opacity="1" stroke-width="3.2"/>
<circle clip-path="url(#clip632)" cx="2049.62" cy="1206.48" r="14.4" fill="#008000" fill-rule="evenodd" fill-opacity="1" stroke="#000000" stroke-opacity="1" stroke-width="3.2"/>
<circle clip-path="url(#clip632)" cx="2098.51" cy="1215.03" r="14.4" fill="#008000" fill-rule="evenodd" fill-opacity="1" stroke="#000000" stroke-opacity="1" stroke-width="3.2"/>
<circle clip-path="url(#clip632)" cx="2147.41" cy="1259.08" r="14.4" fill="#008000" fill-rule="evenodd" fill-opacity="1" stroke="#000000" stroke-opacity="1" stroke-width="3.2"/>
<circle clip-path="url(#clip632)" cx="2196.3" cy="1250.92" r="14.4" fill="#008000" fill-rule="evenodd" fill-opacity="1" stroke="#000000" stroke-opacity="1" stroke-width="3.2"/>
<circle clip-path="url(#clip632)" cx="2245.19" cy="1245.65" r="14.4" fill="#008000" fill-rule="evenodd" fill-opacity="1" stroke="#000000" stroke-opacity="1" stroke-width="3.2"/>
<circle clip-path="url(#clip632)" cx="2294.08" cy="1239.24" r="14.4" fill="#008000" fill-rule="evenodd" fill-opacity="1" stroke="#000000" stroke-opacity="1" stroke-width="3.2"/>
<path clip-path="url(#clip630)" d="M1643.32 322.316 L2283.65 322.316 L2283.65 166.796 L1643.32 166.796  Z" fill="#ffffff" fill-rule="evenodd" fill-opacity="1"/>
<polyline clip-path="url(#clip630)" style="stroke:#000000; stroke-linecap:round; stroke-linejoin:round; stroke-width:4; stroke-opacity:1; fill:none" points="1643.32,322.316 2283.65,322.316 2283.65,166.796 1643.32,166.796 1643.32,322.316 "/>
<polyline clip-path="url(#clip630)" style="stroke:#0000ff; stroke-linecap:round; stroke-linejoin:round; stroke-width:8; stroke-opacity:1; fill:none" points="1666.35,218.636 1804.56,218.636 "/>
<path clip-path="url(#clip630)" d="M1827.59 201.356 L1849.44 201.356 L1849.44 205.291 L1832.27 205.291 L1832.27 215.522 L1848.72 215.522 L1848.72 219.457 L1832.27 219.457 L1832.27 231.981 L1849.86 231.981 L1849.86 235.916 L1827.59 235.916 L1827.59 201.356 Z" fill="#000000" fill-rule="nonzero" fill-opacity="1" /><path clip-path="url(#clip630)" d="M1877.54 214.967 Q1879.14 212.096 1881.36 210.731 Q1883.59 209.365 1886.59 209.365 Q1890.65 209.365 1892.84 212.212 Q1895.04 215.036 1895.04 220.268 L1895.04 235.916 L1890.76 235.916 L1890.76 220.407 Q1890.76 216.68 1889.44 214.874 Q1888.12 213.069 1885.41 213.069 Q1882.1 213.069 1880.18 215.268 Q1878.26 217.467 1878.26 221.263 L1878.26 235.916 L1873.98 235.916 L1873.98 220.407 Q1873.98 216.657 1872.66 214.874 Q1871.34 213.069 1868.59 213.069 Q1865.32 213.069 1863.4 215.291 Q1861.48 217.49 1861.48 221.263 L1861.48 235.916 L1857.2 235.916 L1857.2 209.99 L1861.48 209.99 L1861.48 214.018 Q1862.94 211.633 1864.97 210.499 Q1867.01 209.365 1869.81 209.365 Q1872.64 209.365 1874.6 210.8 Q1876.59 212.235 1877.54 214.967 Z" fill="#000000" fill-rule="nonzero" fill-opacity="1" /><path clip-path="url(#clip630)" d="M1907.66 232.027 L1907.66 245.777 L1903.38 245.777 L1903.38 209.99 L1907.66 209.99 L1907.66 213.925 Q1909 211.61 1911.04 210.499 Q1913.1 209.365 1915.95 209.365 Q1920.67 209.365 1923.61 213.115 Q1926.57 216.865 1926.57 222.976 Q1926.57 229.087 1923.61 232.837 Q1920.67 236.587 1915.95 236.587 Q1913.1 236.587 1911.04 235.476 Q1909 234.342 1907.66 232.027 M1922.15 222.976 Q1922.15 218.277 1920.21 215.615 Q1918.28 212.93 1914.9 212.93 Q1911.52 212.93 1909.58 215.615 Q1907.66 218.277 1907.66 222.976 Q1907.66 227.675 1909.58 230.36 Q1911.52 233.022 1914.9 233.022 Q1918.28 233.022 1920.21 230.36 Q1922.15 227.675 1922.15 222.976 Z" fill="#000000" fill-rule="nonzero" fill-opacity="1" /><path clip-path="url(#clip630)" d="M1933.63 209.99 L1937.89 209.99 L1937.89 235.916 L1933.63 235.916 L1933.63 209.99 M1933.63 199.897 L1937.89 199.897 L1937.89 205.291 L1933.63 205.291 L1933.63 199.897 Z" fill="#000000" fill-rule="nonzero" fill-opacity="1" /><path clip-path="url(#clip630)" d="M1961.83 213.971 Q1961.11 213.555 1960.25 213.37 Q1959.42 213.161 1958.4 213.161 Q1954.79 213.161 1952.84 215.522 Q1950.92 217.86 1950.92 222.258 L1950.92 235.916 L1946.64 235.916 L1946.64 209.99 L1950.92 209.99 L1950.92 214.018 Q1952.27 211.657 1954.42 210.522 Q1956.57 209.365 1959.65 209.365 Q1960.09 209.365 1960.62 209.434 Q1961.15 209.481 1961.8 209.596 L1961.83 213.971 Z" fill="#000000" fill-rule="nonzero" fill-opacity="1" /><path clip-path="url(#clip630)" d="M1966.29 209.99 L1970.55 209.99 L1970.55 235.916 L1966.29 235.916 L1966.29 209.99 M1966.29 199.897 L1970.55 199.897 L1970.55 205.291 L1966.29 205.291 L1966.29 199.897 Z" fill="#000000" fill-rule="nonzero" fill-opacity="1" /><path clip-path="url(#clip630)" d="M1998.12 210.985 L1998.12 214.967 Q1996.32 213.971 1994.49 213.485 Q1992.68 212.976 1990.83 212.976 Q1986.69 212.976 1984.39 215.615 Q1982.1 218.231 1982.1 222.976 Q1982.1 227.721 1984.39 230.36 Q1986.69 232.976 1990.83 232.976 Q1992.68 232.976 1994.49 232.49 Q1996.32 231.981 1998.12 230.985 L1998.12 234.92 Q1996.34 235.754 1994.42 236.17 Q1992.52 236.587 1990.37 236.587 Q1984.51 236.587 1981.06 232.906 Q1977.61 229.226 1977.61 222.976 Q1977.61 216.633 1981.08 212.999 Q1984.58 209.365 1990.64 209.365 Q1992.61 209.365 1994.49 209.782 Q1996.36 210.175 1998.12 210.985 Z" fill="#000000" fill-rule="nonzero" fill-opacity="1" /><path clip-path="url(#clip630)" d="M2017.31 222.883 Q2012.15 222.883 2010.16 224.064 Q2008.17 225.244 2008.17 228.092 Q2008.17 230.36 2009.65 231.703 Q2011.15 233.022 2013.72 233.022 Q2017.27 233.022 2019.39 230.522 Q2021.55 227.999 2021.55 223.832 L2021.55 222.883 L2017.31 222.883 M2025.81 221.124 L2025.81 235.916 L2021.55 235.916 L2021.55 231.981 Q2020.09 234.342 2017.91 235.476 Q2015.74 236.587 2012.59 236.587 Q2008.61 236.587 2006.25 234.365 Q2003.91 232.119 2003.91 228.369 Q2003.91 223.994 2006.83 221.772 Q2009.77 219.55 2015.58 219.55 L2021.55 219.55 L2021.55 219.133 Q2021.55 216.194 2019.6 214.596 Q2017.68 212.976 2014.19 212.976 Q2011.96 212.976 2009.86 213.508 Q2007.75 214.041 2005.81 215.106 L2005.81 211.17 Q2008.14 210.268 2010.34 209.828 Q2012.54 209.365 2014.63 209.365 Q2020.25 209.365 2023.03 212.282 Q2025.81 215.198 2025.81 221.124 Z" fill="#000000" fill-rule="nonzero" fill-opacity="1" /><path clip-path="url(#clip630)" d="M2034.58 199.897 L2038.84 199.897 L2038.84 235.916 L2034.58 235.916 L2034.58 199.897 Z" fill="#000000" fill-rule="nonzero" fill-opacity="1" /><path clip-path="url(#clip630)" d="M2071.92 235.916 L2058.72 201.356 L2063.61 201.356 L2074.56 230.453 L2085.53 201.356 L2090.39 201.356 L2077.22 235.916 L2071.92 235.916 Z" fill="#000000" fill-rule="nonzero" fill-opacity="1" /><path clip-path="url(#clip630)" d="M2103.35 222.883 Q2098.19 222.883 2096.2 224.064 Q2094.21 225.244 2094.21 228.092 Q2094.21 230.36 2095.69 231.703 Q2097.2 233.022 2099.76 233.022 Q2103.31 233.022 2105.44 230.522 Q2107.59 227.999 2107.59 223.832 L2107.59 222.883 L2103.35 222.883 M2111.85 221.124 L2111.85 235.916 L2107.59 235.916 L2107.59 231.981 Q2106.13 234.342 2103.95 235.476 Q2101.78 236.587 2098.63 236.587 Q2094.65 236.587 2092.29 234.365 Q2089.95 232.119 2089.95 228.369 Q2089.95 223.994 2092.87 221.772 Q2095.81 219.55 2101.62 219.55 L2107.59 219.55 L2107.59 219.133 Q2107.59 216.194 2105.64 214.596 Q2103.72 212.976 2100.23 212.976 Q2098.01 212.976 2095.9 213.508 Q2093.79 214.041 2091.85 215.106 L2091.85 211.17 Q2094.19 210.268 2096.39 209.828 Q2098.58 209.365 2100.67 209.365 Q2106.29 209.365 2109.07 212.282 Q2111.85 215.198 2111.85 221.124 Z" fill="#000000" fill-rule="nonzero" fill-opacity="1" /><path clip-path="url(#clip630)" d="M2135.64 213.971 Q2134.93 213.555 2134.07 213.37 Q2133.24 213.161 2132.22 213.161 Q2128.61 213.161 2126.66 215.522 Q2124.74 217.86 2124.74 222.258 L2124.74 235.916 L2120.46 235.916 L2120.46 209.99 L2124.74 209.99 L2124.74 214.018 Q2126.08 211.657 2128.24 210.522 Q2130.39 209.365 2133.47 209.365 Q2133.91 209.365 2134.44 209.434 Q2134.97 209.481 2135.62 209.596 L2135.64 213.971 Z" fill="#000000" fill-rule="nonzero" fill-opacity="1" /><path clip-path="url(#clip630)" d="M2140.11 209.99 L2144.37 209.99 L2144.37 235.916 L2140.11 235.916 L2140.11 209.99 M2140.11 199.897 L2144.37 199.897 L2144.37 205.291 L2140.11 205.291 L2140.11 199.897 Z" fill="#000000" fill-rule="nonzero" fill-opacity="1" /><path clip-path="url(#clip630)" d="M2165.07 222.883 Q2159.9 222.883 2157.91 224.064 Q2155.92 225.244 2155.92 228.092 Q2155.92 230.36 2157.4 231.703 Q2158.91 233.022 2161.48 233.022 Q2165.02 233.022 2167.15 230.522 Q2169.3 227.999 2169.3 223.832 L2169.3 222.883 L2165.07 222.883 M2173.56 221.124 L2173.56 235.916 L2169.3 235.916 L2169.3 231.981 Q2167.84 234.342 2165.67 235.476 Q2163.49 236.587 2160.34 236.587 Q2156.36 236.587 2154 234.365 Q2151.66 232.119 2151.66 228.369 Q2151.66 223.994 2154.58 221.772 Q2157.52 219.55 2163.33 219.55 L2169.3 219.55 L2169.3 219.133 Q2169.3 216.194 2167.36 214.596 Q2165.44 212.976 2161.94 212.976 Q2159.72 212.976 2157.61 213.508 Q2155.51 214.041 2153.56 215.106 L2153.56 211.17 Q2155.9 210.268 2158.1 209.828 Q2160.3 209.365 2162.38 209.365 Q2168.01 209.365 2170.78 212.282 Q2173.56 215.198 2173.56 221.124 Z" fill="#000000" fill-rule="nonzero" fill-opacity="1" /><path clip-path="url(#clip630)" d="M2203.88 220.268 L2203.88 235.916 L2199.63 235.916 L2199.63 220.407 Q2199.63 216.726 2198.19 214.897 Q2196.75 213.069 2193.88 213.069 Q2190.44 213.069 2188.44 215.268 Q2186.45 217.467 2186.45 221.263 L2186.45 235.916 L2182.17 235.916 L2182.17 209.99 L2186.45 209.99 L2186.45 214.018 Q2187.98 211.68 2190.04 210.522 Q2192.13 209.365 2194.83 209.365 Q2199.3 209.365 2201.59 212.143 Q2203.88 214.897 2203.88 220.268 Z" fill="#000000" fill-rule="nonzero" fill-opacity="1" /><path clip-path="url(#clip630)" d="M2231.04 210.985 L2231.04 214.967 Q2229.23 213.971 2227.4 213.485 Q2225.6 212.976 2223.75 212.976 Q2219.6 212.976 2217.31 215.615 Q2215.02 218.231 2215.02 222.976 Q2215.02 227.721 2217.31 230.36 Q2219.6 232.976 2223.75 232.976 Q2225.6 232.976 2227.4 232.49 Q2229.23 231.981 2231.04 230.985 L2231.04 234.92 Q2229.25 235.754 2227.33 236.17 Q2225.44 236.587 2223.28 236.587 Q2217.43 236.587 2213.98 232.906 Q2210.53 229.226 2210.53 222.976 Q2210.53 216.633 2214 212.999 Q2217.5 209.365 2223.56 209.365 Q2225.53 209.365 2227.4 209.782 Q2229.28 210.175 2231.04 210.985 Z" fill="#000000" fill-rule="nonzero" fill-opacity="1" /><path clip-path="url(#clip630)" d="M2260.62 221.888 L2260.62 223.971 L2241.04 223.971 Q2241.31 228.369 2243.68 230.684 Q2246.06 232.976 2250.3 232.976 Q2252.75 232.976 2255.04 232.374 Q2257.36 231.772 2259.62 230.569 L2259.62 234.596 Q2257.33 235.568 2254.93 236.078 Q2252.52 236.587 2250.04 236.587 Q2243.84 236.587 2240.2 232.976 Q2236.59 229.365 2236.59 223.207 Q2236.59 216.842 2240.02 213.115 Q2243.47 209.365 2249.3 209.365 Q2254.53 209.365 2257.56 212.745 Q2260.62 216.101 2260.62 221.888 M2256.36 220.638 Q2256.31 217.143 2254.39 215.059 Q2252.5 212.976 2249.35 212.976 Q2245.78 212.976 2243.63 214.99 Q2241.5 217.004 2241.18 220.661 L2256.36 220.638 Z" fill="#000000" fill-rule="nonzero" fill-opacity="1" /><circle clip-path="url(#clip630)" cx="1735.45" cy="270.476" r="20.48" fill="#008000" fill-rule="evenodd" fill-opacity="1" stroke="#000000" stroke-opacity="1" stroke-width="4.55111"/>
<path clip-path="url(#clip630)" d="M1855.46 255.858 L1855.46 260.788 Q1853.1 258.589 1850.41 257.501 Q1847.75 256.413 1844.74 256.413 Q1838.82 256.413 1835.67 260.048 Q1832.52 263.659 1832.52 270.51 Q1832.52 277.339 1835.67 280.973 Q1838.82 284.584 1844.74 284.584 Q1847.75 284.584 1850.41 283.496 Q1853.1 282.409 1855.46 280.209 L1855.46 285.094 Q1853.01 286.76 1850.25 287.594 Q1847.52 288.427 1844.47 288.427 Q1836.62 288.427 1832.1 283.635 Q1827.59 278.821 1827.59 270.51 Q1827.59 262.177 1832.1 257.386 Q1836.62 252.571 1844.47 252.571 Q1847.57 252.571 1850.3 253.404 Q1853.05 254.214 1855.46 255.858 Z" fill="#000000" fill-rule="nonzero" fill-opacity="1" /><path clip-path="url(#clip630)" d="M1872.54 264.816 Q1869.12 264.816 1867.13 267.501 Q1865.14 270.163 1865.14 274.816 Q1865.14 279.469 1867.1 282.154 Q1869.09 284.816 1872.54 284.816 Q1875.95 284.816 1877.94 282.131 Q1879.93 279.446 1879.93 274.816 Q1879.93 270.21 1877.94 267.524 Q1875.95 264.816 1872.54 264.816 M1872.54 261.205 Q1878.1 261.205 1881.27 264.816 Q1884.44 268.427 1884.44 274.816 Q1884.44 281.182 1881.27 284.816 Q1878.1 288.427 1872.54 288.427 Q1866.96 288.427 1863.79 284.816 Q1860.65 281.182 1860.65 274.816 Q1860.65 268.427 1863.79 264.816 Q1866.96 261.205 1872.54 261.205 Z" fill="#000000" fill-rule="nonzero" fill-opacity="1" /><path clip-path="url(#clip630)" d="M1913.05 272.108 L1913.05 287.756 L1908.79 287.756 L1908.79 272.247 Q1908.79 268.566 1907.36 266.737 Q1905.92 264.909 1903.05 264.909 Q1899.6 264.909 1897.61 267.108 Q1895.62 269.307 1895.62 273.103 L1895.62 287.756 L1891.34 287.756 L1891.34 261.83 L1895.62 261.83 L1895.62 265.858 Q1897.15 263.52 1899.21 262.362 Q1901.29 261.205 1904 261.205 Q1908.47 261.205 1910.76 263.983 Q1913.05 266.737 1913.05 272.108 Z" fill="#000000" fill-rule="nonzero" fill-opacity="1" /><path clip-path="url(#clip630)" d="M1918.49 261.83 L1923.01 261.83 L1931.11 283.589 L1939.21 261.83 L1943.72 261.83 L1934 287.756 L1928.21 287.756 L1918.49 261.83 Z" fill="#000000" fill-rule="nonzero" fill-opacity="1" /><path clip-path="url(#clip630)" d="M1971.78 273.728 L1971.78 275.811 L1952.2 275.811 Q1952.47 280.209 1954.83 282.524 Q1957.22 284.816 1961.46 284.816 Q1963.91 284.816 1966.2 284.214 Q1968.52 283.612 1970.78 282.409 L1970.78 286.436 Q1968.49 287.408 1966.08 287.918 Q1963.68 288.427 1961.2 288.427 Q1955 288.427 1951.36 284.816 Q1947.75 281.205 1947.75 275.047 Q1947.75 268.682 1951.18 264.955 Q1954.63 261.205 1960.46 261.205 Q1965.69 261.205 1968.72 264.585 Q1971.78 267.941 1971.78 273.728 M1967.52 272.478 Q1967.47 268.983 1965.55 266.899 Q1963.65 264.816 1960.51 264.816 Q1956.94 264.816 1954.79 266.83 Q1952.66 268.844 1952.33 272.501 L1967.52 272.478 Z" fill="#000000" fill-rule="nonzero" fill-opacity="1" /><path clip-path="url(#clip630)" d="M1993.79 265.811 Q1993.08 265.395 1992.22 265.21 Q1991.39 265.001 1990.37 265.001 Q1986.76 265.001 1984.81 267.362 Q1982.89 269.7 1982.89 274.098 L1982.89 287.756 L1978.61 287.756 L1978.61 261.83 L1982.89 261.83 L1982.89 265.858 Q1984.23 263.497 1986.39 262.362 Q1988.54 261.205 1991.62 261.205 Q1992.06 261.205 1992.59 261.274 Q1993.12 261.321 1993.77 261.436 L1993.79 265.811 Z" fill="#000000" fill-rule="nonzero" fill-opacity="1" /><path clip-path="url(#clip630)" d="M2014.49 274.492 Q2014.49 269.862 2012.57 267.316 Q2010.67 264.77 2007.22 264.77 Q2003.79 264.77 2001.87 267.316 Q1999.97 269.862 1999.97 274.492 Q1999.97 279.098 2001.87 281.645 Q2003.79 284.191 2007.22 284.191 Q2010.67 284.191 2012.57 281.645 Q2014.49 279.098 2014.49 274.492 M2018.75 284.538 Q2018.75 291.158 2015.81 294.376 Q2012.87 297.617 2006.8 297.617 Q2004.56 297.617 2002.57 297.27 Q2000.58 296.945 1998.7 296.251 L1998.7 292.108 Q2000.58 293.126 2002.4 293.612 Q2004.23 294.098 2006.13 294.098 Q2010.32 294.098 2012.4 291.899 Q2014.49 289.723 2014.49 285.302 L2014.49 283.196 Q2013.17 285.487 2011.11 286.621 Q2009.05 287.756 2006.18 287.756 Q2001.41 287.756 1998.49 284.121 Q1995.58 280.487 1995.58 274.492 Q1995.58 268.473 1998.49 264.839 Q2001.41 261.205 2006.18 261.205 Q2009.05 261.205 2011.11 262.339 Q2013.17 263.473 2014.49 265.765 L2014.49 261.83 L2018.75 261.83 L2018.75 284.538 Z" fill="#000000" fill-rule="nonzero" fill-opacity="1" /><path clip-path="url(#clip630)" d="M2049.7 273.728 L2049.7 275.811 L2030.11 275.811 Q2030.39 280.209 2032.75 282.524 Q2035.14 284.816 2039.37 284.816 Q2041.83 284.816 2044.12 284.214 Q2046.43 283.612 2048.7 282.409 L2048.7 286.436 Q2046.41 287.408 2044 287.918 Q2041.59 288.427 2039.12 288.427 Q2032.91 288.427 2029.28 284.816 Q2025.67 281.205 2025.67 275.047 Q2025.67 268.682 2029.09 264.955 Q2032.54 261.205 2038.38 261.205 Q2043.61 261.205 2046.64 264.585 Q2049.7 267.941 2049.7 273.728 M2045.44 272.478 Q2045.39 268.983 2043.47 266.899 Q2041.57 264.816 2038.42 264.816 Q2034.86 264.816 2032.7 266.83 Q2030.58 268.844 2030.25 272.501 L2045.44 272.478 Z" fill="#000000" fill-rule="nonzero" fill-opacity="1" /><path clip-path="url(#clip630)" d="M2078.24 272.108 L2078.24 287.756 L2073.98 287.756 L2073.98 272.247 Q2073.98 268.566 2072.54 266.737 Q2071.11 264.909 2068.24 264.909 Q2064.79 264.909 2062.8 267.108 Q2060.81 269.307 2060.81 273.103 L2060.81 287.756 L2056.52 287.756 L2056.52 261.83 L2060.81 261.83 L2060.81 265.858 Q2062.33 263.52 2064.39 262.362 Q2066.48 261.205 2069.19 261.205 Q2073.65 261.205 2075.95 263.983 Q2078.24 266.737 2078.24 272.108 Z" fill="#000000" fill-rule="nonzero" fill-opacity="1" /><path clip-path="url(#clip630)" d="M2090.95 254.469 L2090.95 261.83 L2099.72 261.83 L2099.72 265.14 L2090.95 265.14 L2090.95 279.214 Q2090.95 282.385 2091.8 283.288 Q2092.68 284.191 2095.34 284.191 L2099.72 284.191 L2099.72 287.756 L2095.34 287.756 Q2090.41 287.756 2088.54 285.927 Q2086.66 284.075 2086.66 279.214 L2086.66 265.14 L2083.54 265.14 L2083.54 261.83 L2086.66 261.83 L2086.66 254.469 L2090.95 254.469 Z" fill="#000000" fill-rule="nonzero" fill-opacity="1" /></svg>
