<?xml version="1.0" encoding="utf-8"?>
<svg xmlns="http://www.w3.org/2000/svg" xmlns:xlink="http://www.w3.org/1999/xlink" width="600" height="400" viewBox="0 0 2400 1600">
<defs>
  <clipPath id="clip060">
    <rect x="0" y="0" width="2400" height="1600"/>
  </clipPath>
</defs>
<path clip-path="url(#clip060)" d="M0 1600 L2400 1600 L2400 8.88178e-14 L0 8.88178e-14  Z" fill="#ffffff" fill-rule="evenodd" fill-opacity="1"/>
<defs>
  <clipPath id="clip061">
    <rect x="272" y="123" width="2081" height="1364"/>
  </clipPath>
</defs>
<path clip-path="url(#clip060)" d="M242.135 1486.45 L2352.76 1486.45 L2352.76 123.472 L242.135 123.472  Z" fill="#ffffff" fill-rule="evenodd" fill-opacity="1"/>
<defs>
  <clipPath id="clip062">
    <rect x="242" y="123" width="2112" height="1364"/>
  </clipPath>
</defs>
<polyline clip-path="url(#clip062)" style="stroke:#000000; stroke-linecap:round; stroke-linejoin:round; stroke-width:2; stroke-opacity:0.1; fill:none" points="469.455,1486.45 469.455,123.472 "/>
<polyline clip-path="url(#clip062)" style="stroke:#000000; stroke-linecap:round; stroke-linejoin:round; stroke-width:2; stroke-opacity:0.1; fill:none" points="883.45,1486.45 883.45,123.472 "/>
<polyline clip-path="url(#clip062)" style="stroke:#000000; stroke-linecap:round; stroke-linejoin:round; stroke-width:2; stroke-opacity:0.1; fill:none" points="1297.45,1486.45 1297.45,123.472 "/>
<polyline clip-path="url(#clip062)" style="stroke:#000000; stroke-linecap:round; stroke-linejoin:round; stroke-width:2; stroke-opacity:0.1; fill:none" points="1711.44,1486.45 1711.44,123.472 "/>
<polyline clip-path="url(#clip062)" style="stroke:#000000; stroke-linecap:round; stroke-linejoin:round; stroke-width:2; stroke-opacity:0.1; fill:none" points="2125.44,1486.45 2125.44,123.472 "/>
<polyline clip-path="url(#clip062)" style="stroke:#000000; stroke-linecap:round; stroke-linejoin:round; stroke-width:2; stroke-opacity:0.1; fill:none" points="242.135,1375.6 2352.76,1375.6 "/>
<polyline clip-path="url(#clip062)" style="stroke:#000000; stroke-linecap:round; stroke-linejoin:round; stroke-width:2; stroke-opacity:0.1; fill:none" points="242.135,958.223 2352.76,958.223 "/>
<polyline clip-path="url(#clip062)" style="stroke:#000000; stroke-linecap:round; stroke-linejoin:round; stroke-width:2; stroke-opacity:0.1; fill:none" points="242.135,540.847 2352.76,540.847 "/>
<polyline clip-path="url(#clip062)" style="stroke:#000000; stroke-linecap:round; stroke-linejoin:round; stroke-width:2; stroke-opacity:0.1; fill:none" points="242.135,123.472 2352.76,123.472 "/>
<polyline clip-path="url(#clip060)" style="stroke:#000000; stroke-linecap:round; stroke-linejoin:round; stroke-width:4; stroke-opacity:1; fill:none" points="242.135,1486.45 2352.76,1486.45 "/>
<polyline clip-path="url(#clip060)" style="stroke:#000000; stroke-linecap:round; stroke-linejoin:round; stroke-width:4; stroke-opacity:1; fill:none" points="469.455,1486.45 469.455,1467.55 "/>
<polyline clip-path="url(#clip060)" style="stroke:#000000; stroke-linecap:round; stroke-linejoin:round; stroke-width:4; stroke-opacity:1; fill:none" points="883.45,1486.45 883.45,1467.55 "/>
<polyline clip-path="url(#clip060)" style="stroke:#000000; stroke-linecap:round; stroke-linejoin:round; stroke-width:4; stroke-opacity:1; fill:none" points="1297.45,1486.45 1297.45,1467.55 "/>
<polyline clip-path="url(#clip060)" style="stroke:#000000; stroke-linecap:round; stroke-linejoin:round; stroke-width:4; stroke-opacity:1; fill:none" points="1711.44,1486.45 1711.44,1467.55 "/>
<polyline clip-path="url(#clip060)" style="stroke:#000000; stroke-linecap:round; stroke-linejoin:round; stroke-width:4; stroke-opacity:1; fill:none" points="2125.44,1486.45 2125.44,1467.55 "/>
<path clip-path="url(#clip060)" d="M424.952 1514.29 L446.804 1514.29 L446.804 1518.22 L429.628 1518.22 L429.628 1528.45 L446.087 1528.45 L446.087 1532.39 L429.628 1532.39 L429.628 1544.91 L447.221 1544.91 L447.221 1548.85 L424.952 1548.85 L424.952 1514.29 Z" fill="#000000" fill-rule="nonzero" fill-opacity="1" /><path clip-path="url(#clip060)" d="M478.471 1543.92 L478.471 1534.63 L470.832 1534.63 L470.832 1530.79 L483.1 1530.79 L483.1 1545.63 Q480.392 1547.55 477.128 1548.55 Q473.864 1549.52 470.161 1549.52 Q462.059 1549.52 457.475 1544.8 Q452.915 1540.05 452.915 1531.6 Q452.915 1523.13 457.475 1518.41 Q462.059 1513.66 470.161 1513.66 Q473.54 1513.66 476.573 1514.5 Q479.628 1515.33 482.198 1516.95 L482.198 1521.93 Q479.605 1519.73 476.688 1518.62 Q473.772 1517.51 470.554 1517.51 Q464.212 1517.51 461.017 1521.05 Q457.846 1524.59 457.846 1531.6 Q457.846 1538.59 461.017 1542.13 Q464.212 1545.68 470.554 1545.68 Q473.031 1545.68 474.975 1545.26 Q476.92 1544.82 478.471 1543.92 Z" fill="#000000" fill-rule="nonzero" fill-opacity="1" /><path clip-path="url(#clip060)" d="M496.318 1518.13 L496.318 1531.12 L502.197 1531.12 Q505.461 1531.12 507.244 1529.43 Q509.026 1527.74 509.026 1524.61 Q509.026 1521.51 507.244 1519.82 Q505.461 1518.13 502.197 1518.13 L496.318 1518.13 M491.642 1514.29 L502.197 1514.29 Q508.008 1514.29 510.971 1516.93 Q513.957 1519.54 513.957 1524.61 Q513.957 1529.73 510.971 1532.34 Q508.008 1534.96 502.197 1534.96 L496.318 1534.96 L496.318 1548.85 L491.642 1548.85 L491.642 1514.29 Z" fill="#000000" fill-rule="nonzero" fill-opacity="1" /><path clip-path="url(#clip060)" d="M828.3 1514.29 L848.161 1514.29 L848.161 1518.22 L832.976 1518.22 L832.976 1528.41 L846.679 1528.41 L846.679 1532.34 L832.976 1532.34 L832.976 1548.85 L828.3 1548.85 L828.3 1514.29 Z" fill="#000000" fill-rule="nonzero" fill-opacity="1" /><path clip-path="url(#clip060)" d="M860.244 1518.13 L860.244 1531.12 L866.124 1531.12 Q869.387 1531.12 871.17 1529.43 Q872.952 1527.74 872.952 1524.61 Q872.952 1521.51 871.17 1519.82 Q869.387 1518.13 866.124 1518.13 L860.244 1518.13 M855.568 1514.29 L866.124 1514.29 Q871.934 1514.29 874.897 1516.93 Q877.883 1519.54 877.883 1524.61 Q877.883 1529.73 874.897 1532.34 Q871.934 1534.96 866.124 1534.96 L860.244 1534.96 L860.244 1548.85 L855.568 1548.85 L855.568 1514.29 Z" fill="#000000" fill-rule="nonzero" fill-opacity="1" /><path clip-path="url(#clip060)" d="M900.545 1532.64 Q902.049 1533.15 903.461 1534.82 Q904.897 1536.49 906.332 1539.4 L911.077 1548.85 L906.054 1548.85 L901.633 1539.98 Q899.92 1536.51 898.299 1535.38 Q896.702 1534.24 893.924 1534.24 L888.832 1534.24 L888.832 1548.85 L884.156 1548.85 L884.156 1514.29 L894.711 1514.29 Q900.637 1514.29 903.554 1516.76 Q906.471 1519.24 906.471 1524.24 Q906.471 1527.51 904.943 1529.66 Q903.438 1531.81 900.545 1532.64 M888.832 1518.13 L888.832 1530.4 L894.711 1530.4 Q898.091 1530.4 899.804 1528.85 Q901.54 1527.27 901.54 1524.24 Q901.54 1521.21 899.804 1519.68 Q898.091 1518.13 894.711 1518.13 L888.832 1518.13 Z" fill="#000000" fill-rule="nonzero" fill-opacity="1" /><path clip-path="url(#clip060)" d="M917.096 1514.29 L921.771 1514.29 L921.771 1544.91 L938.6 1544.91 L938.6 1548.85 L917.096 1548.85 L917.096 1514.29 Z" fill="#000000" fill-rule="nonzero" fill-opacity="1" /><path clip-path="url(#clip060)" d="M1246.68 1514.29 L1251.36 1514.29 L1251.36 1548.85 L1246.68 1548.85 L1246.68 1514.29 Z" fill="#000000" fill-rule="nonzero" fill-opacity="1" /><path clip-path="url(#clip060)" d="M1286.54 1516.95 L1286.54 1521.88 Q1284.18 1519.68 1281.5 1518.59 Q1278.83 1517.51 1275.83 1517.51 Q1269.9 1517.51 1266.75 1521.14 Q1263.6 1524.75 1263.6 1531.6 Q1263.6 1538.43 1266.75 1542.07 Q1269.9 1545.68 1275.83 1545.68 Q1278.83 1545.68 1281.5 1544.59 Q1284.18 1543.5 1286.54 1541.3 L1286.54 1546.19 Q1284.09 1547.85 1281.33 1548.69 Q1278.6 1549.52 1275.55 1549.52 Q1267.7 1549.52 1263.19 1544.73 Q1258.67 1539.91 1258.67 1531.6 Q1258.67 1523.27 1263.19 1518.48 Q1267.7 1513.66 1275.55 1513.66 Q1278.65 1513.66 1281.38 1514.5 Q1284.14 1515.31 1286.54 1516.95 Z" fill="#000000" fill-rule="nonzero" fill-opacity="1" /><path clip-path="url(#clip060)" d="M1310.15 1532.64 Q1311.66 1533.15 1313.07 1534.82 Q1314.51 1536.49 1315.94 1539.4 L1320.69 1548.85 L1315.66 1548.85 L1311.24 1539.98 Q1309.53 1536.51 1307.91 1535.38 Q1306.31 1534.24 1303.53 1534.24 L1298.44 1534.24 L1298.44 1548.85 L1293.76 1548.85 L1293.76 1514.29 L1304.32 1514.29 Q1310.25 1514.29 1313.16 1516.76 Q1316.08 1519.24 1316.08 1524.24 Q1316.08 1527.51 1314.55 1529.66 Q1313.05 1531.81 1310.15 1532.64 M1298.44 1518.13 L1298.44 1530.4 L1304.32 1530.4 Q1307.7 1530.4 1309.41 1528.85 Q1311.15 1527.27 1311.15 1524.24 Q1311.15 1521.21 1309.41 1519.68 Q1307.7 1518.13 1304.32 1518.13 L1298.44 1518.13 Z" fill="#000000" fill-rule="nonzero" fill-opacity="1" /><path clip-path="url(#clip060)" d="M1326.7 1514.29 L1331.38 1514.29 L1331.38 1544.91 L1348.21 1544.91 L1348.21 1548.85 L1326.7 1548.85 L1326.7 1514.29 Z" fill="#000000" fill-rule="nonzero" fill-opacity="1" /><path clip-path="url(#clip060)" d="M1672.53 1518.13 L1672.53 1531.12 L1678.41 1531.12 Q1681.67 1531.12 1683.45 1529.43 Q1685.24 1527.74 1685.24 1524.61 Q1685.24 1521.51 1683.45 1519.82 Q1681.67 1518.13 1678.41 1518.13 L1672.53 1518.13 M1667.85 1514.29 L1678.41 1514.29 Q1684.22 1514.29 1687.18 1516.93 Q1690.17 1519.54 1690.17 1524.61 Q1690.17 1529.73 1687.18 1532.34 Q1684.22 1534.96 1678.41 1534.96 L1672.53 1534.96 L1672.53 1548.85 L1667.85 1548.85 L1667.85 1514.29 Z" fill="#000000" fill-rule="nonzero" fill-opacity="1" /><path clip-path="url(#clip060)" d="M1701.12 1518.13 L1701.12 1531.12 L1707 1531.12 Q1710.26 1531.12 1712.04 1529.43 Q1713.82 1527.74 1713.82 1524.61 Q1713.82 1521.51 1712.04 1519.82 Q1710.26 1518.13 1707 1518.13 L1701.12 1518.13 M1696.44 1514.29 L1707 1514.29 Q1712.81 1514.29 1715.77 1516.93 Q1718.76 1519.54 1718.76 1524.61 Q1718.76 1529.73 1715.77 1532.34 Q1712.81 1534.96 1707 1534.96 L1701.12 1534.96 L1701.12 1548.85 L1696.44 1548.85 L1696.44 1514.29 Z" fill="#000000" fill-rule="nonzero" fill-opacity="1" /><path clip-path="url(#clip060)" d="M1739.06 1517.46 Q1733.96 1517.46 1730.95 1521.26 Q1727.97 1525.05 1727.97 1531.6 Q1727.97 1538.13 1730.95 1541.93 Q1733.96 1545.72 1739.06 1545.72 Q1744.15 1545.72 1747.11 1541.93 Q1750.1 1538.13 1750.1 1531.6 Q1750.1 1525.05 1747.11 1521.26 Q1744.15 1517.46 1739.06 1517.46 M1739.06 1513.66 Q1746.32 1513.66 1750.68 1518.55 Q1755.03 1523.41 1755.03 1531.6 Q1755.03 1539.77 1750.68 1544.66 Q1746.32 1549.52 1739.06 1549.52 Q1731.76 1549.52 1727.39 1544.66 Q1723.04 1539.8 1723.04 1531.6 Q1723.04 1523.41 1727.39 1518.55 Q1731.76 1513.66 1739.06 1513.66 Z" fill="#000000" fill-rule="nonzero" fill-opacity="1" /><path clip-path="url(#clip060)" d="M2102.69 1515.42 L2102.69 1519.98 Q2100.03 1518.71 2097.67 1518.08 Q2095.31 1517.46 2093.11 1517.46 Q2089.29 1517.46 2087.21 1518.94 Q2085.15 1520.42 2085.15 1523.15 Q2085.15 1525.45 2086.51 1526.63 Q2087.9 1527.78 2091.74 1528.5 L2094.57 1529.08 Q2099.8 1530.07 2102.28 1532.6 Q2104.78 1535.1 2104.78 1539.31 Q2104.78 1544.33 2101.4 1546.93 Q2098.04 1549.52 2091.54 1549.52 Q2089.08 1549.52 2086.3 1548.96 Q2083.55 1548.41 2080.59 1547.32 L2080.59 1542.51 Q2083.43 1544.1 2086.17 1544.91 Q2088.9 1545.72 2091.54 1545.72 Q2095.54 1545.72 2097.72 1544.15 Q2099.89 1542.57 2099.89 1539.66 Q2099.89 1537.11 2098.32 1535.68 Q2096.77 1534.24 2093.2 1533.52 L2090.36 1532.97 Q2085.12 1531.93 2082.79 1529.7 Q2080.45 1527.48 2080.45 1523.52 Q2080.45 1518.94 2083.67 1516.3 Q2086.91 1513.66 2092.58 1513.66 Q2095.01 1513.66 2097.53 1514.1 Q2100.05 1514.54 2102.69 1515.42 Z" fill="#000000" fill-rule="nonzero" fill-opacity="1" /><path clip-path="url(#clip060)" d="M2124.5 1518.89 L2118.16 1536.09 L2130.86 1536.09 L2124.5 1518.89 M2121.86 1514.29 L2127.16 1514.29 L2140.33 1548.85 L2135.47 1548.85 L2132.32 1539.98 L2116.74 1539.98 L2113.6 1548.85 L2108.67 1548.85 L2121.86 1514.29 Z" fill="#000000" fill-rule="nonzero" fill-opacity="1" /><path clip-path="url(#clip060)" d="M2170.42 1516.95 L2170.42 1521.88 Q2168.06 1519.68 2165.38 1518.59 Q2162.72 1517.51 2159.71 1517.51 Q2153.78 1517.51 2150.63 1521.14 Q2147.48 1524.75 2147.48 1531.6 Q2147.48 1538.43 2150.63 1542.07 Q2153.78 1545.68 2159.71 1545.68 Q2162.72 1545.68 2165.38 1544.59 Q2168.06 1543.5 2170.42 1541.3 L2170.42 1546.19 Q2167.97 1547.85 2165.22 1548.69 Q2162.48 1549.52 2159.43 1549.52 Q2151.58 1549.52 2147.07 1544.73 Q2142.55 1539.91 2142.55 1531.6 Q2142.55 1523.27 2147.07 1518.48 Q2151.58 1513.66 2159.43 1513.66 Q2162.53 1513.66 2165.26 1514.5 Q2168.02 1515.31 2170.42 1516.95 Z" fill="#000000" fill-rule="nonzero" fill-opacity="1" /><polyline clip-path="url(#clip060)" style="stroke:#000000; stroke-linecap:round; stroke-linejoin:round; stroke-width:4; stroke-opacity:1; fill:none" points="242.135,1486.45 242.135,123.472 "/>
<polyline clip-path="url(#clip060)" style="stroke:#000000; stroke-linecap:round; stroke-linejoin:round; stroke-width:4; stroke-opacity:1; fill:none" points="242.135,1375.6 261.032,1375.6 "/>
<polyline clip-path="url(#clip060)" style="stroke:#000000; stroke-linecap:round; stroke-linejoin:round; stroke-width:4; stroke-opacity:1; fill:none" points="242.135,958.223 261.032,958.223 "/>
<polyline clip-path="url(#clip060)" style="stroke:#000000; stroke-linecap:round; stroke-linejoin:round; stroke-width:4; stroke-opacity:1; fill:none" points="242.135,540.847 261.032,540.847 "/>
<polyline clip-path="url(#clip060)" style="stroke:#000000; stroke-linecap:round; stroke-linejoin:round; stroke-width:4; stroke-opacity:1; fill:none" points="242.135,123.472 261.032,123.472 "/>
<path clip-path="url(#clip060)" d="M114.26 1376.05 L143.936 1376.05 L143.936 1379.98 L114.26 1379.98 L114.26 1376.05 Z" fill="#000000" fill-rule="nonzero" fill-opacity="1" /><path clip-path="url(#clip060)" d="M168.195 1374.24 Q171.552 1374.96 173.427 1377.23 Q175.325 1379.5 175.325 1382.83 Q175.325 1387.95 171.806 1390.75 Q168.288 1393.55 161.806 1393.55 Q159.63 1393.55 157.315 1393.11 Q155.024 1392.69 152.57 1391.84 L152.57 1387.32 Q154.515 1388.46 156.829 1389.04 Q159.144 1389.61 161.667 1389.61 Q166.065 1389.61 168.357 1387.88 Q170.672 1386.14 170.672 1382.83 Q170.672 1379.78 168.519 1378.06 Q166.39 1376.33 162.57 1376.33 L158.542 1376.33 L158.542 1372.48 L162.755 1372.48 Q166.204 1372.48 168.033 1371.12 Q169.862 1369.73 169.862 1367.14 Q169.862 1364.48 167.964 1363.06 Q166.089 1361.63 162.57 1361.63 Q160.649 1361.63 158.45 1362.04 Q156.251 1362.46 153.612 1363.34 L153.612 1359.17 Q156.274 1358.43 158.589 1358.06 Q160.927 1357.69 162.987 1357.69 Q168.311 1357.69 171.413 1360.12 Q174.514 1362.53 174.514 1366.65 Q174.514 1369.52 172.871 1371.51 Q171.227 1373.48 168.195 1374.24 Z" fill="#000000" fill-rule="nonzero" fill-opacity="1" /><path clip-path="url(#clip060)" d="M194.19 1361.4 Q190.579 1361.4 188.75 1364.96 Q186.945 1368.5 186.945 1375.63 Q186.945 1382.74 188.75 1386.3 Q190.579 1389.85 194.19 1389.85 Q197.825 1389.85 199.63 1386.3 Q201.459 1382.74 201.459 1375.63 Q201.459 1368.5 199.63 1364.96 Q197.825 1361.4 194.19 1361.4 M194.19 1357.69 Q200 1357.69 203.056 1362.3 Q206.135 1366.88 206.135 1375.63 Q206.135 1384.36 203.056 1388.97 Q200 1393.55 194.19 1393.55 Q188.38 1393.55 185.301 1388.97 Q182.246 1384.36 182.246 1375.63 Q182.246 1366.88 185.301 1362.3 Q188.38 1357.69 194.19 1357.69 Z" fill="#000000" fill-rule="nonzero" fill-opacity="1" /><path clip-path="url(#clip060)" d="M114.26 958.674 L143.936 958.674 L143.936 962.609 L114.26 962.609 L114.26 958.674 Z" fill="#000000" fill-rule="nonzero" fill-opacity="1" /><path clip-path="url(#clip060)" d="M158.056 971.567 L174.376 971.567 L174.376 975.503 L152.431 975.503 L152.431 971.567 Q155.093 968.813 159.677 964.183 Q164.283 959.53 165.464 958.188 Q167.709 955.665 168.589 953.929 Q169.491 952.169 169.491 950.48 Q169.491 947.725 167.547 945.989 Q165.626 944.253 162.524 944.253 Q160.325 944.253 157.871 945.017 Q155.44 945.78 152.663 947.331 L152.663 942.609 Q155.487 941.475 157.94 940.896 Q160.394 940.318 162.431 940.318 Q167.802 940.318 170.996 943.003 Q174.19 945.688 174.19 950.179 Q174.19 952.308 173.38 954.229 Q172.593 956.128 170.487 958.72 Q169.908 959.391 166.806 962.609 Q163.704 965.803 158.056 971.567 Z" fill="#000000" fill-rule="nonzero" fill-opacity="1" /><path clip-path="url(#clip060)" d="M194.19 944.021 Q190.579 944.021 188.75 947.586 Q186.945 951.128 186.945 958.257 Q186.945 965.364 188.75 968.928 Q190.579 972.47 194.19 972.47 Q197.825 972.47 199.63 968.928 Q201.459 965.364 201.459 958.257 Q201.459 951.128 199.63 947.586 Q197.825 944.021 194.19 944.021 M194.19 940.318 Q200 940.318 203.056 944.924 Q206.135 949.507 206.135 958.257 Q206.135 966.984 203.056 971.59 Q200 976.174 194.19 976.174 Q188.38 976.174 185.301 971.59 Q182.246 966.984 182.246 958.257 Q182.246 949.507 185.301 944.924 Q188.38 940.318 194.19 940.318 Z" fill="#000000" fill-rule="nonzero" fill-opacity="1" /><path clip-path="url(#clip060)" d="M114.26 541.299 L143.936 541.299 L143.936 545.234 L114.26 545.234 L114.26 541.299 Z" fill="#000000" fill-rule="nonzero" fill-opacity="1" /><path clip-path="url(#clip060)" d="M154.839 554.192 L162.477 554.192 L162.477 527.827 L154.167 529.493 L154.167 525.234 L162.431 523.567 L167.107 523.567 L167.107 554.192 L174.746 554.192 L174.746 558.127 L154.839 558.127 L154.839 554.192 Z" fill="#000000" fill-rule="nonzero" fill-opacity="1" /><path clip-path="url(#clip060)" d="M194.19 526.646 Q190.579 526.646 188.75 530.211 Q186.945 533.752 186.945 540.882 Q186.945 547.988 188.75 551.553 Q190.579 555.095 194.19 555.095 Q197.825 555.095 199.63 551.553 Q201.459 547.988 201.459 540.882 Q201.459 533.752 199.63 530.211 Q197.825 526.646 194.19 526.646 M194.19 522.942 Q200 522.942 203.056 527.549 Q206.135 532.132 206.135 540.882 Q206.135 549.609 203.056 554.215 Q200 558.799 194.19 558.799 Q188.38 558.799 185.301 554.215 Q182.246 549.609 182.246 540.882 Q182.246 532.132 185.301 527.549 Q188.38 522.942 194.19 522.942 Z" fill="#000000" fill-rule="nonzero" fill-opacity="1" /><path clip-path="url(#clip060)" d="M194.19 109.271 Q190.579 109.271 188.75 112.836 Q186.945 116.377 186.945 123.507 Q186.945 130.613 188.75 134.178 Q190.579 137.72 194.19 137.72 Q197.825 137.72 199.63 134.178 Q201.459 130.613 201.459 123.507 Q201.459 116.377 199.63 112.836 Q197.825 109.271 194.19 109.271 M194.19 105.567 Q200 105.567 203.056 110.174 Q206.135 114.757 206.135 123.507 Q206.135 132.234 203.056 136.84 Q200 141.423 194.19 141.423 Q188.38 141.423 185.301 136.84 Q182.246 132.234 182.246 123.507 Q182.246 114.757 185.301 110.174 Q188.38 105.567 194.19 105.567 Z" fill="#000000" fill-rule="nonzero" fill-opacity="1" /><path clip-path="url(#clip060)" d="M16.4842 1019.34 L16.4842 1009.76 L48.8219 997.634 L16.4842 985.444 L16.4842 975.863 L64.0042 975.863 L64.0042 982.134 L22.277 982.134 L54.8694 994.388 L54.8694 1000.85 L22.277 1013.1 L64.0042 1013.1 L64.0042 1019.34 L16.4842 1019.34 Z" fill="#000000" fill-rule="nonzero" fill-opacity="1" /><path clip-path="url(#clip060)" d="M44.7161 932.863 L47.5806 932.863 L47.5806 959.79 Q53.6281 959.408 56.8109 956.161 Q59.9619 952.883 59.9619 947.058 Q59.9619 943.685 59.1344 940.534 Q58.3069 937.351 56.6518 934.232 L62.1899 934.232 Q63.5267 937.383 64.227 940.693 Q64.9272 944.003 64.9272 947.409 Q64.9272 955.939 59.9619 960.936 Q54.9967 965.901 46.5303 965.901 Q37.7774 965.901 32.6531 961.19 Q27.4968 956.448 27.4968 948.427 Q27.4968 941.234 32.1438 937.064 Q36.7589 932.863 44.7161 932.863 M42.9973 938.719 Q38.1912 938.783 35.3266 941.425 Q32.4621 944.035 32.4621 948.363 Q32.4621 953.265 35.2312 956.225 Q38.0002 959.153 43.0292 959.599 L42.9973 938.719 Z" fill="#000000" fill-rule="nonzero" fill-opacity="1" /><path clip-path="url(#clip060)" d="M46.0847 907.05 Q46.0847 914.148 47.7079 916.885 Q49.3312 919.622 53.2461 919.622 Q56.3653 919.622 58.2114 917.585 Q60.0256 915.516 60.0256 911.983 Q60.0256 907.114 56.5881 904.185 Q53.1188 901.225 47.3897 901.225 L46.0847 901.225 L46.0847 907.05 M43.6657 895.369 L64.0042 895.369 L64.0042 901.225 L58.5933 901.225 Q61.8398 903.231 63.3994 906.222 Q64.9272 909.214 64.9272 913.543 Q64.9272 919.018 61.8716 922.264 Q58.7843 925.479 53.6281 925.479 Q47.6125 925.479 44.5569 921.468 Q41.5014 917.426 41.5014 909.437 L41.5014 901.225 L40.9285 901.225 Q36.8862 901.225 34.6901 903.899 Q32.4621 906.541 32.4621 911.347 Q32.4621 914.402 33.1941 917.299 Q33.9262 920.195 35.3903 922.869 L29.9795 922.869 Q28.7381 919.654 28.1334 916.63 Q27.4968 913.607 27.4968 910.742 Q27.4968 903.008 31.5072 899.188 Q35.5176 895.369 43.6657 895.369 Z" fill="#000000" fill-rule="nonzero" fill-opacity="1" /><path clip-path="url(#clip060)" d="M42.4881 853.674 L64.0042 853.674 L64.0042 859.53 L42.679 859.53 Q37.6183 859.53 35.1038 861.503 Q32.5894 863.477 32.5894 867.423 Q32.5894 872.166 35.6131 874.903 Q38.6368 877.64 43.8567 877.64 L64.0042 877.64 L64.0042 883.529 L28.3562 883.529 L28.3562 877.64 L33.8944 877.64 Q30.6797 875.54 29.0883 872.707 Q27.4968 869.842 27.4968 866.119 Q27.4968 859.976 31.3163 856.825 Q35.1038 853.674 42.4881 853.674 Z" fill="#000000" fill-rule="nonzero" fill-opacity="1" /><path clip-path="url(#clip060)" d="M41.7242 798.483 Q42.4244 796.414 44.7161 794.472 Q47.0077 792.499 51.0181 790.526 L64.0042 784.001 L64.0042 790.908 L51.8138 796.987 Q47.0395 799.342 45.48 801.57 Q43.9204 803.766 43.9204 807.586 L43.9204 814.588 L64.0042 814.588 L64.0042 821.017 L16.4842 821.017 L16.4842 806.504 Q16.4842 798.356 19.8898 794.345 Q23.2955 790.335 30.1704 790.335 Q34.6582 790.335 37.6183 792.435 Q40.5784 794.504 41.7242 798.483 M21.7677 814.588 L38.6368 814.588 L38.6368 806.504 Q38.6368 801.857 36.5043 799.501 Q34.34 797.114 30.1704 797.114 Q26.0009 797.114 23.9002 799.501 Q21.7677 801.857 21.7677 806.504 L21.7677 814.588 Z" fill="#000000" fill-rule="nonzero" fill-opacity="1" /><path clip-path="url(#clip060)" d="M44.7161 748.417 L47.5806 748.417 L47.5806 775.344 Q53.6281 774.962 56.8109 771.715 Q59.9619 768.437 59.9619 762.612 Q59.9619 759.238 59.1344 756.087 Q58.3069 752.904 56.6518 749.785 L62.1899 749.785 Q63.5267 752.936 64.227 756.246 Q64.9272 759.557 64.9272 762.962 Q64.9272 771.492 59.9619 776.489 Q54.9967 781.455 46.5303 781.455 Q37.7774 781.455 32.6531 776.744 Q27.4968 772.002 27.4968 763.981 Q27.4968 756.788 32.1438 752.618 Q36.7589 748.417 44.7161 748.417 M42.9973 754.273 Q38.1912 754.337 35.3266 756.978 Q32.4621 759.588 32.4621 763.917 Q32.4621 768.819 35.2312 771.779 Q38.0002 774.707 43.0292 775.153 L42.9973 754.273 Z" fill="#000000" fill-rule="nonzero" fill-opacity="1" /><path clip-path="url(#clip060)" d="M28.3562 742.21 L28.3562 736.354 L56.1743 729.033 L28.3562 721.744 L28.3562 714.838 L56.1743 707.517 L28.3562 700.228 L28.3562 694.372 L64.0042 703.698 L64.0042 710.604 L34.7856 718.275 L64.0042 725.977 L64.0042 732.884 L28.3562 742.21 Z" fill="#000000" fill-rule="nonzero" fill-opacity="1" /><path clip-path="url(#clip060)" d="M46.0847 669.291 Q46.0847 676.389 47.7079 679.126 Q49.3312 681.863 53.2461 681.863 Q56.3653 681.863 58.2114 679.826 Q60.0256 677.757 60.0256 674.224 Q60.0256 669.355 56.5881 666.426 Q53.1188 663.466 47.3897 663.466 L46.0847 663.466 L46.0847 669.291 M43.6657 657.61 L64.0042 657.61 L64.0042 663.466 L58.5933 663.466 Q61.8398 665.471 63.3994 668.463 Q64.9272 671.455 64.9272 675.784 Q64.9272 681.258 61.8716 684.505 Q58.7843 687.72 53.6281 687.72 Q47.6125 687.72 44.5569 683.709 Q41.5014 679.667 41.5014 671.678 L41.5014 663.466 L40.9285 663.466 Q36.8862 663.466 34.6901 666.14 Q32.4621 668.782 32.4621 673.588 Q32.4621 676.643 33.1941 679.54 Q33.9262 682.436 35.3903 685.11 L29.9795 685.11 Q28.7381 681.895 28.1334 678.871 Q27.4968 675.848 27.4968 672.983 Q27.4968 665.249 31.5072 661.429 Q35.5176 657.61 43.6657 657.61 Z" fill="#000000" fill-rule="nonzero" fill-opacity="1" /><path clip-path="url(#clip060)" d="M33.8307 624.89 Q33.2578 625.877 33.0032 627.054 Q32.7167 628.2 32.7167 629.601 Q32.7167 634.566 35.9632 637.24 Q39.1779 639.881 45.2253 639.881 L64.0042 639.881 L64.0042 645.77 L28.3562 645.77 L28.3562 639.881 L33.8944 639.881 Q30.6479 638.035 29.0883 635.075 Q27.4968 632.115 27.4968 627.882 Q27.4968 627.277 27.5923 626.545 Q27.656 625.813 27.8151 624.922 L33.8307 624.89 Z" fill="#000000" fill-rule="nonzero" fill-opacity="1" /><path clip-path="url(#clip060)" d="M33.7671 596.435 L14.479 596.435 L14.479 590.579 L64.0042 590.579 L64.0042 596.435 L58.657 596.435 Q61.8398 598.281 63.3994 601.114 Q64.9272 603.915 64.9272 607.862 Q64.9272 614.323 59.771 618.397 Q54.6147 622.439 46.212 622.439 Q37.8093 622.439 32.6531 618.397 Q27.4968 614.323 27.4968 607.862 Q27.4968 603.915 29.0564 601.114 Q30.5842 598.281 33.7671 596.435 M46.212 616.392 Q52.6732 616.392 56.3653 613.75 Q60.0256 611.076 60.0256 606.43 Q60.0256 601.783 56.3653 599.109 Q52.6732 596.435 46.212 596.435 Q39.7508 596.435 36.0905 599.109 Q32.3984 601.783 32.3984 606.43 Q32.3984 611.076 36.0905 613.75 Q39.7508 616.392 46.212 616.392 Z" fill="#000000" fill-rule="nonzero" fill-opacity="1" /><path clip-path="url(#clip060)" d="M656.633 18.8205 L656.633 41.5461 L666.922 41.5461 Q672.634 41.5461 675.753 38.5889 Q678.872 35.6318 678.872 30.163 Q678.872 24.7348 675.753 21.7777 Q672.634 18.8205 666.922 18.8205 L656.633 18.8205 M648.45 12.096 L666.922 12.096 Q677.09 12.096 682.275 16.714 Q687.501 21.2916 687.501 30.163 Q687.501 39.1155 682.275 43.6931 Q677.09 48.2706 666.922 48.2706 L656.633 48.2706 L656.633 72.576 L648.45 72.576 L648.45 12.096 Z" fill="#000000" fill-rule="nonzero" fill-opacity="1" /><path clip-path="url(#clip060)" d="M734.005 48.0275 L734.005 51.6733 L699.734 51.6733 Q700.22 59.3701 704.352 63.421 Q708.525 67.4314 715.938 67.4314 Q720.232 67.4314 724.242 66.3781 Q728.293 65.3249 732.263 63.2184 L732.263 70.267 Q728.253 71.9684 724.04 72.8596 Q719.827 73.7508 715.492 73.7508 Q704.636 73.7508 698.276 67.4314 Q691.957 61.1119 691.957 50.3365 Q691.957 39.1965 697.952 32.6746 Q703.988 26.1121 714.196 26.1121 Q723.351 26.1121 728.658 32.0264 Q734.005 37.9003 734.005 48.0275 M726.551 45.84 Q726.47 39.7232 723.108 36.0774 Q719.786 32.4315 714.277 32.4315 Q708.039 32.4315 704.271 35.9558 Q700.545 39.4801 699.977 45.8805 L726.551 45.84 Z" fill="#000000" fill-rule="nonzero" fill-opacity="1" /><path clip-path="url(#clip060)" d="M772.529 34.1734 Q771.273 33.4443 769.775 33.1202 Q768.316 32.7556 766.534 32.7556 Q760.214 32.7556 756.812 36.8875 Q753.449 40.9789 753.449 48.6757 L753.449 72.576 L745.955 72.576 L745.955 27.2059 L753.449 27.2059 L753.449 34.2544 Q755.799 30.1225 759.566 28.1376 Q763.334 26.1121 768.721 26.1121 Q769.491 26.1121 770.423 26.2337 Q771.354 26.3147 772.489 26.5172 L772.529 34.1734 Z" fill="#000000" fill-rule="nonzero" fill-opacity="1" /><path clip-path="url(#clip060)" d="M803.316 9.54393 L803.316 15.7418 L796.186 15.7418 Q792.176 15.7418 790.596 17.3622 Q789.057 18.9825 789.057 23.1955 L789.057 27.2059 L801.331 27.2059 L801.331 32.9987 L789.057 32.9987 L789.057 72.576 L781.563 72.576 L781.563 32.9987 L774.433 32.9987 L774.433 27.2059 L781.563 27.2059 L781.563 24.0462 Q781.563 16.471 785.087 13.0277 Q788.611 9.54393 796.267 9.54393 L803.316 9.54393 Z" fill="#000000" fill-rule="nonzero" fill-opacity="1" /><path clip-path="url(#clip060)" d="M827.135 32.4315 Q821.14 32.4315 817.656 37.1306 Q814.172 41.7891 814.172 49.9314 Q814.172 58.0738 817.616 62.7728 Q821.099 67.4314 827.135 67.4314 Q833.09 67.4314 836.574 62.7323 Q840.058 58.0333 840.058 49.9314 Q840.058 41.8701 836.574 37.1711 Q833.09 32.4315 827.135 32.4315 M827.135 26.1121 Q836.857 26.1121 842.407 32.4315 Q847.957 38.7509 847.957 49.9314 Q847.957 61.0714 842.407 67.4314 Q836.857 73.7508 827.135 73.7508 Q817.373 73.7508 811.823 67.4314 Q806.314 61.0714 806.314 49.9314 Q806.314 38.7509 811.823 32.4315 Q817.373 26.1121 827.135 26.1121 Z" fill="#000000" fill-rule="nonzero" fill-opacity="1" /><path clip-path="url(#clip060)" d="M886.603 34.1734 Q885.347 33.4443 883.848 33.1202 Q882.39 32.7556 880.607 32.7556 Q874.288 32.7556 870.885 36.8875 Q867.523 40.9789 867.523 48.6757 L867.523 72.576 L860.029 72.576 L860.029 27.2059 L867.523 27.2059 L867.523 34.2544 Q869.872 30.1225 873.64 28.1376 Q877.407 26.1121 882.795 26.1121 Q883.564 26.1121 884.496 26.2337 Q885.428 26.3147 886.562 26.5172 L886.603 34.1734 Z" fill="#000000" fill-rule="nonzero" fill-opacity="1" /><path clip-path="url(#clip060)" d="M928.286 35.9153 Q931.082 30.8922 934.97 28.5022 Q938.859 26.1121 944.125 26.1121 Q951.215 26.1121 955.063 31.0947 Q958.911 36.0368 958.911 45.1919 L958.911 72.576 L951.417 72.576 L951.417 45.4349 Q951.417 38.913 949.108 35.7533 Q946.799 32.5936 942.059 32.5936 Q936.267 32.5936 932.904 36.4419 Q929.542 40.2903 929.542 46.9338 L929.542 72.576 L922.048 72.576 L922.048 45.4349 Q922.048 38.8725 919.739 35.7533 Q917.43 32.5936 912.609 32.5936 Q906.898 32.5936 903.535 36.4824 Q900.173 40.3308 900.173 46.9338 L900.173 72.576 L892.679 72.576 L892.679 27.2059 L900.173 27.2059 L900.173 34.2544 Q902.725 30.082 906.29 28.0971 Q909.855 26.1121 914.756 26.1121 Q919.698 26.1121 923.142 28.6237 Q926.626 31.1352 928.286 35.9153 Z" fill="#000000" fill-rule="nonzero" fill-opacity="1" /><path clip-path="url(#clip060)" d="M994.397 49.7694 Q985.364 49.7694 981.88 51.8354 Q978.396 53.9013 978.396 58.8839 Q978.396 62.8538 980.989 65.2034 Q983.622 67.5124 988.118 67.5124 Q994.316 67.5124 998.043 63.1374 Q1001.81 58.7219 1001.81 51.4303 L1001.81 49.7694 L994.397 49.7694 M1009.26 46.6907 L1009.26 72.576 L1001.81 72.576 L1001.81 65.6895 Q999.258 69.8214 995.45 71.8063 Q991.643 73.7508 986.133 73.7508 Q979.166 73.7508 975.034 69.8619 Q970.942 65.9325 970.942 59.3701 Q970.942 51.7138 976.047 47.825 Q981.191 43.9361 991.359 43.9361 L1001.81 43.9361 L1001.81 43.2069 Q1001.81 38.0623 998.408 35.2672 Q995.045 32.4315 988.928 32.4315 Q985.04 32.4315 981.353 33.3632 Q977.667 34.295 974.264 36.1584 L974.264 29.2718 Q978.356 27.692 982.204 26.9223 Q986.052 26.1121 989.698 26.1121 Q999.542 26.1121 1004.4 31.2163 Q1009.26 36.3204 1009.26 46.6907 Z" fill="#000000" fill-rule="nonzero" fill-opacity="1" /><path clip-path="url(#clip060)" d="M1062.33 45.1919 L1062.33 72.576 L1054.88 72.576 L1054.88 45.4349 Q1054.88 38.994 1052.37 35.7938 Q1049.85 32.5936 1044.83 32.5936 Q1038.8 32.5936 1035.31 36.4419 Q1031.83 40.2903 1031.83 46.9338 L1031.83 72.576 L1024.33 72.576 L1024.33 27.2059 L1031.83 27.2059 L1031.83 34.2544 Q1034.5 30.163 1038.11 28.1376 Q1041.75 26.1121 1046.49 26.1121 Q1054.31 26.1121 1058.32 30.9732 Q1062.33 35.7938 1062.33 45.1919 Z" fill="#000000" fill-rule="nonzero" fill-opacity="1" /><path clip-path="url(#clip060)" d="M1109.85 28.9478 L1109.85 35.9153 Q1106.69 34.1734 1103.49 33.3227 Q1100.33 32.4315 1097.09 32.4315 Q1089.84 32.4315 1085.83 37.0496 Q1081.82 41.6271 1081.82 49.9314 Q1081.82 58.2358 1085.83 62.8538 Q1089.84 67.4314 1097.09 67.4314 Q1100.33 67.4314 1103.49 66.5807 Q1106.69 65.6895 1109.85 63.9476 L1109.85 70.8341 Q1106.73 72.2924 1103.37 73.0216 Q1100.04 73.7508 1096.28 73.7508 Q1086.03 73.7508 1079.99 67.3098 Q1073.96 60.8689 1073.96 49.9314 Q1073.96 38.832 1080.03 32.472 Q1086.15 26.1121 1096.76 26.1121 Q1100.21 26.1121 1103.49 26.8413 Q1106.77 27.5299 1109.85 28.9478 Z" fill="#000000" fill-rule="nonzero" fill-opacity="1" /><path clip-path="url(#clip060)" d="M1161.62 48.0275 L1161.62 51.6733 L1127.35 51.6733 Q1127.83 59.3701 1131.97 63.421 Q1136.14 67.4314 1143.55 67.4314 Q1147.85 67.4314 1151.86 66.3781 Q1155.91 65.3249 1159.88 63.2184 L1159.88 70.267 Q1155.87 71.9684 1151.65 72.8596 Q1147.44 73.7508 1143.11 73.7508 Q1132.25 73.7508 1125.89 67.4314 Q1119.57 61.1119 1119.57 50.3365 Q1119.57 39.1965 1125.57 32.6746 Q1131.6 26.1121 1141.81 26.1121 Q1150.96 26.1121 1156.27 32.0264 Q1161.62 37.9003 1161.62 48.0275 M1154.16 45.84 Q1154.08 39.7232 1150.72 36.0774 Q1147.4 32.4315 1141.89 32.4315 Q1135.65 32.4315 1131.88 35.9558 Q1128.16 39.4801 1127.59 45.8805 L1154.16 45.84 Z" fill="#000000" fill-rule="nonzero" fill-opacity="1" /><path clip-path="url(#clip060)" d="M1208.73 43.6931 L1208.73 65.8515 L1221.86 65.8515 Q1228.46 65.8515 1231.62 63.1374 Q1234.82 60.3828 1234.82 54.752 Q1234.82 49.0808 1231.62 46.4072 Q1228.46 43.6931 1221.86 43.6931 L1208.73 43.6931 M1208.73 18.8205 L1208.73 37.0496 L1220.84 37.0496 Q1226.84 37.0496 1229.75 34.8216 Q1232.71 32.5531 1232.71 27.935 Q1232.71 23.3575 1229.75 21.089 Q1226.84 18.8205 1220.84 18.8205 L1208.73 18.8205 M1200.55 12.096 L1221.45 12.096 Q1230.81 12.096 1235.87 15.9849 Q1240.94 19.8737 1240.94 27.0438 Q1240.94 32.5936 1238.34 35.8748 Q1235.75 39.156 1230.73 39.9662 Q1236.76 41.2625 1240.08 45.3944 Q1243.45 49.4858 1243.45 55.6432 Q1243.45 63.745 1237.94 68.1605 Q1232.43 72.576 1222.26 72.576 L1200.55 72.576 L1200.55 12.096 Z" fill="#000000" fill-rule="nonzero" fill-opacity="1" /><path clip-path="url(#clip060)" d="M1295.95 48.0275 L1295.95 51.6733 L1261.68 51.6733 Q1262.16 59.3701 1266.29 63.421 Q1270.47 67.4314 1277.88 67.4314 Q1282.17 67.4314 1286.18 66.3781 Q1290.23 65.3249 1294.2 63.2184 L1294.2 70.267 Q1290.19 71.9684 1285.98 72.8596 Q1281.77 73.7508 1277.43 73.7508 Q1266.58 73.7508 1260.22 67.4314 Q1253.9 61.1119 1253.9 50.3365 Q1253.9 39.1965 1259.89 32.6746 Q1265.93 26.1121 1276.14 26.1121 Q1285.29 26.1121 1290.6 32.0264 Q1295.95 37.9003 1295.95 48.0275 M1288.49 45.84 Q1288.41 39.7232 1285.05 36.0774 Q1281.73 32.4315 1276.22 32.4315 Q1269.98 32.4315 1266.21 35.9558 Q1262.49 39.4801 1261.92 45.8805 L1288.49 45.84 Z" fill="#000000" fill-rule="nonzero" fill-opacity="1" /><path clip-path="url(#clip060)" d="M1345.89 45.1919 L1345.89 72.576 L1338.44 72.576 L1338.44 45.4349 Q1338.44 38.994 1335.93 35.7938 Q1333.42 32.5936 1328.39 32.5936 Q1322.36 32.5936 1318.87 36.4419 Q1315.39 40.2903 1315.39 46.9338 L1315.39 72.576 L1307.9 72.576 L1307.9 27.2059 L1315.39 27.2059 L1315.39 34.2544 Q1318.06 30.163 1321.67 28.1376 Q1325.32 26.1121 1330.06 26.1121 Q1337.87 26.1121 1341.88 30.9732 Q1345.89 35.7938 1345.89 45.1919 Z" fill="#000000" fill-rule="nonzero" fill-opacity="1" /><path clip-path="url(#clip060)" d="M1393.41 28.9478 L1393.41 35.9153 Q1390.25 34.1734 1387.05 33.3227 Q1383.89 32.4315 1380.65 32.4315 Q1373.4 32.4315 1369.39 37.0496 Q1365.38 41.6271 1365.38 49.9314 Q1365.38 58.2358 1369.39 62.8538 Q1373.4 67.4314 1380.65 67.4314 Q1383.89 67.4314 1387.05 66.5807 Q1390.25 65.6895 1393.41 63.9476 L1393.41 70.8341 Q1390.29 72.2924 1386.93 73.0216 Q1383.61 73.7508 1379.84 73.7508 Q1369.59 73.7508 1363.56 67.3098 Q1357.52 60.8689 1357.52 49.9314 Q1357.52 38.832 1363.6 32.472 Q1369.71 26.1121 1380.33 26.1121 Q1383.77 26.1121 1387.05 26.8413 Q1390.33 27.5299 1393.41 28.9478 Z" fill="#000000" fill-rule="nonzero" fill-opacity="1" /><path clip-path="url(#clip060)" d="M1444.09 45.1919 L1444.09 72.576 L1436.63 72.576 L1436.63 45.4349 Q1436.63 38.994 1434.12 35.7938 Q1431.61 32.5936 1426.59 32.5936 Q1420.55 32.5936 1417.07 36.4419 Q1413.58 40.2903 1413.58 46.9338 L1413.58 72.576 L1406.09 72.576 L1406.09 9.54393 L1413.58 9.54393 L1413.58 34.2544 Q1416.26 30.163 1419.86 28.1376 Q1423.51 26.1121 1428.25 26.1121 Q1436.07 26.1121 1440.08 30.9732 Q1444.09 35.7938 1444.09 45.1919 Z" fill="#000000" fill-rule="nonzero" fill-opacity="1" /><path clip-path="url(#clip060)" d="M1494.28 35.9153 Q1497.07 30.8922 1500.96 28.5022 Q1504.85 26.1121 1510.12 26.1121 Q1517.21 26.1121 1521.06 31.0947 Q1524.9 36.0368 1524.9 45.1919 L1524.9 72.576 L1517.41 72.576 L1517.41 45.4349 Q1517.41 38.913 1515.1 35.7533 Q1512.79 32.5936 1508.05 32.5936 Q1502.26 32.5936 1498.9 36.4419 Q1495.53 40.2903 1495.53 46.9338 L1495.53 72.576 L1488.04 72.576 L1488.04 45.4349 Q1488.04 38.8725 1485.73 35.7533 Q1483.42 32.5936 1478.6 32.5936 Q1472.89 32.5936 1469.53 36.4824 Q1466.17 40.3308 1466.17 46.9338 L1466.17 72.576 L1458.67 72.576 L1458.67 27.2059 L1466.17 27.2059 L1466.17 34.2544 Q1468.72 30.082 1472.28 28.0971 Q1475.85 26.1121 1480.75 26.1121 Q1485.69 26.1121 1489.13 28.6237 Q1492.62 31.1352 1494.28 35.9153 Z" fill="#000000" fill-rule="nonzero" fill-opacity="1" /><path clip-path="url(#clip060)" d="M1560.39 49.7694 Q1551.36 49.7694 1547.87 51.8354 Q1544.39 53.9013 1544.39 58.8839 Q1544.39 62.8538 1546.98 65.2034 Q1549.61 67.5124 1554.11 67.5124 Q1560.31 67.5124 1564.04 63.1374 Q1567.8 58.7219 1567.8 51.4303 L1567.8 49.7694 L1560.39 49.7694 M1575.26 46.6907 L1575.26 72.576 L1567.8 72.576 L1567.8 65.6895 Q1565.25 69.8214 1561.44 71.8063 Q1557.63 73.7508 1552.13 73.7508 Q1545.16 73.7508 1541.03 69.8619 Q1536.93 65.9325 1536.93 59.3701 Q1536.93 51.7138 1542.04 47.825 Q1547.18 43.9361 1557.35 43.9361 L1567.8 43.9361 L1567.8 43.2069 Q1567.8 38.0623 1564.4 35.2672 Q1561.04 32.4315 1554.92 32.4315 Q1551.03 32.4315 1547.35 33.3632 Q1543.66 34.295 1540.26 36.1584 L1540.26 29.2718 Q1544.35 27.692 1548.2 26.9223 Q1552.04 26.1121 1555.69 26.1121 Q1565.53 26.1121 1570.4 31.2163 Q1575.26 36.3204 1575.26 46.6907 Z" fill="#000000" fill-rule="nonzero" fill-opacity="1" /><path clip-path="url(#clip060)" d="M1616.9 34.1734 Q1615.64 33.4443 1614.14 33.1202 Q1612.69 32.7556 1610.9 32.7556 Q1604.58 32.7556 1601.18 36.8875 Q1597.82 40.9789 1597.82 48.6757 L1597.82 72.576 L1590.33 72.576 L1590.33 27.2059 L1597.82 27.2059 L1597.82 34.2544 Q1600.17 30.1225 1603.94 28.1376 Q1607.7 26.1121 1613.09 26.1121 Q1613.86 26.1121 1614.79 26.2337 Q1615.72 26.3147 1616.86 26.5172 L1616.9 34.1734 Z" fill="#000000" fill-rule="nonzero" fill-opacity="1" /><path clip-path="url(#clip060)" d="M1624.43 9.54393 L1631.93 9.54393 L1631.93 46.7717 L1654.17 27.2059 L1663.69 27.2059 L1639.63 48.4326 L1664.7 72.576 L1654.98 72.576 L1631.93 50.4176 L1631.93 72.576 L1624.43 72.576 L1624.43 9.54393 Z" fill="#000000" fill-rule="nonzero" fill-opacity="1" /><path clip-path="url(#clip060)" d="M1674.67 62.2867 L1683.21 62.2867 L1683.21 72.576 L1674.67 72.576 L1674.67 62.2867 M1674.67 29.6769 L1683.21 29.6769 L1683.21 39.9662 L1674.67 39.9662 L1674.67 29.6769 Z" fill="#000000" fill-rule="nonzero" fill-opacity="1" /><path clip-path="url(#clip060)" d="M1719.02 12.096 L1770.19 12.096 L1770.19 18.9825 L1748.72 18.9825 L1748.72 72.576 L1740.49 72.576 L1740.49 18.9825 L1719.02 18.9825 L1719.02 12.096 Z" fill="#000000" fill-rule="nonzero" fill-opacity="1" /><path clip-path="url(#clip060)" d="M1775.21 27.2059 L1782.66 27.2059 L1782.66 72.576 L1775.21 72.576 L1775.21 27.2059 M1775.21 9.54393 L1782.66 9.54393 L1782.66 18.9825 L1775.21 18.9825 L1775.21 9.54393 Z" fill="#000000" fill-rule="nonzero" fill-opacity="1" /><path clip-path="url(#clip060)" d="M1837.07 48.0275 L1837.07 51.6733 L1802.8 51.6733 Q1803.28 59.3701 1807.41 63.421 Q1811.59 67.4314 1819 67.4314 Q1823.29 67.4314 1827.3 66.3781 Q1831.35 65.3249 1835.32 63.2184 L1835.32 70.267 Q1831.31 71.9684 1827.1 72.8596 Q1822.89 73.7508 1818.55 73.7508 Q1807.7 73.7508 1801.34 67.4314 Q1795.02 61.1119 1795.02 50.3365 Q1795.02 39.1965 1801.01 32.6746 Q1807.05 26.1121 1817.26 26.1121 Q1826.41 26.1121 1831.72 32.0264 Q1837.07 37.9003 1837.07 48.0275 M1829.61 45.84 Q1829.53 39.7232 1826.17 36.0774 Q1822.85 32.4315 1817.34 32.4315 Q1811.1 32.4315 1807.33 35.9558 Q1803.61 39.4801 1803.04 45.8805 L1829.61 45.84 Z" fill="#000000" fill-rule="nonzero" fill-opacity="1" /><path clip-path="url(#clip060)" d="M1875.59 34.1734 Q1874.33 33.4443 1872.84 33.1202 Q1871.38 32.7556 1869.59 32.7556 Q1863.28 32.7556 1859.87 36.8875 Q1856.51 40.9789 1856.51 48.6757 L1856.51 72.576 L1849.02 72.576 L1849.02 27.2059 L1856.51 27.2059 L1856.51 34.2544 Q1858.86 30.1225 1862.63 28.1376 Q1866.39 26.1121 1871.78 26.1121 Q1872.55 26.1121 1873.48 26.2337 Q1874.42 26.3147 1875.55 26.5172 L1875.59 34.1734 Z" fill="#000000" fill-rule="nonzero" fill-opacity="1" /><path clip-path="url(#clip060)" d="M1917.88 65.6895 L1946.44 65.6895 L1946.44 72.576 L1908.04 72.576 L1908.04 65.6895 Q1912.7 60.8689 1920.72 52.7671 Q1928.78 44.6248 1930.84 42.2752 Q1934.77 37.8598 1936.31 34.8216 Q1937.89 31.7429 1937.89 28.7857 Q1937.89 23.9651 1934.49 20.927 Q1931.13 17.8888 1925.7 17.8888 Q1921.85 17.8888 1917.56 19.2256 Q1913.3 20.5624 1908.44 23.2765 L1908.44 15.0127 Q1913.39 13.0277 1917.68 12.015 Q1921.97 11.0023 1925.54 11.0023 Q1934.94 11.0023 1940.53 15.7013 Q1946.12 20.4004 1946.12 28.2591 Q1946.12 31.9859 1944.7 35.3482 Q1943.32 38.6699 1939.64 43.2069 Q1938.62 44.3817 1933.19 50.0125 Q1927.77 55.6027 1917.88 65.6895 Z" fill="#000000" fill-rule="nonzero" fill-opacity="1" /><path clip-path="url(#clip062)" d="M303.856 1483.43 L303.856 123.472 L370.096 123.472 L370.096 1483.43 L303.856 1483.43 L303.856 1483.43  Z" fill="#009af9" fill-rule="evenodd" fill-opacity="1"/>
<polyline clip-path="url(#clip062)" style="stroke:#000000; stroke-linecap:round; stroke-linejoin:round; stroke-width:4; stroke-opacity:1; fill:none" points="303.856,1483.43 303.856,123.472 370.096,123.472 370.096,1483.43 303.856,1483.43 "/>
<circle clip-path="url(#clip062)" style="fill:#009af9; stroke:none; fill-opacity:0" cx="336.976" cy="1483.43" r="2"/>
<path clip-path="url(#clip062)" d="M336.976 1486.45 L336.976 1480.42 L336.976 123.472 L336.976 123.472  Z" fill="#009af9" fill-rule="evenodd" fill-opacity="1"/>
<polyline clip-path="url(#clip062)" style="stroke:#000000; stroke-linecap:round; stroke-linejoin:round; stroke-width:4; stroke-opacity:1; fill:none" points="336.976,1486.45 336.976,1480.42 "/>
<line clip-path="url(#clip062)" x1="352.976" y1="1480.42" x2="320.976" y2="1480.42" style="stroke:#000000; stroke-width:4; stroke-opacity:1"/>
<path clip-path="url(#clip062)" d="M784.091 338.834 L784.091 123.472 L850.33 123.472 L850.33 338.834 L784.091 338.834 L784.091 338.834  Z" fill="#e26f46" fill-rule="evenodd" fill-opacity="1"/>
<polyline clip-path="url(#clip062)" style="stroke:#000000; stroke-linecap:round; stroke-linejoin:round; stroke-width:4; stroke-opacity:1; fill:none" points="784.091,338.834 784.091,123.472 850.33,123.472 850.33,338.834 784.091,338.834 "/>
<circle clip-path="url(#clip062)" style="fill:#e26f46; stroke:none; fill-opacity:0" cx="817.211" cy="338.834" r="2"/>
<path clip-path="url(#clip062)" d="M817.211 339.037 L817.211 338.632 L817.211 123.472 L817.211 123.472  Z" fill="#e26f46" fill-rule="evenodd" fill-opacity="1"/>
<polyline clip-path="url(#clip062)" style="stroke:#000000; stroke-linecap:round; stroke-linejoin:round; stroke-width:4; stroke-opacity:1; fill:none" points="817.211,339.037 817.211,338.632 "/>
<line clip-path="url(#clip062)" x1="833.211" y1="339.037" x2="801.211" y2="339.037" style="stroke:#000000; stroke-width:4; stroke-opacity:1"/>
<line clip-path="url(#clip062)" x1="833.211" y1="338.632" x2="801.211" y2="338.632" style="stroke:#000000; stroke-width:4; stroke-opacity:1"/>
<path clip-path="url(#clip062)" d="M1264.33 1483.43 L1264.33 123.472 L1330.56 123.472 L1330.56 1483.43 L1264.33 1483.43 L1264.33 1483.43  Z" fill="#3da44d" fill-rule="evenodd" fill-opacity="1"/>
<polyline clip-path="url(#clip062)" style="stroke:#000000; stroke-linecap:round; stroke-linejoin:round; stroke-width:4; stroke-opacity:1; fill:none" points="1264.33,1483.43 1264.33,123.472 1330.56,123.472 1330.56,1483.43 1264.33,1483.43 "/>
<circle clip-path="url(#clip062)" style="fill:#3da44d; stroke:none; fill-opacity:0" cx="1297.45" cy="1483.43" r="2"/>
<path clip-path="url(#clip062)" d="M1297.45 1486.45 L1297.45 1480.42 L1297.45 123.472 L1297.45 123.472  Z" fill="#3da44d" fill-rule="evenodd" fill-opacity="1"/>
<polyline clip-path="url(#clip062)" style="stroke:#000000; stroke-linecap:round; stroke-linejoin:round; stroke-width:4; stroke-opacity:1; fill:none" points="1297.45,1486.45 1297.45,1480.42 "/>
<line clip-path="url(#clip062)" x1="1313.45" y1="1480.42" x2="1281.45" y2="1480.42" style="stroke:#000000; stroke-width:4; stroke-opacity:1"/>
<path clip-path="url(#clip062)" d="M1744.56 1483.43 L1744.56 123.472 L1810.8 123.472 L1810.8 1483.43 L1744.56 1483.43 L1744.56 1483.43  Z" fill="#c271d2" fill-rule="evenodd" fill-opacity="1"/>
<polyline clip-path="url(#clip062)" style="stroke:#000000; stroke-linecap:round; stroke-linejoin:round; stroke-width:4; stroke-opacity:1; fill:none" points="1744.56,1483.43 1744.56,123.472 1810.8,123.472 1810.8,1483.43 1744.56,1483.43 "/>
<circle clip-path="url(#clip062)" style="fill:#c271d2; stroke:none; fill-opacity:0" cx="1777.68" cy="1483.43" r="2"/>
<path clip-path="url(#clip062)" d="M1777.68 1486.45 L1777.68 1480.42 L1777.68 123.472 L1777.68 123.472  Z" fill="#c271d2" fill-rule="evenodd" fill-opacity="1"/>
<polyline clip-path="url(#clip062)" style="stroke:#000000; stroke-linecap:round; stroke-linejoin:round; stroke-width:4; stroke-opacity:1; fill:none" points="1777.68,1486.45 1777.68,1480.42 "/>
<line clip-path="url(#clip062)" x1="1793.68" y1="1480.42" x2="1761.68" y2="1480.42" style="stroke:#000000; stroke-width:4; stroke-opacity:1"/>
<path clip-path="url(#clip062)" d="M2224.79 338.875 L2224.79 123.472 L2291.03 123.472 L2291.03 338.875 L2224.79 338.875 L2224.79 338.875  Z" fill="#ac8d18" fill-rule="evenodd" fill-opacity="1"/>
<polyline clip-path="url(#clip062)" style="stroke:#000000; stroke-linecap:round; stroke-linejoin:round; stroke-width:4; stroke-opacity:1; fill:none" points="2224.79,338.875 2224.79,123.472 2291.03,123.472 2291.03,338.875 2224.79,338.875 "/>
<circle clip-path="url(#clip062)" style="fill:#ac8d18; stroke:none; fill-opacity:0" cx="2257.91" cy="338.875" r="2"/>
<path clip-path="url(#clip062)" d="M2257.91 339.126 L2257.91 338.625 L2257.91 123.472 L2257.91 123.472  Z" fill="#ac8d18" fill-rule="evenodd" fill-opacity="1"/>
<polyline clip-path="url(#clip062)" style="stroke:#000000; stroke-linecap:round; stroke-linejoin:round; stroke-width:4; stroke-opacity:1; fill:none" points="2257.91,339.126 2257.91,338.625 "/>
<line clip-path="url(#clip062)" x1="2273.91" y1="339.126" x2="2241.91" y2="339.126" style="stroke:#000000; stroke-width:4; stroke-opacity:1"/>
<line clip-path="url(#clip062)" x1="2273.91" y1="338.625" x2="2241.91" y2="338.625" style="stroke:#000000; stroke-width:4; stroke-opacity:1"/>
</svg>
