<?xml version="1.0" encoding="utf-8"?>
<svg xmlns="http://www.w3.org/2000/svg" xmlns:xlink="http://www.w3.org/1999/xlink" width="600" height="400" viewBox="0 0 2400 1600">
<defs>
  <clipPath id="clip770">
    <rect x="0" y="0" width="2400" height="1600"/>
  </clipPath>
</defs>
<path clip-path="url(#clip770)" d="M0 1600 L2400 1600 L2400 8.88178e-14 L0 8.88178e-14  Z" fill="#ffffff" fill-rule="evenodd" fill-opacity="1"/>
<defs>
  <clipPath id="clip771">
    <rect x="440" y="207" width="1840" height="1187"/>
  </clipPath>
</defs>
<path clip-path="url(#clip770)" d="M456.988 1317.51 L2278.74 1317.51 L2278.74 207.94 L456.988 207.94  Z" fill="#ffffff" fill-rule="evenodd" fill-opacity="1"/>
<defs>
  <clipPath id="clip772">
    <rect x="456" y="207" width="1823" height="1111"/>
  </clipPath>
</defs>
<polyline clip-path="url(#clip772)" style="stroke:#222255; stroke-linecap:round; stroke-linejoin:round; stroke-width:2.2; stroke-opacity:0.05; fill:none" points="615.961,1317.51 615.961,207.94 "/>
<polyline clip-path="url(#clip772)" style="stroke:#222255; stroke-linecap:round; stroke-linejoin:round; stroke-width:2.2; stroke-opacity:0.05; fill:none" points="723.376,1317.51 723.376,207.94 "/>
<polyline clip-path="url(#clip772)" style="stroke:#222255; stroke-linecap:round; stroke-linejoin:round; stroke-width:2.2; stroke-opacity:0.05; fill:none" points="830.791,1317.51 830.791,207.94 "/>
<polyline clip-path="url(#clip772)" style="stroke:#222255; stroke-linecap:round; stroke-linejoin:round; stroke-width:2.2; stroke-opacity:0.05; fill:none" points="938.205,1317.51 938.205,207.94 "/>
<polyline clip-path="url(#clip772)" style="stroke:#222255; stroke-linecap:round; stroke-linejoin:round; stroke-width:2.2; stroke-opacity:0.05; fill:none" points="1153.03,1317.51 1153.03,207.94 "/>
<polyline clip-path="url(#clip772)" style="stroke:#222255; stroke-linecap:round; stroke-linejoin:round; stroke-width:2.2; stroke-opacity:0.05; fill:none" points="1260.45,1317.51 1260.45,207.94 "/>
<polyline clip-path="url(#clip772)" style="stroke:#222255; stroke-linecap:round; stroke-linejoin:round; stroke-width:2.2; stroke-opacity:0.05; fill:none" points="1367.86,1317.51 1367.86,207.94 "/>
<polyline clip-path="url(#clip772)" style="stroke:#222255; stroke-linecap:round; stroke-linejoin:round; stroke-width:2.2; stroke-opacity:0.05; fill:none" points="1475.28,1317.51 1475.28,207.94 "/>
<polyline clip-path="url(#clip772)" style="stroke:#222255; stroke-linecap:round; stroke-linejoin:round; stroke-width:2.2; stroke-opacity:0.05; fill:none" points="1690.11,1317.51 1690.11,207.94 "/>
<polyline clip-path="url(#clip772)" style="stroke:#222255; stroke-linecap:round; stroke-linejoin:round; stroke-width:2.2; stroke-opacity:0.05; fill:none" points="1797.52,1317.51 1797.52,207.94 "/>
<polyline clip-path="url(#clip772)" style="stroke:#222255; stroke-linecap:round; stroke-linejoin:round; stroke-width:2.2; stroke-opacity:0.05; fill:none" points="1904.94,1317.51 1904.94,207.94 "/>
<polyline clip-path="url(#clip772)" style="stroke:#222255; stroke-linecap:round; stroke-linejoin:round; stroke-width:2.2; stroke-opacity:0.05; fill:none" points="2012.35,1317.51 2012.35,207.94 "/>
<polyline clip-path="url(#clip772)" style="stroke:#222255; stroke-linecap:round; stroke-linejoin:round; stroke-width:2.2; stroke-opacity:0.05; fill:none" points="2227.18,1317.51 2227.18,207.94 "/>
<polyline clip-path="url(#clip772)" style="stroke:#222255; stroke-linecap:round; stroke-linejoin:round; stroke-width:2.2; stroke-opacity:0.05; fill:none" points="456.988,1290.94 2278.74,1290.94 "/>
<polyline clip-path="url(#clip772)" style="stroke:#222255; stroke-linecap:round; stroke-linejoin:round; stroke-width:2.2; stroke-opacity:0.05; fill:none" points="456.988,1241.86 2278.74,1241.86 "/>
<polyline clip-path="url(#clip772)" style="stroke:#222255; stroke-linecap:round; stroke-linejoin:round; stroke-width:2.2; stroke-opacity:0.05; fill:none" points="456.988,1192.79 2278.74,1192.79 "/>
<polyline clip-path="url(#clip772)" style="stroke:#222255; stroke-linecap:round; stroke-linejoin:round; stroke-width:2.2; stroke-opacity:0.05; fill:none" points="456.988,1094.65 2278.74,1094.65 "/>
<polyline clip-path="url(#clip772)" style="stroke:#222255; stroke-linecap:round; stroke-linejoin:round; stroke-width:2.2; stroke-opacity:0.05; fill:none" points="456.988,1045.57 2278.74,1045.57 "/>
<polyline clip-path="url(#clip772)" style="stroke:#222255; stroke-linecap:round; stroke-linejoin:round; stroke-width:2.2; stroke-opacity:0.05; fill:none" points="456.988,996.499 2278.74,996.499 "/>
<polyline clip-path="url(#clip772)" style="stroke:#222255; stroke-linecap:round; stroke-linejoin:round; stroke-width:2.2; stroke-opacity:0.05; fill:none" points="456.988,947.426 2278.74,947.426 "/>
<polyline clip-path="url(#clip772)" style="stroke:#222255; stroke-linecap:round; stroke-linejoin:round; stroke-width:2.2; stroke-opacity:0.05; fill:none" points="456.988,849.28 2278.74,849.28 "/>
<polyline clip-path="url(#clip772)" style="stroke:#222255; stroke-linecap:round; stroke-linejoin:round; stroke-width:2.2; stroke-opacity:0.05; fill:none" points="456.988,800.207 2278.74,800.207 "/>
<polyline clip-path="url(#clip772)" style="stroke:#222255; stroke-linecap:round; stroke-linejoin:round; stroke-width:2.2; stroke-opacity:0.05; fill:none" points="456.988,751.134 2278.74,751.134 "/>
<polyline clip-path="url(#clip772)" style="stroke:#222255; stroke-linecap:round; stroke-linejoin:round; stroke-width:2.2; stroke-opacity:0.05; fill:none" points="456.988,702.061 2278.74,702.061 "/>
<polyline clip-path="url(#clip772)" style="stroke:#222255; stroke-linecap:round; stroke-linejoin:round; stroke-width:2.2; stroke-opacity:0.05; fill:none" points="456.988,603.915 2278.74,603.915 "/>
<polyline clip-path="url(#clip772)" style="stroke:#222255; stroke-linecap:round; stroke-linejoin:round; stroke-width:2.2; stroke-opacity:0.05; fill:none" points="456.988,554.842 2278.74,554.842 "/>
<polyline clip-path="url(#clip772)" style="stroke:#222255; stroke-linecap:round; stroke-linejoin:round; stroke-width:2.2; stroke-opacity:0.05; fill:none" points="456.988,505.769 2278.74,505.769 "/>
<polyline clip-path="url(#clip772)" style="stroke:#222255; stroke-linecap:round; stroke-linejoin:round; stroke-width:2.2; stroke-opacity:0.05; fill:none" points="456.988,456.696 2278.74,456.696 "/>
<polyline clip-path="url(#clip772)" style="stroke:#222255; stroke-linecap:round; stroke-linejoin:round; stroke-width:2.2; stroke-opacity:0.05; fill:none" points="456.988,358.549 2278.74,358.549 "/>
<polyline clip-path="url(#clip772)" style="stroke:#222255; stroke-linecap:round; stroke-linejoin:round; stroke-width:2.2; stroke-opacity:0.05; fill:none" points="456.988,309.476 2278.74,309.476 "/>
<polyline clip-path="url(#clip772)" style="stroke:#222255; stroke-linecap:round; stroke-linejoin:round; stroke-width:2.2; stroke-opacity:0.05; fill:none" points="456.988,260.403 2278.74,260.403 "/>
<polyline clip-path="url(#clip772)" style="stroke:#222255; stroke-linecap:round; stroke-linejoin:round; stroke-width:2.2; stroke-opacity:0.05; fill:none" points="456.988,211.33 2278.74,211.33 "/>
<polyline clip-path="url(#clip772)" style="stroke:#222255; stroke-linecap:round; stroke-linejoin:round; stroke-width:2.2; stroke-opacity:0.1; fill:none" points="508.547,1317.51 508.547,207.94 "/>
<polyline clip-path="url(#clip772)" style="stroke:#222255; stroke-linecap:round; stroke-linejoin:round; stroke-width:2.2; stroke-opacity:0.1; fill:none" points="1045.62,1317.51 1045.62,207.94 "/>
<polyline clip-path="url(#clip772)" style="stroke:#222255; stroke-linecap:round; stroke-linejoin:round; stroke-width:2.2; stroke-opacity:0.1; fill:none" points="1582.69,1317.51 1582.69,207.94 "/>
<polyline clip-path="url(#clip772)" style="stroke:#222255; stroke-linecap:round; stroke-linejoin:round; stroke-width:2.2; stroke-opacity:0.1; fill:none" points="2119.77,1317.51 2119.77,207.94 "/>
<polyline clip-path="url(#clip772)" style="stroke:#222255; stroke-linecap:round; stroke-linejoin:round; stroke-width:2.2; stroke-opacity:0.1; fill:none" points="456.988,1143.72 2278.74,1143.72 "/>
<polyline clip-path="url(#clip772)" style="stroke:#222255; stroke-linecap:round; stroke-linejoin:round; stroke-width:2.2; stroke-opacity:0.1; fill:none" points="456.988,898.353 2278.74,898.353 "/>
<polyline clip-path="url(#clip772)" style="stroke:#222255; stroke-linecap:round; stroke-linejoin:round; stroke-width:2.2; stroke-opacity:0.1; fill:none" points="456.988,652.988 2278.74,652.988 "/>
<polyline clip-path="url(#clip772)" style="stroke:#222255; stroke-linecap:round; stroke-linejoin:round; stroke-width:2.2; stroke-opacity:0.1; fill:none" points="456.988,407.623 2278.74,407.623 "/>
<polyline clip-path="url(#clip770)" style="stroke:#222255; stroke-linecap:round; stroke-linejoin:round; stroke-width:4.4; stroke-opacity:0; fill:none" points="508.547,1317.51 508.547,1298.61 "/>
<polyline clip-path="url(#clip770)" style="stroke:#222255; stroke-linecap:round; stroke-linejoin:round; stroke-width:4.4; stroke-opacity:0; fill:none" points="1045.62,1317.51 1045.62,1298.61 "/>
<polyline clip-path="url(#clip770)" style="stroke:#222255; stroke-linecap:round; stroke-linejoin:round; stroke-width:4.4; stroke-opacity:0; fill:none" points="1582.69,1317.51 1582.69,1298.61 "/>
<polyline clip-path="url(#clip770)" style="stroke:#222255; stroke-linecap:round; stroke-linejoin:round; stroke-width:4.4; stroke-opacity:0; fill:none" points="2119.77,1317.51 2119.77,1298.61 "/>
<polyline clip-path="url(#clip770)" style="stroke:#222255; stroke-linecap:round; stroke-linejoin:round; stroke-width:4.4; stroke-opacity:0; fill:none" points="615.961,1317.51 615.961,1308.06 "/>
<polyline clip-path="url(#clip770)" style="stroke:#222255; stroke-linecap:round; stroke-linejoin:round; stroke-width:4.4; stroke-opacity:0; fill:none" points="723.376,1317.51 723.376,1308.06 "/>
<polyline clip-path="url(#clip770)" style="stroke:#222255; stroke-linecap:round; stroke-linejoin:round; stroke-width:4.4; stroke-opacity:0; fill:none" points="830.791,1317.51 830.791,1308.06 "/>
<polyline clip-path="url(#clip770)" style="stroke:#222255; stroke-linecap:round; stroke-linejoin:round; stroke-width:4.4; stroke-opacity:0; fill:none" points="938.205,1317.51 938.205,1308.06 "/>
<polyline clip-path="url(#clip770)" style="stroke:#222255; stroke-linecap:round; stroke-linejoin:round; stroke-width:4.4; stroke-opacity:0; fill:none" points="1153.03,1317.51 1153.03,1308.06 "/>
<polyline clip-path="url(#clip770)" style="stroke:#222255; stroke-linecap:round; stroke-linejoin:round; stroke-width:4.4; stroke-opacity:0; fill:none" points="1260.45,1317.51 1260.45,1308.06 "/>
<polyline clip-path="url(#clip770)" style="stroke:#222255; stroke-linecap:round; stroke-linejoin:round; stroke-width:4.4; stroke-opacity:0; fill:none" points="1367.86,1317.51 1367.86,1308.06 "/>
<polyline clip-path="url(#clip770)" style="stroke:#222255; stroke-linecap:round; stroke-linejoin:round; stroke-width:4.4; stroke-opacity:0; fill:none" points="1475.28,1317.51 1475.28,1308.06 "/>
<polyline clip-path="url(#clip770)" style="stroke:#222255; stroke-linecap:round; stroke-linejoin:round; stroke-width:4.4; stroke-opacity:0; fill:none" points="1690.11,1317.51 1690.11,1308.06 "/>
<polyline clip-path="url(#clip770)" style="stroke:#222255; stroke-linecap:round; stroke-linejoin:round; stroke-width:4.4; stroke-opacity:0; fill:none" points="1797.52,1317.51 1797.52,1308.06 "/>
<polyline clip-path="url(#clip770)" style="stroke:#222255; stroke-linecap:round; stroke-linejoin:round; stroke-width:4.4; stroke-opacity:0; fill:none" points="1904.94,1317.51 1904.94,1308.06 "/>
<polyline clip-path="url(#clip770)" style="stroke:#222255; stroke-linecap:round; stroke-linejoin:round; stroke-width:4.4; stroke-opacity:0; fill:none" points="2012.35,1317.51 2012.35,1308.06 "/>
<polyline clip-path="url(#clip770)" style="stroke:#222255; stroke-linecap:round; stroke-linejoin:round; stroke-width:4.4; stroke-opacity:0; fill:none" points="2227.18,1317.51 2227.18,1308.06 "/>
<g clip-path="url(#clip770)">
<text style="fill:#000000; fill-opacity:1; font-family:Century Gothic,CenturyGothic,AppleGothic,sans-serif; font-size:65px; text-anchor:middle;" transform="rotate(0, 508.547, 1394.48)" x="508.547" y="1394.48">0.0</text>
</g>
<g clip-path="url(#clip770)">
<text style="fill:#000000; fill-opacity:1; font-family:Century Gothic,CenturyGothic,AppleGothic,sans-serif; font-size:65px; text-anchor:middle;" transform="rotate(0, 1045.62, 1394.48)" x="1045.62" y="1394.48">0.5</text>
</g>
<g clip-path="url(#clip770)">
<text style="fill:#000000; fill-opacity:1; font-family:Century Gothic,CenturyGothic,AppleGothic,sans-serif; font-size:65px; text-anchor:middle;" transform="rotate(0, 1582.69, 1394.48)" x="1582.69" y="1394.48">1.0</text>
</g>
<g clip-path="url(#clip770)">
<text style="fill:#000000; fill-opacity:1; font-family:Century Gothic,CenturyGothic,AppleGothic,sans-serif; font-size:65px; text-anchor:middle;" transform="rotate(0, 2119.77, 1394.48)" x="2119.77" y="1394.48">1.5</text>
</g>
<g clip-path="url(#clip770)">
<text style="fill:#000000; fill-opacity:1; font-family:Century Gothic,CenturyGothic,AppleGothic,sans-serif; font-size:77px; text-anchor:middle;" transform="rotate(0, 1367.86, 1490.73)" x="1367.86" y="1490.73">Coupling Strength (α)</text>
</g>
<polyline clip-path="url(#clip770)" style="stroke:#222255; stroke-linecap:round; stroke-linejoin:round; stroke-width:4.4; stroke-opacity:0; fill:none" points="456.988,1143.72 475.885,1143.72 "/>
<polyline clip-path="url(#clip770)" style="stroke:#222255; stroke-linecap:round; stroke-linejoin:round; stroke-width:4.4; stroke-opacity:0; fill:none" points="456.988,898.353 475.885,898.353 "/>
<polyline clip-path="url(#clip770)" style="stroke:#222255; stroke-linecap:round; stroke-linejoin:round; stroke-width:4.4; stroke-opacity:0; fill:none" points="456.988,652.988 475.885,652.988 "/>
<polyline clip-path="url(#clip770)" style="stroke:#222255; stroke-linecap:round; stroke-linejoin:round; stroke-width:4.4; stroke-opacity:0; fill:none" points="456.988,407.623 475.885,407.623 "/>
<polyline clip-path="url(#clip770)" style="stroke:#222255; stroke-linecap:round; stroke-linejoin:round; stroke-width:4.4; stroke-opacity:0; fill:none" points="456.988,1290.94 466.437,1290.94 "/>
<polyline clip-path="url(#clip770)" style="stroke:#222255; stroke-linecap:round; stroke-linejoin:round; stroke-width:4.4; stroke-opacity:0; fill:none" points="456.988,1241.86 466.437,1241.86 "/>
<polyline clip-path="url(#clip770)" style="stroke:#222255; stroke-linecap:round; stroke-linejoin:round; stroke-width:4.4; stroke-opacity:0; fill:none" points="456.988,1192.79 466.437,1192.79 "/>
<polyline clip-path="url(#clip770)" style="stroke:#222255; stroke-linecap:round; stroke-linejoin:round; stroke-width:4.4; stroke-opacity:0; fill:none" points="456.988,1094.65 466.437,1094.65 "/>
<polyline clip-path="url(#clip770)" style="stroke:#222255; stroke-linecap:round; stroke-linejoin:round; stroke-width:4.4; stroke-opacity:0; fill:none" points="456.988,1045.57 466.437,1045.57 "/>
<polyline clip-path="url(#clip770)" style="stroke:#222255; stroke-linecap:round; stroke-linejoin:round; stroke-width:4.4; stroke-opacity:0; fill:none" points="456.988,996.499 466.437,996.499 "/>
<polyline clip-path="url(#clip770)" style="stroke:#222255; stroke-linecap:round; stroke-linejoin:round; stroke-width:4.4; stroke-opacity:0; fill:none" points="456.988,947.426 466.437,947.426 "/>
<polyline clip-path="url(#clip770)" style="stroke:#222255; stroke-linecap:round; stroke-linejoin:round; stroke-width:4.4; stroke-opacity:0; fill:none" points="456.988,849.28 466.437,849.28 "/>
<polyline clip-path="url(#clip770)" style="stroke:#222255; stroke-linecap:round; stroke-linejoin:round; stroke-width:4.4; stroke-opacity:0; fill:none" points="456.988,800.207 466.437,800.207 "/>
<polyline clip-path="url(#clip770)" style="stroke:#222255; stroke-linecap:round; stroke-linejoin:round; stroke-width:4.4; stroke-opacity:0; fill:none" points="456.988,751.134 466.437,751.134 "/>
<polyline clip-path="url(#clip770)" style="stroke:#222255; stroke-linecap:round; stroke-linejoin:round; stroke-width:4.4; stroke-opacity:0; fill:none" points="456.988,702.061 466.437,702.061 "/>
<polyline clip-path="url(#clip770)" style="stroke:#222255; stroke-linecap:round; stroke-linejoin:round; stroke-width:4.4; stroke-opacity:0; fill:none" points="456.988,603.915 466.437,603.915 "/>
<polyline clip-path="url(#clip770)" style="stroke:#222255; stroke-linecap:round; stroke-linejoin:round; stroke-width:4.4; stroke-opacity:0; fill:none" points="456.988,554.842 466.437,554.842 "/>
<polyline clip-path="url(#clip770)" style="stroke:#222255; stroke-linecap:round; stroke-linejoin:round; stroke-width:4.4; stroke-opacity:0; fill:none" points="456.988,505.769 466.437,505.769 "/>
<polyline clip-path="url(#clip770)" style="stroke:#222255; stroke-linecap:round; stroke-linejoin:round; stroke-width:4.4; stroke-opacity:0; fill:none" points="456.988,456.696 466.437,456.696 "/>
<polyline clip-path="url(#clip770)" style="stroke:#222255; stroke-linecap:round; stroke-linejoin:round; stroke-width:4.4; stroke-opacity:0; fill:none" points="456.988,358.549 466.437,358.549 "/>
<polyline clip-path="url(#clip770)" style="stroke:#222255; stroke-linecap:round; stroke-linejoin:round; stroke-width:4.4; stroke-opacity:0; fill:none" points="456.988,309.476 466.437,309.476 "/>
<polyline clip-path="url(#clip770)" style="stroke:#222255; stroke-linecap:round; stroke-linejoin:round; stroke-width:4.4; stroke-opacity:0; fill:none" points="456.988,260.403 466.437,260.403 "/>
<polyline clip-path="url(#clip770)" style="stroke:#222255; stroke-linecap:round; stroke-linejoin:round; stroke-width:4.4; stroke-opacity:0; fill:none" points="456.988,211.33 466.437,211.33 "/>
<g clip-path="url(#clip770)">
<text style="fill:#000000; fill-opacity:1; font-family:Century Gothic,CenturyGothic,AppleGothic,sans-serif; font-size:65px; text-anchor:middle;" transform="rotate(0, 323.154, 1167.72)" x="323.154" y="1167.72">0.0430</text>
</g>
<g clip-path="url(#clip770)">
<text style="fill:#000000; fill-opacity:1; font-family:Century Gothic,CenturyGothic,AppleGothic,sans-serif; font-size:65px; text-anchor:middle;" transform="rotate(0, 323.154, 922.353)" x="323.154" y="922.353">0.0435</text>
</g>
<g clip-path="url(#clip770)">
<text style="fill:#000000; fill-opacity:1; font-family:Century Gothic,CenturyGothic,AppleGothic,sans-serif; font-size:65px; text-anchor:middle;" transform="rotate(0, 323.154, 676.988)" x="323.154" y="676.988">0.0440</text>
</g>
<g clip-path="url(#clip770)">
<text style="fill:#000000; fill-opacity:1; font-family:Century Gothic,CenturyGothic,AppleGothic,sans-serif; font-size:65px; text-anchor:middle;" transform="rotate(0, 323.154, 431.623)" x="323.154" y="431.623">0.0445</text>
</g>
<g clip-path="url(#clip770)">
<text style="fill:#000000; fill-opacity:1; font-family:Century Gothic,CenturyGothic,AppleGothic,sans-serif; font-size:77px; text-anchor:middle;" transform="rotate(-90, 176.654, 762.722)" x="176.654" y="762.722">Trajectory Std</text>
</g>
<g clip-path="url(#clip770)">
<text style="fill:#000000; fill-opacity:1; font-family:Century Gothic,CenturyGothic,AppleGothic,sans-serif; font-size:91px; text-anchor:middle;" transform="rotate(0, 1367.86, 80.4)" x="1367.86" y="80.4">Stability Bifurcation: Tier 1</text>
</g>
<polyline clip-path="url(#clip772)" style="stroke:#0000ff; stroke-linecap:round; stroke-linejoin:round; stroke-width:8.8; stroke-opacity:1; fill:none" points="508.547,239.342 530.03,387.113 551.513,488.386 572.996,578.779 594.479,658.502 615.961,501.414 637.444,460.767 658.927,492.47 680.41,435.252 701.893,478.343 723.376,569.158 744.859,450.822 766.342,650.898 787.825,694.777 809.308,716.217 830.791,775.113 852.274,795.294 873.757,833.637 895.24,801.036 916.722,824.019 938.205,915.189 959.688,875.226 981.171,983.813 1002.65,1030.52 1024.14,1111.73 1045.62,1106.76 1067.1,1119.85 1088.59,1202 1110.07,1263.98 1131.55,1276.1 1153.03,1264.93 1174.52,1272.68 1196,1286.1 1217.48,1268.14 1238.97,1274.25 1260.45,1266.7 1281.93,1276.83 1303.42,1220.81 1324.9,1211.43 1346.38,1189.61 1367.86,1168.2 1389.35,1144.59 1410.83,1089.47 1432.31,1101.53 1453.8,1070.2 1475.28,1075.49 1496.76,1074.84 1518.24,1057.76 1539.73,1042.78 1561.21,1019.64 1582.69,1031.95 1604.18,1033.17 1625.66,1020.58 1647.14,975.762 1668.62,957.062 1690.11,937.777 1711.59,933.706 1733.07,913.421 1754.56,916.589 1776.04,876.835 1797.52,863.519 1819.01,777.364 1840.49,780.077 1861.97,718.712 1883.45,709.212 1904.94,684.894 1926.42,672.456 1947.9,681.399 1969.39,692.989 1990.87,691.866 2012.35,679.671 2033.83,633.308 2055.32,624.723 2076.8,624.786 2098.28,608.206 2119.77,607.086 2141.25,595.861 2162.73,583.686 2184.22,581.971 2205.7,596.441 2227.18,609.879 "/>
<circle clip-path="url(#clip772)" cx="508.547" cy="239.342" r="15.84" fill="#008000" fill-rule="evenodd" fill-opacity="1" stroke="none"/>
<circle clip-path="url(#clip772)" cx="530.03" cy="387.113" r="15.84" fill="#008000" fill-rule="evenodd" fill-opacity="1" stroke="none"/>
<circle clip-path="url(#clip772)" cx="551.513" cy="488.386" r="15.84" fill="#008000" fill-rule="evenodd" fill-opacity="1" stroke="none"/>
<circle clip-path="url(#clip772)" cx="572.996" cy="578.779" r="15.84" fill="#008000" fill-rule="evenodd" fill-opacity="1" stroke="none"/>
<circle clip-path="url(#clip772)" cx="594.479" cy="658.502" r="15.84" fill="#008000" fill-rule="evenodd" fill-opacity="1" stroke="none"/>
<circle clip-path="url(#clip772)" cx="615.961" cy="501.414" r="15.84" fill="#008000" fill-rule="evenodd" fill-opacity="1" stroke="none"/>
<circle clip-path="url(#clip772)" cx="637.444" cy="460.767" r="15.84" fill="#008000" fill-rule="evenodd" fill-opacity="1" stroke="none"/>
<circle clip-path="url(#clip772)" cx="658.927" cy="492.47" r="15.84" fill="#008000" fill-rule="evenodd" fill-opacity="1" stroke="none"/>
<circle clip-path="url(#clip772)" cx="680.41" cy="435.252" r="15.84" fill="#008000" fill-rule="evenodd" fill-opacity="1" stroke="none"/>
<circle clip-path="url(#clip772)" cx="701.893" cy="478.343" r="15.84" fill="#008000" fill-rule="evenodd" fill-opacity="1" stroke="none"/>
<circle clip-path="url(#clip772)" cx="723.376" cy="569.158" r="15.84" fill="#008000" fill-rule="evenodd" fill-opacity="1" stroke="none"/>
<circle clip-path="url(#clip772)" cx="744.859" cy="450.822" r="15.84" fill="#008000" fill-rule="evenodd" fill-opacity="1" stroke="none"/>
<circle clip-path="url(#clip772)" cx="766.342" cy="650.898" r="15.84" fill="#008000" fill-rule="evenodd" fill-opacity="1" stroke="none"/>
<circle clip-path="url(#clip772)" cx="787.825" cy="694.777" r="15.84" fill="#008000" fill-rule="evenodd" fill-opacity="1" stroke="none"/>
<circle clip-path="url(#clip772)" cx="809.308" cy="716.217" r="15.84" fill="#008000" fill-rule="evenodd" fill-opacity="1" stroke="none"/>
<circle clip-path="url(#clip772)" cx="830.791" cy="775.113" r="15.84" fill="#008000" fill-rule="evenodd" fill-opacity="1" stroke="none"/>
<circle clip-path="url(#clip772)" cx="852.274" cy="795.294" r="15.84" fill="#008000" fill-rule="evenodd" fill-opacity="1" stroke="none"/>
<circle clip-path="url(#clip772)" cx="873.757" cy="833.637" r="15.84" fill="#008000" fill-rule="evenodd" fill-opacity="1" stroke="none"/>
<circle clip-path="url(#clip772)" cx="895.24" cy="801.036" r="15.84" fill="#008000" fill-rule="evenodd" fill-opacity="1" stroke="none"/>
<circle clip-path="url(#clip772)" cx="916.722" cy="824.019" r="15.84" fill="#008000" fill-rule="evenodd" fill-opacity="1" stroke="none"/>
<circle clip-path="url(#clip772)" cx="938.205" cy="915.189" r="15.84" fill="#008000" fill-rule="evenodd" fill-opacity="1" stroke="none"/>
<circle clip-path="url(#clip772)" cx="959.688" cy="875.226" r="15.84" fill="#008000" fill-rule="evenodd" fill-opacity="1" stroke="none"/>
<circle clip-path="url(#clip772)" cx="981.171" cy="983.813" r="15.84" fill="#008000" fill-rule="evenodd" fill-opacity="1" stroke="none"/>
<circle clip-path="url(#clip772)" cx="1002.65" cy="1030.52" r="15.84" fill="#008000" fill-rule="evenodd" fill-opacity="1" stroke="none"/>
<circle clip-path="url(#clip772)" cx="1024.14" cy="1111.73" r="15.84" fill="#008000" fill-rule="evenodd" fill-opacity="1" stroke="none"/>
<circle clip-path="url(#clip772)" cx="1045.62" cy="1106.76" r="15.84" fill="#008000" fill-rule="evenodd" fill-opacity="1" stroke="none"/>
<circle clip-path="url(#clip772)" cx="1067.1" cy="1119.85" r="15.84" fill="#008000" fill-rule="evenodd" fill-opacity="1" stroke="none"/>
<circle clip-path="url(#clip772)" cx="1088.59" cy="1202" r="15.84" fill="#008000" fill-rule="evenodd" fill-opacity="1" stroke="none"/>
<circle clip-path="url(#clip772)" cx="1110.07" cy="1263.98" r="15.84" fill="#008000" fill-rule="evenodd" fill-opacity="1" stroke="none"/>
<circle clip-path="url(#clip772)" cx="1131.55" cy="1276.1" r="15.84" fill="#008000" fill-rule="evenodd" fill-opacity="1" stroke="none"/>
<circle clip-path="url(#clip772)" cx="1153.03" cy="1264.93" r="15.84" fill="#008000" fill-rule="evenodd" fill-opacity="1" stroke="none"/>
<circle clip-path="url(#clip772)" cx="1174.52" cy="1272.68" r="15.84" fill="#008000" fill-rule="evenodd" fill-opacity="1" stroke="none"/>
<circle clip-path="url(#clip772)" cx="1196" cy="1286.1" r="15.84" fill="#008000" fill-rule="evenodd" fill-opacity="1" stroke="none"/>
<circle clip-path="url(#clip772)" cx="1217.48" cy="1268.14" r="15.84" fill="#008000" fill-rule="evenodd" fill-opacity="1" stroke="none"/>
<circle clip-path="url(#clip772)" cx="1238.97" cy="1274.25" r="15.84" fill="#008000" fill-rule="evenodd" fill-opacity="1" stroke="none"/>
<circle clip-path="url(#clip772)" cx="1260.45" cy="1266.7" r="15.84" fill="#008000" fill-rule="evenodd" fill-opacity="1" stroke="none"/>
<circle clip-path="url(#clip772)" cx="1281.93" cy="1276.83" r="15.84" fill="#008000" fill-rule="evenodd" fill-opacity="1" stroke="none"/>
<circle clip-path="url(#clip772)" cx="1303.42" cy="1220.81" r="15.84" fill="#008000" fill-rule="evenodd" fill-opacity="1" stroke="none"/>
<circle clip-path="url(#clip772)" cx="1324.9" cy="1211.43" r="15.84" fill="#008000" fill-rule="evenodd" fill-opacity="1" stroke="none"/>
<circle clip-path="url(#clip772)" cx="1346.38" cy="1189.61" r="15.84" fill="#008000" fill-rule="evenodd" fill-opacity="1" stroke="none"/>
<circle clip-path="url(#clip772)" cx="1367.86" cy="1168.2" r="15.84" fill="#008000" fill-rule="evenodd" fill-opacity="1" stroke="none"/>
<circle clip-path="url(#clip772)" cx="1389.35" cy="1144.59" r="15.84" fill="#008000" fill-rule="evenodd" fill-opacity="1" stroke="none"/>
<circle clip-path="url(#clip772)" cx="1410.83" cy="1089.47" r="15.84" fill="#008000" fill-rule="evenodd" fill-opacity="1" stroke="none"/>
<circle clip-path="url(#clip772)" cx="1432.31" cy="1101.53" r="15.84" fill="#008000" fill-rule="evenodd" fill-opacity="1" stroke="none"/>
<circle clip-path="url(#clip772)" cx="1453.8" cy="1070.2" r="15.84" fill="#008000" fill-rule="evenodd" fill-opacity="1" stroke="none"/>
<circle clip-path="url(#clip772)" cx="1475.28" cy="1075.49" r="15.84" fill="#008000" fill-rule="evenodd" fill-opacity="1" stroke="none"/>
<circle clip-path="url(#clip772)" cx="1496.76" cy="1074.84" r="15.84" fill="#008000" fill-rule="evenodd" fill-opacity="1" stroke="none"/>
<circle clip-path="url(#clip772)" cx="1518.24" cy="1057.76" r="15.84" fill="#008000" fill-rule="evenodd" fill-opacity="1" stroke="none"/>
<circle clip-path="url(#clip772)" cx="1539.73" cy="1042.78" r="15.84" fill="#008000" fill-rule="evenodd" fill-opacity="1" stroke="none"/>
<circle clip-path="url(#clip772)" cx="1561.21" cy="1019.64" r="15.84" fill="#008000" fill-rule="evenodd" fill-opacity="1" stroke="none"/>
<circle clip-path="url(#clip772)" cx="1582.69" cy="1031.95" r="15.84" fill="#008000" fill-rule="evenodd" fill-opacity="1" stroke="none"/>
<circle clip-path="url(#clip772)" cx="1604.18" cy="1033.17" r="15.84" fill="#008000" fill-rule="evenodd" fill-opacity="1" stroke="none"/>
<circle clip-path="url(#clip772)" cx="1625.66" cy="1020.58" r="15.84" fill="#008000" fill-rule="evenodd" fill-opacity="1" stroke="none"/>
<circle clip-path="url(#clip772)" cx="1647.14" cy="975.762" r="15.84" fill="#008000" fill-rule="evenodd" fill-opacity="1" stroke="none"/>
<circle clip-path="url(#clip772)" cx="1668.62" cy="957.062" r="15.84" fill="#008000" fill-rule="evenodd" fill-opacity="1" stroke="none"/>
<circle clip-path="url(#clip772)" cx="1690.11" cy="937.777" r="15.84" fill="#008000" fill-rule="evenodd" fill-opacity="1" stroke="none"/>
<circle clip-path="url(#clip772)" cx="1711.59" cy="933.706" r="15.84" fill="#008000" fill-rule="evenodd" fill-opacity="1" stroke="none"/>
<circle clip-path="url(#clip772)" cx="1733.07" cy="913.421" r="15.84" fill="#008000" fill-rule="evenodd" fill-opacity="1" stroke="none"/>
<circle clip-path="url(#clip772)" cx="1754.56" cy="916.589" r="15.84" fill="#008000" fill-rule="evenodd" fill-opacity="1" stroke="none"/>
<circle clip-path="url(#clip772)" cx="1776.04" cy="876.835" r="15.84" fill="#008000" fill-rule="evenodd" fill-opacity="1" stroke="none"/>
<circle clip-path="url(#clip772)" cx="1797.52" cy="863.519" r="15.84" fill="#008000" fill-rule="evenodd" fill-opacity="1" stroke="none"/>
<circle clip-path="url(#clip772)" cx="1819.01" cy="777.364" r="15.84" fill="#008000" fill-rule="evenodd" fill-opacity="1" stroke="none"/>
<circle clip-path="url(#clip772)" cx="1840.49" cy="780.077" r="15.84" fill="#008000" fill-rule="evenodd" fill-opacity="1" stroke="none"/>
<circle clip-path="url(#clip772)" cx="1861.97" cy="718.712" r="15.84" fill="#008000" fill-rule="evenodd" fill-opacity="1" stroke="none"/>
<circle clip-path="url(#clip772)" cx="1883.45" cy="709.212" r="15.84" fill="#008000" fill-rule="evenodd" fill-opacity="1" stroke="none"/>
<circle clip-path="url(#clip772)" cx="1904.94" cy="684.894" r="15.84" fill="#008000" fill-rule="evenodd" fill-opacity="1" stroke="none"/>
<circle clip-path="url(#clip772)" cx="1926.42" cy="672.456" r="15.84" fill="#008000" fill-rule="evenodd" fill-opacity="1" stroke="none"/>
<circle clip-path="url(#clip772)" cx="1947.9" cy="681.399" r="15.84" fill="#008000" fill-rule="evenodd" fill-opacity="1" stroke="none"/>
<circle clip-path="url(#clip772)" cx="1969.39" cy="692.989" r="15.84" fill="#008000" fill-rule="evenodd" fill-opacity="1" stroke="none"/>
<circle clip-path="url(#clip772)" cx="1990.87" cy="691.866" r="15.84" fill="#008000" fill-rule="evenodd" fill-opacity="1" stroke="none"/>
<circle clip-path="url(#clip772)" cx="2012.35" cy="679.671" r="15.84" fill="#008000" fill-rule="evenodd" fill-opacity="1" stroke="none"/>
<circle clip-path="url(#clip772)" cx="2033.83" cy="633.308" r="15.84" fill="#008000" fill-rule="evenodd" fill-opacity="1" stroke="none"/>
<circle clip-path="url(#clip772)" cx="2055.32" cy="624.723" r="15.84" fill="#008000" fill-rule="evenodd" fill-opacity="1" stroke="none"/>
<circle clip-path="url(#clip772)" cx="2076.8" cy="624.786" r="15.84" fill="#008000" fill-rule="evenodd" fill-opacity="1" stroke="none"/>
<circle clip-path="url(#clip772)" cx="2098.28" cy="608.206" r="15.84" fill="#008000" fill-rule="evenodd" fill-opacity="1" stroke="none"/>
<circle clip-path="url(#clip772)" cx="2119.77" cy="607.086" r="15.84" fill="#008000" fill-rule="evenodd" fill-opacity="1" stroke="none"/>
<circle clip-path="url(#clip772)" cx="2141.25" cy="595.861" r="15.84" fill="#008000" fill-rule="evenodd" fill-opacity="1" stroke="none"/>
<circle clip-path="url(#clip772)" cx="2162.73" cy="583.686" r="15.84" fill="#008000" fill-rule="evenodd" fill-opacity="1" stroke="none"/>
<circle clip-path="url(#clip772)" cx="2184.22" cy="581.971" r="15.84" fill="#008000" fill-rule="evenodd" fill-opacity="1" stroke="none"/>
<circle clip-path="url(#clip772)" cx="2205.7" cy="596.441" r="15.84" fill="#008000" fill-rule="evenodd" fill-opacity="1" stroke="none"/>
<circle clip-path="url(#clip772)" cx="2227.18" cy="609.879" r="15.84" fill="#008000" fill-rule="evenodd" fill-opacity="1" stroke="none"/>
<path clip-path="url(#clip770)" d="M1448.9 447.592 L2218.02 447.592 L2218.02 244.925 L1448.9 244.925  Z" fill="#ffffff" fill-rule="evenodd" fill-opacity="0.9"/>
<polyline clip-path="url(#clip770)" style="stroke:#222255; stroke-linecap:round; stroke-linejoin:round; stroke-width:4.4; stroke-opacity:0.1; fill:none" points="1448.9,447.592 2218.02,447.592 2218.02,244.925 1448.9,244.925 1448.9,447.592 "/>
<polyline clip-path="url(#clip770)" style="stroke:#0000ff; stroke-linecap:round; stroke-linejoin:round; stroke-width:11; stroke-opacity:1; fill:none" points="1469.15,312.481 1590.6,312.481 "/>
<g clip-path="url(#clip770)">
<text style="fill:#000000; fill-opacity:1; font-family:Century Gothic,CenturyGothic,AppleGothic,sans-serif; font-size:65px; text-anchor:start;" transform="rotate(0, 1610.84, 336.481)" x="1610.84" y="336.481">Empirical Variance</text>
</g>
<circle clip-path="url(#clip770)" cx="1529.87" cy="380.036" r="28.8" fill="#008000" fill-rule="evenodd" fill-opacity="1" stroke="none"/>
<g clip-path="url(#clip770)">
<text style="fill:#000000; fill-opacity:1; font-family:Century Gothic,CenturyGothic,AppleGothic,sans-serif; font-size:65px; text-anchor:start;" transform="rotate(0, 1610.84, 404.036)" x="1610.84" y="404.036">Convergent</text>
</g>
</svg>
