<?xml version="1.0" encoding="utf-8"?>
<svg xmlns="http://www.w3.org/2000/svg" xmlns:xlink="http://www.w3.org/1999/xlink" width="600" height="400" viewBox="0 0 2400 1600">
<defs>
  <clipPath id="clip580">
    <rect x="0" y="0" width="2400" height="1600"/>
  </clipPath>
</defs>
<path clip-path="url(#clip580)" d="M0 1600 L2400 1600 L2400 8.88178e-14 L0 8.88178e-14  Z" fill="#ffffff" fill-rule="evenodd" fill-opacity="1"/>
<defs>
  <clipPath id="clip581">
    <rect x="698" y="207" width="1187" height="1187"/>
  </clipPath>
</defs>
<path clip-path="url(#clip580)" d="M400.901 1394.28 L2278.74 1394.28 L2278.74 207.94 L400.901 207.94  Z" fill="#ffffff" fill-rule="evenodd" fill-opacity="1"/>
<defs>
  <clipPath id="clip582">
    <rect x="400" y="207" width="1879" height="1187"/>
  </clipPath>
</defs>
<polyline clip-path="url(#clip582)" style="stroke:#222255; stroke-linecap:round; stroke-linejoin:round; stroke-width:2.2; stroke-opacity:0.05; fill:none" points="409.759,1394.28 409.759,207.94 "/>
<polyline clip-path="url(#clip582)" style="stroke:#222255; stroke-linecap:round; stroke-linejoin:round; stroke-width:2.2; stroke-opacity:0.05; fill:none" points="487.264,1394.28 487.264,207.94 "/>
<polyline clip-path="url(#clip582)" style="stroke:#222255; stroke-linecap:round; stroke-linejoin:round; stroke-width:2.2; stroke-opacity:0.05; fill:none" points="642.275,1394.28 642.275,207.94 "/>
<polyline clip-path="url(#clip582)" style="stroke:#222255; stroke-linecap:round; stroke-linejoin:round; stroke-width:2.2; stroke-opacity:0.05; fill:none" points="719.78,1394.28 719.78,207.94 "/>
<polyline clip-path="url(#clip582)" style="stroke:#222255; stroke-linecap:round; stroke-linejoin:round; stroke-width:2.2; stroke-opacity:0.05; fill:none" points="797.285,1394.28 797.285,207.94 "/>
<polyline clip-path="url(#clip582)" style="stroke:#222255; stroke-linecap:round; stroke-linejoin:round; stroke-width:2.2; stroke-opacity:0.05; fill:none" points="874.79,1394.28 874.79,207.94 "/>
<polyline clip-path="url(#clip582)" style="stroke:#222255; stroke-linecap:round; stroke-linejoin:round; stroke-width:2.2; stroke-opacity:0.05; fill:none" points="1029.8,1394.28 1029.8,207.94 "/>
<polyline clip-path="url(#clip582)" style="stroke:#222255; stroke-linecap:round; stroke-linejoin:round; stroke-width:2.2; stroke-opacity:0.05; fill:none" points="1107.31,1394.28 1107.31,207.94 "/>
<polyline clip-path="url(#clip582)" style="stroke:#222255; stroke-linecap:round; stroke-linejoin:round; stroke-width:2.2; stroke-opacity:0.05; fill:none" points="1184.81,1394.28 1184.81,207.94 "/>
<polyline clip-path="url(#clip582)" style="stroke:#222255; stroke-linecap:round; stroke-linejoin:round; stroke-width:2.2; stroke-opacity:0.05; fill:none" points="1262.32,1394.28 1262.32,207.94 "/>
<polyline clip-path="url(#clip582)" style="stroke:#222255; stroke-linecap:round; stroke-linejoin:round; stroke-width:2.2; stroke-opacity:0.05; fill:none" points="1417.33,1394.28 1417.33,207.94 "/>
<polyline clip-path="url(#clip582)" style="stroke:#222255; stroke-linecap:round; stroke-linejoin:round; stroke-width:2.2; stroke-opacity:0.05; fill:none" points="1494.83,1394.28 1494.83,207.94 "/>
<polyline clip-path="url(#clip582)" style="stroke:#222255; stroke-linecap:round; stroke-linejoin:round; stroke-width:2.2; stroke-opacity:0.05; fill:none" points="1572.34,1394.28 1572.34,207.94 "/>
<polyline clip-path="url(#clip582)" style="stroke:#222255; stroke-linecap:round; stroke-linejoin:round; stroke-width:2.2; stroke-opacity:0.05; fill:none" points="1649.84,1394.28 1649.84,207.94 "/>
<polyline clip-path="url(#clip582)" style="stroke:#222255; stroke-linecap:round; stroke-linejoin:round; stroke-width:2.2; stroke-opacity:0.05; fill:none" points="1804.85,1394.28 1804.85,207.94 "/>
<polyline clip-path="url(#clip582)" style="stroke:#222255; stroke-linecap:round; stroke-linejoin:round; stroke-width:2.2; stroke-opacity:0.05; fill:none" points="1882.36,1394.28 1882.36,207.94 "/>
<polyline clip-path="url(#clip582)" style="stroke:#222255; stroke-linecap:round; stroke-linejoin:round; stroke-width:2.2; stroke-opacity:0.05; fill:none" points="1959.86,1394.28 1959.86,207.94 "/>
<polyline clip-path="url(#clip582)" style="stroke:#222255; stroke-linecap:round; stroke-linejoin:round; stroke-width:2.2; stroke-opacity:0.05; fill:none" points="2037.37,1394.28 2037.37,207.94 "/>
<polyline clip-path="url(#clip582)" style="stroke:#222255; stroke-linecap:round; stroke-linejoin:round; stroke-width:2.2; stroke-opacity:0.05; fill:none" points="2192.38,1394.28 2192.38,207.94 "/>
<polyline clip-path="url(#clip582)" style="stroke:#222255; stroke-linecap:round; stroke-linejoin:round; stroke-width:2.2; stroke-opacity:0.05; fill:none" points="2269.88,1394.28 2269.88,207.94 "/>
<polyline clip-path="url(#clip582)" style="stroke:#222255; stroke-linecap:round; stroke-linejoin:round; stroke-width:2.2; stroke-opacity:0.05; fill:none" points="400.901,1353.62 2278.74,1353.62 "/>
<polyline clip-path="url(#clip582)" style="stroke:#222255; stroke-linecap:round; stroke-linejoin:round; stroke-width:2.2; stroke-opacity:0.05; fill:none" points="400.901,1249.5 2278.74,1249.5 "/>
<polyline clip-path="url(#clip582)" style="stroke:#222255; stroke-linecap:round; stroke-linejoin:round; stroke-width:2.2; stroke-opacity:0.05; fill:none" points="400.901,1197.44 2278.74,1197.44 "/>
<polyline clip-path="url(#clip582)" style="stroke:#222255; stroke-linecap:round; stroke-linejoin:round; stroke-width:2.2; stroke-opacity:0.05; fill:none" points="400.901,1145.38 2278.74,1145.38 "/>
<polyline clip-path="url(#clip582)" style="stroke:#222255; stroke-linecap:round; stroke-linejoin:round; stroke-width:2.2; stroke-opacity:0.05; fill:none" points="400.901,1093.32 2278.74,1093.32 "/>
<polyline clip-path="url(#clip582)" style="stroke:#222255; stroke-linecap:round; stroke-linejoin:round; stroke-width:2.2; stroke-opacity:0.05; fill:none" points="400.901,989.2 2278.74,989.2 "/>
<polyline clip-path="url(#clip582)" style="stroke:#222255; stroke-linecap:round; stroke-linejoin:round; stroke-width:2.2; stroke-opacity:0.05; fill:none" points="400.901,937.141 2278.74,937.141 "/>
<polyline clip-path="url(#clip582)" style="stroke:#222255; stroke-linecap:round; stroke-linejoin:round; stroke-width:2.2; stroke-opacity:0.05; fill:none" points="400.901,885.082 2278.74,885.082 "/>
<polyline clip-path="url(#clip582)" style="stroke:#222255; stroke-linecap:round; stroke-linejoin:round; stroke-width:2.2; stroke-opacity:0.05; fill:none" points="400.901,833.022 2278.74,833.022 "/>
<polyline clip-path="url(#clip582)" style="stroke:#222255; stroke-linecap:round; stroke-linejoin:round; stroke-width:2.2; stroke-opacity:0.05; fill:none" points="400.901,728.904 2278.74,728.904 "/>
<polyline clip-path="url(#clip582)" style="stroke:#222255; stroke-linecap:round; stroke-linejoin:round; stroke-width:2.2; stroke-opacity:0.05; fill:none" points="400.901,676.844 2278.74,676.844 "/>
<polyline clip-path="url(#clip582)" style="stroke:#222255; stroke-linecap:round; stroke-linejoin:round; stroke-width:2.2; stroke-opacity:0.05; fill:none" points="400.901,624.785 2278.74,624.785 "/>
<polyline clip-path="url(#clip582)" style="stroke:#222255; stroke-linecap:round; stroke-linejoin:round; stroke-width:2.2; stroke-opacity:0.05; fill:none" points="400.901,572.726 2278.74,572.726 "/>
<polyline clip-path="url(#clip582)" style="stroke:#222255; stroke-linecap:round; stroke-linejoin:round; stroke-width:2.2; stroke-opacity:0.05; fill:none" points="400.901,468.607 2278.74,468.607 "/>
<polyline clip-path="url(#clip582)" style="stroke:#222255; stroke-linecap:round; stroke-linejoin:round; stroke-width:2.2; stroke-opacity:0.05; fill:none" points="400.901,416.547 2278.74,416.547 "/>
<polyline clip-path="url(#clip582)" style="stroke:#222255; stroke-linecap:round; stroke-linejoin:round; stroke-width:2.2; stroke-opacity:0.05; fill:none" points="400.901,364.488 2278.74,364.488 "/>
<polyline clip-path="url(#clip582)" style="stroke:#222255; stroke-linecap:round; stroke-linejoin:round; stroke-width:2.2; stroke-opacity:0.05; fill:none" points="400.901,312.429 2278.74,312.429 "/>
<polyline clip-path="url(#clip582)" style="stroke:#222255; stroke-linecap:round; stroke-linejoin:round; stroke-width:2.2; stroke-opacity:0.05; fill:none" points="400.901,208.31 2278.74,208.31 "/>
<polyline clip-path="url(#clip582)" style="stroke:#222255; stroke-linecap:round; stroke-linejoin:round; stroke-width:2.2; stroke-opacity:0.1; fill:none" points="564.769,1394.28 564.769,207.94 "/>
<polyline clip-path="url(#clip582)" style="stroke:#222255; stroke-linecap:round; stroke-linejoin:round; stroke-width:2.2; stroke-opacity:0.1; fill:none" points="952.295,1394.28 952.295,207.94 "/>
<polyline clip-path="url(#clip582)" style="stroke:#222255; stroke-linecap:round; stroke-linejoin:round; stroke-width:2.2; stroke-opacity:0.1; fill:none" points="1339.82,1394.28 1339.82,207.94 "/>
<polyline clip-path="url(#clip582)" style="stroke:#222255; stroke-linecap:round; stroke-linejoin:round; stroke-width:2.2; stroke-opacity:0.1; fill:none" points="1727.35,1394.28 1727.35,207.94 "/>
<polyline clip-path="url(#clip582)" style="stroke:#222255; stroke-linecap:round; stroke-linejoin:round; stroke-width:2.2; stroke-opacity:0.1; fill:none" points="2114.87,1394.28 2114.87,207.94 "/>
<polyline clip-path="url(#clip582)" style="stroke:#222255; stroke-linecap:round; stroke-linejoin:round; stroke-width:2.2; stroke-opacity:0.1; fill:none" points="400.901,1301.56 2278.74,1301.56 "/>
<polyline clip-path="url(#clip582)" style="stroke:#222255; stroke-linecap:round; stroke-linejoin:round; stroke-width:2.2; stroke-opacity:0.1; fill:none" points="400.901,1041.26 2278.74,1041.26 "/>
<polyline clip-path="url(#clip582)" style="stroke:#222255; stroke-linecap:round; stroke-linejoin:round; stroke-width:2.2; stroke-opacity:0.1; fill:none" points="400.901,780.963 2278.74,780.963 "/>
<polyline clip-path="url(#clip582)" style="stroke:#222255; stroke-linecap:round; stroke-linejoin:round; stroke-width:2.2; stroke-opacity:0.1; fill:none" points="400.901,520.666 2278.74,520.666 "/>
<polyline clip-path="url(#clip582)" style="stroke:#222255; stroke-linecap:round; stroke-linejoin:round; stroke-width:2.2; stroke-opacity:0.1; fill:none" points="400.901,260.369 2278.74,260.369 "/>
<polyline clip-path="url(#clip580)" style="stroke:#222255; stroke-linecap:round; stroke-linejoin:round; stroke-width:4.4; stroke-opacity:0; fill:none" points="564.769,1394.28 564.769,1375.38 "/>
<polyline clip-path="url(#clip580)" style="stroke:#222255; stroke-linecap:round; stroke-linejoin:round; stroke-width:4.4; stroke-opacity:0; fill:none" points="952.295,1394.28 952.295,1375.38 "/>
<polyline clip-path="url(#clip580)" style="stroke:#222255; stroke-linecap:round; stroke-linejoin:round; stroke-width:4.4; stroke-opacity:0; fill:none" points="1339.82,1394.28 1339.82,1375.38 "/>
<polyline clip-path="url(#clip580)" style="stroke:#222255; stroke-linecap:round; stroke-linejoin:round; stroke-width:4.4; stroke-opacity:0; fill:none" points="1727.35,1394.28 1727.35,1375.38 "/>
<polyline clip-path="url(#clip580)" style="stroke:#222255; stroke-linecap:round; stroke-linejoin:round; stroke-width:4.4; stroke-opacity:0; fill:none" points="2114.87,1394.28 2114.87,1375.38 "/>
<polyline clip-path="url(#clip580)" style="stroke:#222255; stroke-linecap:round; stroke-linejoin:round; stroke-width:4.4; stroke-opacity:0; fill:none" points="409.759,1394.28 409.759,1384.83 "/>
<polyline clip-path="url(#clip580)" style="stroke:#222255; stroke-linecap:round; stroke-linejoin:round; stroke-width:4.4; stroke-opacity:0; fill:none" points="487.264,1394.28 487.264,1384.83 "/>
<polyline clip-path="url(#clip580)" style="stroke:#222255; stroke-linecap:round; stroke-linejoin:round; stroke-width:4.4; stroke-opacity:0; fill:none" points="642.275,1394.28 642.275,1384.83 "/>
<polyline clip-path="url(#clip580)" style="stroke:#222255; stroke-linecap:round; stroke-linejoin:round; stroke-width:4.4; stroke-opacity:0; fill:none" points="719.78,1394.28 719.78,1384.83 "/>
<polyline clip-path="url(#clip580)" style="stroke:#222255; stroke-linecap:round; stroke-linejoin:round; stroke-width:4.4; stroke-opacity:0; fill:none" points="797.285,1394.28 797.285,1384.83 "/>
<polyline clip-path="url(#clip580)" style="stroke:#222255; stroke-linecap:round; stroke-linejoin:round; stroke-width:4.4; stroke-opacity:0; fill:none" points="874.79,1394.28 874.79,1384.83 "/>
<polyline clip-path="url(#clip580)" style="stroke:#222255; stroke-linecap:round; stroke-linejoin:round; stroke-width:4.4; stroke-opacity:0; fill:none" points="1029.8,1394.28 1029.8,1384.83 "/>
<polyline clip-path="url(#clip580)" style="stroke:#222255; stroke-linecap:round; stroke-linejoin:round; stroke-width:4.4; stroke-opacity:0; fill:none" points="1107.31,1394.28 1107.31,1384.83 "/>
<polyline clip-path="url(#clip580)" style="stroke:#222255; stroke-linecap:round; stroke-linejoin:round; stroke-width:4.4; stroke-opacity:0; fill:none" points="1184.81,1394.28 1184.81,1384.83 "/>
<polyline clip-path="url(#clip580)" style="stroke:#222255; stroke-linecap:round; stroke-linejoin:round; stroke-width:4.4; stroke-opacity:0; fill:none" points="1262.32,1394.28 1262.32,1384.83 "/>
<polyline clip-path="url(#clip580)" style="stroke:#222255; stroke-linecap:round; stroke-linejoin:round; stroke-width:4.4; stroke-opacity:0; fill:none" points="1417.33,1394.28 1417.33,1384.83 "/>
<polyline clip-path="url(#clip580)" style="stroke:#222255; stroke-linecap:round; stroke-linejoin:round; stroke-width:4.4; stroke-opacity:0; fill:none" points="1494.83,1394.28 1494.83,1384.83 "/>
<polyline clip-path="url(#clip580)" style="stroke:#222255; stroke-linecap:round; stroke-linejoin:round; stroke-width:4.4; stroke-opacity:0; fill:none" points="1572.34,1394.28 1572.34,1384.83 "/>
<polyline clip-path="url(#clip580)" style="stroke:#222255; stroke-linecap:round; stroke-linejoin:round; stroke-width:4.4; stroke-opacity:0; fill:none" points="1649.84,1394.28 1649.84,1384.83 "/>
<polyline clip-path="url(#clip580)" style="stroke:#222255; stroke-linecap:round; stroke-linejoin:round; stroke-width:4.4; stroke-opacity:0; fill:none" points="1804.85,1394.28 1804.85,1384.83 "/>
<polyline clip-path="url(#clip580)" style="stroke:#222255; stroke-linecap:round; stroke-linejoin:round; stroke-width:4.4; stroke-opacity:0; fill:none" points="1882.36,1394.28 1882.36,1384.83 "/>
<polyline clip-path="url(#clip580)" style="stroke:#222255; stroke-linecap:round; stroke-linejoin:round; stroke-width:4.4; stroke-opacity:0; fill:none" points="1959.86,1394.28 1959.86,1384.83 "/>
<polyline clip-path="url(#clip580)" style="stroke:#222255; stroke-linecap:round; stroke-linejoin:round; stroke-width:4.4; stroke-opacity:0; fill:none" points="2037.37,1394.28 2037.37,1384.83 "/>
<polyline clip-path="url(#clip580)" style="stroke:#222255; stroke-linecap:round; stroke-linejoin:round; stroke-width:4.4; stroke-opacity:0; fill:none" points="2192.38,1394.28 2192.38,1384.83 "/>
<polyline clip-path="url(#clip580)" style="stroke:#222255; stroke-linecap:round; stroke-linejoin:round; stroke-width:4.4; stroke-opacity:0; fill:none" points="2269.88,1394.28 2269.88,1384.83 "/>
<g clip-path="url(#clip580)">
<text style="fill:#000000; fill-opacity:1; font-family:Century Gothic,CenturyGothic,AppleGothic,sans-serif; font-size:65px; text-anchor:middle;" transform="rotate(0, 564.769, 1471.25)" x="564.769" y="1471.25">EGP</text>
</g>
<g clip-path="url(#clip580)">
<text style="fill:#000000; fill-opacity:1; font-family:Century Gothic,CenturyGothic,AppleGothic,sans-serif; font-size:65px; text-anchor:middle;" transform="rotate(0, 952.295, 1471.25)" x="952.295" y="1471.25">FPRL</text>
</g>
<g clip-path="url(#clip580)">
<text style="fill:#000000; fill-opacity:1; font-family:Century Gothic,CenturyGothic,AppleGothic,sans-serif; font-size:65px; text-anchor:middle;" transform="rotate(0, 1339.82, 1471.25)" x="1339.82" y="1471.25">ICRL</text>
</g>
<g clip-path="url(#clip580)">
<text style="fill:#000000; fill-opacity:1; font-family:Century Gothic,CenturyGothic,AppleGothic,sans-serif; font-size:65px; text-anchor:middle;" transform="rotate(0, 1727.35, 1471.25)" x="1727.35" y="1471.25">PPO</text>
</g>
<g clip-path="url(#clip580)">
<text style="fill:#000000; fill-opacity:1; font-family:Century Gothic,CenturyGothic,AppleGothic,sans-serif; font-size:65px; text-anchor:middle;" transform="rotate(0, 2114.87, 1471.25)" x="2114.87" y="1471.25">SAC</text>
</g>
<polyline clip-path="url(#clip580)" style="stroke:#222255; stroke-linecap:round; stroke-linejoin:round; stroke-width:4.4; stroke-opacity:0; fill:none" points="400.901,1301.56 419.799,1301.56 "/>
<polyline clip-path="url(#clip580)" style="stroke:#222255; stroke-linecap:round; stroke-linejoin:round; stroke-width:4.4; stroke-opacity:0; fill:none" points="400.901,1041.26 419.799,1041.26 "/>
<polyline clip-path="url(#clip580)" style="stroke:#222255; stroke-linecap:round; stroke-linejoin:round; stroke-width:4.4; stroke-opacity:0; fill:none" points="400.901,780.963 419.799,780.963 "/>
<polyline clip-path="url(#clip580)" style="stroke:#222255; stroke-linecap:round; stroke-linejoin:round; stroke-width:4.4; stroke-opacity:0; fill:none" points="400.901,520.666 419.799,520.666 "/>
<polyline clip-path="url(#clip580)" style="stroke:#222255; stroke-linecap:round; stroke-linejoin:round; stroke-width:4.4; stroke-opacity:0; fill:none" points="400.901,260.369 419.799,260.369 "/>
<polyline clip-path="url(#clip580)" style="stroke:#222255; stroke-linecap:round; stroke-linejoin:round; stroke-width:4.4; stroke-opacity:0; fill:none" points="400.901,1353.62 410.35,1353.62 "/>
<polyline clip-path="url(#clip580)" style="stroke:#222255; stroke-linecap:round; stroke-linejoin:round; stroke-width:4.4; stroke-opacity:0; fill:none" points="400.901,1249.5 410.35,1249.5 "/>
<polyline clip-path="url(#clip580)" style="stroke:#222255; stroke-linecap:round; stroke-linejoin:round; stroke-width:4.4; stroke-opacity:0; fill:none" points="400.901,1197.44 410.35,1197.44 "/>
<polyline clip-path="url(#clip580)" style="stroke:#222255; stroke-linecap:round; stroke-linejoin:round; stroke-width:4.4; stroke-opacity:0; fill:none" points="400.901,1145.38 410.35,1145.38 "/>
<polyline clip-path="url(#clip580)" style="stroke:#222255; stroke-linecap:round; stroke-linejoin:round; stroke-width:4.4; stroke-opacity:0; fill:none" points="400.901,1093.32 410.35,1093.32 "/>
<polyline clip-path="url(#clip580)" style="stroke:#222255; stroke-linecap:round; stroke-linejoin:round; stroke-width:4.4; stroke-opacity:0; fill:none" points="400.901,989.2 410.35,989.2 "/>
<polyline clip-path="url(#clip580)" style="stroke:#222255; stroke-linecap:round; stroke-linejoin:round; stroke-width:4.4; stroke-opacity:0; fill:none" points="400.901,937.141 410.35,937.141 "/>
<polyline clip-path="url(#clip580)" style="stroke:#222255; stroke-linecap:round; stroke-linejoin:round; stroke-width:4.4; stroke-opacity:0; fill:none" points="400.901,885.082 410.35,885.082 "/>
<polyline clip-path="url(#clip580)" style="stroke:#222255; stroke-linecap:round; stroke-linejoin:round; stroke-width:4.4; stroke-opacity:0; fill:none" points="400.901,833.022 410.35,833.022 "/>
<polyline clip-path="url(#clip580)" style="stroke:#222255; stroke-linecap:round; stroke-linejoin:round; stroke-width:4.4; stroke-opacity:0; fill:none" points="400.901,728.904 410.35,728.904 "/>
<polyline clip-path="url(#clip580)" style="stroke:#222255; stroke-linecap:round; stroke-linejoin:round; stroke-width:4.4; stroke-opacity:0; fill:none" points="400.901,676.844 410.35,676.844 "/>
<polyline clip-path="url(#clip580)" style="stroke:#222255; stroke-linecap:round; stroke-linejoin:round; stroke-width:4.4; stroke-opacity:0; fill:none" points="400.901,624.785 410.35,624.785 "/>
<polyline clip-path="url(#clip580)" style="stroke:#222255; stroke-linecap:round; stroke-linejoin:round; stroke-width:4.4; stroke-opacity:0; fill:none" points="400.901,572.726 410.35,572.726 "/>
<polyline clip-path="url(#clip580)" style="stroke:#222255; stroke-linecap:round; stroke-linejoin:round; stroke-width:4.4; stroke-opacity:0; fill:none" points="400.901,468.607 410.35,468.607 "/>
<polyline clip-path="url(#clip580)" style="stroke:#222255; stroke-linecap:round; stroke-linejoin:round; stroke-width:4.4; stroke-opacity:0; fill:none" points="400.901,416.547 410.35,416.547 "/>
<polyline clip-path="url(#clip580)" style="stroke:#222255; stroke-linecap:round; stroke-linejoin:round; stroke-width:4.4; stroke-opacity:0; fill:none" points="400.901,364.488 410.35,364.488 "/>
<polyline clip-path="url(#clip580)" style="stroke:#222255; stroke-linecap:round; stroke-linejoin:round; stroke-width:4.4; stroke-opacity:0; fill:none" points="400.901,312.429 410.35,312.429 "/>
<polyline clip-path="url(#clip580)" style="stroke:#222255; stroke-linecap:round; stroke-linejoin:round; stroke-width:4.4; stroke-opacity:0; fill:none" points="400.901,208.31 410.35,208.31 "/>
<g clip-path="url(#clip580)">
<text style="fill:#000000; fill-opacity:1; font-family:Century Gothic,CenturyGothic,AppleGothic,sans-serif; font-size:65px; text-anchor:middle;" transform="rotate(0, 292.562, 1325.56)" x="292.562" y="1325.56">−450</text>
</g>
<g clip-path="url(#clip580)">
<text style="fill:#000000; fill-opacity:1; font-family:Century Gothic,CenturyGothic,AppleGothic,sans-serif; font-size:65px; text-anchor:middle;" transform="rotate(0, 292.562, 1065.26)" x="292.562" y="1065.26">−400</text>
</g>
<g clip-path="url(#clip580)">
<text style="fill:#000000; fill-opacity:1; font-family:Century Gothic,CenturyGothic,AppleGothic,sans-serif; font-size:65px; text-anchor:middle;" transform="rotate(0, 292.562, 804.963)" x="292.562" y="804.963">−350</text>
</g>
<g clip-path="url(#clip580)">
<text style="fill:#000000; fill-opacity:1; font-family:Century Gothic,CenturyGothic,AppleGothic,sans-serif; font-size:65px; text-anchor:middle;" transform="rotate(0, 292.562, 544.666)" x="292.562" y="544.666">−300</text>
</g>
<g clip-path="url(#clip580)">
<text style="fill:#000000; fill-opacity:1; font-family:Century Gothic,CenturyGothic,AppleGothic,sans-serif; font-size:65px; text-anchor:middle;" transform="rotate(0, 292.562, 284.369)" x="292.562" y="284.369">−250</text>
</g>
<g clip-path="url(#clip580)">
<text style="fill:#000000; fill-opacity:1; font-family:Century Gothic,CenturyGothic,AppleGothic,sans-serif; font-size:77px; text-anchor:middle;" transform="rotate(-90, 171.556, 801.108)" x="171.556" y="801.108">Reward Distribution</text>
</g>
<g clip-path="url(#clip580)">
<text style="fill:#000000; fill-opacity:1; font-family:Century Gothic,CenturyGothic,AppleGothic,sans-serif; font-size:91px; text-anchor:middle;" transform="rotate(0, 1339.82, 80.4)" x="1339.82" y="80.4">Performance Density: Tier 1</text>
</g>
<path clip-path="url(#clip582)" d="M569.489 1280.91 L569.795 1273.26 L570.067 1265.62 L570.296 1257.97 L570.476 1250.32 L570.603 1242.68 L570.675 1235.03 L570.691 1227.38 L570.654 1219.74 L570.569 1212.09 L570.445 1204.45 L570.293 1196.8 L570.126 1189.15 L569.96 1181.51 L569.811 1173.86 L569.698 1166.21 L569.637 1158.57 L569.645 1150.92 L569.738 1143.28 L569.928 1135.63 L570.225 1127.98 L570.638 1120.34 L571.168 1112.69 L571.818 1105.04 L572.584 1097.4 L573.461 1089.75 L574.441 1082.1 L575.515 1074.46 L576.672 1066.81 L577.904 1059.17 L579.202 1051.52 L580.557 1043.87 L581.967 1036.23 L583.427 1028.58 L584.94 1020.93 L586.508 1013.29 L588.136 1005.64 L589.829 997.996 L591.592 990.35 L593.43 982.704 L595.344 975.057 L597.332 967.411 L599.388 959.765 L601.504 952.119 L603.667 944.472 L605.862 936.826 L608.073 929.18 L610.284 921.534 L612.479 913.887 L614.646 906.241 L616.777 898.595 L618.867 890.949 L620.914 883.302 L622.922 875.656 L624.896 868.01 L626.843 860.364 L628.769 852.717 L630.681 845.071 L632.583 837.425 L634.473 829.779 L636.348 822.132 L638.198 814.486 L640.01 806.84 L641.763 799.194 L643.435 791.547 L645.002 783.901 L646.435 776.255 L647.71 768.609 L648.801 760.962 L649.691 753.316 L650.367 745.67 L650.829 738.024 L651.084 730.377 L651.154 722.731 L651.075 715.085 L650.893 707.439 L650.67 699.792 L650.472 692.146 L650.374 684.5 L650.448 676.853 L650.766 669.207 L651.386 661.561 L652.35 653.915 L653.683 646.268 L655.381 638.622 L657.415 630.976 L659.729 623.33 L662.24 615.683 L664.844 608.037 L667.42 600.391 L669.839 592.745 L671.969 585.098 L673.688 577.452 L674.89 569.806 L675.491 562.16 L675.436 554.513 L674.703 546.867 L673.299 539.221 L671.265 531.575 L668.666 523.928 L665.589 516.282 L662.134 508.636 L658.408 500.99 L654.516 493.343 L650.557 485.697 L646.614 478.051 L642.755 470.405 L639.027 462.758 L635.459 455.112 L632.059 447.466 L628.822 439.82 L625.727 432.173 L622.747 424.527 L619.849 416.881 L617.001 409.235 L614.173 401.588 L611.342 393.942 L608.495 386.296 L605.626 378.65 L602.74 371.003 L599.85 363.357 L596.976 355.711 L594.144 348.065 L591.381 340.418 L588.717 332.772 L586.177 325.126 L583.786 317.48 L581.561 309.833 L579.515 302.187 L577.654 294.541 L575.979 286.895 L574.486 279.248 L573.165 271.602 L572.004 263.956 L557.535 263.956 L556.374 271.602 L555.053 279.248 L553.56 286.895 L551.885 294.541 L550.024 302.187 L547.978 309.833 L545.753 317.48 L543.361 325.126 L540.822 332.772 L538.157 340.418 L535.395 348.065 L532.562 355.711 L529.689 363.357 L526.799 371.003 L523.913 378.65 L521.044 386.296 L518.196 393.942 L515.366 401.588 L512.538 409.235 L509.689 416.881 L506.791 424.527 L503.811 432.173 L500.717 439.82 L497.479 447.466 L494.08 455.112 L490.512 462.758 L486.784 470.405 L482.925 478.051 L478.982 485.697 L475.022 493.343 L471.131 500.99 L467.405 508.636 L463.95 516.282 L460.873 523.928 L458.274 531.575 L456.24 539.221 L454.836 546.867 L454.102 554.513 L454.048 562.16 L454.649 569.806 L455.851 577.452 L457.57 585.098 L459.7 592.745 L462.118 600.391 L464.695 608.037 L467.299 615.683 L469.81 623.33 L472.124 630.976 L474.158 638.622 L475.856 646.268 L477.188 653.915 L478.153 661.561 L478.773 669.207 L479.09 676.853 L479.165 684.5 L479.067 692.146 L478.869 699.792 L478.645 707.439 L478.464 715.085 L478.385 722.731 L478.455 730.377 L478.71 738.024 L479.171 745.67 L479.848 753.316 L480.738 760.962 L481.829 768.609 L483.103 776.255 L484.537 783.901 L486.103 791.547 L487.776 799.194 L489.529 806.84 L491.34 814.486 L493.191 822.132 L495.066 829.779 L496.956 837.425 L498.858 845.071 L500.77 852.717 L502.696 860.364 L504.643 868.01 L506.617 875.656 L508.624 883.302 L510.672 890.949 L512.761 898.595 L514.892 906.241 L517.06 913.887 L519.255 921.534 L521.466 929.18 L523.677 936.826 L525.872 944.472 L528.035 952.119 L530.151 959.765 L532.207 967.411 L534.195 975.057 L536.109 982.704 L537.946 990.35 L539.71 997.996 L541.403 1005.64 L543.03 1013.29 L544.598 1020.93 L546.111 1028.58 L547.572 1036.23 L548.981 1043.87 L550.337 1051.52 L551.634 1059.17 L552.866 1066.81 L554.024 1074.46 L555.098 1082.1 L556.078 1089.75 L556.955 1097.4 L557.721 1105.04 L558.37 1112.69 L558.901 1120.34 L559.313 1127.98 L559.611 1135.63 L559.801 1143.28 L559.894 1150.92 L559.902 1158.57 L559.841 1166.21 L559.728 1173.86 L559.579 1181.51 L559.413 1189.15 L559.246 1196.8 L559.093 1204.45 L558.969 1212.09 L558.885 1219.74 L558.848 1227.38 L558.864 1235.03 L558.935 1242.68 L559.063 1250.32 L559.243 1257.97 L559.472 1265.62 L559.744 1273.26 L560.05 1280.91 L569.489 1280.91  Z" fill="#ee7733" fill-rule="evenodd" fill-opacity="0.4"/>
<polyline clip-path="url(#clip582)" style="stroke:#000000; stroke-linecap:round; stroke-linejoin:round; stroke-width:5.28; stroke-opacity:0.4; fill:none" points="569.489,1280.91 569.795,1273.26 570.067,1265.62 570.296,1257.97 570.476,1250.32 570.603,1242.68 570.675,1235.03 570.691,1227.38 570.654,1219.74 570.569,1212.09 570.445,1204.45 570.293,1196.8 570.126,1189.15 569.96,1181.51 569.811,1173.86 569.698,1166.21 569.637,1158.57 569.645,1150.92 569.738,1143.28 569.928,1135.63 570.225,1127.98 570.638,1120.34 571.168,1112.69 571.818,1105.04 572.584,1097.4 573.461,1089.75 574.441,1082.1 575.515,1074.46 576.672,1066.81 577.904,1059.17 579.202,1051.52 580.557,1043.87 581.967,1036.23 583.427,1028.58 584.94,1020.93 586.508,1013.29 588.136,1005.64 589.829,997.996 591.592,990.35 593.43,982.704 595.344,975.057 597.332,967.411 599.388,959.765 601.504,952.119 603.667,944.472 605.862,936.826 608.073,929.18 610.284,921.534 612.479,913.887 614.646,906.241 616.777,898.595 618.867,890.949 620.914,883.302 622.922,875.656 624.896,868.01 626.843,860.364 628.769,852.717 630.681,845.071 632.583,837.425 634.473,829.779 636.348,822.132 638.198,814.486 640.01,806.84 641.763,799.194 643.435,791.547 645.002,783.901 646.435,776.255 647.71,768.609 648.801,760.962 649.691,753.316 650.367,745.67 650.829,738.024 651.084,730.377 651.154,722.731 651.075,715.085 650.893,707.439 650.67,699.792 650.472,692.146 650.374,684.5 650.448,676.853 650.766,669.207 651.386,661.561 652.35,653.915 653.683,646.268 655.381,638.622 657.415,630.976 659.729,623.33 662.24,615.683 664.844,608.037 667.42,600.391 669.839,592.745 671.969,585.098 673.688,577.452 674.89,569.806 675.491,562.16 675.436,554.513 674.703,546.867 673.299,539.221 671.265,531.575 668.666,523.928 665.589,516.282 662.134,508.636 658.408,500.99 654.516,493.343 650.557,485.697 646.614,478.051 642.755,470.405 639.027,462.758 635.459,455.112 632.059,447.466 628.822,439.82 625.727,432.173 622.747,424.527 619.849,416.881 617.001,409.235 614.173,401.588 611.342,393.942 608.495,386.296 605.626,378.65 602.74,371.003 599.85,363.357 596.976,355.711 594.144,348.065 591.381,340.418 588.717,332.772 586.177,325.126 583.786,317.48 581.561,309.833 579.515,302.187 577.654,294.541 575.979,286.895 574.486,279.248 573.165,271.602 572.004,263.956 557.535,263.956 556.374,271.602 555.053,279.248 553.56,286.895 551.885,294.541 550.024,302.187 547.978,309.833 545.753,317.48 543.361,325.126 540.822,332.772 538.157,340.418 535.395,348.065 532.562,355.711 529.689,363.357 526.799,371.003 523.913,378.65 521.044,386.296 518.196,393.942 515.366,401.588 512.538,409.235 509.689,416.881 506.791,424.527 503.811,432.173 500.717,439.82 497.479,447.466 494.08,455.112 490.512,462.758 486.784,470.405 482.925,478.051 478.982,485.697 475.022,493.343 471.131,500.99 467.405,508.636 463.95,516.282 460.873,523.928 458.274,531.575 456.24,539.221 454.836,546.867 454.102,554.513 454.048,562.16 454.649,569.806 455.851,577.452 457.57,585.098 459.7,592.745 462.118,600.391 464.695,608.037 467.299,615.683 469.81,623.33 472.124,630.976 474.158,638.622 475.856,646.268 477.188,653.915 478.153,661.561 478.773,669.207 479.09,676.853 479.165,684.5 479.067,692.146 478.869,699.792 478.645,707.439 478.464,715.085 478.385,722.731 478.455,730.377 478.71,738.024 479.171,745.67 479.848,753.316 480.738,760.962 481.829,768.609 483.103,776.255 484.537,783.901 486.103,791.547 487.776,799.194 489.529,806.84 491.34,814.486 493.191,822.132 495.066,829.779 496.956,837.425 498.858,845.071 500.77,852.717 502.696,860.364 504.643,868.01 506.617,875.656 508.624,883.302 510.672,890.949 512.761,898.595 514.892,906.241 517.06,913.887 519.255,921.534 521.466,929.18 523.677,936.826 525.872,944.472 528.035,952.119 530.151,959.765 532.207,967.411 534.195,975.057 536.109,982.704 537.946,990.35 539.71,997.996 541.403,1005.64 543.03,1013.29 544.598,1020.93 546.111,1028.58 547.572,1036.23 548.981,1043.87 550.337,1051.52 551.634,1059.17 552.866,1066.81 554.024,1074.46 555.098,1082.1 556.078,1089.75 556.955,1097.4 557.721,1105.04 558.37,1112.69 558.901,1120.34 559.313,1127.98 559.611,1135.63 559.801,1143.28 559.894,1150.92 559.902,1158.57 559.841,1166.21 559.728,1173.86 559.579,1181.51 559.413,1189.15 559.246,1196.8 559.093,1204.45 558.969,1212.09 558.885,1219.74 558.848,1227.38 558.864,1235.03 558.935,1242.68 559.063,1250.32 559.243,1257.97 559.472,1265.62 559.744,1273.26 560.05,1280.91 569.489,1280.91 "/>
<path clip-path="url(#clip582)" d="M968.366 1259.65 L969.557 1256.65 L970.647 1253.64 L971.613 1250.64 L972.431 1247.63 L973.087 1244.63 L973.571 1241.63 L973.878 1238.62 L974.014 1235.62 L973.988 1232.61 L973.82 1229.61 L973.531 1226.61 L973.15 1223.6 L972.708 1220.6 L972.239 1217.59 L971.777 1214.59 L971.354 1211.59 L971.003 1208.58 L970.752 1205.58 L970.625 1202.57 L970.644 1199.57 L970.824 1196.57 L971.178 1193.56 L971.711 1190.56 L972.426 1187.56 L973.32 1184.55 L974.386 1181.55 L975.61 1178.54 L976.977 1175.54 L978.465 1172.54 L980.049 1169.53 L981.7 1166.53 L983.387 1163.52 L985.076 1160.52 L986.734 1157.52 L988.33 1154.51 L989.832 1151.51 L991.218 1148.5 L992.468 1145.5 L993.575 1142.5 L994.537 1139.49 L995.365 1136.49 L996.08 1133.49 L996.712 1130.48 L997.3 1127.48 L997.893 1124.47 L998.54 1121.47 L999.297 1118.47 L1000.22 1115.46 L1001.35 1112.46 L1002.74 1109.45 L1004.43 1106.45 L1006.43 1103.45 L1008.77 1100.44 L1011.43 1097.44 L1014.42 1094.43 L1017.71 1091.43 L1021.25 1088.43 L1025 1085.42 L1028.9 1082.42 L1032.88 1079.42 L1036.86 1076.41 L1040.78 1073.41 L1044.55 1070.4 L1048.09 1067.4 L1051.33 1064.4 L1054.2 1061.39 L1056.64 1058.39 L1058.61 1055.38 L1060.07 1052.38 L1061.02 1049.38 L1061.47 1046.37 L1061.43 1043.37 L1060.96 1040.36 L1060.12 1037.36 L1059 1034.36 L1057.68 1031.35 L1056.26 1028.35 L1054.85 1025.34 L1053.55 1022.34 L1052.44 1019.34 L1051.61 1016.33 L1051.1 1013.33 L1050.96 1010.33 L1051.19 1007.32 L1051.78 1004.32 L1052.7 1001.31 L1053.88 998.31 L1055.26 995.306 L1056.74 992.302 L1058.25 989.298 L1059.67 986.294 L1060.93 983.29 L1061.96 980.286 L1062.67 977.283 L1063.02 974.279 L1062.97 971.275 L1062.5 968.271 L1061.62 965.267 L1060.31 962.263 L1058.6 959.259 L1056.52 956.255 L1054.1 953.251 L1051.36 950.247 L1048.35 947.244 L1045.09 944.24 L1041.64 941.236 L1038.01 938.232 L1034.24 935.228 L1030.38 932.224 L1026.44 929.22 L1022.48 926.216 L1018.51 923.212 L1014.59 920.208 L1010.73 917.205 L1006.97 914.201 L1003.33 911.197 L999.846 908.193 L996.526 905.189 L993.384 902.185 L990.426 899.181 L987.65 896.177 L985.052 893.173 L982.621 890.169 L980.343 887.166 L978.204 884.162 L976.187 881.158 L974.277 878.154 L972.461 875.15 L970.728 872.146 L933.862 872.146 L932.129 875.15 L930.313 878.154 L928.403 881.158 L926.386 884.162 L924.247 887.166 L921.969 890.169 L919.538 893.173 L916.94 896.177 L914.164 899.181 L911.206 902.185 L908.064 905.189 L904.745 908.193 L901.259 911.197 L897.624 914.201 L893.864 917.205 L890.005 920.208 L886.076 923.212 L882.112 926.216 L878.146 929.22 L874.213 932.224 L870.347 935.228 L866.582 938.232 L862.954 941.236 L859.495 944.24 L856.242 947.244 L853.23 950.247 L850.493 953.251 L848.068 956.255 L845.987 959.259 L844.281 962.263 L842.975 965.267 L842.086 968.271 L841.621 971.275 L841.573 974.279 L841.924 977.283 L842.635 980.286 L843.655 983.29 L844.918 986.294 L846.344 989.298 L847.846 992.302 L849.331 995.306 L850.708 998.31 L851.891 1001.31 L852.807 1004.32 L853.4 1007.32 L853.631 1010.33 L853.489 1013.33 L852.983 1016.33 L852.149 1019.34 L851.043 1022.34 L849.74 1025.34 L848.331 1028.35 L846.914 1031.35 L845.593 1034.36 L844.467 1037.36 L843.628 1040.36 L843.159 1043.37 L843.123 1046.37 L843.567 1049.38 L844.519 1052.38 L845.985 1055.38 L847.953 1058.39 L850.394 1061.39 L853.263 1064.4 L856.501 1067.4 L860.041 1070.4 L863.809 1073.41 L867.726 1076.41 L871.713 1079.42 L875.693 1082.42 L879.591 1085.42 L883.34 1088.43 L886.882 1091.43 L890.167 1094.43 L893.156 1097.44 L895.825 1100.44 L898.161 1103.45 L900.164 1106.45 L901.849 1109.45 L903.24 1112.46 L904.373 1115.46 L905.293 1118.47 L906.05 1121.47 L906.698 1124.47 L907.29 1127.48 L907.879 1130.48 L908.51 1133.49 L909.225 1136.49 L910.053 1139.49 L911.015 1142.5 L912.122 1145.5 L913.372 1148.5 L914.758 1151.51 L916.261 1154.51 L917.856 1157.52 L919.514 1160.52 L921.203 1163.52 L922.89 1166.53 L924.541 1169.53 L926.125 1172.54 L927.613 1175.54 L928.98 1178.54 L930.205 1181.55 L931.27 1184.55 L932.164 1187.56 L932.879 1190.56 L933.412 1193.56 L933.766 1196.57 L933.946 1199.57 L933.965 1202.57 L933.838 1205.58 L933.587 1208.58 L933.236 1211.59 L932.813 1214.59 L932.351 1217.59 L931.882 1220.6 L931.44 1223.6 L931.059 1226.61 L930.77 1229.61 L930.602 1232.61 L930.576 1235.62 L930.712 1238.62 L931.019 1241.63 L931.503 1244.63 L932.159 1247.63 L932.977 1250.64 L933.943 1253.64 L935.033 1256.65 L936.224 1259.65 L968.366 1259.65  Z" fill="#0077bb" fill-rule="evenodd" fill-opacity="0.4"/>
<polyline clip-path="url(#clip582)" style="stroke:#000000; stroke-linecap:round; stroke-linejoin:round; stroke-width:5.28; stroke-opacity:0.4; fill:none" points="968.366,1259.65 969.557,1256.65 970.647,1253.64 971.613,1250.64 972.431,1247.63 973.087,1244.63 973.571,1241.63 973.878,1238.62 974.014,1235.62 973.988,1232.61 973.82,1229.61 973.531,1226.61 973.15,1223.6 972.708,1220.6 972.239,1217.59 971.777,1214.59 971.354,1211.59 971.003,1208.58 970.752,1205.58 970.625,1202.57 970.644,1199.57 970.824,1196.57 971.178,1193.56 971.711,1190.56 972.426,1187.56 973.32,1184.55 974.386,1181.55 975.61,1178.54 976.977,1175.54 978.465,1172.54 980.049,1169.53 981.7,1166.53 983.387,1163.52 985.076,1160.52 986.734,1157.52 988.33,1154.51 989.832,1151.51 991.218,1148.5 992.468,1145.5 993.575,1142.5 994.537,1139.49 995.365,1136.49 996.08,1133.49 996.712,1130.48 997.3,1127.48 997.893,1124.47 998.54,1121.47 999.297,1118.47 1000.22,1115.46 1001.35,1112.46 1002.74,1109.45 1004.43,1106.45 1006.43,1103.45 1008.77,1100.44 1011.43,1097.44 1014.42,1094.43 1017.71,1091.43 1021.25,1088.43 1025,1085.42 1028.9,1082.42 1032.88,1079.42 1036.86,1076.41 1040.78,1073.41 1044.55,1070.4 1048.09,1067.4 1051.33,1064.4 1054.2,1061.39 1056.64,1058.39 1058.61,1055.38 1060.07,1052.38 1061.02,1049.38 1061.47,1046.37 1061.43,1043.37 1060.96,1040.36 1060.12,1037.36 1059,1034.36 1057.68,1031.35 1056.26,1028.35 1054.85,1025.34 1053.55,1022.34 1052.44,1019.34 1051.61,1016.33 1051.1,1013.33 1050.96,1010.33 1051.19,1007.32 1051.78,1004.32 1052.7,1001.31 1053.88,998.31 1055.26,995.306 1056.74,992.302 1058.25,989.298 1059.67,986.294 1060.93,983.29 1061.96,980.286 1062.67,977.283 1063.02,974.279 1062.97,971.275 1062.5,968.271 1061.62,965.267 1060.31,962.263 1058.6,959.259 1056.52,956.255 1054.1,953.251 1051.36,950.247 1048.35,947.244 1045.09,944.24 1041.64,941.236 1038.01,938.232 1034.24,935.228 1030.38,932.224 1026.44,929.22 1022.48,926.216 1018.51,923.212 1014.59,920.208 1010.73,917.205 1006.97,914.201 1003.33,911.197 999.846,908.193 996.526,905.189 993.384,902.185 990.426,899.181 987.65,896.177 985.052,893.173 982.621,890.169 980.343,887.166 978.204,884.162 976.187,881.158 974.277,878.154 972.461,875.15 970.728,872.146 933.862,872.146 932.129,875.15 930.313,878.154 928.403,881.158 926.386,884.162 924.247,887.166 921.969,890.169 919.538,893.173 916.94,896.177 914.164,899.181 911.206,902.185 908.064,905.189 904.745,908.193 901.259,911.197 897.624,914.201 893.864,917.205 890.005,920.208 886.076,923.212 882.112,926.216 878.146,929.22 874.213,932.224 870.347,935.228 866.582,938.232 862.954,941.236 859.495,944.24 856.242,947.244 853.23,950.247 850.493,953.251 848.068,956.255 845.987,959.259 844.281,962.263 842.975,965.267 842.086,968.271 841.621,971.275 841.573,974.279 841.924,977.283 842.635,980.286 843.655,983.29 844.918,986.294 846.344,989.298 847.846,992.302 849.331,995.306 850.708,998.31 851.891,1001.31 852.807,1004.32 853.4,1007.32 853.631,1010.33 853.489,1013.33 852.983,1016.33 852.149,1019.34 851.043,1022.34 849.74,1025.34 848.331,1028.35 846.914,1031.35 845.593,1034.36 844.467,1037.36 843.628,1040.36 843.159,1043.37 843.123,1046.37 843.567,1049.38 844.519,1052.38 845.985,1055.38 847.953,1058.39 850.394,1061.39 853.263,1064.4 856.501,1067.4 860.041,1070.4 863.809,1073.41 867.726,1076.41 871.713,1079.42 875.693,1082.42 879.591,1085.42 883.34,1088.43 886.882,1091.43 890.167,1094.43 893.156,1097.44 895.825,1100.44 898.161,1103.45 900.164,1106.45 901.849,1109.45 903.24,1112.46 904.373,1115.46 905.293,1118.47 906.05,1121.47 906.698,1124.47 907.29,1127.48 907.879,1130.48 908.51,1133.49 909.225,1136.49 910.053,1139.49 911.015,1142.5 912.122,1145.5 913.372,1148.5 914.758,1151.51 916.261,1154.51 917.856,1157.52 919.514,1160.52 921.203,1163.52 922.89,1166.53 924.541,1169.53 926.125,1172.54 927.613,1175.54 928.98,1178.54 930.205,1181.55 931.27,1184.55 932.164,1187.56 932.879,1190.56 933.412,1193.56 933.766,1196.57 933.946,1199.57 933.965,1202.57 933.838,1205.58 933.587,1208.58 933.236,1211.59 932.813,1214.59 932.351,1217.59 931.882,1220.6 931.44,1223.6 931.059,1226.61 930.77,1229.61 930.602,1232.61 930.576,1235.62 930.712,1238.62 931.019,1241.63 931.503,1244.63 932.159,1247.63 932.977,1250.64 933.943,1253.64 935.033,1256.65 936.224,1259.65 968.366,1259.65 "/>
<path clip-path="url(#clip582)" d="M1344.54 1280.91 L1344.85 1273.26 L1345.12 1265.62 L1345.35 1257.97 L1345.53 1250.32 L1345.65 1242.68 L1345.73 1235.03 L1345.74 1227.38 L1345.71 1219.74 L1345.62 1212.09 L1345.5 1204.45 L1345.34 1196.8 L1345.18 1189.15 L1345.01 1181.51 L1344.86 1173.86 L1344.75 1166.21 L1344.69 1158.57 L1344.7 1150.92 L1344.79 1143.28 L1344.98 1135.63 L1345.28 1127.98 L1345.69 1120.34 L1346.22 1112.69 L1346.87 1105.04 L1347.64 1097.4 L1348.51 1089.75 L1349.49 1082.1 L1350.57 1074.46 L1351.72 1066.81 L1352.96 1059.17 L1354.25 1051.52 L1355.61 1043.87 L1357.02 1036.23 L1358.48 1028.58 L1359.99 1020.93 L1361.56 1013.29 L1363.19 1005.64 L1364.88 997.996 L1366.64 990.35 L1368.48 982.704 L1370.4 975.057 L1372.38 967.411 L1374.44 959.765 L1376.56 952.119 L1378.72 944.472 L1380.91 936.826 L1383.12 929.18 L1385.34 921.534 L1387.53 913.887 L1389.7 906.241 L1391.83 898.595 L1393.92 890.949 L1395.97 883.302 L1397.97 875.656 L1399.95 868.01 L1401.89 860.364 L1403.82 852.717 L1405.73 845.071 L1407.63 837.425 L1409.52 829.779 L1411.4 822.132 L1413.25 814.486 L1415.06 806.84 L1416.81 799.194 L1418.49 791.547 L1420.05 783.901 L1421.49 776.255 L1422.76 768.609 L1423.85 760.962 L1424.74 753.316 L1425.42 745.67 L1425.88 738.024 L1426.13 730.377 L1426.21 722.731 L1426.13 715.085 L1425.94 707.439 L1425.72 699.792 L1425.52 692.146 L1425.43 684.5 L1425.5 676.853 L1425.82 669.207 L1426.44 661.561 L1427.4 653.915 L1428.73 646.268 L1430.43 638.622 L1432.47 630.976 L1434.78 623.33 L1437.29 615.683 L1439.9 608.037 L1442.47 600.391 L1444.89 592.745 L1447.02 585.098 L1448.74 577.452 L1449.94 569.806 L1450.54 562.16 L1450.49 554.513 L1449.75 546.867 L1448.35 539.221 L1446.32 531.575 L1443.72 523.928 L1440.64 516.282 L1437.19 508.636 L1433.46 500.99 L1429.57 493.343 L1425.61 485.697 L1421.67 478.051 L1417.81 470.405 L1414.08 462.758 L1410.51 455.112 L1407.11 447.466 L1403.87 439.82 L1400.78 432.173 L1397.8 424.527 L1394.9 416.881 L1392.05 409.235 L1389.22 401.588 L1386.39 393.942 L1383.55 386.296 L1380.68 378.65 L1377.79 371.003 L1374.9 363.357 L1372.03 355.711 L1369.2 348.065 L1366.43 340.418 L1363.77 332.772 L1361.23 325.126 L1358.84 317.48 L1356.61 309.833 L1354.57 302.187 L1352.71 294.541 L1351.03 286.895 L1349.54 279.248 L1348.22 271.602 L1347.06 263.956 L1332.59 263.956 L1331.43 271.602 L1330.1 279.248 L1328.61 286.895 L1326.94 294.541 L1325.08 302.187 L1323.03 309.833 L1320.8 317.48 L1318.41 325.126 L1315.87 332.772 L1313.21 340.418 L1310.45 348.065 L1307.61 355.711 L1304.74 363.357 L1301.85 371.003 L1298.96 378.65 L1296.1 386.296 L1293.25 393.942 L1290.42 401.588 L1287.59 409.235 L1284.74 416.881 L1281.84 424.527 L1278.86 432.173 L1275.77 439.82 L1272.53 447.466 L1269.13 455.112 L1265.56 462.758 L1261.84 470.405 L1257.98 478.051 L1254.03 485.697 L1250.07 493.343 L1246.18 500.99 L1242.46 508.636 L1239 516.282 L1235.92 523.928 L1233.33 531.575 L1231.29 539.221 L1229.89 546.867 L1229.15 554.513 L1229.1 562.16 L1229.7 569.806 L1230.9 577.452 L1232.62 585.098 L1234.75 592.745 L1237.17 600.391 L1239.75 608.037 L1242.35 615.683 L1244.86 623.33 L1247.18 630.976 L1249.21 638.622 L1250.91 646.268 L1252.24 653.915 L1253.2 661.561 L1253.82 669.207 L1254.14 676.853 L1254.22 684.5 L1254.12 692.146 L1253.92 699.792 L1253.7 707.439 L1253.52 715.085 L1253.44 722.731 L1253.51 730.377 L1253.76 738.024 L1254.22 745.67 L1254.9 753.316 L1255.79 760.962 L1256.88 768.609 L1258.15 776.255 L1259.59 783.901 L1261.15 791.547 L1262.83 799.194 L1264.58 806.84 L1266.39 814.486 L1268.24 822.132 L1270.12 829.779 L1272.01 837.425 L1273.91 845.071 L1275.82 852.717 L1277.75 860.364 L1279.69 868.01 L1281.67 875.656 L1283.68 883.302 L1285.72 890.949 L1287.81 898.595 L1289.94 906.241 L1292.11 913.887 L1294.31 921.534 L1296.52 929.18 L1298.73 936.826 L1300.92 944.472 L1303.09 952.119 L1305.2 959.765 L1307.26 967.411 L1309.25 975.057 L1311.16 982.704 L1313 990.35 L1314.76 997.996 L1316.45 1005.64 L1318.08 1013.29 L1319.65 1020.93 L1321.16 1028.58 L1322.62 1036.23 L1324.03 1043.87 L1325.39 1051.52 L1326.69 1059.17 L1327.92 1066.81 L1329.08 1074.46 L1330.15 1082.1 L1331.13 1089.75 L1332.01 1097.4 L1332.77 1105.04 L1333.42 1112.69 L1333.95 1120.34 L1334.36 1127.98 L1334.66 1135.63 L1334.85 1143.28 L1334.95 1150.92 L1334.95 1158.57 L1334.89 1166.21 L1334.78 1173.86 L1334.63 1181.51 L1334.46 1189.15 L1334.3 1196.8 L1334.14 1204.45 L1334.02 1212.09 L1333.94 1219.74 L1333.9 1227.38 L1333.92 1235.03 L1333.99 1242.68 L1334.11 1250.32 L1334.29 1257.97 L1334.52 1265.62 L1334.8 1273.26 L1335.1 1280.91 L1344.54 1280.91  Z" fill="#33bbee" fill-rule="evenodd" fill-opacity="0.4"/>
<polyline clip-path="url(#clip582)" style="stroke:#000000; stroke-linecap:round; stroke-linejoin:round; stroke-width:5.28; stroke-opacity:0.4; fill:none" points="1344.54,1280.91 1344.85,1273.26 1345.12,1265.62 1345.35,1257.97 1345.53,1250.32 1345.65,1242.68 1345.73,1235.03 1345.74,1227.38 1345.71,1219.74 1345.62,1212.09 1345.5,1204.45 1345.34,1196.8 1345.18,1189.15 1345.01,1181.51 1344.86,1173.86 1344.75,1166.21 1344.69,1158.57 1344.7,1150.92 1344.79,1143.28 1344.98,1135.63 1345.28,1127.98 1345.69,1120.34 1346.22,1112.69 1346.87,1105.04 1347.64,1097.4 1348.51,1089.75 1349.49,1082.1 1350.57,1074.46 1351.72,1066.81 1352.96,1059.17 1354.25,1051.52 1355.61,1043.87 1357.02,1036.23 1358.48,1028.58 1359.99,1020.93 1361.56,1013.29 1363.19,1005.64 1364.88,997.996 1366.64,990.35 1368.48,982.704 1370.4,975.057 1372.38,967.411 1374.44,959.765 1376.56,952.119 1378.72,944.472 1380.91,936.826 1383.12,929.18 1385.34,921.534 1387.53,913.887 1389.7,906.241 1391.83,898.595 1393.92,890.949 1395.97,883.302 1397.97,875.656 1399.95,868.01 1401.89,860.364 1403.82,852.717 1405.73,845.071 1407.63,837.425 1409.52,829.779 1411.4,822.132 1413.25,814.486 1415.06,806.84 1416.81,799.194 1418.49,791.547 1420.05,783.901 1421.49,776.255 1422.76,768.609 1423.85,760.962 1424.74,753.316 1425.42,745.67 1425.88,738.024 1426.13,730.377 1426.21,722.731 1426.13,715.085 1425.94,707.439 1425.72,699.792 1425.52,692.146 1425.43,684.5 1425.5,676.853 1425.82,669.207 1426.44,661.561 1427.4,653.915 1428.73,646.268 1430.43,638.622 1432.47,630.976 1434.78,623.33 1437.29,615.683 1439.9,608.037 1442.47,600.391 1444.89,592.745 1447.02,585.098 1448.74,577.452 1449.94,569.806 1450.54,562.16 1450.49,554.513 1449.75,546.867 1448.35,539.221 1446.32,531.575 1443.72,523.928 1440.64,516.282 1437.19,508.636 1433.46,500.99 1429.57,493.343 1425.61,485.697 1421.67,478.051 1417.81,470.405 1414.08,462.758 1410.51,455.112 1407.11,447.466 1403.87,439.82 1400.78,432.173 1397.8,424.527 1394.9,416.881 1392.05,409.235 1389.22,401.588 1386.39,393.942 1383.55,386.296 1380.68,378.65 1377.79,371.003 1374.9,363.357 1372.03,355.711 1369.2,348.065 1366.43,340.418 1363.77,332.772 1361.23,325.126 1358.84,317.48 1356.61,309.833 1354.57,302.187 1352.71,294.541 1351.03,286.895 1349.54,279.248 1348.22,271.602 1347.06,263.956 1332.59,263.956 1331.43,271.602 1330.1,279.248 1328.61,286.895 1326.94,294.541 1325.08,302.187 1323.03,309.833 1320.8,317.48 1318.41,325.126 1315.87,332.772 1313.21,340.418 1310.45,348.065 1307.61,355.711 1304.74,363.357 1301.85,371.003 1298.96,378.65 1296.1,386.296 1293.25,393.942 1290.42,401.588 1287.59,409.235 1284.74,416.881 1281.84,424.527 1278.86,432.173 1275.77,439.82 1272.53,447.466 1269.13,455.112 1265.56,462.758 1261.84,470.405 1257.98,478.051 1254.03,485.697 1250.07,493.343 1246.18,500.99 1242.46,508.636 1239,516.282 1235.92,523.928 1233.33,531.575 1231.29,539.221 1229.89,546.867 1229.15,554.513 1229.1,562.16 1229.7,569.806 1230.9,577.452 1232.62,585.098 1234.75,592.745 1237.17,600.391 1239.75,608.037 1242.35,615.683 1244.86,623.33 1247.18,630.976 1249.21,638.622 1250.91,646.268 1252.24,653.915 1253.2,661.561 1253.82,669.207 1254.14,676.853 1254.22,684.5 1254.12,692.146 1253.92,699.792 1253.7,707.439 1253.52,715.085 1253.44,722.731 1253.51,730.377 1253.76,738.024 1254.22,745.67 1254.9,753.316 1255.79,760.962 1256.88,768.609 1258.15,776.255 1259.59,783.901 1261.15,791.547 1262.83,799.194 1264.58,806.84 1266.39,814.486 1268.24,822.132 1270.12,829.779 1272.01,837.425 1273.91,845.071 1275.82,852.717 1277.75,860.364 1279.69,868.01 1281.67,875.656 1283.68,883.302 1285.72,890.949 1287.81,898.595 1289.94,906.241 1292.11,913.887 1294.31,921.534 1296.52,929.18 1298.73,936.826 1300.92,944.472 1303.09,952.119 1305.2,959.765 1307.26,967.411 1309.25,975.057 1311.16,982.704 1313,990.35 1314.76,997.996 1316.45,1005.64 1318.08,1013.29 1319.65,1020.93 1321.16,1028.58 1322.62,1036.23 1324.03,1043.87 1325.39,1051.52 1326.69,1059.17 1327.92,1066.81 1329.08,1074.46 1330.15,1082.1 1331.13,1089.75 1332.01,1097.4 1332.77,1105.04 1333.42,1112.69 1333.95,1120.34 1334.36,1127.98 1334.66,1135.63 1334.85,1143.28 1334.95,1150.92 1334.95,1158.57 1334.89,1166.21 1334.78,1173.86 1334.63,1181.51 1334.46,1189.15 1334.3,1196.8 1334.14,1204.45 1334.02,1212.09 1333.94,1219.74 1333.9,1227.38 1333.92,1235.03 1333.99,1242.68 1334.11,1250.32 1334.29,1257.97 1334.52,1265.62 1334.8,1273.26 1335.1,1280.91 1344.54,1280.91 "/>
<path clip-path="url(#clip582)" d="M1733.91 1215.54 L1733.84 1208.25 L1733.69 1200.97 L1733.48 1193.68 L1733.22 1186.4 L1732.94 1179.11 L1732.65 1171.83 L1732.39 1164.54 L1732.16 1157.26 L1732 1149.97 L1731.91 1142.69 L1731.92 1135.4 L1732.02 1128.12 L1732.24 1120.83 L1732.56 1113.54 L1732.98 1106.26 L1733.51 1098.97 L1734.12 1091.69 L1734.82 1084.4 L1735.59 1077.12 L1736.41 1069.83 L1737.29 1062.55 L1738.22 1055.26 L1739.19 1047.98 L1740.2 1040.69 L1741.26 1033.4 L1742.36 1026.12 L1743.51 1018.83 L1744.72 1011.55 L1745.99 1004.26 L1747.32 996.978 L1748.71 989.692 L1750.16 982.407 L1751.67 975.121 L1753.23 967.836 L1754.83 960.551 L1756.45 953.265 L1758.08 945.98 L1759.73 938.694 L1761.37 931.409 L1763.01 924.124 L1764.64 916.838 L1766.28 909.553 L1767.94 902.267 L1769.63 894.982 L1771.37 887.696 L1773.18 880.411 L1775.08 873.126 L1777.08 865.84 L1779.2 858.555 L1781.44 851.269 L1783.79 843.984 L1786.25 836.698 L1788.77 829.413 L1791.35 822.128 L1793.93 814.842 L1796.47 807.557 L1798.93 800.271 L1801.25 792.986 L1803.39 785.701 L1805.3 778.415 L1806.94 771.13 L1808.28 763.844 L1809.3 756.559 L1809.97 749.273 L1810.31 741.988 L1810.33 734.703 L1810.06 727.417 L1809.53 720.132 L1808.82 712.846 L1808 705.561 L1807.14 698.276 L1806.35 690.99 L1805.71 683.705 L1805.33 676.419 L1805.29 669.134 L1805.67 661.848 L1806.52 654.563 L1807.88 647.278 L1809.76 639.992 L1812.13 632.707 L1814.93 625.421 L1818.06 618.136 L1821.42 610.851 L1824.84 603.565 L1828.18 596.28 L1831.27 588.994 L1833.94 581.709 L1836.04 574.423 L1837.45 567.138 L1838.07 559.853 L1837.85 552.567 L1836.77 545.282 L1834.87 537.996 L1832.21 530.711 L1828.89 523.426 L1825.04 516.14 L1820.81 508.855 L1816.33 501.569 L1811.76 494.284 L1807.24 486.998 L1802.88 479.713 L1798.76 472.428 L1794.96 465.142 L1791.49 457.857 L1788.38 450.571 L1785.58 443.286 L1783.06 436.001 L1780.77 428.715 L1778.62 421.43 L1776.56 414.144 L1774.51 406.859 L1772.42 399.573 L1770.24 392.288 L1767.95 385.003 L1765.55 377.717 L1763.03 370.432 L1760.43 363.146 L1757.79 355.861 L1755.14 348.576 L1752.55 341.29 L1750.07 334.005 L1747.74 326.719 L1745.6 319.434 L1743.67 312.148 L1741.99 304.863 L1740.54 297.578 L1739.32 290.292 L1738.32 283.007 L1737.5 275.721 L1736.83 268.436 L1736.28 261.151 L1735.81 253.865 L1735.39 246.58 L1719.3 246.58 L1718.88 253.865 L1718.41 261.151 L1717.86 268.436 L1717.19 275.721 L1716.37 283.007 L1715.37 290.292 L1714.15 297.578 L1712.71 304.863 L1711.02 312.148 L1709.1 319.434 L1706.96 326.719 L1704.62 334.005 L1702.14 341.29 L1699.55 348.576 L1696.9 355.861 L1694.26 363.146 L1691.66 370.432 L1689.14 377.717 L1686.74 385.003 L1684.45 392.288 L1682.28 399.573 L1680.19 406.859 L1678.14 414.144 L1676.07 421.43 L1673.93 428.715 L1671.63 436.001 L1669.11 443.286 L1666.32 450.571 L1663.2 457.857 L1659.74 465.142 L1655.93 472.428 L1651.82 479.713 L1647.45 486.998 L1642.93 494.284 L1638.36 501.569 L1633.89 508.855 L1629.65 516.14 L1625.8 523.426 L1622.48 530.711 L1619.82 537.996 L1617.92 545.282 L1616.84 552.567 L1616.62 559.853 L1617.25 567.138 L1618.66 574.423 L1620.76 581.709 L1623.42 588.994 L1626.51 596.28 L1629.85 603.565 L1633.28 610.851 L1636.63 618.136 L1639.76 625.421 L1642.56 632.707 L1644.93 639.992 L1646.81 647.278 L1648.17 654.563 L1649.03 661.848 L1649.4 669.134 L1649.36 676.419 L1648.98 683.705 L1648.35 690.99 L1647.55 698.276 L1646.7 705.561 L1645.87 712.846 L1645.16 720.132 L1644.64 727.417 L1644.36 734.703 L1644.38 741.988 L1644.72 749.273 L1645.4 756.559 L1646.41 763.844 L1647.75 771.13 L1649.39 778.415 L1651.31 785.701 L1653.45 792.986 L1655.77 800.271 L1658.22 807.557 L1660.77 814.842 L1663.35 822.128 L1665.92 829.413 L1668.45 836.698 L1670.9 843.984 L1673.25 851.269 L1675.49 858.555 L1677.61 865.84 L1679.62 873.126 L1681.52 880.411 L1683.33 887.696 L1685.07 894.982 L1686.75 902.267 L1688.41 909.553 L1690.05 916.838 L1691.69 924.124 L1693.32 931.409 L1694.97 938.694 L1696.61 945.98 L1698.25 953.265 L1699.87 960.551 L1701.46 967.836 L1703.02 975.121 L1704.53 982.407 L1705.98 989.692 L1707.38 996.978 L1708.71 1004.26 L1709.97 1011.55 L1711.18 1018.83 L1712.33 1026.12 L1713.43 1033.4 L1714.49 1040.69 L1715.5 1047.98 L1716.47 1055.26 L1717.4 1062.55 L1718.28 1069.83 L1719.11 1077.12 L1719.87 1084.4 L1720.57 1091.69 L1721.18 1098.97 L1721.71 1106.26 L1722.13 1113.54 L1722.46 1120.83 L1722.67 1128.12 L1722.78 1135.4 L1722.78 1142.69 L1722.7 1149.97 L1722.53 1157.26 L1722.31 1164.54 L1722.04 1171.83 L1721.75 1179.11 L1721.47 1186.4 L1721.21 1193.68 L1721 1200.97 L1720.85 1208.25 L1720.78 1215.54 L1733.91 1215.54  Z" fill="#ee3377" fill-rule="evenodd" fill-opacity="0.4"/>
<polyline clip-path="url(#clip582)" style="stroke:#000000; stroke-linecap:round; stroke-linejoin:round; stroke-width:5.28; stroke-opacity:0.4; fill:none" points="1733.91,1215.54 1733.84,1208.25 1733.69,1200.97 1733.48,1193.68 1733.22,1186.4 1732.94,1179.11 1732.65,1171.83 1732.39,1164.54 1732.16,1157.26 1732,1149.97 1731.91,1142.69 1731.92,1135.4 1732.02,1128.12 1732.24,1120.83 1732.56,1113.54 1732.98,1106.26 1733.51,1098.97 1734.12,1091.69 1734.82,1084.4 1735.59,1077.12 1736.41,1069.83 1737.29,1062.55 1738.22,1055.26 1739.19,1047.98 1740.2,1040.69 1741.26,1033.4 1742.36,1026.12 1743.51,1018.83 1744.72,1011.55 1745.99,1004.26 1747.32,996.978 1748.71,989.692 1750.16,982.407 1751.67,975.121 1753.23,967.836 1754.83,960.551 1756.45,953.265 1758.08,945.98 1759.73,938.694 1761.37,931.409 1763.01,924.124 1764.64,916.838 1766.28,909.553 1767.94,902.267 1769.63,894.982 1771.37,887.696 1773.18,880.411 1775.08,873.126 1777.08,865.84 1779.2,858.555 1781.44,851.269 1783.79,843.984 1786.25,836.698 1788.77,829.413 1791.35,822.128 1793.93,814.842 1796.47,807.557 1798.93,800.271 1801.25,792.986 1803.39,785.701 1805.3,778.415 1806.94,771.13 1808.28,763.844 1809.3,756.559 1809.97,749.273 1810.31,741.988 1810.33,734.703 1810.06,727.417 1809.53,720.132 1808.82,712.846 1808,705.561 1807.14,698.276 1806.35,690.99 1805.71,683.705 1805.33,676.419 1805.29,669.134 1805.67,661.848 1806.52,654.563 1807.88,647.278 1809.76,639.992 1812.13,632.707 1814.93,625.421 1818.06,618.136 1821.42,610.851 1824.84,603.565 1828.18,596.28 1831.27,588.994 1833.94,581.709 1836.04,574.423 1837.45,567.138 1838.07,559.853 1837.85,552.567 1836.77,545.282 1834.87,537.996 1832.21,530.711 1828.89,523.426 1825.04,516.14 1820.81,508.855 1816.33,501.569 1811.76,494.284 1807.24,486.998 1802.88,479.713 1798.76,472.428 1794.96,465.142 1791.49,457.857 1788.38,450.571 1785.58,443.286 1783.06,436.001 1780.77,428.715 1778.62,421.43 1776.56,414.144 1774.51,406.859 1772.42,399.573 1770.24,392.288 1767.95,385.003 1765.55,377.717 1763.03,370.432 1760.43,363.146 1757.79,355.861 1755.14,348.576 1752.55,341.29 1750.07,334.005 1747.74,326.719 1745.6,319.434 1743.67,312.148 1741.99,304.863 1740.54,297.578 1739.32,290.292 1738.32,283.007 1737.5,275.721 1736.83,268.436 1736.28,261.151 1735.81,253.865 1735.39,246.58 1719.3,246.58 1718.88,253.865 1718.41,261.151 1717.86,268.436 1717.19,275.721 1716.37,283.007 1715.37,290.292 1714.15,297.578 1712.71,304.863 1711.02,312.148 1709.1,319.434 1706.96,326.719 1704.62,334.005 1702.14,341.29 1699.55,348.576 1696.9,355.861 1694.26,363.146 1691.66,370.432 1689.14,377.717 1686.74,385.003 1684.45,392.288 1682.28,399.573 1680.19,406.859 1678.14,414.144 1676.07,421.43 1673.93,428.715 1671.63,436.001 1669.11,443.286 1666.32,450.571 1663.2,457.857 1659.74,465.142 1655.93,472.428 1651.82,479.713 1647.45,486.998 1642.93,494.284 1638.36,501.569 1633.89,508.855 1629.65,516.14 1625.8,523.426 1622.48,530.711 1619.82,537.996 1617.92,545.282 1616.84,552.567 1616.62,559.853 1617.25,567.138 1618.66,574.423 1620.76,581.709 1623.42,588.994 1626.51,596.28 1629.85,603.565 1633.28,610.851 1636.63,618.136 1639.76,625.421 1642.56,632.707 1644.93,639.992 1646.81,647.278 1648.17,654.563 1649.03,661.848 1649.4,669.134 1649.36,676.419 1648.98,683.705 1648.35,690.99 1647.55,698.276 1646.7,705.561 1645.87,712.846 1645.16,720.132 1644.64,727.417 1644.36,734.703 1644.38,741.988 1644.72,749.273 1645.4,756.559 1646.41,763.844 1647.75,771.13 1649.39,778.415 1651.31,785.701 1653.45,792.986 1655.77,800.271 1658.22,807.557 1660.77,814.842 1663.35,822.128 1665.92,829.413 1668.45,836.698 1670.9,843.984 1673.25,851.269 1675.49,858.555 1677.61,865.84 1679.62,873.126 1681.52,880.411 1683.33,887.696 1685.07,894.982 1686.75,902.267 1688.41,909.553 1690.05,916.838 1691.69,924.124 1693.32,931.409 1694.97,938.694 1696.61,945.98 1698.25,953.265 1699.87,960.551 1701.46,967.836 1703.02,975.121 1704.53,982.407 1705.98,989.692 1707.38,996.978 1708.71,1004.26 1709.97,1011.55 1711.18,1018.83 1712.33,1026.12 1713.43,1033.4 1714.49,1040.69 1715.5,1047.98 1716.47,1055.26 1717.4,1062.55 1718.28,1069.83 1719.11,1077.12 1719.87,1084.4 1720.57,1091.69 1721.18,1098.97 1721.71,1106.26 1722.13,1113.54 1722.46,1120.83 1722.67,1128.12 1722.78,1135.4 1722.78,1142.69 1722.7,1149.97 1722.53,1157.26 1722.31,1164.54 1722.04,1171.83 1721.75,1179.11 1721.47,1186.4 1721.21,1193.68 1721,1200.97 1720.85,1208.25 1720.78,1215.54 1733.91,1215.54 "/>
<path clip-path="url(#clip582)" d="M2140.8 1356.74 L2142.12 1351.45 L2143.33 1346.15 L2144.4 1340.85 L2145.34 1335.55 L2146.13 1330.25 L2146.79 1324.96 L2147.31 1319.66 L2147.71 1314.36 L2148 1309.06 L2148.18 1303.77 L2148.29 1298.47 L2148.34 1293.17 L2148.35 1287.87 L2148.35 1282.58 L2148.36 1277.28 L2148.41 1271.98 L2148.54 1266.68 L2148.76 1261.38 L2149.12 1256.09 L2149.65 1250.79 L2150.37 1245.49 L2151.32 1240.19 L2152.54 1234.9 L2154.03 1229.6 L2155.82 1224.3 L2157.92 1219 L2160.34 1213.71 L2163.07 1208.41 L2166.09 1203.11 L2169.38 1197.81 L2172.9 1192.51 L2176.61 1187.22 L2180.45 1181.92 L2184.37 1176.62 L2188.31 1171.32 L2192.2 1166.03 L2195.97 1160.73 L2199.59 1155.43 L2202.98 1150.13 L2206.1 1144.84 L2208.94 1139.54 L2211.45 1134.24 L2213.63 1128.94 L2215.48 1123.64 L2217.02 1118.35 L2218.25 1113.05 L2219.2 1107.75 L2219.92 1102.45 L2220.43 1097.16 L2220.78 1091.86 L2221.01 1086.56 L2221.14 1081.26 L2221.23 1075.97 L2221.29 1070.67 L2221.36 1065.37 L2221.46 1060.07 L2221.6 1054.77 L2221.8 1049.48 L2222.05 1044.18 L2222.36 1038.88 L2222.72 1033.58 L2223.12 1028.29 L2223.55 1022.99 L2223.99 1017.69 L2224.42 1012.39 L2224.81 1007.1 L2225.15 1001.8 L2225.42 996.5 L2225.57 991.202 L2225.59 985.905 L2225.46 980.607 L2225.16 975.309 L2224.65 970.011 L2223.93 964.714 L2222.98 959.416 L2221.79 954.118 L2220.35 948.821 L2218.65 943.523 L2216.71 938.225 L2214.53 932.928 L2212.11 927.63 L2209.47 922.332 L2206.63 917.035 L2203.61 911.737 L2200.42 906.439 L2197.1 901.141 L2193.67 895.844 L2190.14 890.546 L2186.55 885.248 L2182.92 879.951 L2179.26 874.653 L2175.62 869.355 L2171.99 864.058 L2168.41 858.76 L2164.9 853.462 L2161.47 848.165 L2158.13 842.867 L2154.92 837.569 L2151.84 832.271 L2148.91 826.974 L2146.15 821.676 L2143.57 816.378 L2141.18 811.081 L2139 805.783 L2137.04 800.485 L2135.3 795.188 L2133.78 789.89 L2132.5 784.592 L2131.44 779.294 L2130.6 773.997 L2129.97 768.699 L2129.53 763.401 L2129.27 758.104 L2129.15 752.806 L2129.15 747.508 L2129.24 742.211 L2129.38 736.913 L2129.55 731.615 L2129.71 726.318 L2129.83 721.02 L2129.88 715.722 L2129.85 710.424 L2129.71 705.127 L2100.04 705.127 L2099.9 710.424 L2099.86 715.722 L2099.92 721.02 L2100.04 726.318 L2100.19 731.615 L2100.36 736.913 L2100.51 742.211 L2100.59 747.508 L2100.59 752.806 L2100.48 758.104 L2100.21 763.401 L2099.77 768.699 L2099.14 773.997 L2098.3 779.294 L2097.25 784.592 L2095.96 789.89 L2094.45 795.188 L2092.71 800.485 L2090.74 805.783 L2088.56 811.081 L2086.17 816.378 L2083.59 821.676 L2080.83 826.974 L2077.9 832.271 L2074.82 837.569 L2071.61 842.867 L2068.28 848.165 L2064.85 853.462 L2061.33 858.76 L2057.75 864.058 L2054.13 869.355 L2050.48 874.653 L2046.83 879.951 L2043.2 885.248 L2039.6 890.546 L2036.08 895.844 L2032.64 901.141 L2029.32 906.439 L2026.14 911.737 L2023.11 917.035 L2020.27 922.332 L2017.63 927.63 L2015.22 932.928 L2013.03 938.225 L2011.09 943.523 L2009.4 948.821 L2007.96 954.118 L2006.77 959.416 L2005.81 964.714 L2005.09 970.011 L2004.59 975.309 L2004.28 980.607 L2004.15 985.905 L2004.17 991.202 L2004.33 996.5 L2004.59 1001.8 L2004.93 1007.1 L2005.33 1012.39 L2005.76 1017.69 L2006.19 1022.99 L2006.62 1028.29 L2007.02 1033.58 L2007.39 1038.88 L2007.7 1044.18 L2007.95 1049.48 L2008.14 1054.77 L2008.28 1060.07 L2008.38 1065.37 L2008.45 1070.67 L2008.52 1075.97 L2008.6 1081.26 L2008.74 1086.56 L2008.96 1091.86 L2009.31 1097.16 L2009.82 1102.45 L2010.54 1107.75 L2011.5 1113.05 L2012.73 1118.35 L2014.26 1123.64 L2016.11 1128.94 L2018.3 1134.24 L2020.81 1139.54 L2023.64 1144.84 L2026.77 1150.13 L2030.16 1155.43 L2033.77 1160.73 L2037.55 1166.03 L2041.44 1171.32 L2045.37 1176.62 L2049.29 1181.92 L2053.14 1187.22 L2056.84 1192.51 L2060.36 1197.81 L2063.65 1203.11 L2066.67 1208.41 L2069.4 1213.71 L2071.82 1219 L2073.92 1224.3 L2075.72 1229.6 L2077.21 1234.9 L2078.42 1240.19 L2079.37 1245.49 L2080.1 1250.79 L2080.62 1256.09 L2080.98 1261.38 L2081.21 1266.68 L2081.33 1271.98 L2081.38 1277.28 L2081.39 1282.58 L2081.39 1287.87 L2081.4 1293.17 L2081.45 1298.47 L2081.56 1303.77 L2081.75 1309.06 L2082.03 1314.36 L2082.43 1319.66 L2082.95 1324.96 L2083.61 1330.25 L2084.41 1335.55 L2085.34 1340.85 L2086.42 1346.15 L2087.62 1351.45 L2088.95 1356.74 L2140.8 1356.74  Z" fill="#cc3311" fill-rule="evenodd" fill-opacity="0.4"/>
<polyline clip-path="url(#clip582)" style="stroke:#000000; stroke-linecap:round; stroke-linejoin:round; stroke-width:5.28; stroke-opacity:0.4; fill:none" points="2140.8,1356.74 2142.12,1351.45 2143.33,1346.15 2144.4,1340.85 2145.34,1335.55 2146.13,1330.25 2146.79,1324.96 2147.31,1319.66 2147.71,1314.36 2148,1309.06 2148.18,1303.77 2148.29,1298.47 2148.34,1293.17 2148.35,1287.87 2148.35,1282.58 2148.36,1277.28 2148.41,1271.98 2148.54,1266.68 2148.76,1261.38 2149.12,1256.09 2149.65,1250.79 2150.37,1245.49 2151.32,1240.19 2152.54,1234.9 2154.03,1229.6 2155.82,1224.3 2157.92,1219 2160.34,1213.71 2163.07,1208.41 2166.09,1203.11 2169.38,1197.81 2172.9,1192.51 2176.61,1187.22 2180.45,1181.92 2184.37,1176.62 2188.31,1171.32 2192.2,1166.03 2195.97,1160.73 2199.59,1155.43 2202.98,1150.13 2206.1,1144.84 2208.94,1139.54 2211.45,1134.24 2213.63,1128.94 2215.48,1123.64 2217.02,1118.35 2218.25,1113.05 2219.2,1107.75 2219.92,1102.45 2220.43,1097.16 2220.78,1091.86 2221.01,1086.56 2221.14,1081.26 2221.23,1075.97 2221.29,1070.67 2221.36,1065.37 2221.46,1060.07 2221.6,1054.77 2221.8,1049.48 2222.05,1044.18 2222.36,1038.88 2222.72,1033.58 2223.12,1028.29 2223.55,1022.99 2223.99,1017.69 2224.42,1012.39 2224.81,1007.1 2225.15,1001.8 2225.42,996.5 2225.57,991.202 2225.59,985.905 2225.46,980.607 2225.16,975.309 2224.65,970.011 2223.93,964.714 2222.98,959.416 2221.79,954.118 2220.35,948.821 2218.65,943.523 2216.71,938.225 2214.53,932.928 2212.11,927.63 2209.47,922.332 2206.63,917.035 2203.61,911.737 2200.42,906.439 2197.1,901.141 2193.67,895.844 2190.14,890.546 2186.55,885.248 2182.92,879.951 2179.26,874.653 2175.62,869.355 2171.99,864.058 2168.41,858.76 2164.9,853.462 2161.47,848.165 2158.13,842.867 2154.92,837.569 2151.84,832.271 2148.91,826.974 2146.15,821.676 2143.57,816.378 2141.18,811.081 2139,805.783 2137.04,800.485 2135.3,795.188 2133.78,789.89 2132.5,784.592 2131.44,779.294 2130.6,773.997 2129.97,768.699 2129.53,763.401 2129.27,758.104 2129.15,752.806 2129.15,747.508 2129.24,742.211 2129.38,736.913 2129.55,731.615 2129.71,726.318 2129.83,721.02 2129.88,715.722 2129.85,710.424 2129.71,705.127 2100.04,705.127 2099.9,710.424 2099.86,715.722 2099.92,721.02 2100.04,726.318 2100.19,731.615 2100.36,736.913 2100.51,742.211 2100.59,747.508 2100.59,752.806 2100.48,758.104 2100.21,763.401 2099.77,768.699 2099.14,773.997 2098.3,779.294 2097.25,784.592 2095.96,789.89 2094.45,795.188 2092.71,800.485 2090.74,805.783 2088.56,811.081 2086.17,816.378 2083.59,821.676 2080.83,826.974 2077.9,832.271 2074.82,837.569 2071.61,842.867 2068.28,848.165 2064.85,853.462 2061.33,858.76 2057.75,864.058 2054.13,869.355 2050.48,874.653 2046.83,879.951 2043.2,885.248 2039.6,890.546 2036.08,895.844 2032.64,901.141 2029.32,906.439 2026.14,911.737 2023.11,917.035 2020.27,922.332 2017.63,927.63 2015.22,932.928 2013.03,938.225 2011.09,943.523 2009.4,948.821 2007.96,954.118 2006.77,959.416 2005.81,964.714 2005.09,970.011 2004.59,975.309 2004.28,980.607 2004.15,985.905 2004.17,991.202 2004.33,996.5 2004.59,1001.8 2004.93,1007.1 2005.33,1012.39 2005.76,1017.69 2006.19,1022.99 2006.62,1028.29 2007.02,1033.58 2007.39,1038.88 2007.7,1044.18 2007.95,1049.48 2008.14,1054.77 2008.28,1060.07 2008.38,1065.37 2008.45,1070.67 2008.52,1075.97 2008.6,1081.26 2008.74,1086.56 2008.96,1091.86 2009.31,1097.16 2009.82,1102.45 2010.54,1107.75 2011.5,1113.05 2012.73,1118.35 2014.26,1123.64 2016.11,1128.94 2018.3,1134.24 2020.81,1139.54 2023.64,1144.84 2026.77,1150.13 2030.16,1155.43 2033.77,1160.73 2037.55,1166.03 2041.44,1171.32 2045.37,1176.62 2049.29,1181.92 2053.14,1187.22 2056.84,1192.51 2060.36,1197.81 2063.65,1203.11 2066.67,1208.41 2069.4,1213.71 2071.82,1219 2073.92,1224.3 2075.72,1229.6 2077.21,1234.9 2078.42,1240.19 2079.37,1245.49 2080.1,1250.79 2080.62,1256.09 2080.98,1261.38 2081.21,1266.68 2081.33,1271.98 2081.38,1277.28 2081.39,1282.58 2081.39,1287.87 2081.4,1293.17 2081.45,1298.47 2081.56,1303.77 2081.75,1309.06 2082.03,1314.36 2082.43,1319.66 2082.95,1324.96 2083.61,1330.25 2084.41,1335.55 2085.34,1340.85 2086.42,1346.15 2087.62,1351.45 2088.95,1356.74 2140.8,1356.74 "/>
<path clip-path="url(#clip582)" d="M564.769 1069.68 L509.409 1069.68 L620.13 1069.68 L564.769 1069.68 L564.769 802.16 L564.769 1069.68  Z" fill="#000000" fill-rule="evenodd" fill-opacity="0.1"/>
<polyline clip-path="url(#clip582)" style="stroke:#000000; stroke-linecap:round; stroke-linejoin:round; stroke-width:5.28; stroke-opacity:1; fill:none" points="564.769,1069.68 509.409,1069.68 620.13,1069.68 564.769,1069.68 564.769,802.16 564.769,1069.68 "/>
<path clip-path="url(#clip582)" d="M675.491 802.16 L675.491 643.963 L454.048 643.963 L454.048 802.16 L675.491 802.16 L675.491 643.963 L675.491 802.16  Z" fill="#000000" fill-rule="evenodd" fill-opacity="0.1"/>
<polyline clip-path="url(#clip582)" style="stroke:#000000; stroke-linecap:round; stroke-linejoin:round; stroke-width:5.28; stroke-opacity:1; fill:none" points="675.491,802.16 675.491,643.963 454.048,643.963 454.048,802.16 675.491,802.16 675.491,643.963 675.491,802.16 "/>
<path clip-path="url(#clip582)" d="M675.491 546.327 L454.048 546.327 L454.048 643.963 L675.491 643.963 L675.491 546.327 L564.769 546.327 L675.491 546.327  Z" fill="#000000" fill-rule="evenodd" fill-opacity="0.1"/>
<polyline clip-path="url(#clip582)" style="stroke:#000000; stroke-linecap:round; stroke-linejoin:round; stroke-width:5.28; stroke-opacity:1; fill:none" points="675.491,546.327 454.048,546.327 454.048,643.963 675.491,643.963 675.491,546.327 564.769,546.327 675.491,546.327 "/>
<path clip-path="url(#clip582)" d="M564.769 263.103 L509.409 263.103 L620.13 263.103 L564.769 263.103 L564.769 546.327 L564.769 263.103  Z" fill="#000000" fill-rule="evenodd" fill-opacity="0.1"/>
<polyline clip-path="url(#clip582)" style="stroke:#000000; stroke-linecap:round; stroke-linejoin:round; stroke-width:5.28; stroke-opacity:1; fill:none" points="564.769,263.103 509.409,263.103 620.13,263.103 564.769,263.103 564.769,546.327 564.769,263.103 "/>
<path clip-path="url(#clip582)" d="M952.295 1234.12 L896.934 1234.12 L1007.66 1234.12 L952.295 1234.12 L952.295 1077.44 L952.295 1234.12  Z" fill="#000000" fill-rule="evenodd" fill-opacity="0.1"/>
<polyline clip-path="url(#clip582)" style="stroke:#000000; stroke-linecap:round; stroke-linejoin:round; stroke-width:5.28; stroke-opacity:1; fill:none" points="952.295,1234.12 896.934,1234.12 1007.66,1234.12 952.295,1234.12 952.295,1077.44 952.295,1234.12 "/>
<path clip-path="url(#clip582)" d="M1063.02 1077.44 L1063.02 1032.02 L841.573 1032.02 L841.573 1077.44 L1063.02 1077.44 L1063.02 1032.02 L1063.02 1077.44  Z" fill="#000000" fill-rule="evenodd" fill-opacity="0.1"/>
<polyline clip-path="url(#clip582)" style="stroke:#000000; stroke-linecap:round; stroke-linejoin:round; stroke-width:5.28; stroke-opacity:1; fill:none" points="1063.02,1077.44 1063.02,1032.02 841.573,1032.02 841.573,1077.44 1063.02,1077.44 1063.02,1032.02 1063.02,1077.44 "/>
<path clip-path="url(#clip582)" d="M1063.02 971.03 L841.573 971.03 L841.573 1032.02 L1063.02 1032.02 L1063.02 971.03 L952.295 971.03 L1063.02 971.03  Z" fill="#000000" fill-rule="evenodd" fill-opacity="0.1"/>
<polyline clip-path="url(#clip582)" style="stroke:#000000; stroke-linecap:round; stroke-linejoin:round; stroke-width:5.28; stroke-opacity:1; fill:none" points="1063.02,971.03 841.573,971.03 841.573,1032.02 1063.02,1032.02 1063.02,971.03 952.295,971.03 1063.02,971.03 "/>
<path clip-path="url(#clip582)" d="M952.295 871.95 L896.934 871.95 L1007.66 871.95 L952.295 871.95 L952.295 971.03 L952.295 871.95  Z" fill="#000000" fill-rule="evenodd" fill-opacity="0.1"/>
<polyline clip-path="url(#clip582)" style="stroke:#000000; stroke-linecap:round; stroke-linejoin:round; stroke-width:5.28; stroke-opacity:1; fill:none" points="952.295,871.95 896.934,871.95 1007.66,871.95 952.295,871.95 952.295,971.03 952.295,871.95 "/>
<path clip-path="url(#clip582)" d="M1339.82 1069.68 L1284.46 1069.68 L1395.18 1069.68 L1339.82 1069.68 L1339.82 802.16 L1339.82 1069.68  Z" fill="#000000" fill-rule="evenodd" fill-opacity="0.1"/>
<polyline clip-path="url(#clip582)" style="stroke:#000000; stroke-linecap:round; stroke-linejoin:round; stroke-width:5.28; stroke-opacity:1; fill:none" points="1339.82,1069.68 1284.46,1069.68 1395.18,1069.68 1339.82,1069.68 1339.82,802.16 1339.82,1069.68 "/>
<path clip-path="url(#clip582)" d="M1450.54 802.16 L1450.54 643.963 L1229.1 643.963 L1229.1 802.16 L1450.54 802.16 L1450.54 643.963 L1450.54 802.16  Z" fill="#000000" fill-rule="evenodd" fill-opacity="0.1"/>
<polyline clip-path="url(#clip582)" style="stroke:#000000; stroke-linecap:round; stroke-linejoin:round; stroke-width:5.28; stroke-opacity:1; fill:none" points="1450.54,802.16 1450.54,643.963 1229.1,643.963 1229.1,802.16 1450.54,802.16 1450.54,643.963 1450.54,802.16 "/>
<path clip-path="url(#clip582)" d="M1450.54 546.327 L1229.1 546.327 L1229.1 643.963 L1450.54 643.963 L1450.54 546.327 L1339.82 546.327 L1450.54 546.327  Z" fill="#000000" fill-rule="evenodd" fill-opacity="0.1"/>
<polyline clip-path="url(#clip582)" style="stroke:#000000; stroke-linecap:round; stroke-linejoin:round; stroke-width:5.28; stroke-opacity:1; fill:none" points="1450.54,546.327 1229.1,546.327 1229.1,643.963 1450.54,643.963 1450.54,546.327 1339.82,546.327 1450.54,546.327 "/>
<path clip-path="url(#clip582)" d="M1339.82 263.103 L1284.46 263.103 L1395.18 263.103 L1339.82 263.103 L1339.82 546.327 L1339.82 263.103  Z" fill="#000000" fill-rule="evenodd" fill-opacity="0.1"/>
<polyline clip-path="url(#clip582)" style="stroke:#000000; stroke-linecap:round; stroke-linejoin:round; stroke-width:5.28; stroke-opacity:1; fill:none" points="1339.82,263.103 1284.46,263.103 1395.18,263.103 1339.82,263.103 1339.82,546.327 1339.82,263.103 "/>
<path clip-path="url(#clip582)" d="M1727.35 1046.28 L1671.99 1046.28 L1782.71 1046.28 L1727.35 1046.28 L1727.35 780.319 L1727.35 1046.28  Z" fill="#000000" fill-rule="evenodd" fill-opacity="0.1"/>
<polyline clip-path="url(#clip582)" style="stroke:#000000; stroke-linecap:round; stroke-linejoin:round; stroke-width:5.28; stroke-opacity:1; fill:none" points="1727.35,1046.28 1671.99,1046.28 1782.71,1046.28 1727.35,1046.28 1727.35,780.319 1727.35,1046.28 "/>
<path clip-path="url(#clip582)" d="M1838.07 780.319 L1838.07 628.828 L1616.62 628.828 L1616.62 780.319 L1838.07 780.319 L1838.07 628.828 L1838.07 780.319  Z" fill="#000000" fill-rule="evenodd" fill-opacity="0.1"/>
<polyline clip-path="url(#clip582)" style="stroke:#000000; stroke-linecap:round; stroke-linejoin:round; stroke-width:5.28; stroke-opacity:1; fill:none" points="1838.07,780.319 1838.07,628.828 1616.62,628.828 1616.62,780.319 1838.07,780.319 1838.07,628.828 1838.07,780.319 "/>
<path clip-path="url(#clip582)" d="M1838.07 541.68 L1616.62 541.68 L1616.62 628.828 L1838.07 628.828 L1838.07 541.68 L1727.35 541.68 L1838.07 541.68  Z" fill="#000000" fill-rule="evenodd" fill-opacity="0.1"/>
<polyline clip-path="url(#clip582)" style="stroke:#000000; stroke-linecap:round; stroke-linejoin:round; stroke-width:5.28; stroke-opacity:1; fill:none" points="1838.07,541.68 1616.62,541.68 1616.62,628.828 1838.07,628.828 1838.07,541.68 1727.35,541.68 1838.07,541.68 "/>
<path clip-path="url(#clip582)" d="M1727.35 241.515 L1671.99 241.515 L1782.71 241.515 L1727.35 241.515 L1727.35 541.68 L1727.35 241.515  Z" fill="#000000" fill-rule="evenodd" fill-opacity="0.1"/>
<polyline clip-path="url(#clip582)" style="stroke:#000000; stroke-linecap:round; stroke-linejoin:round; stroke-width:5.28; stroke-opacity:1; fill:none" points="1727.35,241.515 1671.99,241.515 1782.71,241.515 1727.35,241.515 1727.35,541.68 1727.35,241.515 "/>
<path clip-path="url(#clip582)" d="M2114.87 1360.7 L2059.51 1360.7 L2170.23 1360.7 L2114.87 1360.7 L2114.87 1144.53 L2114.87 1360.7  Z" fill="#000000" fill-rule="evenodd" fill-opacity="0.1"/>
<polyline clip-path="url(#clip582)" style="stroke:#000000; stroke-linecap:round; stroke-linejoin:round; stroke-width:5.28; stroke-opacity:1; fill:none" points="2114.87,1360.7 2059.51,1360.7 2170.23,1360.7 2114.87,1360.7 2114.87,1144.53 2114.87,1360.7 "/>
<path clip-path="url(#clip582)" d="M2225.59 1144.53 L2225.59 1035.58 L2004.15 1035.58 L2004.15 1144.53 L2225.59 1144.53 L2225.59 1035.58 L2225.59 1144.53  Z" fill="#000000" fill-rule="evenodd" fill-opacity="0.1"/>
<polyline clip-path="url(#clip582)" style="stroke:#000000; stroke-linecap:round; stroke-linejoin:round; stroke-width:5.28; stroke-opacity:1; fill:none" points="2225.59,1144.53 2225.59,1035.58 2004.15,1035.58 2004.15,1144.53 2225.59,1144.53 2225.59,1035.58 2225.59,1144.53 "/>
<path clip-path="url(#clip582)" d="M2225.59 938.52 L2004.15 938.52 L2004.15 1035.58 L2225.59 1035.58 L2225.59 938.52 L2114.87 938.52 L2225.59 938.52  Z" fill="#000000" fill-rule="evenodd" fill-opacity="0.1"/>
<polyline clip-path="url(#clip582)" style="stroke:#000000; stroke-linecap:round; stroke-linejoin:round; stroke-width:5.28; stroke-opacity:1; fill:none" points="2225.59,938.52 2004.15,938.52 2004.15,1035.58 2225.59,1035.58 2225.59,938.52 2114.87,938.52 2225.59,938.52 "/>
<path clip-path="url(#clip582)" d="M2114.87 701.169 L2059.51 701.169 L2170.23 701.169 L2114.87 701.169 L2114.87 938.52 L2114.87 701.169  Z" fill="#000000" fill-rule="evenodd" fill-opacity="0.1"/>
<polyline clip-path="url(#clip582)" style="stroke:#000000; stroke-linecap:round; stroke-linejoin:round; stroke-width:5.28; stroke-opacity:1; fill:none" points="2114.87,701.169 2059.51,701.169 2170.23,701.169 2114.87,701.169 2114.87,938.52 2114.87,701.169 "/>
<circle clip-path="url(#clip582)" cx="564.769" cy="1213.47" r="23.76" fill="#000000" fill-rule="evenodd" fill-opacity="1" stroke="none"/>
<circle clip-path="url(#clip582)" cx="564.769" cy="1216.38" r="23.76" fill="#000000" fill-rule="evenodd" fill-opacity="1" stroke="none"/>
<circle clip-path="url(#clip582)" cx="564.769" cy="1281.76" r="23.76" fill="#000000" fill-rule="evenodd" fill-opacity="1" stroke="none"/>
<circle clip-path="url(#clip582)" cx="952.295" cy="1245.1" r="23.76" fill="#000000" fill-rule="evenodd" fill-opacity="1" stroke="none"/>
<circle clip-path="url(#clip582)" cx="952.295" cy="1259.84" r="23.76" fill="#000000" fill-rule="evenodd" fill-opacity="1" stroke="none"/>
<circle clip-path="url(#clip582)" cx="952.295" cy="1244.33" r="23.76" fill="#000000" fill-rule="evenodd" fill-opacity="1" stroke="none"/>
<circle clip-path="url(#clip582)" cx="952.295" cy="1245.72" r="23.76" fill="#000000" fill-rule="evenodd" fill-opacity="1" stroke="none"/>
<circle clip-path="url(#clip582)" cx="952.295" cy="1245.41" r="23.76" fill="#000000" fill-rule="evenodd" fill-opacity="1" stroke="none"/>
<circle clip-path="url(#clip582)" cx="1339.82" cy="1213.47" r="23.76" fill="#000000" fill-rule="evenodd" fill-opacity="1" stroke="none"/>
<circle clip-path="url(#clip582)" cx="1339.82" cy="1216.38" r="23.76" fill="#000000" fill-rule="evenodd" fill-opacity="1" stroke="none"/>
<circle clip-path="url(#clip582)" cx="1339.82" cy="1281.76" r="23.76" fill="#000000" fill-rule="evenodd" fill-opacity="1" stroke="none"/>
<circle clip-path="url(#clip582)" cx="1727.35" cy="1220.6" r="23.76" fill="#000000" fill-rule="evenodd" fill-opacity="1" stroke="none"/>
<circle clip-path="url(#clip582)" cx="1727.35" cy="1220.6" r="23.76" fill="#000000" fill-rule="evenodd" fill-opacity="1" stroke="none"/>
<circle clip-path="url(#clip582)" cx="1727.35" cy="1220.6" r="23.76" fill="#000000" fill-rule="evenodd" fill-opacity="1" stroke="none"/>
<polyline clip-path="url(#clip582)" style="stroke:#000000; stroke-linecap:round; stroke-linejoin:round; stroke-width:0; stroke-opacity:1; fill:none" points="564.769,1069.68 509.409,1069.68 620.13,1069.68 564.769,1069.68 564.769,802.16 "/>
<polyline clip-path="url(#clip582)" style="stroke:#000000; stroke-linecap:round; stroke-linejoin:round; stroke-width:0; stroke-opacity:1; fill:none" points="675.491,802.16 675.491,643.963 454.048,643.963 454.048,802.16 675.491,802.16 675.491,643.963 "/>
<polyline clip-path="url(#clip582)" style="stroke:#000000; stroke-linecap:round; stroke-linejoin:round; stroke-width:0; stroke-opacity:1; fill:none" points="675.491,546.327 454.048,546.327 454.048,643.963 675.491,643.963 675.491,546.327 564.769,546.327 "/>
<polyline clip-path="url(#clip582)" style="stroke:#000000; stroke-linecap:round; stroke-linejoin:round; stroke-width:0; stroke-opacity:1; fill:none" points="564.769,263.103 509.409,263.103 620.13,263.103 564.769,263.103 564.769,546.327 "/>
<polyline clip-path="url(#clip582)" style="stroke:#000000; stroke-linecap:round; stroke-linejoin:round; stroke-width:0; stroke-opacity:1; fill:none" points="952.295,1234.12 896.934,1234.12 1007.66,1234.12 952.295,1234.12 952.295,1077.44 "/>
<polyline clip-path="url(#clip582)" style="stroke:#000000; stroke-linecap:round; stroke-linejoin:round; stroke-width:0; stroke-opacity:1; fill:none" points="1063.02,1077.44 1063.02,1032.02 841.573,1032.02 841.573,1077.44 1063.02,1077.44 1063.02,1032.02 "/>
<polyline clip-path="url(#clip582)" style="stroke:#000000; stroke-linecap:round; stroke-linejoin:round; stroke-width:0; stroke-opacity:1; fill:none" points="1063.02,971.03 841.573,971.03 841.573,1032.02 1063.02,1032.02 1063.02,971.03 952.295,971.03 "/>
<polyline clip-path="url(#clip582)" style="stroke:#000000; stroke-linecap:round; stroke-linejoin:round; stroke-width:0; stroke-opacity:1; fill:none" points="952.295,871.95 896.934,871.95 1007.66,871.95 952.295,871.95 952.295,971.03 "/>
<polyline clip-path="url(#clip582)" style="stroke:#000000; stroke-linecap:round; stroke-linejoin:round; stroke-width:0; stroke-opacity:1; fill:none" points="1339.82,1069.68 1284.46,1069.68 1395.18,1069.68 1339.82,1069.68 1339.82,802.16 "/>
<polyline clip-path="url(#clip582)" style="stroke:#000000; stroke-linecap:round; stroke-linejoin:round; stroke-width:0; stroke-opacity:1; fill:none" points="1450.54,802.16 1450.54,643.963 1229.1,643.963 1229.1,802.16 1450.54,802.16 1450.54,643.963 "/>
<polyline clip-path="url(#clip582)" style="stroke:#000000; stroke-linecap:round; stroke-linejoin:round; stroke-width:0; stroke-opacity:1; fill:none" points="1450.54,546.327 1229.1,546.327 1229.1,643.963 1450.54,643.963 1450.54,546.327 1339.82,546.327 "/>
<polyline clip-path="url(#clip582)" style="stroke:#000000; stroke-linecap:round; stroke-linejoin:round; stroke-width:0; stroke-opacity:1; fill:none" points="1339.82,263.103 1284.46,263.103 1395.18,263.103 1339.82,263.103 1339.82,546.327 "/>
<polyline clip-path="url(#clip582)" style="stroke:#000000; stroke-linecap:round; stroke-linejoin:round; stroke-width:0; stroke-opacity:1; fill:none" points="1727.35,1046.28 1671.99,1046.28 1782.71,1046.28 1727.35,1046.28 1727.35,780.319 "/>
<polyline clip-path="url(#clip582)" style="stroke:#000000; stroke-linecap:round; stroke-linejoin:round; stroke-width:0; stroke-opacity:1; fill:none" points="1838.07,780.319 1838.07,628.828 1616.62,628.828 1616.62,780.319 1838.07,780.319 1838.07,628.828 "/>
<polyline clip-path="url(#clip582)" style="stroke:#000000; stroke-linecap:round; stroke-linejoin:round; stroke-width:0; stroke-opacity:1; fill:none" points="1838.07,541.68 1616.62,541.68 1616.62,628.828 1838.07,628.828 1838.07,541.68 1727.35,541.68 "/>
<polyline clip-path="url(#clip582)" style="stroke:#000000; stroke-linecap:round; stroke-linejoin:round; stroke-width:0; stroke-opacity:1; fill:none" points="1727.35,241.515 1671.99,241.515 1782.71,241.515 1727.35,241.515 1727.35,541.68 "/>
<polyline clip-path="url(#clip582)" style="stroke:#000000; stroke-linecap:round; stroke-linejoin:round; stroke-width:0; stroke-opacity:1; fill:none" points="2114.87,1360.7 2059.51,1360.7 2170.23,1360.7 2114.87,1360.7 2114.87,1144.53 "/>
<polyline clip-path="url(#clip582)" style="stroke:#000000; stroke-linecap:round; stroke-linejoin:round; stroke-width:0; stroke-opacity:1; fill:none" points="2225.59,1144.53 2225.59,1035.58 2004.15,1035.58 2004.15,1144.53 2225.59,1144.53 2225.59,1035.58 "/>
<polyline clip-path="url(#clip582)" style="stroke:#000000; stroke-linecap:round; stroke-linejoin:round; stroke-width:0; stroke-opacity:1; fill:none" points="2225.59,938.52 2004.15,938.52 2004.15,1035.58 2225.59,1035.58 2225.59,938.52 2114.87,938.52 "/>
<polyline clip-path="url(#clip582)" style="stroke:#000000; stroke-linecap:round; stroke-linejoin:round; stroke-width:0; stroke-opacity:1; fill:none" points="2114.87,701.169 2059.51,701.169 2170.23,701.169 2114.87,701.169 2114.87,938.52 "/>
</svg>
