<?xml version="1.0" encoding="utf-8"?>
<svg xmlns="http://www.w3.org/2000/svg" xmlns:xlink="http://www.w3.org/1999/xlink" width="600" height="400" viewBox="0 0 2400 1600">
<defs>
  <clipPath id="clip570">
    <rect x="0" y="0" width="2400" height="1600"/>
  </clipPath>
</defs>
<path clip-path="url(#clip570)" d="M0 1600 L2400 1600 L2400 8.88178e-14 L0 8.88178e-14  Z" fill="#ffffff" fill-rule="evenodd" fill-opacity="1"/>
<defs>
  <clipPath id="clip571">
    <rect x="400" y="207" width="1879" height="1187"/>
  </clipPath>
</defs>
<path clip-path="url(#clip570)" d="M361.768 1394.28 L2278.74 1394.28 L2278.74 207.94 L361.768 207.94  Z" fill="#ffffff" fill-rule="evenodd" fill-opacity="1"/>
<defs>
  <clipPath id="clip572">
    <rect x="361" y="207" width="1918" height="1187"/>
  </clipPath>
</defs>
<polyline clip-path="url(#clip572)" style="stroke:#222255; stroke-linecap:round; stroke-linejoin:round; stroke-width:2.2; stroke-opacity:0.05; fill:none" points="370.81,1394.28 370.81,207.94 "/>
<polyline clip-path="url(#clip572)" style="stroke:#222255; stroke-linecap:round; stroke-linejoin:round; stroke-width:2.2; stroke-opacity:0.05; fill:none" points="449.931,1394.28 449.931,207.94 "/>
<polyline clip-path="url(#clip572)" style="stroke:#222255; stroke-linecap:round; stroke-linejoin:round; stroke-width:2.2; stroke-opacity:0.05; fill:none" points="608.171,1394.28 608.171,207.94 "/>
<polyline clip-path="url(#clip572)" style="stroke:#222255; stroke-linecap:round; stroke-linejoin:round; stroke-width:2.2; stroke-opacity:0.05; fill:none" points="687.292,1394.28 687.292,207.94 "/>
<polyline clip-path="url(#clip572)" style="stroke:#222255; stroke-linecap:round; stroke-linejoin:round; stroke-width:2.2; stroke-opacity:0.05; fill:none" points="766.412,1394.28 766.412,207.94 "/>
<polyline clip-path="url(#clip572)" style="stroke:#222255; stroke-linecap:round; stroke-linejoin:round; stroke-width:2.2; stroke-opacity:0.05; fill:none" points="845.532,1394.28 845.532,207.94 "/>
<polyline clip-path="url(#clip572)" style="stroke:#222255; stroke-linecap:round; stroke-linejoin:round; stroke-width:2.2; stroke-opacity:0.05; fill:none" points="1003.77,1394.28 1003.77,207.94 "/>
<polyline clip-path="url(#clip572)" style="stroke:#222255; stroke-linecap:round; stroke-linejoin:round; stroke-width:2.2; stroke-opacity:0.05; fill:none" points="1082.89,1394.28 1082.89,207.94 "/>
<polyline clip-path="url(#clip572)" style="stroke:#222255; stroke-linecap:round; stroke-linejoin:round; stroke-width:2.2; stroke-opacity:0.05; fill:none" points="1162.01,1394.28 1162.01,207.94 "/>
<polyline clip-path="url(#clip572)" style="stroke:#222255; stroke-linecap:round; stroke-linejoin:round; stroke-width:2.2; stroke-opacity:0.05; fill:none" points="1241.13,1394.28 1241.13,207.94 "/>
<polyline clip-path="url(#clip572)" style="stroke:#222255; stroke-linecap:round; stroke-linejoin:round; stroke-width:2.2; stroke-opacity:0.05; fill:none" points="1399.37,1394.28 1399.37,207.94 "/>
<polyline clip-path="url(#clip572)" style="stroke:#222255; stroke-linecap:round; stroke-linejoin:round; stroke-width:2.2; stroke-opacity:0.05; fill:none" points="1478.49,1394.28 1478.49,207.94 "/>
<polyline clip-path="url(#clip572)" style="stroke:#222255; stroke-linecap:round; stroke-linejoin:round; stroke-width:2.2; stroke-opacity:0.05; fill:none" points="1557.62,1394.28 1557.62,207.94 "/>
<polyline clip-path="url(#clip572)" style="stroke:#222255; stroke-linecap:round; stroke-linejoin:round; stroke-width:2.2; stroke-opacity:0.05; fill:none" points="1636.74,1394.28 1636.74,207.94 "/>
<polyline clip-path="url(#clip572)" style="stroke:#222255; stroke-linecap:round; stroke-linejoin:round; stroke-width:2.2; stroke-opacity:0.05; fill:none" points="1794.98,1394.28 1794.98,207.94 "/>
<polyline clip-path="url(#clip572)" style="stroke:#222255; stroke-linecap:round; stroke-linejoin:round; stroke-width:2.2; stroke-opacity:0.05; fill:none" points="1874.1,1394.28 1874.1,207.94 "/>
<polyline clip-path="url(#clip572)" style="stroke:#222255; stroke-linecap:round; stroke-linejoin:round; stroke-width:2.2; stroke-opacity:0.05; fill:none" points="1953.22,1394.28 1953.22,207.94 "/>
<polyline clip-path="url(#clip572)" style="stroke:#222255; stroke-linecap:round; stroke-linejoin:round; stroke-width:2.2; stroke-opacity:0.05; fill:none" points="2032.34,1394.28 2032.34,207.94 "/>
<polyline clip-path="url(#clip572)" style="stroke:#222255; stroke-linecap:round; stroke-linejoin:round; stroke-width:2.2; stroke-opacity:0.05; fill:none" points="2190.58,1394.28 2190.58,207.94 "/>
<polyline clip-path="url(#clip572)" style="stroke:#222255; stroke-linecap:round; stroke-linejoin:round; stroke-width:2.2; stroke-opacity:0.05; fill:none" points="2269.7,1394.28 2269.7,207.94 "/>
<polyline clip-path="url(#clip572)" style="stroke:#222255; stroke-linecap:round; stroke-linejoin:round; stroke-width:2.2; stroke-opacity:0.05; fill:none" points="361.768,1367.42 2278.74,1367.42 "/>
<polyline clip-path="url(#clip572)" style="stroke:#222255; stroke-linecap:round; stroke-linejoin:round; stroke-width:2.2; stroke-opacity:0.05; fill:none" points="361.768,1309.62 2278.74,1309.62 "/>
<polyline clip-path="url(#clip572)" style="stroke:#222255; stroke-linecap:round; stroke-linejoin:round; stroke-width:2.2; stroke-opacity:0.05; fill:none" points="361.768,1194.02 2278.74,1194.02 "/>
<polyline clip-path="url(#clip572)" style="stroke:#222255; stroke-linecap:round; stroke-linejoin:round; stroke-width:2.2; stroke-opacity:0.05; fill:none" points="361.768,1136.22 2278.74,1136.22 "/>
<polyline clip-path="url(#clip572)" style="stroke:#222255; stroke-linecap:round; stroke-linejoin:round; stroke-width:2.2; stroke-opacity:0.05; fill:none" points="361.768,1078.41 2278.74,1078.41 "/>
<polyline clip-path="url(#clip572)" style="stroke:#222255; stroke-linecap:round; stroke-linejoin:round; stroke-width:2.2; stroke-opacity:0.05; fill:none" points="361.768,1020.61 2278.74,1020.61 "/>
<polyline clip-path="url(#clip572)" style="stroke:#222255; stroke-linecap:round; stroke-linejoin:round; stroke-width:2.2; stroke-opacity:0.05; fill:none" points="361.768,905.009 2278.74,905.009 "/>
<polyline clip-path="url(#clip572)" style="stroke:#222255; stroke-linecap:round; stroke-linejoin:round; stroke-width:2.2; stroke-opacity:0.05; fill:none" points="361.768,847.208 2278.74,847.208 "/>
<polyline clip-path="url(#clip572)" style="stroke:#222255; stroke-linecap:round; stroke-linejoin:round; stroke-width:2.2; stroke-opacity:0.05; fill:none" points="361.768,789.406 2278.74,789.406 "/>
<polyline clip-path="url(#clip572)" style="stroke:#222255; stroke-linecap:round; stroke-linejoin:round; stroke-width:2.2; stroke-opacity:0.05; fill:none" points="361.768,731.605 2278.74,731.605 "/>
<polyline clip-path="url(#clip572)" style="stroke:#222255; stroke-linecap:round; stroke-linejoin:round; stroke-width:2.2; stroke-opacity:0.05; fill:none" points="361.768,616.001 2278.74,616.001 "/>
<polyline clip-path="url(#clip572)" style="stroke:#222255; stroke-linecap:round; stroke-linejoin:round; stroke-width:2.2; stroke-opacity:0.05; fill:none" points="361.768,558.2 2278.74,558.2 "/>
<polyline clip-path="url(#clip572)" style="stroke:#222255; stroke-linecap:round; stroke-linejoin:round; stroke-width:2.2; stroke-opacity:0.05; fill:none" points="361.768,500.398 2278.74,500.398 "/>
<polyline clip-path="url(#clip572)" style="stroke:#222255; stroke-linecap:round; stroke-linejoin:round; stroke-width:2.2; stroke-opacity:0.05; fill:none" points="361.768,442.597 2278.74,442.597 "/>
<polyline clip-path="url(#clip572)" style="stroke:#222255; stroke-linecap:round; stroke-linejoin:round; stroke-width:2.2; stroke-opacity:0.05; fill:none" points="361.768,326.994 2278.74,326.994 "/>
<polyline clip-path="url(#clip572)" style="stroke:#222255; stroke-linecap:round; stroke-linejoin:round; stroke-width:2.2; stroke-opacity:0.05; fill:none" points="361.768,269.192 2278.74,269.192 "/>
<polyline clip-path="url(#clip572)" style="stroke:#222255; stroke-linecap:round; stroke-linejoin:round; stroke-width:2.2; stroke-opacity:0.05; fill:none" points="361.768,211.39 2278.74,211.39 "/>
<polyline clip-path="url(#clip572)" style="stroke:#222255; stroke-linecap:round; stroke-linejoin:round; stroke-width:2.2; stroke-opacity:0.1; fill:none" points="529.051,1394.28 529.051,207.94 "/>
<polyline clip-path="url(#clip572)" style="stroke:#222255; stroke-linecap:round; stroke-linejoin:round; stroke-width:2.2; stroke-opacity:0.1; fill:none" points="924.653,1394.28 924.653,207.94 "/>
<polyline clip-path="url(#clip572)" style="stroke:#222255; stroke-linecap:round; stroke-linejoin:round; stroke-width:2.2; stroke-opacity:0.1; fill:none" points="1320.25,1394.28 1320.25,207.94 "/>
<polyline clip-path="url(#clip572)" style="stroke:#222255; stroke-linecap:round; stroke-linejoin:round; stroke-width:2.2; stroke-opacity:0.1; fill:none" points="1715.86,1394.28 1715.86,207.94 "/>
<polyline clip-path="url(#clip572)" style="stroke:#222255; stroke-linecap:round; stroke-linejoin:round; stroke-width:2.2; stroke-opacity:0.1; fill:none" points="2111.46,1394.28 2111.46,207.94 "/>
<polyline clip-path="url(#clip572)" style="stroke:#222255; stroke-linecap:round; stroke-linejoin:round; stroke-width:2.2; stroke-opacity:0.1; fill:none" points="361.768,1251.82 2278.74,1251.82 "/>
<polyline clip-path="url(#clip572)" style="stroke:#222255; stroke-linecap:round; stroke-linejoin:round; stroke-width:2.2; stroke-opacity:0.1; fill:none" points="361.768,962.811 2278.74,962.811 "/>
<polyline clip-path="url(#clip572)" style="stroke:#222255; stroke-linecap:round; stroke-linejoin:round; stroke-width:2.2; stroke-opacity:0.1; fill:none" points="361.768,673.803 2278.74,673.803 "/>
<polyline clip-path="url(#clip572)" style="stroke:#222255; stroke-linecap:round; stroke-linejoin:round; stroke-width:2.2; stroke-opacity:0.1; fill:none" points="361.768,384.795 2278.74,384.795 "/>
<polyline clip-path="url(#clip570)" style="stroke:#222255; stroke-linecap:round; stroke-linejoin:round; stroke-width:4.4; stroke-opacity:0; fill:none" points="529.051,1394.28 529.051,1375.38 "/>
<polyline clip-path="url(#clip570)" style="stroke:#222255; stroke-linecap:round; stroke-linejoin:round; stroke-width:4.4; stroke-opacity:0; fill:none" points="924.653,1394.28 924.653,1375.38 "/>
<polyline clip-path="url(#clip570)" style="stroke:#222255; stroke-linecap:round; stroke-linejoin:round; stroke-width:4.4; stroke-opacity:0; fill:none" points="1320.25,1394.28 1320.25,1375.38 "/>
<polyline clip-path="url(#clip570)" style="stroke:#222255; stroke-linecap:round; stroke-linejoin:round; stroke-width:4.4; stroke-opacity:0; fill:none" points="1715.86,1394.28 1715.86,1375.38 "/>
<polyline clip-path="url(#clip570)" style="stroke:#222255; stroke-linecap:round; stroke-linejoin:round; stroke-width:4.4; stroke-opacity:0; fill:none" points="2111.46,1394.28 2111.46,1375.38 "/>
<polyline clip-path="url(#clip570)" style="stroke:#222255; stroke-linecap:round; stroke-linejoin:round; stroke-width:4.4; stroke-opacity:0; fill:none" points="370.81,1394.28 370.81,1384.83 "/>
<polyline clip-path="url(#clip570)" style="stroke:#222255; stroke-linecap:round; stroke-linejoin:round; stroke-width:4.4; stroke-opacity:0; fill:none" points="449.931,1394.28 449.931,1384.83 "/>
<polyline clip-path="url(#clip570)" style="stroke:#222255; stroke-linecap:round; stroke-linejoin:round; stroke-width:4.4; stroke-opacity:0; fill:none" points="608.171,1394.28 608.171,1384.83 "/>
<polyline clip-path="url(#clip570)" style="stroke:#222255; stroke-linecap:round; stroke-linejoin:round; stroke-width:4.4; stroke-opacity:0; fill:none" points="687.292,1394.28 687.292,1384.83 "/>
<polyline clip-path="url(#clip570)" style="stroke:#222255; stroke-linecap:round; stroke-linejoin:round; stroke-width:4.4; stroke-opacity:0; fill:none" points="766.412,1394.28 766.412,1384.83 "/>
<polyline clip-path="url(#clip570)" style="stroke:#222255; stroke-linecap:round; stroke-linejoin:round; stroke-width:4.4; stroke-opacity:0; fill:none" points="845.532,1394.28 845.532,1384.83 "/>
<polyline clip-path="url(#clip570)" style="stroke:#222255; stroke-linecap:round; stroke-linejoin:round; stroke-width:4.4; stroke-opacity:0; fill:none" points="1003.77,1394.28 1003.77,1384.83 "/>
<polyline clip-path="url(#clip570)" style="stroke:#222255; stroke-linecap:round; stroke-linejoin:round; stroke-width:4.4; stroke-opacity:0; fill:none" points="1082.89,1394.28 1082.89,1384.83 "/>
<polyline clip-path="url(#clip570)" style="stroke:#222255; stroke-linecap:round; stroke-linejoin:round; stroke-width:4.4; stroke-opacity:0; fill:none" points="1162.01,1394.28 1162.01,1384.83 "/>
<polyline clip-path="url(#clip570)" style="stroke:#222255; stroke-linecap:round; stroke-linejoin:round; stroke-width:4.4; stroke-opacity:0; fill:none" points="1241.13,1394.28 1241.13,1384.83 "/>
<polyline clip-path="url(#clip570)" style="stroke:#222255; stroke-linecap:round; stroke-linejoin:round; stroke-width:4.4; stroke-opacity:0; fill:none" points="1399.37,1394.28 1399.37,1384.83 "/>
<polyline clip-path="url(#clip570)" style="stroke:#222255; stroke-linecap:round; stroke-linejoin:round; stroke-width:4.4; stroke-opacity:0; fill:none" points="1478.49,1394.28 1478.49,1384.83 "/>
<polyline clip-path="url(#clip570)" style="stroke:#222255; stroke-linecap:round; stroke-linejoin:round; stroke-width:4.4; stroke-opacity:0; fill:none" points="1557.62,1394.28 1557.62,1384.83 "/>
<polyline clip-path="url(#clip570)" style="stroke:#222255; stroke-linecap:round; stroke-linejoin:round; stroke-width:4.4; stroke-opacity:0; fill:none" points="1636.74,1394.28 1636.74,1384.83 "/>
<polyline clip-path="url(#clip570)" style="stroke:#222255; stroke-linecap:round; stroke-linejoin:round; stroke-width:4.4; stroke-opacity:0; fill:none" points="1794.98,1394.28 1794.98,1384.83 "/>
<polyline clip-path="url(#clip570)" style="stroke:#222255; stroke-linecap:round; stroke-linejoin:round; stroke-width:4.4; stroke-opacity:0; fill:none" points="1874.1,1394.28 1874.1,1384.83 "/>
<polyline clip-path="url(#clip570)" style="stroke:#222255; stroke-linecap:round; stroke-linejoin:round; stroke-width:4.4; stroke-opacity:0; fill:none" points="1953.22,1394.28 1953.22,1384.83 "/>
<polyline clip-path="url(#clip570)" style="stroke:#222255; stroke-linecap:round; stroke-linejoin:round; stroke-width:4.4; stroke-opacity:0; fill:none" points="2032.34,1394.28 2032.34,1384.83 "/>
<polyline clip-path="url(#clip570)" style="stroke:#222255; stroke-linecap:round; stroke-linejoin:round; stroke-width:4.4; stroke-opacity:0; fill:none" points="2190.58,1394.28 2190.58,1384.83 "/>
<polyline clip-path="url(#clip570)" style="stroke:#222255; stroke-linecap:round; stroke-linejoin:round; stroke-width:4.4; stroke-opacity:0; fill:none" points="2269.7,1394.28 2269.7,1384.83 "/>
<g clip-path="url(#clip570)">
<text style="fill:#000000; fill-opacity:1; font-family:Century Gothic,CenturyGothic,AppleGothic,sans-serif; font-size:65px; text-anchor:middle;" transform="rotate(0, 529.051, 1471.25)" x="529.051" y="1471.25">EGP</text>
</g>
<g clip-path="url(#clip570)">
<text style="fill:#000000; fill-opacity:1; font-family:Century Gothic,CenturyGothic,AppleGothic,sans-serif; font-size:65px; text-anchor:middle;" transform="rotate(0, 924.653, 1471.25)" x="924.653" y="1471.25">FPRL</text>
</g>
<g clip-path="url(#clip570)">
<text style="fill:#000000; fill-opacity:1; font-family:Century Gothic,CenturyGothic,AppleGothic,sans-serif; font-size:65px; text-anchor:middle;" transform="rotate(0, 1320.25, 1471.25)" x="1320.25" y="1471.25">ICRL</text>
</g>
<g clip-path="url(#clip570)">
<text style="fill:#000000; fill-opacity:1; font-family:Century Gothic,CenturyGothic,AppleGothic,sans-serif; font-size:65px; text-anchor:middle;" transform="rotate(0, 1715.86, 1471.25)" x="1715.86" y="1471.25">PPO</text>
</g>
<g clip-path="url(#clip570)">
<text style="fill:#000000; fill-opacity:1; font-family:Century Gothic,CenturyGothic,AppleGothic,sans-serif; font-size:65px; text-anchor:middle;" transform="rotate(0, 2111.46, 1471.25)" x="2111.46" y="1471.25">SAC</text>
</g>
<polyline clip-path="url(#clip570)" style="stroke:#222255; stroke-linecap:round; stroke-linejoin:round; stroke-width:4.4; stroke-opacity:0; fill:none" points="361.768,1251.82 380.666,1251.82 "/>
<polyline clip-path="url(#clip570)" style="stroke:#222255; stroke-linecap:round; stroke-linejoin:round; stroke-width:4.4; stroke-opacity:0; fill:none" points="361.768,962.811 380.666,962.811 "/>
<polyline clip-path="url(#clip570)" style="stroke:#222255; stroke-linecap:round; stroke-linejoin:round; stroke-width:4.4; stroke-opacity:0; fill:none" points="361.768,673.803 380.666,673.803 "/>
<polyline clip-path="url(#clip570)" style="stroke:#222255; stroke-linecap:round; stroke-linejoin:round; stroke-width:4.4; stroke-opacity:0; fill:none" points="361.768,384.795 380.666,384.795 "/>
<polyline clip-path="url(#clip570)" style="stroke:#222255; stroke-linecap:round; stroke-linejoin:round; stroke-width:4.4; stroke-opacity:0; fill:none" points="361.768,1367.42 371.217,1367.42 "/>
<polyline clip-path="url(#clip570)" style="stroke:#222255; stroke-linecap:round; stroke-linejoin:round; stroke-width:4.4; stroke-opacity:0; fill:none" points="361.768,1309.62 371.217,1309.62 "/>
<polyline clip-path="url(#clip570)" style="stroke:#222255; stroke-linecap:round; stroke-linejoin:round; stroke-width:4.4; stroke-opacity:0; fill:none" points="361.768,1194.02 371.217,1194.02 "/>
<polyline clip-path="url(#clip570)" style="stroke:#222255; stroke-linecap:round; stroke-linejoin:round; stroke-width:4.4; stroke-opacity:0; fill:none" points="361.768,1136.22 371.217,1136.22 "/>
<polyline clip-path="url(#clip570)" style="stroke:#222255; stroke-linecap:round; stroke-linejoin:round; stroke-width:4.4; stroke-opacity:0; fill:none" points="361.768,1078.41 371.217,1078.41 "/>
<polyline clip-path="url(#clip570)" style="stroke:#222255; stroke-linecap:round; stroke-linejoin:round; stroke-width:4.4; stroke-opacity:0; fill:none" points="361.768,1020.61 371.217,1020.61 "/>
<polyline clip-path="url(#clip570)" style="stroke:#222255; stroke-linecap:round; stroke-linejoin:round; stroke-width:4.4; stroke-opacity:0; fill:none" points="361.768,905.009 371.217,905.009 "/>
<polyline clip-path="url(#clip570)" style="stroke:#222255; stroke-linecap:round; stroke-linejoin:round; stroke-width:4.4; stroke-opacity:0; fill:none" points="361.768,847.208 371.217,847.208 "/>
<polyline clip-path="url(#clip570)" style="stroke:#222255; stroke-linecap:round; stroke-linejoin:round; stroke-width:4.4; stroke-opacity:0; fill:none" points="361.768,789.406 371.217,789.406 "/>
<polyline clip-path="url(#clip570)" style="stroke:#222255; stroke-linecap:round; stroke-linejoin:round; stroke-width:4.4; stroke-opacity:0; fill:none" points="361.768,731.605 371.217,731.605 "/>
<polyline clip-path="url(#clip570)" style="stroke:#222255; stroke-linecap:round; stroke-linejoin:round; stroke-width:4.4; stroke-opacity:0; fill:none" points="361.768,616.001 371.217,616.001 "/>
<polyline clip-path="url(#clip570)" style="stroke:#222255; stroke-linecap:round; stroke-linejoin:round; stroke-width:4.4; stroke-opacity:0; fill:none" points="361.768,558.2 371.217,558.2 "/>
<polyline clip-path="url(#clip570)" style="stroke:#222255; stroke-linecap:round; stroke-linejoin:round; stroke-width:4.4; stroke-opacity:0; fill:none" points="361.768,500.398 371.217,500.398 "/>
<polyline clip-path="url(#clip570)" style="stroke:#222255; stroke-linecap:round; stroke-linejoin:round; stroke-width:4.4; stroke-opacity:0; fill:none" points="361.768,442.597 371.217,442.597 "/>
<polyline clip-path="url(#clip570)" style="stroke:#222255; stroke-linecap:round; stroke-linejoin:round; stroke-width:4.4; stroke-opacity:0; fill:none" points="361.768,326.994 371.217,326.994 "/>
<polyline clip-path="url(#clip570)" style="stroke:#222255; stroke-linecap:round; stroke-linejoin:round; stroke-width:4.4; stroke-opacity:0; fill:none" points="361.768,269.192 371.217,269.192 "/>
<polyline clip-path="url(#clip570)" style="stroke:#222255; stroke-linecap:round; stroke-linejoin:round; stroke-width:4.4; stroke-opacity:0; fill:none" points="361.768,211.39 371.217,211.39 "/>
<g clip-path="url(#clip570)">
<text style="fill:#000000; fill-opacity:1; font-family:Century Gothic,CenturyGothic,AppleGothic,sans-serif; font-size:65px; text-anchor:middle;" transform="rotate(0, 271.216, 1275.82)" x="271.216" y="1275.82">−40</text>
</g>
<g clip-path="url(#clip570)">
<text style="fill:#000000; fill-opacity:1; font-family:Century Gothic,CenturyGothic,AppleGothic,sans-serif; font-size:65px; text-anchor:middle;" transform="rotate(0, 271.216, 986.811)" x="271.216" y="986.811">−30</text>
</g>
<g clip-path="url(#clip570)">
<text style="fill:#000000; fill-opacity:1; font-family:Century Gothic,CenturyGothic,AppleGothic,sans-serif; font-size:65px; text-anchor:middle;" transform="rotate(0, 271.216, 697.803)" x="271.216" y="697.803">−20</text>
</g>
<g clip-path="url(#clip570)">
<text style="fill:#000000; fill-opacity:1; font-family:Century Gothic,CenturyGothic,AppleGothic,sans-serif; font-size:65px; text-anchor:middle;" transform="rotate(0, 271.216, 408.795)" x="271.216" y="408.795">−10</text>
</g>
<g clip-path="url(#clip570)">
<text style="fill:#000000; fill-opacity:1; font-family:Century Gothic,CenturyGothic,AppleGothic,sans-serif; font-size:77px; text-anchor:middle;" transform="rotate(-90, 167.998, 801.108)" x="167.998" y="801.108">Reward Distribution</text>
</g>
<g clip-path="url(#clip570)">
<text style="fill:#000000; fill-opacity:1; font-family:Century Gothic,CenturyGothic,AppleGothic,sans-serif; font-size:91px; text-anchor:middle;" transform="rotate(0, 1320.25, 80.4)" x="1320.25" y="80.4">Performance Density: Tier 2</text>
</g>
<path clip-path="url(#clip572)" d="M634.761 1360.25 L636.655 1356.8 L638.213 1353.35 L639.455 1349.9 L640.407 1346.45 L641.103 1343.01 L641.578 1339.56 L641.873 1336.11 L642.027 1332.66 L642.08 1329.21 L642.068 1325.76 L642.024 1322.31 L641.974 1318.87 L641.937 1315.42 L641.926 1311.97 L641.943 1308.52 L641.982 1305.07 L642.031 1301.62 L642.068 1298.17 L642.063 1294.73 L641.985 1291.28 L641.795 1287.83 L641.454 1284.38 L640.922 1280.93 L640.159 1277.48 L639.13 1274.03 L637.804 1270.59 L636.157 1267.14 L634.169 1263.69 L631.833 1260.24 L629.145 1256.79 L626.115 1253.34 L622.756 1249.9 L619.094 1246.45 L615.159 1243 L610.987 1239.55 L606.621 1236.1 L602.107 1232.65 L597.491 1229.2 L592.823 1225.76 L588.151 1222.31 L583.521 1218.86 L578.978 1215.41 L574.561 1211.96 L570.306 1208.51 L566.245 1205.06 L562.404 1201.62 L558.803 1198.17 L555.459 1194.72 L552.382 1191.27 L549.58 1187.82 L547.055 1184.37 L544.807 1180.92 L542.833 1177.48 L541.13 1174.03 L539.69 1170.58 L538.508 1167.13 L537.578 1163.68 L536.895 1160.23 L536.453 1156.79 L536.249 1153.34 L536.283 1149.89 L536.554 1146.44 L537.064 1142.99 L537.816 1139.54 L538.815 1136.09 L540.066 1132.65 L541.575 1129.2 L543.347 1125.75 L545.388 1122.3 L547.701 1118.85 L550.285 1115.4 L553.141 1111.95 L556.261 1108.51 L559.636 1105.06 L563.251 1101.61 L567.086 1098.16 L571.115 1094.71 L575.306 1091.26 L579.621 1087.81 L584.017 1084.37 L588.446 1080.92 L592.856 1077.47 L597.191 1074.02 L601.391 1070.57 L605.397 1067.12 L609.149 1063.68 L612.59 1060.23 L615.664 1056.78 L618.32 1053.33 L620.514 1049.88 L622.208 1046.43 L623.373 1042.98 L623.988 1039.54 L624.042 1036.09 L623.535 1032.64 L434.567 1032.64 L434.059 1036.09 L434.114 1039.54 L434.729 1042.98 L435.893 1046.43 L437.588 1049.88 L439.782 1053.33 L442.438 1056.78 L445.512 1060.23 L448.953 1063.68 L452.705 1067.12 L456.711 1070.57 L460.911 1074.02 L465.246 1077.47 L469.656 1080.92 L474.085 1084.37 L478.481 1087.81 L482.796 1091.26 L486.987 1094.71 L491.016 1098.16 L494.851 1101.61 L498.466 1105.06 L501.841 1108.51 L504.961 1111.95 L507.817 1115.4 L510.401 1118.85 L512.714 1122.3 L514.754 1125.75 L516.527 1129.2 L518.036 1132.65 L519.287 1136.09 L520.286 1139.54 L521.038 1142.99 L521.548 1146.44 L521.819 1149.89 L521.853 1153.34 L521.649 1156.79 L521.207 1160.23 L520.523 1163.68 L519.593 1167.13 L518.412 1170.58 L516.972 1174.03 L515.268 1177.48 L513.295 1180.92 L511.047 1184.37 L508.522 1187.82 L505.72 1191.27 L502.643 1194.72 L499.299 1198.17 L495.698 1201.62 L491.857 1205.06 L487.796 1208.51 L483.541 1211.96 L479.124 1215.41 L474.581 1218.86 L469.951 1222.31 L465.279 1225.76 L460.611 1229.2 L455.995 1232.65 L451.481 1236.1 L447.115 1239.55 L442.943 1243 L439.008 1246.45 L435.346 1249.9 L431.987 1253.34 L428.957 1256.79 L426.269 1260.24 L423.932 1263.69 L421.945 1267.14 L420.298 1270.59 L418.972 1274.03 L417.943 1277.48 L417.18 1280.93 L416.648 1284.38 L416.307 1287.83 L416.117 1291.28 L416.039 1294.73 L416.034 1298.17 L416.071 1301.62 L416.119 1305.07 L416.159 1308.52 L416.176 1311.97 L416.165 1315.42 L416.128 1318.87 L416.078 1322.31 L416.034 1325.76 L416.022 1329.21 L416.075 1332.66 L416.229 1336.11 L416.524 1339.56 L416.999 1343.01 L417.695 1346.45 L418.647 1349.9 L419.889 1353.35 L421.447 1356.8 L423.341 1360.25 L634.761 1360.25  Z" fill="#ee7733" fill-rule="evenodd" fill-opacity="0.4"/>
<polyline clip-path="url(#clip572)" style="stroke:#000000; stroke-linecap:round; stroke-linejoin:round; stroke-width:5.28; stroke-opacity:0.4; fill:none" points="634.761,1360.25 636.655,1356.8 638.213,1353.35 639.455,1349.9 640.407,1346.45 641.103,1343.01 641.578,1339.56 641.873,1336.11 642.027,1332.66 642.08,1329.21 642.068,1325.76 642.024,1322.31 641.974,1318.87 641.937,1315.42 641.926,1311.97 641.943,1308.52 641.982,1305.07 642.031,1301.62 642.068,1298.17 642.063,1294.73 641.985,1291.28 641.795,1287.83 641.454,1284.38 640.922,1280.93 640.159,1277.48 639.13,1274.03 637.804,1270.59 636.157,1267.14 634.169,1263.69 631.833,1260.24 629.145,1256.79 626.115,1253.34 622.756,1249.9 619.094,1246.45 615.159,1243 610.987,1239.55 606.621,1236.1 602.107,1232.65 597.491,1229.2 592.823,1225.76 588.151,1222.31 583.521,1218.86 578.978,1215.41 574.561,1211.96 570.306,1208.51 566.245,1205.06 562.404,1201.62 558.803,1198.17 555.459,1194.72 552.382,1191.27 549.58,1187.82 547.055,1184.37 544.807,1180.92 542.833,1177.48 541.13,1174.03 539.69,1170.58 538.508,1167.13 537.578,1163.68 536.895,1160.23 536.453,1156.79 536.249,1153.34 536.283,1149.89 536.554,1146.44 537.064,1142.99 537.816,1139.54 538.815,1136.09 540.066,1132.65 541.575,1129.2 543.347,1125.75 545.388,1122.3 547.701,1118.85 550.285,1115.4 553.141,1111.95 556.261,1108.51 559.636,1105.06 563.251,1101.61 567.086,1098.16 571.115,1094.71 575.306,1091.26 579.621,1087.81 584.017,1084.37 588.446,1080.92 592.856,1077.47 597.191,1074.02 601.391,1070.57 605.397,1067.12 609.149,1063.68 612.59,1060.23 615.664,1056.78 618.32,1053.33 620.514,1049.88 622.208,1046.43 623.373,1042.98 623.988,1039.54 624.042,1036.09 623.535,1032.64 434.567,1032.64 434.059,1036.09 434.114,1039.54 434.729,1042.98 435.893,1046.43 437.588,1049.88 439.782,1053.33 442.438,1056.78 445.512,1060.23 448.953,1063.68 452.705,1067.12 456.711,1070.57 460.911,1074.02 465.246,1077.47 469.656,1080.92 474.085,1084.37 478.481,1087.81 482.796,1091.26 486.987,1094.71 491.016,1098.16 494.851,1101.61 498.466,1105.06 501.841,1108.51 504.961,1111.95 507.817,1115.4 510.401,1118.85 512.714,1122.3 514.754,1125.75 516.527,1129.2 518.036,1132.65 519.287,1136.09 520.286,1139.54 521.038,1142.99 521.548,1146.44 521.819,1149.89 521.853,1153.34 521.649,1156.79 521.207,1160.23 520.523,1163.68 519.593,1167.13 518.412,1170.58 516.972,1174.03 515.268,1177.48 513.295,1180.92 511.047,1184.37 508.522,1187.82 505.72,1191.27 502.643,1194.72 499.299,1198.17 495.698,1201.62 491.857,1205.06 487.796,1208.51 483.541,1211.96 479.124,1215.41 474.581,1218.86 469.951,1222.31 465.279,1225.76 460.611,1229.2 455.995,1232.65 451.481,1236.1 447.115,1239.55 442.943,1243 439.008,1246.45 435.346,1249.9 431.987,1253.34 428.957,1256.79 426.269,1260.24 423.932,1263.69 421.945,1267.14 420.298,1270.59 418.972,1274.03 417.943,1277.48 417.18,1280.93 416.648,1284.38 416.307,1287.83 416.117,1291.28 416.039,1294.73 416.034,1298.17 416.071,1301.62 416.119,1305.07 416.159,1308.52 416.176,1311.97 416.165,1315.42 416.128,1318.87 416.078,1322.31 416.034,1325.76 416.022,1329.21 416.075,1332.66 416.229,1336.11 416.524,1339.56 416.999,1343.01 417.695,1346.45 418.647,1349.9 419.889,1353.35 421.447,1356.8 423.341,1360.25 634.761,1360.25 "/>
<path clip-path="url(#clip572)" d="M989.312 245.243 L994.195 245.21 L999.006 245.177 L1003.69 245.144 L1008.2 245.111 L1012.47 245.078 L1016.48 245.046 L1020.18 245.013 L1023.53 244.98 L1026.53 244.947 L1029.15 244.914 L1031.39 244.881 L1033.26 244.849 L1034.76 244.816 L1035.92 244.783 L1036.76 244.75 L1037.32 244.717 L1037.61 244.684 L1037.68 244.651 L1037.56 244.619 L1037.26 244.586 L1036.82 244.553 L1036.26 244.52 L1035.58 244.487 L1034.79 244.454 L1033.9 244.422 L1032.88 244.389 L1031.74 244.356 L1030.45 244.323 L1028.99 244.29 L1027.36 244.257 L1025.52 244.225 L1023.45 244.192 L1021.16 244.159 L1018.61 244.126 L1015.82 244.093 L1012.79 244.06 L1009.52 244.028 L1006.03 243.995 L1002.34 243.962 L998.493 243.929 L994.511 243.896 L990.437 243.863 L986.314 243.83 L982.186 243.798 L978.097 243.765 L974.092 243.732 L970.214 243.699 L966.503 243.666 L962.995 243.633 L959.724 243.601 L956.718 243.568 L953.999 243.535 L951.585 243.502 L949.492 243.469 L947.727 243.436 L946.295 243.404 L945.197 243.371 L944.429 243.338 L943.986 243.305 L943.86 243.272 L944.038 243.239 L944.508 243.206 L945.256 243.174 L946.265 243.141 L947.517 243.108 L948.995 243.075 L950.678 243.042 L952.545 243.009 L954.576 242.977 L956.748 242.944 L959.037 242.911 L961.419 242.878 L963.871 242.845 L966.365 242.812 L968.878 242.78 L971.382 242.747 L973.851 242.714 L976.26 242.681 L978.583 242.648 L980.794 242.615 L982.87 242.583 L984.787 242.55 L986.523 242.517 L988.059 242.484 L989.376 242.451 L990.458 242.418 L991.292 242.385 L991.867 242.353 L992.174 242.32 L992.209 242.287 L991.97 242.254 L991.458 242.221 L990.677 242.188 L989.634 242.156 L988.34 242.123 L986.808 242.09 L985.055 242.057 L983.098 242.024 L980.958 241.991 L978.657 241.959 L976.219 241.926 L973.669 241.893 L971.031 241.86 L968.332 241.827 L965.597 241.794 L962.851 241.761 L960.116 241.729 L889.189 241.729 L886.454 241.761 L883.708 241.794 L880.973 241.827 L878.274 241.86 L875.636 241.893 L873.086 241.926 L870.648 241.959 L868.347 241.991 L866.207 242.024 L864.25 242.057 L862.497 242.09 L860.965 242.123 L859.671 242.156 L858.628 242.188 L857.847 242.221 L857.335 242.254 L857.096 242.287 L857.131 242.32 L857.439 242.353 L858.013 242.385 L858.847 242.418 L859.929 242.451 L861.246 242.484 L862.782 242.517 L864.518 242.55 L866.435 242.583 L868.511 242.615 L870.722 242.648 L873.045 242.681 L875.454 242.714 L877.923 242.747 L880.427 242.78 L882.94 242.812 L885.434 242.845 L887.886 242.878 L890.268 242.911 L892.557 242.944 L894.729 242.977 L896.76 243.009 L898.627 243.042 L900.31 243.075 L901.788 243.108 L903.04 243.141 L904.049 243.174 L904.797 243.206 L905.267 243.239 L905.445 243.272 L905.319 243.305 L904.876 243.338 L904.109 243.371 L903.01 243.404 L901.578 243.436 L899.813 243.469 L897.72 243.502 L895.306 243.535 L892.587 243.568 L889.581 243.601 L886.31 243.633 L882.802 243.666 L879.091 243.699 L875.213 243.732 L871.208 243.765 L867.119 243.798 L862.991 243.83 L858.868 243.863 L854.794 243.896 L850.812 243.929 L846.961 243.962 L843.277 243.995 L839.787 244.028 L836.517 244.06 L833.481 244.093 L830.691 244.126 L828.149 244.159 L825.852 244.192 L823.789 244.225 L821.948 244.257 L820.311 244.29 L818.857 244.323 L817.568 244.356 L816.424 244.389 L815.409 244.422 L814.511 244.454 L813.724 244.487 L813.045 244.52 L812.481 244.553 L812.043 244.586 L811.749 244.619 L811.623 244.651 L811.693 244.684 L811.988 244.717 L812.542 244.75 L813.384 244.783 L814.544 244.816 L816.048 244.849 L817.914 244.881 L820.155 244.914 L822.775 244.947 L825.77 244.98 L829.128 245.013 L832.825 245.046 L836.831 245.078 L841.109 245.111 L845.615 245.144 L850.299 245.177 L855.11 245.21 L859.993 245.243 L989.312 245.243  Z" fill="#0077bb" fill-rule="evenodd" fill-opacity="0.4"/>
<polyline clip-path="url(#clip572)" style="stroke:#000000; stroke-linecap:round; stroke-linejoin:round; stroke-width:5.28; stroke-opacity:0.4; fill:none" points="989.312,245.243 994.195,245.21 999.006,245.177 1003.69,245.144 1008.2,245.111 1012.47,245.078 1016.48,245.046 1020.18,245.013 1023.53,244.98 1026.53,244.947 1029.15,244.914 1031.39,244.881 1033.26,244.849 1034.76,244.816 1035.92,244.783 1036.76,244.75 1037.32,244.717 1037.61,244.684 1037.68,244.651 1037.56,244.619 1037.26,244.586 1036.82,244.553 1036.26,244.52 1035.58,244.487 1034.79,244.454 1033.9,244.422 1032.88,244.389 1031.74,244.356 1030.45,244.323 1028.99,244.29 1027.36,244.257 1025.52,244.225 1023.45,244.192 1021.16,244.159 1018.61,244.126 1015.82,244.093 1012.79,244.06 1009.52,244.028 1006.03,243.995 1002.34,243.962 998.493,243.929 994.511,243.896 990.437,243.863 986.314,243.83 982.186,243.798 978.097,243.765 974.092,243.732 970.214,243.699 966.503,243.666 962.995,243.633 959.724,243.601 956.718,243.568 953.999,243.535 951.585,243.502 949.492,243.469 947.727,243.436 946.295,243.404 945.197,243.371 944.429,243.338 943.986,243.305 943.86,243.272 944.038,243.239 944.508,243.206 945.256,243.174 946.265,243.141 947.517,243.108 948.995,243.075 950.678,243.042 952.545,243.009 954.576,242.977 956.748,242.944 959.037,242.911 961.419,242.878 963.871,242.845 966.365,242.812 968.878,242.78 971.382,242.747 973.851,242.714 976.26,242.681 978.583,242.648 980.794,242.615 982.87,242.583 984.787,242.55 986.523,242.517 988.059,242.484 989.376,242.451 990.458,242.418 991.292,242.385 991.867,242.353 992.174,242.32 992.209,242.287 991.97,242.254 991.458,242.221 990.677,242.188 989.634,242.156 988.34,242.123 986.808,242.09 985.055,242.057 983.098,242.024 980.958,241.991 978.657,241.959 976.219,241.926 973.669,241.893 971.031,241.86 968.332,241.827 965.597,241.794 962.851,241.761 960.116,241.729 889.189,241.729 886.454,241.761 883.708,241.794 880.973,241.827 878.274,241.86 875.636,241.893 873.086,241.926 870.648,241.959 868.347,241.991 866.207,242.024 864.25,242.057 862.497,242.09 860.965,242.123 859.671,242.156 858.628,242.188 857.847,242.221 857.335,242.254 857.096,242.287 857.131,242.32 857.439,242.353 858.013,242.385 858.847,242.418 859.929,242.451 861.246,242.484 862.782,242.517 864.518,242.55 866.435,242.583 868.511,242.615 870.722,242.648 873.045,242.681 875.454,242.714 877.923,242.747 880.427,242.78 882.94,242.812 885.434,242.845 887.886,242.878 890.268,242.911 892.557,242.944 894.729,242.977 896.76,243.009 898.627,243.042 900.31,243.075 901.788,243.108 903.04,243.141 904.049,243.174 904.797,243.206 905.267,243.239 905.445,243.272 905.319,243.305 904.876,243.338 904.109,243.371 903.01,243.404 901.578,243.436 899.813,243.469 897.72,243.502 895.306,243.535 892.587,243.568 889.581,243.601 886.31,243.633 882.802,243.666 879.091,243.699 875.213,243.732 871.208,243.765 867.119,243.798 862.991,243.83 858.868,243.863 854.794,243.896 850.812,243.929 846.961,243.962 843.277,243.995 839.787,244.028 836.517,244.06 833.481,244.093 830.691,244.126 828.149,244.159 825.852,244.192 823.789,244.225 821.948,244.257 820.311,244.29 818.857,244.323 817.568,244.356 816.424,244.389 815.409,244.422 814.511,244.454 813.724,244.487 813.045,244.52 812.481,244.553 812.043,244.586 811.749,244.619 811.623,244.651 811.693,244.684 811.988,244.717 812.542,244.75 813.384,244.783 814.544,244.816 816.048,244.849 817.914,244.881 820.155,244.914 822.775,244.947 825.77,244.98 829.128,245.013 832.825,245.046 836.831,245.078 841.109,245.111 845.615,245.144 850.299,245.177 855.11,245.21 859.993,245.243 989.312,245.243 "/>
<path clip-path="url(#clip572)" d="M1425.96 1360.25 L1427.86 1356.8 L1429.42 1353.35 L1430.66 1349.9 L1431.61 1346.45 L1432.31 1343.01 L1432.78 1339.56 L1433.08 1336.11 L1433.23 1332.66 L1433.28 1329.21 L1433.27 1325.76 L1433.23 1322.31 L1433.18 1318.87 L1433.14 1315.42 L1433.13 1311.97 L1433.15 1308.52 L1433.19 1305.07 L1433.23 1301.62 L1433.27 1298.17 L1433.27 1294.73 L1433.19 1291.28 L1433 1287.83 L1432.66 1284.38 L1432.12 1280.93 L1431.36 1277.48 L1430.33 1274.03 L1429.01 1270.59 L1427.36 1267.14 L1425.37 1263.69 L1423.04 1260.24 L1420.35 1256.79 L1417.32 1253.34 L1413.96 1249.9 L1410.3 1246.45 L1406.36 1243 L1402.19 1239.55 L1397.82 1236.1 L1393.31 1232.65 L1388.69 1229.2 L1384.03 1225.76 L1379.35 1222.31 L1374.72 1218.86 L1370.18 1215.41 L1365.76 1211.96 L1361.51 1208.51 L1357.45 1205.06 L1353.61 1201.62 L1350.01 1198.17 L1346.66 1194.72 L1343.59 1191.27 L1340.78 1187.82 L1338.26 1184.37 L1336.01 1180.92 L1334.04 1177.48 L1332.33 1174.03 L1330.89 1170.58 L1329.71 1167.13 L1328.78 1163.68 L1328.1 1160.23 L1327.66 1156.79 L1327.45 1153.34 L1327.49 1149.89 L1327.76 1146.44 L1328.27 1142.99 L1329.02 1139.54 L1330.02 1136.09 L1331.27 1132.65 L1332.78 1129.2 L1334.55 1125.75 L1336.59 1122.3 L1338.9 1118.85 L1341.49 1115.4 L1344.34 1111.95 L1347.46 1108.51 L1350.84 1105.06 L1354.45 1101.61 L1358.29 1098.16 L1362.32 1094.71 L1366.51 1091.26 L1370.82 1087.81 L1375.22 1084.37 L1379.65 1080.92 L1384.06 1077.47 L1388.39 1074.02 L1392.59 1070.57 L1396.6 1067.12 L1400.35 1063.68 L1403.79 1060.23 L1406.87 1056.78 L1409.52 1053.33 L1411.72 1049.88 L1413.41 1046.43 L1414.58 1042.98 L1415.19 1039.54 L1415.25 1036.09 L1414.74 1032.64 L1225.77 1032.64 L1225.26 1036.09 L1225.32 1039.54 L1225.93 1042.98 L1227.1 1046.43 L1228.79 1049.88 L1230.99 1053.33 L1233.64 1056.78 L1236.72 1060.23 L1240.16 1063.68 L1243.91 1067.12 L1247.91 1070.57 L1252.11 1074.02 L1256.45 1077.47 L1260.86 1080.92 L1265.29 1084.37 L1269.68 1087.81 L1274 1091.26 L1278.19 1094.71 L1282.22 1098.16 L1286.05 1101.61 L1289.67 1105.06 L1293.04 1108.51 L1296.16 1111.95 L1299.02 1115.4 L1301.6 1118.85 L1303.92 1122.3 L1305.96 1125.75 L1307.73 1129.2 L1309.24 1132.65 L1310.49 1136.09 L1311.49 1139.54 L1312.24 1142.99 L1312.75 1146.44 L1313.02 1149.89 L1313.06 1153.34 L1312.85 1156.79 L1312.41 1160.23 L1311.73 1163.68 L1310.8 1167.13 L1309.61 1170.58 L1308.18 1174.03 L1306.47 1177.48 L1304.5 1180.92 L1302.25 1184.37 L1299.73 1187.82 L1296.92 1191.27 L1293.85 1194.72 L1290.5 1198.17 L1286.9 1201.62 L1283.06 1205.06 L1279 1208.51 L1274.74 1211.96 L1270.33 1215.41 L1265.78 1218.86 L1261.15 1222.31 L1256.48 1225.76 L1251.81 1229.2 L1247.2 1232.65 L1242.68 1236.1 L1238.32 1239.55 L1234.15 1243 L1230.21 1246.45 L1226.55 1249.9 L1223.19 1253.34 L1220.16 1256.79 L1217.47 1260.24 L1215.14 1263.69 L1213.15 1267.14 L1211.5 1270.59 L1210.17 1274.03 L1209.15 1277.48 L1208.38 1280.93 L1207.85 1284.38 L1207.51 1287.83 L1207.32 1291.28 L1207.24 1294.73 L1207.24 1298.17 L1207.27 1301.62 L1207.32 1305.07 L1207.36 1308.52 L1207.38 1311.97 L1207.37 1315.42 L1207.33 1318.87 L1207.28 1322.31 L1207.24 1325.76 L1207.23 1329.21 L1207.28 1332.66 L1207.43 1336.11 L1207.73 1339.56 L1208.2 1343.01 L1208.9 1346.45 L1209.85 1349.9 L1211.09 1353.35 L1212.65 1356.8 L1214.54 1360.25 L1425.96 1360.25  Z" fill="#33bbee" fill-rule="evenodd" fill-opacity="0.4"/>
<polyline clip-path="url(#clip572)" style="stroke:#000000; stroke-linecap:round; stroke-linejoin:round; stroke-width:5.28; stroke-opacity:0.4; fill:none" points="1425.96,1360.25 1427.86,1356.8 1429.42,1353.35 1430.66,1349.9 1431.61,1346.45 1432.31,1343.01 1432.78,1339.56 1433.08,1336.11 1433.23,1332.66 1433.28,1329.21 1433.27,1325.76 1433.23,1322.31 1433.18,1318.87 1433.14,1315.42 1433.13,1311.97 1433.15,1308.52 1433.19,1305.07 1433.23,1301.62 1433.27,1298.17 1433.27,1294.73 1433.19,1291.28 1433,1287.83 1432.66,1284.38 1432.12,1280.93 1431.36,1277.48 1430.33,1274.03 1429.01,1270.59 1427.36,1267.14 1425.37,1263.69 1423.04,1260.24 1420.35,1256.79 1417.32,1253.34 1413.96,1249.9 1410.3,1246.45 1406.36,1243 1402.19,1239.55 1397.82,1236.1 1393.31,1232.65 1388.69,1229.2 1384.03,1225.76 1379.35,1222.31 1374.72,1218.86 1370.18,1215.41 1365.76,1211.96 1361.51,1208.51 1357.45,1205.06 1353.61,1201.62 1350.01,1198.17 1346.66,1194.72 1343.59,1191.27 1340.78,1187.82 1338.26,1184.37 1336.01,1180.92 1334.04,1177.48 1332.33,1174.03 1330.89,1170.58 1329.71,1167.13 1328.78,1163.68 1328.1,1160.23 1327.66,1156.79 1327.45,1153.34 1327.49,1149.89 1327.76,1146.44 1328.27,1142.99 1329.02,1139.54 1330.02,1136.09 1331.27,1132.65 1332.78,1129.2 1334.55,1125.75 1336.59,1122.3 1338.9,1118.85 1341.49,1115.4 1344.34,1111.95 1347.46,1108.51 1350.84,1105.06 1354.45,1101.61 1358.29,1098.16 1362.32,1094.71 1366.51,1091.26 1370.82,1087.81 1375.22,1084.37 1379.65,1080.92 1384.06,1077.47 1388.39,1074.02 1392.59,1070.57 1396.6,1067.12 1400.35,1063.68 1403.79,1060.23 1406.87,1056.78 1409.52,1053.33 1411.72,1049.88 1413.41,1046.43 1414.58,1042.98 1415.19,1039.54 1415.25,1036.09 1414.74,1032.64 1225.77,1032.64 1225.26,1036.09 1225.32,1039.54 1225.93,1042.98 1227.1,1046.43 1228.79,1049.88 1230.99,1053.33 1233.64,1056.78 1236.72,1060.23 1240.16,1063.68 1243.91,1067.12 1247.91,1070.57 1252.11,1074.02 1256.45,1077.47 1260.86,1080.92 1265.29,1084.37 1269.68,1087.81 1274,1091.26 1278.19,1094.71 1282.22,1098.16 1286.05,1101.61 1289.67,1105.06 1293.04,1108.51 1296.16,1111.95 1299.02,1115.4 1301.6,1118.85 1303.92,1122.3 1305.96,1125.75 1307.73,1129.2 1309.24,1132.65 1310.49,1136.09 1311.49,1139.54 1312.24,1142.99 1312.75,1146.44 1313.02,1149.89 1313.06,1153.34 1312.85,1156.79 1312.41,1160.23 1311.73,1163.68 1310.8,1167.13 1309.61,1170.58 1308.18,1174.03 1306.47,1177.48 1304.5,1180.92 1302.25,1184.37 1299.73,1187.82 1296.92,1191.27 1293.85,1194.72 1290.5,1198.17 1286.9,1201.62 1283.06,1205.06 1279,1208.51 1274.74,1211.96 1270.33,1215.41 1265.78,1218.86 1261.15,1222.31 1256.48,1225.76 1251.81,1229.2 1247.2,1232.65 1242.68,1236.1 1238.32,1239.55 1234.15,1243 1230.21,1246.45 1226.55,1249.9 1223.19,1253.34 1220.16,1256.79 1217.47,1260.24 1215.14,1263.69 1213.15,1267.14 1211.5,1270.59 1210.17,1274.03 1209.15,1277.48 1208.38,1280.93 1207.85,1284.38 1207.51,1287.83 1207.32,1291.28 1207.24,1294.73 1207.24,1298.17 1207.27,1301.62 1207.32,1305.07 1207.36,1308.52 1207.38,1311.97 1207.37,1315.42 1207.33,1318.87 1207.28,1322.31 1207.24,1325.76 1207.23,1329.21 1207.28,1332.66 1207.43,1336.11 1207.73,1339.56 1208.2,1343.01 1208.9,1346.45 1209.85,1349.9 1211.09,1353.35 1212.65,1356.8 1214.54,1360.25 1425.96,1360.25 "/>
<path clip-path="url(#clip572)" d="M1821.57 1360.25 L1823.46 1356.8 L1825.02 1353.35 L1826.26 1349.9 L1827.21 1346.45 L1827.91 1343.01 L1828.38 1339.56 L1828.68 1336.11 L1828.83 1332.66 L1828.88 1329.21 L1828.87 1325.76 L1828.83 1322.31 L1828.78 1318.87 L1828.74 1315.42 L1828.73 1311.97 L1828.75 1308.52 L1828.79 1305.07 L1828.84 1301.62 L1828.87 1298.17 L1828.87 1294.73 L1828.79 1291.28 L1828.6 1287.83 L1828.26 1284.38 L1827.73 1280.93 L1826.96 1277.48 L1825.93 1274.03 L1824.61 1270.59 L1822.96 1267.14 L1820.97 1263.69 L1818.64 1260.24 L1815.95 1256.79 L1812.92 1253.34 L1809.56 1249.9 L1805.9 1246.45 L1801.96 1243 L1797.79 1239.55 L1793.43 1236.1 L1788.91 1232.65 L1784.3 1229.2 L1779.63 1225.76 L1774.96 1222.31 L1770.33 1218.86 L1765.78 1215.41 L1761.37 1211.96 L1757.11 1208.51 L1753.05 1205.06 L1749.21 1201.62 L1745.61 1198.17 L1742.26 1194.72 L1739.19 1191.27 L1736.38 1187.82 L1733.86 1184.37 L1731.61 1180.92 L1729.64 1177.48 L1727.93 1174.03 L1726.49 1170.58 L1725.31 1167.13 L1724.38 1163.68 L1723.7 1160.23 L1723.26 1156.79 L1723.05 1153.34 L1723.09 1149.89 L1723.36 1146.44 L1723.87 1142.99 L1724.62 1139.54 L1725.62 1136.09 L1726.87 1132.65 L1728.38 1129.2 L1730.15 1125.75 L1732.19 1122.3 L1734.51 1118.85 L1737.09 1115.4 L1739.95 1111.95 L1743.07 1108.51 L1746.44 1105.06 L1750.06 1101.61 L1753.89 1098.16 L1757.92 1094.71 L1762.11 1091.26 L1766.43 1087.81 L1770.82 1084.37 L1775.25 1080.92 L1779.66 1077.47 L1784 1074.02 L1788.2 1070.57 L1792.2 1067.12 L1795.95 1063.68 L1799.39 1060.23 L1802.47 1056.78 L1805.12 1053.33 L1807.32 1049.88 L1809.01 1046.43 L1810.18 1042.98 L1810.79 1039.54 L1810.85 1036.09 L1810.34 1032.64 L1621.37 1032.64 L1620.86 1036.09 L1620.92 1039.54 L1621.53 1042.98 L1622.7 1046.43 L1624.39 1049.88 L1626.59 1053.33 L1629.24 1056.78 L1632.32 1060.23 L1635.76 1063.68 L1639.51 1067.12 L1643.52 1070.57 L1647.72 1074.02 L1652.05 1077.47 L1656.46 1080.92 L1660.89 1084.37 L1665.29 1087.81 L1669.6 1091.26 L1673.79 1094.71 L1677.82 1098.16 L1681.66 1101.61 L1685.27 1105.06 L1688.65 1108.51 L1691.77 1111.95 L1694.62 1115.4 L1697.21 1118.85 L1699.52 1122.3 L1701.56 1125.75 L1703.33 1129.2 L1704.84 1132.65 L1706.09 1136.09 L1707.09 1139.54 L1707.84 1142.99 L1708.35 1146.44 L1708.62 1149.89 L1708.66 1153.34 L1708.45 1156.79 L1708.01 1160.23 L1707.33 1163.68 L1706.4 1167.13 L1705.22 1170.58 L1703.78 1174.03 L1702.07 1177.48 L1700.1 1180.92 L1697.85 1184.37 L1695.33 1187.82 L1692.52 1191.27 L1689.45 1194.72 L1686.1 1198.17 L1682.5 1201.62 L1678.66 1205.06 L1674.6 1208.51 L1670.35 1211.96 L1665.93 1215.41 L1661.39 1218.86 L1656.76 1222.31 L1652.08 1225.76 L1647.42 1229.2 L1642.8 1232.65 L1638.29 1236.1 L1633.92 1239.55 L1629.75 1243 L1625.81 1246.45 L1622.15 1249.9 L1618.79 1253.34 L1615.76 1256.79 L1613.07 1260.24 L1610.74 1263.69 L1608.75 1267.14 L1607.1 1270.59 L1605.78 1274.03 L1604.75 1277.48 L1603.98 1280.93 L1603.45 1284.38 L1603.11 1287.83 L1602.92 1291.28 L1602.84 1294.73 L1602.84 1298.17 L1602.88 1301.62 L1602.92 1305.07 L1602.96 1308.52 L1602.98 1311.97 L1602.97 1315.42 L1602.93 1318.87 L1602.88 1322.31 L1602.84 1325.76 L1602.83 1329.21 L1602.88 1332.66 L1603.03 1336.11 L1603.33 1339.56 L1603.8 1343.01 L1604.5 1346.45 L1605.45 1349.9 L1606.69 1353.35 L1608.25 1356.8 L1610.15 1360.25 L1821.57 1360.25  Z" fill="#ee3377" fill-rule="evenodd" fill-opacity="0.4"/>
<polyline clip-path="url(#clip572)" style="stroke:#000000; stroke-linecap:round; stroke-linejoin:round; stroke-width:5.28; stroke-opacity:0.4; fill:none" points="1821.57,1360.25 1823.46,1356.8 1825.02,1353.35 1826.26,1349.9 1827.21,1346.45 1827.91,1343.01 1828.38,1339.56 1828.68,1336.11 1828.83,1332.66 1828.88,1329.21 1828.87,1325.76 1828.83,1322.31 1828.78,1318.87 1828.74,1315.42 1828.73,1311.97 1828.75,1308.52 1828.79,1305.07 1828.84,1301.62 1828.87,1298.17 1828.87,1294.73 1828.79,1291.28 1828.6,1287.83 1828.26,1284.38 1827.73,1280.93 1826.96,1277.48 1825.93,1274.03 1824.61,1270.59 1822.96,1267.14 1820.97,1263.69 1818.64,1260.24 1815.95,1256.79 1812.92,1253.34 1809.56,1249.9 1805.9,1246.45 1801.96,1243 1797.79,1239.55 1793.43,1236.1 1788.91,1232.65 1784.3,1229.2 1779.63,1225.76 1774.96,1222.31 1770.33,1218.86 1765.78,1215.41 1761.37,1211.96 1757.11,1208.51 1753.05,1205.06 1749.21,1201.62 1745.61,1198.17 1742.26,1194.72 1739.19,1191.27 1736.38,1187.82 1733.86,1184.37 1731.61,1180.92 1729.64,1177.48 1727.93,1174.03 1726.49,1170.58 1725.31,1167.13 1724.38,1163.68 1723.7,1160.23 1723.26,1156.79 1723.05,1153.34 1723.09,1149.89 1723.36,1146.44 1723.87,1142.99 1724.62,1139.54 1725.62,1136.09 1726.87,1132.65 1728.38,1129.2 1730.15,1125.75 1732.19,1122.3 1734.51,1118.85 1737.09,1115.4 1739.95,1111.95 1743.07,1108.51 1746.44,1105.06 1750.06,1101.61 1753.89,1098.16 1757.92,1094.71 1762.11,1091.26 1766.43,1087.81 1770.82,1084.37 1775.25,1080.92 1779.66,1077.47 1784,1074.02 1788.2,1070.57 1792.2,1067.12 1795.95,1063.68 1799.39,1060.23 1802.47,1056.78 1805.12,1053.33 1807.32,1049.88 1809.01,1046.43 1810.18,1042.98 1810.79,1039.54 1810.85,1036.09 1810.34,1032.64 1621.37,1032.64 1620.86,1036.09 1620.92,1039.54 1621.53,1042.98 1622.7,1046.43 1624.39,1049.88 1626.59,1053.33 1629.24,1056.78 1632.32,1060.23 1635.76,1063.68 1639.51,1067.12 1643.52,1070.57 1647.72,1074.02 1652.05,1077.47 1656.46,1080.92 1660.89,1084.37 1665.29,1087.81 1669.6,1091.26 1673.79,1094.71 1677.82,1098.16 1681.66,1101.61 1685.27,1105.06 1688.65,1108.51 1691.77,1111.95 1694.62,1115.4 1697.21,1118.85 1699.52,1122.3 1701.56,1125.75 1703.33,1129.2 1704.84,1132.65 1706.09,1136.09 1707.09,1139.54 1707.84,1142.99 1708.35,1146.44 1708.62,1149.89 1708.66,1153.34 1708.45,1156.79 1708.01,1160.23 1707.33,1163.68 1706.4,1167.13 1705.22,1170.58 1703.78,1174.03 1702.07,1177.48 1700.1,1180.92 1697.85,1184.37 1695.33,1187.82 1692.52,1191.27 1689.45,1194.72 1686.1,1198.17 1682.5,1201.62 1678.66,1205.06 1674.6,1208.51 1670.35,1211.96 1665.93,1215.41 1661.39,1218.86 1656.76,1222.31 1652.08,1225.76 1647.42,1229.2 1642.8,1232.65 1638.29,1236.1 1633.92,1239.55 1629.75,1243 1625.81,1246.45 1622.15,1249.9 1618.79,1253.34 1615.76,1256.79 1613.07,1260.24 1610.74,1263.69 1608.75,1267.14 1607.1,1270.59 1605.78,1274.03 1604.75,1277.48 1603.98,1280.93 1603.45,1284.38 1603.11,1287.83 1602.92,1291.28 1602.84,1294.73 1602.84,1298.17 1602.88,1301.62 1602.92,1305.07 1602.96,1308.52 1602.98,1311.97 1602.97,1315.42 1602.93,1318.87 1602.88,1322.31 1602.84,1325.76 1602.83,1329.21 1602.88,1332.66 1603.03,1336.11 1603.33,1339.56 1603.8,1343.01 1604.5,1346.45 1605.45,1349.9 1606.69,1353.35 1608.25,1356.8 1610.15,1360.25 1821.57,1360.25 "/>
<path clip-path="url(#clip572)" d="M2182.39 245.228 L2187.04 245.194 L2191.55 245.16 L2195.9 245.126 L2200.02 245.092 L2203.9 245.058 L2207.49 245.024 L2210.76 244.99 L2213.71 244.956 L2216.3 244.922 L2218.54 244.888 L2220.41 244.854 L2221.92 244.821 L2223.07 244.787 L2223.88 244.753 L2224.34 244.719 L2224.49 244.685 L2224.32 244.651 L2223.85 244.617 L2223.1 244.583 L2222.08 244.549 L2220.8 244.515 L2219.26 244.481 L2217.49 244.447 L2215.47 244.413 L2213.23 244.38 L2210.78 244.346 L2208.11 244.312 L2205.24 244.278 L2202.19 244.244 L2198.96 244.21 L2195.58 244.176 L2192.06 244.142 L2188.43 244.108 L2184.71 244.074 L2180.93 244.04 L2177.13 244.006 L2173.33 243.972 L2169.56 243.938 L2165.87 243.905 L2162.29 243.871 L2158.84 243.837 L2155.56 243.803 L2152.48 243.769 L2149.61 243.735 L2146.98 243.701 L2144.61 243.667 L2142.51 243.633 L2140.69 243.599 L2139.14 243.565 L2137.87 243.531 L2136.87 243.497 L2136.14 243.464 L2135.66 243.43 L2135.42 243.396 L2135.39 243.362 L2135.57 243.328 L2135.92 243.294 L2136.44 243.26 L2137.1 243.226 L2137.88 243.192 L2138.76 243.158 L2139.73 243.124 L2140.77 243.09 L2141.86 243.056 L2143 243.023 L2144.17 242.989 L2145.36 242.955 L2146.57 242.921 L2147.79 242.887 L2149 242.853 L2150.21 242.819 L2151.41 242.785 L2152.59 242.751 L2153.74 242.717 L2154.86 242.683 L2155.94 242.649 L2156.96 242.615 L2157.92 242.582 L2158.81 242.548 L2159.61 242.514 L2160.31 242.48 L2160.92 242.446 L2161.4 242.412 L2161.77 242.378 L2162 242.344 L2162.1 242.31 L2162.05 242.276 L2161.87 242.242 L2161.54 242.208 L2161.06 242.174 L2160.45 242.14 L2159.7 242.107 L2158.82 242.073 L2157.82 242.039 L2156.7 242.005 L2155.47 241.971 L2154.14 241.937 L2152.72 241.903 L2151.22 241.869 L2149.64 241.835 L2148.01 241.801 L2146.32 241.767 L2144.59 241.733 L2142.83 241.699 L2141.04 241.666 L2139.25 241.632 L2137.46 241.598 L2135.68 241.564 L2133.92 241.53 L2088.99 241.53 L2087.24 241.564 L2085.46 241.598 L2083.66 241.632 L2081.87 241.666 L2080.09 241.699 L2078.33 241.733 L2076.6 241.767 L2074.91 241.801 L2073.27 241.835 L2071.69 241.869 L2070.19 241.903 L2068.77 241.937 L2067.44 241.971 L2066.21 242.005 L2065.09 242.039 L2064.09 242.073 L2063.21 242.107 L2062.46 242.14 L2061.85 242.174 L2061.38 242.208 L2061.05 242.242 L2060.86 242.276 L2060.82 242.31 L2060.92 242.344 L2061.15 242.378 L2061.51 242.412 L2062 242.446 L2062.6 242.48 L2063.31 242.514 L2064.11 242.548 L2064.99 242.582 L2065.95 242.615 L2066.98 242.649 L2068.05 242.683 L2069.17 242.717 L2070.32 242.751 L2071.5 242.785 L2072.7 242.819 L2073.91 242.853 L2075.13 242.887 L2076.34 242.921 L2077.55 242.955 L2078.74 242.989 L2079.91 243.023 L2081.05 243.056 L2082.14 243.09 L2083.18 243.124 L2084.15 243.158 L2085.03 243.192 L2085.81 243.226 L2086.47 243.26 L2086.99 243.294 L2087.35 243.328 L2087.52 243.362 L2087.5 243.396 L2087.26 243.43 L2086.77 243.464 L2086.04 243.497 L2085.05 243.531 L2083.78 243.565 L2082.23 243.599 L2080.4 243.633 L2078.3 243.667 L2075.93 243.701 L2073.3 243.735 L2070.44 243.769 L2067.35 243.803 L2064.07 243.837 L2060.62 243.871 L2057.04 243.905 L2053.35 243.938 L2049.59 243.972 L2045.79 244.006 L2041.98 244.04 L2038.21 244.074 L2034.49 244.108 L2030.86 244.142 L2027.34 244.176 L2023.95 244.21 L2020.73 244.244 L2017.67 244.278 L2014.8 244.312 L2012.14 244.346 L2009.68 244.38 L2007.44 244.413 L2005.43 244.447 L2003.65 244.481 L2002.12 244.515 L2000.83 244.549 L1999.81 244.583 L1999.06 244.617 L1998.6 244.651 L1998.43 244.685 L1998.57 244.719 L1999.04 244.753 L1999.84 244.787 L2001 244.821 L2002.51 244.854 L2004.38 244.888 L2006.61 244.922 L2009.21 244.956 L2012.15 244.99 L2015.43 245.024 L2019.02 245.058 L2022.89 245.092 L2027.02 245.126 L2031.36 245.16 L2035.88 245.194 L2040.52 245.228 L2182.39 245.228  Z" fill="#cc3311" fill-rule="evenodd" fill-opacity="0.4"/>
<polyline clip-path="url(#clip572)" style="stroke:#000000; stroke-linecap:round; stroke-linejoin:round; stroke-width:5.28; stroke-opacity:0.4; fill:none" points="2182.39,245.228 2187.04,245.194 2191.55,245.16 2195.9,245.126 2200.02,245.092 2203.9,245.058 2207.49,245.024 2210.76,244.99 2213.71,244.956 2216.3,244.922 2218.54,244.888 2220.41,244.854 2221.92,244.821 2223.07,244.787 2223.88,244.753 2224.34,244.719 2224.49,244.685 2224.32,244.651 2223.85,244.617 2223.1,244.583 2222.08,244.549 2220.8,244.515 2219.26,244.481 2217.49,244.447 2215.47,244.413 2213.23,244.38 2210.78,244.346 2208.11,244.312 2205.24,244.278 2202.19,244.244 2198.96,244.21 2195.58,244.176 2192.06,244.142 2188.43,244.108 2184.71,244.074 2180.93,244.04 2177.13,244.006 2173.33,243.972 2169.56,243.938 2165.87,243.905 2162.29,243.871 2158.84,243.837 2155.56,243.803 2152.48,243.769 2149.61,243.735 2146.98,243.701 2144.61,243.667 2142.51,243.633 2140.69,243.599 2139.14,243.565 2137.87,243.531 2136.87,243.497 2136.14,243.464 2135.66,243.43 2135.42,243.396 2135.39,243.362 2135.57,243.328 2135.92,243.294 2136.44,243.26 2137.1,243.226 2137.88,243.192 2138.76,243.158 2139.73,243.124 2140.77,243.09 2141.86,243.056 2143,243.023 2144.17,242.989 2145.36,242.955 2146.57,242.921 2147.79,242.887 2149,242.853 2150.21,242.819 2151.41,242.785 2152.59,242.751 2153.74,242.717 2154.86,242.683 2155.94,242.649 2156.96,242.615 2157.92,242.582 2158.81,242.548 2159.61,242.514 2160.31,242.48 2160.92,242.446 2161.4,242.412 2161.77,242.378 2162,242.344 2162.1,242.31 2162.05,242.276 2161.87,242.242 2161.54,242.208 2161.06,242.174 2160.45,242.14 2159.7,242.107 2158.82,242.073 2157.82,242.039 2156.7,242.005 2155.47,241.971 2154.14,241.937 2152.72,241.903 2151.22,241.869 2149.64,241.835 2148.01,241.801 2146.32,241.767 2144.59,241.733 2142.83,241.699 2141.04,241.666 2139.25,241.632 2137.46,241.598 2135.68,241.564 2133.92,241.53 2088.99,241.53 2087.24,241.564 2085.46,241.598 2083.66,241.632 2081.87,241.666 2080.09,241.699 2078.33,241.733 2076.6,241.767 2074.91,241.801 2073.27,241.835 2071.69,241.869 2070.19,241.903 2068.77,241.937 2067.44,241.971 2066.21,242.005 2065.09,242.039 2064.09,242.073 2063.21,242.107 2062.46,242.14 2061.85,242.174 2061.38,242.208 2061.05,242.242 2060.86,242.276 2060.82,242.31 2060.92,242.344 2061.15,242.378 2061.51,242.412 2062,242.446 2062.6,242.48 2063.31,242.514 2064.11,242.548 2064.99,242.582 2065.95,242.615 2066.98,242.649 2068.05,242.683 2069.17,242.717 2070.32,242.751 2071.5,242.785 2072.7,242.819 2073.91,242.853 2075.13,242.887 2076.34,242.921 2077.55,242.955 2078.74,242.989 2079.91,243.023 2081.05,243.056 2082.14,243.09 2083.18,243.124 2084.15,243.158 2085.03,243.192 2085.81,243.226 2086.47,243.26 2086.99,243.294 2087.35,243.328 2087.52,243.362 2087.5,243.396 2087.26,243.43 2086.77,243.464 2086.04,243.497 2085.05,243.531 2083.78,243.565 2082.23,243.599 2080.4,243.633 2078.3,243.667 2075.93,243.701 2073.3,243.735 2070.44,243.769 2067.35,243.803 2064.07,243.837 2060.62,243.871 2057.04,243.905 2053.35,243.938 2049.59,243.972 2045.79,244.006 2041.98,244.04 2038.21,244.074 2034.49,244.108 2030.86,244.142 2027.34,244.176 2023.95,244.21 2020.73,244.244 2017.67,244.278 2014.8,244.312 2012.14,244.346 2009.68,244.38 2007.44,244.413 2005.43,244.447 2003.65,244.481 2002.12,244.515 2000.83,244.549 1999.81,244.583 1999.06,244.617 1998.6,244.651 1998.43,244.685 1998.57,244.719 1999.04,244.753 1999.84,244.787 2001,244.821 2002.51,244.854 2004.38,244.888 2006.61,244.922 2009.21,244.956 2012.15,244.99 2015.43,245.024 2019.02,245.058 2022.89,245.092 2027.02,245.126 2031.36,245.16 2035.88,245.194 2040.52,245.228 2182.39,245.228 "/>
<path clip-path="url(#clip572)" d="M529.051 1360.7 L472.536 1360.7 L585.565 1360.7 L529.051 1360.7 L529.051 1357.03 L529.051 1360.7  Z" fill="#000000" fill-rule="evenodd" fill-opacity="0.1"/>
<polyline clip-path="url(#clip572)" style="stroke:#000000; stroke-linecap:round; stroke-linejoin:round; stroke-width:5.28; stroke-opacity:1; fill:none" points="529.051,1360.7 472.536,1360.7 585.565,1360.7 529.051,1360.7 529.051,1357.03 529.051,1360.7 "/>
<path clip-path="url(#clip572)" d="M642.08 1357.03 L642.08 1266.69 L416.022 1266.69 L416.022 1357.03 L642.08 1357.03 L642.08 1266.69 L642.08 1357.03  Z" fill="#000000" fill-rule="evenodd" fill-opacity="0.1"/>
<polyline clip-path="url(#clip572)" style="stroke:#000000; stroke-linecap:round; stroke-linejoin:round; stroke-width:5.28; stroke-opacity:1; fill:none" points="642.08,1357.03 642.08,1266.69 416.022,1266.69 416.022,1357.03 642.08,1357.03 642.08,1266.69 642.08,1357.03 "/>
<path clip-path="url(#clip572)" d="M642.08 1038.81 L416.022 1038.81 L416.022 1266.69 L642.08 1266.69 L642.08 1038.81 L529.051 1038.81 L642.08 1038.81  Z" fill="#000000" fill-rule="evenodd" fill-opacity="0.1"/>
<polyline clip-path="url(#clip572)" style="stroke:#000000; stroke-linecap:round; stroke-linejoin:round; stroke-width:5.28; stroke-opacity:1; fill:none" points="642.08,1038.81 416.022,1038.81 416.022,1266.69 642.08,1266.69 642.08,1038.81 529.051,1038.81 642.08,1038.81 "/>
<path clip-path="url(#clip572)" d="M529.051 1032.18 L472.536 1032.18 L585.565 1032.18 L529.051 1032.18 L529.051 1038.81 L529.051 1032.18  Z" fill="#000000" fill-rule="evenodd" fill-opacity="0.1"/>
<polyline clip-path="url(#clip572)" style="stroke:#000000; stroke-linecap:round; stroke-linejoin:round; stroke-width:5.28; stroke-opacity:1; fill:none" points="529.051,1032.18 472.536,1032.18 585.565,1032.18 529.051,1032.18 529.051,1038.81 529.051,1032.18 "/>
<path clip-path="url(#clip572)" d="M924.653 245.273 L868.138 245.273 L981.167 245.273 L924.653 245.273 L924.653 244.806 L924.653 245.273  Z" fill="#000000" fill-rule="evenodd" fill-opacity="0.1"/>
<polyline clip-path="url(#clip572)" style="stroke:#000000; stroke-linecap:round; stroke-linejoin:round; stroke-width:5.28; stroke-opacity:1; fill:none" points="924.653,245.273 868.138,245.273 981.167,245.273 924.653,245.273 924.653,244.806 924.653,245.273 "/>
<path clip-path="url(#clip572)" d="M1037.68 244.806 L1037.68 244.198 L811.623 244.198 L811.623 244.806 L1037.68 244.806 L1037.68 244.198 L1037.68 244.806  Z" fill="#000000" fill-rule="evenodd" fill-opacity="0.1"/>
<polyline clip-path="url(#clip572)" style="stroke:#000000; stroke-linecap:round; stroke-linejoin:round; stroke-width:5.28; stroke-opacity:1; fill:none" points="1037.68,244.806 1037.68,244.198 811.623,244.198 811.623,244.806 1037.68,244.806 1037.68,244.198 1037.68,244.806 "/>
<path clip-path="url(#clip572)" d="M1037.68 242.557 L811.623 242.557 L811.623 244.198 L1037.68 244.198 L1037.68 242.557 L924.653 242.557 L1037.68 242.557  Z" fill="#000000" fill-rule="evenodd" fill-opacity="0.1"/>
<polyline clip-path="url(#clip572)" style="stroke:#000000; stroke-linecap:round; stroke-linejoin:round; stroke-width:5.28; stroke-opacity:1; fill:none" points="1037.68,242.557 811.623,242.557 811.623,244.198 1037.68,244.198 1037.68,242.557 924.653,242.557 1037.68,242.557 "/>
<path clip-path="url(#clip572)" d="M924.653 241.698 L868.138 241.698 L981.167 241.698 L924.653 241.698 L924.653 242.557 L924.653 241.698  Z" fill="#000000" fill-rule="evenodd" fill-opacity="0.1"/>
<polyline clip-path="url(#clip572)" style="stroke:#000000; stroke-linecap:round; stroke-linejoin:round; stroke-width:5.28; stroke-opacity:1; fill:none" points="924.653,241.698 868.138,241.698 981.167,241.698 924.653,241.698 924.653,242.557 924.653,241.698 "/>
<path clip-path="url(#clip572)" d="M1320.25 1360.7 L1263.74 1360.7 L1376.77 1360.7 L1320.25 1360.7 L1320.25 1357.03 L1320.25 1360.7  Z" fill="#000000" fill-rule="evenodd" fill-opacity="0.1"/>
<polyline clip-path="url(#clip572)" style="stroke:#000000; stroke-linecap:round; stroke-linejoin:round; stroke-width:5.28; stroke-opacity:1; fill:none" points="1320.25,1360.7 1263.74,1360.7 1376.77,1360.7 1320.25,1360.7 1320.25,1357.03 1320.25,1360.7 "/>
<path clip-path="url(#clip572)" d="M1433.28 1357.03 L1433.28 1266.69 L1207.23 1266.69 L1207.23 1357.03 L1433.28 1357.03 L1433.28 1266.69 L1433.28 1357.03  Z" fill="#000000" fill-rule="evenodd" fill-opacity="0.1"/>
<polyline clip-path="url(#clip572)" style="stroke:#000000; stroke-linecap:round; stroke-linejoin:round; stroke-width:5.28; stroke-opacity:1; fill:none" points="1433.28,1357.03 1433.28,1266.69 1207.23,1266.69 1207.23,1357.03 1433.28,1357.03 1433.28,1266.69 1433.28,1357.03 "/>
<path clip-path="url(#clip572)" d="M1433.28 1038.81 L1207.23 1038.81 L1207.23 1266.69 L1433.28 1266.69 L1433.28 1038.81 L1320.25 1038.81 L1433.28 1038.81  Z" fill="#000000" fill-rule="evenodd" fill-opacity="0.1"/>
<polyline clip-path="url(#clip572)" style="stroke:#000000; stroke-linecap:round; stroke-linejoin:round; stroke-width:5.28; stroke-opacity:1; fill:none" points="1433.28,1038.81 1207.23,1038.81 1207.23,1266.69 1433.28,1266.69 1433.28,1038.81 1320.25,1038.81 1433.28,1038.81 "/>
<path clip-path="url(#clip572)" d="M1320.25 1032.18 L1263.74 1032.18 L1376.77 1032.18 L1320.25 1032.18 L1320.25 1038.81 L1320.25 1032.18  Z" fill="#000000" fill-rule="evenodd" fill-opacity="0.1"/>
<polyline clip-path="url(#clip572)" style="stroke:#000000; stroke-linecap:round; stroke-linejoin:round; stroke-width:5.28; stroke-opacity:1; fill:none" points="1320.25,1032.18 1263.74,1032.18 1376.77,1032.18 1320.25,1032.18 1320.25,1038.81 1320.25,1032.18 "/>
<path clip-path="url(#clip572)" d="M1715.86 1360.7 L1659.34 1360.7 L1772.37 1360.7 L1715.86 1360.7 L1715.86 1357.03 L1715.86 1360.7  Z" fill="#000000" fill-rule="evenodd" fill-opacity="0.1"/>
<polyline clip-path="url(#clip572)" style="stroke:#000000; stroke-linecap:round; stroke-linejoin:round; stroke-width:5.28; stroke-opacity:1; fill:none" points="1715.86,1360.7 1659.34,1360.7 1772.37,1360.7 1715.86,1360.7 1715.86,1357.03 1715.86,1360.7 "/>
<path clip-path="url(#clip572)" d="M1828.88 1357.03 L1828.88 1266.69 L1602.83 1266.69 L1602.83 1357.03 L1828.88 1357.03 L1828.88 1266.69 L1828.88 1357.03  Z" fill="#000000" fill-rule="evenodd" fill-opacity="0.1"/>
<polyline clip-path="url(#clip572)" style="stroke:#000000; stroke-linecap:round; stroke-linejoin:round; stroke-width:5.28; stroke-opacity:1; fill:none" points="1828.88,1357.03 1828.88,1266.69 1602.83,1266.69 1602.83,1357.03 1828.88,1357.03 1828.88,1266.69 1828.88,1357.03 "/>
<path clip-path="url(#clip572)" d="M1828.88 1038.81 L1602.83 1038.81 L1602.83 1266.69 L1828.88 1266.69 L1828.88 1038.81 L1715.86 1038.81 L1828.88 1038.81  Z" fill="#000000" fill-rule="evenodd" fill-opacity="0.1"/>
<polyline clip-path="url(#clip572)" style="stroke:#000000; stroke-linecap:round; stroke-linejoin:round; stroke-width:5.28; stroke-opacity:1; fill:none" points="1828.88,1038.81 1602.83,1038.81 1602.83,1266.69 1828.88,1266.69 1828.88,1038.81 1715.86,1038.81 1828.88,1038.81 "/>
<path clip-path="url(#clip572)" d="M1715.86 1032.18 L1659.34 1032.18 L1772.37 1032.18 L1715.86 1032.18 L1715.86 1038.81 L1715.86 1032.18  Z" fill="#000000" fill-rule="evenodd" fill-opacity="0.1"/>
<polyline clip-path="url(#clip572)" style="stroke:#000000; stroke-linecap:round; stroke-linejoin:round; stroke-width:5.28; stroke-opacity:1; fill:none" points="1715.86,1032.18 1659.34,1032.18 1772.37,1032.18 1715.86,1032.18 1715.86,1038.81 1715.86,1032.18 "/>
<path clip-path="url(#clip572)" d="M2111.46 245.242 L2054.94 245.242 L2167.97 245.242 L2111.46 245.242 L2111.46 244.803 L2111.46 245.242  Z" fill="#000000" fill-rule="evenodd" fill-opacity="0.1"/>
<polyline clip-path="url(#clip572)" style="stroke:#000000; stroke-linecap:round; stroke-linejoin:round; stroke-width:5.28; stroke-opacity:1; fill:none" points="2111.46,245.242 2054.94,245.242 2167.97,245.242 2111.46,245.242 2111.46,244.803 2111.46,245.242 "/>
<path clip-path="url(#clip572)" d="M2224.49 244.803 L2224.49 244.324 L1998.43 244.324 L1998.43 244.803 L2224.49 244.803 L2224.49 244.324 L2224.49 244.803  Z" fill="#000000" fill-rule="evenodd" fill-opacity="0.1"/>
<polyline clip-path="url(#clip572)" style="stroke:#000000; stroke-linecap:round; stroke-linejoin:round; stroke-width:5.28; stroke-opacity:1; fill:none" points="2224.49,244.803 2224.49,244.324 1998.43,244.324 1998.43,244.803 2224.49,244.803 2224.49,244.324 2224.49,244.803 "/>
<path clip-path="url(#clip572)" d="M2224.49 242.802 L1998.43 242.802 L1998.43 244.324 L2224.49 244.324 L2224.49 242.802 L2111.46 242.802 L2224.49 242.802  Z" fill="#000000" fill-rule="evenodd" fill-opacity="0.1"/>
<polyline clip-path="url(#clip572)" style="stroke:#000000; stroke-linecap:round; stroke-linejoin:round; stroke-width:5.28; stroke-opacity:1; fill:none" points="2224.49,242.802 1998.43,242.802 1998.43,244.324 2224.49,244.324 2224.49,242.802 2111.46,242.802 2224.49,242.802 "/>
<path clip-path="url(#clip572)" d="M2111.46 241.515 L2054.94 241.515 L2167.97 241.515 L2111.46 241.515 L2111.46 242.802 L2111.46 241.515  Z" fill="#000000" fill-rule="evenodd" fill-opacity="0.1"/>
<polyline clip-path="url(#clip572)" style="stroke:#000000; stroke-linecap:round; stroke-linejoin:round; stroke-width:5.28; stroke-opacity:1; fill:none" points="2111.46,241.515 2054.94,241.515 2167.97,241.515 2111.46,241.515 2111.46,242.802 2111.46,241.515 "/>
<polyline clip-path="url(#clip572)" style="stroke:#000000; stroke-linecap:round; stroke-linejoin:round; stroke-width:0; stroke-opacity:1; fill:none" points="529.051,1360.7 472.536,1360.7 585.565,1360.7 529.051,1360.7 529.051,1357.03 "/>
<polyline clip-path="url(#clip572)" style="stroke:#000000; stroke-linecap:round; stroke-linejoin:round; stroke-width:0; stroke-opacity:1; fill:none" points="642.08,1357.03 642.08,1266.69 416.022,1266.69 416.022,1357.03 642.08,1357.03 642.08,1266.69 "/>
<polyline clip-path="url(#clip572)" style="stroke:#000000; stroke-linecap:round; stroke-linejoin:round; stroke-width:0; stroke-opacity:1; fill:none" points="642.08,1038.81 416.022,1038.81 416.022,1266.69 642.08,1266.69 642.08,1038.81 529.051,1038.81 "/>
<polyline clip-path="url(#clip572)" style="stroke:#000000; stroke-linecap:round; stroke-linejoin:round; stroke-width:0; stroke-opacity:1; fill:none" points="529.051,1032.18 472.536,1032.18 585.565,1032.18 529.051,1032.18 529.051,1038.81 "/>
<polyline clip-path="url(#clip572)" style="stroke:#000000; stroke-linecap:round; stroke-linejoin:round; stroke-width:0; stroke-opacity:1; fill:none" points="924.653,245.273 868.138,245.273 981.167,245.273 924.653,245.273 924.653,244.806 "/>
<polyline clip-path="url(#clip572)" style="stroke:#000000; stroke-linecap:round; stroke-linejoin:round; stroke-width:0; stroke-opacity:1; fill:none" points="1037.68,244.806 1037.68,244.198 811.623,244.198 811.623,244.806 1037.68,244.806 1037.68,244.198 "/>
<polyline clip-path="url(#clip572)" style="stroke:#000000; stroke-linecap:round; stroke-linejoin:round; stroke-width:0; stroke-opacity:1; fill:none" points="1037.68,242.557 811.623,242.557 811.623,244.198 1037.68,244.198 1037.68,242.557 924.653,242.557 "/>
<polyline clip-path="url(#clip572)" style="stroke:#000000; stroke-linecap:round; stroke-linejoin:round; stroke-width:0; stroke-opacity:1; fill:none" points="924.653,241.698 868.138,241.698 981.167,241.698 924.653,241.698 924.653,242.557 "/>
<polyline clip-path="url(#clip572)" style="stroke:#000000; stroke-linecap:round; stroke-linejoin:round; stroke-width:0; stroke-opacity:1; fill:none" points="1320.25,1360.7 1263.74,1360.7 1376.77,1360.7 1320.25,1360.7 1320.25,1357.03 "/>
<polyline clip-path="url(#clip572)" style="stroke:#000000; stroke-linecap:round; stroke-linejoin:round; stroke-width:0; stroke-opacity:1; fill:none" points="1433.28,1357.03 1433.28,1266.69 1207.23,1266.69 1207.23,1357.03 1433.28,1357.03 1433.28,1266.69 "/>
<polyline clip-path="url(#clip572)" style="stroke:#000000; stroke-linecap:round; stroke-linejoin:round; stroke-width:0; stroke-opacity:1; fill:none" points="1433.28,1038.81 1207.23,1038.81 1207.23,1266.69 1433.28,1266.69 1433.28,1038.81 1320.25,1038.81 "/>
<polyline clip-path="url(#clip572)" style="stroke:#000000; stroke-linecap:round; stroke-linejoin:round; stroke-width:0; stroke-opacity:1; fill:none" points="1320.25,1032.18 1263.74,1032.18 1376.77,1032.18 1320.25,1032.18 1320.25,1038.81 "/>
<polyline clip-path="url(#clip572)" style="stroke:#000000; stroke-linecap:round; stroke-linejoin:round; stroke-width:0; stroke-opacity:1; fill:none" points="1715.86,1360.7 1659.34,1360.7 1772.37,1360.7 1715.86,1360.7 1715.86,1357.03 "/>
<polyline clip-path="url(#clip572)" style="stroke:#000000; stroke-linecap:round; stroke-linejoin:round; stroke-width:0; stroke-opacity:1; fill:none" points="1828.88,1357.03 1828.88,1266.69 1602.83,1266.69 1602.83,1357.03 1828.88,1357.03 1828.88,1266.69 "/>
<polyline clip-path="url(#clip572)" style="stroke:#000000; stroke-linecap:round; stroke-linejoin:round; stroke-width:0; stroke-opacity:1; fill:none" points="1828.88,1038.81 1602.83,1038.81 1602.83,1266.69 1828.88,1266.69 1828.88,1038.81 1715.86,1038.81 "/>
<polyline clip-path="url(#clip572)" style="stroke:#000000; stroke-linecap:round; stroke-linejoin:round; stroke-width:0; stroke-opacity:1; fill:none" points="1715.86,1032.18 1659.34,1032.18 1772.37,1032.18 1715.86,1032.18 1715.86,1038.81 "/>
<polyline clip-path="url(#clip572)" style="stroke:#000000; stroke-linecap:round; stroke-linejoin:round; stroke-width:0; stroke-opacity:1; fill:none" points="2111.46,245.242 2054.94,245.242 2167.97,245.242 2111.46,245.242 2111.46,244.803 "/>
<polyline clip-path="url(#clip572)" style="stroke:#000000; stroke-linecap:round; stroke-linejoin:round; stroke-width:0; stroke-opacity:1; fill:none" points="2224.49,244.803 2224.49,244.324 1998.43,244.324 1998.43,244.803 2224.49,244.803 2224.49,244.324 "/>
<polyline clip-path="url(#clip572)" style="stroke:#000000; stroke-linecap:round; stroke-linejoin:round; stroke-width:0; stroke-opacity:1; fill:none" points="2224.49,242.802 1998.43,242.802 1998.43,244.324 2224.49,244.324 2224.49,242.802 2111.46,242.802 "/>
<polyline clip-path="url(#clip572)" style="stroke:#000000; stroke-linecap:round; stroke-linejoin:round; stroke-width:0; stroke-opacity:1; fill:none" points="2111.46,241.515 2054.94,241.515 2167.97,241.515 2111.46,241.515 2111.46,242.802 "/>
</svg>
