<?xml version="1.0" encoding="utf-8"?>
<svg xmlns="http://www.w3.org/2000/svg" xmlns:xlink="http://www.w3.org/1999/xlink" width="600" height="400" viewBox="0 0 2400 1600">
<defs>
  <clipPath id="clip600">
    <rect x="0" y="0" width="2400" height="1600"/>
  </clipPath>
</defs>
<path clip-path="url(#clip600)" d="M0 1600 L2400 1600 L2400 8.88178e-14 L0 8.88178e-14  Z" fill="#ffffff" fill-rule="evenodd" fill-opacity="1"/>
<defs>
  <clipPath id="clip601">
    <rect x="302" y="123" width="2051" height="1364"/>
  </clipPath>
</defs>
<path clip-path="url(#clip600)" d="M309.866 1423.18 L2352.76 1423.18 L2352.76 123.472 L309.866 123.472  Z" fill="#ffffff" fill-rule="evenodd" fill-opacity="1"/>
<defs>
  <clipPath id="clip602">
    <rect x="309" y="123" width="2044" height="1301"/>
  </clipPath>
</defs>
<polyline clip-path="url(#clip602)" style="stroke:#000000; stroke-linecap:round; stroke-linejoin:round; stroke-width:2; stroke-opacity:0.1; fill:none" points="367.683,1423.18 367.683,123.472 "/>
<polyline clip-path="url(#clip602)" style="stroke:#000000; stroke-linecap:round; stroke-linejoin:round; stroke-width:2; stroke-opacity:0.1; fill:none" points="969.951,1423.18 969.951,123.472 "/>
<polyline clip-path="url(#clip602)" style="stroke:#000000; stroke-linecap:round; stroke-linejoin:round; stroke-width:2; stroke-opacity:0.1; fill:none" points="1572.22,1423.18 1572.22,123.472 "/>
<polyline clip-path="url(#clip602)" style="stroke:#000000; stroke-linecap:round; stroke-linejoin:round; stroke-width:2; stroke-opacity:0.1; fill:none" points="2174.48,1423.18 2174.48,123.472 "/>
<polyline clip-path="url(#clip602)" style="stroke:#000000; stroke-linecap:round; stroke-linejoin:round; stroke-width:2; stroke-opacity:0.1; fill:none" points="309.866,1219.61 2352.76,1219.61 "/>
<polyline clip-path="url(#clip602)" style="stroke:#000000; stroke-linecap:round; stroke-linejoin:round; stroke-width:2; stroke-opacity:0.1; fill:none" points="309.866,932.199 2352.76,932.199 "/>
<polyline clip-path="url(#clip602)" style="stroke:#000000; stroke-linecap:round; stroke-linejoin:round; stroke-width:2; stroke-opacity:0.1; fill:none" points="309.866,644.787 2352.76,644.787 "/>
<polyline clip-path="url(#clip602)" style="stroke:#000000; stroke-linecap:round; stroke-linejoin:round; stroke-width:2; stroke-opacity:0.1; fill:none" points="309.866,357.374 2352.76,357.374 "/>
<polyline clip-path="url(#clip600)" style="stroke:#000000; stroke-linecap:round; stroke-linejoin:round; stroke-width:4; stroke-opacity:1; fill:none" points="309.866,1423.18 2352.76,1423.18 "/>
<polyline clip-path="url(#clip600)" style="stroke:#000000; stroke-linecap:round; stroke-linejoin:round; stroke-width:4; stroke-opacity:1; fill:none" points="367.683,1423.18 367.683,1404.28 "/>
<polyline clip-path="url(#clip600)" style="stroke:#000000; stroke-linecap:round; stroke-linejoin:round; stroke-width:4; stroke-opacity:1; fill:none" points="969.951,1423.18 969.951,1404.28 "/>
<polyline clip-path="url(#clip600)" style="stroke:#000000; stroke-linecap:round; stroke-linejoin:round; stroke-width:4; stroke-opacity:1; fill:none" points="1572.22,1423.18 1572.22,1404.28 "/>
<polyline clip-path="url(#clip600)" style="stroke:#000000; stroke-linecap:round; stroke-linejoin:round; stroke-width:4; stroke-opacity:1; fill:none" points="2174.48,1423.18 2174.48,1404.28 "/>
<path clip-path="url(#clip600)" d="M345.068 1454.1 Q341.457 1454.1 339.628 1457.66 Q337.822 1461.2 337.822 1468.33 Q337.822 1475.44 339.628 1479.01 Q341.457 1482.55 345.068 1482.55 Q348.702 1482.55 350.508 1479.01 Q352.336 1475.44 352.336 1468.33 Q352.336 1461.2 350.508 1457.66 Q348.702 1454.1 345.068 1454.1 M345.068 1450.39 Q350.878 1450.39 353.934 1455 Q357.012 1459.58 357.012 1468.33 Q357.012 1477.06 353.934 1481.67 Q350.878 1486.25 345.068 1486.25 Q339.258 1486.25 336.179 1481.67 Q333.123 1477.06 333.123 1468.33 Q333.123 1459.58 336.179 1455 Q339.258 1450.39 345.068 1450.39 Z" fill="#000000" fill-rule="nonzero" fill-opacity="1" /><path clip-path="url(#clip600)" d="M365.23 1479.7 L370.114 1479.7 L370.114 1485.58 L365.23 1485.58 L365.23 1479.7 Z" fill="#000000" fill-rule="nonzero" fill-opacity="1" /><path clip-path="url(#clip600)" d="M390.299 1454.1 Q386.688 1454.1 384.859 1457.66 Q383.054 1461.2 383.054 1468.33 Q383.054 1475.44 384.859 1479.01 Q386.688 1482.55 390.299 1482.55 Q393.933 1482.55 395.739 1479.01 Q397.568 1475.44 397.568 1468.33 Q397.568 1461.2 395.739 1457.66 Q393.933 1454.1 390.299 1454.1 M390.299 1450.39 Q396.109 1450.39 399.165 1455 Q402.243 1459.58 402.243 1468.33 Q402.243 1477.06 399.165 1481.67 Q396.109 1486.25 390.299 1486.25 Q384.489 1486.25 381.41 1481.67 Q378.355 1477.06 378.355 1468.33 Q378.355 1459.58 381.41 1455 Q384.489 1450.39 390.299 1450.39 Z" fill="#000000" fill-rule="nonzero" fill-opacity="1" /><path clip-path="url(#clip600)" d="M947.833 1454.1 Q944.222 1454.1 942.393 1457.66 Q940.587 1461.2 940.587 1468.33 Q940.587 1475.44 942.393 1479.01 Q944.222 1482.55 947.833 1482.55 Q951.467 1482.55 953.272 1479.01 Q955.101 1475.44 955.101 1468.33 Q955.101 1461.2 953.272 1457.66 Q951.467 1454.1 947.833 1454.1 M947.833 1450.39 Q953.643 1450.39 956.698 1455 Q959.777 1459.58 959.777 1468.33 Q959.777 1477.06 956.698 1481.67 Q953.643 1486.25 947.833 1486.25 Q942.022 1486.25 938.944 1481.67 Q935.888 1477.06 935.888 1468.33 Q935.888 1459.58 938.944 1455 Q942.022 1450.39 947.833 1450.39 Z" fill="#000000" fill-rule="nonzero" fill-opacity="1" /><path clip-path="url(#clip600)" d="M967.995 1479.7 L972.879 1479.7 L972.879 1485.58 L967.995 1485.58 L967.995 1479.7 Z" fill="#000000" fill-rule="nonzero" fill-opacity="1" /><path clip-path="url(#clip600)" d="M983.11 1451.02 L1001.47 1451.02 L1001.47 1454.96 L987.393 1454.96 L987.393 1463.43 Q988.411 1463.08 989.43 1462.92 Q990.448 1462.73 991.467 1462.73 Q997.254 1462.73 1000.63 1465.9 Q1004.01 1469.08 1004.01 1474.49 Q1004.01 1480.07 1000.54 1483.17 Q997.068 1486.25 990.749 1486.25 Q988.573 1486.25 986.305 1485.88 Q984.059 1485.51 981.652 1484.77 L981.652 1480.07 Q983.735 1481.2 985.957 1481.76 Q988.18 1482.32 990.656 1482.32 Q994.661 1482.32 996.999 1480.21 Q999.337 1478.1 999.337 1474.49 Q999.337 1470.88 996.999 1468.77 Q994.661 1466.67 990.656 1466.67 Q988.781 1466.67 986.906 1467.08 Q985.055 1467.5 983.11 1468.38 L983.11 1451.02 Z" fill="#000000" fill-rule="nonzero" fill-opacity="1" /><path clip-path="url(#clip600)" d="M1539.37 1481.64 L1547.01 1481.64 L1547.01 1455.28 L1538.7 1456.95 L1538.7 1452.69 L1546.96 1451.02 L1551.64 1451.02 L1551.64 1481.64 L1559.28 1481.64 L1559.28 1485.58 L1539.37 1485.58 L1539.37 1481.64 Z" fill="#000000" fill-rule="nonzero" fill-opacity="1" /><path clip-path="url(#clip600)" d="M1568.72 1479.7 L1573.61 1479.7 L1573.61 1485.58 L1568.72 1485.58 L1568.72 1479.7 Z" fill="#000000" fill-rule="nonzero" fill-opacity="1" /><path clip-path="url(#clip600)" d="M1593.79 1454.1 Q1590.18 1454.1 1588.35 1457.66 Q1586.55 1461.2 1586.55 1468.33 Q1586.55 1475.44 1588.35 1479.01 Q1590.18 1482.55 1593.79 1482.55 Q1597.43 1482.55 1599.23 1479.01 Q1601.06 1475.44 1601.06 1468.33 Q1601.06 1461.2 1599.23 1457.66 Q1597.43 1454.1 1593.79 1454.1 M1593.79 1450.39 Q1599.6 1450.39 1602.66 1455 Q1605.74 1459.58 1605.74 1468.33 Q1605.74 1477.06 1602.66 1481.67 Q1599.6 1486.25 1593.79 1486.25 Q1587.98 1486.25 1584.9 1481.67 Q1581.85 1477.06 1581.85 1468.33 Q1581.85 1459.58 1584.9 1455 Q1587.98 1450.39 1593.79 1450.39 Z" fill="#000000" fill-rule="nonzero" fill-opacity="1" /><path clip-path="url(#clip600)" d="M2142.14 1481.64 L2149.77 1481.64 L2149.77 1455.28 L2141.46 1456.95 L2141.46 1452.69 L2149.73 1451.02 L2154.4 1451.02 L2154.4 1481.64 L2162.04 1481.64 L2162.04 1485.58 L2142.14 1485.58 L2142.14 1481.64 Z" fill="#000000" fill-rule="nonzero" fill-opacity="1" /><path clip-path="url(#clip600)" d="M2171.49 1479.7 L2176.37 1479.7 L2176.37 1485.58 L2171.49 1485.58 L2171.49 1479.7 Z" fill="#000000" fill-rule="nonzero" fill-opacity="1" /><path clip-path="url(#clip600)" d="M2186.6 1451.02 L2204.96 1451.02 L2204.96 1454.96 L2190.89 1454.96 L2190.89 1463.43 Q2191.9 1463.08 2192.92 1462.92 Q2193.94 1462.73 2194.96 1462.73 Q2200.75 1462.73 2204.13 1465.9 Q2207.51 1469.08 2207.51 1474.49 Q2207.51 1480.07 2204.03 1483.17 Q2200.56 1486.25 2194.24 1486.25 Q2192.07 1486.25 2189.8 1485.88 Q2187.55 1485.51 2185.14 1484.77 L2185.14 1480.07 Q2187.23 1481.2 2189.45 1481.76 Q2191.67 1482.32 2194.15 1482.32 Q2198.15 1482.32 2200.49 1480.21 Q2202.83 1478.1 2202.83 1474.49 Q2202.83 1470.88 2200.49 1468.77 Q2198.15 1466.67 2194.15 1466.67 Q2192.27 1466.67 2190.4 1467.08 Q2188.55 1467.5 2186.6 1468.38 L2186.6 1451.02 Z" fill="#000000" fill-rule="nonzero" fill-opacity="1" /><path clip-path="url(#clip600)" d="M1022.14 1524.18 L1022.14 1530.96 Q1018.9 1527.94 1015.21 1526.44 Q1011.55 1524.95 1007.41 1524.95 Q999.26 1524.95 994.931 1529.95 Q990.602 1534.91 990.602 1544.33 Q990.602 1553.72 994.931 1558.72 Q999.26 1563.68 1007.41 1563.68 Q1011.55 1563.68 1015.21 1562.19 Q1018.9 1560.69 1022.14 1557.67 L1022.14 1564.38 Q1018.77 1566.68 1014.98 1567.82 Q1011.23 1568.97 1007.03 1568.97 Q996.236 1568.97 990.029 1562.38 Q983.823 1555.76 983.823 1544.33 Q983.823 1532.87 990.029 1526.28 Q996.236 1519.66 1007.03 1519.66 Q1011.29 1519.66 1015.05 1520.81 Q1018.83 1521.92 1022.14 1524.18 Z" fill="#000000" fill-rule="nonzero" fill-opacity="1" /><path clip-path="url(#clip600)" d="M1045.63 1536.5 Q1040.92 1536.5 1038.19 1540.19 Q1035.45 1543.85 1035.45 1550.25 Q1035.45 1556.65 1038.15 1560.34 Q1040.89 1564 1045.63 1564 Q1050.31 1564 1053.05 1560.31 Q1055.79 1556.62 1055.79 1550.25 Q1055.79 1543.92 1053.05 1540.23 Q1050.31 1536.5 1045.63 1536.5 M1045.63 1531.54 Q1053.27 1531.54 1057.63 1536.5 Q1061.99 1541.47 1061.99 1550.25 Q1061.99 1559 1057.63 1564 Q1053.27 1568.97 1045.63 1568.97 Q1037.96 1568.97 1033.6 1564 Q1029.27 1559 1029.27 1550.25 Q1029.27 1541.47 1033.6 1536.5 Q1037.96 1531.54 1045.63 1531.54 Z" fill="#000000" fill-rule="nonzero" fill-opacity="1" /><path clip-path="url(#clip600)" d="M1071.1 1553.98 L1071.1 1532.4 L1076.95 1532.4 L1076.95 1553.75 Q1076.95 1558.81 1078.93 1561.36 Q1080.9 1563.87 1084.85 1563.87 Q1089.59 1563.87 1092.33 1560.85 Q1095.1 1557.83 1095.1 1552.61 L1095.1 1532.4 L1100.95 1532.4 L1100.95 1568.04 L1095.1 1568.04 L1095.1 1562.57 Q1092.96 1565.82 1090.13 1567.41 Q1087.33 1568.97 1083.61 1568.97 Q1077.46 1568.97 1074.28 1565.15 Q1071.1 1561.33 1071.1 1553.98 M1085.83 1531.54 L1085.83 1531.54 Z" fill="#000000" fill-rule="nonzero" fill-opacity="1" /><path clip-path="url(#clip600)" d="M1118.68 1562.7 L1118.68 1581.6 L1112.79 1581.6 L1112.79 1532.4 L1118.68 1532.4 L1118.68 1537.81 Q1120.53 1534.62 1123.33 1533.1 Q1126.16 1531.54 1130.07 1531.54 Q1136.57 1531.54 1140.61 1536.69 Q1144.68 1541.85 1144.68 1550.25 Q1144.68 1558.65 1140.61 1563.81 Q1136.57 1568.97 1130.07 1568.97 Q1126.16 1568.97 1123.33 1567.44 Q1120.53 1565.88 1118.68 1562.7 M1138.6 1550.25 Q1138.6 1543.79 1135.93 1540.13 Q1133.29 1536.44 1128.64 1536.44 Q1124 1536.44 1121.32 1540.13 Q1118.68 1543.79 1118.68 1550.25 Q1118.68 1556.71 1121.32 1560.4 Q1124 1564.07 1128.64 1564.07 Q1133.29 1564.07 1135.93 1560.4 Q1138.6 1556.71 1138.6 1550.25 Z" fill="#000000" fill-rule="nonzero" fill-opacity="1" /><path clip-path="url(#clip600)" d="M1154.39 1518.52 L1160.25 1518.52 L1160.25 1568.04 L1154.39 1568.04 L1154.39 1518.52 Z" fill="#000000" fill-rule="nonzero" fill-opacity="1" /><path clip-path="url(#clip600)" d="M1172.5 1532.4 L1178.36 1532.4 L1178.36 1568.04 L1172.5 1568.04 L1172.5 1532.4 M1172.5 1518.52 L1178.36 1518.52 L1178.36 1525.93 L1172.5 1525.93 L1172.5 1518.52 Z" fill="#000000" fill-rule="nonzero" fill-opacity="1" /><path clip-path="url(#clip600)" d="M1220.25 1546.53 L1220.25 1568.04 L1214.39 1568.04 L1214.39 1546.72 Q1214.39 1541.66 1212.42 1539.14 Q1210.44 1536.63 1206.5 1536.63 Q1201.75 1536.63 1199.02 1539.65 Q1196.28 1542.68 1196.28 1547.9 L1196.28 1568.04 L1190.39 1568.04 L1190.39 1532.4 L1196.28 1532.4 L1196.28 1537.93 Q1198.38 1534.72 1201.21 1533.13 Q1204.08 1531.54 1207.8 1531.54 Q1213.94 1531.54 1217.09 1535.36 Q1220.25 1539.14 1220.25 1546.53 Z" fill="#000000" fill-rule="nonzero" fill-opacity="1" /><path clip-path="url(#clip600)" d="M1255.38 1549.81 Q1255.38 1543.44 1252.74 1539.94 Q1250.13 1536.44 1245.39 1536.44 Q1240.68 1536.44 1238.04 1539.94 Q1235.43 1543.44 1235.43 1549.81 Q1235.43 1556.14 1238.04 1559.64 Q1240.68 1563.14 1245.39 1563.14 Q1250.13 1563.14 1252.74 1559.64 Q1255.38 1556.14 1255.38 1549.81 M1261.24 1563.62 Q1261.24 1572.72 1257.2 1577.15 Q1253.16 1581.6 1244.82 1581.6 Q1241.73 1581.6 1238.99 1581.13 Q1236.25 1580.68 1233.68 1579.72 L1233.68 1574.03 Q1236.25 1575.43 1238.77 1576.1 Q1241.28 1576.76 1243.89 1576.76 Q1249.65 1576.76 1252.52 1573.74 Q1255.38 1570.75 1255.38 1564.67 L1255.38 1561.77 Q1253.57 1564.92 1250.74 1566.48 Q1247.9 1568.04 1243.96 1568.04 Q1237.4 1568.04 1233.39 1563.05 Q1229.38 1558.05 1229.38 1549.81 Q1229.38 1541.53 1233.39 1536.53 Q1237.4 1531.54 1243.96 1531.54 Q1247.9 1531.54 1250.74 1533.1 Q1253.57 1534.66 1255.38 1537.81 L1255.38 1532.4 L1261.24 1532.4 L1261.24 1563.62 Z" fill="#000000" fill-rule="nonzero" fill-opacity="1" /><path clip-path="url(#clip600)" d="M1322.76 1522.08 L1322.76 1528.35 Q1319.1 1526.6 1315.86 1525.74 Q1312.61 1524.88 1309.59 1524.88 Q1304.34 1524.88 1301.47 1526.92 Q1298.64 1528.96 1298.64 1532.71 Q1298.64 1535.87 1300.52 1537.49 Q1302.43 1539.08 1307.71 1540.07 L1311.59 1540.86 Q1318.79 1542.23 1322.19 1545.7 Q1325.63 1549.14 1325.63 1554.93 Q1325.63 1561.84 1320.98 1565.4 Q1316.37 1568.97 1307.42 1568.97 Q1304.05 1568.97 1300.23 1568.2 Q1296.44 1567.44 1292.37 1565.94 L1292.37 1559.32 Q1296.28 1561.52 1300.04 1562.63 Q1303.8 1563.75 1307.42 1563.75 Q1312.93 1563.75 1315.92 1561.58 Q1318.91 1559.42 1318.91 1555.41 Q1318.91 1551.91 1316.75 1549.93 Q1314.62 1547.96 1309.72 1546.97 L1305.8 1546.21 Q1298.61 1544.78 1295.39 1541.72 Q1292.18 1538.67 1292.18 1533.22 Q1292.18 1526.92 1296.6 1523.29 Q1301.06 1519.66 1308.86 1519.66 Q1312.2 1519.66 1315.67 1520.27 Q1319.14 1520.87 1322.76 1522.08 Z" fill="#000000" fill-rule="nonzero" fill-opacity="1" /><path clip-path="url(#clip600)" d="M1341.19 1522.27 L1341.19 1532.4 L1353.26 1532.4 L1353.26 1536.95 L1341.19 1536.95 L1341.19 1556.3 Q1341.19 1560.66 1342.37 1561.9 Q1343.58 1563.14 1347.24 1563.14 L1353.26 1563.14 L1353.26 1568.04 L1347.24 1568.04 Q1340.46 1568.04 1337.88 1565.53 Q1335.31 1562.98 1335.31 1556.3 L1335.31 1536.95 L1331.01 1536.95 L1331.01 1532.4 L1335.31 1532.4 L1335.31 1522.27 L1341.19 1522.27 Z" fill="#000000" fill-rule="nonzero" fill-opacity="1" /><path clip-path="url(#clip600)" d="M1381.62 1537.87 Q1380.63 1537.3 1379.45 1537.04 Q1378.31 1536.76 1376.91 1536.76 Q1371.94 1536.76 1369.27 1540 Q1366.62 1543.22 1366.62 1549.27 L1366.62 1568.04 L1360.74 1568.04 L1360.74 1532.4 L1366.62 1532.4 L1366.62 1537.93 Q1368.47 1534.69 1371.43 1533.13 Q1374.39 1531.54 1378.62 1531.54 Q1379.23 1531.54 1379.96 1531.63 Q1380.69 1531.7 1381.58 1531.85 L1381.62 1537.87 Z" fill="#000000" fill-rule="nonzero" fill-opacity="1" /><path clip-path="url(#clip600)" d="M1416.82 1548.76 L1416.82 1551.62 L1389.89 1551.62 Q1390.27 1557.67 1393.52 1560.85 Q1396.8 1564 1402.62 1564 Q1406 1564 1409.15 1563.17 Q1412.33 1562.35 1415.45 1560.69 L1415.45 1566.23 Q1412.3 1567.57 1408.99 1568.27 Q1405.68 1568.97 1402.27 1568.97 Q1393.74 1568.97 1388.75 1564 Q1383.78 1559.04 1383.78 1550.57 Q1383.78 1541.82 1388.49 1536.69 Q1393.23 1531.54 1401.25 1531.54 Q1408.45 1531.54 1412.62 1536.18 Q1416.82 1540.8 1416.82 1548.76 M1410.96 1547.04 Q1410.9 1542.23 1408.26 1539.37 Q1405.65 1536.5 1401.32 1536.5 Q1396.42 1536.5 1393.46 1539.27 Q1390.53 1542.04 1390.08 1547.07 L1410.96 1547.04 Z" fill="#000000" fill-rule="nonzero" fill-opacity="1" /><path clip-path="url(#clip600)" d="M1456.06 1546.53 L1456.06 1568.04 L1450.21 1568.04 L1450.21 1546.72 Q1450.21 1541.66 1448.23 1539.14 Q1446.26 1536.63 1442.31 1536.63 Q1437.57 1536.63 1434.83 1539.65 Q1432.1 1542.68 1432.1 1547.9 L1432.1 1568.04 L1426.21 1568.04 L1426.21 1532.4 L1432.1 1532.4 L1432.1 1537.93 Q1434.2 1534.72 1437.03 1533.13 Q1439.89 1531.54 1443.62 1531.54 Q1449.76 1531.54 1452.91 1535.36 Q1456.06 1539.14 1456.06 1546.53 Z" fill="#000000" fill-rule="nonzero" fill-opacity="1" /><path clip-path="url(#clip600)" d="M1491.2 1549.81 Q1491.2 1543.44 1488.56 1539.94 Q1485.95 1536.44 1481.21 1536.44 Q1476.5 1536.44 1473.85 1539.94 Q1471.24 1543.44 1471.24 1549.81 Q1471.24 1556.14 1473.85 1559.64 Q1476.5 1563.14 1481.21 1563.14 Q1485.95 1563.14 1488.56 1559.64 Q1491.2 1556.14 1491.2 1549.81 M1497.06 1563.62 Q1497.06 1572.72 1493.02 1577.15 Q1488.97 1581.6 1480.63 1581.6 Q1477.55 1581.6 1474.81 1581.13 Q1472.07 1580.68 1469.49 1579.72 L1469.49 1574.03 Q1472.07 1575.43 1474.59 1576.1 Q1477.1 1576.76 1479.71 1576.76 Q1485.47 1576.76 1488.34 1573.74 Q1491.2 1570.75 1491.2 1564.67 L1491.2 1561.77 Q1489.39 1564.92 1486.55 1566.48 Q1483.72 1568.04 1479.78 1568.04 Q1473.22 1568.04 1469.21 1563.05 Q1465.2 1558.05 1465.2 1549.81 Q1465.2 1541.53 1469.21 1536.53 Q1473.22 1531.54 1479.78 1531.54 Q1483.72 1531.54 1486.55 1533.1 Q1489.39 1534.66 1491.2 1537.81 L1491.2 1532.4 L1497.06 1532.4 L1497.06 1563.62 Z" fill="#000000" fill-rule="nonzero" fill-opacity="1" /><path clip-path="url(#clip600)" d="M1514.91 1522.27 L1514.91 1532.4 L1526.98 1532.4 L1526.98 1536.95 L1514.91 1536.95 L1514.91 1556.3 Q1514.91 1560.66 1516.09 1561.9 Q1517.3 1563.14 1520.96 1563.14 L1526.98 1563.14 L1526.98 1568.04 L1520.96 1568.04 Q1514.18 1568.04 1511.6 1565.53 Q1509.03 1562.98 1509.03 1556.3 L1509.03 1536.95 L1504.73 1536.95 L1504.73 1532.4 L1509.03 1532.4 L1509.03 1522.27 L1514.91 1522.27 Z" fill="#000000" fill-rule="nonzero" fill-opacity="1" /><path clip-path="url(#clip600)" d="M1564.31 1546.53 L1564.31 1568.04 L1558.46 1568.04 L1558.46 1546.72 Q1558.46 1541.66 1556.48 1539.14 Q1554.51 1536.63 1550.56 1536.63 Q1545.82 1536.63 1543.08 1539.65 Q1540.34 1542.68 1540.34 1547.9 L1540.34 1568.04 L1534.46 1568.04 L1534.46 1518.52 L1540.34 1518.52 L1540.34 1537.93 Q1542.45 1534.72 1545.28 1533.13 Q1548.14 1531.54 1551.87 1531.54 Q1558.01 1531.54 1561.16 1535.36 Q1564.31 1539.14 1564.31 1546.53 Z" fill="#000000" fill-rule="nonzero" fill-opacity="1" /><path clip-path="url(#clip600)" d="M1610.78 1518.58 Q1606.52 1525.9 1604.45 1533.06 Q1602.38 1540.23 1602.38 1547.58 Q1602.38 1554.93 1604.45 1562.16 Q1606.55 1569.35 1610.78 1576.64 L1605.69 1576.64 Q1600.91 1569.16 1598.53 1561.93 Q1596.17 1554.71 1596.17 1547.58 Q1596.17 1540.48 1598.53 1533.29 Q1600.88 1526.09 1605.69 1518.58 L1610.78 1518.58 Z" fill="#000000" fill-rule="nonzero" fill-opacity="1" /><path clip-path="url(#clip600)" d="M1642.93 1551.46 L1641.53 1544.11 Q1640.1 1536.57 1634.43 1536.57 Q1630.16 1536.57 1628.22 1540.07 Q1625.77 1544.46 1625.77 1550.25 Q1625.77 1557.25 1628.16 1560.6 Q1630.58 1564 1634.43 1564 Q1638.69 1564 1640.99 1557.22 L1642.93 1551.46 M1646.21 1541.72 L1649.36 1532.4 L1654.58 1532.4 L1648.05 1551.72 L1649.33 1558.69 Q1649.61 1560.25 1650.73 1561.55 Q1652.03 1563.08 1653.05 1563.08 L1655.85 1563.08 L1655.85 1568.04 L1652.35 1568.04 Q1649.36 1568.04 1646.68 1565.37 Q1645.38 1564.03 1644.84 1561.23 Q1643.37 1564.77 1640.38 1567.53 Q1638.98 1568.84 1634.43 1568.84 Q1626.95 1568.84 1623.32 1564 Q1619.6 1559 1619.6 1550.25 Q1619.6 1540.89 1623.64 1536.5 Q1628.13 1531.6 1634.43 1531.6 Q1644.33 1531.6 1646.21 1541.72 Z" fill="#000000" fill-rule="nonzero" fill-opacity="1" /><path clip-path="url(#clip600)" d="M1664.19 1518.58 L1669.28 1518.58 Q1674.06 1526.09 1676.41 1533.29 Q1678.8 1540.48 1678.8 1547.58 Q1678.8 1554.71 1676.41 1561.93 Q1674.06 1569.16 1669.28 1576.64 L1664.19 1576.64 Q1668.42 1569.35 1670.49 1562.16 Q1672.59 1554.93 1672.59 1547.58 Q1672.59 1540.23 1670.49 1533.06 Q1668.42 1525.9 1664.19 1518.58 Z" fill="#000000" fill-rule="nonzero" fill-opacity="1" /><polyline clip-path="url(#clip600)" style="stroke:#000000; stroke-linecap:round; stroke-linejoin:round; stroke-width:4; stroke-opacity:1; fill:none" points="309.866,1423.18 309.866,123.472 "/>
<polyline clip-path="url(#clip600)" style="stroke:#000000; stroke-linecap:round; stroke-linejoin:round; stroke-width:4; stroke-opacity:1; fill:none" points="309.866,1219.61 328.763,1219.61 "/>
<polyline clip-path="url(#clip600)" style="stroke:#000000; stroke-linecap:round; stroke-linejoin:round; stroke-width:4; stroke-opacity:1; fill:none" points="309.866,932.199 328.763,932.199 "/>
<polyline clip-path="url(#clip600)" style="stroke:#000000; stroke-linecap:round; stroke-linejoin:round; stroke-width:4; stroke-opacity:1; fill:none" points="309.866,644.787 328.763,644.787 "/>
<polyline clip-path="url(#clip600)" style="stroke:#000000; stroke-linecap:round; stroke-linejoin:round; stroke-width:4; stroke-opacity:1; fill:none" points="309.866,357.374 328.763,357.374 "/>
<path clip-path="url(#clip600)" d="M126.205 1205.41 Q122.593 1205.41 120.765 1208.98 Q118.959 1212.52 118.959 1219.65 Q118.959 1226.75 120.765 1230.32 Q122.593 1233.86 126.205 1233.86 Q129.839 1233.86 131.644 1230.32 Q133.473 1226.75 133.473 1219.65 Q133.473 1212.52 131.644 1208.98 Q129.839 1205.41 126.205 1205.41 M126.205 1201.71 Q132.015 1201.71 135.07 1206.31 Q138.149 1210.9 138.149 1219.65 Q138.149 1228.37 135.07 1232.98 Q132.015 1237.56 126.205 1237.56 Q120.394 1237.56 117.316 1232.98 Q114.26 1228.37 114.26 1219.65 Q114.26 1210.9 117.316 1206.31 Q120.394 1201.71 126.205 1201.71 Z" fill="#000000" fill-rule="nonzero" fill-opacity="1" /><path clip-path="url(#clip600)" d="M146.366 1231.01 L151.251 1231.01 L151.251 1236.89 L146.366 1236.89 L146.366 1231.01 Z" fill="#000000" fill-rule="nonzero" fill-opacity="1" /><path clip-path="url(#clip600)" d="M171.436 1205.41 Q167.825 1205.41 165.996 1208.98 Q164.19 1212.52 164.19 1219.65 Q164.19 1226.75 165.996 1230.32 Q167.825 1233.86 171.436 1233.86 Q175.07 1233.86 176.876 1230.32 Q178.704 1226.75 178.704 1219.65 Q178.704 1212.52 176.876 1208.98 Q175.07 1205.41 171.436 1205.41 M171.436 1201.71 Q177.246 1201.71 180.301 1206.31 Q183.38 1210.9 183.38 1219.65 Q183.38 1228.37 180.301 1232.98 Q177.246 1237.56 171.436 1237.56 Q165.626 1237.56 162.547 1232.98 Q159.491 1228.37 159.491 1219.65 Q159.491 1210.9 162.547 1206.31 Q165.626 1201.71 171.436 1201.71 Z" fill="#000000" fill-rule="nonzero" fill-opacity="1" /><path clip-path="url(#clip600)" d="M204.445 1206.41 L192.639 1224.86 L204.445 1224.86 L204.445 1206.41 M203.218 1202.33 L209.098 1202.33 L209.098 1224.86 L214.028 1224.86 L214.028 1228.74 L209.098 1228.74 L209.098 1236.89 L204.445 1236.89 L204.445 1228.74 L188.843 1228.74 L188.843 1224.23 L203.218 1202.33 Z" fill="#000000" fill-rule="nonzero" fill-opacity="1" /><path clip-path="url(#clip600)" d="M235.926 1218.26 Q239.283 1218.98 241.158 1221.24 Q243.056 1223.51 243.056 1226.85 Q243.056 1231.96 239.537 1234.76 Q236.019 1237.56 229.537 1237.56 Q227.361 1237.56 225.047 1237.12 Q222.755 1236.71 220.301 1235.85 L220.301 1231.34 Q222.246 1232.47 224.56 1233.05 Q226.875 1233.63 229.398 1233.63 Q233.797 1233.63 236.088 1231.89 Q238.403 1230.16 238.403 1226.85 Q238.403 1223.79 236.25 1222.08 Q234.121 1220.34 230.301 1220.34 L226.273 1220.34 L226.273 1216.5 L230.486 1216.5 Q233.935 1216.5 235.764 1215.13 Q237.593 1213.74 237.593 1211.15 Q237.593 1208.49 235.695 1207.08 Q233.82 1205.64 230.301 1205.64 Q228.38 1205.64 226.181 1206.06 Q223.982 1206.48 221.343 1207.36 L221.343 1203.19 Q224.005 1202.45 226.32 1202.08 Q228.658 1201.71 230.718 1201.71 Q236.042 1201.71 239.144 1204.14 Q242.246 1206.55 242.246 1210.67 Q242.246 1213.54 240.602 1215.53 Q238.959 1217.49 235.926 1218.26 Z" fill="#000000" fill-rule="nonzero" fill-opacity="1" /><path clip-path="url(#clip600)" d="M261.921 1205.41 Q258.31 1205.41 256.482 1208.98 Q254.676 1212.52 254.676 1219.65 Q254.676 1226.75 256.482 1230.32 Q258.31 1233.86 261.921 1233.86 Q265.556 1233.86 267.361 1230.32 Q269.19 1226.75 269.19 1219.65 Q269.19 1212.52 267.361 1208.98 Q265.556 1205.41 261.921 1205.41 M261.921 1201.71 Q267.732 1201.71 270.787 1206.31 Q273.866 1210.9 273.866 1219.65 Q273.866 1228.37 270.787 1232.98 Q267.732 1237.56 261.921 1237.56 Q256.111 1237.56 253.033 1232.98 Q249.977 1228.37 249.977 1219.65 Q249.977 1210.9 253.033 1206.31 Q256.111 1201.71 261.921 1201.71 Z" fill="#000000" fill-rule="nonzero" fill-opacity="1" /><path clip-path="url(#clip600)" d="M127.2 917.998 Q123.589 917.998 121.76 921.563 Q119.955 925.105 119.955 932.234 Q119.955 939.341 121.76 942.905 Q123.589 946.447 127.2 946.447 Q130.834 946.447 132.64 942.905 Q134.468 939.341 134.468 932.234 Q134.468 925.105 132.64 921.563 Q130.834 917.998 127.2 917.998 M127.2 914.294 Q133.01 914.294 136.066 918.901 Q139.144 923.484 139.144 932.234 Q139.144 940.961 136.066 945.567 Q133.01 950.151 127.2 950.151 Q121.39 950.151 118.311 945.567 Q115.256 940.961 115.256 932.234 Q115.256 923.484 118.311 918.901 Q121.39 914.294 127.2 914.294 Z" fill="#000000" fill-rule="nonzero" fill-opacity="1" /><path clip-path="url(#clip600)" d="M147.362 943.6 L152.246 943.6 L152.246 949.479 L147.362 949.479 L147.362 943.6 Z" fill="#000000" fill-rule="nonzero" fill-opacity="1" /><path clip-path="url(#clip600)" d="M172.431 917.998 Q168.82 917.998 166.991 921.563 Q165.186 925.105 165.186 932.234 Q165.186 939.341 166.991 942.905 Q168.82 946.447 172.431 946.447 Q176.065 946.447 177.871 942.905 Q179.7 939.341 179.7 932.234 Q179.7 925.105 177.871 921.563 Q176.065 917.998 172.431 917.998 M172.431 914.294 Q178.241 914.294 181.297 918.901 Q184.376 923.484 184.376 932.234 Q184.376 940.961 181.297 945.567 Q178.241 950.151 172.431 950.151 Q166.621 950.151 163.542 945.567 Q160.487 940.961 160.487 932.234 Q160.487 923.484 163.542 918.901 Q166.621 914.294 172.431 914.294 Z" fill="#000000" fill-rule="nonzero" fill-opacity="1" /><path clip-path="url(#clip600)" d="M205.44 918.993 L193.635 937.442 L205.44 937.442 L205.44 918.993 M204.213 914.919 L210.093 914.919 L210.093 937.442 L215.024 937.442 L215.024 941.331 L210.093 941.331 L210.093 949.479 L205.44 949.479 L205.44 941.331 L189.838 941.331 L189.838 936.817 L204.213 914.919 Z" fill="#000000" fill-rule="nonzero" fill-opacity="1" /><path clip-path="url(#clip600)" d="M236.922 930.845 Q240.278 931.563 242.153 933.831 Q244.051 936.1 244.051 939.433 Q244.051 944.549 240.533 947.35 Q237.014 950.151 230.533 950.151 Q228.357 950.151 226.042 949.711 Q223.75 949.294 221.297 948.438 L221.297 943.924 Q223.241 945.058 225.556 945.637 Q227.871 946.216 230.394 946.216 Q234.792 946.216 237.084 944.479 Q239.398 942.743 239.398 939.433 Q239.398 936.378 237.246 934.665 Q235.116 932.929 231.297 932.929 L227.269 932.929 L227.269 929.086 L231.482 929.086 Q234.931 929.086 236.76 927.72 Q238.588 926.331 238.588 923.739 Q238.588 921.077 236.69 919.665 Q234.815 918.23 231.297 918.23 Q229.375 918.23 227.176 918.646 Q224.977 919.063 222.338 919.943 L222.338 915.776 Q225 915.035 227.315 914.665 Q229.653 914.294 231.713 914.294 Q237.037 914.294 240.139 916.725 Q243.241 919.132 243.241 923.253 Q243.241 926.123 241.597 928.114 Q239.954 930.081 236.922 930.845 Z" fill="#000000" fill-rule="nonzero" fill-opacity="1" /><path clip-path="url(#clip600)" d="M252.963 914.919 L271.32 914.919 L271.32 918.855 L257.246 918.855 L257.246 927.327 Q258.264 926.98 259.283 926.817 Q260.301 926.632 261.32 926.632 Q267.107 926.632 270.486 929.804 Q273.866 932.975 273.866 938.391 Q273.866 943.97 270.394 947.072 Q266.921 950.151 260.602 950.151 Q258.426 950.151 256.158 949.78 Q253.912 949.41 251.505 948.669 L251.505 943.97 Q253.588 945.104 255.81 945.66 Q258.033 946.216 260.509 946.216 Q264.514 946.216 266.852 944.109 Q269.19 942.003 269.19 938.391 Q269.19 934.78 266.852 932.674 Q264.514 930.567 260.509 930.567 Q258.634 930.567 256.759 930.984 Q254.908 931.401 252.963 932.28 L252.963 914.919 Z" fill="#000000" fill-rule="nonzero" fill-opacity="1" /><path clip-path="url(#clip600)" d="M126.205 630.585 Q122.593 630.585 120.765 634.15 Q118.959 637.692 118.959 644.821 Q118.959 651.928 120.765 655.493 Q122.593 659.034 126.205 659.034 Q129.839 659.034 131.644 655.493 Q133.473 651.928 133.473 644.821 Q133.473 637.692 131.644 634.15 Q129.839 630.585 126.205 630.585 M126.205 626.882 Q132.015 626.882 135.07 631.488 Q138.149 636.071 138.149 644.821 Q138.149 653.548 135.07 658.155 Q132.015 662.738 126.205 662.738 Q120.394 662.738 117.316 658.155 Q114.26 653.548 114.26 644.821 Q114.26 636.071 117.316 631.488 Q120.394 626.882 126.205 626.882 Z" fill="#000000" fill-rule="nonzero" fill-opacity="1" /><path clip-path="url(#clip600)" d="M146.366 656.187 L151.251 656.187 L151.251 662.067 L146.366 662.067 L146.366 656.187 Z" fill="#000000" fill-rule="nonzero" fill-opacity="1" /><path clip-path="url(#clip600)" d="M171.436 630.585 Q167.825 630.585 165.996 634.15 Q164.19 637.692 164.19 644.821 Q164.19 651.928 165.996 655.493 Q167.825 659.034 171.436 659.034 Q175.07 659.034 176.876 655.493 Q178.704 651.928 178.704 644.821 Q178.704 637.692 176.876 634.15 Q175.07 630.585 171.436 630.585 M171.436 626.882 Q177.246 626.882 180.301 631.488 Q183.38 636.071 183.38 644.821 Q183.38 653.548 180.301 658.155 Q177.246 662.738 171.436 662.738 Q165.626 662.738 162.547 658.155 Q159.491 653.548 159.491 644.821 Q159.491 636.071 162.547 631.488 Q165.626 626.882 171.436 626.882 Z" fill="#000000" fill-rule="nonzero" fill-opacity="1" /><path clip-path="url(#clip600)" d="M204.445 631.581 L192.639 650.03 L204.445 650.03 L204.445 631.581 M203.218 627.507 L209.098 627.507 L209.098 650.03 L214.028 650.03 L214.028 653.919 L209.098 653.919 L209.098 662.067 L204.445 662.067 L204.445 653.919 L188.843 653.919 L188.843 649.405 L203.218 627.507 Z" fill="#000000" fill-rule="nonzero" fill-opacity="1" /><path clip-path="url(#clip600)" d="M234.607 631.581 L222.801 650.03 L234.607 650.03 L234.607 631.581 M233.38 627.507 L239.259 627.507 L239.259 650.03 L244.19 650.03 L244.19 653.919 L239.259 653.919 L239.259 662.067 L234.607 662.067 L234.607 653.919 L219.005 653.919 L219.005 649.405 L233.38 627.507 Z" fill="#000000" fill-rule="nonzero" fill-opacity="1" /><path clip-path="url(#clip600)" d="M261.921 630.585 Q258.31 630.585 256.482 634.15 Q254.676 637.692 254.676 644.821 Q254.676 651.928 256.482 655.493 Q258.31 659.034 261.921 659.034 Q265.556 659.034 267.361 655.493 Q269.19 651.928 269.19 644.821 Q269.19 637.692 267.361 634.15 Q265.556 630.585 261.921 630.585 M261.921 626.882 Q267.732 626.882 270.787 631.488 Q273.866 636.071 273.866 644.821 Q273.866 653.548 270.787 658.155 Q267.732 662.738 261.921 662.738 Q256.111 662.738 253.033 658.155 Q249.977 653.548 249.977 644.821 Q249.977 636.071 253.033 631.488 Q256.111 626.882 261.921 626.882 Z" fill="#000000" fill-rule="nonzero" fill-opacity="1" /><path clip-path="url(#clip600)" d="M127.2 343.173 Q123.589 343.173 121.76 346.737 Q119.955 350.279 119.955 357.409 Q119.955 364.515 121.76 368.08 Q123.589 371.622 127.2 371.622 Q130.834 371.622 132.64 368.08 Q134.468 364.515 134.468 357.409 Q134.468 350.279 132.64 346.737 Q130.834 343.173 127.2 343.173 M127.2 339.469 Q133.01 339.469 136.066 344.075 Q139.144 348.659 139.144 357.409 Q139.144 366.136 136.066 370.742 Q133.01 375.325 127.2 375.325 Q121.39 375.325 118.311 370.742 Q115.256 366.136 115.256 357.409 Q115.256 348.659 118.311 344.075 Q121.39 339.469 127.2 339.469 Z" fill="#000000" fill-rule="nonzero" fill-opacity="1" /><path clip-path="url(#clip600)" d="M147.362 368.774 L152.246 368.774 L152.246 374.654 L147.362 374.654 L147.362 368.774 Z" fill="#000000" fill-rule="nonzero" fill-opacity="1" /><path clip-path="url(#clip600)" d="M172.431 343.173 Q168.82 343.173 166.991 346.737 Q165.186 350.279 165.186 357.409 Q165.186 364.515 166.991 368.08 Q168.82 371.622 172.431 371.622 Q176.065 371.622 177.871 368.08 Q179.7 364.515 179.7 357.409 Q179.7 350.279 177.871 346.737 Q176.065 343.173 172.431 343.173 M172.431 339.469 Q178.241 339.469 181.297 344.075 Q184.376 348.659 184.376 357.409 Q184.376 366.136 181.297 370.742 Q178.241 375.325 172.431 375.325 Q166.621 375.325 163.542 370.742 Q160.487 366.136 160.487 357.409 Q160.487 348.659 163.542 344.075 Q166.621 339.469 172.431 339.469 Z" fill="#000000" fill-rule="nonzero" fill-opacity="1" /><path clip-path="url(#clip600)" d="M205.44 344.168 L193.635 362.617 L205.44 362.617 L205.44 344.168 M204.213 340.094 L210.093 340.094 L210.093 362.617 L215.024 362.617 L215.024 366.506 L210.093 366.506 L210.093 374.654 L205.44 374.654 L205.44 366.506 L189.838 366.506 L189.838 361.992 L204.213 340.094 Z" fill="#000000" fill-rule="nonzero" fill-opacity="1" /><path clip-path="url(#clip600)" d="M235.602 344.168 L223.797 362.617 L235.602 362.617 L235.602 344.168 M234.375 340.094 L240.255 340.094 L240.255 362.617 L245.185 362.617 L245.185 366.506 L240.255 366.506 L240.255 374.654 L235.602 374.654 L235.602 366.506 L220 366.506 L220 361.992 L234.375 340.094 Z" fill="#000000" fill-rule="nonzero" fill-opacity="1" /><path clip-path="url(#clip600)" d="M252.963 340.094 L271.32 340.094 L271.32 344.029 L257.246 344.029 L257.246 352.501 Q258.264 352.154 259.283 351.992 Q260.301 351.807 261.32 351.807 Q267.107 351.807 270.486 354.978 Q273.866 358.149 273.866 363.566 Q273.866 369.145 270.394 372.247 Q266.921 375.325 260.602 375.325 Q258.426 375.325 256.158 374.955 Q253.912 374.585 251.505 373.844 L251.505 369.145 Q253.588 370.279 255.81 370.835 Q258.033 371.39 260.509 371.39 Q264.514 371.39 266.852 369.284 Q269.19 367.177 269.19 363.566 Q269.19 359.955 266.852 357.849 Q264.514 355.742 260.509 355.742 Q258.634 355.742 256.759 356.159 Q254.908 356.575 252.963 357.455 L252.963 340.094 Z" fill="#000000" fill-rule="nonzero" fill-opacity="1" /><path clip-path="url(#clip600)" d="M16.4842 995.903 L16.4842 955.703 L21.895 955.703 L21.895 972.573 L64.0042 972.573 L64.0042 979.034 L21.895 979.034 L21.895 995.903 L16.4842 995.903 Z" fill="#000000" fill-rule="nonzero" fill-opacity="1" /><path clip-path="url(#clip600)" d="M33.8307 938.675 Q33.2578 939.662 33.0032 940.84 Q32.7167 941.985 32.7167 943.386 Q32.7167 948.351 35.9632 951.025 Q39.1779 953.666 45.2253 953.666 L64.0042 953.666 L64.0042 959.555 L28.3562 959.555 L28.3562 953.666 L33.8944 953.666 Q30.6479 951.82 29.0883 948.86 Q27.4968 945.9 27.4968 941.667 Q27.4968 941.062 27.5923 940.33 Q27.656 939.598 27.8151 938.707 L33.8307 938.675 Z" fill="#000000" fill-rule="nonzero" fill-opacity="1" /><path clip-path="url(#clip600)" d="M46.0847 916.332 Q46.0847 923.429 47.7079 926.167 Q49.3312 928.904 53.2461 928.904 Q56.3653 928.904 58.2114 926.867 Q60.0256 924.798 60.0256 921.265 Q60.0256 916.395 56.5881 913.467 Q53.1188 910.507 47.3897 910.507 L46.0847 910.507 L46.0847 916.332 M43.6657 904.651 L64.0042 904.651 L64.0042 910.507 L58.5933 910.507 Q61.8398 912.512 63.3994 915.504 Q64.9272 918.496 64.9272 922.825 Q64.9272 928.299 61.8716 931.546 Q58.7843 934.76 53.6281 934.76 Q47.6125 934.76 44.5569 930.75 Q41.5014 926.708 41.5014 918.719 L41.5014 910.507 L40.9285 910.507 Q36.8862 910.507 34.6901 913.181 Q32.4621 915.822 32.4621 920.628 Q32.4621 923.684 33.1941 926.58 Q33.9262 929.477 35.3903 932.15 L29.9795 932.15 Q28.7381 928.936 28.1334 925.912 Q27.4968 922.888 27.4968 920.024 Q27.4968 912.289 31.5072 908.47 Q35.5176 904.651 43.6657 904.651 Z" fill="#000000" fill-rule="nonzero" fill-opacity="1" /><path clip-path="url(#clip600)" d="M28.3562 892.587 L28.3562 886.731 L64.6407 886.731 Q71.452 886.731 74.5076 889.341 Q77.5631 891.919 77.5631 897.68 L77.5631 899.908 L72.5979 899.908 L72.5979 898.348 Q72.5979 895.006 71.0383 893.797 Q69.5105 892.587 64.6407 892.587 L28.3562 892.587 M14.479 892.587 L14.479 886.731 L21.895 886.731 L21.895 892.587 L14.479 892.587 Z" fill="#000000" fill-rule="nonzero" fill-opacity="1" /><path clip-path="url(#clip600)" d="M44.7161 843.985 L47.5806 843.985 L47.5806 870.912 Q53.6281 870.53 56.8109 867.284 Q59.9619 864.005 59.9619 858.181 Q59.9619 854.807 59.1344 851.656 Q58.3069 848.473 56.6518 845.354 L62.1899 845.354 Q63.5267 848.505 64.227 851.815 Q64.9272 855.125 64.9272 858.531 Q64.9272 867.061 59.9619 872.058 Q54.9967 877.023 46.5303 877.023 Q37.7774 877.023 32.6531 872.313 Q27.4968 867.57 27.4968 859.549 Q27.4968 852.356 32.1438 848.187 Q36.7589 843.985 44.7161 843.985 M42.9973 849.842 Q38.1912 849.905 35.3266 852.547 Q32.4621 855.157 32.4621 859.486 Q32.4621 864.387 35.2312 867.347 Q38.0002 870.276 43.0292 870.721 L42.9973 849.842 Z" fill="#000000" fill-rule="nonzero" fill-opacity="1" /><path clip-path="url(#clip600)" d="M29.7248 808.719 L35.1993 808.719 Q33.8307 811.202 33.1623 813.716 Q32.4621 816.199 32.4621 818.745 Q32.4621 824.443 36.0905 827.594 Q39.6872 830.745 46.212 830.745 Q52.7369 830.745 56.3653 827.594 Q59.9619 824.443 59.9619 818.745 Q59.9619 816.199 59.2935 813.716 Q58.5933 811.202 57.2247 808.719 L62.6355 808.719 Q63.7814 811.17 64.3543 813.812 Q64.9272 816.422 64.9272 819.382 Q64.9272 827.434 59.8664 832.177 Q54.8057 836.919 46.212 836.919 Q37.491 836.919 32.4939 832.145 Q27.4968 827.339 27.4968 819 Q27.4968 816.295 28.0697 813.716 Q28.6108 811.138 29.7248 808.719 Z" fill="#000000" fill-rule="nonzero" fill-opacity="1" /><path clip-path="url(#clip600)" d="M18.2347 792.741 L28.3562 792.741 L28.3562 780.678 L32.9077 780.678 L32.9077 792.741 L52.2594 792.741 Q56.6199 792.741 57.8613 791.564 Q59.1026 790.354 59.1026 786.694 L59.1026 780.678 L64.0042 780.678 L64.0042 786.694 Q64.0042 793.473 61.4897 796.052 Q58.9434 798.63 52.2594 798.63 L32.9077 798.63 L32.9077 802.927 L28.3562 802.927 L28.3562 798.63 L18.2347 798.63 L18.2347 792.741 Z" fill="#000000" fill-rule="nonzero" fill-opacity="1" /><path clip-path="url(#clip600)" d="M32.4621 759.162 Q32.4621 763.873 36.1542 766.61 Q39.8145 769.347 46.212 769.347 Q52.6095 769.347 56.3017 766.642 Q59.9619 763.905 59.9619 759.162 Q59.9619 754.483 56.2698 751.746 Q52.5777 749.009 46.212 749.009 Q39.8781 749.009 36.186 751.746 Q32.4621 754.483 32.4621 759.162 M27.4968 759.162 Q27.4968 751.523 32.4621 747.163 Q37.4273 742.802 46.212 742.802 Q54.9649 742.802 59.9619 747.163 Q64.9272 751.523 64.9272 759.162 Q64.9272 766.833 59.9619 771.193 Q54.9649 775.522 46.212 775.522 Q37.4273 775.522 32.4621 771.193 Q27.4968 766.833 27.4968 759.162 Z" fill="#000000" fill-rule="nonzero" fill-opacity="1" /><path clip-path="url(#clip600)" d="M33.8307 712.438 Q33.2578 713.425 33.0032 714.602 Q32.7167 715.748 32.7167 717.149 Q32.7167 722.114 35.9632 724.787 Q39.1779 727.429 45.2253 727.429 L64.0042 727.429 L64.0042 733.318 L28.3562 733.318 L28.3562 727.429 L33.8944 727.429 Q30.6479 725.583 29.0883 722.623 Q27.4968 719.663 27.4968 715.43 Q27.4968 714.825 27.5923 714.093 Q27.656 713.361 27.8151 712.47 L33.8307 712.438 Z" fill="#000000" fill-rule="nonzero" fill-opacity="1" /><path clip-path="url(#clip600)" d="M67.3143 691.463 Q73.68 693.946 75.6216 696.301 Q77.5631 698.656 77.5631 702.603 L77.5631 707.282 L72.6615 707.282 L72.6615 703.844 Q72.6615 701.425 71.5157 700.089 Q70.3699 698.752 66.1048 697.128 L63.4312 696.078 L28.3562 710.496 L28.3562 704.29 L56.238 693.15 L28.3562 682.01 L28.3562 675.803 L67.3143 691.463 Z" fill="#000000" fill-rule="nonzero" fill-opacity="1" /><path clip-path="url(#clip600)" d="M18.0438 618.257 L24.314 618.257 Q22.5634 621.918 21.704 625.164 Q20.8447 628.411 20.8447 631.434 Q20.8447 636.686 22.8817 639.551 Q24.9187 642.383 28.6745 642.383 Q31.8255 642.383 33.4488 640.506 Q35.0402 638.596 36.0269 633.312 L36.8226 629.429 Q38.1912 622.236 41.6605 618.83 Q45.098 615.393 50.8908 615.393 Q57.7976 615.393 61.3624 620.04 Q64.9272 624.655 64.9272 633.599 Q64.9272 636.973 64.1633 640.792 Q63.3994 644.58 61.9035 648.654 L55.2831 648.654 Q57.4793 644.739 58.5933 640.983 Q59.7073 637.227 59.7073 633.599 Q59.7073 628.092 57.543 625.101 Q55.3786 622.109 51.3682 622.109 Q47.8671 622.109 45.8937 624.273 Q43.9204 626.405 42.9337 631.307 L42.1698 635.222 Q40.7375 642.415 37.682 645.63 Q34.6264 648.845 29.1837 648.845 Q22.8817 648.845 19.2532 644.42 Q15.6248 639.964 15.6248 632.166 Q15.6248 628.824 16.2295 625.355 Q16.8343 621.886 18.0438 618.257 Z" fill="#000000" fill-rule="nonzero" fill-opacity="1" /><path clip-path="url(#clip600)" d="M18.2347 599.829 L28.3562 599.829 L28.3562 587.766 L32.9077 587.766 L32.9077 599.829 L52.2594 599.829 Q56.6199 599.829 57.8613 598.651 Q59.1026 597.442 59.1026 593.781 L59.1026 587.766 L64.0042 587.766 L64.0042 593.781 Q64.0042 600.561 61.4897 603.139 Q58.9434 605.717 52.2594 605.717 L32.9077 605.717 L32.9077 610.014 L28.3562 610.014 L28.3562 605.717 L18.2347 605.717 L18.2347 599.829 Z" fill="#000000" fill-rule="nonzero" fill-opacity="1" /><path clip-path="url(#clip600)" d="M33.7671 556.606 L14.479 556.606 L14.479 550.749 L64.0042 550.749 L64.0042 556.606 L58.657 556.606 Q61.8398 558.452 63.3994 561.284 Q64.9272 564.085 64.9272 568.032 Q64.9272 574.493 59.771 578.567 Q54.6147 582.609 46.212 582.609 Q37.8093 582.609 32.6531 578.567 Q27.4968 574.493 27.4968 568.032 Q27.4968 564.085 29.0564 561.284 Q30.5842 558.452 33.7671 556.606 M46.212 576.562 Q52.6732 576.562 56.3653 573.92 Q60.0256 571.247 60.0256 566.6 Q60.0256 561.953 56.3653 559.279 Q52.6732 556.606 46.212 556.606 Q39.7508 556.606 36.0905 559.279 Q32.3984 561.953 32.3984 566.6 Q32.3984 571.247 36.0905 573.92 Q39.7508 576.562 46.212 576.562 Z" fill="#000000" fill-rule="nonzero" fill-opacity="1" /><path clip-path="url(#clip600)" d="M824.279 14.0809 L824.279 22.0612 Q819.621 19.8332 815.489 18.7395 Q811.357 17.6457 807.509 17.6457 Q800.825 17.6457 797.179 20.2383 Q793.574 22.8309 793.574 27.611 Q793.574 31.6214 795.964 33.6873 Q798.394 35.7128 805.119 36.9686 L810.061 37.9813 Q819.216 39.7232 823.55 44.1387 Q827.925 48.5136 827.925 55.8863 Q827.925 64.6767 822.011 69.2137 Q816.137 73.7508 804.754 73.7508 Q800.46 73.7508 795.599 72.7785 Q790.778 71.8063 785.593 69.9024 L785.593 61.4765 Q790.576 64.2716 795.356 65.6895 Q800.136 67.1073 804.754 67.1073 Q811.762 67.1073 815.57 64.3527 Q819.378 61.598 819.378 56.4939 Q819.378 52.0379 816.623 49.5264 Q813.909 47.0148 807.671 45.759 L802.688 44.7868 Q793.533 42.9639 789.442 39.075 Q785.35 35.1862 785.35 28.2591 Q785.35 20.2383 790.981 15.6203 Q796.652 11.0023 806.577 11.0023 Q810.83 11.0023 815.246 11.7719 Q819.661 12.5416 824.279 14.0809 Z" fill="#000000" fill-rule="nonzero" fill-opacity="1" /><path clip-path="url(#clip600)" d="M847.734 14.324 L847.734 27.2059 L863.087 27.2059 L863.087 32.9987 L847.734 32.9987 L847.734 57.6282 Q847.734 63.1779 849.233 64.7578 Q850.772 66.3376 855.431 66.3376 L863.087 66.3376 L863.087 72.576 L855.431 72.576 Q846.802 72.576 843.521 69.3758 Q840.24 66.1351 840.24 57.6282 L840.24 32.9987 L834.771 32.9987 L834.771 27.2059 L840.24 27.2059 L840.24 14.324 L847.734 14.324 Z" fill="#000000" fill-rule="nonzero" fill-opacity="1" /><path clip-path="url(#clip600)" d="M893.509 49.7694 Q884.476 49.7694 880.992 51.8354 Q877.508 53.9013 877.508 58.8839 Q877.508 62.8538 880.101 65.2034 Q882.734 67.5124 887.23 67.5124 Q893.428 67.5124 897.155 63.1374 Q900.923 58.7219 900.923 51.4303 L900.923 49.7694 L893.509 49.7694 M908.376 46.6907 L908.376 72.576 L900.923 72.576 L900.923 65.6895 Q898.37 69.8214 894.563 71.8063 Q890.755 73.7508 885.246 73.7508 Q878.278 73.7508 874.146 69.8619 Q870.055 65.9325 870.055 59.3701 Q870.055 51.7138 875.159 47.825 Q880.303 43.9361 890.471 43.9361 L900.923 43.9361 L900.923 43.2069 Q900.923 38.0623 897.52 35.2672 Q894.158 32.4315 888.041 32.4315 Q884.152 32.4315 880.465 33.3632 Q876.779 34.295 873.376 36.1584 L873.376 29.2718 Q877.468 27.692 881.316 26.9223 Q885.165 26.1121 888.81 26.1121 Q898.654 26.1121 903.515 31.2163 Q908.376 36.3204 908.376 46.6907 Z" fill="#000000" fill-rule="nonzero" fill-opacity="1" /><path clip-path="url(#clip600)" d="M956.298 49.9314 Q956.298 41.7081 952.896 37.0496 Q949.533 32.3505 943.619 32.3505 Q937.705 32.3505 934.302 37.0496 Q930.94 41.7081 930.94 49.9314 Q930.94 58.1548 934.302 62.8538 Q937.705 67.5124 943.619 67.5124 Q949.533 67.5124 952.896 62.8538 Q956.298 58.1548 956.298 49.9314 M930.94 34.0924 Q933.289 30.0415 936.854 28.0971 Q940.459 26.1121 945.442 26.1121 Q953.706 26.1121 958.85 32.6746 Q964.036 39.2371 964.036 49.9314 Q964.036 60.6258 958.85 67.1883 Q953.706 73.7508 945.442 73.7508 Q940.459 73.7508 936.854 71.8063 Q933.289 69.8214 930.94 65.7705 L930.94 72.576 L923.446 72.576 L923.446 9.54393 L930.94 9.54393 L930.94 34.0924 Z" fill="#000000" fill-rule="nonzero" fill-opacity="1" /><path clip-path="url(#clip600)" d="M976.391 27.2059 L983.845 27.2059 L983.845 72.576 L976.391 72.576 L976.391 27.2059 M976.391 9.54393 L983.845 9.54393 L983.845 18.9825 L976.391 18.9825 L976.391 9.54393 Z" fill="#000000" fill-rule="nonzero" fill-opacity="1" /><path clip-path="url(#clip600)" d="M999.441 9.54393 L1006.89 9.54393 L1006.89 72.576 L999.441 72.576 L999.441 9.54393 Z" fill="#000000" fill-rule="nonzero" fill-opacity="1" /><path clip-path="url(#clip600)" d="M1022.49 27.2059 L1029.94 27.2059 L1029.94 72.576 L1022.49 72.576 L1022.49 27.2059 M1022.49 9.54393 L1029.94 9.54393 L1029.94 18.9825 L1022.49 18.9825 L1022.49 9.54393 Z" fill="#000000" fill-rule="nonzero" fill-opacity="1" /><path clip-path="url(#clip600)" d="M1052.91 14.324 L1052.91 27.2059 L1068.27 27.2059 L1068.27 32.9987 L1052.91 32.9987 L1052.91 57.6282 Q1052.91 63.1779 1054.41 64.7578 Q1055.95 66.3376 1060.61 66.3376 L1068.27 66.3376 L1068.27 72.576 L1060.61 72.576 Q1051.98 72.576 1048.7 69.3758 Q1045.42 66.1351 1045.42 57.6282 L1045.42 32.9987 L1039.95 32.9987 L1039.95 27.2059 L1045.42 27.2059 L1045.42 14.324 L1052.91 14.324 Z" fill="#000000" fill-rule="nonzero" fill-opacity="1" /><path clip-path="url(#clip600)" d="M1096.95 76.7889 Q1093.79 84.8907 1090.79 87.3618 Q1087.79 89.8329 1082.77 89.8329 L1076.81 89.8329 L1076.81 83.5945 L1081.19 83.5945 Q1084.27 83.5945 1085.97 82.1361 Q1087.67 80.6778 1089.74 75.2496 L1091.07 71.8468 L1072.72 27.2059 L1080.62 27.2059 L1094.8 62.6918 L1108.98 27.2059 L1116.88 27.2059 L1096.95 76.7889 Z" fill="#000000" fill-rule="nonzero" fill-opacity="1" /><path clip-path="url(#clip600)" d="M1162.04 43.6931 L1162.04 65.8515 L1175.17 65.8515 Q1181.77 65.8515 1184.93 63.1374 Q1188.13 60.3828 1188.13 54.752 Q1188.13 49.0808 1184.93 46.4072 Q1181.77 43.6931 1175.17 43.6931 L1162.04 43.6931 M1162.04 18.8205 L1162.04 37.0496 L1174.16 37.0496 Q1180.15 37.0496 1183.07 34.8216 Q1186.03 32.5531 1186.03 27.935 Q1186.03 23.3575 1183.07 21.089 Q1180.15 18.8205 1174.16 18.8205 L1162.04 18.8205 M1153.86 12.096 L1174.76 12.096 Q1184.12 12.096 1189.18 15.9849 Q1194.25 19.8737 1194.25 27.0438 Q1194.25 32.5936 1191.66 35.8748 Q1189.06 39.156 1184.04 39.9662 Q1190.08 41.2625 1193.4 45.3944 Q1196.76 49.4858 1196.76 55.6432 Q1196.76 63.745 1191.25 68.1605 Q1185.74 72.576 1175.57 72.576 L1153.86 72.576 L1153.86 12.096 Z" fill="#000000" fill-rule="nonzero" fill-opacity="1" /><path clip-path="url(#clip600)" d="M1210.45 27.2059 L1217.91 27.2059 L1217.91 72.576 L1210.45 72.576 L1210.45 27.2059 M1210.45 9.54393 L1217.91 9.54393 L1217.91 18.9825 L1210.45 18.9825 L1210.45 9.54393 Z" fill="#000000" fill-rule="nonzero" fill-opacity="1" /><path clip-path="url(#clip600)" d="M1256.47 9.54393 L1256.47 15.7418 L1249.34 15.7418 Q1245.33 15.7418 1243.75 17.3622 Q1242.21 18.9825 1242.21 23.1955 L1242.21 27.2059 L1254.49 27.2059 L1254.49 32.9987 L1242.21 32.9987 L1242.21 72.576 L1234.72 72.576 L1234.72 32.9987 L1227.59 32.9987 L1227.59 27.2059 L1234.72 27.2059 L1234.72 24.0462 Q1234.72 16.471 1238.24 13.0277 Q1241.77 9.54393 1249.42 9.54393 L1256.47 9.54393 Z" fill="#000000" fill-rule="nonzero" fill-opacity="1" /><path clip-path="url(#clip600)" d="M1261.94 54.671 L1261.94 27.2059 L1269.39 27.2059 L1269.39 54.3874 Q1269.39 60.8284 1271.9 64.0691 Q1274.42 67.2693 1279.44 67.2693 Q1285.47 67.2693 1288.96 63.421 Q1292.48 59.5726 1292.48 52.9291 L1292.48 27.2059 L1299.94 27.2059 L1299.94 72.576 L1292.48 72.576 L1292.48 65.6084 Q1289.77 69.7404 1286.16 71.7658 Q1282.6 73.7508 1277.86 73.7508 Q1270.04 73.7508 1265.99 68.8897 Q1261.94 64.0286 1261.94 54.671 M1280.69 26.1121 L1280.69 26.1121 Z" fill="#000000" fill-rule="nonzero" fill-opacity="1" /><path clip-path="url(#clip600)" d="M1341.58 34.1734 Q1340.32 33.4443 1338.83 33.1202 Q1337.37 32.7556 1335.58 32.7556 Q1329.27 32.7556 1325.86 36.8875 Q1322.5 40.9789 1322.5 48.6757 L1322.5 72.576 L1315.01 72.576 L1315.01 27.2059 L1322.5 27.2059 L1322.5 34.2544 Q1324.85 30.1225 1328.62 28.1376 Q1332.38 26.1121 1337.77 26.1121 Q1338.54 26.1121 1339.47 26.2337 Q1340.41 26.3147 1341.54 26.5172 L1341.58 34.1734 Z" fill="#000000" fill-rule="nonzero" fill-opacity="1" /><path clip-path="url(#clip600)" d="M1380.23 28.9478 L1380.23 35.9153 Q1377.07 34.1734 1373.87 33.3227 Q1370.71 32.4315 1367.47 32.4315 Q1360.21 32.4315 1356.2 37.0496 Q1352.19 41.6271 1352.19 49.9314 Q1352.19 58.2358 1356.2 62.8538 Q1360.21 67.4314 1367.47 67.4314 Q1370.71 67.4314 1373.87 66.5807 Q1377.07 65.6895 1380.23 63.9476 L1380.23 70.8341 Q1377.11 72.2924 1373.74 73.0216 Q1370.42 73.7508 1366.65 73.7508 Q1356.41 73.7508 1350.37 67.3098 Q1344.33 60.8689 1344.33 49.9314 Q1344.33 38.832 1350.41 32.472 Q1356.53 26.1121 1367.14 26.1121 Q1370.58 26.1121 1373.87 26.8413 Q1377.15 27.5299 1380.23 28.9478 Z" fill="#000000" fill-rule="nonzero" fill-opacity="1" /><path clip-path="url(#clip600)" d="M1413.81 49.7694 Q1404.77 49.7694 1401.29 51.8354 Q1397.81 53.9013 1397.81 58.8839 Q1397.81 62.8538 1400.4 65.2034 Q1403.03 67.5124 1407.53 67.5124 Q1413.73 67.5124 1417.45 63.1374 Q1421.22 58.7219 1421.22 51.4303 L1421.22 49.7694 L1413.81 49.7694 M1428.67 46.6907 L1428.67 72.576 L1421.22 72.576 L1421.22 65.6895 Q1418.67 69.8214 1414.86 71.8063 Q1411.05 73.7508 1405.54 73.7508 Q1398.58 73.7508 1394.44 69.8619 Q1390.35 65.9325 1390.35 59.3701 Q1390.35 51.7138 1395.46 47.825 Q1400.6 43.9361 1410.77 43.9361 L1421.22 43.9361 L1421.22 43.2069 Q1421.22 38.0623 1417.82 35.2672 Q1414.46 32.4315 1408.34 32.4315 Q1404.45 32.4315 1400.76 33.3632 Q1397.08 34.295 1393.67 36.1584 L1393.67 29.2718 Q1397.77 27.692 1401.61 26.9223 Q1405.46 26.1121 1409.11 26.1121 Q1418.95 26.1121 1423.81 31.2163 Q1428.67 36.3204 1428.67 46.6907 Z" fill="#000000" fill-rule="nonzero" fill-opacity="1" /><path clip-path="url(#clip600)" d="M1451.4 14.324 L1451.4 27.2059 L1466.75 27.2059 L1466.75 32.9987 L1451.4 32.9987 L1451.4 57.6282 Q1451.4 63.1779 1452.9 64.7578 Q1454.44 66.3376 1459.1 66.3376 L1466.75 66.3376 L1466.75 72.576 L1459.1 72.576 Q1450.47 72.576 1447.19 69.3758 Q1443.91 66.1351 1443.91 57.6282 L1443.91 32.9987 L1438.44 32.9987 L1438.44 27.2059 L1443.91 27.2059 L1443.91 14.324 L1451.4 14.324 Z" fill="#000000" fill-rule="nonzero" fill-opacity="1" /><path clip-path="url(#clip600)" d="M1476.56 27.2059 L1484.01 27.2059 L1484.01 72.576 L1476.56 72.576 L1476.56 27.2059 M1476.56 9.54393 L1484.01 9.54393 L1484.01 18.9825 L1476.56 18.9825 L1476.56 9.54393 Z" fill="#000000" fill-rule="nonzero" fill-opacity="1" /><path clip-path="url(#clip600)" d="M1517.19 32.4315 Q1511.19 32.4315 1507.71 37.1306 Q1504.22 41.7891 1504.22 49.9314 Q1504.22 58.0738 1507.67 62.7728 Q1511.15 67.4314 1517.19 67.4314 Q1523.14 67.4314 1526.63 62.7323 Q1530.11 58.0333 1530.11 49.9314 Q1530.11 41.8701 1526.63 37.1711 Q1523.14 32.4315 1517.19 32.4315 M1517.19 26.1121 Q1526.91 26.1121 1532.46 32.4315 Q1538.01 38.7509 1538.01 49.9314 Q1538.01 61.0714 1532.46 67.4314 Q1526.91 73.7508 1517.19 73.7508 Q1507.42 73.7508 1501.87 67.4314 Q1496.36 61.0714 1496.36 49.9314 Q1496.36 38.7509 1501.87 32.4315 Q1507.42 26.1121 1517.19 26.1121 Z" fill="#000000" fill-rule="nonzero" fill-opacity="1" /><path clip-path="url(#clip600)" d="M1588.08 45.1919 L1588.08 72.576 L1580.62 72.576 L1580.62 45.4349 Q1580.62 38.994 1578.11 35.7938 Q1575.6 32.5936 1570.58 32.5936 Q1564.54 32.5936 1561.06 36.4419 Q1557.57 40.2903 1557.57 46.9338 L1557.57 72.576 L1550.08 72.576 L1550.08 27.2059 L1557.57 27.2059 L1557.57 34.2544 Q1560.25 30.163 1563.85 28.1376 Q1567.5 26.1121 1572.24 26.1121 Q1580.06 26.1121 1584.07 30.9732 Q1588.08 35.7938 1588.08 45.1919 Z" fill="#000000" fill-rule="nonzero" fill-opacity="1" /><path clip-path="url(#clip600)" d="M1604.85 62.2867 L1613.4 62.2867 L1613.4 72.576 L1604.85 72.576 L1604.85 62.2867 M1604.85 29.6769 L1613.4 29.6769 L1613.4 39.9662 L1604.85 39.9662 L1604.85 29.6769 Z" fill="#000000" fill-rule="nonzero" fill-opacity="1" /><path clip-path="url(#clip600)" d="M1649.21 12.096 L1700.37 12.096 L1700.37 18.9825 L1678.9 18.9825 L1678.9 72.576 L1670.68 72.576 L1670.68 18.9825 L1649.21 18.9825 L1649.21 12.096 Z" fill="#000000" fill-rule="nonzero" fill-opacity="1" /><path clip-path="url(#clip600)" d="M1705.39 27.2059 L1712.85 27.2059 L1712.85 72.576 L1705.39 72.576 L1705.39 27.2059 M1705.39 9.54393 L1712.85 9.54393 L1712.85 18.9825 L1705.39 18.9825 L1705.39 9.54393 Z" fill="#000000" fill-rule="nonzero" fill-opacity="1" /><path clip-path="url(#clip600)" d="M1767.25 48.0275 L1767.25 51.6733 L1732.98 51.6733 Q1733.46 59.3701 1737.6 63.421 Q1741.77 67.4314 1749.18 67.4314 Q1753.48 67.4314 1757.49 66.3781 Q1761.54 65.3249 1765.51 63.2184 L1765.51 70.267 Q1761.5 71.9684 1757.28 72.8596 Q1753.07 73.7508 1748.74 73.7508 Q1737.88 73.7508 1731.52 67.4314 Q1725.2 61.1119 1725.2 50.3365 Q1725.2 39.1965 1731.2 32.6746 Q1737.23 26.1121 1747.44 26.1121 Q1756.6 26.1121 1761.9 32.0264 Q1767.25 37.9003 1767.25 48.0275 M1759.8 45.84 Q1759.71 39.7232 1756.35 36.0774 Q1753.03 32.4315 1747.52 32.4315 Q1741.28 32.4315 1737.52 35.9558 Q1733.79 39.4801 1733.22 45.8805 L1759.8 45.84 Z" fill="#000000" fill-rule="nonzero" fill-opacity="1" /><path clip-path="url(#clip600)" d="M1805.77 34.1734 Q1804.52 33.4443 1803.02 33.1202 Q1801.56 32.7556 1799.78 32.7556 Q1793.46 32.7556 1790.06 36.8875 Q1786.69 40.9789 1786.69 48.6757 L1786.69 72.576 L1779.2 72.576 L1779.2 27.2059 L1786.69 27.2059 L1786.69 34.2544 Q1789.04 30.1225 1792.81 28.1376 Q1796.58 26.1121 1801.97 26.1121 Q1802.73 26.1121 1803.67 26.2337 Q1804.6 26.3147 1805.73 26.5172 L1805.77 34.1734 Z" fill="#000000" fill-rule="nonzero" fill-opacity="1" /><path clip-path="url(#clip600)" d="M1842.43 65.6895 L1855.8 65.6895 L1855.8 19.5497 L1841.26 22.4663 L1841.26 15.0127 L1855.72 12.096 L1863.9 12.096 L1863.9 65.6895 L1877.27 65.6895 L1877.27 72.576 L1842.43 72.576 L1842.43 65.6895 Z" fill="#000000" fill-rule="nonzero" fill-opacity="1" /><polyline clip-path="url(#clip602)" style="stroke:#0000ff; stroke-linecap:round; stroke-linejoin:round; stroke-width:8; stroke-opacity:1; fill:none" points="367.683,160.256 391.774,333.349 415.865,451.978 439.955,557.861 464.046,651.245 488.137,467.238 512.228,419.626 536.318,456.762 560.409,389.739 584.5,440.213 608.59,546.591 632.681,407.977 656.772,642.339 680.862,693.737 704.953,718.851 729.044,787.84 753.134,811.479 777.225,856.393 801.316,818.205 825.406,845.127 849.497,951.92 873.588,905.109 897.679,1032.3 921.769,1087.02 945.86,1182.15 969.951,1176.32 994.041,1191.65 1018.13,1287.88 1042.22,1360.48 1066.31,1374.68 1090.4,1361.6 1114.49,1370.68 1138.59,1386.4 1162.68,1365.36 1186.77,1372.51 1210.86,1363.67 1234.95,1375.53 1259.04,1309.91 1283.13,1298.92 1307.22,1273.37 1331.31,1248.29 1355.4,1220.63 1379.49,1156.07 1403.58,1170.19 1427.67,1133.49 1451.76,1139.7 1475.85,1138.93 1499.95,1118.92 1524.04,1101.38 1548.13,1074.27 1572.22,1088.7 1596.31,1090.12 1620.4,1075.37 1644.49,1022.87 1668.58,1000.97 1692.67,978.379 1716.76,973.61 1740.85,949.849 1764.94,953.56 1789.03,906.994 1813.12,891.396 1837.22,790.476 1861.31,793.654 1885.4,721.774 1909.49,710.645 1933.58,682.161 1957.67,667.59 1981.76,678.066 2005.85,691.643 2029.94,690.328 2054.03,676.043 2078.12,621.735 2102.21,611.679 2126.3,611.752 2150.39,592.331 2174.48,591.019 2198.58,577.87 2222.67,563.609 2246.76,561.6 2270.85,578.549 2294.94,594.291 "/>
<circle clip-path="url(#clip602)" cx="367.683" cy="160.256" r="14.4" fill="#008000" fill-rule="evenodd" fill-opacity="1" stroke="#000000" stroke-opacity="1" stroke-width="3.2"/>
<circle clip-path="url(#clip602)" cx="391.774" cy="333.349" r="14.4" fill="#008000" fill-rule="evenodd" fill-opacity="1" stroke="#000000" stroke-opacity="1" stroke-width="3.2"/>
<circle clip-path="url(#clip602)" cx="415.865" cy="451.978" r="14.4" fill="#008000" fill-rule="evenodd" fill-opacity="1" stroke="#000000" stroke-opacity="1" stroke-width="3.2"/>
<circle clip-path="url(#clip602)" cx="439.955" cy="557.861" r="14.4" fill="#008000" fill-rule="evenodd" fill-opacity="1" stroke="#000000" stroke-opacity="1" stroke-width="3.2"/>
<circle clip-path="url(#clip602)" cx="464.046" cy="651.245" r="14.4" fill="#008000" fill-rule="evenodd" fill-opacity="1" stroke="#000000" stroke-opacity="1" stroke-width="3.2"/>
<circle clip-path="url(#clip602)" cx="488.137" cy="467.238" r="14.4" fill="#008000" fill-rule="evenodd" fill-opacity="1" stroke="#000000" stroke-opacity="1" stroke-width="3.2"/>
<circle clip-path="url(#clip602)" cx="512.228" cy="419.626" r="14.4" fill="#008000" fill-rule="evenodd" fill-opacity="1" stroke="#000000" stroke-opacity="1" stroke-width="3.2"/>
<circle clip-path="url(#clip602)" cx="536.318" cy="456.762" r="14.4" fill="#008000" fill-rule="evenodd" fill-opacity="1" stroke="#000000" stroke-opacity="1" stroke-width="3.2"/>
<circle clip-path="url(#clip602)" cx="560.409" cy="389.739" r="14.4" fill="#008000" fill-rule="evenodd" fill-opacity="1" stroke="#000000" stroke-opacity="1" stroke-width="3.2"/>
<circle clip-path="url(#clip602)" cx="584.5" cy="440.213" r="14.4" fill="#008000" fill-rule="evenodd" fill-opacity="1" stroke="#000000" stroke-opacity="1" stroke-width="3.2"/>
<circle clip-path="url(#clip602)" cx="608.59" cy="546.591" r="14.4" fill="#008000" fill-rule="evenodd" fill-opacity="1" stroke="#000000" stroke-opacity="1" stroke-width="3.2"/>
<circle clip-path="url(#clip602)" cx="632.681" cy="407.977" r="14.4" fill="#008000" fill-rule="evenodd" fill-opacity="1" stroke="#000000" stroke-opacity="1" stroke-width="3.2"/>
<circle clip-path="url(#clip602)" cx="656.772" cy="642.339" r="14.4" fill="#008000" fill-rule="evenodd" fill-opacity="1" stroke="#000000" stroke-opacity="1" stroke-width="3.2"/>
<circle clip-path="url(#clip602)" cx="680.862" cy="693.737" r="14.4" fill="#008000" fill-rule="evenodd" fill-opacity="1" stroke="#000000" stroke-opacity="1" stroke-width="3.2"/>
<circle clip-path="url(#clip602)" cx="704.953" cy="718.851" r="14.4" fill="#008000" fill-rule="evenodd" fill-opacity="1" stroke="#000000" stroke-opacity="1" stroke-width="3.2"/>
<circle clip-path="url(#clip602)" cx="729.044" cy="787.84" r="14.4" fill="#008000" fill-rule="evenodd" fill-opacity="1" stroke="#000000" stroke-opacity="1" stroke-width="3.2"/>
<circle clip-path="url(#clip602)" cx="753.134" cy="811.479" r="14.4" fill="#008000" fill-rule="evenodd" fill-opacity="1" stroke="#000000" stroke-opacity="1" stroke-width="3.2"/>
<circle clip-path="url(#clip602)" cx="777.225" cy="856.393" r="14.4" fill="#008000" fill-rule="evenodd" fill-opacity="1" stroke="#000000" stroke-opacity="1" stroke-width="3.2"/>
<circle clip-path="url(#clip602)" cx="801.316" cy="818.205" r="14.4" fill="#008000" fill-rule="evenodd" fill-opacity="1" stroke="#000000" stroke-opacity="1" stroke-width="3.2"/>
<circle clip-path="url(#clip602)" cx="825.406" cy="845.127" r="14.4" fill="#008000" fill-rule="evenodd" fill-opacity="1" stroke="#000000" stroke-opacity="1" stroke-width="3.2"/>
<circle clip-path="url(#clip602)" cx="849.497" cy="951.92" r="14.4" fill="#008000" fill-rule="evenodd" fill-opacity="1" stroke="#000000" stroke-opacity="1" stroke-width="3.2"/>
<circle clip-path="url(#clip602)" cx="873.588" cy="905.109" r="14.4" fill="#008000" fill-rule="evenodd" fill-opacity="1" stroke="#000000" stroke-opacity="1" stroke-width="3.2"/>
<circle clip-path="url(#clip602)" cx="897.679" cy="1032.3" r="14.4" fill="#008000" fill-rule="evenodd" fill-opacity="1" stroke="#000000" stroke-opacity="1" stroke-width="3.2"/>
<circle clip-path="url(#clip602)" cx="921.769" cy="1087.02" r="14.4" fill="#008000" fill-rule="evenodd" fill-opacity="1" stroke="#000000" stroke-opacity="1" stroke-width="3.2"/>
<circle clip-path="url(#clip602)" cx="945.86" cy="1182.15" r="14.4" fill="#008000" fill-rule="evenodd" fill-opacity="1" stroke="#000000" stroke-opacity="1" stroke-width="3.2"/>
<circle clip-path="url(#clip602)" cx="969.951" cy="1176.32" r="14.4" fill="#008000" fill-rule="evenodd" fill-opacity="1" stroke="#000000" stroke-opacity="1" stroke-width="3.2"/>
<circle clip-path="url(#clip602)" cx="994.041" cy="1191.65" r="14.4" fill="#008000" fill-rule="evenodd" fill-opacity="1" stroke="#000000" stroke-opacity="1" stroke-width="3.2"/>
<circle clip-path="url(#clip602)" cx="1018.13" cy="1287.88" r="14.4" fill="#008000" fill-rule="evenodd" fill-opacity="1" stroke="#000000" stroke-opacity="1" stroke-width="3.2"/>
<circle clip-path="url(#clip602)" cx="1042.22" cy="1360.48" r="14.4" fill="#008000" fill-rule="evenodd" fill-opacity="1" stroke="#000000" stroke-opacity="1" stroke-width="3.2"/>
<circle clip-path="url(#clip602)" cx="1066.31" cy="1374.68" r="14.4" fill="#008000" fill-rule="evenodd" fill-opacity="1" stroke="#000000" stroke-opacity="1" stroke-width="3.2"/>
<circle clip-path="url(#clip602)" cx="1090.4" cy="1361.6" r="14.4" fill="#008000" fill-rule="evenodd" fill-opacity="1" stroke="#000000" stroke-opacity="1" stroke-width="3.2"/>
<circle clip-path="url(#clip602)" cx="1114.49" cy="1370.68" r="14.4" fill="#008000" fill-rule="evenodd" fill-opacity="1" stroke="#000000" stroke-opacity="1" stroke-width="3.2"/>
<circle clip-path="url(#clip602)" cx="1138.59" cy="1386.4" r="14.4" fill="#008000" fill-rule="evenodd" fill-opacity="1" stroke="#000000" stroke-opacity="1" stroke-width="3.2"/>
<circle clip-path="url(#clip602)" cx="1162.68" cy="1365.36" r="14.4" fill="#008000" fill-rule="evenodd" fill-opacity="1" stroke="#000000" stroke-opacity="1" stroke-width="3.2"/>
<circle clip-path="url(#clip602)" cx="1186.77" cy="1372.51" r="14.4" fill="#008000" fill-rule="evenodd" fill-opacity="1" stroke="#000000" stroke-opacity="1" stroke-width="3.2"/>
<circle clip-path="url(#clip602)" cx="1210.86" cy="1363.67" r="14.4" fill="#008000" fill-rule="evenodd" fill-opacity="1" stroke="#000000" stroke-opacity="1" stroke-width="3.2"/>
<circle clip-path="url(#clip602)" cx="1234.95" cy="1375.53" r="14.4" fill="#008000" fill-rule="evenodd" fill-opacity="1" stroke="#000000" stroke-opacity="1" stroke-width="3.2"/>
<circle clip-path="url(#clip602)" cx="1259.04" cy="1309.91" r="14.4" fill="#008000" fill-rule="evenodd" fill-opacity="1" stroke="#000000" stroke-opacity="1" stroke-width="3.2"/>
<circle clip-path="url(#clip602)" cx="1283.13" cy="1298.92" r="14.4" fill="#008000" fill-rule="evenodd" fill-opacity="1" stroke="#000000" stroke-opacity="1" stroke-width="3.2"/>
<circle clip-path="url(#clip602)" cx="1307.22" cy="1273.37" r="14.4" fill="#008000" fill-rule="evenodd" fill-opacity="1" stroke="#000000" stroke-opacity="1" stroke-width="3.2"/>
<circle clip-path="url(#clip602)" cx="1331.31" cy="1248.29" r="14.4" fill="#008000" fill-rule="evenodd" fill-opacity="1" stroke="#000000" stroke-opacity="1" stroke-width="3.2"/>
<circle clip-path="url(#clip602)" cx="1355.4" cy="1220.63" r="14.4" fill="#008000" fill-rule="evenodd" fill-opacity="1" stroke="#000000" stroke-opacity="1" stroke-width="3.2"/>
<circle clip-path="url(#clip602)" cx="1379.49" cy="1156.07" r="14.4" fill="#008000" fill-rule="evenodd" fill-opacity="1" stroke="#000000" stroke-opacity="1" stroke-width="3.2"/>
<circle clip-path="url(#clip602)" cx="1403.58" cy="1170.19" r="14.4" fill="#008000" fill-rule="evenodd" fill-opacity="1" stroke="#000000" stroke-opacity="1" stroke-width="3.2"/>
<circle clip-path="url(#clip602)" cx="1427.67" cy="1133.49" r="14.4" fill="#008000" fill-rule="evenodd" fill-opacity="1" stroke="#000000" stroke-opacity="1" stroke-width="3.2"/>
<circle clip-path="url(#clip602)" cx="1451.76" cy="1139.7" r="14.4" fill="#008000" fill-rule="evenodd" fill-opacity="1" stroke="#000000" stroke-opacity="1" stroke-width="3.2"/>
<circle clip-path="url(#clip602)" cx="1475.85" cy="1138.93" r="14.4" fill="#008000" fill-rule="evenodd" fill-opacity="1" stroke="#000000" stroke-opacity="1" stroke-width="3.2"/>
<circle clip-path="url(#clip602)" cx="1499.95" cy="1118.92" r="14.4" fill="#008000" fill-rule="evenodd" fill-opacity="1" stroke="#000000" stroke-opacity="1" stroke-width="3.2"/>
<circle clip-path="url(#clip602)" cx="1524.04" cy="1101.38" r="14.4" fill="#008000" fill-rule="evenodd" fill-opacity="1" stroke="#000000" stroke-opacity="1" stroke-width="3.2"/>
<circle clip-path="url(#clip602)" cx="1548.13" cy="1074.27" r="14.4" fill="#008000" fill-rule="evenodd" fill-opacity="1" stroke="#000000" stroke-opacity="1" stroke-width="3.2"/>
<circle clip-path="url(#clip602)" cx="1572.22" cy="1088.7" r="14.4" fill="#008000" fill-rule="evenodd" fill-opacity="1" stroke="#000000" stroke-opacity="1" stroke-width="3.2"/>
<circle clip-path="url(#clip602)" cx="1596.31" cy="1090.12" r="14.4" fill="#008000" fill-rule="evenodd" fill-opacity="1" stroke="#000000" stroke-opacity="1" stroke-width="3.2"/>
<circle clip-path="url(#clip602)" cx="1620.4" cy="1075.37" r="14.4" fill="#008000" fill-rule="evenodd" fill-opacity="1" stroke="#000000" stroke-opacity="1" stroke-width="3.2"/>
<circle clip-path="url(#clip602)" cx="1644.49" cy="1022.87" r="14.4" fill="#008000" fill-rule="evenodd" fill-opacity="1" stroke="#000000" stroke-opacity="1" stroke-width="3.2"/>
<circle clip-path="url(#clip602)" cx="1668.58" cy="1000.97" r="14.4" fill="#008000" fill-rule="evenodd" fill-opacity="1" stroke="#000000" stroke-opacity="1" stroke-width="3.2"/>
<circle clip-path="url(#clip602)" cx="1692.67" cy="978.379" r="14.4" fill="#008000" fill-rule="evenodd" fill-opacity="1" stroke="#000000" stroke-opacity="1" stroke-width="3.2"/>
<circle clip-path="url(#clip602)" cx="1716.76" cy="973.61" r="14.4" fill="#008000" fill-rule="evenodd" fill-opacity="1" stroke="#000000" stroke-opacity="1" stroke-width="3.2"/>
<circle clip-path="url(#clip602)" cx="1740.85" cy="949.849" r="14.4" fill="#008000" fill-rule="evenodd" fill-opacity="1" stroke="#000000" stroke-opacity="1" stroke-width="3.2"/>
<circle clip-path="url(#clip602)" cx="1764.94" cy="953.56" r="14.4" fill="#008000" fill-rule="evenodd" fill-opacity="1" stroke="#000000" stroke-opacity="1" stroke-width="3.2"/>
<circle clip-path="url(#clip602)" cx="1789.03" cy="906.994" r="14.4" fill="#008000" fill-rule="evenodd" fill-opacity="1" stroke="#000000" stroke-opacity="1" stroke-width="3.2"/>
<circle clip-path="url(#clip602)" cx="1813.12" cy="891.396" r="14.4" fill="#008000" fill-rule="evenodd" fill-opacity="1" stroke="#000000" stroke-opacity="1" stroke-width="3.2"/>
<circle clip-path="url(#clip602)" cx="1837.22" cy="790.476" r="14.4" fill="#008000" fill-rule="evenodd" fill-opacity="1" stroke="#000000" stroke-opacity="1" stroke-width="3.2"/>
<circle clip-path="url(#clip602)" cx="1861.31" cy="793.654" r="14.4" fill="#008000" fill-rule="evenodd" fill-opacity="1" stroke="#000000" stroke-opacity="1" stroke-width="3.2"/>
<circle clip-path="url(#clip602)" cx="1885.4" cy="721.774" r="14.4" fill="#008000" fill-rule="evenodd" fill-opacity="1" stroke="#000000" stroke-opacity="1" stroke-width="3.2"/>
<circle clip-path="url(#clip602)" cx="1909.49" cy="710.645" r="14.4" fill="#008000" fill-rule="evenodd" fill-opacity="1" stroke="#000000" stroke-opacity="1" stroke-width="3.2"/>
<circle clip-path="url(#clip602)" cx="1933.58" cy="682.161" r="14.4" fill="#008000" fill-rule="evenodd" fill-opacity="1" stroke="#000000" stroke-opacity="1" stroke-width="3.2"/>
<circle clip-path="url(#clip602)" cx="1957.67" cy="667.59" r="14.4" fill="#008000" fill-rule="evenodd" fill-opacity="1" stroke="#000000" stroke-opacity="1" stroke-width="3.2"/>
<circle clip-path="url(#clip602)" cx="1981.76" cy="678.066" r="14.4" fill="#008000" fill-rule="evenodd" fill-opacity="1" stroke="#000000" stroke-opacity="1" stroke-width="3.2"/>
<circle clip-path="url(#clip602)" cx="2005.85" cy="691.643" r="14.4" fill="#008000" fill-rule="evenodd" fill-opacity="1" stroke="#000000" stroke-opacity="1" stroke-width="3.2"/>
<circle clip-path="url(#clip602)" cx="2029.94" cy="690.328" r="14.4" fill="#008000" fill-rule="evenodd" fill-opacity="1" stroke="#000000" stroke-opacity="1" stroke-width="3.2"/>
<circle clip-path="url(#clip602)" cx="2054.03" cy="676.043" r="14.4" fill="#008000" fill-rule="evenodd" fill-opacity="1" stroke="#000000" stroke-opacity="1" stroke-width="3.2"/>
<circle clip-path="url(#clip602)" cx="2078.12" cy="621.735" r="14.4" fill="#008000" fill-rule="evenodd" fill-opacity="1" stroke="#000000" stroke-opacity="1" stroke-width="3.2"/>
<circle clip-path="url(#clip602)" cx="2102.21" cy="611.679" r="14.4" fill="#008000" fill-rule="evenodd" fill-opacity="1" stroke="#000000" stroke-opacity="1" stroke-width="3.2"/>
<circle clip-path="url(#clip602)" cx="2126.3" cy="611.752" r="14.4" fill="#008000" fill-rule="evenodd" fill-opacity="1" stroke="#000000" stroke-opacity="1" stroke-width="3.2"/>
<circle clip-path="url(#clip602)" cx="2150.39" cy="592.331" r="14.4" fill="#008000" fill-rule="evenodd" fill-opacity="1" stroke="#000000" stroke-opacity="1" stroke-width="3.2"/>
<circle clip-path="url(#clip602)" cx="2174.48" cy="591.019" r="14.4" fill="#008000" fill-rule="evenodd" fill-opacity="1" stroke="#000000" stroke-opacity="1" stroke-width="3.2"/>
<circle clip-path="url(#clip602)" cx="2198.58" cy="577.87" r="14.4" fill="#008000" fill-rule="evenodd" fill-opacity="1" stroke="#000000" stroke-opacity="1" stroke-width="3.2"/>
<circle clip-path="url(#clip602)" cx="2222.67" cy="563.609" r="14.4" fill="#008000" fill-rule="evenodd" fill-opacity="1" stroke="#000000" stroke-opacity="1" stroke-width="3.2"/>
<circle clip-path="url(#clip602)" cx="2246.76" cy="561.6" r="14.4" fill="#008000" fill-rule="evenodd" fill-opacity="1" stroke="#000000" stroke-opacity="1" stroke-width="3.2"/>
<circle clip-path="url(#clip602)" cx="2270.85" cy="578.549" r="14.4" fill="#008000" fill-rule="evenodd" fill-opacity="1" stroke="#000000" stroke-opacity="1" stroke-width="3.2"/>
<circle clip-path="url(#clip602)" cx="2294.94" cy="594.291" r="14.4" fill="#008000" fill-rule="evenodd" fill-opacity="1" stroke="#000000" stroke-opacity="1" stroke-width="3.2"/>
<path clip-path="url(#clip600)" d="M1647.34 322.316 L2284.66 322.316 L2284.66 166.796 L1647.34 166.796  Z" fill="#ffffff" fill-rule="evenodd" fill-opacity="1"/>
<polyline clip-path="url(#clip600)" style="stroke:#000000; stroke-linecap:round; stroke-linejoin:round; stroke-width:4; stroke-opacity:1; fill:none" points="1647.34,322.316 2284.66,322.316 2284.66,166.796 1647.34,166.796 1647.34,322.316 "/>
<polyline clip-path="url(#clip600)" style="stroke:#0000ff; stroke-linecap:round; stroke-linejoin:round; stroke-width:8; stroke-opacity:1; fill:none" points="1670.04,218.636 1806.23,218.636 "/>
<path clip-path="url(#clip600)" d="M1828.93 201.356 L1850.78 201.356 L1850.78 205.291 L1833.61 205.291 L1833.61 215.522 L1850.06 215.522 L1850.06 219.457 L1833.61 219.457 L1833.61 231.981 L1851.2 231.981 L1851.2 235.916 L1828.93 235.916 L1828.93 201.356 Z" fill="#000000" fill-rule="nonzero" fill-opacity="1" /><path clip-path="url(#clip600)" d="M1878.88 214.967 Q1880.48 212.096 1882.7 210.731 Q1884.93 209.365 1887.94 209.365 Q1891.99 209.365 1894.18 212.212 Q1896.38 215.036 1896.38 220.268 L1896.38 235.916 L1892.1 235.916 L1892.1 220.407 Q1892.1 216.68 1890.78 214.874 Q1889.46 213.069 1886.75 213.069 Q1883.44 213.069 1881.52 215.268 Q1879.6 217.467 1879.6 221.263 L1879.6 235.916 L1875.32 235.916 L1875.32 220.407 Q1875.32 216.657 1874 214.874 Q1872.68 213.069 1869.93 213.069 Q1866.66 213.069 1864.74 215.291 Q1862.82 217.49 1862.82 221.263 L1862.82 235.916 L1858.54 235.916 L1858.54 209.99 L1862.82 209.99 L1862.82 214.018 Q1864.28 211.633 1866.31 210.499 Q1868.35 209.365 1871.15 209.365 Q1873.98 209.365 1875.94 210.8 Q1877.94 212.235 1878.88 214.967 Z" fill="#000000" fill-rule="nonzero" fill-opacity="1" /><path clip-path="url(#clip600)" d="M1909 232.027 L1909 245.777 L1904.72 245.777 L1904.72 209.99 L1909 209.99 L1909 213.925 Q1910.34 211.61 1912.38 210.499 Q1914.44 209.365 1917.29 209.365 Q1922.01 209.365 1924.95 213.115 Q1927.91 216.865 1927.91 222.976 Q1927.91 229.087 1924.95 232.837 Q1922.01 236.587 1917.29 236.587 Q1914.44 236.587 1912.38 235.476 Q1910.34 234.342 1909 232.027 M1923.49 222.976 Q1923.49 218.277 1921.55 215.615 Q1919.62 212.93 1916.25 212.93 Q1912.87 212.93 1910.92 215.615 Q1909 218.277 1909 222.976 Q1909 227.675 1910.92 230.36 Q1912.87 233.022 1916.25 233.022 Q1919.62 233.022 1921.55 230.36 Q1923.49 227.675 1923.49 222.976 Z" fill="#000000" fill-rule="nonzero" fill-opacity="1" /><path clip-path="url(#clip600)" d="M1934.97 209.99 L1939.23 209.99 L1939.23 235.916 L1934.97 235.916 L1934.97 209.99 M1934.97 199.897 L1939.23 199.897 L1939.23 205.291 L1934.97 205.291 L1934.97 199.897 Z" fill="#000000" fill-rule="nonzero" fill-opacity="1" /><path clip-path="url(#clip600)" d="M1963.17 213.971 Q1962.45 213.555 1961.59 213.37 Q1960.76 213.161 1959.74 213.161 Q1956.13 213.161 1954.18 215.522 Q1952.26 217.86 1952.26 222.258 L1952.26 235.916 L1947.98 235.916 L1947.98 209.99 L1952.26 209.99 L1952.26 214.018 Q1953.61 211.657 1955.76 210.522 Q1957.91 209.365 1960.99 209.365 Q1961.43 209.365 1961.96 209.434 Q1962.49 209.481 1963.14 209.596 L1963.17 213.971 Z" fill="#000000" fill-rule="nonzero" fill-opacity="1" /><path clip-path="url(#clip600)" d="M1967.63 209.99 L1971.89 209.99 L1971.89 235.916 L1967.63 235.916 L1967.63 209.99 M1967.63 199.897 L1971.89 199.897 L1971.89 205.291 L1967.63 205.291 L1967.63 199.897 Z" fill="#000000" fill-rule="nonzero" fill-opacity="1" /><path clip-path="url(#clip600)" d="M1999.46 210.985 L1999.46 214.967 Q1997.66 213.971 1995.83 213.485 Q1994.02 212.976 1992.17 212.976 Q1988.03 212.976 1985.74 215.615 Q1983.44 218.231 1983.44 222.976 Q1983.44 227.721 1985.74 230.36 Q1988.03 232.976 1992.17 232.976 Q1994.02 232.976 1995.83 232.49 Q1997.66 231.981 1999.46 230.985 L1999.46 234.92 Q1997.68 235.754 1995.76 236.17 Q1993.86 236.587 1991.71 236.587 Q1985.85 236.587 1982.4 232.906 Q1978.95 229.226 1978.95 222.976 Q1978.95 216.633 1982.43 212.999 Q1985.92 209.365 1991.99 209.365 Q1993.95 209.365 1995.83 209.782 Q1997.7 210.175 1999.46 210.985 Z" fill="#000000" fill-rule="nonzero" fill-opacity="1" /><path clip-path="url(#clip600)" d="M2018.65 222.883 Q2013.49 222.883 2011.5 224.064 Q2009.51 225.244 2009.51 228.092 Q2009.51 230.36 2010.99 231.703 Q2012.49 233.022 2015.06 233.022 Q2018.61 233.022 2020.74 230.522 Q2022.89 227.999 2022.89 223.832 L2022.89 222.883 L2018.65 222.883 M2027.15 221.124 L2027.15 235.916 L2022.89 235.916 L2022.89 231.981 Q2021.43 234.342 2019.25 235.476 Q2017.08 236.587 2013.93 236.587 Q2009.95 236.587 2007.59 234.365 Q2005.25 232.119 2005.25 228.369 Q2005.25 223.994 2008.17 221.772 Q2011.11 219.55 2016.92 219.55 L2022.89 219.55 L2022.89 219.133 Q2022.89 216.194 2020.94 214.596 Q2019.02 212.976 2015.53 212.976 Q2013.3 212.976 2011.2 213.508 Q2009.09 214.041 2007.15 215.106 L2007.15 211.17 Q2009.49 210.268 2011.68 209.828 Q2013.88 209.365 2015.97 209.365 Q2021.59 209.365 2024.37 212.282 Q2027.15 215.198 2027.15 221.124 Z" fill="#000000" fill-rule="nonzero" fill-opacity="1" /><path clip-path="url(#clip600)" d="M2035.92 199.897 L2040.18 199.897 L2040.18 235.916 L2035.92 235.916 L2035.92 199.897 Z" fill="#000000" fill-rule="nonzero" fill-opacity="1" /><path clip-path="url(#clip600)" d="M2073.26 235.916 L2060.06 201.356 L2064.95 201.356 L2075.9 230.453 L2086.87 201.356 L2091.73 201.356 L2078.56 235.916 L2073.26 235.916 Z" fill="#000000" fill-rule="nonzero" fill-opacity="1" /><path clip-path="url(#clip600)" d="M2104.69 222.883 Q2099.53 222.883 2097.54 224.064 Q2095.55 225.244 2095.55 228.092 Q2095.55 230.36 2097.03 231.703 Q2098.54 233.022 2101.11 233.022 Q2104.65 233.022 2106.78 230.522 Q2108.93 227.999 2108.93 223.832 L2108.93 222.883 L2104.69 222.883 M2113.19 221.124 L2113.19 235.916 L2108.93 235.916 L2108.93 231.981 Q2107.47 234.342 2105.29 235.476 Q2103.12 236.587 2099.97 236.587 Q2095.99 236.587 2093.63 234.365 Q2091.29 232.119 2091.29 228.369 Q2091.29 223.994 2094.21 221.772 Q2097.15 219.55 2102.96 219.55 L2108.93 219.55 L2108.93 219.133 Q2108.93 216.194 2106.98 214.596 Q2105.06 212.976 2101.57 212.976 Q2099.35 212.976 2097.24 213.508 Q2095.13 214.041 2093.19 215.106 L2093.19 211.17 Q2095.53 210.268 2097.73 209.828 Q2099.92 209.365 2102.01 209.365 Q2107.63 209.365 2110.41 212.282 Q2113.19 215.198 2113.19 221.124 Z" fill="#000000" fill-rule="nonzero" fill-opacity="1" /><path clip-path="url(#clip600)" d="M2136.98 213.971 Q2136.27 213.555 2135.41 213.37 Q2134.58 213.161 2133.56 213.161 Q2129.95 213.161 2128 215.522 Q2126.08 217.86 2126.08 222.258 L2126.08 235.916 L2121.8 235.916 L2121.8 209.99 L2126.08 209.99 L2126.08 214.018 Q2127.42 211.657 2129.58 210.522 Q2131.73 209.365 2134.81 209.365 Q2135.25 209.365 2135.78 209.434 Q2136.31 209.481 2136.96 209.596 L2136.98 213.971 Z" fill="#000000" fill-rule="nonzero" fill-opacity="1" /><path clip-path="url(#clip600)" d="M2141.45 209.99 L2145.71 209.99 L2145.71 235.916 L2141.45 235.916 L2141.45 209.99 M2141.45 199.897 L2145.71 199.897 L2145.71 205.291 L2141.45 205.291 L2141.45 199.897 Z" fill="#000000" fill-rule="nonzero" fill-opacity="1" /><path clip-path="url(#clip600)" d="M2166.41 222.883 Q2161.24 222.883 2159.25 224.064 Q2157.26 225.244 2157.26 228.092 Q2157.26 230.36 2158.74 231.703 Q2160.25 233.022 2162.82 233.022 Q2166.36 233.022 2168.49 230.522 Q2170.64 227.999 2170.64 223.832 L2170.64 222.883 L2166.41 222.883 M2174.9 221.124 L2174.9 235.916 L2170.64 235.916 L2170.64 231.981 Q2169.18 234.342 2167.01 235.476 Q2164.83 236.587 2161.68 236.587 Q2157.7 236.587 2155.34 234.365 Q2153 232.119 2153 228.369 Q2153 223.994 2155.92 221.772 Q2158.86 219.55 2164.67 219.55 L2170.64 219.55 L2170.64 219.133 Q2170.64 216.194 2168.7 214.596 Q2166.78 212.976 2163.28 212.976 Q2161.06 212.976 2158.95 213.508 Q2156.85 214.041 2154.9 215.106 L2154.9 211.17 Q2157.24 210.268 2159.44 209.828 Q2161.64 209.365 2163.72 209.365 Q2169.35 209.365 2172.12 212.282 Q2174.9 215.198 2174.9 221.124 Z" fill="#000000" fill-rule="nonzero" fill-opacity="1" /><path clip-path="url(#clip600)" d="M2205.22 220.268 L2205.22 235.916 L2200.97 235.916 L2200.97 220.407 Q2200.97 216.726 2199.53 214.897 Q2198.1 213.069 2195.23 213.069 Q2191.78 213.069 2189.79 215.268 Q2187.79 217.467 2187.79 221.263 L2187.79 235.916 L2183.51 235.916 L2183.51 209.99 L2187.79 209.99 L2187.79 214.018 Q2189.32 211.68 2191.38 210.522 Q2193.47 209.365 2196.17 209.365 Q2200.64 209.365 2202.93 212.143 Q2205.22 214.897 2205.22 220.268 Z" fill="#000000" fill-rule="nonzero" fill-opacity="1" /><path clip-path="url(#clip600)" d="M2232.38 210.985 L2232.38 214.967 Q2230.57 213.971 2228.74 213.485 Q2226.94 212.976 2225.09 212.976 Q2220.94 212.976 2218.65 215.615 Q2216.36 218.231 2216.36 222.976 Q2216.36 227.721 2218.65 230.36 Q2220.94 232.976 2225.09 232.976 Q2226.94 232.976 2228.74 232.49 Q2230.57 231.981 2232.38 230.985 L2232.38 234.92 Q2230.6 235.754 2228.67 236.17 Q2226.78 236.587 2224.62 236.587 Q2218.77 236.587 2215.32 232.906 Q2211.87 229.226 2211.87 222.976 Q2211.87 216.633 2215.34 212.999 Q2218.84 209.365 2224.9 209.365 Q2226.87 209.365 2228.74 209.782 Q2230.62 210.175 2232.38 210.985 Z" fill="#000000" fill-rule="nonzero" fill-opacity="1" /><path clip-path="url(#clip600)" d="M2261.96 221.888 L2261.96 223.971 L2242.38 223.971 Q2242.66 228.369 2245.02 230.684 Q2247.4 232.976 2251.64 232.976 Q2254.09 232.976 2256.38 232.374 Q2258.7 231.772 2260.97 230.569 L2260.97 234.596 Q2258.67 235.568 2256.27 236.078 Q2253.86 236.587 2251.38 236.587 Q2245.18 236.587 2241.54 232.976 Q2237.93 229.365 2237.93 223.207 Q2237.93 216.842 2241.36 213.115 Q2244.81 209.365 2250.64 209.365 Q2255.87 209.365 2258.91 212.745 Q2261.96 216.101 2261.96 221.888 M2257.7 220.638 Q2257.66 217.143 2255.73 215.059 Q2253.84 212.976 2250.69 212.976 Q2247.12 212.976 2244.97 214.99 Q2242.84 217.004 2242.52 220.661 L2257.7 220.638 Z" fill="#000000" fill-rule="nonzero" fill-opacity="1" /><circle clip-path="url(#clip600)" cx="1738.14" cy="270.476" r="20.48" fill="#008000" fill-rule="evenodd" fill-opacity="1" stroke="#000000" stroke-opacity="1" stroke-width="4.55111"/>
<path clip-path="url(#clip600)" d="M1856.8 255.858 L1856.8 260.788 Q1854.44 258.589 1851.75 257.501 Q1849.09 256.413 1846.08 256.413 Q1840.16 256.413 1837.01 260.048 Q1833.86 263.659 1833.86 270.51 Q1833.86 277.339 1837.01 280.973 Q1840.16 284.584 1846.08 284.584 Q1849.09 284.584 1851.75 283.496 Q1854.44 282.409 1856.8 280.209 L1856.8 285.094 Q1854.35 286.76 1851.59 287.594 Q1848.86 288.427 1845.81 288.427 Q1837.96 288.427 1833.44 283.635 Q1828.93 278.821 1828.93 270.51 Q1828.93 262.177 1833.44 257.386 Q1837.96 252.571 1845.81 252.571 Q1848.91 252.571 1851.64 253.404 Q1854.39 254.214 1856.8 255.858 Z" fill="#000000" fill-rule="nonzero" fill-opacity="1" /><path clip-path="url(#clip600)" d="M1873.88 264.816 Q1870.46 264.816 1868.47 267.501 Q1866.48 270.163 1866.48 274.816 Q1866.48 279.469 1868.44 282.154 Q1870.44 284.816 1873.88 284.816 Q1877.29 284.816 1879.28 282.131 Q1881.27 279.446 1881.27 274.816 Q1881.27 270.21 1879.28 267.524 Q1877.29 264.816 1873.88 264.816 M1873.88 261.205 Q1879.44 261.205 1882.61 264.816 Q1885.78 268.427 1885.78 274.816 Q1885.78 281.182 1882.61 284.816 Q1879.44 288.427 1873.88 288.427 Q1868.31 288.427 1865.13 284.816 Q1861.99 281.182 1861.99 274.816 Q1861.99 268.427 1865.13 264.816 Q1868.31 261.205 1873.88 261.205 Z" fill="#000000" fill-rule="nonzero" fill-opacity="1" /><path clip-path="url(#clip600)" d="M1914.39 272.108 L1914.39 287.756 L1910.13 287.756 L1910.13 272.247 Q1910.13 268.566 1908.7 266.737 Q1907.26 264.909 1904.39 264.909 Q1900.94 264.909 1898.95 267.108 Q1896.96 269.307 1896.96 273.103 L1896.96 287.756 L1892.68 287.756 L1892.68 261.83 L1896.96 261.83 L1896.96 265.858 Q1898.49 263.52 1900.55 262.362 Q1902.63 261.205 1905.34 261.205 Q1909.81 261.205 1912.1 263.983 Q1914.39 266.737 1914.39 272.108 Z" fill="#000000" fill-rule="nonzero" fill-opacity="1" /><path clip-path="url(#clip600)" d="M1919.83 261.83 L1924.35 261.83 L1932.45 283.589 L1940.55 261.83 L1945.06 261.83 L1935.34 287.756 L1929.56 287.756 L1919.83 261.83 Z" fill="#000000" fill-rule="nonzero" fill-opacity="1" /><path clip-path="url(#clip600)" d="M1973.12 273.728 L1973.12 275.811 L1953.54 275.811 Q1953.81 280.209 1956.18 282.524 Q1958.56 284.816 1962.8 284.816 Q1965.25 284.816 1967.54 284.214 Q1969.86 283.612 1972.12 282.409 L1972.12 286.436 Q1969.83 287.408 1967.43 287.918 Q1965.02 288.427 1962.54 288.427 Q1956.34 288.427 1952.7 284.816 Q1949.09 281.205 1949.09 275.047 Q1949.09 268.682 1952.52 264.955 Q1955.97 261.205 1961.8 261.205 Q1967.03 261.205 1970.06 264.585 Q1973.12 267.941 1973.12 273.728 M1968.86 272.478 Q1968.81 268.983 1966.89 266.899 Q1964.99 264.816 1961.85 264.816 Q1958.28 264.816 1956.13 266.83 Q1954 268.844 1953.68 272.501 L1968.86 272.478 Z" fill="#000000" fill-rule="nonzero" fill-opacity="1" /><path clip-path="url(#clip600)" d="M1995.13 265.811 Q1994.42 265.395 1993.56 265.21 Q1992.73 265.001 1991.71 265.001 Q1988.1 265.001 1986.15 267.362 Q1984.23 269.7 1984.23 274.098 L1984.23 287.756 L1979.95 287.756 L1979.95 261.83 L1984.23 261.83 L1984.23 265.858 Q1985.57 263.497 1987.73 262.362 Q1989.88 261.205 1992.96 261.205 Q1993.4 261.205 1993.93 261.274 Q1994.46 261.321 1995.11 261.436 L1995.13 265.811 Z" fill="#000000" fill-rule="nonzero" fill-opacity="1" /><path clip-path="url(#clip600)" d="M2015.83 274.492 Q2015.83 269.862 2013.91 267.316 Q2012.01 264.77 2008.56 264.77 Q2005.13 264.77 2003.21 267.316 Q2001.31 269.862 2001.31 274.492 Q2001.31 279.098 2003.21 281.645 Q2005.13 284.191 2008.56 284.191 Q2012.01 284.191 2013.91 281.645 Q2015.83 279.098 2015.83 274.492 M2020.09 284.538 Q2020.09 291.158 2017.15 294.376 Q2014.21 297.617 2008.14 297.617 Q2005.9 297.617 2003.91 297.27 Q2001.92 296.945 2000.04 296.251 L2000.04 292.108 Q2001.92 293.126 2003.74 293.612 Q2005.57 294.098 2007.47 294.098 Q2011.66 294.098 2013.74 291.899 Q2015.83 289.723 2015.83 285.302 L2015.83 283.196 Q2014.51 285.487 2012.45 286.621 Q2010.39 287.756 2007.52 287.756 Q2002.75 287.756 1999.83 284.121 Q1996.92 280.487 1996.92 274.492 Q1996.92 268.473 1999.83 264.839 Q2002.75 261.205 2007.52 261.205 Q2010.39 261.205 2012.45 262.339 Q2014.51 263.473 2015.83 265.765 L2015.83 261.83 L2020.09 261.83 L2020.09 284.538 Z" fill="#000000" fill-rule="nonzero" fill-opacity="1" /><path clip-path="url(#clip600)" d="M2051.04 273.728 L2051.04 275.811 L2031.45 275.811 Q2031.73 280.209 2034.09 282.524 Q2036.48 284.816 2040.71 284.816 Q2043.17 284.816 2045.46 284.214 Q2047.77 283.612 2050.04 282.409 L2050.04 286.436 Q2047.75 287.408 2045.34 287.918 Q2042.93 288.427 2040.46 288.427 Q2034.25 288.427 2030.62 284.816 Q2027.01 281.205 2027.01 275.047 Q2027.01 268.682 2030.43 264.955 Q2033.88 261.205 2039.72 261.205 Q2044.95 261.205 2047.98 264.585 Q2051.04 267.941 2051.04 273.728 M2046.78 272.478 Q2046.73 268.983 2044.81 266.899 Q2042.91 264.816 2039.76 264.816 Q2036.2 264.816 2034.05 266.83 Q2031.92 268.844 2031.59 272.501 L2046.78 272.478 Z" fill="#000000" fill-rule="nonzero" fill-opacity="1" /><path clip-path="url(#clip600)" d="M2079.58 272.108 L2079.58 287.756 L2075.32 287.756 L2075.32 272.247 Q2075.32 268.566 2073.88 266.737 Q2072.45 264.909 2069.58 264.909 Q2066.13 264.909 2064.14 267.108 Q2062.15 269.307 2062.15 273.103 L2062.15 287.756 L2057.86 287.756 L2057.86 261.83 L2062.15 261.83 L2062.15 265.858 Q2063.67 263.52 2065.73 262.362 Q2067.82 261.205 2070.53 261.205 Q2074.99 261.205 2077.29 263.983 Q2079.58 266.737 2079.58 272.108 Z" fill="#000000" fill-rule="nonzero" fill-opacity="1" /><path clip-path="url(#clip600)" d="M2092.29 254.469 L2092.29 261.83 L2101.06 261.83 L2101.06 265.14 L2092.29 265.14 L2092.29 279.214 Q2092.29 282.385 2093.14 283.288 Q2094.02 284.191 2096.68 284.191 L2101.06 284.191 L2101.06 287.756 L2096.68 287.756 Q2091.75 287.756 2089.88 285.927 Q2088 284.075 2088 279.214 L2088 265.14 L2084.88 265.14 L2084.88 261.83 L2088 261.83 L2088 254.469 L2092.29 254.469 Z" fill="#000000" fill-rule="nonzero" fill-opacity="1" /></svg>
