<?xml version="1.0" encoding="utf-8"?>
<svg xmlns="http://www.w3.org/2000/svg" xmlns:xlink="http://www.w3.org/1999/xlink" width="600" height="400" viewBox="0 0 2400 1600">
<defs>
  <clipPath id="clip030">
    <rect x="0" y="0" width="2400" height="1600"/>
  </clipPath>
</defs>
<path clip-path="url(#clip030)" d="M0 1600 L2400 1600 L2400 8.88178e-14 L0 8.88178e-14  Z" fill="#ffffff" fill-rule="evenodd" fill-opacity="1"/>
<defs>
  <clipPath id="clip031">
    <rect x="302" y="123" width="2051" height="1364"/>
  </clipPath>
</defs>
<path clip-path="url(#clip030)" d="M272.297 1486.45 L2352.76 1486.45 L2352.76 123.472 L272.297 123.472  Z" fill="#ffffff" fill-rule="evenodd" fill-opacity="1"/>
<defs>
  <clipPath id="clip032">
    <rect x="272" y="123" width="2081" height="1364"/>
  </clipPath>
</defs>
<polyline clip-path="url(#clip032)" style="stroke:#000000; stroke-linecap:round; stroke-linejoin:round; stroke-width:2; stroke-opacity:0.1; fill:none" points="496.368,1486.45 496.368,123.472 "/>
<polyline clip-path="url(#clip032)" style="stroke:#000000; stroke-linecap:round; stroke-linejoin:round; stroke-width:2; stroke-opacity:0.1; fill:none" points="904.447,1486.45 904.447,123.472 "/>
<polyline clip-path="url(#clip032)" style="stroke:#000000; stroke-linecap:round; stroke-linejoin:round; stroke-width:2; stroke-opacity:0.1; fill:none" points="1312.53,1486.45 1312.53,123.472 "/>
<polyline clip-path="url(#clip032)" style="stroke:#000000; stroke-linecap:round; stroke-linejoin:round; stroke-width:2; stroke-opacity:0.1; fill:none" points="1720.61,1486.45 1720.61,123.472 "/>
<polyline clip-path="url(#clip032)" style="stroke:#000000; stroke-linecap:round; stroke-linejoin:round; stroke-width:2; stroke-opacity:0.1; fill:none" points="2128.68,1486.45 2128.68,123.472 "/>
<polyline clip-path="url(#clip032)" style="stroke:#000000; stroke-linecap:round; stroke-linejoin:round; stroke-width:2; stroke-opacity:0.1; fill:none" points="272.297,1393.08 2352.76,1393.08 "/>
<polyline clip-path="url(#clip032)" style="stroke:#000000; stroke-linecap:round; stroke-linejoin:round; stroke-width:2; stroke-opacity:0.1; fill:none" points="272.297,1075.68 2352.76,1075.68 "/>
<polyline clip-path="url(#clip032)" style="stroke:#000000; stroke-linecap:round; stroke-linejoin:round; stroke-width:2; stroke-opacity:0.1; fill:none" points="272.297,758.278 2352.76,758.278 "/>
<polyline clip-path="url(#clip032)" style="stroke:#000000; stroke-linecap:round; stroke-linejoin:round; stroke-width:2; stroke-opacity:0.1; fill:none" points="272.297,440.875 2352.76,440.875 "/>
<polyline clip-path="url(#clip032)" style="stroke:#000000; stroke-linecap:round; stroke-linejoin:round; stroke-width:2; stroke-opacity:0.1; fill:none" points="272.297,123.472 2352.76,123.472 "/>
<polyline clip-path="url(#clip030)" style="stroke:#000000; stroke-linecap:round; stroke-linejoin:round; stroke-width:4; stroke-opacity:1; fill:none" points="272.297,1486.45 2352.76,1486.45 "/>
<polyline clip-path="url(#clip030)" style="stroke:#000000; stroke-linecap:round; stroke-linejoin:round; stroke-width:4; stroke-opacity:1; fill:none" points="496.368,1486.45 496.368,1467.55 "/>
<polyline clip-path="url(#clip030)" style="stroke:#000000; stroke-linecap:round; stroke-linejoin:round; stroke-width:4; stroke-opacity:1; fill:none" points="904.447,1486.45 904.447,1467.55 "/>
<polyline clip-path="url(#clip030)" style="stroke:#000000; stroke-linecap:round; stroke-linejoin:round; stroke-width:4; stroke-opacity:1; fill:none" points="1312.53,1486.45 1312.53,1467.55 "/>
<polyline clip-path="url(#clip030)" style="stroke:#000000; stroke-linecap:round; stroke-linejoin:round; stroke-width:4; stroke-opacity:1; fill:none" points="1720.61,1486.45 1720.61,1467.55 "/>
<polyline clip-path="url(#clip030)" style="stroke:#000000; stroke-linecap:round; stroke-linejoin:round; stroke-width:4; stroke-opacity:1; fill:none" points="2128.68,1486.45 2128.68,1467.55 "/>
<path clip-path="url(#clip030)" d="M451.866 1514.29 L473.718 1514.29 L473.718 1518.22 L456.542 1518.22 L456.542 1528.45 L473 1528.45 L473 1532.39 L456.542 1532.39 L456.542 1544.91 L474.134 1544.91 L474.134 1548.85 L451.866 1548.85 L451.866 1514.29 Z" fill="#000000" fill-rule="nonzero" fill-opacity="1" /><path clip-path="url(#clip030)" d="M505.384 1543.92 L505.384 1534.63 L497.745 1534.63 L497.745 1530.79 L510.014 1530.79 L510.014 1545.63 Q507.305 1547.55 504.041 1548.55 Q500.778 1549.52 497.074 1549.52 Q488.972 1549.52 484.389 1544.8 Q479.829 1540.05 479.829 1531.6 Q479.829 1523.13 484.389 1518.41 Q488.972 1513.66 497.074 1513.66 Q500.454 1513.66 503.486 1514.5 Q506.541 1515.33 509.111 1516.95 L509.111 1521.93 Q506.518 1519.73 503.602 1518.62 Q500.685 1517.51 497.467 1517.51 Q491.125 1517.51 487.93 1521.05 Q484.759 1524.59 484.759 1531.6 Q484.759 1538.59 487.93 1542.13 Q491.125 1545.68 497.467 1545.68 Q499.944 1545.68 501.889 1545.26 Q503.833 1544.82 505.384 1543.92 Z" fill="#000000" fill-rule="nonzero" fill-opacity="1" /><path clip-path="url(#clip030)" d="M523.231 1518.13 L523.231 1531.12 L529.111 1531.12 Q532.375 1531.12 534.157 1529.43 Q535.939 1527.74 535.939 1524.61 Q535.939 1521.51 534.157 1519.82 Q532.375 1518.13 529.111 1518.13 L523.231 1518.13 M518.555 1514.29 L529.111 1514.29 Q534.921 1514.29 537.884 1516.93 Q540.87 1519.54 540.87 1524.61 Q540.87 1529.73 537.884 1532.34 Q534.921 1534.96 529.111 1534.96 L523.231 1534.96 L523.231 1548.85 L518.555 1548.85 L518.555 1514.29 Z" fill="#000000" fill-rule="nonzero" fill-opacity="1" /><path clip-path="url(#clip030)" d="M849.297 1514.29 L869.158 1514.29 L869.158 1518.22 L853.973 1518.22 L853.973 1528.41 L867.676 1528.41 L867.676 1532.34 L853.973 1532.34 L853.973 1548.85 L849.297 1548.85 L849.297 1514.29 Z" fill="#000000" fill-rule="nonzero" fill-opacity="1" /><path clip-path="url(#clip030)" d="M881.241 1518.13 L881.241 1531.12 L887.121 1531.12 Q890.385 1531.12 892.167 1529.43 Q893.949 1527.74 893.949 1524.61 Q893.949 1521.51 892.167 1519.82 Q890.385 1518.13 887.121 1518.13 L881.241 1518.13 M876.565 1514.29 L887.121 1514.29 Q892.931 1514.29 895.894 1516.93 Q898.88 1519.54 898.88 1524.61 Q898.88 1529.73 895.894 1532.34 Q892.931 1534.96 887.121 1534.96 L881.241 1534.96 L881.241 1548.85 L876.565 1548.85 L876.565 1514.29 Z" fill="#000000" fill-rule="nonzero" fill-opacity="1" /><path clip-path="url(#clip030)" d="M921.542 1532.64 Q923.047 1533.15 924.459 1534.82 Q925.894 1536.49 927.329 1539.4 L932.074 1548.85 L927.051 1548.85 L922.63 1539.98 Q920.917 1536.51 919.297 1535.38 Q917.699 1534.24 914.922 1534.24 L909.829 1534.24 L909.829 1548.85 L905.153 1548.85 L905.153 1514.29 L915.709 1514.29 Q921.634 1514.29 924.551 1516.76 Q927.468 1519.24 927.468 1524.24 Q927.468 1527.51 925.94 1529.66 Q924.435 1531.81 921.542 1532.64 M909.829 1518.13 L909.829 1530.4 L915.709 1530.4 Q919.088 1530.4 920.801 1528.85 Q922.537 1527.27 922.537 1524.24 Q922.537 1521.21 920.801 1519.68 Q919.088 1518.13 915.709 1518.13 L909.829 1518.13 Z" fill="#000000" fill-rule="nonzero" fill-opacity="1" /><path clip-path="url(#clip030)" d="M938.093 1514.29 L942.769 1514.29 L942.769 1544.91 L959.597 1544.91 L959.597 1548.85 L938.093 1548.85 L938.093 1514.29 Z" fill="#000000" fill-rule="nonzero" fill-opacity="1" /><path clip-path="url(#clip030)" d="M1261.76 1514.29 L1266.44 1514.29 L1266.44 1548.85 L1261.76 1548.85 L1261.76 1514.29 Z" fill="#000000" fill-rule="nonzero" fill-opacity="1" /><path clip-path="url(#clip030)" d="M1301.62 1516.95 L1301.62 1521.88 Q1299.26 1519.68 1296.58 1518.59 Q1293.92 1517.51 1290.91 1517.51 Q1284.98 1517.51 1281.83 1521.14 Q1278.68 1524.75 1278.68 1531.6 Q1278.68 1538.43 1281.83 1542.07 Q1284.98 1545.68 1290.91 1545.68 Q1293.92 1545.68 1296.58 1544.59 Q1299.26 1543.5 1301.62 1541.3 L1301.62 1546.19 Q1299.17 1547.85 1296.42 1548.69 Q1293.68 1549.52 1290.63 1549.52 Q1282.78 1549.52 1278.27 1544.73 Q1273.75 1539.91 1273.75 1531.6 Q1273.75 1523.27 1278.27 1518.48 Q1282.78 1513.66 1290.63 1513.66 Q1293.73 1513.66 1296.46 1514.5 Q1299.22 1515.31 1301.62 1516.95 Z" fill="#000000" fill-rule="nonzero" fill-opacity="1" /><path clip-path="url(#clip030)" d="M1325.23 1532.64 Q1326.74 1533.15 1328.15 1534.82 Q1329.59 1536.49 1331.02 1539.4 L1335.77 1548.85 L1330.74 1548.85 L1326.32 1539.98 Q1324.61 1536.51 1322.99 1535.38 Q1321.39 1534.24 1318.61 1534.24 L1313.52 1534.24 L1313.52 1548.85 L1308.85 1548.85 L1308.85 1514.29 L1319.4 1514.29 Q1325.33 1514.29 1328.24 1516.76 Q1331.16 1519.24 1331.16 1524.24 Q1331.16 1527.51 1329.63 1529.66 Q1328.13 1531.81 1325.23 1532.64 M1313.52 1518.13 L1313.52 1530.4 L1319.4 1530.4 Q1322.78 1530.4 1324.49 1528.85 Q1326.23 1527.27 1326.23 1524.24 Q1326.23 1521.21 1324.49 1519.68 Q1322.78 1518.13 1319.4 1518.13 L1313.52 1518.13 Z" fill="#000000" fill-rule="nonzero" fill-opacity="1" /><path clip-path="url(#clip030)" d="M1341.79 1514.29 L1346.46 1514.29 L1346.46 1544.91 L1363.29 1544.91 L1363.29 1548.85 L1341.79 1548.85 L1341.79 1514.29 Z" fill="#000000" fill-rule="nonzero" fill-opacity="1" /><path clip-path="url(#clip030)" d="M1681.69 1518.13 L1681.69 1531.12 L1687.57 1531.12 Q1690.84 1531.12 1692.62 1529.43 Q1694.4 1527.74 1694.4 1524.61 Q1694.4 1521.51 1692.62 1519.82 Q1690.84 1518.13 1687.57 1518.13 L1681.69 1518.13 M1677.02 1514.29 L1687.57 1514.29 Q1693.38 1514.29 1696.35 1516.93 Q1699.33 1519.54 1699.33 1524.61 Q1699.33 1529.73 1696.35 1532.34 Q1693.38 1534.96 1687.57 1534.96 L1681.69 1534.96 L1681.69 1548.85 L1677.02 1548.85 L1677.02 1514.29 Z" fill="#000000" fill-rule="nonzero" fill-opacity="1" /><path clip-path="url(#clip030)" d="M1710.28 1518.13 L1710.28 1531.12 L1716.16 1531.12 Q1719.42 1531.12 1721.21 1529.43 Q1722.99 1527.74 1722.99 1524.61 Q1722.99 1521.51 1721.21 1519.82 Q1719.42 1518.13 1716.16 1518.13 L1710.28 1518.13 M1705.61 1514.29 L1716.16 1514.29 Q1721.97 1514.29 1724.93 1516.93 Q1727.92 1519.54 1727.92 1524.61 Q1727.92 1529.73 1724.93 1532.34 Q1721.97 1534.96 1716.16 1534.96 L1710.28 1534.96 L1710.28 1548.85 L1705.61 1548.85 L1705.61 1514.29 Z" fill="#000000" fill-rule="nonzero" fill-opacity="1" /><path clip-path="url(#clip030)" d="M1748.22 1517.46 Q1743.13 1517.46 1740.12 1521.26 Q1737.13 1525.05 1737.13 1531.6 Q1737.13 1538.13 1740.12 1541.93 Q1743.13 1545.72 1748.22 1545.72 Q1753.31 1545.72 1756.28 1541.93 Q1759.26 1538.13 1759.26 1531.6 Q1759.26 1525.05 1756.28 1521.26 Q1753.31 1517.46 1748.22 1517.46 M1748.22 1513.66 Q1755.49 1513.66 1759.84 1518.55 Q1764.19 1523.41 1764.19 1531.6 Q1764.19 1539.77 1759.84 1544.66 Q1755.49 1549.52 1748.22 1549.52 Q1740.93 1549.52 1736.55 1544.66 Q1732.2 1539.8 1732.2 1531.6 Q1732.2 1523.41 1736.55 1518.55 Q1740.93 1513.66 1748.22 1513.66 Z" fill="#000000" fill-rule="nonzero" fill-opacity="1" /><path clip-path="url(#clip030)" d="M2105.94 1515.42 L2105.94 1519.98 Q2103.28 1518.71 2100.92 1518.08 Q2098.56 1517.46 2096.36 1517.46 Q2092.54 1517.46 2090.46 1518.94 Q2088.4 1520.42 2088.4 1523.15 Q2088.4 1525.45 2089.76 1526.63 Q2091.15 1527.78 2094.99 1528.5 L2097.82 1529.08 Q2103.05 1530.07 2105.52 1532.6 Q2108.02 1535.1 2108.02 1539.31 Q2108.02 1544.33 2104.65 1546.93 Q2101.29 1549.52 2094.78 1549.52 Q2092.33 1549.52 2089.55 1548.96 Q2086.8 1548.41 2083.84 1547.32 L2083.84 1542.51 Q2086.68 1544.1 2089.41 1544.91 Q2092.15 1545.72 2094.78 1545.72 Q2098.79 1545.72 2100.96 1544.15 Q2103.14 1542.57 2103.14 1539.66 Q2103.14 1537.11 2101.57 1535.68 Q2100.02 1534.24 2096.45 1533.52 L2093.6 1532.97 Q2088.37 1531.93 2086.03 1529.7 Q2083.7 1527.48 2083.7 1523.52 Q2083.7 1518.94 2086.91 1516.3 Q2090.15 1513.66 2095.83 1513.66 Q2098.26 1513.66 2100.78 1514.1 Q2103.3 1514.54 2105.94 1515.42 Z" fill="#000000" fill-rule="nonzero" fill-opacity="1" /><path clip-path="url(#clip030)" d="M2127.75 1518.89 L2121.4 1536.09 L2134.11 1536.09 L2127.75 1518.89 M2125.11 1514.29 L2130.41 1514.29 L2143.58 1548.85 L2138.72 1548.85 L2135.57 1539.98 L2119.99 1539.98 L2116.84 1548.85 L2111.91 1548.85 L2125.11 1514.29 Z" fill="#000000" fill-rule="nonzero" fill-opacity="1" /><path clip-path="url(#clip030)" d="M2173.67 1516.95 L2173.67 1521.88 Q2171.31 1519.68 2168.63 1518.59 Q2165.96 1517.51 2162.96 1517.51 Q2157.03 1517.51 2153.88 1521.14 Q2150.73 1524.75 2150.73 1531.6 Q2150.73 1538.43 2153.88 1542.07 Q2157.03 1545.68 2162.96 1545.68 Q2165.96 1545.68 2168.63 1544.59 Q2171.31 1543.5 2173.67 1541.3 L2173.67 1546.19 Q2171.22 1547.85 2168.46 1548.69 Q2165.73 1549.52 2162.68 1549.52 Q2154.83 1549.52 2150.32 1544.73 Q2145.8 1539.91 2145.8 1531.6 Q2145.8 1523.27 2150.32 1518.48 Q2154.83 1513.66 2162.68 1513.66 Q2165.78 1513.66 2168.51 1514.5 Q2171.27 1515.31 2173.67 1516.95 Z" fill="#000000" fill-rule="nonzero" fill-opacity="1" /><polyline clip-path="url(#clip030)" style="stroke:#000000; stroke-linecap:round; stroke-linejoin:round; stroke-width:4; stroke-opacity:1; fill:none" points="272.297,1486.45 272.297,123.472 "/>
<polyline clip-path="url(#clip030)" style="stroke:#000000; stroke-linecap:round; stroke-linejoin:round; stroke-width:4; stroke-opacity:1; fill:none" points="272.297,1393.08 291.194,1393.08 "/>
<polyline clip-path="url(#clip030)" style="stroke:#000000; stroke-linecap:round; stroke-linejoin:round; stroke-width:4; stroke-opacity:1; fill:none" points="272.297,1075.68 291.194,1075.68 "/>
<polyline clip-path="url(#clip030)" style="stroke:#000000; stroke-linecap:round; stroke-linejoin:round; stroke-width:4; stroke-opacity:1; fill:none" points="272.297,758.278 291.194,758.278 "/>
<polyline clip-path="url(#clip030)" style="stroke:#000000; stroke-linecap:round; stroke-linejoin:round; stroke-width:4; stroke-opacity:1; fill:none" points="272.297,440.875 291.194,440.875 "/>
<polyline clip-path="url(#clip030)" style="stroke:#000000; stroke-linecap:round; stroke-linejoin:round; stroke-width:4; stroke-opacity:1; fill:none" points="272.297,123.472 291.194,123.472 "/>
<path clip-path="url(#clip030)" d="M114.26 1393.53 L143.936 1393.53 L143.936 1397.47 L114.26 1397.47 L114.26 1393.53 Z" fill="#000000" fill-rule="nonzero" fill-opacity="1" /><path clip-path="url(#clip030)" d="M166.876 1379.88 L155.07 1398.33 L166.876 1398.33 L166.876 1379.88 M165.649 1375.8 L171.528 1375.8 L171.528 1398.33 L176.459 1398.33 L176.459 1402.22 L171.528 1402.22 L171.528 1410.36 L166.876 1410.36 L166.876 1402.22 L151.274 1402.22 L151.274 1397.7 L165.649 1375.8 Z" fill="#000000" fill-rule="nonzero" fill-opacity="1" /><path clip-path="url(#clip030)" d="M194.19 1378.88 Q190.579 1378.88 188.75 1382.45 Q186.945 1385.99 186.945 1393.12 Q186.945 1400.22 188.75 1403.79 Q190.579 1407.33 194.19 1407.33 Q197.825 1407.33 199.63 1403.79 Q201.459 1400.22 201.459 1393.12 Q201.459 1385.99 199.63 1382.45 Q197.825 1378.88 194.19 1378.88 M194.19 1375.18 Q200 1375.18 203.056 1379.78 Q206.135 1384.37 206.135 1393.12 Q206.135 1401.85 203.056 1406.45 Q200 1411.03 194.19 1411.03 Q188.38 1411.03 185.301 1406.45 Q182.246 1401.85 182.246 1393.12 Q182.246 1384.37 185.301 1379.78 Q188.38 1375.18 194.19 1375.18 Z" fill="#000000" fill-rule="nonzero" fill-opacity="1" /><path clip-path="url(#clip030)" d="M224.352 1378.88 Q220.741 1378.88 218.912 1382.45 Q217.107 1385.99 217.107 1393.12 Q217.107 1400.22 218.912 1403.79 Q220.741 1407.33 224.352 1407.33 Q227.986 1407.33 229.792 1403.79 Q231.621 1400.22 231.621 1393.12 Q231.621 1385.99 229.792 1382.45 Q227.986 1378.88 224.352 1378.88 M224.352 1375.18 Q230.162 1375.18 233.218 1379.78 Q236.297 1384.37 236.297 1393.12 Q236.297 1401.85 233.218 1406.45 Q230.162 1411.03 224.352 1411.03 Q218.542 1411.03 215.463 1406.45 Q212.408 1401.85 212.408 1393.12 Q212.408 1384.37 215.463 1379.78 Q218.542 1375.18 224.352 1375.18 Z" fill="#000000" fill-rule="nonzero" fill-opacity="1" /><path clip-path="url(#clip030)" d="M114.26 1076.13 L143.936 1076.13 L143.936 1080.07 L114.26 1080.07 L114.26 1076.13 Z" fill="#000000" fill-rule="nonzero" fill-opacity="1" /><path clip-path="url(#clip030)" d="M168.195 1074.33 Q171.552 1075.04 173.427 1077.31 Q175.325 1079.58 175.325 1082.91 Q175.325 1088.03 171.806 1090.83 Q168.288 1093.63 161.806 1093.63 Q159.63 1093.63 157.315 1093.19 Q155.024 1092.78 152.57 1091.92 L152.57 1087.41 Q154.515 1088.54 156.829 1089.12 Q159.144 1089.7 161.667 1089.7 Q166.065 1089.7 168.357 1087.96 Q170.672 1086.22 170.672 1082.91 Q170.672 1079.86 168.519 1078.15 Q166.39 1076.41 162.57 1076.41 L158.542 1076.41 L158.542 1072.57 L162.755 1072.57 Q166.204 1072.57 168.033 1071.2 Q169.862 1069.81 169.862 1067.22 Q169.862 1064.56 167.964 1063.15 Q166.089 1061.71 162.57 1061.71 Q160.649 1061.71 158.45 1062.13 Q156.251 1062.54 153.612 1063.42 L153.612 1059.26 Q156.274 1058.52 158.589 1058.15 Q160.927 1057.78 162.987 1057.78 Q168.311 1057.78 171.413 1060.21 Q174.514 1062.61 174.514 1066.73 Q174.514 1069.6 172.871 1071.6 Q171.227 1073.56 168.195 1074.33 Z" fill="#000000" fill-rule="nonzero" fill-opacity="1" /><path clip-path="url(#clip030)" d="M194.19 1061.48 Q190.579 1061.48 188.75 1065.04 Q186.945 1068.59 186.945 1075.72 Q186.945 1082.82 188.75 1086.39 Q190.579 1089.93 194.19 1089.93 Q197.825 1089.93 199.63 1086.39 Q201.459 1082.82 201.459 1075.72 Q201.459 1068.59 199.63 1065.04 Q197.825 1061.48 194.19 1061.48 M194.19 1057.78 Q200 1057.78 203.056 1062.38 Q206.135 1066.97 206.135 1075.72 Q206.135 1084.44 203.056 1089.05 Q200 1093.63 194.19 1093.63 Q188.38 1093.63 185.301 1089.05 Q182.246 1084.44 182.246 1075.72 Q182.246 1066.97 185.301 1062.38 Q188.38 1057.78 194.19 1057.78 Z" fill="#000000" fill-rule="nonzero" fill-opacity="1" /><path clip-path="url(#clip030)" d="M224.352 1061.48 Q220.741 1061.48 218.912 1065.04 Q217.107 1068.59 217.107 1075.72 Q217.107 1082.82 218.912 1086.39 Q220.741 1089.93 224.352 1089.93 Q227.986 1089.93 229.792 1086.39 Q231.621 1082.82 231.621 1075.72 Q231.621 1068.59 229.792 1065.04 Q227.986 1061.48 224.352 1061.48 M224.352 1057.78 Q230.162 1057.78 233.218 1062.38 Q236.297 1066.97 236.297 1075.72 Q236.297 1084.44 233.218 1089.05 Q230.162 1093.63 224.352 1093.63 Q218.542 1093.63 215.463 1089.05 Q212.408 1084.44 212.408 1075.72 Q212.408 1066.97 215.463 1062.38 Q218.542 1057.78 224.352 1057.78 Z" fill="#000000" fill-rule="nonzero" fill-opacity="1" /><path clip-path="url(#clip030)" d="M114.26 758.729 L143.936 758.729 L143.936 762.664 L114.26 762.664 L114.26 758.729 Z" fill="#000000" fill-rule="nonzero" fill-opacity="1" /><path clip-path="url(#clip030)" d="M158.056 771.623 L174.376 771.623 L174.376 775.558 L152.431 775.558 L152.431 771.623 Q155.093 768.868 159.677 764.238 Q164.283 759.586 165.464 758.243 Q167.709 755.72 168.589 753.984 Q169.491 752.225 169.491 750.535 Q169.491 747.78 167.547 746.044 Q165.626 744.308 162.524 744.308 Q160.325 744.308 157.871 745.072 Q155.44 745.836 152.663 747.387 L152.663 742.664 Q155.487 741.53 157.94 740.952 Q160.394 740.373 162.431 740.373 Q167.802 740.373 170.996 743.058 Q174.19 745.743 174.19 750.234 Q174.19 752.364 173.38 754.285 Q172.593 756.183 170.487 758.776 Q169.908 759.447 166.806 762.664 Q163.704 765.859 158.056 771.623 Z" fill="#000000" fill-rule="nonzero" fill-opacity="1" /><path clip-path="url(#clip030)" d="M194.19 744.077 Q190.579 744.077 188.75 747.641 Q186.945 751.183 186.945 758.313 Q186.945 765.419 188.75 768.984 Q190.579 772.525 194.19 772.525 Q197.825 772.525 199.63 768.984 Q201.459 765.419 201.459 758.313 Q201.459 751.183 199.63 747.641 Q197.825 744.077 194.19 744.077 M194.19 740.373 Q200 740.373 203.056 744.979 Q206.135 749.563 206.135 758.313 Q206.135 767.039 203.056 771.646 Q200 776.229 194.19 776.229 Q188.38 776.229 185.301 771.646 Q182.246 767.039 182.246 758.313 Q182.246 749.563 185.301 744.979 Q188.38 740.373 194.19 740.373 Z" fill="#000000" fill-rule="nonzero" fill-opacity="1" /><path clip-path="url(#clip030)" d="M224.352 744.077 Q220.741 744.077 218.912 747.641 Q217.107 751.183 217.107 758.313 Q217.107 765.419 218.912 768.984 Q220.741 772.525 224.352 772.525 Q227.986 772.525 229.792 768.984 Q231.621 765.419 231.621 758.313 Q231.621 751.183 229.792 747.641 Q227.986 744.077 224.352 744.077 M224.352 740.373 Q230.162 740.373 233.218 744.979 Q236.297 749.563 236.297 758.313 Q236.297 767.039 233.218 771.646 Q230.162 776.229 224.352 776.229 Q218.542 776.229 215.463 771.646 Q212.408 767.039 212.408 758.313 Q212.408 749.563 215.463 744.979 Q218.542 740.373 224.352 740.373 Z" fill="#000000" fill-rule="nonzero" fill-opacity="1" /><path clip-path="url(#clip030)" d="M114.26 441.326 L143.936 441.326 L143.936 445.262 L114.26 445.262 L114.26 441.326 Z" fill="#000000" fill-rule="nonzero" fill-opacity="1" /><path clip-path="url(#clip030)" d="M154.839 454.22 L162.477 454.22 L162.477 427.854 L154.167 429.521 L154.167 425.262 L162.431 423.595 L167.107 423.595 L167.107 454.22 L174.746 454.22 L174.746 458.155 L154.839 458.155 L154.839 454.22 Z" fill="#000000" fill-rule="nonzero" fill-opacity="1" /><path clip-path="url(#clip030)" d="M194.19 426.674 Q190.579 426.674 188.75 430.238 Q186.945 433.78 186.945 440.91 Q186.945 448.016 188.75 451.581 Q190.579 455.123 194.19 455.123 Q197.825 455.123 199.63 451.581 Q201.459 448.016 201.459 440.91 Q201.459 433.78 199.63 430.238 Q197.825 426.674 194.19 426.674 M194.19 422.97 Q200 422.97 203.056 427.576 Q206.135 432.16 206.135 440.91 Q206.135 449.637 203.056 454.243 Q200 458.826 194.19 458.826 Q188.38 458.826 185.301 454.243 Q182.246 449.637 182.246 440.91 Q182.246 432.16 185.301 427.576 Q188.38 422.97 194.19 422.97 Z" fill="#000000" fill-rule="nonzero" fill-opacity="1" /><path clip-path="url(#clip030)" d="M224.352 426.674 Q220.741 426.674 218.912 430.238 Q217.107 433.78 217.107 440.91 Q217.107 448.016 218.912 451.581 Q220.741 455.123 224.352 455.123 Q227.986 455.123 229.792 451.581 Q231.621 448.016 231.621 440.91 Q231.621 433.78 229.792 430.238 Q227.986 426.674 224.352 426.674 M224.352 422.97 Q230.162 422.97 233.218 427.576 Q236.297 432.16 236.297 440.91 Q236.297 449.637 233.218 454.243 Q230.162 458.826 224.352 458.826 Q218.542 458.826 215.463 454.243 Q212.408 449.637 212.408 440.91 Q212.408 432.16 215.463 427.576 Q218.542 422.97 224.352 422.97 Z" fill="#000000" fill-rule="nonzero" fill-opacity="1" /><path clip-path="url(#clip030)" d="M224.352 109.271 Q220.741 109.271 218.912 112.836 Q217.107 116.377 217.107 123.507 Q217.107 130.613 218.912 134.178 Q220.741 137.72 224.352 137.72 Q227.986 137.72 229.792 134.178 Q231.621 130.613 231.621 123.507 Q231.621 116.377 229.792 112.836 Q227.986 109.271 224.352 109.271 M224.352 105.567 Q230.162 105.567 233.218 110.174 Q236.297 114.757 236.297 123.507 Q236.297 132.234 233.218 136.84 Q230.162 141.423 224.352 141.423 Q218.542 141.423 215.463 136.84 Q212.408 132.234 212.408 123.507 Q212.408 114.757 215.463 110.174 Q218.542 105.567 224.352 105.567 Z" fill="#000000" fill-rule="nonzero" fill-opacity="1" /><path clip-path="url(#clip030)" d="M16.4842 1019.34 L16.4842 1009.76 L48.8219 997.634 L16.4842 985.444 L16.4842 975.863 L64.0042 975.863 L64.0042 982.134 L22.277 982.134 L54.8694 994.388 L54.8694 1000.85 L22.277 1013.1 L64.0042 1013.1 L64.0042 1019.34 L16.4842 1019.34 Z" fill="#000000" fill-rule="nonzero" fill-opacity="1" /><path clip-path="url(#clip030)" d="M44.7161 932.863 L47.5806 932.863 L47.5806 959.79 Q53.6281 959.408 56.8109 956.161 Q59.9619 952.883 59.9619 947.058 Q59.9619 943.685 59.1344 940.534 Q58.3069 937.351 56.6518 934.232 L62.1899 934.232 Q63.5267 937.383 64.227 940.693 Q64.9272 944.003 64.9272 947.409 Q64.9272 955.939 59.9619 960.936 Q54.9967 965.901 46.5303 965.901 Q37.7774 965.901 32.6531 961.19 Q27.4968 956.448 27.4968 948.427 Q27.4968 941.234 32.1438 937.064 Q36.7589 932.863 44.7161 932.863 M42.9973 938.719 Q38.1912 938.783 35.3266 941.425 Q32.4621 944.035 32.4621 948.363 Q32.4621 953.265 35.2312 956.225 Q38.0002 959.153 43.0292 959.599 L42.9973 938.719 Z" fill="#000000" fill-rule="nonzero" fill-opacity="1" /><path clip-path="url(#clip030)" d="M46.0847 907.05 Q46.0847 914.148 47.7079 916.885 Q49.3312 919.622 53.2461 919.622 Q56.3653 919.622 58.2114 917.585 Q60.0256 915.516 60.0256 911.983 Q60.0256 907.114 56.5881 904.185 Q53.1188 901.225 47.3897 901.225 L46.0847 901.225 L46.0847 907.05 M43.6657 895.369 L64.0042 895.369 L64.0042 901.225 L58.5933 901.225 Q61.8398 903.231 63.3994 906.222 Q64.9272 909.214 64.9272 913.543 Q64.9272 919.018 61.8716 922.264 Q58.7843 925.479 53.6281 925.479 Q47.6125 925.479 44.5569 921.468 Q41.5014 917.426 41.5014 909.437 L41.5014 901.225 L40.9285 901.225 Q36.8862 901.225 34.6901 903.899 Q32.4621 906.541 32.4621 911.347 Q32.4621 914.402 33.1941 917.299 Q33.9262 920.195 35.3903 922.869 L29.9795 922.869 Q28.7381 919.654 28.1334 916.63 Q27.4968 913.607 27.4968 910.742 Q27.4968 903.008 31.5072 899.188 Q35.5176 895.369 43.6657 895.369 Z" fill="#000000" fill-rule="nonzero" fill-opacity="1" /><path clip-path="url(#clip030)" d="M42.4881 853.674 L64.0042 853.674 L64.0042 859.53 L42.679 859.53 Q37.6183 859.53 35.1038 861.503 Q32.5894 863.477 32.5894 867.423 Q32.5894 872.166 35.6131 874.903 Q38.6368 877.64 43.8567 877.64 L64.0042 877.64 L64.0042 883.529 L28.3562 883.529 L28.3562 877.64 L33.8944 877.64 Q30.6797 875.54 29.0883 872.707 Q27.4968 869.842 27.4968 866.119 Q27.4968 859.976 31.3163 856.825 Q35.1038 853.674 42.4881 853.674 Z" fill="#000000" fill-rule="nonzero" fill-opacity="1" /><path clip-path="url(#clip030)" d="M41.7242 798.483 Q42.4244 796.414 44.7161 794.472 Q47.0077 792.499 51.0181 790.526 L64.0042 784.001 L64.0042 790.908 L51.8138 796.987 Q47.0395 799.342 45.48 801.57 Q43.9204 803.766 43.9204 807.586 L43.9204 814.588 L64.0042 814.588 L64.0042 821.017 L16.4842 821.017 L16.4842 806.504 Q16.4842 798.356 19.8898 794.345 Q23.2955 790.335 30.1704 790.335 Q34.6582 790.335 37.6183 792.435 Q40.5784 794.504 41.7242 798.483 M21.7677 814.588 L38.6368 814.588 L38.6368 806.504 Q38.6368 801.857 36.5043 799.501 Q34.34 797.114 30.1704 797.114 Q26.0009 797.114 23.9002 799.501 Q21.7677 801.857 21.7677 806.504 L21.7677 814.588 Z" fill="#000000" fill-rule="nonzero" fill-opacity="1" /><path clip-path="url(#clip030)" d="M44.7161 748.417 L47.5806 748.417 L47.5806 775.344 Q53.6281 774.962 56.8109 771.715 Q59.9619 768.437 59.9619 762.612 Q59.9619 759.238 59.1344 756.087 Q58.3069 752.904 56.6518 749.785 L62.1899 749.785 Q63.5267 752.936 64.227 756.246 Q64.9272 759.557 64.9272 762.962 Q64.9272 771.492 59.9619 776.489 Q54.9967 781.455 46.5303 781.455 Q37.7774 781.455 32.6531 776.744 Q27.4968 772.002 27.4968 763.981 Q27.4968 756.788 32.1438 752.618 Q36.7589 748.417 44.7161 748.417 M42.9973 754.273 Q38.1912 754.337 35.3266 756.978 Q32.4621 759.588 32.4621 763.917 Q32.4621 768.819 35.2312 771.779 Q38.0002 774.707 43.0292 775.153 L42.9973 754.273 Z" fill="#000000" fill-rule="nonzero" fill-opacity="1" /><path clip-path="url(#clip030)" d="M28.3562 742.21 L28.3562 736.354 L56.1743 729.033 L28.3562 721.744 L28.3562 714.838 L56.1743 707.517 L28.3562 700.228 L28.3562 694.372 L64.0042 703.698 L64.0042 710.604 L34.7856 718.275 L64.0042 725.977 L64.0042 732.884 L28.3562 742.21 Z" fill="#000000" fill-rule="nonzero" fill-opacity="1" /><path clip-path="url(#clip030)" d="M46.0847 669.291 Q46.0847 676.389 47.7079 679.126 Q49.3312 681.863 53.2461 681.863 Q56.3653 681.863 58.2114 679.826 Q60.0256 677.757 60.0256 674.224 Q60.0256 669.355 56.5881 666.426 Q53.1188 663.466 47.3897 663.466 L46.0847 663.466 L46.0847 669.291 M43.6657 657.61 L64.0042 657.61 L64.0042 663.466 L58.5933 663.466 Q61.8398 665.471 63.3994 668.463 Q64.9272 671.455 64.9272 675.784 Q64.9272 681.258 61.8716 684.505 Q58.7843 687.72 53.6281 687.72 Q47.6125 687.72 44.5569 683.709 Q41.5014 679.667 41.5014 671.678 L41.5014 663.466 L40.9285 663.466 Q36.8862 663.466 34.6901 666.14 Q32.4621 668.782 32.4621 673.588 Q32.4621 676.643 33.1941 679.54 Q33.9262 682.436 35.3903 685.11 L29.9795 685.11 Q28.7381 681.895 28.1334 678.871 Q27.4968 675.848 27.4968 672.983 Q27.4968 665.249 31.5072 661.429 Q35.5176 657.61 43.6657 657.61 Z" fill="#000000" fill-rule="nonzero" fill-opacity="1" /><path clip-path="url(#clip030)" d="M33.8307 624.89 Q33.2578 625.877 33.0032 627.054 Q32.7167 628.2 32.7167 629.601 Q32.7167 634.566 35.9632 637.24 Q39.1779 639.881 45.2253 639.881 L64.0042 639.881 L64.0042 645.77 L28.3562 645.77 L28.3562 639.881 L33.8944 639.881 Q30.6479 638.035 29.0883 635.075 Q27.4968 632.115 27.4968 627.882 Q27.4968 627.277 27.5923 626.545 Q27.656 625.813 27.8151 624.922 L33.8307 624.89 Z" fill="#000000" fill-rule="nonzero" fill-opacity="1" /><path clip-path="url(#clip030)" d="M33.7671 596.435 L14.479 596.435 L14.479 590.579 L64.0042 590.579 L64.0042 596.435 L58.657 596.435 Q61.8398 598.281 63.3994 601.114 Q64.9272 603.915 64.9272 607.862 Q64.9272 614.323 59.771 618.397 Q54.6147 622.439 46.212 622.439 Q37.8093 622.439 32.6531 618.397 Q27.4968 614.323 27.4968 607.862 Q27.4968 603.915 29.0564 601.114 Q30.5842 598.281 33.7671 596.435 M46.212 616.392 Q52.6732 616.392 56.3653 613.75 Q60.0256 611.076 60.0256 606.43 Q60.0256 601.783 56.3653 599.109 Q52.6732 596.435 46.212 596.435 Q39.7508 596.435 36.0905 599.109 Q32.3984 601.783 32.3984 606.43 Q32.3984 611.076 36.0905 613.75 Q39.7508 616.392 46.212 616.392 Z" fill="#000000" fill-rule="nonzero" fill-opacity="1" /><path clip-path="url(#clip030)" d="M671.39 18.8205 L671.39 41.5461 L681.679 41.5461 Q687.391 41.5461 690.51 38.5889 Q693.629 35.6318 693.629 30.163 Q693.629 24.7348 690.51 21.7777 Q687.391 18.8205 681.679 18.8205 L671.39 18.8205 M663.207 12.096 L681.679 12.096 Q691.847 12.096 697.032 16.714 Q702.258 21.2916 702.258 30.163 Q702.258 39.1155 697.032 43.6931 Q691.847 48.2706 681.679 48.2706 L671.39 48.2706 L671.39 72.576 L663.207 72.576 L663.207 12.096 Z" fill="#000000" fill-rule="nonzero" fill-opacity="1" /><path clip-path="url(#clip030)" d="M748.762 48.0275 L748.762 51.6733 L714.491 51.6733 Q714.977 59.3701 719.109 63.421 Q723.282 67.4314 730.695 67.4314 Q734.989 67.4314 738.999 66.3781 Q743.05 65.3249 747.02 63.2184 L747.02 70.267 Q743.01 71.9684 738.797 72.8596 Q734.584 73.7508 730.249 73.7508 Q719.393 73.7508 713.033 67.4314 Q706.713 61.1119 706.713 50.3365 Q706.713 39.1965 712.709 32.6746 Q718.745 26.1121 728.953 26.1121 Q738.108 26.1121 743.415 32.0264 Q748.762 37.9003 748.762 48.0275 M741.308 45.84 Q741.227 39.7232 737.865 36.0774 Q734.543 32.4315 729.034 32.4315 Q722.796 32.4315 719.028 35.9558 Q715.301 39.4801 714.734 45.8805 L741.308 45.84 Z" fill="#000000" fill-rule="nonzero" fill-opacity="1" /><path clip-path="url(#clip030)" d="M787.286 34.1734 Q786.03 33.4443 784.531 33.1202 Q783.073 32.7556 781.291 32.7556 Q774.971 32.7556 771.568 36.8875 Q768.206 40.9789 768.206 48.6757 L768.206 72.576 L760.712 72.576 L760.712 27.2059 L768.206 27.2059 L768.206 34.2544 Q770.556 30.1225 774.323 28.1376 Q778.09 26.1121 783.478 26.1121 Q784.248 26.1121 785.18 26.2337 Q786.111 26.3147 787.245 26.5172 L787.286 34.1734 Z" fill="#000000" fill-rule="nonzero" fill-opacity="1" /><path clip-path="url(#clip030)" d="M818.073 9.54393 L818.073 15.7418 L810.943 15.7418 Q806.933 15.7418 805.353 17.3622 Q803.814 18.9825 803.814 23.1955 L803.814 27.2059 L816.088 27.2059 L816.088 32.9987 L803.814 32.9987 L803.814 72.576 L796.319 72.576 L796.319 32.9987 L789.19 32.9987 L789.19 27.2059 L796.319 27.2059 L796.319 24.0462 Q796.319 16.471 799.844 13.0277 Q803.368 9.54393 811.024 9.54393 L818.073 9.54393 Z" fill="#000000" fill-rule="nonzero" fill-opacity="1" /><path clip-path="url(#clip030)" d="M841.892 32.4315 Q835.897 32.4315 832.413 37.1306 Q828.929 41.7891 828.929 49.9314 Q828.929 58.0738 832.373 62.7728 Q835.856 67.4314 841.892 67.4314 Q847.847 67.4314 851.331 62.7323 Q854.815 58.0333 854.815 49.9314 Q854.815 41.8701 851.331 37.1711 Q847.847 32.4315 841.892 32.4315 M841.892 26.1121 Q851.614 26.1121 857.164 32.4315 Q862.714 38.7509 862.714 49.9314 Q862.714 61.0714 857.164 67.4314 Q851.614 73.7508 841.892 73.7508 Q832.129 73.7508 826.58 67.4314 Q821.071 61.0714 821.071 49.9314 Q821.071 38.7509 826.58 32.4315 Q832.129 26.1121 841.892 26.1121 Z" fill="#000000" fill-rule="nonzero" fill-opacity="1" /><path clip-path="url(#clip030)" d="M901.359 34.1734 Q900.104 33.4443 898.605 33.1202 Q897.147 32.7556 895.364 32.7556 Q889.045 32.7556 885.642 36.8875 Q882.28 40.9789 882.28 48.6757 L882.28 72.576 L874.786 72.576 L874.786 27.2059 L882.28 27.2059 L882.28 34.2544 Q884.629 30.1225 888.397 28.1376 Q892.164 26.1121 897.552 26.1121 Q898.321 26.1121 899.253 26.2337 Q900.185 26.3147 901.319 26.5172 L901.359 34.1734 Z" fill="#000000" fill-rule="nonzero" fill-opacity="1" /><path clip-path="url(#clip030)" d="M943.043 35.9153 Q945.838 30.8922 949.727 28.5022 Q953.616 26.1121 958.882 26.1121 Q965.971 26.1121 969.82 31.0947 Q973.668 36.0368 973.668 45.1919 L973.668 72.576 L966.174 72.576 L966.174 45.4349 Q966.174 38.913 963.865 35.7533 Q961.556 32.5936 956.816 32.5936 Q951.024 32.5936 947.661 36.4419 Q944.299 40.2903 944.299 46.9338 L944.299 72.576 L936.805 72.576 L936.805 45.4349 Q936.805 38.8725 934.496 35.7533 Q932.187 32.5936 927.366 32.5936 Q921.654 32.5936 918.292 36.4824 Q914.93 40.3308 914.93 46.9338 L914.93 72.576 L907.436 72.576 L907.436 27.2059 L914.93 27.2059 L914.93 34.2544 Q917.482 30.082 921.047 28.0971 Q924.612 26.1121 929.513 26.1121 Q934.455 26.1121 937.899 28.6237 Q941.382 31.1352 943.043 35.9153 Z" fill="#000000" fill-rule="nonzero" fill-opacity="1" /><path clip-path="url(#clip030)" d="M1009.15 49.7694 Q1000.12 49.7694 996.637 51.8354 Q993.153 53.9013 993.153 58.8839 Q993.153 62.8538 995.746 65.2034 Q998.379 67.5124 1002.88 67.5124 Q1009.07 67.5124 1012.8 63.1374 Q1016.57 58.7219 1016.57 51.4303 L1016.57 49.7694 L1009.15 49.7694 M1024.02 46.6907 L1024.02 72.576 L1016.57 72.576 L1016.57 65.6895 Q1014.02 69.8214 1010.21 71.8063 Q1006.4 73.7508 1000.89 73.7508 Q993.923 73.7508 989.791 69.8619 Q985.699 65.9325 985.699 59.3701 Q985.699 51.7138 990.803 47.825 Q995.948 43.9361 1006.12 43.9361 L1016.57 43.9361 L1016.57 43.2069 Q1016.57 38.0623 1013.16 35.2672 Q1009.8 32.4315 1003.69 32.4315 Q999.796 32.4315 996.11 33.3632 Q992.424 34.295 989.021 36.1584 L989.021 29.2718 Q993.112 27.692 996.961 26.9223 Q1000.81 26.1121 1004.45 26.1121 Q1014.3 26.1121 1019.16 31.2163 Q1024.02 36.3204 1024.02 46.6907 Z" fill="#000000" fill-rule="nonzero" fill-opacity="1" /><path clip-path="url(#clip030)" d="M1077.09 45.1919 L1077.09 72.576 L1069.63 72.576 L1069.63 45.4349 Q1069.63 38.994 1067.12 35.7938 Q1064.61 32.5936 1059.59 32.5936 Q1053.55 32.5936 1050.07 36.4419 Q1046.58 40.2903 1046.58 46.9338 L1046.58 72.576 L1039.09 72.576 L1039.09 27.2059 L1046.58 27.2059 L1046.58 34.2544 Q1049.26 30.163 1052.86 28.1376 Q1056.51 26.1121 1061.25 26.1121 Q1069.07 26.1121 1073.08 30.9732 Q1077.09 35.7938 1077.09 45.1919 Z" fill="#000000" fill-rule="nonzero" fill-opacity="1" /><path clip-path="url(#clip030)" d="M1124.6 28.9478 L1124.6 35.9153 Q1121.45 34.1734 1118.24 33.3227 Q1115.09 32.4315 1111.84 32.4315 Q1104.59 32.4315 1100.58 37.0496 Q1096.57 41.6271 1096.57 49.9314 Q1096.57 58.2358 1100.58 62.8538 Q1104.59 67.4314 1111.84 67.4314 Q1115.09 67.4314 1118.24 66.5807 Q1121.45 65.6895 1124.6 63.9476 L1124.6 70.8341 Q1121.49 72.2924 1118.12 73.0216 Q1114.8 73.7508 1111.03 73.7508 Q1100.79 73.7508 1094.75 67.3098 Q1088.71 60.8689 1088.71 49.9314 Q1088.71 38.832 1094.79 32.472 Q1100.91 26.1121 1111.52 26.1121 Q1114.96 26.1121 1118.24 26.8413 Q1121.53 27.5299 1124.6 28.9478 Z" fill="#000000" fill-rule="nonzero" fill-opacity="1" /><path clip-path="url(#clip030)" d="M1176.38 48.0275 L1176.38 51.6733 L1142.1 51.6733 Q1142.59 59.3701 1146.72 63.421 Q1150.9 67.4314 1158.31 67.4314 Q1162.6 67.4314 1166.61 66.3781 Q1170.66 65.3249 1174.63 63.2184 L1174.63 70.267 Q1170.62 71.9684 1166.41 72.8596 Q1162.2 73.7508 1157.86 73.7508 Q1147.01 73.7508 1140.65 67.4314 Q1134.33 61.1119 1134.33 50.3365 Q1134.33 39.1965 1140.32 32.6746 Q1146.36 26.1121 1156.57 26.1121 Q1165.72 26.1121 1171.03 32.0264 Q1176.38 37.9003 1176.38 48.0275 M1168.92 45.84 Q1168.84 39.7232 1165.48 36.0774 Q1162.16 32.4315 1156.65 32.4315 Q1150.41 32.4315 1146.64 35.9558 Q1142.91 39.4801 1142.35 45.8805 L1168.92 45.84 Z" fill="#000000" fill-rule="nonzero" fill-opacity="1" /><path clip-path="url(#clip030)" d="M1223.49 43.6931 L1223.49 65.8515 L1236.61 65.8515 Q1243.22 65.8515 1246.37 63.1374 Q1249.58 60.3828 1249.58 54.752 Q1249.58 49.0808 1246.37 46.4072 Q1243.22 43.6931 1236.61 43.6931 L1223.49 43.6931 M1223.49 18.8205 L1223.49 37.0496 L1235.6 37.0496 Q1241.59 37.0496 1244.51 34.8216 Q1247.47 32.5531 1247.47 27.935 Q1247.47 23.3575 1244.51 21.089 Q1241.59 18.8205 1235.6 18.8205 L1223.49 18.8205 M1215.3 12.096 L1236.21 12.096 Q1245.56 12.096 1250.63 15.9849 Q1255.69 19.8737 1255.69 27.0438 Q1255.69 32.5936 1253.1 35.8748 Q1250.51 39.156 1245.48 39.9662 Q1251.52 41.2625 1254.84 45.3944 Q1258.2 49.4858 1258.2 55.6432 Q1258.2 63.745 1252.69 68.1605 Q1247.19 72.576 1237.02 72.576 L1215.3 72.576 L1215.3 12.096 Z" fill="#000000" fill-rule="nonzero" fill-opacity="1" /><path clip-path="url(#clip030)" d="M1310.7 48.0275 L1310.7 51.6733 L1276.43 51.6733 Q1276.92 59.3701 1281.05 63.421 Q1285.22 67.4314 1292.64 67.4314 Q1296.93 67.4314 1300.94 66.3781 Q1304.99 65.3249 1308.96 63.2184 L1308.96 70.267 Q1304.95 71.9684 1300.74 72.8596 Q1296.53 73.7508 1292.19 73.7508 Q1281.33 73.7508 1274.97 67.4314 Q1268.65 61.1119 1268.65 50.3365 Q1268.65 39.1965 1274.65 32.6746 Q1280.69 26.1121 1290.89 26.1121 Q1300.05 26.1121 1305.36 32.0264 Q1310.7 37.9003 1310.7 48.0275 M1303.25 45.84 Q1303.17 39.7232 1299.81 36.0774 Q1296.48 32.4315 1290.98 32.4315 Q1284.74 32.4315 1280.97 35.9558 Q1277.24 39.4801 1276.68 45.8805 L1303.25 45.84 Z" fill="#000000" fill-rule="nonzero" fill-opacity="1" /><path clip-path="url(#clip030)" d="M1360.65 45.1919 L1360.65 72.576 L1353.2 72.576 L1353.2 45.4349 Q1353.2 38.994 1350.69 35.7938 Q1348.17 32.5936 1343.15 32.5936 Q1337.12 32.5936 1333.63 36.4419 Q1330.15 40.2903 1330.15 46.9338 L1330.15 72.576 L1322.65 72.576 L1322.65 27.2059 L1330.15 27.2059 L1330.15 34.2544 Q1332.82 30.163 1336.43 28.1376 Q1340.07 26.1121 1344.81 26.1121 Q1352.63 26.1121 1356.64 30.9732 Q1360.65 35.7938 1360.65 45.1919 Z" fill="#000000" fill-rule="nonzero" fill-opacity="1" /><path clip-path="url(#clip030)" d="M1408.17 28.9478 L1408.17 35.9153 Q1405.01 34.1734 1401.81 33.3227 Q1398.65 32.4315 1395.41 32.4315 Q1388.16 32.4315 1384.15 37.0496 Q1380.14 41.6271 1380.14 49.9314 Q1380.14 58.2358 1384.15 62.8538 Q1388.16 67.4314 1395.41 67.4314 Q1398.65 67.4314 1401.81 66.5807 Q1405.01 65.6895 1408.17 63.9476 L1408.17 70.8341 Q1405.05 72.2924 1401.69 73.0216 Q1398.36 73.7508 1394.6 73.7508 Q1384.35 73.7508 1378.31 67.3098 Q1372.28 60.8689 1372.28 49.9314 Q1372.28 38.832 1378.35 32.472 Q1384.47 26.1121 1395.08 26.1121 Q1398.53 26.1121 1401.81 26.8413 Q1405.09 27.5299 1408.17 28.9478 Z" fill="#000000" fill-rule="nonzero" fill-opacity="1" /><path clip-path="url(#clip030)" d="M1458.84 45.1919 L1458.84 72.576 L1451.39 72.576 L1451.39 45.4349 Q1451.39 38.994 1448.88 35.7938 Q1446.37 32.5936 1441.34 32.5936 Q1435.31 32.5936 1431.83 36.4419 Q1428.34 40.2903 1428.34 46.9338 L1428.34 72.576 L1420.85 72.576 L1420.85 9.54393 L1428.34 9.54393 L1428.34 34.2544 Q1431.02 30.163 1434.62 28.1376 Q1438.27 26.1121 1443.01 26.1121 Q1450.82 26.1121 1454.83 30.9732 Q1458.84 35.7938 1458.84 45.1919 Z" fill="#000000" fill-rule="nonzero" fill-opacity="1" /><path clip-path="url(#clip030)" d="M1509.04 35.9153 Q1511.83 30.8922 1515.72 28.5022 Q1519.61 26.1121 1524.87 26.1121 Q1531.96 26.1121 1535.81 31.0947 Q1539.66 36.0368 1539.66 45.1919 L1539.66 72.576 L1532.17 72.576 L1532.17 45.4349 Q1532.17 38.913 1529.86 35.7533 Q1527.55 32.5936 1522.81 32.5936 Q1517.02 32.5936 1513.65 36.4419 Q1510.29 40.2903 1510.29 46.9338 L1510.29 72.576 L1502.8 72.576 L1502.8 45.4349 Q1502.8 38.8725 1500.49 35.7533 Q1498.18 32.5936 1493.36 32.5936 Q1487.65 32.5936 1484.28 36.4824 Q1480.92 40.3308 1480.92 46.9338 L1480.92 72.576 L1473.43 72.576 L1473.43 27.2059 L1480.92 27.2059 L1480.92 34.2544 Q1483.47 30.082 1487.04 28.0971 Q1490.6 26.1121 1495.51 26.1121 Q1500.45 26.1121 1503.89 28.6237 Q1507.37 31.1352 1509.04 35.9153 Z" fill="#000000" fill-rule="nonzero" fill-opacity="1" /><path clip-path="url(#clip030)" d="M1575.15 49.7694 Q1566.11 49.7694 1562.63 51.8354 Q1559.15 53.9013 1559.15 58.8839 Q1559.15 62.8538 1561.74 65.2034 Q1564.37 67.5124 1568.87 67.5124 Q1575.07 67.5124 1578.79 63.1374 Q1582.56 58.7219 1582.56 51.4303 L1582.56 49.7694 L1575.15 49.7694 M1590.01 46.6907 L1590.01 72.576 L1582.56 72.576 L1582.56 65.6895 Q1580.01 69.8214 1576.2 71.8063 Q1572.39 73.7508 1566.88 73.7508 Q1559.91 73.7508 1555.78 69.8619 Q1551.69 65.9325 1551.69 59.3701 Q1551.69 51.7138 1556.8 47.825 Q1561.94 43.9361 1572.11 43.9361 L1582.56 43.9361 L1582.56 43.2069 Q1582.56 38.0623 1579.16 35.2672 Q1575.79 32.4315 1569.68 32.4315 Q1565.79 32.4315 1562.1 33.3632 Q1558.42 34.295 1555.01 36.1584 L1555.01 29.2718 Q1559.1 27.692 1562.95 26.9223 Q1566.8 26.1121 1570.45 26.1121 Q1580.29 26.1121 1585.15 31.2163 Q1590.01 36.3204 1590.01 46.6907 Z" fill="#000000" fill-rule="nonzero" fill-opacity="1" /><path clip-path="url(#clip030)" d="M1631.66 34.1734 Q1630.4 33.4443 1628.9 33.1202 Q1627.44 32.7556 1625.66 32.7556 Q1619.34 32.7556 1615.94 36.8875 Q1612.58 40.9789 1612.58 48.6757 L1612.58 72.576 L1605.08 72.576 L1605.08 27.2059 L1612.58 27.2059 L1612.58 34.2544 Q1614.93 30.1225 1618.69 28.1376 Q1622.46 26.1121 1627.85 26.1121 Q1628.62 26.1121 1629.55 26.2337 Q1630.48 26.3147 1631.62 26.5172 L1631.66 34.1734 Z" fill="#000000" fill-rule="nonzero" fill-opacity="1" /><path clip-path="url(#clip030)" d="M1639.19 9.54393 L1646.69 9.54393 L1646.69 46.7717 L1668.92 27.2059 L1678.44 27.2059 L1654.38 48.4326 L1679.46 72.576 L1669.73 72.576 L1646.69 50.4176 L1646.69 72.576 L1639.19 72.576 L1639.19 9.54393 Z" fill="#000000" fill-rule="nonzero" fill-opacity="1" /><path clip-path="url(#clip030)" d="M1689.42 62.2867 L1697.97 62.2867 L1697.97 72.576 L1689.42 72.576 L1689.42 62.2867 M1689.42 29.6769 L1697.97 29.6769 L1697.97 39.9662 L1689.42 39.9662 L1689.42 29.6769 Z" fill="#000000" fill-rule="nonzero" fill-opacity="1" /><path clip-path="url(#clip030)" d="M1733.78 12.096 L1784.94 12.096 L1784.94 18.9825 L1763.47 18.9825 L1763.47 72.576 L1755.25 72.576 L1755.25 18.9825 L1733.78 18.9825 L1733.78 12.096 Z" fill="#000000" fill-rule="nonzero" fill-opacity="1" /><path clip-path="url(#clip030)" d="M1789.97 27.2059 L1797.42 27.2059 L1797.42 72.576 L1789.97 72.576 L1789.97 27.2059 M1789.97 9.54393 L1797.42 9.54393 L1797.42 18.9825 L1789.97 18.9825 L1789.97 9.54393 Z" fill="#000000" fill-rule="nonzero" fill-opacity="1" /><path clip-path="url(#clip030)" d="M1851.82 48.0275 L1851.82 51.6733 L1817.55 51.6733 Q1818.04 59.3701 1822.17 63.421 Q1826.34 67.4314 1833.76 67.4314 Q1838.05 67.4314 1842.06 66.3781 Q1846.11 65.3249 1850.08 63.2184 L1850.08 70.267 Q1846.07 71.9684 1841.86 72.8596 Q1837.64 73.7508 1833.31 73.7508 Q1822.45 73.7508 1816.09 67.4314 Q1809.77 61.1119 1809.77 50.3365 Q1809.77 39.1965 1815.77 32.6746 Q1821.81 26.1121 1832.01 26.1121 Q1841.17 26.1121 1846.48 32.0264 Q1851.82 37.9003 1851.82 48.0275 M1844.37 45.84 Q1844.29 39.7232 1840.93 36.0774 Q1837.6 32.4315 1832.1 32.4315 Q1825.86 32.4315 1822.09 35.9558 Q1818.36 39.4801 1817.8 45.8805 L1844.37 45.84 Z" fill="#000000" fill-rule="nonzero" fill-opacity="1" /><path clip-path="url(#clip030)" d="M1890.35 34.1734 Q1889.09 33.4443 1887.59 33.1202 Q1886.13 32.7556 1884.35 32.7556 Q1878.03 32.7556 1874.63 36.8875 Q1871.27 40.9789 1871.27 48.6757 L1871.27 72.576 L1863.77 72.576 L1863.77 27.2059 L1871.27 27.2059 L1871.27 34.2544 Q1873.62 30.1225 1877.38 28.1376 Q1881.15 26.1121 1886.54 26.1121 Q1887.31 26.1121 1888.24 26.2337 Q1889.17 26.3147 1890.31 26.5172 L1890.35 34.1734 Z" fill="#000000" fill-rule="nonzero" fill-opacity="1" /><path clip-path="url(#clip030)" d="M1927.01 65.6895 L1940.38 65.6895 L1940.38 19.5497 L1925.83 22.4663 L1925.83 15.0127 L1940.29 12.096 L1948.48 12.096 L1948.48 65.6895 L1961.85 65.6895 L1961.85 72.576 L1927.01 72.576 L1927.01 65.6895 Z" fill="#000000" fill-rule="nonzero" fill-opacity="1" /><path clip-path="url(#clip032)" d="M333.136 1174.62 L333.136 123.472 L398.429 123.472 L398.429 1174.62 L333.136 1174.62 L333.136 1174.62  Z" fill="#009af9" fill-rule="evenodd" fill-opacity="1"/>
<polyline clip-path="url(#clip032)" style="stroke:#000000; stroke-linecap:round; stroke-linejoin:round; stroke-width:4; stroke-opacity:1; fill:none" points="333.136,1174.62 333.136,123.472 398.429,123.472 398.429,1174.62 333.136,1174.62 "/>
<circle clip-path="url(#clip032)" style="fill:#009af9; stroke:none; fill-opacity:0" cx="365.783" cy="1174.62" r="2"/>
<path clip-path="url(#clip032)" d="M365.783 1293.68 L365.783 1055.57 L365.783 123.472 L365.783 123.472  Z" fill="#009af9" fill-rule="evenodd" fill-opacity="1"/>
<polyline clip-path="url(#clip032)" style="stroke:#000000; stroke-linecap:round; stroke-linejoin:round; stroke-width:4; stroke-opacity:1; fill:none" points="365.783,1293.68 365.783,1055.57 "/>
<line clip-path="url(#clip032)" x1="381.783" y1="1293.68" x2="349.783" y2="1293.68" style="stroke:#000000; stroke-width:4; stroke-opacity:1"/>
<line clip-path="url(#clip032)" x1="381.783" y1="1055.57" x2="349.783" y2="1055.57" style="stroke:#000000; stroke-width:4; stroke-opacity:1"/>
<path clip-path="url(#clip032)" d="M806.508 1388.3 L806.508 123.472 L871.801 123.472 L871.801 1388.3 L806.508 1388.3 L806.508 1388.3  Z" fill="#e26f46" fill-rule="evenodd" fill-opacity="1"/>
<polyline clip-path="url(#clip032)" style="stroke:#000000; stroke-linecap:round; stroke-linejoin:round; stroke-width:4; stroke-opacity:1; fill:none" points="806.508,1388.3 806.508,123.472 871.801,123.472 871.801,1388.3 806.508,1388.3 "/>
<circle clip-path="url(#clip032)" style="fill:#e26f46; stroke:none; fill-opacity:0" cx="839.154" cy="1388.3" r="2"/>
<path clip-path="url(#clip032)" d="M839.154 1442.25 L839.154 1334.35 L839.154 123.472 L839.154 123.472  Z" fill="#e26f46" fill-rule="evenodd" fill-opacity="1"/>
<polyline clip-path="url(#clip032)" style="stroke:#000000; stroke-linecap:round; stroke-linejoin:round; stroke-width:4; stroke-opacity:1; fill:none" points="839.154,1442.25 839.154,1334.35 "/>
<line clip-path="url(#clip032)" x1="855.154" y1="1442.25" x2="823.154" y2="1442.25" style="stroke:#000000; stroke-width:4; stroke-opacity:1"/>
<line clip-path="url(#clip032)" x1="855.154" y1="1334.35" x2="823.154" y2="1334.35" style="stroke:#000000; stroke-width:4; stroke-opacity:1"/>
<path clip-path="url(#clip032)" d="M1279.88 1174.62 L1279.88 123.472 L1345.17 123.472 L1345.17 1174.62 L1279.88 1174.62 L1279.88 1174.62  Z" fill="#3da44d" fill-rule="evenodd" fill-opacity="1"/>
<polyline clip-path="url(#clip032)" style="stroke:#000000; stroke-linecap:round; stroke-linejoin:round; stroke-width:4; stroke-opacity:1; fill:none" points="1279.88,1174.62 1279.88,123.472 1345.17,123.472 1345.17,1174.62 1279.88,1174.62 "/>
<circle clip-path="url(#clip032)" style="fill:#3da44d; stroke:none; fill-opacity:0" cx="1312.53" cy="1174.62" r="2"/>
<path clip-path="url(#clip032)" d="M1312.53 1293.68 L1312.53 1055.57 L1312.53 123.472 L1312.53 123.472  Z" fill="#3da44d" fill-rule="evenodd" fill-opacity="1"/>
<polyline clip-path="url(#clip032)" style="stroke:#000000; stroke-linecap:round; stroke-linejoin:round; stroke-width:4; stroke-opacity:1; fill:none" points="1312.53,1293.68 1312.53,1055.57 "/>
<line clip-path="url(#clip032)" x1="1328.53" y1="1293.68" x2="1296.53" y2="1293.68" style="stroke:#000000; stroke-width:4; stroke-opacity:1"/>
<line clip-path="url(#clip032)" x1="1328.53" y1="1055.57" x2="1296.53" y2="1055.57" style="stroke:#000000; stroke-width:4; stroke-opacity:1"/>
<path clip-path="url(#clip032)" d="M1753.25 1158.32 L1753.25 123.472 L1818.54 123.472 L1818.54 1158.32 L1753.25 1158.32 L1753.25 1158.32  Z" fill="#c271d2" fill-rule="evenodd" fill-opacity="1"/>
<polyline clip-path="url(#clip032)" style="stroke:#000000; stroke-linecap:round; stroke-linejoin:round; stroke-width:4; stroke-opacity:1; fill:none" points="1753.25,1158.32 1753.25,123.472 1818.54,123.472 1818.54,1158.32 1753.25,1158.32 "/>
<circle clip-path="url(#clip032)" style="fill:#c271d2; stroke:none; fill-opacity:0" cx="1785.9" cy="1158.32" r="2"/>
<path clip-path="url(#clip032)" d="M1785.9 1275.27 L1785.9 1041.37 L1785.9 123.472 L1785.9 123.472  Z" fill="#c271d2" fill-rule="evenodd" fill-opacity="1"/>
<polyline clip-path="url(#clip032)" style="stroke:#000000; stroke-linecap:round; stroke-linejoin:round; stroke-width:4; stroke-opacity:1; fill:none" points="1785.9,1275.27 1785.9,1041.37 "/>
<line clip-path="url(#clip032)" x1="1801.9" y1="1275.27" x2="1769.9" y2="1275.27" style="stroke:#000000; stroke-width:4; stroke-opacity:1"/>
<line clip-path="url(#clip032)" x1="1801.9" y1="1041.37" x2="1769.9" y2="1041.37" style="stroke:#000000; stroke-width:4; stroke-opacity:1"/>
<path clip-path="url(#clip032)" d="M2226.62 1394.78 L2226.62 123.472 L2291.92 123.472 L2291.92 1394.78 L2226.62 1394.78 L2226.62 1394.78  Z" fill="#ac8d18" fill-rule="evenodd" fill-opacity="1"/>
<polyline clip-path="url(#clip032)" style="stroke:#000000; stroke-linecap:round; stroke-linejoin:round; stroke-width:4; stroke-opacity:1; fill:none" points="2226.62,1394.78 2226.62,123.472 2291.92,123.472 2291.92,1394.78 2226.62,1394.78 "/>
<circle clip-path="url(#clip032)" style="fill:#ac8d18; stroke:none; fill-opacity:0" cx="2259.27" cy="1394.78" r="2"/>
<path clip-path="url(#clip032)" d="M2259.27 1486.45 L2259.27 1303.12 L2259.27 123.472 L2259.27 123.472  Z" fill="#ac8d18" fill-rule="evenodd" fill-opacity="1"/>
<polyline clip-path="url(#clip032)" style="stroke:#000000; stroke-linecap:round; stroke-linejoin:round; stroke-width:4; stroke-opacity:1; fill:none" points="2259.27,1486.45 2259.27,1303.12 "/>
<line clip-path="url(#clip032)" x1="2275.27" y1="1303.12" x2="2243.27" y2="1303.12" style="stroke:#000000; stroke-width:4; stroke-opacity:1"/>
</svg>
